<svg width="32" height="32" viewBox="0 0 32 32" fill="none" xmlns="http://www.w3.org/2000/svg">
<path d="M11.7568 20.2416L20.2421 11.7563" stroke="white" stroke-width="2" stroke-linecap="round" stroke-linejoin="round"/>
<path d="M18.1207 22.3637L14.5852 25.8992C13.4599 27.0241 11.9339 27.656 10.3427 27.6559C8.75163 27.6557 7.22571 27.0236 6.10062 25.8985C4.97553 24.7734 4.3434 23.2475 4.34326 21.6564C4.34313 20.0653 4.975 18.5392 6.0999 17.4139L9.63543 13.8784" stroke="white" stroke-width="2" stroke-linecap="round" stroke-linejoin="round"/>
<path d="M22.3637 18.1207L25.8992 14.5852C27.0241 13.4599 27.656 11.9339 27.6559 10.3427C27.6557 8.75163 27.0236 7.22571 25.8985 6.10062C24.7734 4.97553 23.2475 4.3434 21.6564 4.34326C20.0653 4.34313 18.5392 4.975 17.414 6.0999L13.8784 9.63543" stroke="white" stroke-width="2" stroke-linecap="round" stroke-linejoin="round"/>
</svg>
