<svg width="26" height="26" viewBox="0 0 26 26" fill="none" xmlns="http://www.w3.org/2000/svg">
<path d="M21.9171 4.95567C20.8652 3.78095 19.5906 2.82661 18.1674 2.14767C16.744 1.46878 15.2003 1.07894 13.6254 1.00069C13.259 0.984118 12.9478 1.26629 12.9286 1.63247C12.9094 1.99884 13.1894 2.31193 13.5554 2.33391C15.6625 2.44418 17.6895 3.17692 19.3801 4.43914C21.0708 5.7016 22.3491 7.43692 23.0533 9.42614C23.7577 11.415 23.8564 13.5681 23.3369 15.6133C22.8174 17.6582 21.7033 19.5032 20.1352 20.915C18.7832 22.1297 17.1436 22.98 15.3718 23.3851C13.5997 23.7904 11.7537 23.7371 10.0081 23.2307C9.654 23.1275 9.28355 23.3307 9.18018 23.6846C9.07699 24.0387 9.2802 24.4091 9.63427 24.5123C10.5214 24.7697 11.4352 24.9239 12.3577 24.9716C12.3577 24.9716 12.8287 24.9902 13.0122 24.9902V24.9904C16.1214 24.9863 19.1073 23.7762 21.3421 21.6145C23.5768 19.4528 24.8856 16.5083 24.9927 13.4014C25.1 10.2943 23.9976 7.26672 21.9173 4.95608L21.9171 4.95567Z" fill="#1E2C47" stroke="#1E2C47" stroke-width="0.3"/>
<path d="M2.66037 15.6354C2.5691 15.2781 2.20553 15.0626 1.84831 15.1537C1.49107 15.2449 1.27537 15.6085 1.36663 15.9657C1.60057 16.8803 1.94196 17.764 2.38396 18.5983C2.4648 18.7583 2.60654 18.8791 2.77752 18.9335C2.9485 18.9879 3.13401 18.9712 3.29253 18.8872C3.45084 18.8032 3.56893 18.659 3.61996 18.4871C3.67081 18.3152 3.65051 18.1298 3.56334 17.9732C3.17127 17.2323 2.86807 16.4476 2.66037 15.6354Z" fill="#1E2C47" stroke="#1E2C47" stroke-width="0.3"/>
<path d="M5.45464 4.50026C5.32947 4.37491 5.15961 4.30469 4.98248 4.30469C4.80554 4.30469 4.63568 4.37491 4.51051 4.50026C3.84354 5.16722 3.25702 5.91039 2.76308 6.7141C2.66959 6.86497 2.64016 7.04676 2.68113 7.21962C2.72192 7.39228 2.83013 7.54166 2.98137 7.6346C3.13261 7.72735 3.31459 7.75622 3.48723 7.7145C3.6597 7.67297 3.8087 7.5642 3.9009 7.41258C4.34009 6.69794 4.86158 6.03726 5.45465 5.44406C5.71522 5.18349 5.71521 4.76084 5.45464 4.50026Z" fill="#1E2C47" stroke="#1E2C47" stroke-width="0.3"/>
<path d="M1.66789 13.2942C2.02848 13.2944 2.32408 13.008 2.33543 12.6474C2.36113 11.8095 2.48555 10.9773 2.70626 10.1682C2.80311 9.81242 2.59321 9.44569 2.23727 9.3488C1.88153 9.25195 1.51481 9.46186 1.41792 9.81761C1.16983 10.7275 1.02958 11.6632 1.00033 12.6059C0.994745 12.7828 1.05975 12.9547 1.181 13.0838C1.30226 13.2129 1.4697 13.2885 1.64664 13.2939L1.66789 13.2942Z" fill="#1E2C47" stroke="#1E2C47" stroke-width="0.3"/>
<path d="M7.2719 21.9902C6.56488 21.5393 5.91317 21.0069 5.32998 20.4044C5.07351 20.1395 4.6509 20.1326 4.38584 20.3891C4.12098 20.6454 4.11409 21.0682 4.37057 21.3331C5.02657 22.0101 5.75948 22.6082 6.55442 23.1148C6.8651 23.3064 7.27188 23.2131 7.46781 22.9054C7.66394 22.5977 7.57677 22.1896 7.27187 21.989L7.2719 21.9902Z" fill="#1E2C47" stroke="#1E2C47" stroke-width="0.3"/>
<path d="M9.1902 20.0359C9.09968 20.3319 9.22428 20.6513 9.49156 20.8076C9.75865 20.9639 10.0982 20.916 10.3118 20.6919L17.4664 13.1454C17.6117 12.9921 17.6759 12.779 17.6394 12.571C17.6029 12.3629 17.4701 12.1845 17.2815 12.0897L15.0345 10.9623L16.1535 5.8861C16.2185 5.59554 16.0829 5.29714 15.8214 5.15467C15.5601 5.01218 15.2358 5.06005 15.0267 5.27201L8.53627 11.8454C8.38895 11.9947 8.32022 12.2047 8.35095 12.4122C8.38168 12.6196 8.50815 12.8007 8.69254 12.9009L11.0043 14.1559L9.1902 20.0359ZM10.1105 12.1518L14.3523 7.85657L13.619 11.1822C13.5532 11.4805 13.6983 11.7856 13.9714 11.9227L15.8792 12.8797L11.3079 17.7012L12.4417 14.0285C12.5353 13.7243 12.4012 13.3963 12.1213 13.2449L10.1105 12.1518Z" fill="#1E2C47" stroke="#1E2C47" stroke-width="0.3"/>
</svg>
