<svg width="24" height="24" viewBox="0 0 24 24" fill="none" xmlns="http://www.w3.org/2000/svg">
<rect width="24" height="24" rx="5" fill="#EEFFFE"/>
<path d="M2 11.5C2 7.96447 2 6.1967 3.11299 5.09835C4.22599 4 6.01733 4 9.6 4H13.4C16.9827 4 18.774 4 19.887 5.09835C21 6.1967 21 7.96447 21 11.5C21 15.0355 21 16.8033 19.887 17.9017C18.774 19 16.9827 19 13.4 19H9.6C6.01733 19 4.22599 19 3.11299 17.9017C2 16.8033 2 15.0355 2 11.5Z" stroke="#079893" stroke-width="1.5"/>
<path d="M10 15.5H6" stroke="#079893" stroke-linecap="round"/>
<path d="M8 12.5H6" stroke="#079893" stroke-linecap="round"/>
<path d="M2 10L21 10" stroke="#079893" stroke-width="1.5" stroke-linecap="round"/>
<path d="M14 14.5C14 13.7929 14 13.4393 14.2197 13.2197C14.4393 13 14.7929 13 15.5 13C16.2071 13 16.5607 13 16.7803 13.2197C17 13.4393 17 13.7929 17 14.5C17 15.2071 17 15.5607 16.7803 15.7803C16.5607 16 16.2071 16 15.5 16C14.7929 16 14.4393 16 14.2197 15.7803C14 15.5607 14 15.2071 14 14.5Z" stroke="#079893"/>
</svg>
