<svg
    xmlns="http://www.w3.org/2000/svg"
    viewBox="0 0 70 70"
    id="vector">
    <defs>
        <clipPath id="clip_path_2">
            <path d="M 35 35 M 0 35 C 0 25.721 3.69 16.813 10.251 10.251 C 16.813 3.69 25.721 0 35 0 C 44.279 0 53.187 3.69 59.749 10.251 C 66.31 16.813 70 25.721 70 35 C 70 44.279 66.31 53.187 59.749 59.749 C 53.187 66.31 44.279 70 35 70 C 25.721 70 16.813 66.31 10.251 59.749 C 3.69 53.187 0 44.279 0 35"/>
        </clipPath>
    </defs>
    <path
        id="path"
        d="M 35 35 M 0 35 C 0 25.721 3.69 16.813 10.251 10.251 C 16.813 3.69 25.721 0 35 0 C 44.279 0 53.187 3.69 59.749 10.251 C 66.31 16.813 70 25.721 70 35 C 70 44.279 66.31 53.187 59.749 59.749 C 53.187 66.31 44.279 70 35 70 C 25.721 70 16.813 66.31 10.251 59.749 C 3.69 53.187 0 44.279 0 35"
        fill="#2e3a59"/>
    <path
        id="path_1"
        d="M 34.5 23.5 M 21 23.5 C 21 20.65 21.903 17.871 23.578 15.565 C 25.254 13.259 27.617 11.542 30.328 10.661 C 33.039 9.78 35.961 9.78 38.672 10.661 C 41.383 11.542 43.746 13.259 45.422 15.565 C 47.097 17.871 48 20.65 48 23.5 C 48 26.35 47.097 29.129 45.422 31.435 C 43.746 33.741 41.383 35.458 38.672 36.339 C 35.961 37.22 33.039 37.22 30.328 36.339 C 27.617 35.458 25.254 33.741 23.578 31.435 C 21.903 29.129 21 26.35 21 23.5"
        fill="#baceff"/>
    <g id="group">
        <path
            id="path_2"
            clip-path="url(#clip_path_2)"
            d="M 35 71 M 8 71 C 8 63.842 10.847 56.97 15.908 51.908 C 20.97 46.847 27.842 44 35 44 C 42.158 44 49.03 46.847 54.092 51.908 C 59.153 56.97 62 63.842 62 71 C 62 78.158 59.153 85.03 54.092 90.092 C 49.03 95.153 42.158 98 35 98 C 27.842 98 20.97 95.153 15.908 90.092 C 10.847 85.03 8 78.158 8 71"
            fill="#baceff"/>
    </g>
</svg>