<svg width="56" height="31" viewBox="0 0 56 31" fill="none" xmlns="http://www.w3.org/2000/svg">
<rect width="56" height="31" rx="15.5" fill="white"/>
<path d="M8.66602 15.9987C8.66602 12.856 8.66602 11.2847 9.64233 10.3083C10.6186 9.33203 12.19 9.33203 15.3327 9.33203H18.666C21.8087 9.33203 23.3801 9.33203 24.3564 10.3083C25.3327 11.2847 25.3327 12.856 25.3327 15.9987V17.6654C25.3327 20.8081 25.3327 22.3794 24.3564 23.3557C23.3801 24.332 21.8087 24.332 18.666 24.332H15.3327C12.19 24.332 10.6186 24.332 9.64233 23.3557C8.66602 22.3794 8.66602 20.8081 8.66602 17.6654V15.9987Z" stroke="black" stroke-width="1.3"/>
<path d="M12.834 9.33203V8.08203" stroke="black" stroke-width="1.3" stroke-linecap="round"/>
<path d="M21.166 9.33203V8.08203" stroke="black" stroke-width="1.3" stroke-linecap="round"/>
<path d="M9.08398 13.5H24.9173" stroke="black" stroke-width="1.3" stroke-linecap="round"/>
<path d="M22.0007 20.1667C22.0007 20.6269 21.6276 21 21.1673 21C20.7071 21 20.334 20.6269 20.334 20.1667C20.334 19.7064 20.7071 19.3333 21.1673 19.3333C21.6276 19.3333 22.0007 19.7064 22.0007 20.1667Z" fill="black"/>
<path d="M22.0007 16.8333C22.0007 17.2936 21.6276 17.6667 21.1673 17.6667C20.7071 17.6667 20.334 17.2936 20.334 16.8333C20.334 16.3731 20.7071 16 21.1673 16C21.6276 16 22.0007 16.3731 22.0007 16.8333Z" fill="black"/>
<path d="M17.8327 20.1667C17.8327 20.6269 17.4596 21 16.9993 21C16.5391 21 16.166 20.6269 16.166 20.1667C16.166 19.7064 16.5391 19.3333 16.9993 19.3333C17.4596 19.3333 17.8327 19.7064 17.8327 20.1667Z" fill="black"/>
<path d="M17.8327 16.8333C17.8327 17.2936 17.4596 17.6667 16.9993 17.6667C16.5391 17.6667 16.166 17.2936 16.166 16.8333C16.166 16.3731 16.5391 16 16.9993 16C17.4596 16 17.8327 16.3731 17.8327 16.8333Z" fill="black"/>
<path d="M13.6667 20.1667C13.6667 20.6269 13.2936 21 12.8333 21C12.3731 21 12 20.6269 12 20.1667C12 19.7064 12.3731 19.3333 12.8333 19.3333C13.2936 19.3333 13.6667 19.7064 13.6667 20.1667Z" fill="black"/>
<path d="M13.6667 16.8333C13.6667 17.2936 13.2936 17.6667 12.8333 17.6667C12.3731 17.6667 12 17.2936 12 16.8333C12 16.3731 12.3731 16 12.8333 16C13.2936 16 13.6667 16.3731 13.6667 16.8333Z" fill="black"/>
<path fill-rule="evenodd" clip-rule="evenodd" d="M34.8109 18.6691C34.5297 18.3879 34.5297 17.9321 34.8109 17.6509L39.1309 13.3309C39.4121 13.0497 39.8679 13.0497 40.1491 13.3309L44.4691 17.6509C44.7503 17.9321 44.7503 18.3879 44.4691 18.6691C44.1879 18.9503 43.7321 18.9503 43.4509 18.6691L39.64 14.8582L35.8291 18.6691C35.5479 18.9503 35.0921 18.9503 34.8109 18.6691Z" fill="black"/>
</svg>
