<svg width="139" height="119" viewBox="0 0 139 119" fill="none" xmlns="http://www.w3.org/2000/svg">
<path d="M92.3947 176.517L67.3772 177.544C67.3772 177.544 66.2243 142.65 66.779 127.972C67.3827 112.026 74.2299 64.585 74.2299 64.585H94.8965C94.8965 64.585 89.6156 112.211 89.5014 128.162C89.4253 142.95 92.3947 176.517 92.3947 176.517Z" fill="#37474F"/>
<path d="M78.3198 64.585L90.7307 107.55C92.1991 87.2258 94.9238 64.585 94.9238 64.585H78.3198Z" fill="#263238"/>
<path d="M91.0029 66.9238L89.6868 81.0642L88.474 95.2317C87.6963 104.684 86.9566 114.136 86.3964 123.605C86.255 125.976 86.1735 128.353 86.2061 130.729C86.2387 133.106 86.3529 135.477 86.4726 137.843C86.7191 142.585 87.0237 147.319 87.3863 152.043C87.7452 156.769 89.0668 170.692 89.0668 170.692C89.0668 170.692 88.1096 156.742 87.7996 152.016C87.4896 147.29 87.1796 142.553 86.9621 137.821C86.8478 135.455 86.7608 133.09 86.7228 130.724C86.6847 128.358 86.788 126.003 86.9294 123.654C87.4461 114.191 88.1966 104.738 88.8819 95.2806L91.0029 66.9238Z" fill="#263238"/>
<path d="M76.3729 64.5634C76.4654 64.9876 77.9066 71.6933 79.4077 77.4528C80.4954 81.6568 81.6157 85.3551 82.2575 85.7412C82.9863 86.1708 86.5377 87.7426 87.7233 88.2375C87.7233 88.2375 95.7071 128.075 99.9166 140.448C103.805 151.869 114.791 173.623 114.791 173.623L137.486 161.104C137.486 161.104 125.01 139.621 123.096 134.068C120.126 125.47 108.994 83.4896 108.994 83.4896C108.994 83.4896 109.081 70.3446 104.643 64.6014L76.3729 64.5634Z" fill="#37474F"/>
<path d="M103.005 79.7963C102.364 79.6332 101.684 79.5788 101.031 79.4755C100.487 79.3939 99.9761 79.3014 99.4594 79.1872C98.4598 79.0075 97.5124 78.6081 96.6858 78.0179C95.783 77.3163 95.3207 76.2504 94.8856 75.2225C94.6245 74.6134 94.3417 74.0097 94.0861 73.406C93.9556 73.1177 93.8251 72.8241 93.6891 72.5358C93.5055 72.1932 93.3403 71.841 93.1942 71.4807C93.1942 71.4318 93.0963 71.4807 93.1181 71.4807C93.207 71.7282 93.2815 71.9806 93.341 72.2367C93.428 72.5304 93.5096 72.8241 93.6021 73.1178C93.7652 73.6616 93.923 74.162 94.0916 74.6841C94.3544 75.6314 94.7287 76.5442 95.2065 77.4034C96.1691 78.937 97.8931 79.5788 99.6172 79.7746C100.107 79.8344 100.607 79.8725 101.102 79.8997C101.728 79.954 102.358 79.954 102.984 79.8997C103.076 79.9541 103.109 79.8235 103.005 79.7963Z" fill="#263238"/>
<path d="M80.3754 84.8222C82.9086 85.7409 85.3563 86.8801 87.6903 88.2268C87.7828 88.2757 87.7229 88.4226 87.6251 88.3791C85.1559 87.3185 82.6433 86.307 80.2449 85.1159C80.2131 85.0945 80.1898 85.0625 80.1792 85.0256C80.1686 84.9888 80.1713 84.9493 80.1869 84.9143C80.2025 84.8792 80.2299 84.8508 80.2644 84.8339C80.2989 84.8171 80.3382 84.8129 80.3754 84.8222Z" fill="#263238"/>
<path d="M79.6366 67.9407C79.6366 67.8536 79.7889 67.8373 79.7889 67.9407C79.7889 70.8666 79.9575 73.4391 80.2022 76.1747C80.3164 77.4419 81.3389 84.4576 83.5415 83.9464C83.9059 83.8594 84.0854 83.5004 84.1561 82.9403C84.1439 82.2151 84.0453 81.4939 83.8624 80.792C83.6176 79.3236 83.4219 77.8498 83.3185 76.365C83.0592 73.6031 83.0884 70.8216 83.4055 68.0657C83.4055 68.047 83.413 68.029 83.4262 68.0157C83.4395 68.0025 83.4575 67.995 83.4762 67.995C83.495 67.995 83.513 68.0025 83.5262 68.0157C83.5395 68.029 83.5469 68.047 83.5469 68.0657C83.4756 71.8964 83.6937 75.727 84.1996 79.5248C84.4715 81.3522 85.3906 84.0987 83.4817 84.3761C81.5727 84.6534 80.2838 80.0633 80.0445 78.8015C79.4379 75.2143 79.3008 71.5633 79.6366 67.9407Z" fill="#263238"/>
<path d="M83.4808 84.1256C83.679 84.5977 83.8443 85.0829 83.9757 85.5777C84.1172 85.9606 84.1872 86.3661 84.1824 86.7742C84.1824 86.8503 84.0682 86.8558 84.0301 86.8068C83.7996 86.4481 83.6271 86.0554 83.5189 85.643C83.3503 85.1916 83.1708 84.7456 83.0185 84.2942C83.0075 84.2638 83.0025 84.2316 83.0039 84.1993C83.0053 84.167 83.013 84.1354 83.0266 84.1061C83.0403 84.0768 83.0595 84.0505 83.0833 84.0286C83.1071 84.0068 83.135 83.9898 83.1654 83.9788C83.1957 83.9677 83.228 83.9627 83.2602 83.9641C83.2925 83.9655 83.3242 83.9732 83.3535 83.9868C83.3828 84.0005 83.4091 84.0198 83.431 84.0436C83.4528 84.0674 83.4697 84.0952 83.4808 84.1256Z" fill="#263238"/>
<path d="M131.836 157.96C128.513 151.705 123.292 141.943 121.677 138.849C120.155 135.784 118.918 132.585 117.984 129.293C115.928 122.614 113.981 115.907 112.143 109.17C110.305 102.434 108.579 95.6608 106.965 88.8517C106.557 87.1548 106.117 85.4526 105.791 83.734C105.497 82.0005 105.497 80.23 105.791 78.4966C106.041 76.8756 106.054 75.2266 105.829 73.6019C105.568 71.9874 105.186 70.3949 104.687 68.8377C104.431 68.0164 104.143 67.2061 103.871 66.3849C103.838 66.2978 103.697 66.3359 103.724 66.4284C104.73 69.7242 105.758 73.0526 105.546 76.5387C105.443 78.2138 105.002 79.8617 105.002 81.5476C105.113 83.2222 105.397 84.8808 105.85 86.4968C107.439 93.3385 109.143 100.151 110.963 106.935C112.783 113.719 114.719 120.47 116.771 127.188C117.761 130.451 118.686 133.78 120.094 136.896C121.503 140.012 126.822 149.584 130.395 155.665C130.844 156.444 131.299 157.217 131.76 157.982C131.787 158.058 131.863 158.009 131.836 157.96Z" fill="#263238"/>
<path d="M87.5815 29.6473C80.457 33.5576 68.3181 40.7801 63.3907 41.3511C59.5837 41.7971 41.6962 29.9301 36.3011 25.2855C34.6695 23.8661 43.9423 13.6687 45.8295 15.0229C51.0342 18.7756 65.1202 27.6078 65.7511 27.722C68.0788 28.1299 77.4059 25.5466 85.6998 23.9694C94.9508 22.191 91.035 27.7547 87.5815 29.6473Z" fill="#E5E4CA"/>
<path d="M74.6334 37.7615L68.999 27.314C68.999 27.314 82.9381 22.9631 89.2251 23.507C95.5121 24.0509 91.6235 27.3902 88.4365 29.5819C85.2495 31.7737 74.6334 37.7615 74.6334 37.7615Z" fill="#C7C7C7"/>
<path d="M74.6334 37.7615L68.999 27.314C68.999 27.314 82.9381 22.9631 89.2251 23.507C95.5121 24.0509 91.6235 27.3902 88.4365 29.5819C85.2495 31.7737 74.6334 37.7615 74.6334 37.7615Z" fill="#349B5C"/>
<path d="M69.0088 27.3146L69.0577 27.4016C69.1882 27.3418 69.3188 27.2874 69.4547 27.2384C69.6519 27.1519 69.8534 27.0757 70.0584 27.01L70.673 26.8142C70.8796 26.7544 71.0918 26.7163 71.3039 26.6674L71.6193 26.5912L71.9402 26.5477C73.6493 26.2864 75.3955 26.4166 77.047 26.9284C78.6917 27.4531 80.2633 28.1841 81.7242 29.1039C82.8826 29.8 83.9921 30.5614 85.1015 31.3282L85.2701 31.4425L85.3844 31.5186L85.5965 31.3881C85.553 31.3881 85.5149 31.3337 85.4714 31.3065L85.3028 31.1923C84.1661 30.4146 83.024 29.6314 81.833 28.9244C80.3543 27.9982 78.7621 27.267 77.096 26.749C75.4667 26.2666 73.752 26.1441 72.0707 26.39C70.6295 26.787 69.5853 27.097 69.1828 27.2221L69.0088 27.3146ZM72.7342 33.7212C74.2679 34.2161 75.7526 34.8089 77.2428 35.4235L78.1347 35.7716L77.8737 35.9184L77.1558 35.6356C75.6656 35.0374 74.1863 34.4174 72.6689 33.917L72.5384 33.8735L72.4024 33.6179L72.7342 33.7212ZM85.1015 31.3282L85.3028 31.1923C85.834 30.8233 86.4193 30.5389 87.0377 30.3493L87.4238 30.2568L86.88 30.5995C86.3821 30.7778 85.9073 31.0151 85.4659 31.3065L85.2647 31.4425C85.1233 31.5403 84.9819 31.6437 84.8459 31.7525C84.71 31.8612 84.5849 31.9591 84.4598 32.0733L83.7202 32.5139C84.0391 32.1914 84.3769 31.8881 84.7317 31.6056C84.8568 31.5023 84.9765 31.4098 85.1015 31.3228V31.3282Z" fill="white"/>
<path d="M76.6996 36.0873C76.047 34.5591 75.1931 33.0961 74.4045 31.6331C73.6159 30.1701 72.6805 28.6908 71.8429 27.2115C71.8429 27.168 71.745 27.2115 71.7668 27.2496C72.5282 28.7398 73.2243 30.2571 74.0456 31.7147C74.8372 33.2258 75.7104 34.6928 76.6615 36.109C76.6615 36.109 76.7105 36.1091 76.6996 36.0873Z" fill="#263238"/>
<path opacity="0.1" d="M71.7394 32.3886L74.6327 37.7619C74.6327 37.7619 85.2489 31.7795 88.4359 29.604C90.3775 28.2662 92.5801 26.4986 92.5801 25.2042L71.7394 32.3886Z" fill="black"/>
<path d="M108.053 68.6805C107.966 68.7729 74.0616 68.1747 73.7407 67.7994C73.2948 67.2556 78.0318 35.6683 82.8177 27.2385C85.1019 23.203 91.3617 21.0602 95.011 27.3037C103.724 42.2381 108.352 68.3487 108.053 68.6805Z" fill="#349B5C"/>
<path d="M73.7735 66.6518C73.9312 66.6518 74.0944 66.6518 74.2521 66.6518H74.5784H74.9047C75.1222 66.6518 75.3398 66.6518 75.5573 66.6191L76.2045 66.5376C76.4204 66.5069 76.6346 66.4651 76.8463 66.4125C77.2729 66.3262 77.6942 66.2154 78.108 66.0807C78.5159 65.9284 78.9238 65.7925 79.3208 65.6021C79.7178 65.4118 80.0986 65.2214 80.4901 65.0256C80.8817 64.8298 81.2407 64.596 81.5778 64.3512C81.915 64.1065 82.2957 63.8618 82.6656 63.6116C83.0354 63.3614 83.3617 63.0677 83.6989 62.8176C84.0361 62.5674 84.4766 62.1758 84.8573 61.8386C84.9053 61.7999 84.9507 61.7581 84.9933 61.7135C85.8689 60.9467 86.7119 60.1363 87.5548 59.326C88.8057 58.1295 90.0457 56.9113 91.4054 55.8453C92.0776 55.3089 92.7965 54.8338 93.5536 54.4258C93.7059 54.3442 93.8636 54.2681 94.0213 54.2028C94.0931 54.1647 94.1676 54.132 94.2443 54.1049C94.7978 53.8683 95.3818 53.7109 95.9792 53.6372C96.1913 53.6372 96.4034 53.6046 96.6155 53.5992H97.2627C97.4783 53.5882 97.6943 53.5882 97.9099 53.5992L98.5517 53.6644L98.8725 53.7025L99.188 53.7569L99.8461 53.9635C100.259 54.0832 100.684 54.1702 101.086 54.3279C101.266 54.3878 101.45 54.4585 101.63 54.5292C101.712 54.5561 101.792 54.5888 101.869 54.6271C102.413 54.85 102.957 55.1111 103.457 55.3776C104.181 55.742 104.909 56.1063 105.671 56.4055L105.638 56.2695C104.915 55.9758 104.219 55.6169 103.517 55.2579C103.033 55.0078 102.549 54.763 102.049 54.5509L101.82 54.4476C101.597 54.3497 101.369 54.2627 101.14 54.1865C100.733 54.0234 100.308 53.9309 99.8896 53.8058L99.2478 53.6807L98.9269 53.6209L98.6006 53.5828L97.9534 53.5067C97.7359 53.5067 97.5183 53.5067 97.3008 53.4741H96.6482C96.4252 53.4741 96.2076 53.4741 95.9847 53.5067C95.3416 53.584 94.7132 53.7543 94.1192 54.0125L93.9071 54.1158C93.7657 54.1756 93.6298 54.2463 93.4938 54.317C92.7265 54.7369 91.9985 55.2247 91.3184 55.7746C89.9533 56.8623 88.7241 58.0914 87.4841 59.2988C86.6194 60.1418 85.7547 60.9793 84.8573 61.7788L84.7213 61.9039C84.3733 62.2139 84.0198 62.5184 83.6608 62.8121C82.9976 63.3684 82.3001 63.8825 81.5724 64.3512C81.2135 64.5905 80.8328 64.7972 80.4847 65.0202C80.1366 65.2432 79.7178 65.4226 79.3154 65.564C78.9129 65.7055 78.5159 65.8795 78.108 66.0263C77.697 66.1567 77.2795 66.2656 76.8571 66.3526C76.645 66.3853 76.4384 66.4451 76.2208 66.4669L75.5791 66.543C75.367 66.543 75.1494 66.543 74.9319 66.5756H74.611H74.2847C74.127 66.5756 73.9747 66.5756 73.817 66.5484C73.8007 66.5821 73.7862 66.6166 73.7735 66.6518ZM74.8014 59.1248L74.8884 59.1737C76.283 59.9588 77.7581 60.5916 79.2882 61.0609C80.8233 61.5125 82.4142 61.7468 84.0143 61.757C84.2917 61.757 84.5582 61.757 84.8464 61.757H84.9987C86.2698 61.695 87.5302 61.4926 88.7568 61.1534C89.5294 60.9417 90.2885 60.6839 91.0301 60.3811C91.7718 60.0786 92.4978 59.7392 93.2055 59.3641C94.5162 58.6897 95.7671 57.912 97.0126 57.1342L97.2138 57.0092L97.3443 56.9276C98.6927 56.0498 100.095 55.2579 101.543 54.5563H101.597C101.658 54.5236 101.722 54.4963 101.788 54.4748C102.78 54.0247 103.831 53.7154 104.909 53.5557C104.93 53.6179 104.946 53.6815 104.958 53.746C104.592 53.796 104.229 53.865 103.871 53.9527C103.241 54.09 102.623 54.2755 102.021 54.5074L101.842 54.5835L101.624 54.676C100.174 55.3553 98.7683 56.1255 97.415 56.982L97.3171 57.0418L97.1104 57.1614C95.8378 57.9337 94.5652 58.706 93.2382 59.3804C92.5257 59.7502 91.7915 60.0928 91.0627 60.3974C90.3199 60.7063 89.5589 60.9697 88.784 61.186C87.5078 61.551 86.1939 61.7681 84.8682 61.8332H84.7159C84.482 61.8332 84.2536 61.8332 84.0198 61.8332C82.4053 61.835 80.7984 61.6136 79.2447 61.1751C77.6964 60.7225 76.204 60.0968 74.7959 59.3097L74.8014 59.1248ZM76.8408 47.8506C77.2107 47.682 77.5859 47.5515 77.9666 47.4155C78.3811 47.2815 78.8023 47.169 79.2284 47.0783C79.4459 47.0402 79.6526 46.9804 79.8701 46.9586L80.5173 46.8771C80.7349 46.8499 80.9524 46.8771 81.17 46.839H81.4963C81.605 46.839 81.7138 46.839 81.8226 46.839C83.5736 46.883 85.2918 47.3237 86.8478 48.1279C88.3929 48.9336 89.8263 49.9373 91.1117 51.1137C92.1505 52.0274 93.1294 53.0064 94.0975 53.9744L94.2498 54.1267L94.8534 54.7304C95.6257 55.4972 96.4034 56.2695 97.2247 56.9874C97.2599 57.0113 97.2927 57.0386 97.3225 57.069C97.774 57.4551 98.2362 57.8249 98.7203 58.1567C99.4155 58.659 100.172 59.0703 100.972 59.3804C101.772 59.6823 102.624 59.8245 103.479 59.7991C104.337 59.788 105.19 59.6693 106.019 59.4456L106.351 59.3423C106.351 59.4021 106.378 59.462 106.389 59.5218L106.073 59.6251C105.229 59.8591 104.36 59.9888 103.484 60.0112H103.153H102.826H102.495L102.168 59.9569L101.842 59.9025C101.733 59.9025 101.63 59.8481 101.521 59.8209L101.206 59.7339C101.097 59.7013 100.999 59.6577 100.896 59.6197C100.076 59.304 99.3012 58.8836 98.5897 58.3688C98.0785 58.0068 97.5866 57.6183 97.1159 57.2049L97.0234 57.1288L96.5829 56.6828C95.9411 56.0955 95.3212 55.4863 94.7066 54.8718L94.0431 54.2028L93.9017 54.056C92.9499 53.0988 91.9982 52.1416 90.992 51.2497C89.7215 50.079 88.3091 49.0723 86.788 48.253C85.2583 47.4476 83.5666 46.9978 81.8389 46.9369H81.5126H81.1917C80.9742 46.9369 80.7621 46.9369 80.5445 46.9695L79.9028 47.0457C79.6907 47.0457 79.4786 47.1218 79.2664 47.1599C78.8442 47.245 78.4267 47.3521 78.0156 47.4808C77.6131 47.6276 77.2161 47.7581 76.83 47.9376L76.8408 47.8506ZM81.9585 28.995C83.1061 29.6857 84.2047 30.4362 85.3033 31.1704L85.4719 31.2846L86.1789 31.7687C87.5794 32.7779 89.06 33.671 90.6059 34.439C90.8833 34.5696 91.1498 34.6838 91.4543 34.7925L91.6284 34.8578C92.0898 35.0235 92.5648 35.149 93.0478 35.2331C93.8901 35.3781 94.7524 35.3597 95.5876 35.1787C96.4292 35.0133 97.2462 34.7409 98.0187 34.3683C98.1601 34.2976 98.3015 34.2215 98.4375 34.1399C98.4375 34.1943 98.4864 34.2487 98.5082 34.3031C98.3776 34.3846 98.2417 34.4608 98.1057 34.5315C97.3207 34.9206 96.4891 35.2076 95.6311 35.3853L95.3103 35.456L94.9785 35.4995L94.6522 35.5431H94.3204H93.9941L93.6624 35.5159H93.3306C93.2219 35.5159 93.1185 35.4778 93.0097 35.4615C92.4536 35.3674 91.9073 35.2217 91.3782 35.0264L91.1987 34.9557C90.9594 34.8632 90.7201 34.7653 90.4862 34.6566C89.697 34.2892 88.9322 33.8714 88.1966 33.4057C87.457 32.9488 86.7336 32.4648 86.0212 31.9699L85.2434 31.426L85.0749 31.3118C84.0143 30.5831 82.9538 29.8489 81.8498 29.1799L81.9585 28.995ZM79.5329 36.2718C79.8429 36.3806 80.1584 36.4785 80.4738 36.5709L80.6098 36.609C81.0014 36.7232 81.3984 36.8266 81.7954 36.9081C83.3496 37.2732 84.9673 37.2732 86.5215 36.9081C88.091 36.6119 89.5898 36.0194 90.9376 35.1623C91.037 35.1021 91.1333 35.0368 91.2259 34.9666L91.4543 34.8143C92.5453 33.9409 93.6896 33.1362 94.8806 32.405C95.5905 32.0093 96.3396 31.6885 97.1159 31.4478H97.1866V31.4859L97.0941 31.5131C96.7189 31.6545 96.3436 31.7904 95.9738 31.9536C95.6019 32.1156 95.2388 32.2971 94.8861 32.4974C93.7331 33.2186 92.6285 34.0143 91.5794 34.8795L91.3564 35.0373C91.2313 35.1297 91.1062 35.2113 90.9757 35.2983C89.617 36.1795 88.1038 36.7958 86.5161 37.1148C84.9318 37.4901 83.2818 37.4901 81.6975 37.1148C81.2678 37.0224 80.8382 36.919 80.4194 36.7939L80.2835 36.7559C79.9952 36.6688 79.707 36.5764 79.4242 36.4785C79.4894 36.4187 79.5112 36.3425 79.5329 36.2718ZM78.8586 38.8497L79.7233 37.5934L80.3052 36.7722L80.4466 36.5709C81.208 35.4832 81.9803 34.4281 82.845 33.4274C83.409 32.7619 84.0335 32.1502 84.7105 31.6001C84.8301 31.5022 84.9498 31.4097 85.0749 31.3227L85.2761 31.1867C85.8073 30.8177 86.3926 30.5334 87.011 30.3438L87.6527 30.186L88.2999 30.0936C88.512 30.0664 88.7296 30.0229 88.9471 30.0066L89.5998 29.9576H89.9261H90.905C91.3405 29.9848 91.7743 30.0338 92.2048 30.1045C93.0632 30.2488 93.9101 30.4542 94.7392 30.719C95.5224 30.9583 96.311 31.1813 97.1159 31.3499L97.1594 31.4369V31.475H97.0724C96.2675 31.3173 95.4734 31.0943 94.6848 30.8659C93.8606 30.6076 93.0191 30.4077 92.1668 30.2676C91.7414 30.2026 91.313 30.159 90.8833 30.1371H89.9152L89.5889 30.1643L88.9471 30.2132C88.735 30.2132 88.5229 30.2731 88.3054 30.3057L87.6691 30.4036L87.0491 30.5559C86.4723 30.7395 85.9234 31.0012 85.4175 31.3336L85.2163 31.4696C85.0749 31.5674 84.9335 31.6708 84.7975 31.7796C84.1258 32.3179 83.505 32.9169 82.9429 33.5688C82.0891 34.5424 81.3114 35.5866 80.5554 36.6416L80.414 36.8429L79.7994 37.6967L78.7117 39.1815C78.8042 39.0455 78.8314 38.9476 78.8586 38.8497Z" fill="white"/>
<path d="M85.096 29.9091C86.597 30.0886 89.9363 27.4944 91.334 25.2047C91.4265 25.047 91.2633 23.3393 91.1545 21.2509C91.1002 19.9837 91.0621 18.5751 91.1219 17.2861L82.9368 18.8742C83.3211 20.5081 83.5037 22.183 83.4807 23.8614C83.4716 24.0446 83.4461 24.2266 83.4046 24.4052C83.401 24.4341 83.401 24.4634 83.4046 24.4923C83.1816 25.4712 82.7411 29.6317 85.096 29.9091Z" fill="#E5E4CA"/>
<path d="M91.1445 20.8916C89.3933 23.252 86.7937 25.5199 83.3075 24.9815C83.3075 24.7693 83.3619 24.5953 83.3891 24.4757C83.3912 24.4467 83.3912 24.4176 83.3891 24.3886C83.4382 24.2113 83.4655 24.0287 83.4707 23.8448C83.4927 22.1647 83.3101 20.4881 82.9268 18.8522L91.0847 17.2695C91.063 18.4497 91.0901 19.7006 91.1445 20.8916Z" fill="#263238"/>
<path d="M93.2868 8.0779C94.021 10.993 92.1012 19.2053 89.9692 20.951C86.8801 23.4854 82.0235 23.5072 79.9242 19.8633C77.8847 16.3065 80.5768 5.64686 82.9372 4.09142C86.4179 1.75283 92.1991 3.78142 93.2868 8.0779Z" fill="#E5E4CA"/>
<path d="M85.1615 12.2764C85.1615 12.2764 85.1996 12.3144 85.1887 12.3362C85.0255 12.8801 84.9222 13.5327 85.3682 13.8481C85.3682 13.8481 85.3682 13.8862 85.3682 13.8808C84.7754 13.6251 84.9168 12.7658 85.1615 12.2764Z" fill="#263238"/>
<path d="M85.8086 11.8416C86.706 12.0156 86.2927 13.8049 85.4606 13.6418C84.6285 13.4786 85.0527 11.6947 85.8086 11.8416Z" fill="#263238"/>
<path d="M81.8994 11.4014C81.8994 11.4014 81.8505 11.4014 81.8505 11.4394C81.7363 11.9833 81.5133 12.6196 80.9694 12.6849V12.7175C81.6166 12.7719 81.8994 11.9507 81.8994 11.4014Z" fill="#263238"/>
<path d="M81.5565 10.7101C80.6863 10.4327 80.1968 12.2003 81.0126 12.4559C81.8284 12.7115 82.2907 10.9385 81.5565 10.7101Z" fill="#263238"/>
<path d="M86.7064 11.1888C86.4872 11.0643 86.2748 10.9282 86.0701 10.7809C85.8254 10.6232 85.6187 10.5253 85.5263 10.237C85.5032 10.1544 85.5071 10.0666 85.5374 9.98639C85.5677 9.90617 85.6229 9.83773 85.6949 9.79106C85.8527 9.72372 86.0257 9.69981 86.1959 9.7218C86.3661 9.7438 86.5274 9.8109 86.6629 9.91615C86.9706 10.0866 87.2034 10.3659 87.3156 10.6993C87.3446 10.7803 87.3477 10.8682 87.3243 10.951C87.301 11.0338 87.2525 11.1072 87.1854 11.1611C87.1184 11.215 87.0362 11.2466 86.9504 11.2516C86.8645 11.2565 86.7792 11.2346 86.7064 11.1888Z" fill="#263238"/>
<path d="M81.0984 9.8677C81.354 9.8677 81.5933 9.8677 81.8489 9.8677C82.1162 9.8985 82.3861 9.83917 82.6158 9.6991C82.6784 9.64187 82.7207 9.56585 82.7364 9.48248C82.7521 9.39912 82.7403 9.31291 82.7028 9.23683C82.6026 9.09756 82.4672 8.9874 82.3105 8.91764C82.1538 8.84788 81.9813 8.82102 81.8108 8.83981C81.4597 8.82596 81.1162 8.94435 80.8482 9.17156C80.7951 9.22708 80.7585 9.29631 80.7426 9.37146C80.7267 9.44661 80.732 9.52472 80.758 9.59702C80.7839 9.66932 80.8296 9.73294 80.8897 9.78075C80.9498 9.82857 81.0221 9.85867 81.0984 9.8677Z" fill="#263238"/>
<path d="M84.2805 15.7415C84.0897 15.9285 83.862 16.0734 83.6119 16.1671C83.3619 16.2607 83.095 16.301 82.8284 16.2854C82.5952 16.2759 82.3646 16.2338 82.1431 16.1603C82.0994 16.1497 82.0573 16.1332 82.018 16.1114L81.8984 16.0679C81.8709 16.0537 81.8485 16.0316 81.8339 16.0044C81.8193 15.9772 81.8134 15.9462 81.8168 15.9156C81.8145 15.8957 81.8145 15.8756 81.8168 15.8558V15.8068C81.9038 15.3772 82.0996 14.7191 82.0996 14.7191C81.9256 14.7572 81.0499 14.9312 81.1098 14.7191C81.6099 12.8128 82.3005 10.9616 83.171 9.19349C83.2036 9.13366 83.2906 9.19348 83.2689 9.22612C82.8229 10.9937 82.0615 12.6687 81.5829 14.4363C81.8955 14.3693 82.2162 14.3491 82.5347 14.3765C82.5945 14.4091 82.1431 15.6001 82.1159 15.7959C82.4569 15.9132 82.818 15.9607 83.1778 15.9354C83.5375 15.9102 83.8885 15.8128 84.2098 15.6491C84.2913 15.66 84.324 15.7035 84.2805 15.7415Z" fill="#263238"/>
<path d="M82.4421 16.0022C82.606 16.3607 82.8587 16.6715 83.1763 16.905C83.3554 17.0231 83.5654 17.0855 83.78 17.0845C84.2477 17.0845 84.3564 16.6657 84.3564 16.3013C84.3539 16.1069 84.3283 15.9133 84.2803 15.7249C83.7122 16.0091 83.0687 16.1062 82.4421 16.0022Z" fill="#263238"/>
<path d="M83.1763 16.9049C83.3554 17.023 83.5654 17.0854 83.78 17.0844C84.2477 17.0844 84.3564 16.6656 84.3564 16.3013C84.1207 16.2578 83.8772 16.2934 83.6638 16.4025C83.4503 16.5117 83.279 16.6883 83.1763 16.9049Z" fill="#FF99BA"/>
<path d="M92.7759 15.0504C93.0967 14.338 96.2457 6.61517 96.1695 5.70692C96.0988 4.88026 95.1743 5.07061 95.1688 5.0271C95.1634 4.98359 95.2504 4.24938 94.8425 3.90675C94.6969 3.8194 94.5349 3.76275 94.3665 3.74031C94.1982 3.71786 94.027 3.73008 93.8636 3.77623C93.8636 3.77623 93.8636 2.98763 93.3959 2.68851C93.2425 2.61252 93.0719 2.57805 92.9011 2.58855C92.7303 2.59905 92.5652 2.65414 92.4224 2.74833C92.41 2.53822 92.3465 2.3343 92.2376 2.15424C92.1286 1.97418 91.9773 1.82341 91.7969 1.715C91.6317 1.6406 91.447 1.62106 91.2699 1.65922C91.0927 1.69739 90.9325 1.79127 90.8125 1.92711C90.8125 1.92711 90.7201 1.1657 90.2415 0.94816C89.7629 0.730616 89.2408 1.20377 89.2408 1.20377C89.2408 1.20377 89.0667 0.496759 88.4576 0.393426C88.2636 0.379145 88.0698 0.423323 87.9011 0.520262C87.7324 0.617201 87.5967 0.762454 87.5113 0.937284C87.5113 0.937284 87.2503 0.241145 86.6792 0.137812C86.1082 0.0344784 85.8036 0.7143 85.8036 0.7143C85.8036 0.7143 85.6676 0.0453556 85.1238 0.0018469C84.5799 -0.0416618 84.3352 0.697985 84.3352 0.697985C84.3305 0.615728 84.3072 0.535606 84.2671 0.463665C84.2269 0.391724 84.171 0.329847 84.1034 0.282706C84.0358 0.235564 83.9584 0.204389 83.877 0.191537C83.7956 0.178685 83.7124 0.184491 83.6336 0.208516C82.6111 0.371673 81.4092 5.39692 80.8762 7.38201C80.8762 7.38201 81.5071 5.91903 81.9259 5.94622C82.3447 5.97341 82.5513 6.68043 83.2964 6.96867C84.3569 7.37657 86.3801 6.37043 87.8431 6.92517C89.306 7.4799 90.1164 9.17674 90.2904 11.5643C90.5134 14.2618 92.0308 16.7418 92.7759 15.0504Z" fill="#263238"/>
<path d="M91.1829 14.7457C91.1829 14.7457 93.2387 12.2004 94.408 12.951C95.5773 13.7015 93.9022 17.4867 92.4392 17.9164C92.2557 17.9854 92.06 18.0164 91.8641 18.0075C91.6682 17.9985 91.4761 17.9498 91.2996 17.8644C91.1231 17.7789 90.9658 17.6585 90.8373 17.5103C90.7088 17.3622 90.6117 17.1895 90.552 17.0027L91.1829 14.7457Z" fill="#E5E4CA"/>
<path d="M93.9014 14.0226V14.0607C92.8735 14.3978 92.2698 15.2898 91.8456 16.2361C91.9108 16.1395 91.9963 16.0582 92.096 15.9979C92.1958 15.9376 92.3074 15.8996 92.4233 15.8867C92.5391 15.8738 92.6564 15.8862 92.767 15.923C92.8776 15.9599 92.9789 16.0203 93.0638 16.1001C93.067 16.1054 93.0685 16.1115 93.0684 16.1176C93.0682 16.1238 93.0663 16.1297 93.0629 16.1349C93.0595 16.14 93.0547 16.144 93.0491 16.1465C93.0435 16.1491 93.0373 16.1499 93.0312 16.1491C92.8586 16.0817 92.6695 16.0691 92.4895 16.1129C92.3096 16.1566 92.1474 16.2547 92.025 16.3938C91.8166 16.627 91.6342 16.8823 91.4812 17.1552C91.4268 17.2422 91.2691 17.1552 91.3126 17.0845C91.4105 15.7738 92.5254 14.0552 93.9014 14.0226Z" fill="#263238"/>
<path d="M82.8885 25.6064H82.9157C82.5622 27.1728 81.828 30.8329 84.3678 31.007C85.3967 30.9917 86.3993 30.6801 87.2557 30.1096C88.137 29.599 88.9611 28.9955 89.7139 28.3094C90.5795 27.5653 91.3834 26.7523 92.1178 25.8784C92.145 25.8403 92.2048 25.8784 92.1722 25.9328C91.4271 26.8029 90.7744 27.7329 89.9423 28.5378C89.1517 29.3214 88.259 29.9946 87.2883 30.5392C86.375 31.1198 85.308 31.4117 84.2264 31.3768C83.7614 31.3236 83.329 31.1117 83.0021 30.7769C82.6751 30.442 82.4737 30.0046 82.4316 29.5385C82.2893 28.2102 82.4454 26.8668 82.8885 25.6064Z" fill="#263238"/>
<path d="M5.67377 13.3213L81.918 20.4346L76.2436 81.2566L-0.000645342 74.1434L5.67377 13.3213Z" fill="#263238"/>
<path d="M28.6007 57.4544L31.3701 35.9805L52.0535 49.559L28.6007 57.4544Z" fill="white"/>
<path d="M73.7119 22.7667L78.2227 23.1875L77.9266 26.3607L73.4159 25.9399L73.7119 22.7667Z" fill="white"/>
<path d="M73.1064 29.2091L77.6172 29.6299L77.3211 32.8031L72.8104 32.3823L73.1064 29.2091Z" fill="white"/>
<path d="M72.5107 35.6407L77.0215 36.0615L76.7254 39.2348L72.2147 38.8139L72.5107 35.6407Z" fill="white"/>
<path d="M71.9043 42.0772L76.415 42.498L76.119 45.6713L71.6082 45.2504L71.9043 42.0772Z" fill="white"/>
<path d="M71.3086 48.5206L75.8193 48.9414L75.5233 52.1146L71.0125 51.6938L71.3086 48.5206Z" fill="white"/>
<path d="M70.708 54.9522L75.2188 55.373L74.9227 58.5463L70.4119 58.1254L70.708 54.9522Z" fill="white"/>
<path d="M70.1074 61.3946L74.6182 61.8154L74.3221 64.9887L69.8114 64.5678L70.1074 61.3946Z" fill="white"/>
<path d="M69.5068 67.8321L74.0176 68.2529L73.7215 71.4262L69.2108 71.0053L69.5068 67.8321Z" fill="white"/>
<path d="M68.9062 74.264L73.417 74.6848L73.1209 77.858L68.6102 77.4372L68.9062 74.264Z" fill="white"/>
<path d="M8.80271 16.7139L13.3135 17.1348L13.0174 20.308L8.50667 19.8872L8.80271 16.7139Z" fill="white"/>
<path d="M8.19726 23.1456L12.708 23.5664L12.412 26.7396L7.90121 26.3188L8.19726 23.1456Z" fill="white"/>
<path d="M7.60156 29.588L12.1123 30.0088L11.8163 33.182L7.30551 32.7612L7.60156 29.588Z" fill="white"/>
<path d="M7.00097 36.0255L11.5117 36.4463L11.2157 39.6195L6.70492 39.1987L7.00097 36.0255Z" fill="white"/>
<path d="M6.40039 42.4628L10.9111 42.8837L10.6151 46.0569L6.10434 45.6361L6.40039 42.4628Z" fill="white"/>
<path d="M5.79882 48.9002L10.3096 49.321L10.0135 52.4943L5.50278 52.0734L5.79882 48.9002Z" fill="white"/>
<path d="M5.19822 55.3372L9.70898 55.7581L9.41294 58.9313L4.90217 58.5105L5.19822 55.3372Z" fill="white"/>
<path d="M4.59764 61.7803L9.1084 62.2012L8.81235 65.3744L4.30159 64.9536L4.59764 61.7803Z" fill="white"/>
<path d="M3.99707 68.2121L8.50781 68.6329L8.21176 71.8062L3.70102 71.3853L3.99707 68.2121Z" fill="white"/>
<path d="M88.6538 33.7264C87.1799 37.9902 81.4477 55.2741 80.5938 56.0572C77.1512 59.2334 68.4821 64.8025 67.427 65.9555C65.9803 67.5272 72.4849 77.2188 74.7582 76.9468C75.6991 76.8381 87.2669 69.2077 90.889 65.466C93.7824 62.4476 95.2889 43.1678 95.3759 34.1832C95.452 26.4876 91.5036 25.4597 88.6538 33.7264Z" fill="#E5E4CA"/>
<path d="M95.196 48.737L83.329 47.943C83.329 47.943 87.0816 33.8407 90.8777 28.7991C94.6739 23.7576 95.4353 28.8318 95.6039 32.6986C95.7725 36.5654 95.196 48.737 95.196 48.737Z" fill="#349B5C"/>
<path d="M83.5297 47.1487C84.5712 47.3432 85.58 47.6838 86.5264 48.1602H86.9506C86.9119 48.1364 86.8719 48.1146 86.8309 48.095C85.8011 47.5775 84.7021 47.2112 83.5678 47.0073C83.5732 47.0617 83.5297 47.1052 83.5297 47.1487ZM88.3755 33.2476C89.0894 33.6924 89.8285 34.0956 90.589 34.455C90.8664 34.5855 91.1329 34.6997 91.4374 34.8085L91.6115 34.8738C92.0729 35.0394 92.5479 35.165 93.0309 35.249C93.8732 35.3941 94.7355 35.3757 95.5707 35.1947H95.6143V35.4122L95.2934 35.4829L94.9616 35.5264L94.6353 35.5699H94.3036H93.9772L93.6455 35.5427H93.3137C93.205 35.5427 93.1016 35.5047 92.9929 35.4883C92.4367 35.3943 91.8905 35.2486 91.3613 35.0532L91.1818 34.9826C90.9425 34.8901 90.7032 34.7922 90.4694 34.6834C89.7066 34.3284 88.9673 33.9252 88.2559 33.4761L88.3755 33.2476ZM86.9016 36.8154C88.3296 36.5068 89.6908 35.945 90.9208 35.1566C91.0202 35.0963 91.1164 35.031 91.209 34.9608L91.4374 34.8085C92.5284 33.9351 93.6727 33.1305 94.8637 32.3992C95.0867 32.2741 95.3151 32.1545 95.549 32.0457C95.549 32.0783 95.549 32.1164 95.549 32.1545C95.3285 32.2539 95.1142 32.3665 94.9072 32.4917C93.7543 33.2128 92.6497 34.0085 91.6006 34.8738L91.3776 35.0315C91.2525 35.124 91.1274 35.2055 90.9969 35.2925C89.7178 36.1274 88.2967 36.7209 86.8038 37.0438C86.8581 36.9676 86.8853 36.8915 86.918 36.8154H86.9016ZM90.0941 29.9355H90.9153C91.3508 29.9627 91.7846 30.0117 92.2151 30.0824C93.0735 30.2267 93.9204 30.4321 94.7495 30.6969L95.462 30.9091C95.4647 30.9543 95.4647 30.9997 95.462 31.045L94.7006 30.8275C93.8763 30.5692 93.0349 30.3693 92.1825 30.2292C91.7571 30.1642 91.3288 30.1206 90.899 30.0987H89.9853L90.0941 29.9355Z" fill="white"/>
<path d="M94.881 46.0939C93.2494 45.8383 91.5417 45.7785 89.8829 45.6697C88.2241 45.5609 86.4783 45.5664 84.7761 45.4902C84.7271 45.4902 84.7217 45.5718 84.7761 45.5773C86.4403 45.7241 88.099 45.9362 89.7687 46.0232C91.4696 46.151 93.176 46.1891 94.881 46.1374C94.881 46.1374 94.9027 46.0994 94.881 46.0939Z" fill="#263238"/>
<path d="M96.1101 38.735C95.9905 39.4529 95.8654 40.1654 95.7349 40.8778C95.7349 39.3931 95.7349 37.9029 95.7022 36.4182C95.7022 36.3801 95.637 36.3801 95.637 36.4182C95.4792 38.4849 95.3868 40.5624 95.3161 42.6291C95.2454 44.6957 95.1149 46.6373 95.1856 48.6115L94.7396 48.6441C94.7237 48.6441 94.7085 48.6504 94.6973 48.6617C94.6861 48.6729 94.6798 48.6881 94.6798 48.704C94.6798 48.7198 94.6861 48.735 94.6973 48.7463C94.7085 48.7575 94.7237 48.7638 94.7396 48.7638L95.2834 48.8345C95.2985 48.8368 95.3138 48.8361 95.3285 48.8324C95.3433 48.8287 95.3571 48.8221 95.3693 48.813C95.3814 48.8039 95.3916 48.7924 95.3993 48.7793C95.407 48.7662 95.412 48.7517 95.414 48.7366C95.6587 46.6862 95.6696 44.5761 95.7131 42.5149C95.7131 42.1777 95.7131 41.8405 95.7131 41.5033C95.9325 40.5911 96.0978 39.6667 96.208 38.735C96.2036 38.7258 96.1966 38.7181 96.1879 38.7127C96.1793 38.7072 96.1693 38.7044 96.1591 38.7044C96.1488 38.7044 96.1388 38.7072 96.1302 38.7127C96.1215 38.7181 96.1146 38.7258 96.1101 38.735Z" fill="#263238"/>
<path d="M83.7692 47.981L83.3341 47.9157L83.3667 47.9593C83.7039 47.0836 84.003 46.1972 84.3076 45.3161C84.6121 44.4351 84.8841 43.5322 85.156 42.6349C85.4279 41.7375 85.6999 40.8401 85.9228 39.9156C86.1458 38.991 86.4014 38.1045 86.5918 37.1963C86.2437 38.0665 85.9337 38.9475 85.6346 39.834C85.3355 40.7205 85.0472 41.6124 84.7699 42.5098C84.4925 43.4072 84.226 44.2991 83.9867 45.2291C83.7474 46.1591 83.5027 47.0401 83.296 47.9484V47.9919H83.78L83.7692 47.981Z" fill="#263238"/>
<path d="M85.5645 38.1914C85.3383 39.0703 85.2884 39.9852 85.4177 40.8835C85.6511 40.0058 85.7011 39.0893 85.5645 38.1914Z" fill="#263238"/>
<path d="M61.7208 71.3668C62.2647 70.6489 61.8731 70.3661 60.3449 70.7958C58.8166 71.2254 53.1387 74.2112 52.2631 72.1445C51.3875 70.0779 59.4638 65.9718 62.0526 65.4551C64.6413 64.9384 69.0303 65.0091 69.0303 65.0091C67.6271 66.1023 64.4619 69.1261 61.7208 71.3668Z" fill="#E5E4CA"/>
<path d="M76.0469 76.2128C71.9571 79.8458 67.0515 83.1742 61.3627 83.7452C60.7328 83.823 60.095 83.687 59.5516 83.3591C57.0064 83.6582 56.0981 82.5487 56.0981 82.5487C53.6453 82.1028 52.8731 80.8356 52.8731 80.8356C52.8731 80.8356 50.801 80.8356 50.6976 79.378C50.5943 77.9205 53.8955 76.8382 56.2504 75.3535C61.6346 71.9598 67.579 66.1079 69.0311 64.9875L76.0469 76.2128Z" fill="#E5E4CA"/>
<path d="M63.6362 76.2621C62.069 77.2798 60.4335 78.1884 58.7415 78.9814C56.842 79.7288 54.8896 80.3342 52.9004 80.7925C52.8875 80.7925 52.875 80.7976 52.8658 80.8068C52.8566 80.816 52.8515 80.8284 52.8515 80.8414C52.8515 80.8544 52.8566 80.8668 52.8658 80.876C52.875 80.8852 52.8875 80.8904 52.9004 80.8904C56.8335 80.3892 60.5531 78.8163 63.6525 76.3437C63.7504 76.2621 63.7178 76.2077 63.6362 76.2621Z" fill="#263238"/>
<path d="M66.1592 79.2092C64.5276 80.063 61.6995 81.5478 56.0869 82.4723V82.505C59.6902 82.3849 63.189 81.2644 66.1918 79.269C66.2951 79.2255 66.2625 79.1548 66.1592 79.2092Z" fill="#263238"/>
<path d="M67.4815 80.8191C64.6861 82.1733 62.7499 82.6682 59.5575 83.3426V83.3807C63.2612 82.9891 64.561 82.4289 67.5359 80.9116C67.6447 80.8572 67.5957 80.7702 67.4815 80.8191Z" fill="#263238"/>
<path d="M47.2764 14.6698C45.2315 13.6909 42.6971 11.2326 41.0274 11.0259C40.614 10.9614 40.1908 11.0324 39.8212 11.2285C39.4516 11.4246 39.1554 11.7352 38.9771 12.1137C38.9771 12.1137 38.1559 10.444 36.6059 10.4821C35.8064 10.5147 35.1592 11.8145 35.1592 11.8145C34.9515 11.4459 34.6461 11.1418 34.2767 10.9355C33.9073 10.7292 33.4881 10.6287 33.0653 10.6452C31.9776 10.754 31.4827 12.043 31.4827 12.043C31.4827 12.043 30.2046 11.1075 29.1278 11.5752C26.9524 12.5324 26.9034 21.9738 30.3732 23.4477C32.0048 24.1329 31.8797 21.8161 31.8797 21.8161C31.8797 21.8161 32.8424 25.0793 34.7894 25.15C36.7364 25.2207 36.421 22.2186 36.421 22.2186C36.421 22.2186 37.389 25.3892 39.4122 25.2478C41.5223 25.0956 40.6739 22.1642 40.6739 22.1642C40.6739 22.1642 42.0934 24.2689 43.6162 23.7957C46.1343 23.0235 42.9853 19.037 43.4911 16.9649L46.9174 15.8337L47.2764 14.6698Z" fill="#E5E4CA"/>
<path d="M44.3076 12.7664C46.3254 13.5223 48.8271 11.0315 50.8611 11.4829C53.5804 12.092 50.8992 15.1757 46.9018 15.8337H43.704L44.3076 12.7664Z" fill="#E5E4CA"/>
<path d="M31.3803 12.2277C31.3803 12.1951 31.3368 12.1897 31.3314 12.2277C30.5208 15.4509 30.7104 18.8445 31.8752 21.9573C31.9133 22.0552 32.0928 22.0335 32.0656 21.9193C31.3669 18.7393 31.136 15.4744 31.3803 12.2277Z" fill="#263238"/>
<path d="M35.1263 11.766C35.1263 11.7279 35.0719 11.7225 35.061 11.766C34.1994 15.3281 34.6432 19.0811 36.3119 22.344C36.3717 22.4582 36.5403 22.4963 36.4805 22.344C35.4635 20.087 34.8653 14.8061 35.1263 11.766Z" fill="#263238"/>
<path d="M40.8651 22.3656C39.2716 19.1623 38.8582 15.7686 38.9398 12.2172C38.9398 12.1737 38.8746 12.1737 38.8637 12.2172C38.3525 13.9412 38.5374 16.2091 38.8311 17.9604C39.0706 19.5933 39.7344 21.1348 40.7563 22.4309C40.7944 22.4744 40.9032 22.42 40.8651 22.3656Z" fill="#263238"/>
</svg>
