<svg width="180" height="165" viewBox="0 0 180 165" fill="none" xmlns="http://www.w3.org/2000/svg">
<path d="M14.8113 152.365C34.5235 152.365 54.2512 152.365 73.9634 152.365C93.5826 152.365 113.186 152.365 132.805 152.365C143.848 152.365 154.891 152.365 165.949 152.365C166.243 152.365 166.243 151.9 165.949 151.9C146.236 151.9 126.509 151.9 106.796 151.9C87.1773 151.9 67.5736 151.9 47.9545 151.9C36.9119 151.9 25.8693 151.9 14.8113 151.9C14.5011 151.9 14.5011 152.365 14.8113 152.365Z" fill="#E8E8E8"/>
<path d="M48.6058 155.7C63.1534 155.7 77.7166 155.7 92.2642 155.7C96.3897 155.7 100.515 155.7 104.656 155.7C104.951 155.7 104.951 155.234 104.656 155.234C90.1084 155.234 75.5453 155.234 60.9976 155.234C56.8722 155.234 52.7467 155.234 48.6058 155.234C48.3111 155.234 48.3111 155.7 48.6058 155.7Z" fill="#E8E8E8"/>
<path d="M97.4599 159.018C111.465 159.018 125.47 159.018 139.459 159.018C143.445 159.018 147.415 159.018 151.401 159.018C151.696 159.018 151.696 158.553 151.401 158.553C137.396 158.553 123.391 158.553 109.402 158.553C105.416 158.553 101.446 158.553 97.4599 158.553C97.1652 158.553 97.1652 159.018 97.4599 159.018Z" fill="#E8E8E8"/>
<path d="M17.2619 156.397C23.1554 156.397 29.0489 156.397 34.9424 156.397C35.2371 156.397 35.2371 155.932 34.9424 155.932C29.0489 155.932 23.1554 155.932 17.2619 155.932C16.9518 155.932 16.9518 156.397 17.2619 156.397Z" fill="#E8E8E8"/>
<path d="M29.483 138.004C30.1189 142.641 31.1735 147.216 32.6469 151.652C32.7399 151.931 33.1897 151.807 33.0966 151.528C31.6233 147.076 30.5686 142.517 29.9328 137.879C29.8862 137.585 29.4365 137.709 29.483 138.004Z" fill="#E8E8E8"/>
<path d="M29.6691 138.19C35.1904 140.221 41.2545 140.439 46.9153 138.81C47.21 138.733 47.0859 138.283 46.7913 138.36C41.2079 139.973 35.2524 139.741 29.7932 137.74C29.514 137.631 29.3899 138.081 29.6691 138.19Z" fill="#E8E8E8"/>
<path d="M46.6205 138.67C46.2638 143.184 45.6434 147.65 44.7284 152.086C44.6664 152.381 45.1161 152.505 45.1782 152.21C46.1087 147.743 46.7446 143.23 47.0858 138.67C47.1168 138.376 46.6515 138.376 46.6205 138.67Z" fill="#E8E8E8"/>
<path d="M34.5855 138.996C32.8795 137.554 31.7628 135.6 31.3751 133.397C31.3286 133.49 31.2665 133.583 31.22 133.677C31.6232 133.583 31.9334 133.63 32.2901 133.832C32.4917 133.956 32.7089 133.708 32.6158 133.506C32.3522 133.01 32.104 132.529 31.8404 132.033C31.7163 131.784 31.5767 131.552 31.4526 131.304C31.251 130.869 31.0494 129.737 31.8869 129.908C32.073 129.939 32.2126 129.799 32.1661 129.629C31.6232 126.914 31.0959 124.154 30.9253 121.393C30.8478 120.121 30.8633 118.819 31.158 117.562C31.2975 116.958 31.4992 116.368 31.7628 115.81C31.9489 115.422 32.073 114.941 32.6934 115.252C32.9105 115.36 33.1276 115.639 33.2982 115.825C34.9267 117.531 35.7642 119.827 36.3691 122.06C37.0825 124.619 37.6718 127.225 38.1836 129.83C38.804 132.994 39.1762 136.205 39.0677 139.446C39.0521 139.741 39.5174 139.741 39.5329 139.446C39.6415 136.282 39.2693 133.118 38.6799 130.001C38.1216 127.023 37.4547 124.03 36.5707 121.13C35.8728 118.834 34.8492 116.415 32.926 114.864C31.1269 113.421 30.4756 118.571 30.429 119.563C30.2894 122.944 31.0339 126.449 31.7008 129.753C31.7938 129.66 31.8869 129.567 31.9799 129.474C31.2975 129.334 30.7702 129.846 30.7392 130.528C30.7237 131.024 30.9874 131.49 31.2045 131.908C31.5302 132.529 31.8404 133.134 32.1661 133.754C32.2746 133.645 32.3832 133.537 32.4917 133.428C32.0265 133.165 31.5767 133.103 31.0649 133.227C30.9408 133.258 30.8788 133.397 30.9098 133.506C31.313 135.77 32.4762 137.817 34.2288 139.306C34.4924 139.508 34.8181 139.182 34.5855 138.996Z" fill="#E8E8E8"/>
<path d="M38.8042 130.063C38.7576 128.372 39.5486 126.852 40.3861 125.426C41.2081 124.014 42.1542 122.68 43.1933 121.409C43.0692 121.378 42.9296 121.347 42.8056 121.3C42.8831 121.517 42.9606 121.75 43.0537 121.967C43.1157 122.153 43.3639 122.2 43.4725 122.029C44.6822 120.245 45.9849 118.539 47.3963 116.911C47.2567 116.849 47.1326 116.802 46.993 116.74C47.0551 118.974 46.8845 121.192 46.4347 123.378C46.078 125.084 45.7213 127.783 43.9067 128.558C43.6741 128.667 43.8292 128.962 44.0308 128.993C45.7833 129.21 43.8912 132.622 43.5655 133.506C42.8366 135.476 42.2007 137.492 41.5803 139.492C41.4873 139.772 41.937 139.896 42.0301 139.616C42.7745 137.259 43.5035 134.871 44.434 132.575C44.6977 131.939 45.1009 131.304 45.2405 130.621C45.4266 129.675 45.1009 128.651 44.0463 128.527C44.0928 128.667 44.1238 128.822 44.1704 128.962C45.9694 128.186 46.4037 125.767 46.7914 124.076C47.3342 121.672 47.5669 119.206 47.4893 116.74C47.4893 116.554 47.2257 116.415 47.0861 116.57C45.6592 118.229 44.3255 119.966 43.0847 121.781C43.2243 121.796 43.3639 121.812 43.5035 121.843C43.4259 121.626 43.3484 121.393 43.2553 121.176C43.2088 121.021 42.9917 120.928 42.8676 121.067C41.7509 122.432 40.7273 123.875 39.8588 125.41C39.0368 126.837 38.3079 128.357 38.3544 130.047C38.3389 130.373 38.8042 130.373 38.8042 130.063Z" fill="#E8E8E8"/>
<path d="M29.8243 138.128C30.3516 137.957 30.9565 138.19 31.4838 138.267C32.0732 138.345 32.6625 138.391 33.2519 138.407C33.5465 138.407 33.5465 137.942 33.2519 137.942C32.5074 137.926 31.7785 137.864 31.0496 137.724C30.5843 137.647 30.1655 137.523 29.7002 137.678C29.4211 137.771 29.5296 138.221 29.8243 138.128Z" fill="#E8E8E8"/>
<path d="M42.2783 138.748C43.7982 138.779 45.3181 138.841 46.8225 138.934C47.1171 138.95 47.1171 138.484 46.8225 138.469C45.3026 138.376 43.7982 138.314 42.2783 138.283C41.9836 138.267 41.9836 138.732 42.2783 138.748Z" fill="#E8E8E8"/>
<path d="M31.6852 138.5C32.3211 138.655 32.957 138.81 33.5773 138.95C33.872 139.027 33.9961 138.577 33.7014 138.5C33.0655 138.345 32.4297 138.19 31.8093 138.05C31.5146 137.988 31.3905 138.438 31.6852 138.5Z" fill="#E8E8E8"/>
<path d="M42.2625 138.453C41.9058 138.531 41.7972 139.012 42.1539 139.182C42.4951 139.337 43.193 139.151 43.5498 139.136C44.0926 139.105 44.6354 139.058 45.1782 139.027C45.4729 139.012 45.4729 138.546 45.1782 138.562C44.6819 138.593 44.1701 138.624 43.6738 138.67C43.4412 138.686 43.2086 138.701 42.9759 138.717C42.8673 138.732 42.7433 138.732 42.6347 138.748C42.4331 138.686 42.3555 138.748 42.4021 138.919C42.6812 138.841 42.5572 138.391 42.2625 138.453Z" fill="#E8E8E8"/>
<path d="M31.9955 149.093C32.6469 150.256 33.5154 151.279 34.57 152.101C34.8027 152.287 35.1284 151.962 34.8957 151.776C33.8721 150.969 33.0346 150.008 32.3987 148.86C32.2591 148.581 31.8559 148.829 31.9955 149.093Z" fill="#E8E8E8"/>
<path d="M30.3048 142.579C32.5537 146.177 35.3453 149.387 38.6178 152.101C38.8504 152.287 39.1761 151.962 38.9435 151.776C35.702 149.093 32.9259 145.929 30.6926 142.346C30.553 142.082 30.1497 142.315 30.3048 142.579Z" fill="#E8E8E8"/>
<path d="M31.1736 138.546C32.6624 141.183 34.2134 143.82 36.2761 146.053C38.4474 148.395 41.0684 150.38 43.6119 152.272C43.8601 152.458 44.0772 152.039 43.8446 151.869C41.3166 149.992 38.7421 148.038 36.6018 145.727C34.5701 143.525 33.0502 140.904 31.5768 138.314C31.4217 138.05 31.0185 138.283 31.1736 138.546Z" fill="#E8E8E8"/>
<path d="M35.7334 139.601C38.1528 143.432 41.4408 146.642 45.3491 148.953C45.6127 149.108 45.8454 148.705 45.5817 148.55C41.7509 146.27 38.5095 143.122 36.1366 139.353C35.966 139.12 35.5628 139.353 35.7334 139.601Z" fill="#E8E8E8"/>
<path d="M41.0064 139.88C42.3092 141.788 43.8756 143.494 45.6902 144.921C45.9229 145.107 46.2485 144.781 46.0159 144.595C44.2323 143.184 42.6814 141.524 41.4097 139.647C41.2391 139.399 40.8358 139.632 41.0064 139.88Z" fill="#E8E8E8"/>
<path d="M44.3874 139.492C44.9767 140.33 45.6436 141.074 46.3881 141.757C46.6052 141.958 46.9464 141.633 46.7138 141.431C45.9848 140.78 45.3489 140.051 44.7751 139.26C44.62 139.027 44.2013 139.26 44.3874 139.492Z" fill="#E8E8E8"/>
<path d="M132.976 139.989C133.488 144.083 134.263 148.147 135.349 152.132C135.427 152.427 135.876 152.303 135.799 152.008C134.729 148.069 133.953 144.052 133.441 139.989C133.395 139.694 132.93 139.694 132.976 139.989Z" fill="#E8E8E8"/>
<path d="M133.24 140.097C137.427 141.245 141.832 141.26 146.019 140.144C146.314 140.066 146.19 139.617 145.895 139.694C141.785 140.795 137.474 140.78 133.364 139.648C133.069 139.57 132.961 140.004 133.24 140.097Z" fill="#E8E8E8"/>
<path d="M145.787 139.989C145.523 144.114 144.732 148.162 143.414 152.07C143.321 152.35 143.771 152.474 143.864 152.194C145.182 148.24 145.988 144.145 146.252 139.989C146.268 139.694 145.802 139.694 145.787 139.989Z" fill="#E8E8E8"/>
<path d="M137.101 140.408C136.295 139.337 135.659 138.159 135.271 136.871C135.085 136.251 134.946 135.631 134.853 134.979C134.775 134.39 134.434 133.165 135.318 133.196C135.457 133.196 135.597 133.041 135.535 132.901C135.333 132.281 135.209 131.691 135.178 131.04C135.116 131.117 135.07 131.195 135.008 131.257C135.457 131.102 135.644 130.745 135.721 130.296C135.876 129.396 135.799 128.403 135.814 127.488C135.876 125.379 135.923 123.27 135.985 121.145C135.861 121.207 135.752 121.285 135.628 121.347C136.993 122.277 137.629 124.169 138.156 125.674C138.699 127.256 139.071 128.9 139.304 130.544C139.785 133.925 139.738 137.352 139.567 140.764C139.552 141.059 140.017 141.059 140.033 140.764C140.203 137.135 140.25 133.475 139.66 129.892C139.366 128.109 138.932 126.341 138.265 124.666C137.722 123.301 137.117 121.812 135.861 120.959C135.706 120.85 135.52 120.99 135.504 121.161C135.457 122.774 135.426 124.386 135.38 125.984C135.364 126.79 135.333 127.597 135.318 128.403C135.302 128.915 135.52 130.59 134.868 130.823C134.775 130.854 134.698 130.947 134.698 131.04C134.729 131.722 134.853 132.374 135.07 133.025C135.147 132.932 135.225 132.824 135.287 132.73C134.822 132.715 134.341 132.824 134.263 133.32C134.155 134.111 134.341 135.072 134.496 135.863C134.853 137.6 135.613 139.229 136.667 140.656C136.869 140.888 137.272 140.656 137.101 140.408Z" fill="#E8E8E8"/>
<path d="M139.8 129.846C140.204 128.45 140.669 127.07 141.15 125.705C141.041 125.751 140.917 125.798 140.808 125.844C140.963 125.937 141.119 126.046 141.289 126.139C141.398 126.201 141.537 126.155 141.615 126.061C142.732 124.2 143.848 122.355 144.965 120.494C144.825 120.447 144.67 120.416 144.531 120.37C145.197 127.225 144.112 134.173 141.382 140.516C141.258 140.795 141.661 141.028 141.785 140.749C144.546 134.343 145.663 127.318 144.996 120.37C144.98 120.152 144.686 120.044 144.562 120.246C143.445 122.107 142.328 123.952 141.212 125.813C141.32 125.782 141.429 125.751 141.537 125.736C141.382 125.643 141.227 125.534 141.057 125.441C140.917 125.364 140.762 125.441 140.715 125.581C140.219 126.946 139.769 128.326 139.366 129.722C139.273 130.001 139.723 130.125 139.8 129.846Z" fill="#E8E8E8"/>
<path d="M133.457 140.113C134.341 140.144 135.209 140.19 136.093 140.221C136.388 140.237 136.388 139.772 136.093 139.756C135.209 139.725 134.341 139.678 133.457 139.647C133.162 139.632 133.162 140.097 133.457 140.113Z" fill="#E8E8E8"/>
<path d="M135.613 140.206C135.907 140.33 136.218 140.439 136.528 140.485C136.822 140.532 136.947 140.082 136.652 140.035C136.373 139.989 136.094 139.911 135.845 139.803C135.566 139.694 135.334 140.082 135.613 140.206Z" fill="#E8E8E8"/>
<path d="M142.018 140.376C143.305 140.19 144.577 140.066 145.88 139.989C146.175 139.973 146.175 139.508 145.88 139.523C144.546 139.601 143.212 139.725 141.894 139.927C141.599 139.973 141.723 140.423 142.018 140.376Z" fill="#E8E8E8"/>
<path d="M141.863 140.594C142.545 140.485 143.243 140.423 143.941 140.361C144.236 140.345 144.236 139.88 143.941 139.896C143.197 139.942 142.468 140.035 141.739 140.144C141.444 140.19 141.568 140.625 141.863 140.594Z" fill="#E8E8E8"/>
<path d="M133.627 142.362C134.651 142.331 135.489 142.936 136.481 143.075C137.582 143.23 138.265 142.315 139.304 142.331C140.343 142.346 141.242 143.029 142.297 143.029C142.762 143.029 143.228 142.936 143.646 142.749C144.267 142.501 144.841 142.005 145.538 142.284C145.818 142.393 145.942 141.943 145.663 141.834C144.701 141.462 143.926 142.253 143.026 142.47C141.754 142.78 140.746 142.02 139.536 141.881C138.404 141.757 137.613 142.765 136.512 142.61C135.52 142.455 134.667 141.865 133.627 141.912C133.317 141.912 133.317 142.377 133.627 142.362Z" fill="#E8E8E8"/>
<path d="M133.829 144.812C137.582 146.301 141.785 146.348 145.569 144.936C145.849 144.828 145.725 144.378 145.445 144.486C141.723 145.867 137.644 145.82 133.953 144.362C133.674 144.254 133.55 144.704 133.829 144.812Z" fill="#E8E8E8"/>
<path d="M0.806396 78.2621C0.806396 87.7072 0.806396 97.1368 0.806396 106.582C0.806396 106.877 1.27167 106.877 1.27167 106.582C1.27167 97.1368 1.27167 87.7072 1.27167 78.2621C1.27167 77.9519 0.806396 77.9519 0.806396 78.2621Z" fill="#E8E8E8"/>
<path d="M1.11676 78.4326C7.55308 78.4326 13.9894 78.4326 20.4257 78.4326C20.7204 78.4326 20.7204 77.9673 20.4257 77.9673C13.9894 77.9673 7.55308 77.9673 1.11676 77.9673C0.822083 77.9673 0.822083 78.4326 1.11676 78.4326Z" fill="#E8E8E8"/>
<path d="M20.4722 78.1999C20.4722 87.5675 20.4722 96.9351 20.4722 106.318C20.4722 106.613 20.9374 106.613 20.9374 106.318C20.9374 96.9506 20.9374 87.583 20.9374 78.1999C20.9374 77.8897 20.4722 77.8897 20.4722 78.1999Z" fill="#E8E8E8"/>
<path d="M1.25641 106.877C7.70824 106.877 14.1756 106.877 20.6274 106.877C20.9221 106.877 20.9221 106.411 20.6274 106.411C14.1756 106.411 7.70824 106.411 1.25641 106.411C0.961732 106.411 0.961732 106.877 1.25641 106.877Z" fill="#E8E8E8"/>
<path d="M18.9678 80.5729C18.7351 80.5108 18.487 80.3247 18.5025 80.0456C18.518 79.7354 18.8282 79.5493 19.1073 79.6733C19.34 79.7819 19.5261 80.0456 19.4796 80.2937C19.4641 80.5263 19.1694 80.728 18.9678 80.5729C18.7351 80.3713 18.3939 80.6969 18.6266 80.8986C19.0143 81.2088 19.5881 81.1002 19.8518 80.6659C20.1309 80.1696 19.8208 79.5338 19.3555 79.2856C18.8592 79.022 18.2543 79.2701 18.0837 79.8129C17.9131 80.3557 18.3164 80.8986 18.8437 81.0226C19.1384 81.0847 19.2624 80.6349 18.9678 80.5729Z" fill="#E8E8E8"/>
<path d="M18.3472 104.442C18.1301 104.255 18.0681 103.883 18.2852 103.666C18.5178 103.418 18.9521 103.496 19.1227 103.775C19.2313 103.961 19.3864 104.442 19.1227 104.581C18.9831 104.659 18.797 104.535 18.6884 104.457C18.5333 104.364 18.3783 104.286 18.2077 104.224C17.9285 104.116 17.8044 104.566 18.0836 104.674C18.3783 104.783 18.6109 105 18.9211 105.062C19.1692 105.108 19.4329 105 19.5725 104.798C19.8671 104.364 19.6965 103.666 19.3398 103.309C18.9521 102.937 18.2542 102.968 17.913 103.387C17.5718 103.79 17.6338 104.426 18.0215 104.767C18.2387 104.984 18.5799 104.643 18.3472 104.442Z" fill="#E8E8E8"/>
<path d="M2.34198 80.1231C6.20377 80.1076 10.0656 80.1076 13.9119 80.0921C14.2065 80.0921 14.2065 79.6268 13.9119 79.6268C10.0501 79.6423 6.18826 79.6423 2.34198 79.6578C2.0473 79.6578 2.0473 80.1231 2.34198 80.1231Z" fill="#E8E8E8"/>
<path d="M2.34198 81.2398C3.92392 81.3484 5.53688 81.5965 7.11882 81.3019C7.41349 81.2398 7.28942 80.8056 6.99474 80.8521C5.47484 81.1313 3.87739 80.8831 2.34198 80.7745C2.0473 80.759 2.0473 81.2243 2.34198 81.2398Z" fill="#E8E8E8"/>
<path d="M2.57443 104.953C2.45036 104.907 2.40383 104.736 2.41934 104.612C2.45036 104.442 2.62096 104.38 2.77605 104.411C2.97767 104.442 3.13276 104.581 3.14827 104.783C3.16378 104.938 2.97767 105.186 2.80707 105.046C2.57443 104.86 2.24874 105.186 2.48138 105.372C2.8536 105.667 3.41193 105.527 3.58253 105.062C3.73762 104.612 3.45846 104.116 3.00869 103.976C2.60545 103.852 2.12466 104.023 2.00059 104.442C1.87652 104.829 2.07814 105.264 2.46587 105.388C2.74503 105.496 2.86911 105.062 2.57443 104.953Z" fill="#E8E8E8"/>
<path d="M2.85357 84.993C6.99454 84.993 11.151 84.993 15.292 84.993C15.5866 84.993 15.5866 84.5277 15.292 84.5277C11.151 84.5277 6.99454 84.5277 2.85357 84.5277C2.5589 84.5277 2.5589 84.993 2.85357 84.993Z" fill="#E8E8E8"/>
<path d="M3.55157 86.5284C6.80851 86.5284 10.081 86.5284 13.3379 86.5284C13.6326 86.5284 13.6326 86.0631 13.3379 86.0631C10.081 86.0631 6.80851 86.0631 3.55157 86.0631C3.2569 86.0631 3.2569 86.5284 3.55157 86.5284Z" fill="#E8E8E8"/>
<path d="M3.41192 89.196C6.5603 89.196 9.70867 89.196 12.8415 89.196C13.1362 89.196 13.1362 88.7307 12.8415 88.7307C9.69316 88.7307 6.54479 88.7307 3.41192 88.7307C3.11725 88.7307 3.11725 89.196 3.41192 89.196Z" fill="#E8E8E8"/>
<path d="M0.465277 65.2498C0.465277 64.5519 0.465277 63.854 0.465277 63.1561C0.465277 62.8614 0 62.8614 0 63.1561C0 63.854 0 64.5519 0 65.2498C0 65.5445 0.465277 65.5445 0.465277 65.2498Z" fill="#E8E8E8"/>
<path d="M0.387632 63.1094C13.5705 63.1094 26.7533 63.1094 39.9361 63.1094C43.6428 63.1094 47.3495 63.1094 51.0563 63.1094C51.3509 63.1094 51.3509 62.6442 51.0563 62.6442C37.8734 62.6442 24.6906 62.6442 11.5077 62.6442C7.80104 62.6442 4.09434 62.6442 0.387632 62.6442C0.0929572 62.6442 0.0929572 63.1094 0.387632 63.1094Z" fill="#E8E8E8"/>
<path d="M0.279269 65.529C13.4931 65.529 26.707 65.529 39.9208 65.529C43.6741 65.529 47.4273 65.529 51.1805 65.529C51.4752 65.529 51.4752 65.0637 51.1805 65.0637C37.9667 65.0637 24.7528 65.0637 11.539 65.0637C7.78573 65.0637 4.0325 65.0637 0.279269 65.0637C-0.0309152 65.0637 -0.0309152 65.529 0.279269 65.529Z" fill="#E8E8E8"/>
<path d="M51.0099 62.8924C51.0099 63.6213 51.0099 64.3503 51.0099 65.0792C51.0099 65.3739 51.4752 65.3739 51.4752 65.0792C51.4752 64.3503 51.4752 63.6213 51.4752 62.8924C51.4752 62.5977 51.0099 62.5977 51.0099 62.8924Z" fill="#E8E8E8"/>
<path d="M25.2333 62.7528C25.2333 61.6206 25.2333 60.5039 25.2333 59.3718C25.2333 59.0771 24.7681 59.0771 24.7681 59.3718C24.7681 60.5039 24.7681 61.6206 24.7681 62.7528C24.7681 63.0474 25.2333 63.0474 25.2333 62.7528Z" fill="#E8E8E8"/>
<path d="M26.645 59.0771C26.645 60.2093 26.645 61.326 26.645 62.4581C26.645 62.7528 27.1103 62.7528 27.1103 62.4581C27.1103 61.326 27.1103 60.2093 27.1103 59.0771C27.1103 58.7669 26.645 58.7669 26.645 59.0771Z" fill="#E8E8E8"/>
<path d="M26.8929 59.3098C30.491 59.3098 34.0892 59.3098 37.7028 59.3098C37.9975 59.3098 37.9975 58.8445 37.7028 58.8445C34.1047 58.8445 30.5065 58.8445 26.8929 58.8445C26.5982 58.8445 26.5982 59.3098 26.8929 59.3098Z" fill="#E8E8E8"/>
<path d="M37.9976 59.0151C37.9976 54.5949 37.9976 50.1903 37.9976 45.7702C37.9976 45.4755 37.5323 45.4755 37.5323 45.7702C37.5323 50.1903 37.5323 54.5949 37.5323 59.0151C37.5323 59.3097 37.9976 59.3097 37.9976 59.0151Z" fill="#E8E8E8"/>
<path d="M37.765 45.5066C30.2275 45.5066 22.69 45.5066 15.1525 45.5066C14.8578 45.5066 14.8578 45.9719 15.1525 45.9719C22.69 45.9719 30.2275 45.9719 37.765 45.9719C38.0596 45.9719 38.0596 45.5066 37.765 45.5066Z" fill="#E8E8E8"/>
<path d="M14.8113 45.7702C14.8113 49.8336 14.8113 53.9125 14.8113 57.976C14.8113 58.2706 15.2766 58.2706 15.2766 57.976C15.2766 53.9125 15.2766 49.8336 15.2766 45.7702C15.2766 45.4755 14.8113 45.4755 14.8113 45.7702Z" fill="#E8E8E8"/>
<path d="M24.9698 59.0927C21.6818 59.0927 18.3938 59.0927 15.1214 59.0927C14.8267 59.0927 14.8267 59.5579 15.1214 59.5579C18.4094 59.5579 21.6973 59.5579 24.9698 59.5579C25.2644 59.5579 25.2644 59.0927 24.9698 59.0927Z" fill="#E8E8E8"/>
<path d="M14.8113 57.5572C14.8113 58.069 14.8113 58.5963 14.8113 59.1081C14.8113 59.4028 15.2766 59.4028 15.2766 59.1081C15.2766 58.5963 15.2766 58.069 15.2766 57.5572C15.2766 57.2625 14.8113 57.2625 14.8113 57.5572Z" fill="#E8E8E8"/>
<path d="M16.1605 46.8094C16.1605 50.4851 16.1605 54.1608 16.1605 57.8364C16.1605 58.1311 16.6258 58.1311 16.6258 57.8364C16.6258 54.1608 16.6258 50.4851 16.6258 46.8094C16.6258 46.5147 16.1605 46.5147 16.1605 46.8094Z" fill="#E8E8E8"/>
<path d="M16.4554 58.1C23.0158 58.1 29.5762 58.1 36.1366 58.1C36.4313 58.1 36.4313 57.6348 36.1366 57.6348C29.5762 57.6348 23.0158 57.6348 16.4554 57.6348C16.1607 57.6348 16.1607 58.1 16.4554 58.1Z" fill="#E8E8E8"/>
<path d="M36.4467 57.6348C36.4467 54.1607 36.4467 50.6711 36.4467 47.1971C36.4467 46.9024 35.9814 46.9024 35.9814 47.1971C35.9814 50.6711 35.9814 54.1607 35.9814 57.6348C35.9814 57.9295 36.4467 57.9295 36.4467 57.6348Z" fill="#E8E8E8"/>
<path d="M16.5019 47.0109C23.0778 47.0109 29.6382 47.0109 36.2141 47.0109C36.5088 47.0109 36.5088 46.5457 36.2141 46.5457C29.6382 46.5457 23.0778 46.5457 16.5019 46.5457C16.1917 46.5457 16.1917 47.0109 16.5019 47.0109Z" fill="#E8E8E8"/>
<path d="M35.9347 47.011C35.9347 47.042 35.9347 47.073 35.9347 47.1195C35.9347 47.2436 36.0433 47.3522 36.1673 47.3522C36.2914 47.3522 36.4 47.2436 36.4 47.1195C36.4 47.0885 36.4 47.0575 36.4 47.011C36.4 46.8869 36.2914 46.7783 36.1673 46.7783C36.0433 46.7938 35.9347 46.8869 35.9347 47.011Z" fill="#E8E8E8"/>
<path d="M129.192 71.8878C131.254 72.4771 133.488 72.5392 135.597 72.7718C137.985 73.0355 140.374 73.2836 142.762 73.5473C147.493 74.0591 152.207 74.5554 156.938 75.0672C157.232 75.0982 157.232 74.6329 156.938 74.6019C152.316 74.1056 147.694 73.6093 143.072 73.113C140.793 72.8649 138.497 72.6167 136.217 72.3841C133.937 72.1359 131.518 72.0894 129.316 71.4535C129.037 71.3605 128.912 71.8102 129.192 71.8878Z" fill="black"/>
<path d="M162.366 64.7379C160.846 68.1965 159.063 71.531 157.031 74.7259C156.876 74.974 157.279 75.2067 157.434 74.9585C159.466 71.7636 161.249 68.4291 162.769 64.9706C162.893 64.7069 162.49 64.4743 162.366 64.7379Z" fill="black"/>
<path d="M129.471 71.7327C132.635 69.4528 135.706 67.0334 138.637 64.4743C138.869 64.2727 138.528 63.947 138.311 64.1486C135.395 66.6766 132.371 69.0806 129.238 71.3294C129.006 71.5 129.238 71.9188 129.471 71.7327Z" fill="black"/>
<path d="M138.575 64.4123C142.514 63.947 146.5 64.2572 150.455 64.4588C154.472 64.6604 158.504 64.862 162.521 65.0637C162.816 65.0792 162.816 64.6139 162.521 64.5984C158.504 64.3968 154.472 64.1951 150.455 63.9935C146.5 63.7919 142.514 63.4817 138.575 63.947C138.28 63.978 138.28 64.4433 138.575 64.4123Z" fill="black"/>
<path d="M143.631 67.3591C143.383 67.7778 143.119 68.1811 142.871 68.5998C142.778 68.7394 142.902 68.9565 143.072 68.9565C143.631 68.941 144.189 68.941 144.747 69.0186C145.058 69.0496 145.585 69.2667 145.911 69.1582C146.407 68.9876 146.748 68.0725 146.95 67.6693C147.089 67.4056 146.686 67.173 146.547 67.4366C146.407 67.7003 146.267 68.0415 146.081 68.2741C145.756 68.6619 145.445 68.6619 144.98 68.5843C144.344 68.4913 143.708 68.4757 143.072 68.4913C143.134 68.6153 143.212 68.7239 143.274 68.848C143.522 68.4292 143.786 68.026 144.034 67.6072C144.189 67.3436 143.786 67.1109 143.631 67.3591Z" fill="#E8E8E8"/>
<path d="M143.941 67.5917C144.841 67.359 145.709 67.359 146.578 67.7312C146.857 67.8553 147.089 67.4521 146.81 67.328C145.818 66.8937 144.841 66.8627 143.801 67.1419C143.522 67.2194 143.646 67.6692 143.941 67.5917Z" fill="#E8E8E8"/>
<path d="M136.776 67.9484C137.598 67.9174 138.389 67.9949 139.18 68.1966C139.474 68.2741 139.598 67.8243 139.304 67.7468C138.466 67.5452 137.629 67.4521 136.776 67.4831C136.481 67.4987 136.481 67.9639 136.776 67.9484Z" fill="#E8E8E8"/>
<path d="M136.869 67.7468C137.365 67.204 137.892 66.6922 138.435 66.1959C138.652 65.9943 138.327 65.6686 138.109 65.8702C137.567 66.3665 137.055 66.8938 136.543 67.4211C136.341 67.6383 136.667 67.9795 136.869 67.7468Z" fill="#E8E8E8"/>
<path d="M138.125 66.2113C138.807 66.5525 139.691 66.4595 140.451 66.475C140.746 66.4905 140.746 66.0252 140.451 66.0097C139.816 65.9942 138.947 66.1027 138.358 65.8081C138.094 65.684 137.861 66.0717 138.125 66.2113Z" fill="#E8E8E8"/>
<path d="M140.11 66.1803C139.738 66.6921 139.366 67.2194 139.025 67.7622C138.87 68.0104 139.273 68.243 139.428 67.9949C139.769 67.4521 140.126 66.9247 140.514 66.4129C140.684 66.1648 140.281 65.9322 140.11 66.1803Z" fill="#E8E8E8"/>
<path d="M159.062 44.2348C159.062 48.9341 159.062 53.6489 159.062 58.3482C159.062 58.6429 159.528 58.6429 159.528 58.3482C159.528 53.6489 159.528 48.9341 159.528 44.2348C159.528 43.9247 159.062 43.9247 159.062 44.2348Z" fill="#E8E8E8"/>
<path d="M159.404 58.5808C166.181 58.5808 172.974 58.5808 179.752 58.5808C180.047 58.5808 180.047 58.1155 179.752 58.1155C172.974 58.1155 166.181 58.1155 159.404 58.1155C159.094 58.1155 159.094 58.5808 159.404 58.5808Z" fill="#E8E8E8"/>
<path d="M180 58.3172C179.953 53.6334 179.891 48.9496 179.845 44.2813C179.845 43.9866 179.38 43.9866 179.38 44.2813C179.426 48.9651 179.488 53.6489 179.535 58.3172C179.535 58.6118 180 58.6118 180 58.3172Z" fill="#E8E8E8"/>
<path d="M159.357 44.3433C166.011 44.3433 172.664 44.3433 179.302 44.3433C179.597 44.3433 179.597 43.8781 179.302 43.8781C172.649 43.8781 165.995 43.8781 159.357 43.8781C159.062 43.8781 159.062 44.3433 159.357 44.3433Z" fill="#E8E8E8"/>
<path d="M169.345 43.8935C169.283 43.4748 169.299 43.0405 169.423 42.6218C169.516 42.2651 169.842 41.4276 170.369 41.6912C170.679 41.8463 170.772 42.4047 170.819 42.7148C170.881 43.1336 170.881 43.5523 170.834 43.9711C170.803 44.2658 171.268 44.2658 171.299 43.9711C171.377 43.1956 171.377 41.0709 170.105 41.1794C168.927 41.288 168.771 43.1646 168.896 44.0176C168.942 44.3123 169.392 44.1882 169.345 43.8935Z" fill="#E8E8E8"/>
<path d="M134.853 18.2879C134.853 23.9953 134.853 29.6872 134.853 35.3946C134.853 35.6892 135.318 35.6892 135.318 35.3946C135.318 29.6872 135.318 23.9953 135.318 18.2879C135.318 17.9932 134.853 17.9932 134.853 18.2879Z" fill="#E8E8E8"/>
<path d="M135.225 35.6271C143.445 35.6271 151.649 35.6271 159.869 35.6271C160.164 35.6271 160.164 35.1619 159.869 35.1619C151.649 35.1619 143.445 35.1619 135.225 35.1619C134.93 35.1619 134.93 35.6271 135.225 35.6271Z" fill="#E8E8E8"/>
<path d="M160.133 35.348C160.071 29.6716 160.009 24.0108 159.947 18.3344C159.947 18.0397 159.481 18.0397 159.481 18.3344C159.543 24.0108 159.606 29.6716 159.668 35.348C159.668 35.6427 160.133 35.6427 160.133 35.348Z" fill="#E8E8E8"/>
<path d="M135.179 18.3809C143.228 18.3809 151.293 18.3809 159.342 18.3809C159.637 18.3809 159.637 17.9156 159.342 17.9156C151.293 17.9156 143.228 17.9156 135.179 17.9156C134.884 17.9156 134.884 18.3809 135.179 18.3809Z" fill="#E8E8E8"/>
<path d="M147.229 17.9001C147.151 17.3728 147.182 16.8455 147.322 16.3337C147.446 15.8839 147.849 14.8293 148.547 15.1705C149.323 15.5582 149.214 17.2798 149.137 17.9622C149.106 18.2568 149.571 18.2568 149.602 17.9622C149.695 17.0626 149.71 14.4881 148.206 14.6432C146.81 14.7828 146.64 17.0161 146.795 18.0242C146.826 18.3189 147.276 18.1948 147.229 17.9001Z" fill="#E8E8E8"/>
<path d="M136.171 19.5907C136.171 24.2589 136.171 28.9272 136.171 33.58C136.171 33.8747 136.636 33.8747 136.636 33.58C136.636 28.9117 136.636 24.2434 136.636 19.5907C136.636 19.2805 136.171 19.2805 136.171 19.5907Z" fill="#E8E8E8"/>
<path d="M136.404 34.1227C143.662 34.1227 150.92 34.1227 158.179 34.1227C158.473 34.1227 158.473 33.6575 158.179 33.6575C150.92 33.6575 143.662 33.6575 136.404 33.6575C136.109 33.6575 136.093 34.1227 136.404 34.1227Z" fill="#E8E8E8"/>
<path d="M158.721 33.704C158.721 29.1288 158.721 24.538 158.721 19.9628C158.721 19.6682 158.256 19.6682 158.256 19.9628C158.256 24.538 158.256 29.1288 158.256 33.704C158.256 33.9987 158.721 33.9987 158.721 33.704Z" fill="#E8E8E8"/>
<path d="M136.59 19.7612C143.848 19.7612 151.106 19.7612 158.365 19.7612C158.659 19.7612 158.659 19.2959 158.365 19.2959C151.106 19.2959 143.848 19.2959 136.59 19.2959C136.295 19.2959 136.295 19.7612 136.59 19.7612Z" fill="#E8E8E8"/>
<path d="M139.009 99.3081C146.5 99.3081 153.991 99.3081 161.482 99.3081C161.777 99.3081 161.777 98.8428 161.482 98.8428C153.991 98.8428 146.5 98.8428 139.009 98.8428C138.699 98.8428 138.699 99.3081 139.009 99.3081Z" fill="#E8E8E8"/>
<path d="M149.679 99.7268C149.679 101.154 149.679 102.58 149.679 104.007C149.679 104.302 150.145 104.302 150.145 104.007C150.145 102.58 150.145 101.154 150.145 99.7268C150.145 99.4166 149.679 99.4166 149.679 99.7268Z" fill="#E8E8E8"/>
<path d="M146.283 104.876C149.989 104.876 153.696 104.876 157.418 104.876C157.713 104.876 157.713 104.411 157.418 104.411C153.712 104.411 150.005 104.411 146.283 104.411C145.988 104.411 145.973 104.876 146.283 104.876Z" fill="#E8E8E8"/>
<path d="M31.3132 88.8083C31.3132 93.9418 31.3132 99.0909 31.3132 104.224C31.3132 104.519 31.7785 104.519 31.7785 104.224C31.7785 99.0909 31.7785 93.9418 31.7785 88.8083C31.7785 88.5136 31.3132 88.5136 31.3132 88.8083Z" fill="#E8E8E8"/>
<path d="M31.5459 89.041C39.1144 89.041 46.6674 89.041 54.2359 89.041C54.5305 89.041 54.5305 88.5757 54.2359 88.5757C46.6674 88.5757 39.1144 88.5757 31.5459 88.5757C31.2357 88.5757 31.2357 89.041 31.5459 89.041Z" fill="#E8E8E8"/>
<path d="M31.5611 104.566C39.1606 104.55 46.7601 104.55 54.3596 104.535C54.6543 104.535 54.6543 104.069 54.3596 104.069C46.7601 104.085 39.1606 104.085 31.5611 104.1C31.2664 104.1 31.2664 104.566 31.5611 104.566Z" fill="#E8E8E8"/>
<path d="M54.1426 88.8703C54.1426 93.8953 54.1426 98.9203 54.1426 103.961C54.1426 104.255 54.6079 104.255 54.6079 103.961C54.6079 98.9358 54.6079 93.9108 54.6079 88.8703C54.6079 88.5756 54.1426 88.5756 54.1426 88.8703Z" fill="#E8E8E8"/>
<path d="M33.2674 90.964C32.9417 90.7779 33.0192 90.2506 33.4225 90.2351C33.9653 90.2196 33.6396 91.1501 33.2829 90.9175C33.0348 90.7469 32.8021 91.1501 33.0503 91.3207C33.9188 91.9101 34.7097 90.1575 33.6861 89.8163C33.2829 89.6768 32.8176 89.9094 32.647 90.2971C32.4764 90.7004 32.6625 91.1501 33.0192 91.3673C33.2984 91.5223 33.531 91.1191 33.2674 90.964Z" fill="#E8E8E8"/>
<path d="M34.2754 92.6856C38.742 92.6856 43.2087 92.6856 47.6753 92.6856C47.97 92.6856 47.97 92.2203 47.6753 92.2203C43.2087 92.2203 38.742 92.2203 34.2754 92.2203C33.9652 92.2203 33.9652 92.6856 34.2754 92.6856Z" fill="#E8E8E8"/>
<path d="M34.4771 94.3295C37.0517 94.3295 39.6262 94.3295 42.2007 94.3295C42.4954 94.3295 42.4954 93.8643 42.2007 93.8643C39.6262 93.8643 37.0517 93.8643 34.4771 93.8643C34.167 93.8643 34.167 94.3295 34.4771 94.3295Z" fill="#E8E8E8"/>
<path d="M34.9112 104.147C34.9112 102.503 34.9112 100.843 34.9112 99.1995C34.9112 98.9048 34.4459 98.9048 34.4459 99.1995C34.4459 100.843 34.4459 102.503 34.4459 104.147C34.4459 104.442 34.9112 104.442 34.9112 104.147Z" fill="#E8E8E8"/>
<path d="M34.725 99.277C38.4628 99.277 42.216 99.277 45.9537 99.277C46.2484 99.277 46.2484 98.8118 45.9537 98.8118C42.216 98.8118 38.4628 98.8118 34.725 98.8118C34.4304 98.8118 34.4304 99.277 34.725 99.277Z" fill="#E8E8E8"/>
<path d="M45.7213 99.1529C45.7213 100.781 45.7213 102.41 45.7213 104.054C45.7213 104.349 46.1866 104.349 46.1866 104.054C46.1866 102.425 46.1866 100.797 46.1866 99.1529C46.1866 98.8427 45.7213 98.8427 45.7213 99.1529Z" fill="#E8E8E8"/>
<path d="M37.0203 104.085C37.0203 102.999 37.0203 101.914 37.0203 100.843C37.0203 100.549 36.5551 100.549 36.5551 100.843C36.5551 101.929 36.5551 103.015 36.5551 104.085C36.5551 104.395 37.0203 104.395 37.0203 104.085Z" fill="#E8E8E8"/>
<path d="M38.8815 104.085C38.8815 102.999 38.8815 101.914 38.8815 100.843C38.8815 100.549 38.4163 100.549 38.4163 100.843C38.4163 101.929 38.4163 103.015 38.4163 104.085C38.4163 104.395 38.8815 104.395 38.8815 104.085Z" fill="#E8E8E8"/>
<path d="M40.6809 104.038C40.6809 103.046 40.6809 102.053 40.6809 101.045C40.6809 100.75 40.2156 100.75 40.2156 101.045C40.2156 102.038 40.2156 103.03 40.2156 104.038C40.2156 104.333 40.6809 104.333 40.6809 104.038Z" fill="#E8E8E8"/>
<path d="M42.5419 104.193C42.5419 103.17 42.5419 102.131 42.5419 101.107C42.5419 100.812 42.0767 100.812 42.0767 101.107C42.0767 102.131 42.0767 103.17 42.0767 104.193C42.0767 104.488 42.5419 104.488 42.5419 104.193Z" fill="#E8E8E8"/>
<path d="M44.5423 103.93C44.5423 102.968 44.5423 102.007 44.5423 101.045C44.5423 100.75 44.077 100.75 44.077 101.045C44.077 102.007 44.077 102.968 44.077 103.93C44.077 104.24 44.5423 104.24 44.5423 103.93Z" fill="#E8E8E8"/>
<path d="M52.8244 90.3592C52.6383 90.2816 52.6073 89.9559 52.8244 89.8784C52.9175 89.8474 53.0726 89.8629 53.1036 89.9714C53.1346 90.0335 53.0726 90.1886 52.9795 90.1731C52.8554 90.1575 52.7314 90.2041 52.7004 90.3281C52.6693 90.4367 52.7314 90.5918 52.8554 90.6073C53.2277 90.6693 53.5534 90.3902 53.5689 90.018C53.5844 89.6612 53.2432 89.3821 52.902 89.3821C52.5608 89.3821 52.2816 89.5992 52.2041 89.9404C52.142 90.2506 52.2661 90.6073 52.5608 90.7469C52.8554 90.8865 53.0881 90.4832 52.8244 90.3592Z" fill="#E8E8E8"/>
<circle cx="131.347" cy="83.8298" r="2.09374" fill="#EC615B"/>
<circle cx="135.488" cy="80.2317" r="1.10115" fill="#EC615B"/>
<circle cx="113.015" cy="5.5083" r="2.6986" fill="#2291D0"/>
<circle cx="31.2197" cy="74.0124" r="1.47338" fill="#2291D0"/>
<circle cx="33.1427" cy="70.9262" r="1.58194" fill="#EC615B"/>
<circle cx="110.425" cy="5.16709" r="2.3574" fill="#EC615B"/>
<path d="M118.645 40.9004C118.676 40.5747 118.831 40.4351 119.095 40.4506C119.235 40.4196 119.39 40.4041 119.529 40.4351C119.7 40.4351 119.871 40.4661 120.026 40.4351C120.274 40.3885 120.491 40.311 120.661 40.1249C120.832 39.9233 120.863 39.6751 120.91 39.427C121.049 38.605 121.639 38.8842 122.181 39.0237C122.786 39.1788 123.283 39.0392 123.686 38.5585C123.903 38.2948 124.043 37.9691 124.198 37.6589C124.384 37.2867 125.283 36.139 125.593 37.0696C125.686 37.3487 126.136 37.2247 126.043 36.9455C125.795 36.2166 124.911 36.139 124.368 36.6043C123.887 37.023 123.763 37.6744 123.391 38.1552C122.755 39.0082 122.088 38.2948 121.282 38.3258C120.956 38.3413 120.708 38.5119 120.568 38.8066C120.351 39.2564 120.584 39.458 120.088 39.7682C119.638 40.0629 119.514 39.8923 119.033 39.9543C118.413 40.0473 117.761 40.8228 118.428 41.2881C118.645 41.4742 118.878 41.071 118.645 40.9004Z" fill="#EC615B"/>
<path d="M120.708 42.1875C120.46 41.8618 120.553 41.6912 120.972 41.6447C121.22 41.4431 121.499 41.4121 121.794 41.5362C121.933 41.5517 122.088 41.5827 122.228 41.5982C122.584 41.6292 122.864 41.5672 123.174 41.4276C123.298 41.3655 123.313 41.2105 123.251 41.1019C122.709 40.0007 124.399 39.8146 124.973 39.7836C125.454 39.7681 125.934 39.7836 126.4 39.613C126.989 39.3804 127.392 38.9616 127.454 38.3257C127.485 38.0311 127.02 38.0311 126.989 38.3257C126.85 39.8301 124.368 39.0702 123.468 39.6285C122.848 40.0007 122.538 40.6831 122.864 41.35C122.895 41.2415 122.926 41.1329 122.941 41.0243C122.15 41.3966 120.972 40.5901 120.305 41.3811C119.979 41.7688 120.025 42.3271 120.46 42.6063C120.739 42.7459 120.972 42.3426 120.708 42.1875Z" fill="#EC615B"/>
<path d="M64.0838 12.4874C63.727 11.1226 65.3865 9.99046 66.4256 11.1071C67.4648 12.2238 66.2085 13.7902 64.8747 13.3405C64.5956 13.2474 64.4715 13.6972 64.7507 13.7902C66.5497 14.3951 68.1006 12.2083 66.7513 10.7814C65.402 9.33908 63.1532 10.7969 63.634 12.6115C63.7115 12.9062 64.1613 12.7821 64.0838 12.4874Z" fill="#2291D0"/>
<path d="M64.425 124.976C65.6658 127.07 68.0076 128.31 70.4426 128.14C70.7373 128.124 70.7373 127.659 70.4426 127.674C68.1627 127.83 65.9915 126.697 64.8283 124.743C64.6732 124.48 64.2699 124.712 64.425 124.976Z" fill="#2291D0"/>
<path d="M63.479 127.643C65.1075 129.318 67.2633 130.295 69.6052 130.404C69.8998 130.42 69.8998 129.954 69.6052 129.939C67.3873 129.83 65.3556 128.9 63.8047 127.302C63.6031 127.101 63.2619 127.442 63.479 127.643Z" fill="#2291D0"/>
<path d="M167.995 21.5603C166.972 22.8476 168.026 24.9103 169.686 24.7242C170.492 24.6311 171.501 24.1503 171.826 25.2515C171.981 25.7633 171.888 26.3216 172.012 26.8334C172.183 27.5779 172.788 28.3688 173.625 28.0897C173.904 27.9966 173.78 27.5469 173.501 27.6399C172.369 28.0121 172.447 26.0425 172.338 25.4066C172.245 24.8483 172.012 24.3209 171.454 24.1193C170.648 23.8246 169.81 24.4915 169.019 24.1969C168.135 23.8712 167.732 22.6304 168.337 21.886C168.507 21.6689 168.182 21.3277 167.995 21.5603Z" fill="#E8E8E8"/>
<path d="M165.84 24.7087C165.452 25.3446 165.747 26.0115 166.289 26.4612C166.987 27.0196 167.778 26.973 168.631 27.0506C169.36 27.1126 169.934 27.3142 170.322 27.9656C170.586 28.4154 170.679 28.9427 170.958 29.377C171.345 29.9663 172.028 30.4006 172.726 30.1059C173.005 29.9973 172.881 29.5476 172.602 29.6561C171.609 30.0749 171.19 28.7876 170.911 28.1362C170.679 27.5779 170.368 27.1126 169.795 26.849C169.298 26.6163 168.724 26.6008 168.182 26.5698C167.484 26.5233 165.545 26.12 166.243 24.9568C166.398 24.6932 165.995 24.4605 165.84 24.7087Z" fill="#E8E8E8"/>
<path d="M8.11096 113.639C8.31258 113.111 8.57624 112.956 8.88642 113.189C9.01049 113.235 9.13457 113.313 9.22762 113.406C9.41373 113.545 9.56883 113.701 9.75494 113.84C9.97207 113.995 10.2202 114.166 10.4839 114.228C10.9181 114.336 11.3059 114.197 11.616 113.887C11.9728 113.53 12.0658 112.863 12.469 112.553C12.8568 112.258 13.1049 112.723 13.3841 112.987C13.6633 113.235 13.9579 113.468 14.2526 113.685C14.5008 113.856 14.7334 113.452 14.4852 113.282C13.9269 112.879 13.4306 112.413 12.9653 111.901C12.9188 111.839 12.8103 111.824 12.7327 111.839C12.2364 111.995 11.9728 112.382 11.7246 112.832C11.5075 113.235 11.3834 113.576 10.9026 113.701C10.2822 113.856 9.92554 113.344 9.46026 113.003C8.99498 112.661 8.40563 112.413 7.89383 112.817C7.55263 113.096 7.45957 113.483 7.66119 113.871C7.86281 114.135 8.26605 113.902 8.11096 113.639Z" fill="#E8E8E8"/>
<path d="M8.25049 115.732C8.42109 116.554 9.19655 117.206 10.0651 117.082C10.5614 117.02 10.9026 116.678 11.3213 116.43C12.0813 115.965 12.9188 115.965 13.6632 116.446C13.9114 116.601 14.144 116.198 13.8958 116.042C13.1824 115.593 12.3294 115.453 11.5229 115.779C11.1507 115.934 10.8715 116.198 10.5303 116.399C9.77039 116.833 8.87086 116.492 8.68475 115.593C8.63822 115.314 8.18845 115.438 8.25049 115.732Z" fill="#E8E8E8"/>
<path d="M38.5865 5.46176C39.8582 5.58583 40.9439 6.36129 41.5177 7.49346C41.6573 7.75712 42.0605 7.52448 41.921 7.26082C41.2696 5.97356 40.0288 5.13606 38.5865 4.99648C38.2918 4.96546 38.2918 5.43074 38.5865 5.46176Z" fill="#161616"/>
<path d="M38.7105 0.96402C40.8197 1.97212 42.4792 3.69364 43.3787 5.84942C43.4873 6.12859 43.9371 6.00452 43.8285 5.72535C42.8824 3.4455 41.1609 1.61541 38.9431 0.56078C38.6794 0.436706 38.4468 0.839946 38.7105 0.96402Z" fill="#161616"/>
<path d="M43.7202 0.405727C44.6818 1.49137 45.1626 2.82517 45.1471 4.28303C45.1471 4.57771 45.6124 4.57771 45.6124 4.28303C45.6279 2.7166 45.0851 1.25873 44.0459 0.0800333C43.8598 -0.152605 43.5341 0.173089 43.7202 0.405727Z" fill="#161616"/>
<path d="M114.52 130.993C114.318 129.613 115.869 128.326 117.032 129.442C118.102 130.466 116.784 132.125 115.59 131.35C115.342 131.179 115.109 131.583 115.357 131.753C116.924 132.777 118.738 130.683 117.498 129.256C116.055 127.581 113.806 129.225 114.07 131.133C114.116 131.412 114.566 131.288 114.52 130.993Z" fill="#EC615B"/>
<path d="M116.427 123.688C116.179 122.897 117.203 122.262 117.715 122.975C118.18 123.626 117.405 124.386 116.738 124.045C116.474 123.906 116.241 124.309 116.505 124.448C117.637 125.038 118.878 123.704 118.056 122.665C117.218 121.595 115.59 122.556 115.978 123.813C116.071 124.092 116.52 123.983 116.427 123.688Z" fill="#EC615B"/>
<path d="M91.5504 129.799C91.0541 129.83 90.6974 130.078 89.9995 130.575C89.193 131.148 88.216 131.986 87.2854 133.196C87.6421 134.762 88.1849 136.561 89.0379 138.438C91.3798 143.618 94.8539 146.968 97.1958 148.829C97.5215 148.441 97.9713 147.821 98.1729 146.983C98.452 145.82 98.1419 144.859 97.9713 144.362C97.3974 142.517 97.0097 140.609 96.5134 138.732C95.4743 134.84 96.0016 134.405 94.9625 132.606C94.6368 132.063 93.2409 129.675 91.5504 129.799Z" fill="#161616"/>
<path d="M102.717 85.8924C103.275 87.0091 103.942 88.5135 104.563 90.3591C106.083 94.9033 106.269 98.641 106.315 99.8818C106.362 101.433 106.393 105.977 104.563 111.436C102.484 117.624 99.1654 121.61 96.9786 124.154C94.8229 126.682 92.7446 128.543 91.2402 129.784C91.2402 130.156 91.3023 130.854 91.721 131.536C92.7291 133.118 94.7918 133.087 94.9314 133.087C96.1877 132.203 97.7386 131.009 99.3981 129.489C102.252 126.883 104.097 124.541 104.842 123.564C106.098 121.92 108.362 118.881 110.177 114.336C112.147 109.42 112.689 104.969 112.798 101.898C112.922 98.5635 112.55 96.2061 112.023 92.8716C111.17 87.3968 110.084 85.179 109.308 83.8452C108.595 82.6355 107.882 81.7205 107.37 81.1311C105.819 82.713 104.268 84.295 102.717 85.8924Z" fill="white"/>
<path d="M102.577 86.5283C105.695 92.4683 106.827 99.4165 105.726 106.039C104.718 112.088 101.88 117.702 98.0953 122.479C96.0015 125.115 93.6286 127.504 91.0541 129.659C90.8214 129.846 91.1626 130.187 91.3798 129.985C96.1256 125.984 100.267 121.176 103.058 115.624C105.974 109.808 107.184 103.309 106.331 96.8419C105.85 93.1663 104.718 89.5836 102.996 86.2957C102.841 86.032 102.438 86.2646 102.577 86.5283Z" fill="#161616"/>
<path d="M108.176 82.2478C111.681 88.7927 113.093 96.3767 112.395 103.759C111.681 111.359 108.642 118.415 103.834 124.309C101.166 127.581 98.0798 130.466 94.7608 133.071C94.5282 133.258 94.8539 133.583 95.0865 133.397C101.104 128.667 106.486 122.866 109.681 115.841C112.767 109.063 113.682 101.371 112.565 94.0348C111.914 89.8318 110.58 85.7529 108.58 82.0152C108.44 81.7515 108.037 81.9841 108.176 82.2478Z" fill="#161616"/>
<path d="M90.9301 129.784C91.1937 131.877 92.9153 134.142 95.2571 133.242C95.5363 133.133 95.4122 132.684 95.1331 132.792C93.0859 133.583 91.628 131.598 91.3953 129.784C91.3643 129.489 90.8991 129.489 90.9301 129.784Z" fill="#161616"/>
<path d="M90.7905 129.737C89.3016 130.513 88.0764 131.614 87.1148 132.978C86.9442 133.227 87.3475 133.459 87.5181 133.211C88.4331 131.908 89.6273 130.869 91.0232 130.14C91.2868 130.001 91.0542 129.597 90.7905 129.737Z" fill="#161616"/>
<path d="M87.1614 133.397C88.5883 139.477 92.0158 145.014 96.9477 148.875C97.1804 149.061 97.5061 148.736 97.2734 148.55C92.4035 144.734 89.0225 139.291 87.6112 133.273C87.5336 132.978 87.0839 133.103 87.1614 133.397Z" fill="#161616"/>
<path d="M94.8539 133.304C95.5363 135.879 96.2342 138.438 96.9166 141.012C97.5525 143.354 98.8708 146.534 97.0407 148.658C96.8391 148.891 97.1803 149.217 97.3664 148.984C99.0724 146.999 98.297 144.331 97.6921 142.067C96.9011 139.105 96.0947 136.142 95.3037 133.18C95.2261 132.885 94.7764 133.009 94.8539 133.304Z" fill="#161616"/>
<path d="M104.501 89.7698C105.71 87.7381 107.944 86.5284 110.301 86.6214C110.596 86.6369 110.596 86.1717 110.301 86.1562C107.773 86.0631 105.385 87.3659 104.098 89.5372C103.942 89.7853 104.346 90.018 104.501 89.7698Z" fill="#161616"/>
<path d="M106.238 96.4698C107.23 95.2601 108.564 94.5156 110.1 94.2675C110.394 94.2209 110.27 93.7712 109.975 93.8177C108.362 94.0658 106.936 94.8878 105.912 96.1441C105.726 96.3767 106.052 96.7024 106.238 96.4698Z" fill="#161616"/>
<path d="M106.982 91.786C108.223 90.7469 109.758 90.2351 111.356 90.2971C111.65 90.3126 111.65 89.8473 111.356 89.8318C109.619 89.7698 107.975 90.3436 106.641 91.4603C106.424 91.6464 106.75 91.9721 106.982 91.786Z" fill="#161616"/>
<path d="M106.408 105.279C107.06 104.457 108.223 104.472 109.184 104.504C110.348 104.55 111.79 104.953 111.961 106.318C111.992 106.613 112.457 106.613 112.426 106.318C112.255 104.984 111.108 104.271 109.867 104.1C108.657 103.93 106.92 103.899 106.083 104.969C105.896 105.186 106.222 105.527 106.408 105.279Z" fill="#161616"/>
<path d="M93.9545 127.318C94.063 129.117 94.9471 131.459 97.0098 131.691C97.3045 131.722 97.3045 131.257 97.0098 131.226C95.2417 131.024 94.5128 128.837 94.4198 127.318C94.4042 127.023 93.939 127.023 93.9545 127.318Z" fill="#161616"/>
<path d="M97.0563 124.138C97.3354 125.503 98.0954 126.651 99.2276 127.473C99.4757 127.643 99.7083 127.24 99.4602 127.069C98.4366 126.325 97.7697 125.255 97.506 124.014C97.444 123.719 96.9942 123.843 97.0563 124.138Z" fill="#161616"/>
<path d="M99.6929 123.983C100.422 124.914 101.244 125.86 102.454 126.092C102.748 126.154 102.872 125.705 102.578 125.643C101.445 125.425 100.701 124.51 100.019 123.642C99.8325 123.409 99.5068 123.75 99.6929 123.983Z" fill="#161616"/>
<path d="M103.213 115.065C105.214 114.988 107.106 115.686 108.595 117.035C108.812 117.237 109.153 116.911 108.921 116.709C107.354 115.282 105.338 114.522 103.213 114.616C102.919 114.616 102.919 115.081 103.213 115.065Z" fill="#161616"/>
<path d="M106.191 110.8C107.354 110.692 108.455 111.002 109.386 111.731C109.619 111.917 109.944 111.591 109.712 111.405C108.704 110.599 107.478 110.226 106.191 110.335C105.896 110.35 105.896 110.816 106.191 110.8Z" fill="#161616"/>
<path opacity="0.13" d="M107.106 83.473C107.758 85.4737 108.549 88.2964 109.122 91.7549C109.696 95.2445 110.456 99.7577 109.681 105.186C108.921 110.552 107.029 114.336 105.648 117.05C102.019 124.185 97.1028 129.287 92.8843 132.73C92.2484 131.722 91.6126 130.714 90.9767 129.706C92.2019 128.931 93.9234 127.705 95.676 125.906C97.351 124.185 98.3436 122.68 99.8169 120.416C101.678 117.562 102.655 116.058 103.617 113.918C106.021 108.582 106.269 103.837 106.3 102.611C106.439 98.7031 105.726 95.6943 104.95 92.4218C104.392 90.0644 103.772 88.1258 103.275 86.7144C104.578 85.6443 105.85 84.5587 107.106 83.473Z" fill="#666666"/>
<path opacity="0.13" d="M105.881 86.6213C106.207 87.4743 106.641 88.6996 106.998 90.204C107.587 92.6544 107.835 95.1049 107.789 98.0361C107.696 103.573 107.603 108.675 105.555 114.042C102.066 123.146 94.7454 128.264 91.2249 130.388C92.8688 128.636 95.1332 126.108 97.5991 122.882C100.608 118.989 102.097 117.035 103.307 114.6C107.463 106.225 106.362 97.9586 105.99 95.6787C105.447 92.3287 104.454 89.6611 103.632 87.8466C104.392 87.4433 105.137 87.0246 105.881 86.6213Z" fill="#666666"/>
<path d="M81.5476 89.6767C80.8962 90.4212 80.9272 91.2742 80.6791 94.5311C80.3224 99.2459 80.1828 98.2689 79.9967 101.433C79.4073 111.607 80.2913 120.571 80.2913 120.571C80.555 123.332 81.5011 131.831 84.0756 140.687C85.4094 145.262 87.6737 151.574 87.7668 151.853C88.4337 153.714 89.0075 155.265 89.4108 156.32C89.5038 156.382 91.8767 157.716 93.5827 156.615C93.8464 156.444 94.5753 155.963 94.7459 155.064C94.8855 154.319 94.5753 153.714 94.4512 153.513C93.9394 151.962 93.195 149.651 92.404 146.813C91.0857 142.067 89.1626 134.948 88.4182 125.736C88.139 122.215 88.139 119.703 88.1235 115.438C88.1235 111.359 88.1235 106.799 88.7128 100.967C88.992 98.1758 89.4728 94.3915 90.3568 89.8939C88.17 89.0719 83.3622 87.6295 81.5476 89.6767Z" fill="white"/>
<path d="M89.3641 156.63C89.5968 157.235 89.8604 158.072 89.938 159.096C90.0155 159.887 89.969 160.585 89.8914 161.128C91.1942 161.857 92.2954 162.26 93.0863 162.477C93.5826 162.617 94.11 162.741 95.025 162.958C96.0796 163.206 96.8861 163.377 97.1963 163.439C100.453 164.121 102.097 164.462 104.02 164.602C104.796 164.664 105.959 164.71 107.401 164.648C107.681 164.198 108.239 163.159 107.882 162.182C107.603 161.407 106.905 161.035 105.649 160.399C103.028 159.049 101.709 158.383 101.678 158.367C100.065 157.731 97.7856 156.568 94.9475 154.257C94.7148 154.676 94.0789 155.622 92.8692 156.242C91.3028 157.049 89.7829 156.723 89.3641 156.63Z" fill="#161616"/>
<path d="M80.5239 93.3989C78.3371 110.087 79.7174 127.194 84.5097 143.308C85.8591 147.821 87.472 152.256 89.3331 156.584C89.4572 156.863 89.8449 156.615 89.7364 156.351C83.0984 140.95 79.7794 124.185 79.9811 107.419C80.0431 102.735 80.3843 98.0362 80.9892 93.3989C81.0202 93.1043 80.5549 93.1198 80.5239 93.3989Z" fill="#161616"/>
<path d="M88.992 95.0119C87.348 110.413 87.3635 126.17 90.7135 141.353C91.6596 145.619 92.8693 149.806 94.3427 153.9C94.4513 154.18 94.901 154.056 94.7925 153.776C89.5038 139.198 87.9219 123.549 88.4957 108.117C88.6508 103.744 88.992 99.37 89.4573 95.0119C89.4883 94.7018 89.023 94.7018 88.992 95.0119Z" fill="#161616"/>
<path d="M89.5502 156.677C91.6439 157.312 93.9858 156.258 94.8854 154.242C95.0094 153.978 94.6062 153.73 94.4821 154.009C93.6756 155.824 91.5819 156.801 89.6743 156.227C89.3951 156.134 89.271 156.583 89.5502 156.677Z" fill="#161616"/>
<path d="M89.24 156.63C89.5967 157.902 89.7673 159.205 89.7363 160.523C89.7363 160.818 90.2016 160.818 90.2016 160.523C90.2326 159.158 90.062 157.824 89.6898 156.506C89.6122 156.211 89.1625 156.335 89.24 156.63Z" fill="#161616"/>
<path d="M89.7519 160.988C91.9232 162.694 94.9165 162.989 97.5375 163.547C100.686 164.214 103.912 165.129 107.153 164.928C107.448 164.912 107.448 164.447 107.153 164.462C104.051 164.648 100.981 163.795 97.9563 163.159C95.3507 162.617 92.2334 162.369 90.0776 160.663C89.845 160.476 89.5193 160.802 89.7519 160.988Z" fill="#161616"/>
<path d="M94.8546 154.35C96.9018 156.211 99.3212 157.53 101.787 158.755C103.043 159.375 104.3 159.965 105.54 160.6C106.161 160.911 106.828 161.236 107.277 161.779C107.975 162.632 107.588 163.702 107.2 164.617C107.091 164.896 107.479 165.129 107.603 164.85C108.084 163.702 108.503 162.415 107.557 161.391C106.595 160.321 104.936 159.778 103.664 159.158C100.686 157.716 97.6617 156.258 95.1803 154.025C94.9631 153.823 94.6374 154.149 94.8546 154.35Z" fill="#161616"/>
<path d="M79.9655 101.727C82.571 103.077 85.5798 103.371 88.4025 102.549C88.6816 102.472 88.5731 102.022 88.2784 102.1C85.5798 102.891 82.6951 102.627 80.1981 101.324C79.9344 101.185 79.7018 101.588 79.9655 101.727Z" fill="#161616"/>
<path d="M79.7796 106.489C81.408 107.218 83.1295 107.497 84.9131 107.28C85.2078 107.249 85.2078 106.783 84.9131 106.814C83.2381 107.032 81.5631 106.783 80.0122 106.085C79.7485 105.961 79.5159 106.365 79.7796 106.489Z" fill="#161616"/>
<path d="M79.8727 117.144C81.0514 117.95 82.4627 118.152 83.8741 117.997C85.3009 117.842 87.0535 117.516 88.2787 116.756C88.5268 116.601 88.2942 116.198 88.046 116.353C86.8984 117.066 85.2079 117.376 83.8741 117.531C82.5558 117.686 81.222 117.5 80.1053 116.74C79.8572 116.57 79.6245 116.973 79.8727 117.144Z" fill="#161616"/>
<path d="M80.7253 123.906C83.2689 124.929 86.1536 124.697 88.511 123.285C88.7746 123.13 88.542 122.727 88.2783 122.882C86.014 124.231 83.2844 124.433 80.8494 123.456C80.5702 123.347 80.4617 123.797 80.7253 123.906Z" fill="#161616"/>
<path d="M83.0984 136.701C85.5023 137.554 87.8442 136.468 89.8759 135.227C90.1241 135.072 89.8914 134.669 89.6433 134.824C87.7046 136.003 85.5023 137.057 83.2225 136.251C82.9433 136.158 82.8192 136.608 83.0984 136.701Z" fill="#161616"/>
<path d="M91.0236 142.951C90.2482 143.804 89.2866 144.378 88.1855 144.657C87.8908 144.734 88.0149 145.184 88.3095 145.107C89.5037 144.812 90.5429 144.192 91.3649 143.292C91.551 143.059 91.2253 142.734 91.0236 142.951Z" fill="#161616"/>
<path d="M87.1773 150.613C88.1854 150.457 89.1315 150.132 90.0155 149.635C90.2792 149.48 90.0465 149.093 89.7829 149.232C88.9299 149.713 88.0303 150.023 87.0688 150.163C86.7586 150.209 86.8827 150.659 87.1773 150.613Z" fill="#161616"/>
<path opacity="0.11" d="M86.5104 91.879C85.9056 93.9883 85.1611 97.0591 84.7269 100.828C84.1065 106.194 84.4322 110.211 84.8354 114.817C86.2623 130.683 87.0067 138.732 88.7593 143.928C90.4343 148.891 92.3884 152.737 93.7998 155.234C93.7377 155.312 92.4039 156.909 90.6669 156.584C90.0465 156.459 89.5968 156.149 89.3176 155.917C88.0924 153.14 86.4794 149.17 84.944 144.269C83.6722 140.206 79.8259 127.147 79.6864 109.342C79.6553 104.953 79.8259 99.1063 80.6945 92.2202C82.6331 92.0962 84.5718 91.9876 86.5104 91.879Z" fill="#666666"/>
<path opacity="0.11" d="M80.6945 95.9114C80.9116 104.317 81.532 111.39 82.1524 116.74C83.207 126.015 83.9824 132.405 86.526 140.469C88.5732 146.983 91.0236 152.148 92.9002 155.699C91.7836 155.886 90.6669 156.072 89.5347 156.258C88.4646 153.978 87.4565 151.589 86.5104 149.092C79.1125 129.504 78.8799 110.676 80.6945 95.9114Z" fill="#666666"/>
<path d="M111.867 46.5767C111.557 46.7783 111.169 47.3056 111.371 49.1512C111.666 51.7568 112.767 53.6954 112.844 53.8195C116.954 61.0158 115.993 60.1938 117.264 61.8068C118.784 63.7144 120.925 66.413 124.709 68.0725C126.337 68.7859 128.54 69.763 130.975 69.1116C133.053 68.5688 134.666 67.3901 134.666 67.3901C135.271 66.9403 135.907 66.3665 137.07 65.7926C137.737 65.4514 138.326 65.2498 138.729 65.1102C139.008 65.2653 139.427 65.4514 139.954 65.4824C140.761 65.529 141.009 65.1878 141.862 65.1102C141.986 65.0947 142.994 65.0327 143.956 65.5445C144.948 66.0718 145.135 66.8162 145.553 66.7077C146.003 66.5991 146.158 65.653 146.174 65.1723C146.189 64.4588 145.91 63.9315 145.739 63.6368C145.336 62.8924 144.747 62.4581 144.39 62.2255C144.328 61.9774 144.157 61.4655 143.708 61.0003C143.165 60.4264 142.545 60.2558 142.296 60.1938C142.25 59.9456 142.141 59.5889 141.862 59.2787C141.118 58.4413 139.815 58.6739 139.458 58.7204C138.217 58.9375 137.473 59.7906 137.24 60.0697C137.085 59.9767 136.667 59.7595 136.139 59.8216C135.457 59.9146 135.069 60.4264 134.914 60.6281C134.294 61.4345 134.449 62.3961 134.48 62.5977C133.456 62.7063 132.696 62.9855 132.2 63.2181C131.254 63.6679 130.944 64.1021 130.044 64.4433C129.594 64.6139 128.819 64.8931 127.888 64.7535C127.082 64.6294 126.508 64.2572 126.167 64.0091C123.453 62.0704 121.809 59.5889 121.809 59.5889C117.14 52.5633 117.606 53.5403 117.14 52.6408C115.621 49.7406 114.566 46.7783 112.844 46.4371C112.705 46.4216 112.239 46.3286 111.867 46.5767Z" fill="white"/>
<path d="M113.682 46.4837C115.714 50.9658 118.273 55.2154 121.297 59.1082C123.871 62.4271 127.299 66.6301 132.045 65.7306C132.339 65.6686 132.215 65.2188 131.921 65.2808C127.066 66.1959 123.515 61.326 121.002 57.945C118.288 54.3158 115.977 50.392 114.101 46.251C113.961 45.9719 113.558 46.2045 113.682 46.4837Z" fill="#161616"/>
<path d="M127.097 64.738C127.764 64.8931 128.447 65.0482 129.129 64.9397C129.796 64.8311 130.37 64.4744 130.944 64.1487C132.495 63.2802 134.185 62.8149 135.969 62.7839C136.263 62.7839 136.263 62.3186 135.969 62.3186C134.573 62.3496 133.192 62.6133 131.89 63.1561C131.254 63.4198 130.68 63.792 130.075 64.1022C129.114 64.5985 128.245 64.5364 127.221 64.2883C126.927 64.2262 126.803 64.6605 127.097 64.738Z" fill="#161616"/>
<path d="M111.914 52.3151C113.992 56.7353 116.132 61.264 119.637 64.7535C122.708 67.7933 127.268 70.3524 131.688 69.0651C132.882 68.7239 133.999 68.1346 135.038 67.4677C136.201 66.7077 137.333 65.5445 138.807 65.529C139.101 65.529 139.101 65.0637 138.807 65.0637C136.806 65.0947 135.24 66.9248 133.549 67.8089C131.192 69.0341 128.71 69.2512 126.182 68.4137C121.793 66.9558 118.505 63.3577 116.132 59.5269C114.674 57.154 113.48 54.626 112.301 52.098C112.193 51.8033 111.79 52.0515 111.914 52.3151Z" fill="#161616"/>
<path d="M135.891 62.6442C137.287 62.7063 139.318 63.4197 138.915 65.2188C138.853 65.5135 139.303 65.6375 139.365 65.3428C139.846 63.2181 137.612 62.2565 135.891 62.179C135.596 62.1635 135.596 62.6287 135.891 62.6442Z" fill="#161616"/>
<path d="M134.79 62.4116C134.899 61.8533 134.945 61.264 135.131 60.7367C135.395 59.9767 136.481 60.1628 137.116 60.2714C137.411 60.3179 137.535 59.8681 137.241 59.8216C136.589 59.713 135.566 59.5269 135.023 60.0387C134.48 60.5505 134.48 61.6207 134.34 62.3031C134.278 62.5822 134.728 62.7063 134.79 62.4116Z" fill="#161616"/>
<path d="M136.325 61.1399C137.163 60.6281 137.938 60.0542 138.714 59.4649C139.288 59.0306 139.877 58.7204 140.622 58.891C141.319 59.0616 141.831 59.5424 142.203 60.1163C142.374 60.3644 142.777 60.1318 142.607 59.8836C141.971 58.9376 140.963 58.1931 139.753 58.4103C139.133 58.5188 138.667 58.9066 138.187 59.2788C137.504 59.8061 136.806 60.2869 136.077 60.7366C135.845 60.8917 136.077 61.295 136.325 61.1399Z" fill="#161616"/>
<path d="M139.676 61.4345C140.358 61.2949 140.916 61.0313 141.537 60.7676C141.878 60.628 142.266 60.504 142.607 60.628C142.824 60.7056 142.994 60.8607 143.181 61.0003C143.522 61.2639 143.848 61.5586 144.142 61.8688C144.359 62.0859 144.685 61.7447 144.468 61.5431C143.925 61.0003 143.103 60.1007 142.266 60.0697C141.909 60.0542 141.599 60.2248 141.288 60.3799C140.715 60.6746 140.172 60.8762 139.536 61.0003C139.257 61.0468 139.381 61.4966 139.676 61.4345Z" fill="#161616"/>
<path d="M140.761 62.8459C141.506 62.7838 142.234 62.6597 142.979 62.4891C143.537 62.3651 144.096 62.2255 144.607 62.5667C145.042 62.8459 145.305 63.3111 145.569 63.7454C145.724 63.9935 146.127 63.7609 145.972 63.5128C145.538 62.8148 145.011 62.0394 144.127 61.8843C143.692 61.8067 143.258 61.9463 142.839 62.0394C142.141 62.1945 141.459 62.3185 140.746 62.3806C140.466 62.3961 140.466 62.8614 140.761 62.8459Z" fill="#161616"/>
<path d="M139.303 65.6686C140.249 66.0253 141.071 65.6065 141.986 65.3894C143.398 65.0637 144.39 65.9477 145.321 66.8628C145.538 67.0799 145.863 66.7387 145.646 66.5371C144.902 65.8082 144.095 65.0482 143.025 64.8776C141.785 64.676 140.637 65.6841 139.412 65.2188C139.148 65.1102 139.024 65.56 139.303 65.6686Z" fill="#161616"/>
<path d="M142.793 63.8539C143.568 63.8384 144.421 63.9315 145.119 64.3037C146.034 64.8 146.189 65.9167 145.383 66.5836C145.15 66.7697 145.476 67.0954 145.708 66.9092C146.437 66.3044 146.639 65.2343 146.049 64.4588C145.352 63.5282 143.878 63.3421 142.793 63.3731C142.498 63.3887 142.498 63.8539 142.793 63.8539Z" fill="#161616"/>
<path d="M145.491 63.6679C145.631 63.9626 145.708 64.2728 145.724 64.5829C145.739 64.8776 146.205 64.8776 146.189 64.5829C146.158 64.1797 146.065 63.792 145.894 63.4198C145.77 63.1716 145.367 63.4042 145.491 63.6679Z" fill="#161616"/>
<path d="M114.023 55.8822C114.395 54.4088 115.667 53.3076 117.187 53.1836C117.482 53.1525 117.482 52.6873 117.187 52.7183C115.45 52.8579 113.992 54.0676 113.573 55.7581C113.511 56.0528 113.961 56.1768 114.023 55.8822Z" fill="#161616"/>
<path d="M115.822 58.8755C115.822 58.007 116.148 57.2315 116.753 56.6422C116.97 56.425 116.644 56.0993 116.427 56.3165C115.729 56.9989 115.357 57.9139 115.357 58.891C115.357 59.1702 115.822 59.1702 115.822 58.8755Z" fill="#161616"/>
<path d="M117.14 60.8607C117.295 59.2012 118.412 57.7744 119.994 57.2315C120.273 57.1385 120.149 56.6887 119.87 56.7818C118.086 57.4021 116.846 58.9841 116.675 60.8607C116.644 61.1554 117.109 61.1554 117.14 60.8607Z" fill="#161616"/>
<path d="M119.467 63.9935C119.591 62.3185 120.832 60.9382 122.476 60.6125C122.77 60.5504 122.646 60.1007 122.352 60.1627C120.506 60.5194 119.126 62.1169 119.002 63.978C118.986 64.2882 119.451 64.2882 119.467 63.9935Z" fill="#161616"/>
<path d="M122.863 67.0179C123.018 65.6065 123.856 64.3968 125.081 63.7144C125.345 63.5748 125.112 63.1716 124.849 63.3112C123.453 64.0866 122.569 65.4359 122.398 67.0179C122.367 67.3125 122.832 67.3125 122.863 67.0179Z" fill="#161616"/>
<path d="M126.741 64.6294C127.609 65.8546 127.718 67.4056 126.973 68.7238C126.834 68.9875 127.221 69.2201 127.377 68.9565C128.183 67.4986 128.105 65.7461 127.144 64.3813C126.973 64.1486 126.57 64.3813 126.741 64.6294Z" fill="#161616"/>
<path d="M132.107 63.2491C132.153 63.4818 132.262 63.5438 132.479 63.6214C132.913 63.792 133.317 63.823 133.72 64.0866C134.573 64.6605 135.069 65.622 135.054 66.6301C135.054 66.9248 135.519 66.9248 135.519 66.6301C135.534 65.7926 135.255 65.0017 134.712 64.3503C134.449 64.0401 134.139 63.7764 133.797 63.5748C133.642 63.4818 132.572 63.1871 132.557 63.1096C132.495 62.8304 132.045 62.9545 132.107 63.2491Z" fill="#161616"/>
<path opacity="0.11" d="M112.938 48.7789C113.744 48.7169 114.24 51.9894 115.729 55.4944C116.985 58.4257 119.715 64.8155 125.252 66.5835C128.059 67.4831 132.122 67.3435 135.333 65.684C136.76 64.9396 137.504 64.1641 139.365 63.7764C141.459 63.3421 144.623 63.4817 145.522 65.2342C145.786 65.746 145.802 66.2733 145.74 66.6921C144.871 65.622 144.08 65.3118 143.506 65.2342C142.684 65.1257 142.235 65.4824 141.04 65.5754C140.11 65.6375 139.319 65.4979 138.807 65.3583C137.969 65.653 136.713 66.1803 135.333 67.0333C134.015 67.8553 133.704 68.2895 132.758 68.7083C131.13 69.4217 129.594 69.2201 128.276 69.0495C125.081 68.6152 122.848 67.1108 121.778 66.3664C120.847 65.715 119.42 64.5983 117.528 62.2254C115.884 60.1627 113.589 56.7972 111.821 51.9273C112.023 50.4384 112.364 48.8255 112.938 48.7789Z" fill="#666666"/>
<path d="M76.6001 52.5944C76.7862 53.5405 77.0188 54.8432 77.2515 56.3942C77.3911 57.3867 77.9339 61.2796 77.9804 66.8163C78.0269 72.7099 77.5151 77.7659 76.9258 81.6121C76.445 84.8226 75.8557 87.4901 75.3904 89.4598C76.6156 90.623 78.6008 92.236 81.3769 93.5077C84.029 94.7174 86.4329 95.1827 88.0924 95.3688C94.0325 86.0478 98.5301 79.1617 101.275 75.0052C107.479 65.5601 111.806 59.1858 113.559 49.384C113.884 47.6004 114.039 46.1115 114.117 45.1034C112.039 44.5761 108.999 44.0023 105.308 44.1264C104.672 44.1419 103.105 44.2194 99.9725 44.7777C96.669 45.3516 92.4195 46.3287 87.5186 48.0037C84.5253 49.0118 80.7876 50.4851 76.6001 52.5944Z" fill="#161616"/>
<path d="M88.8836 54.0058C89.0387 55.3396 89.2093 57.1232 89.3333 59.2479C89.4884 61.8535 89.4884 63.9162 89.4884 65.4051C89.4574 71.6398 89.1007 77.7659 89.0387 78.9291C88.775 83.3492 88.4183 88.9481 87.9065 95.4775C90.8688 94.2832 93.2417 93.1356 94.8856 92.2826C100.841 89.2272 105.106 86.1254 108.099 83.9231C110.441 82.2016 112.318 80.6972 113.574 79.6736C113.915 76.3856 114.148 73.5474 114.334 71.3141C114.567 68.4604 114.784 65.7463 114.939 62.1326C115.032 59.9924 115.079 58.9067 115.094 57.4178C115.125 52.4084 114.706 49.0429 114.567 48.0037C114.412 46.794 114.241 45.8014 114.117 45.119C109.961 45.91 105.137 47.1352 99.9106 49.0739C95.7231 50.6093 92.0475 52.3153 88.8836 54.0058Z" fill="white"/>
<path d="M76.7088 52.6719C85.6421 48.1588 95.1802 45.5222 105.091 44.2815C105.385 44.2504 105.385 43.7852 105.091 43.8162C100.066 44.4521 95.0872 45.3516 90.2173 46.794C85.487 48.2053 80.8807 50.0354 76.4761 52.2687C76.197 52.4083 76.4296 52.8115 76.7088 52.6719Z" fill="#161616"/>
<path d="M76.6155 52.8736C78.7093 52.765 80.7875 53.0907 82.8658 53.3699C84.8509 53.6491 86.8361 53.9127 88.8368 54.1919C89.1315 54.2384 89.2556 53.7886 88.9609 53.7421C86.8671 53.4474 84.7889 53.1683 82.6952 52.8736C80.679 52.5944 78.6628 52.2998 76.6155 52.4083C76.3209 52.4238 76.3209 52.8891 76.6155 52.8736Z" fill="#161616"/>
<path d="M104.842 44.3745C107.991 44.1729 111.124 44.4986 114.179 45.3051C114.474 45.3826 114.598 44.9328 114.303 44.8553C111.217 44.0333 108.037 43.7076 104.842 43.9092C104.548 43.9403 104.548 44.4055 104.842 44.3745Z" fill="#161616"/>
<path d="M89.2558 54.0212C97.15 50.1129 105.525 47.2282 114.148 45.4291C114.443 45.3671 114.319 44.9173 114.024 44.9794C105.354 46.7939 96.9484 49.6942 89.0076 53.618C88.7595 53.7576 88.9921 54.1608 89.2558 54.0212Z" fill="#161616"/>
<path d="M88.4649 53.9747C89.8142 64.583 89.1473 75.2998 88.4649 85.9237C88.2633 89.0565 88.0617 92.1894 87.6119 95.2912C87.5654 95.5859 88.0151 95.71 88.0617 95.4153C88.8371 90.1111 89.0387 84.7139 89.3334 79.3633C89.6281 73.9816 89.8297 68.5999 89.6591 63.2182C89.5505 60.1318 89.3334 57.03 88.9302 53.9747C88.8836 53.68 88.4184 53.68 88.4649 53.9747Z" fill="#161616"/>
<path d="M76.5537 52.5168C78.4768 64.6295 78.0891 77.0524 75.3905 89.0255C75.3285 89.3202 75.7782 89.4443 75.8403 89.1496C78.5544 77.0989 78.9421 64.5985 77.0035 52.3927C76.9569 52.0981 76.5072 52.2221 76.5537 52.5168Z" fill="#161616"/>
<path d="M75.3284 89.3822C78.6784 92.7322 83.0365 94.9345 87.7203 95.6169C88.015 95.6635 88.1391 95.2137 87.8444 95.1672C83.2381 94.4848 78.9576 92.3445 75.6541 89.041C75.437 88.8549 75.1113 89.1806 75.3284 89.3822Z" fill="#161616"/>
<path d="M113.822 45.3982C115.823 56.7354 114.52 68.2743 113.217 79.627C113.186 79.9217 113.652 79.9217 113.683 79.627C114.985 68.2432 116.288 56.6734 114.272 45.2741C114.226 44.9794 113.776 45.1035 113.822 45.3982Z" fill="#161616"/>
<path d="M113.233 79.596C105.509 86.0788 96.8706 91.414 87.6271 95.4309C87.348 95.5549 87.5961 95.9582 87.8598 95.8341C97.1343 91.8017 105.804 86.4355 113.559 79.9372C113.791 79.7355 113.465 79.4098 113.233 79.596Z" fill="#161616"/>
<path d="M90.5119 55.6342C90.2483 55.417 90.1242 55.0138 90.3258 54.7191C90.5119 54.4244 90.9772 54.3159 91.2719 54.5175C91.5511 54.7036 91.6441 55.1379 91.4735 55.4325C91.2409 55.8048 90.7136 55.8358 90.4034 55.5566C90.2328 55.4015 89.9846 55.6497 90.1552 55.8048C90.5895 56.1925 91.2719 56.208 91.6596 55.7582C92.0318 55.3395 91.9698 54.6416 91.5355 54.2849C91.1168 53.9437 90.4654 54.0212 90.1087 54.4089C89.7365 54.8432 89.8295 55.5256 90.2638 55.8823C90.4499 56.0219 90.698 55.7738 90.5119 55.6342Z" fill="#161616"/>
<path d="M90.8998 58.1467C90.9773 59.9148 91.0549 61.6828 91.1324 63.4509C91.1479 63.668 91.4891 63.6835 91.4891 63.4509C91.4116 61.6828 91.334 59.9148 91.2565 58.1467C91.241 57.9296 90.8843 57.9296 90.8998 58.1467Z" fill="#161616"/>
<path d="M91.0858 58.2242C96.0642 56.0684 101.213 54.3004 106.455 52.9201C106.673 52.858 106.579 52.5323 106.362 52.5789C101.089 53.9747 95.9246 55.7583 90.9151 57.914C90.698 58.0226 90.8841 58.3173 91.0858 58.2242Z" fill="#161616"/>
<path d="M91.4269 63.4974C95.4748 61.3416 99.7243 59.6046 104.113 58.3173C104.331 58.2553 104.238 57.9141 104.02 57.9761C99.6003 59.2789 95.3197 61.0314 91.2563 63.2027C91.0547 63.2958 91.2253 63.5905 91.4269 63.4974Z" fill="#161616"/>
<path d="M106.238 52.7961C105.509 54.5641 104.765 56.3322 104.036 58.1002C103.943 58.3018 104.284 58.3949 104.377 58.1933C105.106 56.4252 105.851 54.6572 106.579 52.8891C106.657 52.6875 106.316 52.5944 106.238 52.7961Z" fill="#161616"/>
<path d="M107.06 52.7184C106.378 54.4244 105.68 56.1305 104.951 57.821C104.858 58.0226 105.168 58.2087 105.246 57.9916C105.975 56.27 106.704 54.5485 107.386 52.8115C107.494 52.6099 107.153 52.5168 107.06 52.7184Z" fill="#161616"/>
<path d="M105.23 58.1312C106.672 57.5109 108.099 56.8905 109.542 56.2701C109.743 56.1771 109.573 55.8824 109.371 55.9755C107.929 56.5958 106.502 57.2162 105.06 57.8366C104.858 57.9141 105.028 58.2243 105.23 58.1312Z" fill="#161616"/>
<path d="M107.448 52.8426C108.317 52.4859 109.216 52.2067 110.147 52.0206C110.364 51.9741 110.271 51.6329 110.054 51.6794C109.123 51.8655 108.224 52.1292 107.355 52.5014C107.154 52.5789 107.231 52.9201 107.448 52.8426Z" fill="#161616"/>
<path d="M110.007 51.9895C109.697 53.2768 109.449 54.5796 109.247 55.8979C109.216 56.115 109.557 56.2081 109.588 55.9909C109.79 54.6726 110.038 53.3699 110.348 52.0826C110.395 51.8655 110.053 51.7724 110.007 51.9895Z" fill="#161616"/>
<path d="M111.263 79.0222C107.495 81.1624 103.726 83.3027 99.9417 85.443C99.74 85.5515 99.9261 85.8617 100.112 85.7377C103.881 83.5974 107.65 81.4571 111.434 79.3168C111.636 79.2083 111.449 78.9136 111.263 79.0222Z" fill="#161616"/>
<path d="M100.329 77.8279C100.438 79.0686 100.252 80.3559 100.159 81.6121C100.066 82.9459 99.9726 84.2797 99.864 85.6135C99.8485 85.8306 100.19 85.8306 100.221 85.6135C100.314 84.2797 100.407 82.9459 100.515 81.6121C100.608 80.3714 100.795 79.0841 100.686 77.8279C100.655 77.6108 100.298 77.6108 100.329 77.8279Z" fill="#161616"/>
<path d="M100.547 77.8279C104.222 75.7652 108.084 74.0436 112.085 72.7098C112.303 72.6323 112.209 72.3066 111.992 72.3686C107.96 73.7179 104.067 75.4395 100.36 77.5177C100.174 77.6263 100.36 77.9365 100.547 77.8279Z" fill="#161616"/>
<path d="M112.008 72.6633C111.822 74.8191 111.512 76.9594 111.046 79.0686C111 79.2858 111.341 79.3788 111.388 79.1617C111.853 77.0214 112.179 74.8501 112.365 72.6633C112.38 72.4462 112.039 72.4462 112.008 72.6633Z" fill="#161616"/>
<path d="M77.0809 52.734C79.764 52.9201 82.4005 53.3543 85.0061 53.9902C85.3008 54.0678 85.4248 53.618 85.1302 53.5405C82.4781 52.8891 79.795 52.4548 77.0809 52.2687C76.7862 52.2377 76.7862 52.703 77.0809 52.734Z" fill="white"/>
<path opacity="0.1" d="M103.447 48.0502C102.687 49.4305 101.508 51.6483 100.221 54.409C96.7466 61.8689 88.1079 80.4179 93.8619 86.0322C94.9165 87.0559 97.2584 88.4362 103.074 87.2265C98.0649 89.9871 93.0554 92.7633 88.0459 95.5239C88.7903 88.5913 89.1471 82.6512 89.3332 77.9985C89.4572 74.8966 89.6123 70.8487 89.5193 65.4515C89.4417 60.9693 89.2091 57.1231 88.9609 54.1143C90.6825 53.1837 92.5591 52.2532 94.5908 51.3536C97.7237 49.9733 100.701 48.8877 103.447 48.0502Z" fill="#666666"/>
<path d="M42.4009 15.5271C42.1217 15.9148 42.4784 16.5972 42.649 16.9384C42.9592 17.5278 43.7502 18.7375 45.8439 19.637C45.0685 19.8077 44.7583 20.1178 44.6187 20.3815C44.3395 20.8933 44.6807 21.25 44.6807 22.4752C44.6807 23.3748 44.4791 23.5144 44.5567 24.2588C44.6187 24.8947 44.8203 25.4065 44.9909 25.7322C45.0219 26.0268 45.0685 26.4456 45.177 26.9574C45.2546 27.3296 45.3011 27.5157 45.3631 27.6398C45.6888 28.2292 46.6039 28.5393 47.3948 28.3842C48.3874 28.1671 48.8217 27.2676 48.8682 27.159C49.287 27.7794 49.6902 27.9655 49.9694 28.012C50.4812 28.1051 50.8224 27.8104 51.815 27.5778C52.3113 27.4537 52.7145 27.4072 52.9782 27.3917C52.9471 27.9655 52.9006 28.8185 52.8541 29.8576C52.7145 33.2852 52.637 35.0842 52.7921 37.24C52.8386 37.9224 53.0092 39.9541 53.5985 42.5287C53.9552 44.1106 54.5136 46.499 55.8164 49.2286C56.6228 50.9191 57.8791 53.5712 60.5467 56.1147C61.7564 57.2624 64.6566 59.961 69.3404 60.9691C72.83 61.7136 75.7457 61.2018 77.3897 60.783C78.6614 60.1006 79.9332 59.4337 81.2049 58.7513C81.3911 58.4876 81.7012 57.9293 81.7012 57.2159C81.7012 56.1458 81.0343 55.1377 79.9797 54.5793C79.1732 54.7809 78.0566 55.0136 76.7228 55.1377C75.42 55.2462 72.8455 55.4478 69.8367 54.5173C68.5494 54.1296 65.1374 53.0284 62.5163 49.849C61.2756 48.3446 60.7328 46.9953 59.8177 44.6844C58.7321 41.9703 58.2978 39.8301 57.8481 37.6122C56.902 32.8354 56.4212 30.4315 56.871 28.0896C57.1036 26.8799 57.5379 25.4375 57.2432 23.4213C56.9485 21.4516 56.1886 20.4435 55.9559 20.1644C55.3201 19.3734 54.5446 18.9081 54.1103 18.6289C53.3194 18.1327 53.4745 18.4118 52.1407 17.7139C51.908 17.5898 51.6444 17.4502 51.2877 17.4658C50.8689 17.4968 50.5432 17.7294 50.3726 17.9C49.3955 17.6209 48.5735 17.3572 47.9687 17.1556C46.5884 16.7058 45.8905 16.4887 45.5648 16.3026C44.7428 15.8373 44.4481 15.4341 43.6571 15.3255C43.409 15.2479 42.68 15.1394 42.4009 15.5271Z" fill="white"/>
<path d="M57.0108 24.2278C56.499 27.6244 56.5611 31.0519 57.0263 34.4484C57.4916 37.876 58.2671 41.35 59.4613 44.5914C60.4694 47.3366 61.9273 49.9111 64.2071 51.8032C66.1923 53.4472 68.5807 54.5329 71.0932 55.0602C73.9624 55.665 76.9712 55.5254 79.7784 54.688C80.0575 54.5949 79.949 54.1451 79.6543 54.2382C74.7844 55.696 69.2011 54.9671 65.0756 51.9118C62.7182 50.1593 61.1363 47.6933 60.0972 44.9792C58.965 42.079 58.2516 38.9771 57.7243 35.9218C57.0729 32.091 56.8868 28.1827 57.4606 24.3364C57.5071 24.0572 57.0574 23.9332 57.0108 24.2278Z" fill="#161616"/>
<path d="M52.6992 27.4227C52.1253 35.0687 52.3735 43.087 55.9406 50.0506C58.9339 55.8976 64.207 60.5969 70.8915 61.4034C74.5207 61.8376 78.2739 61.0777 81.2827 58.9529C81.5308 58.7823 81.2982 58.3791 81.05 58.5497C75.6373 62.3804 68.1153 61.5585 62.9198 57.7587C57.4295 53.7263 54.4672 47.1504 53.4436 40.5745C52.7612 36.2319 52.8388 31.7963 53.1645 27.4227C53.1955 27.128 52.7302 27.128 52.6992 27.4227Z" fill="#161616"/>
<path d="M79.6387 54.6724C81.2672 55.3237 81.7945 57.2004 80.8329 58.6427C80.6623 58.8909 81.0655 59.1235 81.2361 58.8754C82.3838 57.1693 81.6549 54.9825 79.7628 54.2226C79.4836 54.114 79.3595 54.5638 79.6387 54.6724Z" fill="#161616"/>
<path d="M54.064 22.1186C54.6068 21.1105 53.0869 21.219 52.5906 21.0639C51.9392 20.8468 51.2103 20.273 50.745 19.7767C50.0471 19.0322 49.9851 17.4968 51.443 17.776C54.3432 18.3498 57.4295 21.0019 56.9797 24.1813C56.9332 24.476 57.383 24.6 57.4295 24.3054C57.9258 20.7383 54.6379 18.0086 51.4274 17.2952C50.2487 17.0315 49.4888 18.1482 49.8455 19.2339C50.0626 19.8852 50.6365 20.366 51.1638 20.7538C51.4895 21.0019 51.8462 21.2501 52.2184 21.4207C52.389 21.4827 53.7073 21.7464 53.6298 21.8859C53.5212 22.1496 53.9244 22.3822 54.064 22.1186Z" fill="#161616"/>
<path d="M49.9385 17.4813C48.0929 17.0471 46.2938 16.4112 44.6033 15.5427C43.8278 15.1394 42.2304 14.4105 42.1994 15.9459C42.1839 17.1711 43.285 18.4119 44.2001 19.0943C45.5804 20.1334 47.3019 20.5211 48.9614 20.7693C49.2561 20.8158 49.3801 20.366 49.0855 20.3195C46.6815 19.9473 43.5332 19.1098 42.7577 16.4267C42.6957 16.2716 42.6647 16.1165 42.6647 15.9459C42.9593 15.4496 43.285 15.341 43.6883 15.5892C43.9674 15.7133 44.2156 15.8683 44.4947 16.0079C45.0065 16.2561 45.5184 16.5042 46.0457 16.7214C47.2709 17.2332 48.5271 17.6364 49.8144 17.9311C50.1091 18.0086 50.2332 17.5589 49.9385 17.4813Z" fill="#161616"/>
<path d="M45.4408 19.451C44.5723 19.6991 44.2156 20.7693 44.2466 21.5912C44.2931 22.6459 44.9755 23.5299 45.8596 24.0572C46.666 24.5535 47.8913 24.9412 48.7443 24.3054C49.3646 23.8401 49.5042 22.9561 48.9614 22.3822C48.7598 22.1651 48.4341 22.4908 48.6357 22.7079C49.0079 23.0956 48.8218 23.685 48.4341 23.9486C48.0929 24.1813 47.6276 24.1658 47.2399 24.1037C46.635 23.9952 46.0457 23.6695 45.5804 23.2662C45.1306 22.863 44.8204 22.3512 44.7429 21.7618C44.6498 21.126 44.836 20.1024 45.5649 19.8852C45.8596 19.8232 45.7355 19.3734 45.4408 19.451Z" fill="#161616"/>
<path d="M44.5259 22.5528C44.0141 23.8401 44.3553 25.422 45.4564 26.3215C45.9527 26.7248 46.6351 26.9729 47.271 26.8644C47.9069 26.7403 48.2791 26.2905 48.6513 25.7942C48.8219 25.5461 48.4187 25.3134 48.2481 25.5616C47.8448 26.1044 47.3796 26.5231 46.6661 26.3836C46.0768 26.275 45.5805 25.8873 45.2548 25.4065C44.712 24.6 44.6344 23.5919 44.9911 22.6924C45.0842 22.3977 44.6344 22.2736 44.5259 22.5528Z" fill="#161616"/>
<path d="M44.681 25.7012C44.7276 26.973 45.2239 28.4464 46.6507 28.7255C48.1706 29.0202 48.9926 27.4693 49.3803 26.2596C49.4734 25.9804 49.0236 25.8563 48.9306 26.1355C48.6204 27.0971 47.9845 28.5239 46.7127 28.2447C45.534 27.9966 45.1773 26.7403 45.1463 25.7012C45.1463 25.4065 44.681 25.391 44.681 25.7012Z" fill="#161616"/>
<path d="M48.7286 27.128C48.8837 27.8104 49.5816 28.0586 50.2175 28.1516C51.2256 28.3067 51.9701 27.7949 52.9471 27.6863C53.2418 27.6553 53.2418 27.1901 52.9471 27.2211C52.4664 27.2831 52.0476 27.4692 51.5668 27.5933C50.962 27.7639 49.38 27.9035 49.1784 27.0039C49.1164 26.7093 48.6666 26.8333 48.7286 27.128Z" fill="#161616"/>
<path d="M52.9628 27.5933C54.5137 28.1982 56.2662 27.6243 57.1968 26.2595C57.3674 26.0114 56.9641 25.7787 56.7935 26.0269C55.9716 27.2366 54.4206 27.6708 53.0868 27.1435C52.8077 27.035 52.6991 27.4847 52.9628 27.5933Z" fill="#161616"/>
<path d="M70.5193 55.1378C71.1241 55.7271 70.9845 57.2625 70.938 58.038C70.876 59.0461 70.5813 60.0076 69.8679 60.7521C69.6663 60.9692 69.992 61.2949 70.1936 61.0778C70.9845 60.2403 71.3258 59.1702 71.3878 58.038C71.4498 57.1074 71.5739 55.5255 70.845 54.7966C70.6278 54.5949 70.3021 54.9206 70.5193 55.1378Z" fill="#161616"/>
<path d="M75.1256 55.4324C76.0717 57.1849 76.0872 59.2632 75.1721 61.0312C75.0326 61.2949 75.4358 61.5275 75.5754 61.2639C76.568 59.3407 76.5525 57.1074 75.5289 55.1998C75.3893 54.9206 74.986 55.1687 75.1256 55.4324Z" fill="#161616"/>
<path d="M52.9628 37.0074C54.5137 37.5347 56.1577 37.3641 57.5845 36.5421C57.8482 36.387 57.6155 35.9838 57.3519 36.1389C56.0336 36.8988 54.5447 37.0384 53.0869 36.5576C52.8077 36.4646 52.6836 36.9143 52.9628 37.0074Z" fill="#161616"/>
<path d="M54.3894 46.0958C56.3591 46.5145 58.3598 45.7856 59.585 44.1881C59.7711 43.9555 59.3679 43.7229 59.1818 43.9555C58.0806 45.3668 56.2661 46.0337 54.5135 45.646C54.2188 45.584 54.0948 46.0337 54.3894 46.0958Z" fill="#161616"/>
<path d="M62.8732 50.547C62.9352 51.4155 62.6405 52.2064 62.0357 52.8268C61.8185 53.0439 62.1597 53.3696 62.3614 53.1525C63.0593 52.4546 63.4005 51.524 63.3384 50.5314C63.3229 50.2523 62.8576 50.2523 62.8732 50.547Z" fill="#161616"/>
<path d="M53.2264 41.474C53.9088 41.7842 54.6377 41.8463 55.3511 41.6291C55.6458 41.5516 55.5217 41.1018 55.2271 41.1794C54.6377 41.35 54.0328 41.3189 53.459 41.0708C53.1953 40.9467 52.9472 41.35 53.2264 41.474Z" fill="#161616"/>
<path d="M52.8698 30.5711C54.2036 30.8968 55.5064 30.7572 56.7626 30.1989C57.0418 30.0748 56.7936 29.6716 56.53 29.7956C55.3978 30.3074 54.2036 30.4005 52.9939 30.1213C52.6992 30.0438 52.5751 30.4936 52.8698 30.5711Z" fill="#161616"/>
<path d="M57.0882 51.9894C59.306 52.5012 61.4308 51.338 62.1907 49.1977C62.2838 48.9185 61.8495 48.7945 61.7409 49.0736C61.074 50.9657 59.1664 51.9894 57.2122 51.5396C56.9176 51.462 56.7935 51.9118 57.0882 51.9894Z" fill="#161616"/>
<path d="M66.5642 53.5558C67.2311 55.5254 65.1994 57.5106 63.664 58.3481C63.4003 58.4877 63.6329 58.8909 63.8966 58.7514C65.6181 57.8208 67.7584 55.603 67.0139 53.4472C66.9209 53.1525 66.4711 53.2766 66.5642 53.5558Z" fill="#161616"/>
<path opacity="0.13" d="M46.2783 20.3194C46.8366 20.8933 46.1697 21.8549 46.6505 22.4752C46.9141 22.8009 47.5035 23.0491 48.9459 22.7699C48.9459 23.018 48.9614 23.3903 49.1009 23.809C49.1009 23.809 49.4111 24.8016 50.2796 25.4375C51.2877 26.1819 52.7921 26.1974 54.1414 25.515C54.2035 26.4456 54.312 27.7639 54.4361 29.3768C55.1651 38.5893 55.4442 40.2488 55.8475 41.8307C56.3127 43.6918 56.9021 46.0027 58.4375 48.5772C59.3991 50.1747 62.625 55.3858 69.2629 57.464C74.8928 59.2321 79.7317 57.7122 81.4222 57.0918C81.3291 57.7277 81.2205 58.3791 81.1275 59.0149C80.383 59.4647 79.3129 60.0386 77.9481 60.5038C77.7775 60.5659 74.7067 61.5585 71.2791 61.2483C64.8118 60.6589 60.3141 55.727 59.1974 54.5018C55.1651 50.0661 54.0174 45.2117 53.4901 43.0094C52.7146 39.706 52.6526 36.6662 52.606 34.4794C52.544 31.7032 52.7146 29.3613 52.9007 27.6553C52.6215 27.7949 51.9081 28.0896 50.9776 27.95C49.9229 27.7949 49.256 27.19 49.0544 26.9884C49.0079 27.1125 48.7597 27.8724 47.9378 28.2447C47.8912 28.2757 47.0072 28.6479 46.2317 28.2447C45.5338 27.8879 45.3477 27.1125 44.9755 25.5771C44.7429 24.6465 44.6963 23.9796 44.6033 22.9095C44.4172 20.5676 44.6653 20.2884 44.8204 20.1644C45.1926 19.8697 45.9216 19.9472 46.2783 20.3194Z" fill="#666666"/>
<path opacity="0.15" d="M55.9094 49.0736C56.3747 49.6164 57.0881 50.4074 57.9877 51.2914C59.5696 52.8579 63.1677 56.4405 67.1846 58.1155C72.7835 60.4419 78.5684 58.8289 81.1895 57.8984C81.0964 58.224 80.9878 58.5342 80.8948 58.8599C80.1193 59.2787 72.7679 63.0939 64.9668 59.3717C58.4529 56.2854 56.2816 50.1903 55.9094 49.0736Z" fill="#666666"/>
<path d="M91.008 39.9386C90.8529 40.8071 90.7909 41.5671 90.7754 42.1254C90.7599 42.4666 90.7133 43.7384 90.9615 45.4133C91.0701 46.1888 91.2252 46.8402 91.3492 47.321C91.9851 47.4916 92.9001 47.6622 94.0168 47.6001C95.4902 47.5226 96.6224 47.0728 97.3048 46.7471C97.2737 46.3284 97.2427 45.6615 97.1652 44.8395C96.9946 42.9939 96.855 42.3425 96.8395 41.1328C96.824 40.621 96.8395 39.8455 96.9325 38.8995C96.2812 38.7289 94.9939 38.4807 93.4585 38.8529C92.3263 39.1011 91.5043 39.5819 91.008 39.9386Z" fill="white"/>
<path d="M90.8065 39.768C90.2792 42.2184 90.6204 44.6844 91.0081 47.1349C91.0547 47.4295 91.5044 47.3055 91.4579 47.0108C91.0857 44.6534 90.7445 42.2495 91.2563 39.8921C91.3183 39.5974 90.8686 39.4733 90.8065 39.768Z" fill="#161616"/>
<path d="M91.1166 40.0937C91.8146 39.4733 92.8382 39.2562 93.7222 39.0701C94.7303 38.8685 95.7229 38.8375 96.731 39.0236C97.0256 39.0856 97.1497 38.6358 96.855 38.5738C95.7694 38.3567 94.6838 38.4032 93.5981 38.6203C92.6055 38.822 91.5509 39.0701 90.7754 39.768C90.5738 39.9696 90.8995 40.2953 91.1166 40.0937Z" fill="#161616"/>
<path d="M96.6844 38.8685C96.4983 41.474 96.6379 44.0796 97.0721 46.6541C97.1186 46.9488 97.5684 46.8247 97.5219 46.53C97.0876 43.9865 96.9635 41.4275 97.1497 38.8685C97.1652 38.5738 96.6999 38.5738 96.6844 38.8685Z" fill="#161616"/>
<path d="M91.1011 47.29C91.861 47.8948 93.1483 47.8173 94.0788 47.7863C95.242 47.7552 96.3742 47.5071 97.3823 46.9177C97.6459 46.7626 97.4133 46.3594 97.1496 46.5145C96.2811 47.0263 95.3351 47.2589 94.3425 47.321C93.5515 47.3675 92.0936 47.4761 91.4423 46.9643C91.1941 46.7782 90.8684 47.1038 91.1011 47.29Z" fill="#161616"/>
<path d="M91.0237 42.6528C91.5975 41.8463 92.5591 41.5827 93.4896 41.381C94.5288 41.1484 95.5989 40.9313 96.5605 41.5206C96.8241 41.6757 97.0568 41.2725 96.7931 41.1174C95.723 40.466 94.5288 40.6676 93.3656 40.9313C92.3109 41.1794 91.2873 41.5051 90.6204 42.4201C90.4498 42.6528 90.8531 42.8854 91.0237 42.6528Z" fill="#161616"/>
<path d="M91.1167 45.3048C92.6986 44.0175 94.7613 43.5057 96.7775 43.909C97.0722 43.971 97.1963 43.5212 96.9016 43.4592C94.7148 43.0249 92.528 43.5678 90.791 44.9791C90.5583 45.1652 90.884 45.4909 91.1167 45.3048Z" fill="#161616"/>
<path d="M93.7066 45.9407C94.2339 45.7081 94.7767 45.6305 95.366 45.6305C95.7693 45.6305 96.6688 45.584 96.948 45.9097C97.1496 46.1423 97.4753 45.8011 97.2737 45.584C96.917 45.1653 96.1105 45.2118 95.6142 45.1808C94.8698 45.1497 94.1718 45.2583 93.4739 45.553C93.1948 45.6616 93.4274 46.0493 93.7066 45.9407Z" fill="#161616"/>
<path d="M76.3983 38.2171C77.7166 38.9615 79.7793 39.9541 82.4314 40.497C85.2851 41.0863 87.5029 40.9002 89.9999 40.6831C90.9925 40.59 94.296 40.2643 98.7006 38.977C101.43 38.1706 105.09 36.8523 109.169 34.6034C109.479 33.068 109.759 31.3 109.883 29.3303C110.022 27.2056 109.976 25.2824 109.836 23.6229C108.968 22.6614 107.913 21.6222 106.657 20.5831C105.509 19.6215 104.392 18.8461 103.369 18.2102C94.3735 24.8792 85.3937 31.5481 76.3983 38.2171Z" fill="#161616"/>
<path d="M103.322 18.1947C103.539 18.9702 103.819 20.0713 104.036 21.4361C104.175 22.2891 104.61 25.391 104.082 29.4699C103.943 30.6176 103.679 32.1375 103.183 33.89C102.624 34.2312 101.849 34.681 100.903 35.1773C97.77 36.8058 95.1334 37.5812 94.2028 37.8449C93.5359 38.031 90.3565 38.8995 85.9674 39.0856C83.548 39.1787 80.198 39.1011 76.2587 38.2791C76.5378 33.5488 76.8325 28.834 77.1117 24.1037C77.9957 23.6695 79.2209 23.0956 80.7253 22.4908C81.6869 22.103 86.138 20.335 92.5278 19.2028C95.3815 18.691 99.0262 18.2412 103.322 18.1947Z" fill="white"/>
<path d="M76.9722 24.0882C76.6465 28.803 76.3208 33.5333 76.0106 38.2481C75.9951 38.5428 76.4604 38.5428 76.4759 38.2481C76.8016 33.5333 77.1273 28.803 77.4375 24.0882C77.453 23.778 76.9877 23.778 76.9722 24.0882Z" fill="#161616"/>
<path d="M77.453 24.1502C85.4713 20.459 94.234 18.5203 103.059 18.4738C103.353 18.4738 103.353 18.0085 103.059 18.0085C94.1409 18.0551 85.3162 20.0092 77.2204 23.747C76.9567 23.871 77.1893 24.2743 77.453 24.1502Z" fill="#161616"/>
<path d="M76.1812 38.3877C85.3937 40.6366 95.2265 39.1167 103.291 34.1227C103.539 33.9676 103.307 33.5644 103.059 33.7195C95.0869 38.6359 85.3937 40.1558 76.3053 37.938C76.0106 37.8604 75.8865 38.3102 76.1812 38.3877Z" fill="#161616"/>
<path d="M102.981 18.2723C104.439 23.4369 104.392 28.8961 102.857 34.0452C102.764 34.3399 103.214 34.4484 103.307 34.1693C104.873 28.9582 104.92 23.3903 103.431 18.1482C103.353 17.8536 102.904 17.9776 102.981 18.2723Z" fill="#161616"/>
<path d="M103.245 18.3343C105.68 19.9007 107.82 21.8394 109.619 24.1037C109.805 24.3364 110.131 24.0107 109.945 23.778C108.115 21.4827 105.943 19.5285 103.477 17.9466C103.229 17.7605 102.997 18.1637 103.245 18.3343Z" fill="#161616"/>
<path d="M109.526 23.9641C109.852 27.5777 109.65 31.1914 108.921 34.7585C108.859 35.0532 109.309 35.1773 109.371 34.8826C110.115 31.2845 110.317 27.6243 109.991 23.9796C109.96 23.6694 109.495 23.6694 109.526 23.9641Z" fill="#161616"/>
<path d="M76.2122 38.5273C77.4994 39.0547 78.7867 39.5665 80.074 40.0938C81.0355 40.4815 82.0281 40.6366 83.0362 40.7607C85.4091 41.0864 87.8286 41.1639 90.217 40.9468C94.2339 40.6056 98.2042 39.4579 101.973 38.0776C104.516 37.147 106.982 36.0304 109.355 34.7431C109.619 34.6035 109.386 34.2003 109.123 34.3399C105.338 36.3871 101.353 37.9225 97.2271 39.1012C92.8846 40.3419 88.4489 40.8847 83.9357 40.3884C82.8501 40.2644 81.6404 40.1868 80.6168 39.7991C79.1744 39.2563 77.7476 38.6359 76.3207 38.0621C76.0571 37.969 75.933 38.4188 76.2122 38.5273Z" fill="#161616"/>
<path d="M102.966 34.4949C105.044 34.8981 107.138 34.9757 109.247 34.7275C109.542 34.6965 109.542 34.2312 109.247 34.2622C107.184 34.5104 105.137 34.4328 103.09 34.0451C102.795 33.9986 102.671 34.4328 102.966 34.4949Z" fill="#161616"/>
<path d="M81.718 27.4692C81.3148 27.2831 81.3768 26.7092 81.3613 26.3525C81.3458 26.1664 81.3303 25.9803 81.3458 25.7787C81.3458 25.5616 81.3768 25.3754 81.4699 25.1738C81.5784 24.9257 81.749 24.8947 81.9507 25.0498C82.3074 25.1738 82.2608 25.2669 82.2608 25.6081C82.2608 25.8097 82.2453 25.9958 82.2298 26.1974C82.2143 26.3991 82.2143 26.6162 82.1988 26.8178C82.1988 26.8798 82.0282 27.95 81.7335 27.5157C81.5629 27.2676 81.1597 27.5002 81.3303 27.7484C81.7801 28.4153 82.4935 27.8879 82.6175 27.2831C82.7261 26.7403 82.7261 26.1044 82.7261 25.546C82.7261 25.1893 82.6641 24.7861 82.3539 24.569C81.656 24.0727 80.9736 24.8947 80.896 25.546C80.8185 26.2129 80.7409 27.5467 81.4854 27.8879C81.749 27.9965 81.9817 27.5933 81.718 27.4692Z" fill="#161616"/>
<path d="M81.5009 24.8637C81.2372 25.8252 81.2993 26.8023 81.6715 27.7329C81.7645 27.9655 82.1368 27.95 82.1213 27.6708C82.1057 26.7713 82.1523 25.8873 82.2608 25.0032C82.1057 25.0032 81.9507 25.0032 81.7956 25.0032C81.8421 25.3755 81.8731 25.7322 81.8731 26.1044C81.8731 26.2595 81.8886 26.4611 81.8576 26.6007C81.8421 26.7093 81.7025 27.097 81.7645 26.7248C81.8111 26.4301 81.3458 26.4301 81.2993 26.7248C81.2372 27.1745 81.6715 27.8569 82.1523 27.3917C82.3384 27.2056 82.3229 26.8488 82.3384 26.6007C82.3694 26.0579 82.3384 25.5306 82.2763 25.0032C82.2453 24.7086 81.8576 24.7086 81.8111 25.0032C81.687 25.8873 81.6405 26.7713 81.6715 27.6708C81.8266 27.6553 81.9817 27.6243 82.1213 27.6088C81.7801 26.7558 81.718 25.8873 81.9507 24.9877C82.0282 24.7086 81.5784 24.5845 81.5009 24.8637Z" fill="#161616"/>
<path d="M81.3303 25.2515C81.2062 25.5617 81.1907 25.8874 81.2373 26.213C81.2528 26.3371 81.4079 26.3992 81.5164 26.3681C81.656 26.3371 81.7025 26.213 81.6715 26.089C81.6405 25.8408 81.687 25.6082 81.7646 25.3755C81.8886 25.0964 81.4389 24.9723 81.3303 25.2515Z" fill="#161616"/>
<path d="M94.5908 25.1118C94.1875 24.9257 94.2496 24.3518 94.234 23.9951C94.2185 23.809 94.203 23.6384 94.2185 23.4523C94.2185 23.3437 94.2185 23.2352 94.2496 23.1421C94.2651 22.7854 94.5597 22.6768 95.1026 22.8319C95.2576 23.0646 95.1181 23.716 95.1026 23.9641C95.087 24.1347 95.087 24.3053 95.0715 24.4759C95.0715 24.5379 94.9009 25.6081 94.6063 25.1738C94.4357 24.9257 94.0324 25.1583 94.203 25.4065C94.6528 26.0734 95.3662 25.546 95.4903 24.9412C95.5989 24.4139 95.5833 23.809 95.5989 23.2817C95.5989 22.925 95.5678 22.5062 95.2732 22.2581C94.6063 21.6842 93.8773 22.4597 93.7688 23.1111C93.6602 23.778 93.5982 25.1738 94.3426 25.5305C94.6373 25.6391 94.8699 25.2514 94.5908 25.1118Z" fill="#161616"/>
<path d="M94.3891 22.5218C94.1254 23.4833 94.1874 24.4604 94.5597 25.391C94.6527 25.6236 95.0249 25.6081 95.0094 25.3289C94.9939 24.4294 95.0405 23.5454 95.149 22.6613C94.9939 22.6613 94.8388 22.6613 94.6837 22.6613C94.7303 23.0336 94.7613 23.3903 94.7613 23.7625C94.7613 23.9176 94.7768 24.1192 94.7458 24.2588C94.7303 24.3674 94.5907 24.7551 94.6527 24.3829C94.6993 24.0882 94.234 24.0882 94.1874 24.3829C94.1254 24.8326 94.5597 25.515 95.0405 25.0498C95.2266 24.8637 95.2111 24.5069 95.2266 24.2588C95.2576 23.716 95.2266 23.1887 95.1645 22.6613C95.1335 22.3667 94.7458 22.3667 94.6993 22.6613C94.5752 23.5454 94.5287 24.4294 94.5597 25.3289C94.7148 25.3134 94.8699 25.2824 95.0094 25.2669C94.6682 24.4139 94.6062 23.5454 94.8388 22.6458C94.9164 22.3512 94.4666 22.2271 94.3891 22.5218Z" fill="#161616"/>
<path d="M94.2184 22.894C94.0943 23.2042 94.0788 23.5299 94.1253 23.8556C94.1408 23.9797 94.2959 24.0417 94.4045 24.0107C94.5441 23.9797 94.5906 23.8556 94.5596 23.7315C94.5286 23.4834 94.5751 23.2508 94.6526 23.0181C94.7767 22.739 94.3269 22.6304 94.2184 22.894Z" fill="#161616"/>
<path d="M85.4714 29.9197C86.8362 30.1058 88.6507 29.9352 89.8605 29.2218C90.1241 29.0667 89.8915 28.6635 89.6278 28.8186C88.5267 29.4545 86.8362 29.6406 85.5954 29.47C85.3163 29.4389 85.1767 29.8887 85.4714 29.9197Z" fill="#161616"/>
<path d="M85.2541 29.9507C85.6729 30.8812 86.6965 32.184 87.8752 32.0289C89.0384 31.8893 89.7363 30.2454 89.9844 29.2683C90.062 28.9736 89.6122 28.8495 89.5346 29.1442C89.364 29.8421 88.8678 31.1449 88.1233 31.4551C87.0377 31.9048 86.0451 30.54 85.6729 29.7025C85.5333 29.4544 85.13 29.687 85.2541 29.9507Z" fill="#161616"/>
<path d="M85.6418 30.1369C86.836 30.6952 88.6196 30.4005 89.6277 29.594C89.5191 29.4855 89.4106 29.3769 89.302 29.2683C88.7126 29.7491 87.9837 30.0283 87.2082 30.0128C86.7895 30.0128 86.4483 29.7957 86.1071 30.0748C86.0451 30.1369 86.0295 30.2299 86.0451 30.3075C86.1226 30.7262 86.6964 30.9278 87.0532 30.9899C87.7976 31.1139 88.48 30.7572 89.0694 30.323C88.9763 30.1989 88.8832 30.0748 88.7902 29.9508C88.2629 30.5556 86.9136 30.8813 86.3397 30.1524C86.1691 29.9352 85.8589 30.2144 85.9675 30.4315C86.2932 31.0209 86.7895 31.6102 87.5339 31.5637C88.3094 31.5327 88.7902 30.8658 89.1779 30.2764C89.333 30.0438 89.0073 29.8422 88.8057 29.9973C88.449 30.2764 88.2008 30.323 87.8131 30.4626C87.565 30.5556 87.3789 30.5091 87.4719 30.8193C87.5495 31.0674 87.8131 31.145 88.0302 31.145C88.6971 31.1139 89.3795 30.1524 89.6742 29.6406C89.7983 29.4234 89.4881 29.1598 89.302 29.3614C88.7126 29.9973 88.3714 31.0209 87.4254 31.1605C87.1307 31.207 87.2548 31.6568 87.5495 31.6102C88.6196 31.4396 88.9763 30.385 89.6277 29.6871C89.5036 29.594 89.3795 29.501 89.2555 29.4079C89.0383 29.7646 88.6661 30.354 88.2474 30.5246C87.9217 30.6487 87.9682 30.5711 87.7201 30.3075C87.658 30.2299 87.6115 30.1369 87.5339 30.0903C87.2548 29.9197 86.9756 30.0748 86.8826 30.354C86.8515 30.4315 86.8826 30.5246 86.9446 30.5866C87.6115 31.3156 88.48 30.8193 89.1159 30.3385C88.9918 30.2454 88.8677 30.1524 88.7437 30.0593C88.4335 30.5246 88.1543 30.9744 87.565 31.0519C86.9601 31.145 86.6189 30.6952 86.3552 30.1989C86.2312 30.292 86.1071 30.385 85.983 30.4781C86.712 31.3931 88.387 31.0674 89.0849 30.2764C89.2555 30.0903 89.0228 29.7491 88.8057 29.9042C88.3094 30.2764 87.7045 30.6332 87.0687 30.4936C86.8515 30.4781 86.6499 30.3695 86.4793 30.2144C86.5258 30.354 86.6189 30.416 86.7275 30.4315C86.8981 30.5091 87.2082 30.4781 87.3944 30.4626C88.2163 30.416 88.9608 30.0903 89.5967 29.5785C89.8293 29.3924 89.5036 29.0667 89.271 29.2528C88.4645 29.8887 86.8205 30.1834 85.8434 29.7181C85.5953 29.6095 85.3627 30.0128 85.6418 30.1369Z" fill="#161616"/>
<path d="M87.3014 31.2534C87.6581 30.9898 87.9993 30.7106 88.294 30.3849C88.1699 30.2919 88.0458 30.1988 87.9218 30.1057C87.7822 30.3694 87.5806 30.6331 87.472 30.9122C87.4255 31.0518 87.41 31.2069 87.534 31.331C87.6426 31.4395 87.8132 31.4395 87.9528 31.3775C88.2164 31.2534 88.4491 31.0363 88.6817 30.8657C88.5732 30.7571 88.4646 30.6486 88.356 30.54C88.263 30.7726 87.9528 31.2224 88.2164 31.4395C88.5111 31.6877 88.7748 31.2534 88.9299 31.0673C89.116 30.8347 88.7903 30.509 88.6042 30.7416C88.5421 30.8037 88.4181 31.0363 88.325 31.0518C88.4026 31.0673 88.4801 31.0983 88.5576 31.1138C88.5421 31.0983 88.5266 31.0828 88.5266 31.0673C88.5421 31.1294 88.5732 31.1759 88.5887 31.2379C88.5887 31.0983 88.7127 30.9122 88.7593 30.7881C88.8368 30.602 88.6507 30.3229 88.4336 30.4625C88.3405 30.5245 87.8287 30.9743 87.7512 30.9432C87.7977 30.9743 87.8442 31.0208 87.8907 31.0518C87.8752 31.0363 87.8752 31.0053 87.8597 30.9898C87.8752 31.0518 87.8752 31.1138 87.8907 31.1759C87.9373 30.8967 88.1854 30.5865 88.325 30.3384C88.4491 30.1057 88.1389 29.8576 87.9528 30.0592C87.6736 30.3539 87.3789 30.6175 87.0533 30.8502C86.8206 31.0208 87.0533 31.424 87.3014 31.2534Z" fill="#161616"/>
<path d="M78.244 24.8792C77.8873 29.0512 77.6391 33.2387 77.484 37.4262C77.4685 37.7208 77.9338 37.7208 77.9493 37.4262C78.1044 33.2387 78.3525 29.0512 78.7093 24.8792C78.7403 24.5845 78.275 24.5845 78.244 24.8792Z" fill="#161616"/>
<path d="M102.097 19.9627C103.276 24.3673 102.531 28.9115 101.492 33.2541C101.415 33.5488 101.864 33.6729 101.942 33.3782C103.012 28.9581 103.757 24.3208 102.547 19.8386C102.469 19.5595 102.02 19.6835 102.097 19.9627Z" fill="#161616"/>
<path d="M103.632 34.0917C104.997 34.3398 106.378 34.588 107.742 34.8361C108.037 34.8827 108.161 34.4484 107.866 34.3864C106.502 34.1382 105.121 33.8901 103.757 33.6419C103.462 33.5954 103.338 34.0452 103.632 34.0917Z" fill="white"/>
<path d="M105.401 24.507C105.277 24.7086 105.137 25.0033 105.044 25.3445C104.904 25.9028 104.935 26.3836 104.966 26.6783C104.036 27.6243 101.632 29.8111 97.9252 30.3385C96.4518 30.5556 95.1646 30.447 94.203 30.2609C94.0944 30.6641 94.0169 31.1759 94.2805 31.3931C94.4511 31.5482 94.6993 31.4861 95.118 31.4706C95.8159 31.4396 96.1882 31.5792 96.5294 31.6102C97.4909 31.7188 100.034 31.269 102.795 29.7181C103.54 29.2993 104.563 28.6479 105.68 27.6709C105.757 27.7794 106.316 28.4463 107.153 28.4463C108.316 28.4308 108.859 27.1591 108.906 27.035C109.185 26.3526 109.2 25.4065 108.627 24.7086C108.099 24.0572 107.355 23.9487 107.153 23.9331C106.192 23.8401 105.509 24.3984 105.401 24.507Z" fill="white" stroke="black" stroke-width="2"/>
<path d="M106.238 24.8171C105.525 25.9338 105.959 27.5623 107.463 27.5312C107.618 27.5312 107.618 27.2986 107.463 27.2986C106.129 27.3296 105.835 25.8717 106.44 24.9257C106.533 24.8016 106.331 24.693 106.238 24.8171Z" fill="black"/>
<path d="M107.293 26.3216C107.091 26.1665 106.983 25.9028 107.045 25.6547C107.107 25.422 107.401 25.1894 107.65 25.3135C107.913 25.4375 108.006 25.8563 107.882 26.1044C107.774 26.3526 107.401 26.4612 107.215 26.213C107.122 26.0889 106.921 26.213 107.014 26.3371C107.231 26.6318 107.681 26.6628 107.96 26.3991C108.27 26.0889 108.239 25.5151 107.929 25.2049C107.634 24.9102 107.153 25.0343 106.936 25.36C106.688 25.7167 106.797 26.213 107.138 26.4767C107.246 26.5697 107.401 26.4146 107.293 26.3216Z" fill="black"/>
<path d="M97.4754 30.4159C97.7235 30.7261 97.7856 31.1449 97.615 31.5016C97.5529 31.6411 97.7545 31.7497 97.8166 31.6256C98.0182 31.1914 97.9717 30.6951 97.677 30.3074C97.5839 30.1833 97.3823 30.2918 97.4754 30.4159Z" fill="black"/>
<path d="M94.8387 30.447C94.9783 30.7107 94.9938 31.0209 94.8542 31.3001C94.7922 31.4396 94.9938 31.5482 95.0559 31.4241C95.2265 31.0674 95.211 30.6797 95.0404 30.3385C94.9628 30.1989 94.7612 30.3075 94.8387 30.447Z" fill="black"/>
<path d="M95.5213 30.6175C95.6919 30.7881 95.7074 31.0828 95.5524 31.2689C95.4593 31.3775 95.6299 31.5481 95.723 31.4395C95.9556 31.1449 95.9556 30.7261 95.6919 30.4624C95.5834 30.3384 95.4283 30.509 95.5213 30.6175Z" fill="black"/>
<path d="M96.281 30.6331C96.5447 30.8192 96.5292 31.2225 96.2965 31.4086C96.188 31.5016 96.3431 31.6722 96.4671 31.5792C96.8239 31.2845 96.7773 30.6952 96.4051 30.4315C96.281 30.354 96.1725 30.5556 96.281 30.6331Z" fill="black"/>
<path d="M100.003 20.1799C99.6777 20.0558 99.7863 19.6526 100.003 19.4975C100.221 19.3424 100.5 19.3889 100.639 19.6215C100.934 20.1333 100.236 20.5521 99.8793 20.1333C99.7398 19.9627 99.4916 20.2109 99.6312 20.3815C99.9259 20.7227 100.484 20.7537 100.825 20.459C101.167 20.1489 101.136 19.5905 100.825 19.2803C100.5 18.9391 99.9569 19.0167 99.6467 19.3579C99.321 19.7456 99.4296 20.3505 99.9104 20.5211C100.127 20.5831 100.205 20.2574 100.003 20.1799Z" fill="black"/>
<path opacity="0.16" d="M100.624 18.2567C100.732 20.1799 100.934 22.2581 101.291 24.4914C101.523 25.9803 101.802 27.4072 102.113 28.7254C101.771 28.9426 101.415 29.1597 101.042 29.3768C99.2123 30.4159 97.4443 31.0828 95.8468 31.5171C96.6688 31.5481 97.6924 31.5016 98.8711 31.2845C100.282 31.0208 101.43 30.571 102.268 30.1678C101.027 31.5326 99.3829 33.1145 97.2737 34.6189C94.2494 36.7902 91.3337 38.0465 89.1313 38.8064C90.8219 39.3958 92.5124 39.9851 94.1874 40.5745C94.3114 42.8698 94.4355 45.1652 94.5596 47.4761C95.4126 47.259 96.2656 47.0418 97.1341 46.8092C97.01 45.3668 96.9015 43.8779 96.8394 42.327C96.8084 41.4585 96.7774 40.6055 96.7619 39.7525C98.2353 39.3493 99.445 38.9615 100.36 38.6513C103.741 37.5037 106.145 36.3405 106.812 36.0148C107.929 35.4719 108.828 34.9757 109.448 34.6189C109.619 33.5488 109.774 32.4321 109.883 31.2379C110.146 28.4773 110.162 25.9493 110.022 23.6849C109.293 22.7854 108.347 21.7773 107.169 20.7537C105.912 19.6681 104.687 18.8616 103.648 18.2567C102.624 18.2567 101.616 18.2567 100.624 18.2567Z" fill="#666666"/>
<path opacity="0.3" d="M43.2709 76.9902C43.3949 82.7131 43.5035 88.436 43.6276 94.1589C49.8313 95.896 57.0896 97.4779 65.2629 98.455C76.8949 99.8353 87.162 99.6027 95.4749 98.8117C95.7076 92.9647 95.9557 87.1333 96.1883 81.2863C89.0541 81.0071 81.7182 80.5884 74.1963 80.03C63.4794 79.2236 53.1658 78.2 43.2709 76.9902Z" fill="#EC615B"/>
<g opacity="0.3">
<path d="M45.2095 79.7199C53.9102 81.612 62.7659 82.6977 71.6682 82.9613C71.9629 82.9768 71.9629 82.5116 71.6682 82.4961C62.8125 82.2324 53.9877 81.1623 45.3336 79.2701C45.0389 79.2081 44.9148 79.6579 45.2095 79.7199Z" fill="#EC615B"/>
</g>
<g opacity="0.3">
<path d="M45.5992 82.8991C49.585 84.0933 53.664 84.8843 57.8049 85.2876C58.0996 85.3186 58.0996 84.8533 57.8049 84.8223C53.7105 84.419 49.6626 83.6281 45.7232 82.4494C45.4286 82.3563 45.3045 82.8061 45.5992 82.8991Z" fill="#EC615B"/>
</g>
<g opacity="0.3">
<path d="M57.6151 95.1983C68.5026 96.8577 79.5607 98.5017 90.5877 97.2455C90.8824 97.2145 90.8824 96.7492 90.5877 96.7802C79.5917 98.0364 68.5957 96.408 57.7392 94.7485C57.4445 94.702 57.3205 95.1517 57.6151 95.1983Z" fill="#EC615B"/>
</g>
<g opacity="0.3">
<path d="M74.5679 94.4226C80.1512 95.4307 85.8276 95.6789 91.473 95.136C91.7676 95.105 91.7676 94.6397 91.473 94.6708C85.8741 95.1981 80.2288 94.9654 74.692 93.9728C74.3973 93.9263 74.2732 94.3606 74.5679 94.4226Z" fill="#EC615B"/>
</g>
<g opacity="0.3">
<path d="M85.7496 83.3954C86.0133 85.5047 85.8737 87.6139 85.3464 89.6767C85.2999 89.8317 85.4239 89.9558 85.5635 89.9713C86.8973 90.0799 88.2156 90.1885 89.5494 90.297C90.1232 90.3436 91.4105 90.7468 91.7672 90.1109C91.9533 89.7852 91.9068 89.2269 91.9378 88.8702C91.9688 88.3118 91.9843 87.7535 92.0153 87.1952C92.0774 85.9234 92.1859 84.6672 92.5892 83.442C92.6357 83.3024 92.5116 83.1318 92.3721 83.1473C90.3559 83.3024 88.3552 83.2093 86.37 82.8681C86.1839 82.8371 86.0598 82.9767 86.0908 83.1473C86.1218 83.3334 86.1218 83.3334 86.2304 83.4885C86.401 83.7366 86.8042 83.504 86.6336 83.2558C86.6026 83.1783 86.5716 83.1007 86.5406 83.0232C86.4475 83.1163 86.3545 83.2093 86.2614 83.3024C88.2931 83.6591 90.3248 83.7521 92.3876 83.597C92.31 83.504 92.2325 83.3954 92.1704 83.3024C91.5501 85.148 91.6121 87.0711 91.488 88.9787C91.4725 89.1493 91.488 89.6611 91.4105 89.7697C91.2399 90.0024 90.8522 89.9093 90.635 89.8938C90.0767 89.8473 89.5184 89.8007 88.9445 89.7542C87.8279 89.6611 86.6957 89.5681 85.579 89.475C85.6566 89.5681 85.7341 89.6767 85.7961 89.7697C86.339 87.676 86.4941 85.5202 86.2149 83.3644C86.1839 83.1007 85.7186 83.1007 85.7496 83.3954Z" fill="#EC615B"/>
</g>
<path opacity="0.38" d="M19.3556 12.3478C19.4952 20.0404 19.6348 27.7484 19.7743 35.441C30.4447 36.7903 41.0995 38.1241 51.7699 39.4734C52.049 30.2144 52.3282 20.9709 52.6229 11.7119C41.5338 11.929 30.4447 12.1462 19.3556 12.3478Z" fill="#2291D0"/>
<path d="M47.2102 36.9764C47.3653 36.6818 47.7221 36.2165 47.7686 35.8753C47.7996 35.6271 47.567 35.379 47.4429 35.1774C46.9311 34.3244 46.4193 33.4558 45.923 32.6028C45.6748 32.1841 45.3647 31.7498 45.163 31.3156C44.9149 30.7883 45.1475 30.6177 45.4112 30.1679C45.8299 29.4545 46.1866 28.71 46.4813 27.9501C47.5359 25.1584 47.7065 21.948 46.4503 19.1874C44.4031 14.6742 39.4556 13.6506 34.9735 13.5575C30.3362 13.449 25.6524 15.186 22.8918 19.0633C19.6969 23.5455 21.6045 29.8267 25.9316 32.8045C30.4448 35.9218 36.757 35.7822 41.4718 33.2542C41.7355 33.1146 41.5029 32.7114 41.2392 32.851C37.4239 34.8982 32.9728 35.2239 28.8939 33.7815C24.6754 32.2927 21.4339 28.1207 21.7441 23.5144C22.1008 18.3344 27.1878 14.9999 31.8871 14.2244C33.314 13.9918 34.7408 13.9918 36.1832 14.0693C38.1529 14.1779 40.138 14.4571 41.9371 15.2945C44.4806 16.4732 46.2022 18.7531 46.714 21.5137C47.3188 24.7707 46.2952 28.1207 44.4806 30.8038C44.4341 30.8658 44.4341 30.9744 44.4806 31.0364C45.039 31.9825 45.5973 32.9285 46.1556 33.8746C46.4038 34.3089 46.6674 34.7276 46.9156 35.1619C47.0707 35.4255 47.2723 35.6426 47.2413 35.9683C47.2258 36.201 46.9466 36.5422 46.838 36.7593C46.6674 37.0075 47.0707 37.2556 47.2102 36.9764Z" fill="#2291D0"/>
<path d="M41.3168 33.4714C43.0229 34.8827 44.8995 35.9994 46.9622 36.8214C47.2414 36.93 47.3654 36.4802 47.0863 36.3716C45.1166 35.5807 43.2865 34.495 41.6425 33.1457C41.4099 32.9441 41.0842 33.2698 41.3168 33.4714Z" fill="#2291D0"/>
<ellipse cx="27.467" cy="23.9953" rx="1.11666" ry="1.62847" fill="#2291D0" stroke="#2291D0"/>
<ellipse cx="33.857" cy="23.7936" rx="1.11666" ry="1.62847" fill="#2291D0" stroke="#2291D0"/>
<ellipse cx="40.0761" cy="23.6075" rx="1.11666" ry="1.62847" fill="#2291D0" stroke="#2291D0"/>
</svg>
