<svg width="12" height="13" viewBox="0 0 12 13" fill="none" xmlns="http://www.w3.org/2000/svg">
<path d="M11 6.5C11 9.26142 8.76142 11.5 6 11.5C3.23858 11.5 1 9.26142 1 6.5C1 3.73858 3.23858 1.5 6 1.5C8.76142 1.5 11 3.73858 11 6.5Z" fill="#1C274C"/>
<path fill-rule="evenodd" clip-rule="evenodd" d="M6 4.125C6.20711 4.125 6.375 4.29289 6.375 4.5V6.34467L7.51517 7.48483C7.66161 7.63128 7.66161 7.86872 7.51517 8.01517C7.36872 8.16161 7.13128 8.16161 6.98483 8.01517L5.73484 6.76517C5.66451 6.69484 5.625 6.59946 5.625 6.5V4.5C5.625 4.29289 5.79289 4.125 6 4.125Z" fill="white"/>
</svg>
