<svg width="22" height="22" viewBox="0 0 22 22" fill="none" xmlns="http://www.w3.org/2000/svg">
<path fill-rule="evenodd" clip-rule="evenodd" d="M6.75 1.5C6.75 1.08579 6.41421 0.75 6 0.75C5.58579 0.75 5.25 1.08579 5.25 1.5V2.32709C4.99006 2.34691 4.7439 2.37182 4.51098 2.40313C3.33856 2.56076 2.38961 2.89288 1.64124 3.64124C0.89288 4.38961 0.560763 5.33856 0.403135 6.51098C0.35276 6.88566 0.318954 7.29458 0.296269 7.74006C0.266345 7.82105 0.250001 7.90862 0.250001 8C0.250001 8.06932 0.259406 8.13645 0.277009 8.20017C0.249984 9.00214 0.249991 9.91275 0.25 10.9436V13.0564C0.249984 14.8942 0.249972 16.3498 0.403135 17.489C0.560763 18.6614 0.89288 19.6104 1.64124 20.3588C2.38961 21.1071 3.33856 21.4392 4.51098 21.5969C5.65019 21.75 7.10583 21.75 8.94359 21.75H13.0564C14.8942 21.75 16.3498 21.75 17.489 21.5969C18.6614 21.4392 19.6104 21.1071 20.3588 20.3588C21.1071 19.6104 21.4392 18.6614 21.5969 17.489C21.75 16.3498 21.75 14.8942 21.75 13.0564V10.9436C21.75 9.91275 21.75 9.00214 21.723 8.20016C21.7406 8.13644 21.75 8.06932 21.75 8C21.75 7.90861 21.7337 7.82106 21.7037 7.74007C21.681 7.29459 21.6472 6.88567 21.5969 6.51098C21.4392 5.33855 21.1071 4.38961 20.3588 3.64124C19.6104 2.89288 18.6614 2.56076 17.489 2.40313C17.2561 2.37182 17.0099 2.34691 16.75 2.32709V1.5C16.75 1.08579 16.4142 0.75 16 0.75C15.5858 0.75 15.25 1.08579 15.25 1.5V2.26272C14.588 2.24999 13.8586 2.24999 13.0564 2.25H8.94358C8.1414 2.24999 7.41203 2.24999 6.75 2.26272V1.5ZM1.76309 8.75C1.75032 9.40273 1.75 10.146 1.75 11V13C1.75 14.9068 1.75159 16.2615 1.88976 17.2892C2.02502 18.2952 2.27869 18.8749 2.7019 19.2981C3.12511 19.7213 3.70476 19.975 4.71085 20.1102C5.73851 20.2484 7.09318 20.25 9 20.25H13C14.9068 20.25 16.2615 20.2484 17.2892 20.1102C18.2952 19.975 18.8749 19.7213 19.2981 19.2981C19.7213 18.8749 19.975 18.2952 20.1102 17.2892C20.2484 16.2615 20.25 14.9068 20.25 13V11C20.25 10.146 20.2497 9.40273 20.2369 8.75H1.76309ZM1.83168 7.25H20.1683C20.1523 7.06061 20.1331 6.88123 20.1102 6.71085C19.975 5.70476 19.7213 5.12511 19.2981 4.7019C18.8749 4.27869 18.2952 4.02502 17.2892 3.88976C16.2615 3.75159 14.9068 3.75 13 3.75H9C7.09318 3.75 5.73851 3.75159 4.71085 3.88976C3.70476 4.02502 3.12511 4.27869 2.7019 4.7019C2.27869 5.12511 2.02502 5.70476 1.88976 6.71085C1.86685 6.88123 1.8477 7.06061 1.83168 7.25Z" fill="#1E2C47"/>
<path fill-rule="evenodd" clip-rule="evenodd" d="M15.5 13.25C14.2574 13.25 13.25 14.2574 13.25 15.5C13.25 16.7426 14.2574 17.75 15.5 17.75C16.7426 17.75 17.75 16.7426 17.75 15.5C17.75 14.2574 16.7426 13.25 15.5 13.25ZM15.5 14.75C15.0858 14.75 14.75 15.0858 14.75 15.5C14.75 15.9142 15.0858 16.25 15.5 16.25C15.9142 16.25 16.25 15.9142 16.25 15.5C16.25 15.0858 15.9142 14.75 15.5 14.75Z" fill="#1E2C47"/>
</svg>
