<svg width="375" height="260" viewBox="0 0 375 260" fill="none" xmlns="http://www.w3.org/2000/svg">
<path fill-rule="evenodd" clip-rule="evenodd" d="M374.691 1.15163C374.894 1.50177 375 1.89895 375 2.30326V257C375 258.657 373.657 260 372 260H3C1.34315 260 0 258.657 0 257V18.0784C0 17.5518 0.138619 17.0345 0.401924 16.5784L9.10744 1.5C9.64334 0.571797 10.6337 0 11.7055 0H12.2945C13.3663 0 14.3567 0.571795 14.8926 1.5L24.4019 17.9707C25.5566 19.9707 28.4434 19.9707 29.5981 17.9707L39.1074 1.5C39.6433 0.571797 40.6337 0 41.7055 0H42.2945C43.3663 0 44.3567 0.571795 44.8926 1.5L54.4019 17.9707C55.5566 19.9707 58.4434 19.9707 59.5981 17.9707L69.1074 1.5C69.6433 0.571797 70.6337 0 71.7055 0H72.2945C73.3663 0 74.3567 0.571795 74.8926 1.5L84.4019 17.9707C85.5566 19.9707 88.4434 19.9707 89.5981 17.9707L99.1074 1.5C99.6433 0.571797 100.634 0 101.706 0H102.294C103.366 0 104.357 0.571795 104.893 1.5L114.402 17.9707C115.557 19.9707 118.443 19.9707 119.598 17.9707L129.107 1.5C129.643 0.571797 130.634 0 131.706 0H132.294C133.366 0 134.357 0.571795 134.893 1.5L144.402 17.9707C145.557 19.9707 148.443 19.9707 149.598 17.9707L159.107 1.5C159.643 0.571797 160.634 0 161.706 0H162.294C163.366 0 164.357 0.571795 164.893 1.5L174.402 17.9707C175.557 19.9707 178.443 19.9707 179.598 17.9707L189.107 1.5C189.643 0.571797 190.634 0 191.706 0H192.294C193.366 0 194.357 0.571795 194.893 1.5L204.402 17.9707C205.557 19.9707 208.443 19.9707 209.598 17.9707L219.107 1.5C219.643 0.571797 220.634 0 221.706 0H222.294C223.366 0 224.357 0.571795 224.893 1.5L234.402 17.9707C235.557 19.9707 238.443 19.9707 239.598 17.9707L249.107 1.5C249.643 0.571797 250.634 0 251.706 0H252.294C253.366 0 254.357 0.571795 254.893 1.5L264.402 17.9707C265.557 19.9707 268.443 19.9707 269.598 17.9707L279.107 1.5C279.643 0.571796 280.634 0 281.706 0H282.294C283.366 0 284.357 0.571796 284.893 1.5L294.402 17.9707C295.557 19.9707 298.443 19.9707 299.598 17.9707L309.107 1.5C309.643 0.571796 310.634 0 311.706 0H312.294C313.366 0 314.357 0.571796 314.893 1.5L324.402 17.9707C325.557 19.9707 328.443 19.9707 329.598 17.9707L339.107 1.5C339.643 0.571796 340.634 0 341.706 0H342.294C343.366 0 344.357 0.571796 344.893 1.5L354.402 17.9707C355.557 19.9707 358.443 19.9707 359.598 17.9707L369.107 1.5C369.643 0.571796 370.634 0 371.706 0H372.697C373.52 0 374.28 0.438996 374.691 1.15163Z" fill="#EEFFFE"/>
</svg>
