<svg width="16" height="16" viewBox="0 0 16 16" fill="none" xmlns="http://www.w3.org/2000/svg">
<path d="M9.62254 2.80408L10.2598 2.16685C11.3156 1.11105 13.0274 1.11105 14.0832 2.16685C15.1389 3.22264 15.1389 4.93443 14.0832 5.99023L13.4459 6.62745M9.62254 2.80408C9.62254 2.80408 9.7022 4.15819 10.897 5.353C12.0918 6.5478 13.4459 6.62745 13.4459 6.62745M9.62254 2.80408L3.76419 8.66243C3.36739 9.05923 3.16899 9.25763 2.99837 9.47639C2.79709 9.73444 2.62453 10.0136 2.48373 10.3091C2.36438 10.5595 2.27565 10.8257 2.0982 11.3581L1.34624 13.6139M13.4459 6.62745L7.58757 12.4858C7.19077 12.8826 6.99237 13.081 6.77361 13.2516C6.51556 13.4529 6.23635 13.6255 5.94092 13.7663C5.69048 13.8856 5.4243 13.9743 4.89194 14.1518L2.63607 14.9038M2.63607 14.9038L2.08464 15.0876C1.82266 15.1749 1.53383 15.1067 1.33856 14.9114C1.14329 14.7162 1.07511 14.4273 1.16243 14.1654L1.34624 13.6139M2.63607 14.9038L1.34624 13.6139" stroke="#34C759" stroke-width="1.375"/>
</svg>
