<svg width="14" height="12" viewBox="0 0 14 12" fill="none" xmlns="http://www.w3.org/2000/svg">
<path d="M8.47829 0.3331C7.53096 -0.111033 6.46931 -0.111033 5.52197 0.3331L1.06123 2.4244C0.343898 2.7607 0.156874 3.70901 0.500163 4.36444L0.500163 7.66667C0.500163 7.94281 0.72402 8.16667 1.00016 8.16667C1.27631 8.16667 1.50016 7.94281 1.50016 7.66667V5.11469L5.52203 7.00023C6.46937 7.44437 7.53101 7.44437 8.47835 7.00023L12.9391 4.90894C13.9094 4.45403 13.9094 2.87933 12.9391 2.42443L8.47829 0.3331Z" fill="#1E2C47"/>
<path d="M2.3335 6.60982V9.08362C2.3335 9.75563 2.66916 10.3848 3.25705 10.7104C4.23596 11.2525 5.80283 12 7.00016 12C8.1975 12 9.76436 11.2525 10.7433 10.7104C11.3312 10.3848 11.6668 9.75563 11.6668 9.08362V6.60985L8.90284 7.90567C7.68656 8.47589 6.31383 8.47589 5.09755 7.90567L2.3335 6.60982Z" fill="#1E2C47"/>
</svg>
