<svg width="26" height="24" viewBox="0 0 26 24" fill="none" xmlns="http://www.w3.org/2000/svg">
<path d="M2.54346 14C2.54346 10.2288 2.54346 8.34315 3.7575 7.17157C4.97155 6 6.92553 6 10.8335 6H14.9785C18.8865 6 20.8404 6 22.0545 7.17157C23.2685 8.34315 23.2685 10.2288 23.2685 14C23.2685 17.7712 23.2685 19.6569 22.0545 20.8284C20.8404 22 18.8865 22 14.9785 22H10.8335C6.92553 22 4.97155 22 3.7575 20.8284C2.54346 19.6569 2.54346 17.7712 2.54346 14Z" stroke="#079893" stroke-width="1.5"/>
<path d="M17.0513 6C17.0513 4.11438 17.0513 3.17157 16.4442 2.58579C15.8372 2 14.8602 2 12.9062 2C10.9523 2 9.97528 2 9.36825 2.58579C8.76123 3.17157 8.76123 4.11438 8.76123 6" stroke="#079893" stroke-width="1.5"/>
<path d="M10.3154 13H16.0148" stroke="#079893" stroke-width="1.5" stroke-linecap="round"/>
</svg>
