<svg width="17" height="15" viewBox="0 0 17 15" fill="none" xmlns="http://www.w3.org/2000/svg">
<path d="M15.4677 0.790359H1.5323C1.16345 0.790359 0.822714 0.98711 0.638383 1.30662C0.453872 1.62596 0.453872 2.01948 0.638383 2.33878C0.822714 2.65812 1.1635 2.85486 1.5323 2.85486H15.4677C15.8365 2.85486 16.1773 2.65812 16.3616 2.33878C16.5461 2.01945 16.5461 1.62593 16.3616 1.30662C16.1773 0.987105 15.8365 0.790359 15.4677 0.790359Z" fill="white"/>
<path d="M13.9194 7.5C13.9194 7.2262 13.8105 6.96373 13.617 6.77005C13.4234 6.57654 13.1608 6.46781 12.887 6.46781H4.11286C3.74402 6.46781 3.40328 6.66456 3.21895 6.98389C3.03444 7.30323 3.03444 7.69674 3.21895 8.01605C3.40328 8.33539 3.74406 8.53213 4.11286 8.53213H12.887C13.1608 8.53213 13.4235 8.4234 13.617 8.22989C13.8105 8.0362 13.9194 7.77375 13.9194 7.49994V7.5Z" fill="white"/>
<path d="M6.69343 12.1451C6.32459 12.1451 5.98385 12.3419 5.79952 12.6612C5.61501 12.9806 5.61501 13.3741 5.79952 13.6934C5.98385 14.0129 6.32463 14.2096 6.69343 14.2096H10.3062C10.6751 14.2096 11.0158 14.0129 11.2001 13.6934C11.3846 13.374 11.3846 12.9805 11.2001 12.6612C11.0158 12.3419 10.675 12.1451 10.3062 12.1451H6.69343Z" fill="white"/>
</svg>
