<svg width="182" height="138" viewBox="0 0 182 138" fill="none" xmlns="http://www.w3.org/2000/svg">
<path d="M5.78275 37.7091C8.33125 35.6331 11.7818 35.3325 14.9316 35.9052C18.2962 36.5065 21.3601 38.1244 24.467 39.4845C27.6741 40.9019 30.9385 41.9185 34.4605 42.0903C37.9683 42.2764 41.4761 41.7753 44.8836 40.9162C51.9994 39.1266 58.5281 35.6904 65.3575 33.0989C68.7794 31.7961 72.3158 30.665 75.9524 30.1495C77.9282 29.8632 79.9184 29.7916 81.9085 30.0064C83.7984 30.2068 85.6453 30.6507 87.4923 31.1088C91.5727 32.1254 95.6389 33.013 99.8196 33.5141C104.129 34.0296 108.482 34.2014 112.82 34.0582C113.092 34.0439 113.092 33.6144 112.82 33.6287C104.945 33.915 97.0706 33.0703 89.4251 31.1661C85.7742 30.2498 82.1519 29.3048 78.3578 29.4909C74.6782 29.6771 71.0416 30.6507 67.5767 31.839C60.6328 34.23 54.104 37.7378 47.0599 39.8711C43.4805 40.9449 39.7723 41.6894 36.0211 41.7037C32.2127 41.718 28.6334 40.8303 25.1542 39.3127C21.718 37.8237 18.3534 35.9767 14.6166 35.404C11.4381 34.9173 8.0449 35.3038 5.48209 37.3942C5.26732 37.5803 5.56799 37.8953 5.78275 37.7091Z" fill="#E8E8E8"/>
<path d="M82.8957 24.6231C92.8177 28.904 104.085 28.1881 114.237 25.0812C119.734 23.3918 125.204 21.1296 131.06 21.1439C136.958 21.1582 142.556 23.2199 148.326 24.1363C153.566 24.9667 159.336 24.8665 163.832 21.7166C164.061 21.5591 163.846 21.1869 163.617 21.3444C159.465 24.2508 154.196 24.5085 149.329 23.8499C143.816 23.1054 138.519 21.1869 132.949 20.786C127.38 20.3851 122.125 22.0602 116.9 23.7783C111.688 25.4821 106.419 26.8136 100.936 27.1286C94.8651 27.4865 88.7229 26.6704 83.1248 24.2508C82.8671 24.1363 82.6523 24.5085 82.8957 24.6231Z" fill="#E8E8E8"/>
<path d="M0.312697 60.3164C3.44821 58.0829 7.15642 56.7084 10.9935 56.3362C12.912 56.1501 14.8449 56.2216 16.7348 56.5509C18.6963 56.8946 20.5862 57.5532 22.4617 58.2118C25.9409 59.4144 29.3914 60.3307 33.0566 59.486C36.2208 58.7558 39.0843 57.1093 41.8905 55.5487C45.1978 53.7018 48.634 51.8119 52.4711 51.4683C52.7431 51.4396 52.7431 51.0101 52.4711 51.0387C45.6273 51.6544 40.4874 56.7943 34.1018 58.7558C32.4839 59.2569 30.7945 59.5147 29.105 59.4144C27.029 59.2856 25.0102 58.6413 23.0631 57.9684C21.1016 57.2955 19.1401 56.5653 17.0784 56.1787C15.303 55.8494 13.4847 55.7492 11.695 55.8637C7.54299 56.1214 3.49116 57.5388 0.097936 59.9585C-0.131143 60.1017 0.0836186 60.4739 0.312697 60.3164Z" fill="#E8E8E8"/>
<path d="M38.2674 65.8142C43.8369 59.9298 52.0265 57.5244 59.944 57.4528C64.5399 57.4099 69.1215 58.0685 73.6028 59.0278C77.8694 59.9298 82.0072 61.1038 86.4169 60.5168C91.0271 59.9011 95.3367 57.9253 99.4601 55.8493C99.7035 55.7204 99.4887 55.3482 99.2453 55.477C95.3224 57.4528 91.2419 59.3284 86.8751 60.0157C84.6416 60.3593 82.3937 60.3306 80.1602 59.9727C77.8981 59.6148 75.6932 59.0134 73.4453 58.541C65.2558 56.8229 56.5365 56.0927 48.4901 58.8846C44.5241 60.2591 40.8589 62.4496 37.9668 65.4992C37.7806 65.714 38.0813 66.0147 38.2674 65.8142Z" fill="#E8E8E8"/>
<path d="M104.629 70.0952C106.963 70.9113 109.354 70.1525 111.488 69.1359C113.879 67.9905 116.126 66.5731 118.575 65.5566C121.023 64.54 123.657 63.8528 126.32 64.1821C128.754 64.4828 131.002 65.5709 133.135 66.7306C135.154 67.833 137.144 69.0357 139.292 69.8804C141.683 70.8111 144.26 71.2549 146.823 71.1976C152.077 71.0831 156.544 68.463 161.341 66.6876C165.822 65.0268 171.793 64.2823 175.386 68.1767C175.572 68.3771 175.873 68.0764 175.687 67.876C172.866 64.8264 168.371 64.4828 164.505 65.2989C159.465 66.3583 155.113 69.4366 150.044 70.4245C147.338 70.9542 144.504 70.8827 141.826 70.2384C139.335 69.637 137.101 68.463 134.868 67.2174C132.849 66.0863 130.802 64.9123 128.583 64.2394C126.277 63.5378 123.872 63.5235 121.538 64.0962C118.689 64.7977 116.069 66.1865 113.506 67.5896C110.858 69.0214 107.794 70.7681 104.715 69.6943C104.486 69.5941 104.372 70.0093 104.629 70.0952Z" fill="#E8E8E8"/>
<path d="M142.327 76.9962C148.255 77.3541 153.137 73.3309 158.735 72.1139C160.224 71.7846 161.799 71.6415 163.317 71.8992C164.677 72.1283 165.908 72.6866 167.082 73.4025C169.101 74.6338 171.062 76.223 173.525 76.3948C176.517 76.5953 179.166 74.734 181.4 72.9873C181.614 72.8155 181.314 72.5148 181.099 72.6866C178.923 74.3761 176.317 76.223 173.396 75.951C170.862 75.7219 168.857 73.8893 166.724 72.701C161.813 69.952 156.559 72.1139 151.848 74.19C148.827 75.5072 145.692 76.7814 142.342 76.581C142.055 76.5523 142.055 76.9819 142.327 76.9962Z" fill="#E8E8E8"/>
<path d="M7.18537 104.371C9.2614 102.395 12.3396 101.622 15.1029 102.381C17.995 103.168 19.8563 105.66 22.1757 107.378C26.8002 110.8 33.0999 110.255 38.1826 108.237C44.1816 105.86 49.1784 101.565 55.1631 99.1452C58.0838 97.9568 61.248 97.198 64.4264 97.4128C67.519 97.6275 70.1534 98.959 72.6017 100.763C75.0356 102.553 77.3264 104.672 80.1756 105.803C83.2252 107.005 86.6614 106.748 89.5249 105.158C89.7683 105.03 89.5535 104.657 89.3101 104.786C86.3893 106.404 82.8959 106.547 79.8463 105.201C77.2978 104.07 75.2074 102.18 72.9882 100.52C70.7118 98.8159 68.2921 97.4843 65.4286 97.0835C62.4793 96.6826 59.4726 97.1837 56.6807 98.1143C50.5672 100.162 45.5274 104.385 39.7289 107.091C34.3742 109.597 27.4875 110.771 22.4048 107.005C19.8706 105.13 17.8805 102.452 14.6161 101.823C11.8529 101.293 8.91778 102.123 6.88471 104.07C6.68426 104.256 6.98493 104.571 7.18537 104.371Z" fill="#E8E8E8"/>
<path d="M62.1907 112.36C64.5531 110.828 67.3593 110.098 70.1798 110.327C72.757 110.542 75.1909 111.501 77.5533 112.461C79.8441 113.391 82.1635 114.365 84.6261 114.766C87.2033 115.181 89.809 114.866 92.2859 114.107C95.2496 113.191 97.9986 111.73 100.705 110.256C100.948 110.127 100.733 109.755 100.49 109.883C95.536 112.561 90.0954 115.381 84.2825 114.265C79.4289 113.334 75.1623 110.327 70.1655 109.898C67.2734 109.654 64.3813 110.413 61.9616 111.988C61.7469 112.146 61.9616 112.518 62.1907 112.36Z" fill="#E8E8E8"/>
<path d="M116.242 122.067C119.363 119.147 123.2 117.042 127.338 115.968C129.442 115.424 131.604 115.152 133.781 115.166C136.2 115.195 138.606 115.582 141.011 115.811C145.678 116.254 150.16 115.467 154.527 113.763C158.693 112.145 162.616 109.339 167.097 108.652C172.337 107.85 176.389 111.329 179.725 114.894C179.911 115.095 180.212 114.794 180.026 114.594C177.277 111.659 174.041 108.623 169.861 108.151C165.279 107.635 161.113 110.327 157.132 112.174C152.551 114.307 147.611 115.768 142.529 115.481C139.994 115.338 137.489 114.88 134.94 114.751C132.778 114.637 130.602 114.794 128.483 115.238C123.801 116.197 119.435 118.459 115.941 121.738C115.741 121.953 116.041 122.253 116.242 122.067Z" fill="#E8E8E8"/>
<path d="M32.412 31.5957C36.4209 34.7025 41.6468 33.3281 46.0136 31.8963C51.4256 30.1067 56.9091 28.9756 62.6361 28.861C62.9081 28.861 62.9081 28.4315 62.6361 28.4315C57.3673 28.5317 52.1701 29.4337 47.159 31.0659C42.6203 32.5406 36.9793 34.6166 32.7127 31.295C32.4979 31.1232 32.1973 31.4239 32.412 31.5957Z" fill="#161616"/>
<path d="M71.0107 5.56659C75.85 5.20865 80.5174 3.86281 85.1992 2.73174C90.0672 1.54339 94.9494 0.755932 99.9748 1.29999C105.043 1.84406 109.954 3.37602 114.922 4.46414C119.704 5.52363 124.558 6.01043 129.454 5.76703C134.967 5.495 140.407 4.33529 145.547 2.35948C145.805 2.25926 145.69 1.84406 145.433 1.94428C136.083 5.53795 125.875 6.29677 116.082 4.2637C111.2 3.24716 106.418 1.75815 101.478 1.04228C96.7104 0.355044 92.0573 0.741615 87.3612 1.77247C81.9205 2.96081 76.5801 4.70754 71.0107 5.12275C70.7386 5.1657 70.7386 5.59522 71.0107 5.56659Z" fill="#161616"/>
<path d="M148.497 41.4461C152.678 39.8998 157.016 42.1047 161.196 42.5056C163.444 42.7203 165.678 42.5056 167.868 41.9901C170.016 41.4747 172.106 40.7159 174.297 40.3866C176.645 40.0286 179.151 40.1718 181.184 41.5033C181.413 41.6608 181.627 41.2886 181.398 41.1311C177.79 38.783 173.381 40.043 169.572 41.1025C167.181 41.7754 164.79 42.2622 162.299 42.1619C159.922 42.076 157.646 41.4174 155.326 40.9306C153.021 40.4582 150.645 40.2005 148.397 41.0309C148.125 41.1168 148.239 41.532 148.497 41.4461Z" fill="#161616"/>
<path d="M2.5606 84.8851C6.19722 81.6494 11.3229 84.5128 15.3604 85.1285C20.0278 85.8444 24.6953 84.5558 29.148 83.3102C29.4201 83.2386 29.3055 82.8234 29.0335 82.895C24.1083 84.2695 19.0113 85.6296 13.9 84.4126C10.1631 83.5249 5.59589 81.635 2.24561 84.5844C2.04517 84.7562 2.34583 85.0569 2.5606 84.8851Z" fill="#161616"/>
<path d="M48.3471 125.089C49.5068 123.714 51.2965 122.97 53.1005 123.199C54.1314 123.327 55.0763 123.8 56.0213 124.215C56.8087 124.559 57.6105 124.845 58.4266 125.074C61.9344 126.048 65.6998 125.905 69.1217 124.702C69.3794 124.616 69.2649 124.201 69.0072 124.287C65.1701 125.618 60.9321 125.618 57.1094 124.187C55.4486 123.571 53.9023 122.583 52.0553 122.726C50.4947 122.841 49.0487 123.585 48.0321 124.774C47.8603 125.003 48.1753 125.303 48.3471 125.089Z" fill="#161616"/>
<path d="M72.7151 123.914C75.3208 123.156 77.9982 122.783 80.7185 122.798C80.9905 122.798 80.9905 122.368 80.7185 122.368C77.9696 122.354 75.2493 122.74 72.6005 123.499C72.3428 123.585 72.443 124 72.7151 123.914Z" fill="#161616"/>
<path d="M76.1241 12.6251C78.6583 14.5722 81.0779 16.6626 83.3974 18.8818C83.5978 19.0679 83.8985 18.7672 83.698 18.5811C81.3643 16.3476 78.9017 14.2429 76.3389 12.2671C76.1241 12.081 75.9094 12.4533 76.1241 12.6251Z" fill="#161616"/>
<path d="M51.2972 20.1703C51.5406 18.8245 51.7983 17.4786 52.0417 16.1185C52.099 15.8464 51.6838 15.7319 51.6265 16.0039C51.3831 17.3498 51.1254 18.6956 50.882 20.0558C50.8391 20.3278 51.2543 20.4423 51.2972 20.1703Z" fill="#161616"/>
<circle cx="133.854" cy="27.8731" r="0.83041" fill="#079893"/>
<circle cx="25.357" cy="96.296" r="0.987902" fill="#079893"/>
<circle cx="20.5747" cy="5.52351" r="2.26215" fill="#FF3B30"/>
<circle cx="25.1123" cy="9.21756" r="0.758823" fill="#FF3B30"/>
<circle cx="68.465" cy="135.64" r="1.68946" fill="#FF3B30"/>
<circle cx="146.981" cy="9.24609" r="1.48901" fill="#FF3B30"/>
<circle cx="148.887" cy="6.54012" r="0.916315" fill="#FF3B30"/>
<circle cx="22.852" cy="3.14692" r="2.26215" fill="#1E2C47"/>
<circle cx="21.7209" cy="97.4845" r="1.13108" fill="#1E2C47"/>
<circle cx="61.4788" cy="133.049" r="1.00222" fill="#1E2C47"/>
<circle cx="141.486" cy="3.24718" r="2.37669" fill="#1E2C47"/>
<circle cx="102.355" cy="41.1023" r="0.515427" fill="#1E2C47"/>
<path d="M97.0731 10.9356C96.7724 11.6371 96.4861 12.353 96.1854 13.0545C96.0852 13.3122 96.5004 13.4268 96.6006 13.1691C96.9013 12.4675 97.1876 11.7516 97.4883 11.0501C97.5885 10.7924 97.1733 10.6778 97.0731 10.9356Z" fill="#1E2C47"/>
<path d="M97.0019 11.2792C97.5316 11.8376 97.9468 12.4676 98.2188 13.1835C98.3191 13.4412 98.7343 13.3266 98.634 13.0689C98.3191 12.2815 97.8752 11.5942 97.3025 10.9786C97.1164 10.7781 96.8014 11.0788 97.0019 11.2792Z" fill="#1E2C47"/>
<path d="M96.299 13.4268C96.7142 14.2 97.1867 14.9301 97.7164 15.6174C97.8882 15.8321 98.2605 15.6174 98.0887 15.4026C97.5589 14.7011 97.0864 13.9709 96.6712 13.212C96.5281 12.9687 96.1701 13.1834 96.299 13.4268Z" fill="#1E2C47"/>
<path d="M98.2468 13.212C98.0749 14.0138 97.9175 14.8156 97.7456 15.6174C97.6884 15.8894 98.1036 16.0039 98.1608 15.7319C98.3327 14.9301 98.4901 14.1284 98.662 13.3266C98.7192 13.0689 98.304 12.9543 98.2468 13.212Z" fill="#1E2C47"/>
<path d="M137.405 72.2285C137.061 72.8584 136.832 73.5314 136.732 74.2472C136.689 74.5193 137.104 74.6338 137.147 74.3618C137.247 73.6888 137.447 73.0589 137.777 72.4575C137.906 72.1998 137.533 71.9851 137.405 72.2285Z" fill="#1E2C47"/>
<path d="M137.377 72.3572C137.663 73.116 137.992 73.8462 138.365 74.5478C138.494 74.7912 138.866 74.5764 138.737 74.333C138.379 73.6601 138.064 72.9586 137.792 72.2427C137.692 71.985 137.277 72.0995 137.377 72.3572Z" fill="#1E2C47"/>
<path d="M136.646 74.5478C137.018 75.0775 137.376 75.6073 137.748 76.137C137.906 76.3661 138.278 76.1514 138.12 75.9223C137.748 75.3925 137.39 74.8628 137.018 74.333C136.86 74.104 136.488 74.3187 136.646 74.5478Z" fill="#1E2C47"/>
<path d="M138.205 74.4763C137.905 74.8915 137.761 75.364 137.761 75.8651C137.761 76.1371 138.191 76.1371 138.191 75.8651C138.191 75.4356 138.32 75.0347 138.578 74.6911C138.735 74.462 138.363 74.2472 138.205 74.4763Z" fill="#1E2C47"/>
<path d="M17.6384 112.761C17.2518 113.606 16.8652 114.436 16.4787 115.281C16.3641 115.524 16.7364 115.753 16.8509 115.496C17.2375 114.651 17.6241 113.82 18.0106 112.976C18.1252 112.732 17.7672 112.518 17.6384 112.761Z" fill="#1E2C47"/>
<path d="M17.7108 112.876C18.0831 113.763 18.4553 114.651 18.8276 115.539C18.9278 115.796 19.343 115.682 19.2428 115.424C18.8705 114.536 18.4983 113.649 18.126 112.761C18.0258 112.503 17.6106 112.618 17.7108 112.876Z" fill="#1E2C47"/>
<path d="M16.3803 115.667C16.7668 116.426 17.1391 117.199 17.5257 117.958C17.5973 118.087 17.7691 118.087 17.8693 118.001C18.17 117.758 18.3131 117.343 18.4706 117.013C18.6997 116.555 18.9288 116.097 19.1579 115.639C19.2867 115.395 18.9145 115.181 18.7856 115.424C18.5852 115.825 18.3704 116.226 18.17 116.627C17.9981 116.97 17.8407 117.443 17.54 117.686C17.6545 117.701 17.7691 117.715 17.8836 117.729C17.497 116.97 17.1248 116.197 16.7382 115.438C16.6237 115.209 16.2514 115.424 16.3803 115.667Z" fill="#1E2C47"/>
<path d="M161.742 46.2136C161.298 47.0584 161.026 47.946 160.898 48.891C160.855 49.163 161.284 49.163 161.327 48.891C161.442 48.0176 161.699 47.2015 162.1 46.4284C162.243 46.185 161.871 45.9702 161.742 46.2136Z" fill="#1E2C47"/>
<path d="M161.687 46.7148C162.131 47.5738 162.56 48.4329 163.004 49.2919C163.133 49.5353 163.505 49.3205 163.376 49.0771C162.932 48.2181 162.503 47.3591 162.059 46.5C161.93 46.2566 161.558 46.4714 161.687 46.7148Z" fill="#1E2C47"/>
<path d="M160.928 48.9483C161.286 49.8074 161.715 50.6091 162.23 51.368C162.388 51.597 162.76 51.3823 162.603 51.1532C162.102 50.423 161.672 49.6499 161.343 48.8338C161.243 48.5904 160.827 48.7049 160.928 48.9483Z" fill="#1E2C47"/>
<path d="M162.875 49.1345C162.617 49.9363 162.402 50.7524 162.259 51.5971C162.216 51.8692 162.631 51.9837 162.674 51.7117C162.817 50.8813 163.018 50.0652 163.29 49.2491C163.376 48.9914 162.961 48.8768 162.875 49.1345Z" fill="#1E2C47"/>
<path d="M160.082 115.725C159.91 116.297 159.753 116.856 159.581 117.429C159.509 117.701 159.91 117.801 159.996 117.543C160.168 116.97 160.325 116.412 160.497 115.839C160.583 115.567 160.168 115.453 160.082 115.725Z" fill="#1E2C47"/>
<path d="M160.053 116.04C160.311 116.612 160.583 117.185 160.84 117.743C160.955 118.001 161.327 117.772 161.213 117.529C160.955 116.956 160.683 116.383 160.425 115.825C160.311 115.567 159.938 115.782 160.053 116.04Z" fill="#1E2C47"/>
<path d="M159.695 117.701C159.824 118.374 160.139 118.975 160.583 119.49C160.769 119.705 161.069 119.39 160.883 119.19C160.482 118.731 160.225 118.187 160.11 117.6C160.053 117.314 159.638 117.429 159.695 117.701Z" fill="#1E2C47"/>
<path d="M160.828 117.643C160.641 118.245 160.556 118.86 160.57 119.476C160.584 119.748 161.014 119.748 160.999 119.476C160.985 118.889 161.057 118.316 161.243 117.758C161.329 117.5 160.914 117.386 160.828 117.643Z" fill="#1E2C47"/>
<path d="M12.2413 40.186C11.9263 40.8733 11.6257 41.5605 11.3107 42.2478C11.1961 42.4911 11.5684 42.7202 11.6829 42.4625C11.9979 41.7753 12.2986 41.088 12.6136 40.4008C12.7281 40.1574 12.3559 39.9283 12.2413 40.186Z" fill="#1E2C47"/>
<path d="M11.3669 42.6057C11.6962 43.4504 12.0112 44.2808 12.3405 45.1256C12.4407 45.3833 12.8559 45.2687 12.7557 45.011C12.4264 44.1663 12.1114 43.3359 11.7821 42.4912C11.6819 42.2335 11.2667 42.348 11.3669 42.6057Z" fill="#1E2C47"/>
<path d="M12.2412 40.2147C12.685 40.9878 13.1289 41.7753 13.5727 42.5484C13.7159 42.7918 14.0738 42.577 13.945 42.3336C13.5011 41.5605 13.0573 40.773 12.6134 39.9999C12.4703 39.7565 12.098 39.9713 12.2412 40.2147Z" fill="#1E2C47"/>
<path d="M13.6713 42.3622C13.2131 43.2212 12.8122 44.1089 12.4686 45.0109C12.3684 45.2686 12.7836 45.3832 12.8838 45.1255C13.2131 44.2521 13.5997 43.393 14.0435 42.577C14.1724 42.3336 13.8001 42.1188 13.6713 42.3622Z" fill="#1E2C47"/>
<path d="M120.166 53.3868C120.452 52.8427 120.996 52.4705 121.626 52.4991C122.142 52.5134 122.528 52.8713 122.986 53.0432C123.788 53.3295 124.031 52.8141 124.633 52.4275C125.449 51.8834 126.236 53.1004 127.11 53.0861C127.611 53.0718 128.026 52.8284 128.04 52.2986C127.926 52.3559 127.826 52.4275 127.711 52.4848C128.155 52.7138 128.599 52.9429 129.028 53.1863C129.272 53.3152 129.486 52.9429 129.243 52.8141C128.799 52.585 128.355 52.3559 127.926 52.1125C127.783 52.0409 127.611 52.1268 127.597 52.2986C127.554 53.3152 125.578 51.8691 125.205 51.8262C124.361 51.7116 124.031 52.7568 123.301 52.6423C122.528 52.5134 122.041 51.955 121.211 52.0982C120.581 52.2127 120.066 52.5993 119.779 53.172C119.679 53.4154 120.037 53.6302 120.166 53.3868Z" fill="#1E2C47"/>
<path d="M125.65 50.4802C126.295 49.7643 127.311 50.6663 128.041 50.7522C128.886 50.8525 129.545 49.9505 130.361 50.4086C131.034 50.7952 132.265 51.7115 132.752 50.5375C132.852 50.2798 132.437 50.1652 132.336 50.4229C131.993 51.2533 130.762 50.0936 130.346 49.9218C129.788 49.6784 129.416 49.8789 128.915 50.1223C128.313 50.4086 127.884 50.3084 127.311 50.0507C127.053 49.9361 126.796 49.8359 126.509 49.793C126.065 49.7357 125.665 49.8216 125.35 50.1652C125.163 50.38 125.464 50.6807 125.65 50.4802Z" fill="#1E2C47"/>
<path d="M114.023 16.7055C114.223 16.3333 114.453 16.233 114.71 16.4048C114.825 16.4478 114.939 16.5051 115.054 16.5767C115.183 16.6339 115.312 16.7198 115.44 16.7628C115.67 16.8344 115.899 16.863 116.128 16.8057C116.743 16.6339 117.058 15.8608 117.717 15.8751C118.333 15.8894 118.776 16.4764 119.421 16.1758C119.693 16.0469 119.879 15.8178 120.137 15.6747C120.709 15.3597 121.411 15.4742 121.898 15.8751C122.112 16.0469 122.413 15.7462 122.198 15.5744C121.554 15.0447 120.666 14.8872 119.922 15.3024C119.593 15.4885 119.32 15.8894 118.891 15.8321C118.648 15.8035 118.433 15.6317 118.204 15.5458C117.86 15.4169 117.545 15.374 117.202 15.5315C116.772 15.7319 116.486 16.2903 116.013 16.3905C115.412 16.5194 115.011 15.9037 114.453 15.8894C113.923 15.8751 113.307 16.3905 113.665 16.9203C113.808 17.1493 114.181 16.9346 114.023 16.7055Z" fill="#079893"/>
<path d="M118.776 14.1713C118.948 13.2407 120.566 14.1427 121.139 14.0424C121.511 13.9852 121.783 13.7274 122.127 13.5986C122.671 13.3838 123.2 13.4697 123.702 13.7704C123.945 13.9136 124.16 13.5413 123.916 13.3981C123.487 13.1404 123.029 13.0116 122.542 13.0545C122.327 13.0688 122.127 13.1261 121.94 13.1977C121.368 13.4411 121.139 13.7131 120.423 13.5413C119.736 13.3695 118.562 13.0259 118.375 14.0567C118.304 14.3288 118.719 14.4433 118.776 14.1713Z" fill="#079893"/>
<path d="M10.3799 65.9145C10.566 65.0125 11.8116 66.2438 12.055 66.4013C12.327 66.5874 12.6277 66.7163 12.957 66.6447C13.3865 66.5731 13.7158 66.2152 14.1597 66.1149C14.8755 65.9574 15.5914 66.1865 16.1068 66.7019C16.3073 66.9024 16.6079 66.5874 16.4075 66.4013C15.9637 65.9574 15.4196 65.6854 14.7896 65.6425C14.4746 65.6138 14.1597 65.6568 13.859 65.757C13.3865 65.9145 13.0143 66.3726 12.4416 66.1436C11.8402 65.9002 11.6112 65.2845 10.9239 65.2129C10.4801 65.17 10.0649 65.3418 9.97897 65.7999C9.90738 66.072 10.3226 66.1865 10.3799 65.9145Z" fill="#079893"/>
<path d="M15.1466 64.8836C15.4616 64.4541 16.9077 65.3131 17.3229 65.4133C17.9958 65.5708 18.683 65.5708 19.3703 65.4849C19.6423 65.442 19.5278 65.0268 19.2557 65.0697C18.0674 65.2272 17.1511 64.9122 16.0773 64.4827C15.5905 64.2966 15.1037 64.225 14.7744 64.6688C14.6169 64.8836 14.9891 65.0983 15.1466 64.8836Z" fill="#079893"/>
<path d="M50.0529 94.8929C50.282 94.535 50.6399 94.3059 51.0837 94.3059C51.456 94.3059 51.6851 94.535 52.0144 94.6352C52.3437 94.7497 52.6157 94.6781 52.9021 94.492C53.4604 94.1197 53.7325 93.6616 54.4913 93.6902C55.1785 93.7045 55.8371 94.0338 56.4385 94.3345C56.6819 94.4634 56.8966 94.0911 56.6532 93.9623C55.5221 93.3896 54.1477 92.8455 53.0596 93.7761C52.8162 93.9766 52.7875 94.0338 52.4153 94.1054C52.0001 94.1913 52.043 94.1341 51.728 94.0052C51.456 93.8907 51.1983 93.8477 50.8976 93.8764C50.3679 93.9336 49.9527 94.2343 49.6806 94.6638C49.5375 94.9072 49.9097 95.122 50.0529 94.8929Z" fill="#079893"/>
<path d="M54.8199 95.7233C55.4928 95.1363 56.7671 96.3676 57.5975 96.2531C58.0986 96.1815 58.3277 95.8092 58.657 95.4656C59.2869 94.7927 60.2319 94.6925 61.005 95.1936C61.2341 95.3367 61.4489 94.9788 61.2198 94.8213C60.6614 94.4634 60.0028 94.3488 59.3585 94.535C59.0722 94.6209 58.8145 94.7497 58.5854 94.9359C58.2418 95.2222 58.027 95.7376 57.5402 95.8235C56.495 96.0097 55.5071 94.5493 54.5192 95.4227C54.3188 95.6088 54.6194 95.9094 54.8199 95.7233Z" fill="#079893"/>
<path d="M35.2907 3.89141C35.4052 3.41894 35.6772 3.04668 36.1354 2.84624C36.5363 2.67443 36.8656 2.78897 37.2808 2.77465C37.7389 2.74602 38.0826 2.51694 38.3546 2.17332C38.7698 1.65789 39.0418 1.12815 39.6288 0.784529C40.3018 0.397959 41.0749 0.326372 41.8194 0.55545C42.0914 0.641355 42.1917 0.22615 41.9339 0.140245C40.5595 -0.27496 39.1993 0.254785 38.3689 1.4145C38.0396 1.87265 37.7962 2.33081 37.1662 2.34513C36.7797 2.35945 36.4504 2.27354 36.0781 2.4024C35.4481 2.61716 35.0186 3.1469 34.8754 3.77687C34.8039 4.0489 35.2191 4.16344 35.2907 3.89141Z" fill="#079893"/>
<path d="M37.3105 5.53785C36.6948 3.90566 39.6442 3.99156 40.5319 3.67658C41.6343 3.29001 42.5793 2.60277 43.5099 1.91554C43.7247 1.75805 43.5099 1.38579 43.2952 1.54329C42.6652 2.01576 42.0209 2.47392 41.3337 2.84617C40.4746 3.30433 39.6585 3.4475 38.7279 3.59068C37.74 3.74817 36.4514 4.43541 36.9096 5.63807C36.9955 5.89578 37.4107 5.79556 37.3105 5.53785Z" fill="#079893"/>
<path d="M94.4064 87.6197C95.4945 84.7705 97.3415 82.9092 99.2457 80.9764C101.751 78.4422 106.404 73.7318 111.143 74.4763C115.181 75.1063 114.737 78.9863 120.278 81.8068C125.504 84.4842 127.508 81.8354 132.72 84.7132C133.493 85.1428 138.948 88.2496 140.194 94.1198C140.709 96.5538 140.58 99.8897 139.506 100.205C138.289 100.563 137.874 93.5471 133.006 90.7981C129.284 88.6935 124.158 89.71 123.743 91.2134C123.299 92.8026 128.439 93.8478 131.345 99.3743C132.62 101.78 132.892 103.97 133.278 106.977C133.636 109.812 134.037 115.625 132.72 115.968C131.632 116.255 131.045 112.375 127.05 109.196C124.945 107.521 122.698 106.834 118.202 105.459C114.15 104.228 112.103 103.627 111 104.629C109.368 106.118 110.628 109.898 110.857 110.571C112.461 115.381 116.555 117.386 116.255 117.901C115.854 118.545 108.38 116.684 102.281 110.714C97.0694 105.602 91.2422 95.8808 94.4064 87.6197Z" fill="#FFAF51"/>
<path d="M141.154 104.214C141.096 104.614 140.796 106.848 142.113 108.28C143.573 109.855 145.349 108.652 147.138 110.213C148.785 111.644 148.57 113.792 149.071 113.749C149.644 113.706 150.517 110.8 149.286 109.039C148.899 108.48 147.955 107.979 146.079 107.005C144.16 106.003 143.903 106.046 143.402 105.502C142.156 104.156 142.342 102.395 141.898 102.395C141.555 102.395 141.254 103.455 141.154 104.214Z" fill="#FFCC00"/>
<path d="M128.841 121.022C128.039 122.225 128.125 123.513 128.196 124.874C128.282 126.262 128.339 127.393 129.156 128.41C130.086 129.57 131.632 130.056 131.833 129.799C131.99 129.598 131.289 129.054 130.659 127.866C130.587 127.723 129.657 125.962 129.7 123.9C129.743 121.323 131.26 119.791 130.874 119.519C130.587 119.304 129.485 120.049 128.841 121.022Z" fill="#FFCC00"/>
<path d="M134.58 97.284C136.986 98.8732 135.668 102.553 137.243 104.7C137.401 104.915 137.773 104.7 137.616 104.486C135.983 102.252 137.372 98.6155 134.795 96.9117C134.566 96.7542 134.351 97.1265 134.58 97.284Z" fill="#FF3B30"/>
<path d="M133.723 86.9182C136.3 88.894 138.089 91.7145 138.805 94.8786C138.862 95.1507 139.278 95.0361 139.22 94.7641C138.476 91.4854 136.615 88.5933 133.952 86.5602C133.708 86.3741 133.493 86.7464 133.723 86.9182Z" fill="#1E2C47"/>
<path d="M125.418 94.85C127.479 96.5395 129.097 98.7014 130.1 101.178C130.2 101.436 130.615 101.321 130.515 101.064C129.47 98.5153 127.852 96.2961 125.718 94.5493C125.518 94.3775 125.203 94.6782 125.418 94.85Z" fill="#1E2C47"/>
<path d="M131.101 103.541C131.488 104.572 131.746 105.617 131.846 106.705C131.875 106.977 132.304 106.977 132.276 106.705C132.161 105.574 131.903 104.486 131.502 103.426C131.431 103.168 131.016 103.283 131.101 103.541Z" fill="#1E2C47"/>
<path d="M109.066 105.917C108.708 108.079 109.123 110.241 110.297 112.103C110.44 112.332 110.813 112.117 110.669 111.888C109.567 110.141 109.137 108.079 109.481 106.032C109.524 105.76 109.109 105.645 109.066 105.917Z" fill="#1E2C47"/>
<path d="M110.87 113.277C111.386 114.221 112.044 115.066 112.832 115.796C113.032 115.983 113.333 115.682 113.133 115.496C112.374 114.78 111.744 113.964 111.243 113.062C111.114 112.818 110.742 113.033 110.87 113.277Z" fill="#1E2C47"/>
<path d="M94.4348 91.4568C94.3202 92.817 94.4491 94.1628 94.8357 95.48C94.9072 95.7521 95.3225 95.6375 95.2509 95.3655C94.8786 94.0769 94.7498 92.7884 94.8643 91.4568C94.8929 91.1848 94.4634 91.1848 94.4348 91.4568Z" fill="#1E2C47"/>
<path d="M95.2652 96.9403C95.4943 98.0571 95.9095 99.088 96.5108 100.062C96.654 100.291 97.0262 100.076 96.883 99.8468C96.3103 98.9018 95.9095 97.9139 95.6804 96.8258C95.6231 96.5681 95.2079 96.6826 95.2652 96.9403Z" fill="#1E2C47"/>
<path d="M57.8819 7.44226C57.481 8.53038 56.9942 10.0194 56.5217 11.8234C56.0349 13.699 54.8896 18.6385 55.0041 25.1386C55.1186 31.4096 56.3499 36.0198 57.481 40.1289C59.2421 46.5431 61.3897 51.1533 62.6639 53.8307C62.6639 53.8307 66.7157 62.4068 73.4306 71.5986C74.619 73.2165 76.1366 75.2639 76.1366 75.2639C77.239 76.7386 78.184 77.9699 78.8426 78.8576C79.3723 79.4589 80.0453 80.1318 80.9186 80.7761C82.5508 81.9931 84.1687 82.6087 85.2998 82.9237C87.161 81.3345 89.0223 79.7309 90.8836 78.1417C91.7283 78.9435 92.5873 79.7309 93.4321 80.5327C94.6061 79.33 95.6513 78.3708 96.4673 77.6692C100.018 74.591 102.953 73.0161 103.64 72.6438C104.227 72.3288 104.728 72.0854 105.072 71.9279C104.542 70.8684 104.013 69.8089 103.483 68.7351C104.342 67.9906 105.33 67.2032 106.432 66.43C107.921 65.3849 109.353 64.5401 110.656 63.8815C110.642 62.6789 110.484 60.8606 109.697 58.8561C109.11 57.3528 108.408 56.3363 108.107 55.9067C104.8 51.139 114.55 64.2824 101.808 46.0993C96.8682 39.0551 94.4056 35.5187 93.2746 34.0583C89.7382 29.4338 86.9606 26.2697 84.9848 24.0218C81.205 19.7123 79.5012 18.1087 78.1267 16.9347C76.2511 15.3025 74.1751 13.5415 71.0396 11.9093C69.0638 10.8928 67.4316 10.3344 65.0549 9.51829C62.1199 8.51607 59.6429 7.85747 57.8819 7.44226Z" fill="white"/>
<path d="M57.4391 7.70001C54.3322 17.2784 54.3322 27.6155 56.5657 37.38C57.1241 39.8283 57.8257 42.2479 58.6561 44.6103C59.0713 45.813 59.5724 46.987 60.0162 48.1754C60.1737 48.5906 60.2024 49.0058 60.3885 49.421C60.6605 50.0653 60.9469 50.7095 61.2332 51.3538C61.763 52.5565 62.3214 53.7448 62.9084 54.9332C63.4954 56.1072 64.2113 57.224 64.741 58.4123C64.9414 58.8562 65.1132 59.3286 65.3423 59.7582C65.643 60.3022 66.0868 60.7174 66.4018 61.2472C67.0604 62.3496 67.6904 63.4807 68.3776 64.5688C71.5131 69.6229 75.0782 74.3906 78.7291 79.0723C78.9009 79.2871 79.2016 78.9865 79.0298 78.7717C75.8084 74.6339 72.6585 70.4389 69.8237 66.0435C69.1221 64.9554 68.4492 63.8673 67.7906 62.7505C67.4756 62.2207 67.1606 61.6767 66.86 61.1326C66.5593 60.6029 66.1584 60.2306 65.8434 59.7152C65.5857 59.2857 65.3996 58.8275 65.2135 58.3694C64.9558 57.7537 64.6121 57.1953 64.2972 56.6083C63.6958 55.5059 63.1374 54.3891 62.6077 53.258C62.0493 52.0697 61.5196 50.867 60.9898 49.6644C60.7608 49.1346 60.6748 48.5762 60.4601 48.0322C60.231 47.4452 59.9876 46.8582 59.7585 46.2568C58.8852 43.9517 58.1263 41.6037 57.4964 39.2127C56.2364 34.3734 55.5063 29.4052 55.4347 24.3941C55.3631 18.7674 56.1362 13.1406 57.8829 7.77159C57.9259 7.55683 57.5107 7.44229 57.4391 7.70001Z" fill="black"/>
<path d="M57.6399 7.69994C60.0309 7.88607 62.4649 8.71648 64.7127 9.50394C66.9319 10.2914 69.1225 11.1504 71.1555 12.3245C75.2074 14.6725 78.7867 17.7508 82.0511 21.101C85.4157 24.5515 88.4796 28.3457 91.4433 32.1398C94.3927 35.9196 97.2132 39.8282 99.9336 43.7798C102.94 48.1753 105.832 52.6567 108.667 57.181C108.81 57.41 109.183 57.1953 109.039 56.9662C103.842 48.705 98.4732 40.5441 92.5028 32.8127C86.7329 25.3247 80.5478 17.6792 72.4441 12.5965C70.2392 11.2077 67.8768 10.2055 65.4429 9.30349C62.9803 8.4015 60.2886 7.47086 57.6542 7.2561C57.3679 7.2561 57.3679 7.68563 57.6399 7.69994Z" fill="black"/>
<path d="M79.3453 78.9435C86.0172 72.1428 93.5195 66.1724 101.638 61.1899C103.928 59.7868 106.248 58.4696 108.624 57.2383C108.868 57.1095 108.653 56.7372 108.41 56.8661C99.9767 61.2758 92.0735 66.7021 84.9577 73.0161C82.9246 74.8201 80.9488 76.6957 79.0446 78.6429C78.8442 78.8433 79.1448 79.144 79.3453 78.9435Z" fill="black"/>
<path d="M78.9297 79.2727C80.6334 81.177 82.8526 82.5228 85.3295 83.1241C85.6016 83.1957 85.7161 82.7805 85.4441 82.7089C83.0244 82.1076 80.8911 80.819 79.2303 78.9577C79.0442 78.7573 78.7435 79.0723 78.9297 79.2727Z" fill="black"/>
<path d="M108.552 57.3528C109.669 59.3143 110.313 61.4763 110.456 63.7241C110.471 63.9961 110.9 63.9961 110.886 63.7241C110.743 61.3903 110.07 59.1711 108.924 57.1381C108.796 56.8947 108.423 57.1094 108.552 57.3528Z" fill="black"/>
<path d="M85.5873 83.0096C93.3331 75.9368 101.723 69.6085 110.671 64.1249C110.901 63.9817 110.686 63.6095 110.457 63.7527C101.494 69.2506 93.061 75.6075 85.2867 82.7089C85.0862 82.8951 85.3869 83.1957 85.5873 83.0096Z" fill="black"/>
<path d="M90.9841 78.3994C91.7715 79.1725 92.559 79.9457 93.3464 80.7331C93.4324 80.819 93.5755 80.819 93.6471 80.7331C95.9665 78.2705 98.5723 76.0943 101.421 74.276C102.109 73.8321 102.81 73.4169 103.526 73.0161C103.984 72.7583 104.858 72.5149 105.13 72.0282C105.416 71.5414 104.987 70.8828 104.757 70.4676C104.357 69.7374 103.884 69.0644 103.369 68.4345C103.197 68.2197 102.896 68.5204 103.068 68.7351C103.569 69.3508 104.013 69.9951 104.385 70.6823C104.471 70.8255 104.657 71.0689 104.672 71.2407C104.614 71.4984 104.557 71.7418 104.5 71.9995C104.428 72.0425 104.357 72.0711 104.285 72.1141C103.999 72.3288 103.626 72.4577 103.311 72.6438C102.066 73.3454 100.849 74.1042 99.6747 74.9203C97.384 76.5381 95.265 78.3851 93.3464 80.4182C93.4467 80.4182 93.5469 80.4182 93.6471 80.4182C92.8597 79.645 92.0722 78.8719 91.2847 78.0844C91.0843 77.8983 90.7836 78.199 90.9841 78.3994Z" fill="black"/>
<path d="M58.4569 43.1069C61.979 38.9549 66.1024 35.3612 70.326 31.9393C74.564 28.5175 79.0024 25.3104 83.9705 23.0339C84.2282 22.9194 83.9992 22.5471 83.7558 22.6616C78.8306 24.9095 74.4351 28.0879 70.2258 31.4669C65.9306 34.9317 61.7356 38.5826 58.1562 42.7919C57.9701 43.021 58.2708 43.3217 58.4569 43.1069Z" fill="black"/>
<path d="M84.0553 25.0383C83.5829 25.067 83.3824 24.2795 83.9122 24.2366C84.0983 24.2223 84.3131 24.3082 84.3846 24.4943C84.4849 24.7663 84.2272 25.0527 83.9551 25.0527C83.7547 25.0527 83.7404 25.382 83.9551 25.382C84.399 25.382 84.7855 24.9668 84.7139 24.5229C84.6567 24.1507 84.2701 23.9216 83.9122 23.9359C83.5256 23.9645 83.2249 24.2795 83.2679 24.6661C83.3108 25.0527 83.6545 25.4106 84.0553 25.382C84.2701 25.3533 84.2701 25.024 84.0553 25.0383Z" fill="black"/>
<path d="M105.918 56.7084C105.932 56.7084 105.932 56.7084 105.947 56.6941C105.904 56.6941 105.861 56.6798 105.818 56.6798C105.975 56.7514 105.889 56.4507 105.875 56.4077C105.875 56.3648 105.889 56.3075 105.904 56.2646C105.947 56.1787 106.018 56.0928 106.104 56.0498C106.29 55.9639 106.491 56.1071 106.548 56.2932C106.663 56.6655 106.118 56.8516 105.975 56.5223C105.889 56.3362 105.617 56.4936 105.703 56.6798C105.875 57.0807 106.462 57.1093 106.748 56.8086C107.078 56.4507 106.834 55.8494 106.391 55.7205C105.918 55.5916 105.46 56.0928 105.574 56.5509C105.617 56.737 105.861 56.9661 106.047 56.78C106.19 56.6368 106.047 56.3218 105.832 56.4077C105.646 56.4793 105.732 56.78 105.918 56.7084Z" fill="black"/>
<path opacity="0.15" d="M57.8828 7.5282C60.145 8.98858 63.2089 11.1362 66.5592 14.014C68.6352 15.8037 74.0185 20.6 80.7477 29.9063C88.0496 40.0001 91.7006 45.0398 92.4307 50.6666C92.803 53.6017 93.3184 61.963 85.945 72.2429C88.9946 69.9235 92.0585 67.5898 95.1081 65.2704C96.4396 67.4609 97.7568 69.6515 99.0883 71.8421C97.6566 72.9016 96.2249 73.9467 94.7931 75.0062C95.4947 75.8509 96.1962 76.6813 96.8978 77.5261C97.7568 76.6957 98.7877 75.808 99.976 74.9346C101.809 73.5888 103.57 72.6295 105.087 71.928C104.515 70.8255 103.956 69.7088 103.384 68.6063C105.846 66.9885 108.309 65.3563 110.771 63.7384C110.643 62.5214 110.342 60.7604 109.554 58.7846C108.638 56.4651 107.478 54.9189 107.035 54.3175C103.827 49.9794 105.388 51.0245 98.6731 41.5893C93.8482 34.8029 91.1851 31.0088 86.9185 26.0979C84.1839 22.9481 82.3656 20.872 79.4592 18.3092C76.3666 15.5746 72.6154 12.3245 66.8885 9.94784C63.2375 8.45883 60.0304 7.82886 57.8828 7.5282Z" fill="#494949"/>
<path opacity="0.11" d="M103.855 49.1202C103.726 50.0366 103.468 51.4397 102.824 53.0289C101.335 56.7085 99.0441 58.312 94.2621 63.1513C91.9999 65.4421 88.6353 68.8353 88.9503 69.2076C89.251 69.5655 92.9305 66.7307 99.3591 62.4927C103.125 60.0015 106.289 58.0686 108.365 56.8087C106.861 54.2459 105.358 51.6831 103.855 49.1202Z" fill="#494949"/>
<path opacity="0.08" d="M108.666 57.2382C108.466 57.2811 108.952 58.8417 108.365 60.7889C107.936 62.2206 107.206 62.9079 105.416 65.0698C104.643 66.0004 103.512 67.4035 102.166 69.2075C104.972 67.289 107.778 65.3705 110.585 63.4519C109.31 58.3836 108.838 57.2095 108.666 57.2382Z" fill="#494949"/>
<path d="M84.4864 104.099C84.5293 104.514 84.6868 104.843 84.9302 105.244C85.9611 106.905 87.6648 107.922 88.8961 108.509C88.4093 110.041 87.8223 112.245 87.3928 114.937C86.9919 117.529 86.5194 120.55 87.1351 120.75C87.3498 120.822 87.9798 120.621 93.8356 109.024C94.6517 107.406 95.3246 106.06 95.7685 105.144C92.6473 103.741 89.5404 102.324 86.4192 100.92C86.1185 101.149 84.3289 102.452 84.4864 104.099Z" fill="#161616" stroke="#161616" stroke-width="0.31554"/>
<path d="M77.9564 72.4288C75.322 74.2614 73.6182 76.0368 72.1005 77.6403C71.4849 78.2846 68.5355 81.4201 65.4286 86.3453C64.0541 88.5216 63.0376 90.4401 62.3361 91.8862C62.422 92.4732 62.6224 93.3179 63.1522 94.1626C63.7392 95.1076 64.3978 95.5228 65.4286 96.4391C66.6886 97.5559 67.1467 98.2145 67.8769 98.959C69.2943 100.419 71.2844 101.522 75.2074 103.684C80.1326 106.39 82.7813 107.378 83.5974 107.678C84.5996 108.036 85.4444 108.308 86.0457 108.494C86.3321 107.163 86.6757 105.745 87.1052 104.256C87.4918 102.925 87.907 101.679 88.3222 100.52C85.2726 98.286 82.1371 95.7805 78.9586 92.9456C77.8561 91.9721 76.7967 90.9842 75.7801 90.0106C76.811 88.765 78.257 87.1328 80.0897 85.3717C80.6194 84.8563 81.7362 83.7968 83.0963 82.6801C84.8144 81.2913 87.4059 79.43 90.9852 77.7119C91.6009 73.6028 90.8707 69.7657 88.6228 68.5201C85.8166 66.9738 81.55 69.9376 77.9564 72.4288Z" fill="white"/>
<path d="M75.0651 74.5621C69.9968 78.8574 65.8017 84.1691 62.8237 90.1108C62.5231 90.7265 62.0935 91.4137 62.0363 92.101C61.979 92.8312 62.4228 93.3895 62.8237 93.9479C63.783 95.2508 64.8711 96.4678 66.0308 97.5989C68.4934 99.9612 71.3283 101.908 74.3063 103.555C77.9716 105.588 81.8516 107.206 85.7173 108.809C85.975 108.91 86.0895 108.494 85.8318 108.394C79.5035 105.76 73.0464 103.068 67.7632 98.5868C66.5749 97.5702 65.4438 96.4821 64.4273 95.2938C63.8975 94.6638 63.3678 94.0195 62.9096 93.3466C62.6233 92.9314 62.4085 92.5448 62.4801 92.0151C62.5517 91.4996 62.8524 91.0128 63.0814 90.5404C64.4559 87.7485 66.1024 85.0997 67.9923 82.6228C70.1542 79.7737 72.6312 77.1822 75.3658 74.8771C75.5805 74.691 75.2799 74.3903 75.0651 74.5621Z" fill="black"/>
<path d="M87.2058 79.5016C82.295 82.6801 77.9997 86.7033 74.5206 91.3994C74.3631 91.6284 74.7354 91.8432 74.8928 91.6141C78.329 86.9753 82.5813 82.995 87.4206 79.8595C87.6497 79.7307 87.4349 79.3584 87.2058 79.5016Z" fill="black"/>
<path d="M75.5368 90.2253C79.56 93.8619 83.6977 97.3554 87.9643 100.691C88.1791 100.863 88.4798 100.562 88.265 100.391C83.9984 97.0547 79.8463 93.5613 75.8375 89.9247C75.637 89.7385 75.3364 90.0392 75.5368 90.2253Z" fill="black"/>
<path d="M87.9799 100.634C87.0779 103.183 86.3763 105.788 85.8609 108.437C85.8036 108.709 86.2188 108.824 86.2761 108.552C86.7915 105.903 87.5074 103.297 88.3951 100.749C88.481 100.491 88.0658 100.376 87.9799 100.634Z" fill="black"/>
<path opacity="0.11" d="M83.4978 77.8979C81.522 78.0697 80.033 79.5158 75.4371 85.9014C73.6761 88.3496 72.2014 90.4829 71.0703 92.1724C72.7025 93.3178 73.9911 94.2627 74.8072 94.8784C79.3744 98.3002 81.293 100.219 85.173 102.309C86.0177 102.767 86.7193 103.097 87.1345 103.283C87.4638 102.381 87.7931 101.479 88.108 100.577C87.0199 99.6318 85.9318 98.7011 84.8294 97.7562C81.7941 95.179 78.7874 92.6878 75.7951 90.2682C77.0407 88.5214 78.2147 87.2042 79.0738 86.3022C81.6079 83.6535 84.1278 81.8638 86.0893 80.4894C86.7622 80.0169 87.3349 79.6446 87.7072 79.4012C85.8602 77.9838 84.4142 77.812 83.4978 77.8979Z" fill="#494949"/>
<path opacity="0.08" d="M84.0715 81.6349C82.8402 81.9212 81.1937 82.4796 79.5186 83.5964C75.4238 86.331 74.0493 90.5117 73.6484 91.9434C75.8533 93.6615 78.1298 95.3939 80.4922 97.1263C82.783 98.8158 85.0594 100.419 87.2786 101.966C87.6079 101.493 87.9372 101.006 88.2522 100.534C85.2026 98.3147 82.0384 95.7519 78.8743 92.8168C77.8721 91.9005 76.9128 90.9698 75.9965 90.0535C76.4976 89.3949 77.0417 88.722 77.6144 88.0348C79.762 85.4863 81.9669 83.3816 84.0715 81.6349Z" fill="#494949"/>
<path d="M111.174 99.4172C112.691 100.849 114.223 102.295 115.741 103.727C115.34 112.861 116.099 115.009 116.901 115.166C118.146 115.41 120.28 111.1 121.21 107.707C121.912 105.13 121.983 102.868 121.912 101.336C119.535 99.2168 117.159 97.0978 114.782 94.9645C113.579 96.4535 112.376 97.9425 111.174 99.4172Z" fill="#161616" stroke="#161616" stroke-width="0.31554"/>
<path d="M81.3778 73.6603C81.5066 76.037 83.1675 77.4831 83.1675 77.4831C84.1983 78.3851 85.358 78.6285 85.9307 78.7C86.3889 78.8862 86.847 79.0866 87.3195 79.2727C88.0354 80.3036 89.0949 81.764 90.498 83.4248C92.3593 85.6583 94.8648 88.3214 100.993 93.3611C104.014 95.838 107.908 98.8876 112.618 102.238C113.291 101.909 114.093 101.422 114.895 100.706C116.656 99.1453 117.472 97.327 117.844 96.2962C117.014 95.4944 115.783 94.2917 114.351 92.8027C107.994 86.231 103.756 80.6043 100.52 76.2804C98.3869 73.4312 95.6523 69.6371 92.6313 65.0555C85.716 66.9454 81.206 70.6107 81.3778 73.6603Z" fill="white"/>
<path d="M83.5964 78.0271C84.7418 78.4279 85.8729 78.8145 87.0183 79.2154C87.276 79.3013 87.3906 78.8861 87.1328 78.8002C85.9874 78.3993 84.8564 78.0127 83.711 77.6119C83.4533 77.5259 83.3387 77.9412 83.5964 78.0271Z" fill="black"/>
<path d="M86.5458 78.7859C91.9291 86.188 98.9017 92.1727 106.132 97.7135C108.208 99.3028 110.313 100.878 112.417 102.438C112.646 102.61 112.847 102.224 112.632 102.066C105.388 96.697 98.1 91.2564 91.9435 84.6417C90.1538 82.7232 88.4786 80.6901 86.9324 78.5711C86.7606 78.3564 86.3883 78.5711 86.5458 78.7859Z" fill="black"/>
<path d="M94.9933 68.8067C100.062 76.581 105.774 83.9115 112.074 90.7266C113.892 92.7024 115.768 94.621 117.672 96.4965C117.873 96.697 118.173 96.382 117.973 96.1959C111.344 89.6958 105.273 82.6373 99.8326 75.1206C98.2863 72.9873 96.7973 70.8111 95.3513 68.5919C95.2081 68.3628 94.8358 68.5776 94.9933 68.8067Z" fill="black"/>
<path d="M117.428 96.2245C116.598 98.6871 114.994 100.978 112.574 102.066C112.317 102.181 112.546 102.553 112.789 102.438C115.309 101.307 116.97 98.9018 117.829 96.339C117.929 96.0813 117.514 95.9668 117.428 96.2245Z" fill="black"/>
<path opacity="0.09" d="M95.0094 68.5775C94.1933 67.4751 93.506 66.5731 93.0479 65.9861C92.5897 66.8308 91.9598 68.2482 91.9025 70.0093C91.7736 73.9895 94.6944 75.6933 103.07 84.971C106.721 89.0085 108.654 91.4425 113.364 96.2531C114.467 97.3699 115.397 98.3005 116.07 98.9591C116.586 98.0571 117.101 97.1551 117.631 96.2531C113.092 91.7002 109.499 87.5911 106.807 84.341C104.215 81.2055 101.896 78.3993 99.505 74.9058C98.8894 74.0325 97.3288 71.6987 95.0094 68.5775Z" fill="#494949"/>
<path opacity="0.09" d="M97.543 72.6008C97.7434 73.5887 98.1586 75.2638 98.9747 77.211C101.337 82.7662 104.831 85.1142 111.116 92.0582C112.319 93.3897 114.18 95.4944 116.356 98.2147C116.857 97.4988 117.358 96.7972 117.859 96.0814C117.401 95.6518 116.671 94.9789 115.783 94.1199C114.151 92.545 109.727 88.1495 101.28 77.4258C100.364 76.2804 99.0749 74.6196 97.543 72.6008Z" fill="#494949"/>
<path d="M51.0715 59.9442C50.7851 60.0587 50.3556 60.3021 49.0814 62.3495C47.7069 64.5544 46.7763 66.0577 46.089 68.4344C45.4877 70.5534 45.3445 72.4863 45.3875 74.0612C45.4877 74.5193 45.5593 75.1923 45.3302 75.9368C45.0295 76.8817 44.4855 77.1108 43.4546 78.3994C43.0394 78.9148 42.3522 79.7881 41.8081 80.9765C41.2068 82.308 41.5075 82.4798 40.9348 83.7827C40.2475 85.3433 39.231 86.4171 39.0592 86.5889C38.1142 87.5768 37.6561 87.6055 37.2409 88.4645C36.7684 89.4381 36.9116 90.3544 36.9545 90.6264C36.9831 90.8269 37.2838 92.5736 38.3004 92.7884C38.5724 92.8456 39.0019 92.817 39.1737 92.5593C39.4457 92.1584 38.8158 91.6 38.7012 90.6264C38.601 89.7388 38.9876 89.0229 39.231 88.579C39.9612 87.2189 40.8059 87.4193 41.579 86.2883C42.3235 85.1715 41.622 84.8279 42.3379 82.7232C42.7388 81.5492 43.1396 80.3752 44.2134 79.5018C44.7002 79.1009 45.1727 78.8861 45.6166 78.2132C46.0031 77.6262 46.1463 77.0392 46.2036 76.6383C46.991 77.8982 47.8214 78.7143 48.4228 79.2155C49.2245 79.8741 50.1409 80.6472 50.914 80.3608C51.3292 80.2034 51.7015 79.7309 51.6299 79.4016C51.5869 79.2155 51.4151 79.1582 50.9713 78.7573C50.9713 78.7573 50.7995 78.5998 50.4129 78.1846C50.1552 77.9126 49.7829 77.4115 49.4536 76.4665C49.5825 76.3233 49.9118 76.0083 50.3556 75.9797C50.8424 75.9654 51.2147 76.309 51.5869 76.6813C52.2885 77.3685 52.2598 77.7837 52.7037 78.1989C53.0473 78.5282 53.6773 78.8718 54.9229 78.7859C54.8656 78.6284 54.7654 78.3707 54.6365 78.0844C54.1927 77.1251 53.9636 77.0249 53.935 76.624C53.9207 76.309 54.0495 76.2231 54.6365 75.2209C55.1376 74.3618 55.381 73.9323 55.3954 73.7032C55.4669 72.8585 54.7367 72.5722 54.5793 71.5986C54.4361 70.7825 54.794 70.1239 55.0517 69.6085C56.5407 66.5875 57.4857 64.6689 57.2137 63.2229C56.7985 60.9607 53.1905 59.0565 51.0715 59.9442Z" fill="#161616"/>
<path d="M50.4116 60.4597C48.3356 62.5786 47.004 65.2703 46.1164 68.0765C45.2573 70.8112 44.613 73.9324 45.9732 76.6097C46.102 76.8531 46.4743 76.6383 46.3454 76.3949C44.9996 73.7605 45.7298 70.6393 46.6031 67.962C47.4622 65.2989 48.7364 62.7791 50.7122 60.7603C50.8984 60.5599 50.5977 60.2592 50.4116 60.4597Z" fill="#161616"/>
<path d="M48.2623 72.83C48.4341 72.7441 48.6059 72.6725 48.7777 72.5866C48.9065 72.6582 49.0354 72.7441 49.1642 72.8157C49.3217 72.9588 49.4649 73.145 49.5651 73.3311C49.7656 73.6747 49.8658 74.0899 49.8372 74.4908C49.7799 75.2639 49.2215 75.8653 49.0783 76.6098C48.9924 77.0679 49.2931 77.3972 49.5508 77.7409C49.9947 78.3279 50.5101 78.8719 51.0685 79.3587C51.2689 79.5448 51.5839 79.2442 51.3691 79.0581C51.0112 78.7288 50.6533 78.3995 50.3383 78.0272C49.8228 77.4402 49.3647 76.9391 49.7226 76.123C50.0376 75.4071 50.3669 74.7342 50.2237 73.9181C50.1092 73.2881 49.7513 72.6439 49.1929 72.3002C48.7204 72.0139 48.1477 72.0712 47.89 72.6009C47.7611 72.8586 48.1334 73.0734 48.2623 72.83Z" fill="#161616"/>
<path d="M46.001 76.667C46.8314 77.9986 47.9768 79.101 49.3656 79.8312C49.7808 80.046 50.5683 80.5471 51.0694 80.3323C51.5418 80.1319 51.4559 79.5592 51.3271 79.1726C51.2412 78.9149 50.826 79.0294 50.9119 79.2871C51.2412 80.3323 49.8524 79.6021 49.5804 79.4589C49.1365 79.2299 48.7213 78.9578 48.3204 78.6428C47.533 78.0272 46.8887 77.2827 46.3589 76.438C46.2301 76.2232 45.8578 76.438 46.001 76.667Z" fill="#161616"/>
<path d="M55.8671 63.5235C55.0224 66.3583 54.4926 69.2791 54.2492 72.2285C54.2349 72.3144 54.3208 72.4146 54.4067 72.4289C55.3087 72.6723 55.1799 73.7891 54.8506 74.419C54.5213 75.0204 54.0058 75.5215 53.7481 76.1658C53.29 77.3255 54.6501 77.6977 54.6215 78.7143C54.6931 78.6427 54.7647 78.5711 54.8362 78.4995C53.5477 78.4279 52.4596 77.7407 51.8153 76.6239C51.3571 75.8221 50.8274 75.6503 49.9111 75.7076C49.639 75.7219 49.639 76.1514 49.9111 76.1371C50.2547 76.1228 50.6699 76.0799 50.9849 76.2517C51.2569 76.4092 51.3428 76.6812 51.486 76.9246C51.7294 77.3398 52.0444 77.712 52.4166 78.0127C53.1182 78.5854 53.9342 78.8717 54.8219 78.929C54.9365 78.929 55.0367 78.8288 55.0367 78.7143C55.051 78.1129 54.6501 77.755 54.3208 77.2968C53.6336 76.3376 54.7647 75.4499 55.2085 74.6338C55.6953 73.7461 55.681 72.3144 54.5069 72.0137C54.5642 72.0853 54.6072 72.1569 54.6644 72.2141C54.8935 69.2934 55.4376 66.4299 56.268 63.6237C56.3539 63.3803 55.9387 63.2658 55.8671 63.5235Z" fill="#161616"/>
<path d="M45.2433 74.19C45.3435 75.0491 45.2289 75.8938 44.8137 76.6669C44.4272 77.3971 43.7972 77.9269 43.1815 78.4852C42.0934 79.5018 41.5923 80.6185 41.2487 82.0503C40.8764 83.5679 40.4326 84.7849 39.3302 85.9303C38.4997 86.775 37.5262 87.5625 37.0107 88.6649C36.5096 89.7387 36.5812 90.9844 37.2255 91.9866C37.5978 92.5736 38.872 93.7476 39.3588 92.6309C39.5592 92.1727 39.3302 91.6 39.1727 91.1562C39.0295 90.7696 38.8434 90.383 38.8434 89.9535C38.8434 89.3522 39.187 88.8367 39.5879 88.4215C40.5615 87.405 41.8071 86.8323 42.2366 85.3862C42.48 84.5701 42.3082 83.7541 42.3655 82.9236C42.437 81.8928 42.9238 81.0194 43.6683 80.3179C44.7994 79.2441 46.3027 78.3564 46.3027 76.6097C46.3027 76.3376 45.8732 76.3376 45.8732 76.6097C45.8589 78.2848 44.2267 79.1152 43.1959 80.1747C42.3941 80.9908 41.9359 82.0216 41.9216 83.167C41.9073 83.9259 42.0362 84.6417 41.7784 85.3719C41.4921 86.2023 40.8908 86.7607 40.2322 87.3048C39.3874 87.9777 38.4138 88.7652 38.4138 89.9535C38.4138 90.5262 38.7002 91.0416 38.872 91.5857C38.915 91.7289 39.0724 92.1154 39.0009 92.23C38.8577 92.2443 38.7002 92.2729 38.557 92.2872C38.2993 92.4447 38.0989 92.4161 37.9557 92.2013C37.6407 92.0009 37.3687 91.3996 37.2541 91.0559C36.796 89.7101 37.4259 88.5074 38.3279 87.5339C39.0868 86.7034 39.9744 86.0019 40.6044 85.0569C41.2773 84.0547 41.4778 82.8664 41.7641 81.721C41.9789 80.8906 42.2652 80.0888 42.8379 79.4302C43.339 78.8432 43.969 78.3993 44.4844 77.8266C45.4007 76.8244 45.816 75.5215 45.6585 74.19C45.6441 73.918 45.2146 73.918 45.2433 74.19Z" fill="#161616"/>
<path d="M35.9503 56.7513C35.6497 56.9231 35.0913 57.2237 34.9768 57.8537C34.8336 58.5552 35.3347 59.1279 35.4063 59.1995C35.3204 59.2998 35.0627 59.6004 35.034 60.0586C35.0054 60.8174 35.6783 61.2612 35.7069 61.2899C35.6783 61.3185 35.2631 61.748 35.4063 62.335C35.5208 62.8362 35.9647 63.0509 36.0219 63.0652C35.9933 63.1511 35.8931 63.5234 36.0792 63.867C36.3656 64.3824 37.0528 64.3538 37.1244 64.3538C37.6112 64.3252 38.0693 63.9959 38.2841 63.4948C38.5561 63.6523 39.272 64.0245 40.2456 63.9243C40.9042 63.8527 41.391 63.595 41.6487 63.4375C42.1641 64.3395 42.9659 65.5565 44.1542 66.8021C45.1994 67.8902 47.1466 69.9376 50.0387 70.7823C53.6467 71.8418 56.8395 70.4673 58.6721 69.6799C63.5973 67.5609 66.0456 63.6666 66.9476 62.2062C68.4652 59.715 68.995 57.5817 69.4531 55.6488C70.1976 52.5849 69.9399 51.3822 69.6965 50.6807C69.5533 50.2511 68.7086 47.7885 66.7614 47.5022C65.1722 47.2588 63.855 48.619 63.6975 48.7908C63.1534 49.3635 62.8671 50.1223 62.2944 51.6113C62.0081 52.3701 61.8219 52.9428 61.736 53.2005C60.8054 56.2215 60.3329 57.7248 60.2041 58.0398C59.8604 58.8989 59.0443 60.8604 57.0829 62.3923C55.2073 63.8527 53.2458 64.1677 52.3724 64.2965C51.0552 64.4827 49.4374 64.7117 47.7193 63.867C45.8007 62.9221 44.9417 61.204 44.7126 60.7458C44.0254 59.3284 43.8965 57.7535 43.7963 56.6367C43.6674 55.205 43.7677 54.0882 42.9372 53.2005C42.7798 53.043 42.4075 52.6422 42.0209 52.7137C41.4626 52.8283 41.1476 53.9021 40.8612 54.9186C40.6178 55.7777 40.6894 55.8779 40.489 56.0783C40.0738 56.4935 39.544 56.2788 37.7257 56.379C36.6662 56.4506 36.294 56.5651 35.9503 56.7513Z" fill="white"/>
<path d="M38.9134 56.1356C37.3672 55.8493 34.6468 56.2502 34.8616 58.3692C35.0477 60.2734 37.3099 60.6027 38.67 59.7723C38.8991 59.6291 38.6844 59.2568 38.4553 59.4C37.3242 60.0873 35.2768 59.9011 35.2768 58.183C35.2768 56.5222 37.6105 56.3361 38.7989 56.5509C39.0709 56.6081 39.1855 56.1929 38.9134 56.1356Z" fill="black"/>
<path d="M35.2339 59.0708C33.6876 60.9607 37.4101 63.3374 38.5126 60.9607C38.6271 60.7173 38.2549 60.4882 38.1403 60.7459C37.2813 62.5785 34.4178 60.7459 35.5489 59.3714C35.7207 59.171 35.42 58.856 35.2339 59.0708Z" fill="black"/>
<path d="M35.3203 60.9892C34.991 61.7337 35.2201 62.6787 35.9789 63.0652C36.7235 63.4518 37.6541 63.0939 38.0407 62.378C38.1695 62.1346 37.7973 61.9198 37.6684 62.1632C37.3821 62.6643 36.7378 62.9507 36.1937 62.693C35.6496 62.4353 35.4492 61.7337 35.6926 61.204C35.8071 60.9606 35.4349 60.7458 35.3203 60.9892Z" fill="black"/>
<path d="M35.6631 62.9077C35.6059 63.6666 36.0497 64.3538 36.8229 64.5113C37.5387 64.6545 38.1973 64.182 38.4407 63.5377C38.5409 63.28 38.1257 63.1655 38.0255 63.4232C37.8394 63.91 37.324 64.2249 36.8085 64.0675C36.2788 63.91 36.064 63.4232 36.0927 62.9077C36.107 62.6357 35.6775 62.6357 35.6631 62.9077Z" fill="black"/>
<path d="M37.0242 58.2261C37.3965 58.1831 37.783 58.1974 38.098 58.4122C38.3987 58.6126 38.5705 59.0135 38.3987 59.3428C38.2698 59.5862 38.6421 59.801 38.7709 59.5576C39 59.1138 38.8998 58.5983 38.5562 58.2404C38.1696 57.8252 37.554 57.7393 37.0099 57.7965C36.7522 57.8395 36.7522 58.269 37.0242 58.2261Z" fill="black"/>
<path d="M38.3557 63.824C39.1002 63.552 39.8161 64.1677 40.5892 64.0818C41.1762 64.0102 41.6917 63.6952 42.1785 63.4088C42.4075 63.2657 42.1928 62.8934 41.9637 63.0366C41.2335 63.4804 40.6035 63.7954 39.7302 63.5377C39.2004 63.3802 38.7852 63.2084 38.2412 63.4088C37.9834 63.5091 38.0837 63.9243 38.3557 63.824Z" fill="black"/>
<path d="M38.7979 56.508C39.5424 56.7657 40.5446 56.8087 40.9598 55.9926C41.1889 55.5344 41.0457 54.976 41.1459 54.4892C41.2605 53.8306 41.6327 53.2866 42.1481 52.8714C42.3629 52.6996 42.0622 52.3989 41.8475 52.5707C41.2891 53.0289 40.8882 53.6588 40.745 54.3747C40.6734 54.7756 40.7737 55.2481 40.6591 55.6346C40.4014 56.4078 39.5424 56.3075 38.941 56.0928C38.6547 56.0069 38.5402 56.4221 38.7979 56.508Z" fill="black"/>
<path d="M41.8343 52.9C43.0513 53.0575 43.2088 55.1049 43.4093 56.0355C43.6526 57.2525 43.7815 58.4838 44.0106 59.7008C44.3828 61.6479 45.5139 63.1942 47.3179 64.0676C49.2078 64.9696 51.3554 64.9266 53.3312 64.3826C55.3643 63.8099 57.469 62.779 58.7862 61.0752C58.958 60.8605 58.6573 60.5598 58.4855 60.7746C57.111 62.5499 54.8775 63.5951 52.7299 64.0962C50.568 64.5973 48.2056 64.4112 46.4016 63.0081C44.4544 61.5048 44.4115 59.2426 44.0249 56.9948C43.8388 55.9353 43.6813 54.7899 43.2947 53.7877C43.0513 53.1577 42.6647 52.585 41.9632 52.4848C41.6768 52.4418 41.5623 52.857 41.8343 52.9Z" fill="black"/>
<path d="M41.5201 63.6953C43.2525 65.8143 44.9276 68.2339 47.2184 69.7945C49.4662 71.3122 52.2438 71.4697 54.8496 71.0402C60.147 70.1525 64.6427 66.5588 67.2198 61.92C68.6945 59.2856 69.5679 56.3648 69.9544 53.3725C69.9831 53.1004 69.5536 53.1004 69.5249 53.3725C68.8663 58.4838 66.6328 63.4949 62.6526 66.8738C60.6911 68.5346 58.3573 69.7802 55.8518 70.3816C53.2603 71.0115 50.268 71.0974 47.9056 69.7086C45.3858 68.2339 43.6247 65.5995 41.8207 63.3803C41.6489 63.1799 41.3482 63.4806 41.5201 63.6953Z" fill="black"/>
<path d="M66.9611 47.445C65.7728 46.9725 64.5128 47.5882 63.6824 48.4615C62.7088 49.4638 62.222 50.7953 61.8641 52.1125C61.4489 53.6444 61.0766 55.1621 60.4896 56.6368C59.8597 58.226 59.0579 59.7293 58.1416 61.1611C57.9841 61.3902 58.3563 61.6049 58.5138 61.3758C59.9885 59.0994 61.1196 56.6225 61.8211 54.0024C62.1934 52.6279 62.4368 51.1962 63.124 49.9505C63.8113 48.6906 65.2716 47.2302 66.8466 47.8602C67.1043 47.9604 67.2188 47.5452 66.9611 47.445Z" fill="black"/>
<path d="M37.6689 62.6788C38.0698 62.7074 37.9839 63.3803 37.9123 63.6237C37.8264 63.8814 38.2416 63.996 38.3275 63.7382C38.5136 63.1942 38.3847 62.3065 37.6689 62.2492C37.3968 62.2349 37.3968 62.6644 37.6689 62.6788Z" fill="black"/>
<path d="M37.911 61.3616C37.9969 61.7052 37.868 62.0632 37.596 62.2636C37.3669 62.4211 37.5817 62.7934 37.8107 62.6359C38.2546 62.3209 38.4693 61.7768 38.3262 61.2471C38.2689 60.9751 37.8537 61.0896 37.911 61.3616Z" fill="black"/>
<path d="M38.1542 59.8725C38.5408 60.0586 38.283 60.6742 38.0969 60.9176C37.9251 61.1324 38.2974 61.3472 38.4692 61.1324C38.7985 60.7029 38.9703 59.7866 38.3689 59.5002C38.1256 59.3857 37.9108 59.7579 38.1542 59.8725Z" fill="black"/>
<path opacity="0.11" d="M35.2054 59.9298C35.4345 59.801 35.8067 60.6027 36.766 61.0036C37.1239 61.1468 37.5678 61.247 39.6009 61.0036C40.2595 60.9177 41.1185 60.8032 42.1494 60.6171C42.3498 61.4331 42.765 62.6644 43.6097 63.9387C43.9677 64.4684 45.4137 66.5302 48.2056 67.7471C51.198 69.0643 53.904 68.6205 54.9491 68.4344C55.8368 68.2769 58.3137 67.8044 60.5186 65.8859C61.9933 64.6116 62.9383 63.0653 64.327 59.0421C65.272 56.3075 66.4174 52.5134 67.2621 47.803C67.8348 48.39 68.7225 49.4495 69.2236 51.0244C69.467 51.7832 69.6961 52.9 69.5099 54.6467C69.1234 58.4122 67.2335 61.5477 66.0881 63.1512C64.8997 64.8264 62.7808 67.7185 58.8578 69.5082C58.328 69.7516 55.3357 71.0545 51.5273 70.8826C50.6539 70.8397 49.8521 70.7967 48.8642 70.4388C47.7904 70.0522 46.7166 69.05 44.5833 67.0742C43.6956 66.2581 42.8223 65.3991 41.9346 64.1535C41.7628 63.9101 41.6196 63.6953 41.5194 63.5521C41.2187 63.7526 40.7749 63.9816 40.2738 63.9244C39.6009 63.8671 39.3718 63.3803 38.8134 63.4662C38.3266 63.5378 38.3266 63.9387 37.7396 64.1535C37.2814 64.3109 36.6372 64.2966 36.2076 63.9673C35.8926 63.7239 35.8497 63.4519 35.4918 61.9056C35.1481 60.388 35.0479 60.0157 35.2054 59.9298Z" fill="#494949"/>
<path d="M51.5693 56.2072C51.2973 56.2644 51.1971 56.8085 51.0253 57.6532C50.925 58.1687 50.8821 58.6125 50.8678 58.9275C50.2951 59.6004 50.2378 60.2161 50.2235 60.4595C50.2092 60.9606 50.381 61.3471 50.7103 62.063C50.9394 62.5784 51.1828 62.9793 51.3546 63.2513C50.7389 63.3945 50.3094 63.7954 50.2808 64.2249C50.2521 64.6401 50.6244 64.9694 50.7675 65.084C51.4118 65.6424 51.8843 65.2272 52.7004 65.671C53.359 66.0289 53.3017 66.4298 54.261 66.9596C54.8623 67.2889 55.0485 67.2173 55.12 67.1743C55.3634 67.0168 55.2775 66.5014 55.2346 66.1578C55.1773 65.7426 55.0055 65.1126 54.533 64.3824C55.0914 64.182 55.6498 63.9815 56.1938 63.7954C55.793 63.8384 55.7071 63.8527 55.7071 63.8527C55.7071 63.8384 56.695 63.4375 57.5397 63.7954C58.2412 64.0961 58.2985 64.726 58.8855 64.769C59.2148 64.7976 59.5871 64.6115 59.7446 64.3395C60.0739 63.7811 59.4582 62.965 59.315 62.7789C58.728 62.0057 57.869 61.7767 57.4824 61.7051C57.6113 61.4187 57.7544 60.9606 57.7831 60.3879C57.8117 59.4143 57.4108 58.6984 57.2247 58.3977C56.967 57.553 56.7236 56.7083 56.4659 55.8492C56.065 56.7799 55.6212 57.0662 55.2775 57.1378C54.891 57.2237 54.6762 57.0376 54.0462 57.1378C53.4449 57.238 53.4163 57.4242 53.0727 57.4098C52.2709 57.3239 51.9988 56.1213 51.5693 56.2072Z" fill="#161616"/>
<path d="M51.9287 60.7315C52.1721 61.0179 52.5587 61.204 52.9452 61.1038C53.2888 61.0179 53.5179 60.7315 53.5609 60.3879C53.5752 60.2447 53.3604 60.2447 53.3461 60.3879C53.3175 60.6886 53.0598 60.9033 52.7591 60.9176C52.4871 60.932 52.258 60.7745 52.0862 60.574C51.986 60.4738 51.8428 60.6313 51.9287 60.7315Z" fill="white"/>
<path d="M54.9928 60.259C55.3508 60.7744 56.5105 60.8174 56.4675 60.0013C56.4532 59.8581 56.2384 59.8581 56.2528 60.0013C56.2957 60.5883 55.4223 60.5024 55.1789 60.1445C55.093 60.0299 54.9069 60.1445 54.9928 60.259Z" fill="white"/>
<path d="M54.4338 61.8482C54.4338 61.8625 54.4481 61.8768 54.4481 61.8911C54.491 61.9054 54.5483 61.9198 54.5912 61.9341C54.5626 61.8768 54.5197 61.8482 54.4481 61.8482C54.5053 61.8339 54.5483 61.8052 54.6056 61.7909C54.5912 61.7766 54.5769 61.748 54.5626 61.7336C54.491 61.7623 54.4338 61.7909 54.3622 61.8195C54.4624 61.977 54.4194 62.2634 54.3622 62.4209C54.2906 62.6356 53.9899 62.922 53.8038 62.6356C53.7322 62.5211 53.5461 62.6213 53.6177 62.7502C53.8038 63.0365 54.1904 63.0222 54.4051 62.7788C54.6199 62.5354 54.7344 62.0057 54.5483 61.7193C54.491 61.6191 54.3192 61.6764 54.3479 61.8052C54.3765 61.8911 54.4194 61.9484 54.491 61.9914C54.5483 62.0343 54.6342 61.9914 54.6485 61.9341C54.6772 61.8052 54.6342 61.5046 54.4338 61.5905C54.2476 61.6621 54.3192 61.9484 54.4051 62.0629C54.4338 62.1059 54.5053 62.1345 54.5483 62.1059C54.7058 61.9914 54.7058 61.7766 54.534 61.6907C54.4194 61.6048 54.3192 61.7909 54.4338 61.8482Z" fill="white"/>
<path d="M54.4478 61.8912C54.5051 62.2205 54.6196 62.6214 55.0062 62.6786C55.3928 62.7359 55.5073 62.3637 55.5073 62.063C55.5073 61.9198 55.2925 61.9198 55.2925 62.063C55.2925 62.2778 55.221 62.5784 54.9346 62.4352C54.7198 62.335 54.6912 62.0487 54.6626 61.8339C54.6339 61.7051 54.4192 61.7623 54.4478 61.8912Z" fill="white"/>
<path d="M50.4962 60.803C50.7682 59.314 51.842 58.0397 53.3024 57.6102C54.7628 57.1807 56.4522 57.7677 57.1252 59.1708C57.2397 59.4142 57.612 59.1994 57.4974 58.956C56.7672 57.4527 54.9776 56.7798 53.3883 57.152C51.6989 57.5529 50.396 58.999 50.081 60.6884C50.038 60.9605 50.4532 61.075 50.4962 60.803Z" fill="#161616"/>
<path d="M51.2565 58.6411C51.2422 57.9253 51.371 57.2094 51.6717 56.5651C51.7003 56.5079 51.729 56.4649 51.7433 56.4076C51.8435 56.2358 51.8578 56.2072 51.7719 56.3217C51.686 56.3933 51.7003 56.4506 51.8292 56.5365C51.8578 56.5794 51.9008 56.6367 51.9294 56.6797C52.1442 57.0233 52.3303 57.3812 52.4878 57.7535C52.588 58.0112 53.0032 57.8966 52.903 57.6389C52.7598 57.2953 52.1012 55.5486 51.5429 55.9352C51.2708 56.1213 51.099 56.7512 51.0131 57.0519C50.8556 57.5673 50.7983 58.1114 50.8127 58.6555C50.8413 58.9132 51.2708 58.9132 51.2565 58.6411Z" fill="#161616"/>
<path d="M55.6232 57.4815C55.7664 57.2381 55.9096 56.9947 56.067 56.7513C56.1386 56.651 56.2389 56.5508 56.2818 56.4363C56.382 56.379 56.3963 56.3217 56.3391 56.2502C56.2818 56.1499 56.2961 56.1786 56.3677 56.3361C56.6111 56.9517 56.7829 57.553 56.8545 58.226C56.8831 58.498 57.3127 58.498 57.284 58.226C57.2411 57.7535 57.1552 57.2953 57.0263 56.8372C56.9404 56.5795 56.8116 55.9924 56.5682 55.835C56.382 55.7204 56.2245 55.8063 56.0957 55.9638C55.7664 56.3504 55.5087 56.8229 55.251 57.2667C55.1078 57.4958 55.48 57.7105 55.6232 57.4815Z" fill="#161616"/>
<path d="M50.1088 60.574C50.0086 62.9794 52.1848 65.0411 54.6045 64.54C55.7212 64.3109 56.7521 63.5807 57.2818 62.5642C57.8402 61.4903 58.1552 59.7866 57.425 58.7271C57.2675 58.498 56.8953 58.7128 57.0527 58.9418C57.697 59.9011 57.382 61.476 56.8666 62.4353C56.3941 63.3087 55.4635 63.9243 54.4899 64.1248C52.328 64.5543 50.4524 62.693 50.5383 60.574C50.5383 60.2877 50.1088 60.2877 50.1088 60.574Z" fill="#161616"/>
<path d="M50.4107 64.3537C50.7543 63.0795 52.4724 63.1511 53.3744 63.7095C54.3337 64.2822 54.8205 65.3989 54.9207 66.4727C54.9493 66.7734 55.0639 67.074 54.5628 66.8879C54.3766 66.8163 54.1332 66.5443 53.9901 66.4011C53.7323 66.1434 53.5033 65.8714 53.2169 65.6566C52.9019 65.4132 52.5726 65.2701 52.1861 65.1985C51.5847 65.0839 50.4966 65.1555 50.4393 64.2965C50.425 64.0244 49.9955 64.0244 50.0098 64.2965C50.0528 64.8548 50.4107 65.2271 50.9261 65.4132C51.327 65.5564 51.7709 65.5278 52.1861 65.628C52.7015 65.7568 53.0451 66.0289 53.403 66.4011C53.761 66.7591 54.3766 67.5608 54.9923 67.4463C55.5077 67.3461 55.3932 66.7591 55.3502 66.3725C55.1927 64.998 54.4625 63.6379 53.1167 63.1081C51.9856 62.6643 50.3534 62.922 50.0098 64.2535C49.9239 64.5112 50.3391 64.6258 50.4107 64.3537Z" fill="#161616"/>
<path d="M56.1235 62.4925C56.7105 61.7051 58.042 62.0201 58.6577 62.5498C59.0156 62.8505 59.259 63.2657 59.3735 63.7238C59.4022 63.867 59.4738 64.1677 59.4308 64.3252C59.2876 64.7404 58.987 64.6115 58.7293 64.4111C58.3713 64.139 58.0993 63.7525 57.6554 63.5807C57.4407 63.4948 57.2259 63.4804 56.9968 63.4948C56.7821 63.4948 56.5816 63.552 56.3669 63.5234C55.966 63.4661 55.4076 63.0939 56.0805 62.5784C56.2953 62.4066 55.9946 62.106 55.7799 62.2778C55.4506 62.5355 55.2788 62.9221 55.4219 63.3373C55.6224 63.8813 56.1378 63.9959 56.6675 63.9672C57.1973 63.9386 57.5409 63.9529 57.9704 64.3108C58.1709 64.4827 58.3427 64.6831 58.5718 64.8406C58.8724 65.0554 59.3163 65.2558 59.6456 64.9551C60.4044 64.2536 59.531 62.693 58.9297 62.2062C58.0707 61.5046 56.4957 61.3042 55.7799 62.2921C55.5937 62.4925 55.966 62.7073 56.1235 62.4925Z" fill="#161616"/>
<path d="M51.2399 63.1655C52.1705 62.8648 53.588 63.4518 54.1607 64.2106C54.2036 64.2679 54.2895 64.2106 54.2466 64.1534C53.6452 63.3373 52.2135 62.7359 51.2113 63.0652C51.1397 63.0795 51.1683 63.1798 51.2399 63.1655Z" fill="white"/>
<path d="M56.2235 62.5497C56.6387 62.0629 57.24 61.8481 57.87 61.977C57.9416 61.9913 57.9702 61.8911 57.8986 61.8767C57.24 61.7479 56.5814 61.9626 56.1519 62.4781C56.109 62.5353 56.1806 62.6069 56.2235 62.5497Z" fill="white"/>
<path d="M51.7726 56.4506C51.9158 56.8228 52.016 57.1951 52.0589 57.5817C52.0876 57.5673 52.1162 57.553 52.1448 57.5387C52.0732 57.4671 52.0017 57.4242 51.9158 57.3812C51.8728 57.3669 51.8299 57.3812 51.8299 57.4242C51.8299 57.553 51.8155 57.6676 51.8155 57.7964C51.8442 57.7821 51.8728 57.7678 51.9014 57.7535C51.701 57.5244 51.5435 58.0398 51.4862 58.14C51.4576 58.1973 51.5435 58.2546 51.5721 58.1973C51.5865 58.1687 51.7726 57.7678 51.8155 57.8251C51.8442 57.868 51.9014 57.8251 51.9014 57.7821C51.9014 57.6532 51.9158 57.5387 51.9158 57.4099C51.8871 57.4242 51.8585 57.4385 51.8299 57.4528C51.9158 57.4814 51.973 57.5244 52.0303 57.596C52.0589 57.6246 52.1305 57.6103 52.1162 57.553C52.0589 57.1521 51.973 56.7656 51.8155 56.3933C51.8442 56.3647 51.7439 56.3933 51.7726 56.4506Z" fill="white"/>
<path d="M56.1959 56.2645C56.0384 56.5652 55.9525 56.8659 55.9238 57.2095C55.9238 57.2381 55.9668 57.2667 55.9954 57.2667C56.1959 57.2095 56.2245 57.367 56.2388 57.5388C56.2388 57.5817 56.2961 57.6104 56.3247 57.5817C56.3963 57.6963 56.4536 57.7965 56.5252 57.911C56.5108 57.9826 56.6254 58.0113 56.6254 57.9397C56.654 57.7392 56.5252 57.2238 56.2531 57.5101C56.2818 57.5245 56.3104 57.5388 56.339 57.5531C56.3247 57.4242 56.2961 57.3097 56.2674 57.1808C56.2674 57.1522 56.2388 57.1379 56.2102 57.1379C56.11 57.1379 56.0384 57.1522 55.9525 57.1808C55.9811 57.1952 55.9954 57.2095 56.0241 57.2381C56.0384 56.9231 56.1243 56.6368 56.2818 56.3504C56.3247 56.2502 56.2245 56.1929 56.1959 56.2645Z" fill="white"/>
<path d="M65.1698 47.7744C65.3702 49.1488 65.7568 51.3251 66.5586 53.9022C68.248 59.2856 70.2382 61.5907 72.8726 67.8331C73.5312 69.3937 74.4618 71.7417 75.3781 74.7054C77.0819 75.2638 80.246 76.0226 84.1117 75.3497C90.4687 74.2473 94.2055 70.038 95.2507 68.7637C93.0745 64.7548 90.8839 60.4167 88.7506 55.7635C86.6316 51.1533 84.7847 46.7149 83.1811 42.4912C81.8353 41.9901 78.3132 40.8734 73.9893 41.9329C68.8207 43.1785 65.9716 46.7149 65.1698 47.7744Z" fill="#079893"/>
<path opacity="0.13" d="M77.7399 41.4461C78.2839 42.5915 78.9712 44.1521 79.7014 46.042C81.9921 52.0553 82.8226 56.9948 83.1232 58.7559C83.7675 62.3925 84.3259 68.0335 83.4096 75.2782C85.3997 75.2209 86.8744 74.7627 87.805 74.4048C90.4681 73.3453 92.4009 71.4984 94.2622 69.7087C94.6917 69.3078 95.021 68.9499 95.2358 68.7351C94.6201 67.6756 93.6895 66.0148 92.6014 63.9388C89.4515 57.9541 87.3898 52.9859 85.6574 48.7766C85.0418 47.3019 84.197 45.1829 83.2091 42.6201C82.4217 42.2908 81.4338 41.9615 80.2741 41.7468C79.3291 41.5606 78.4701 41.4747 77.7399 41.4461Z" fill="#494949"/>
<path opacity="0.1" d="M87.2186 52.7997C87.462 55.3625 87.6625 57.5102 87.8056 59.0564C88.3497 65.1127 88.4499 66.7878 88.4929 67.8617C88.6074 70.3958 88.6074 72.4719 88.5931 73.832C89.4808 73.517 90.6262 73.0016 91.8145 72.1712C93.3035 71.126 94.3058 69.9806 94.95 69.1359C92.3729 63.681 89.7958 58.2403 87.2186 52.7997Z" fill="#494949"/>
<path d="M77.0532 38.9262C76.366 39.1266 75.9937 40.1145 75.7646 41.1311C75.3065 43.2071 75.5499 44.9824 75.6358 45.5981C76.051 48.3327 76.7955 50.3801 77.0389 51.053C77.6688 52.7139 78.5279 54.9331 80.4035 57.2954C81.4773 58.6413 82.3936 59.801 84.083 60.66C85.0709 61.1754 87.1183 62.2206 89.223 61.3902C89.3232 61.3473 91.3849 60.5025 91.9147 58.6985C92.0292 58.2976 92.0578 57.8968 92.1008 57.1093C92.1294 56.6368 92.1437 55.8064 92.0435 54.7756C91.9004 53.4154 91.5997 52.3559 91.3706 51.5971C90.3541 48.2325 89.853 46.5574 88.7935 45.097C87.9201 43.8943 86.9322 42.5199 85.3 42.3337C85.1568 42.3194 83.5103 42.1619 82.5368 43.3073C81.8638 44.1091 81.9068 45.097 81.9211 45.7556C81.9641 47.0155 82.4509 47.9175 83.2097 49.3063C83.9685 50.6808 84.2692 50.8526 85.1712 52.4848C86.4025 54.7183 86.2736 54.9331 86.2163 54.9903C85.9729 55.2051 84.9994 54.5322 84.7846 54.3747C84.5842 54.2315 84.2978 54.0311 83.9399 53.6445C82.8231 52.3989 82.1645 50.5233 82.1645 50.5233C81.5775 49.3636 80.8044 47.7171 80.0169 45.6267C80.2603 44.6961 80.6325 44.0375 80.9332 43.608C81.42 42.9207 81.9641 42.4483 82.0929 41.5892C82.1502 41.2599 82.1216 40.9736 82.0929 40.7874C82.3363 40.5584 82.4079 40.2147 82.279 39.9284C82.1216 39.5991 81.735 39.4416 81.3627 39.5561C81.3627 39.5132 81.3198 39.1409 80.9905 38.9405C80.7184 38.7687 80.3462 38.7973 80.0742 38.9978C79.6446 38.6685 79.2867 38.5826 79.029 38.5682C78.7283 38.5539 78.5852 38.6255 77.8693 38.7544C77.2679 38.9119 77.225 38.8832 77.0532 38.9262Z" fill="white"/>
<path d="M80.6455 44.9681C81.032 44.0089 81.5188 43.1355 82.0486 42.2478C82.3206 41.7897 82.6356 41.217 82.2633 40.7159C81.4186 39.6277 80.2732 41.0165 79.9153 41.7324C79.7864 41.9758 80.1587 42.1905 80.2875 41.9472C80.5023 41.5176 80.7457 40.9879 81.2468 40.8447C81.39 40.7731 81.5331 40.7731 81.6906 40.8161C81.7336 41.1454 81.7765 41.4747 81.8338 41.804C81.7908 41.9901 81.5331 42.2908 81.4329 42.4626C80.9748 43.2214 80.6025 44.0232 80.2589 44.8393C80.13 45.1113 80.5452 45.2115 80.6455 44.9681Z" fill="black"/>
<path d="M75.964 46.8151C75.7493 45.2831 75.7206 43.7225 75.8925 42.1906C76.0499 40.7875 76.3506 38.6542 78.2978 39.0551C78.5698 39.1123 78.6844 38.6971 78.4123 38.6398C76.8804 38.3249 75.9211 39.413 75.6634 40.8018C75.2768 42.8205 75.2625 44.8822 75.5488 46.9296C75.5918 47.2017 76.007 47.0871 75.964 46.8151Z" fill="black"/>
<path d="M77.7525 40.2147C77.91 39.8425 78.0818 39.4559 78.3825 39.1696C78.8979 38.6684 79.5565 38.9405 80.1149 39.2125C80.3583 39.3414 80.5731 38.9691 80.3297 38.8403C79.7426 38.5396 79.084 38.2532 78.4541 38.5825C77.91 38.8689 77.6237 39.4559 77.3946 39.9857C77.28 40.2577 77.6523 40.4724 77.7525 40.2147Z" fill="black"/>
<path d="M79.0276 40.3436C79.5574 39.6564 80.2589 38.9405 81.1752 39.4845C81.4186 39.6277 81.6334 39.2555 81.39 39.1123C80.3019 38.468 79.3856 39.1696 78.727 40.0286C78.5552 40.2577 78.8558 40.5584 79.0276 40.3436Z" fill="black"/>
<path d="M79.988 40.6586C80.26 40.3722 80.5464 40.0716 80.9186 39.9284C81.3625 39.7423 82.1786 39.8568 82.0068 40.5297C81.9495 40.8018 82.3504 40.9163 82.422 40.6443C82.5652 40.0573 82.1786 39.5132 81.5916 39.413C80.8041 39.2698 80.1885 39.8425 79.6874 40.3579C79.5012 40.5584 79.8019 40.859 79.988 40.6586Z" fill="black"/>
<path d="M80.1578 44.7533C79.6567 45.8271 80.2724 46.9152 80.7019 47.9031C81.3032 49.2919 81.9332 50.6807 82.7063 51.9693C83.7085 53.6587 85.8848 56.694 88.1613 54.9616C88.376 54.7898 88.1613 54.4176 87.9465 54.5894C85.7559 56.2645 83.7229 52.8856 82.8352 51.325C82.3197 50.4087 81.8616 49.4637 81.4321 48.5045C81.0025 47.5452 80.0433 46.0419 80.5444 44.9681C80.6446 44.7247 80.2724 44.4956 80.1578 44.7533Z" fill="black"/>
<path d="M82.0064 43.6652C80.7465 47.9461 84.6122 51.2678 86.0296 54.933C86.1298 55.1907 86.545 55.0762 86.4448 54.8185C85.0703 51.2678 81.2046 47.9175 82.4216 43.7798C82.4932 43.5077 82.078 43.3932 82.0064 43.6652Z" fill="black"/>
<path d="M75.5342 46.7005C76.2644 50.7094 77.9682 54.5035 80.4738 57.7249C81.6907 59.2712 83.0795 60.7746 84.9981 61.4045C86.6302 61.9343 88.8781 62.2063 90.3957 61.2184C92.0565 60.1589 92.2713 57.997 92.3429 56.2073C92.3572 55.9353 91.9277 55.9353 91.9134 56.2073C91.8275 58.5124 91.312 61.0609 88.5774 61.3902C86.0575 61.6909 83.7095 60.6887 82.0057 58.8703C78.8416 55.5057 76.7655 51.1103 75.9351 46.586C75.9065 46.314 75.4913 46.4285 75.5342 46.7005Z" fill="black"/>
<path d="M82.2922 44.2379C82.7504 42.4053 84.9553 42.2764 86.3297 43.0782C87.7328 43.8943 88.6921 45.369 89.3937 46.7864C90.1239 48.2754 90.6536 49.879 91.169 51.4539C91.756 53.2579 92.1999 55.1478 91.8992 57.052C91.8563 57.324 92.2715 57.4386 92.3144 57.1666C92.658 54.9903 92.114 52.8856 91.4124 50.8239C90.7681 48.9484 90.1382 47.0155 89.0644 45.326C88.1624 43.8943 86.8165 42.4053 85.0412 42.1619C83.6667 41.9758 82.2063 42.7203 81.8627 44.1234C81.8054 44.3954 82.2206 44.51 82.2922 44.2379Z" fill="black"/>
<path opacity="0.1" d="M77.5835 38.74C78.7289 38.2818 79.8457 38.7829 80.1177 38.9118C79.3159 39.9713 77.6122 42.5341 77.469 46.1564C77.2542 51.3107 80.3325 54.7325 81.4206 55.9495C82.8237 57.5101 84.6563 59.5432 87.0187 59.2569C88.3502 59.0994 89.6102 58.2117 90.2544 57.0806C90.8987 55.9495 90.8558 54.7182 90.0826 51.5398C88.8943 46.7291 87.5914 43.9086 87.7775 43.8227C87.9637 43.7368 89.5099 46.1564 90.6696 49.1917C90.7842 49.5067 91.7435 52.0552 92.0871 55.563C92.3018 57.7249 92.1157 58.6126 91.6719 59.4C90.9846 60.617 89.8679 61.1611 89.4383 61.3472C87.7059 62.0774 86.0451 61.562 85.2577 61.2899C82.4371 60.345 80.9338 58.0542 79.4162 55.7491C77.0824 52.184 76.4381 49.1344 75.8225 46.1994C75.393 44.1663 75.1066 41.8039 76.1804 40.0715C76.3665 39.7136 76.7817 39.0693 77.5835 38.74Z" fill="#494949"/>
<path d="M56.9111 31.7674C56.8681 32.4403 57.1115 33.1991 57.627 34.7168C58.1997 36.4205 58.8153 38.2388 60.3616 40.0285C61.3495 41.1739 62.5522 42.577 64.5995 42.9779C66.2174 43.2929 67.5776 42.8347 68.2648 42.5484C68.4223 42.9779 68.6371 43.4361 68.9091 43.9085C69.625 45.1685 70.5126 46.0562 71.2142 46.6432C71.7439 46.5859 72.7748 46.3711 73.6625 45.5694C74.3497 44.9394 74.679 44.1949 74.8795 43.7081C75.1228 43.1354 75.2517 42.6343 75.309 42.2764C74.8795 42.0186 74.407 41.675 73.9488 41.2025C72.5171 39.7422 72.1305 38.0098 72.016 37.1794C72.2021 35.5329 72.4025 33.872 72.5887 32.2255C72.8034 32.2542 73.2616 32.2828 73.6625 32.0108C74.1063 31.7101 74.1922 31.209 74.3068 30.6506C74.4213 30.0922 74.5502 29.3764 74.2352 28.5603C74.092 28.2023 73.6338 27.0569 72.6603 26.9853C72.0017 26.9281 71.3287 27.3719 70.9422 28.0592C70.1118 27.2574 68.3364 25.84 65.8452 25.6109C61.5356 25.21 57.1545 28.5746 56.9111 31.7674Z" fill="white"/>
<path d="M63.2715 38.3105C63.157 38.6111 63.4863 39.0407 63.7297 39.2554C64.4026 39.8424 65.5909 39.8138 66.45 39.4129C67.6526 38.8545 68.0392 37.6519 68.211 37.1078C68.4115 36.5065 68.6692 35.719 68.254 35.0175C67.896 34.4018 67.2661 34.1871 67.0227 34.1155C66.7793 34.6166 66.5932 34.9888 66.45 35.2322C66.2782 35.5329 66.2209 35.6331 66.1207 35.8622C65.9775 36.1629 65.9632 36.2774 65.7627 36.5494C64.9466 37.6089 63.8299 37.9955 63.8299 37.9955C63.5722 38.0528 63.3431 38.11 63.2715 38.3105Z" fill="black"/>
<path d="M57.1433 33.4855C58.2744 37.0219 59.6918 41.1454 63.3427 42.8062C64.8318 43.4791 66.6071 43.6079 68.1248 42.9493C69.8285 42.2192 70.8308 40.5297 71.518 38.8975C72.42 36.7642 72.8066 34.4448 72.6634 32.1397C72.6491 31.8677 72.2195 31.8677 72.2339 32.1397C72.377 34.545 71.9475 36.9647 70.931 39.1552C69.9431 41.2885 68.3825 42.9923 65.8769 42.9637C60.8372 42.9064 58.7898 37.3512 57.5299 33.3853C57.4726 33.099 57.0717 33.2135 57.1433 33.4855Z" fill="black"/>
<path d="M71.1014 28.4601C71.1157 27.601 72.0034 27.0856 72.7909 27.329C73.521 27.5724 73.9792 28.2883 74.1367 29.0041C74.2799 29.6914 74.2226 30.4931 74.0078 31.1517C73.836 31.6958 73.6213 31.9822 72.9627 31.9822C72.7336 31.9822 72.5045 31.8962 72.2611 31.8962C71.9891 31.8962 71.9891 32.3258 72.2611 32.3258C72.7479 32.3258 73.2204 32.5548 73.6929 32.3115C74.0365 32.1396 74.2369 31.796 74.3801 31.4381C74.7523 30.4645 74.7953 29.1473 74.3228 28.188C73.9362 27.4006 73.1058 26.7277 72.1895 26.8279C71.3448 26.9138 70.6862 27.601 70.6719 28.4457C70.6719 28.7321 71.1014 28.7321 71.1014 28.4601Z" fill="black"/>
<path d="M71.9466 36.3061C71.9036 38.6684 72.9488 40.9306 74.8101 42.4053C75.0248 42.5771 75.3255 42.2764 75.1107 42.1046C73.3354 40.7015 72.3332 38.5825 72.3761 36.3061C72.3761 36.034 71.9466 36.034 71.9466 36.3061Z" fill="black"/>
<path d="M68.2521 42.7202C68.7961 44.2235 69.6838 45.5407 70.8722 46.6002C71.0726 46.7863 71.3876 46.4856 71.1728 46.2995C70.0274 45.283 69.1827 44.0374 68.653 42.6056C68.5671 42.3479 68.1519 42.4625 68.2521 42.7202Z" fill="black"/>
<path d="M70.9722 46.7434C72.2035 47.1872 73.4348 46.1421 74.1936 45.2687C74.9954 44.3524 75.697 43.1641 75.3533 41.9184C75.2817 41.6464 74.8665 41.7609 74.9381 42.033C75.2245 43.1211 74.5802 44.1806 73.8786 44.968C73.22 45.7126 72.1462 46.7148 71.0724 46.3282C70.829 46.228 70.7145 46.6432 70.9722 46.7434Z" fill="black"/>
<path d="M58.7438 31.9822C58.5577 31.4524 58.9872 30.8797 59.3022 30.5075C59.7747 29.9205 60.5049 29.763 61.049 30.3643C61.6789 31.0515 61.8507 32.2828 61.9366 33.1705C61.9939 33.7862 61.7791 34.5736 62.1371 35.1177C62.5236 35.7047 63.2395 36.0483 63.9124 36.1772C64.1845 36.2344 64.299 35.8192 64.027 35.762C63.669 35.6904 63.3541 35.5758 63.0391 35.3754C62.5236 35.0318 62.4091 34.6595 62.3948 34.0439C62.3805 33.5141 62.3662 32.9987 62.2803 32.469C62.1371 31.5956 61.8937 30.4788 61.1778 29.8918C60.5765 29.3907 59.832 29.405 59.245 29.9061C58.6866 30.3929 58.0423 31.3236 58.3143 32.0824C58.4289 32.3544 58.8441 32.2399 58.7438 31.9822Z" fill="black"/>
<path d="M62.7131 28.8897C62.8133 27.1573 64.9752 26.5273 65.9774 27.9447C66.1349 28.1738 66.5072 27.9591 66.3497 27.73C65.1041 25.9546 62.4124 26.7134 62.2836 28.8897C62.2692 29.1617 62.6988 29.1617 62.7131 28.8897Z" fill="black"/>
<path d="M60.7635 33.1275C60.5631 32.8555 60.4486 32.5548 60.4342 32.2255C60.3197 32.2828 60.2195 32.3544 60.1049 32.4116C60.4342 32.6264 60.6061 32.97 60.5917 33.3566C60.6776 33.285 60.7779 33.2134 60.8638 33.1561C60.5058 33.0273 60.2768 32.6264 60.3483 32.2541C60.2481 32.2971 60.1336 32.34 60.0334 32.383C60.2052 32.4832 60.3483 32.6264 60.4486 32.8125C60.4915 32.8984 60.5201 32.9843 60.5345 33.0845C60.5345 33.1561 60.5345 33.0702 60.5201 33.0416C60.4915 32.9843 60.4629 32.9414 60.4342 32.8841C60.3197 32.6264 59.9475 32.8555 60.062 33.0989C60.1479 33.2993 60.2911 33.5141 60.5488 33.5284C60.7635 33.5427 60.9497 33.3995 60.9783 33.1848C61.0213 32.7123 60.649 32.2398 60.2624 32.0251C60.1479 31.9535 59.9761 32.0107 59.9475 32.1539C59.8329 32.7696 60.1765 33.3709 60.7635 33.5857C60.9067 33.6286 61.0356 33.5141 61.0356 33.3852C61.0499 32.8411 60.7922 32.3544 60.334 32.068C60.2052 31.9821 60.0047 32.0966 60.0047 32.2541C60.019 32.655 60.1479 33.0416 60.3913 33.3709C60.5631 33.5713 60.9354 33.3566 60.7635 33.1275Z" fill="black"/>
<path d="M64.7737 30.3644C64.7021 30.2784 64.6448 30.1782 64.6162 30.0637C64.6162 30.035 64.5875 29.8632 64.6162 29.8489C64.6448 29.8346 64.7164 30.0637 64.7307 30.078C64.7593 30.1925 64.745 30.3214 64.6878 30.4216C64.788 30.393 64.8882 30.3644 64.9884 30.35C64.6305 30.1496 64.4587 29.7773 64.5159 29.3764C64.4014 29.4337 64.3012 29.5053 64.1866 29.5626C64.5875 29.7344 64.8166 30.1496 64.7164 30.5791C64.8023 30.5362 64.8882 30.4789 64.9741 30.4359C64.7593 30.3644 64.5875 30.1782 64.5446 29.9491C64.5446 29.9348 64.5446 29.806 64.5303 29.806C64.5016 29.8203 64.473 29.8346 64.43 29.8489C64.4444 29.8776 64.473 29.9205 64.4873 29.9491C64.5446 30.1066 64.5446 30.2641 64.5303 30.4359C64.6591 30.3787 64.7737 30.3357 64.9025 30.2784C64.7737 30.1782 64.6734 30.0637 64.6019 29.9062C64.473 29.6628 64.1007 29.8776 64.2296 30.121C64.3155 30.2928 64.4444 30.4503 64.6019 30.5791C64.7593 30.708 64.9455 30.6221 64.9741 30.4216C65.0027 30.1353 64.9741 29.7487 64.7593 29.5339C64.5875 29.3621 64.2726 29.3478 64.158 29.6055C63.9289 30.1066 64.4157 30.6937 64.8596 30.8511C64.9741 30.8941 65.103 30.8082 65.1173 30.708C65.2748 30.1066 64.9741 29.448 64.3871 29.2046C64.2296 29.1331 64.0864 29.219 64.0578 29.3908C63.9862 29.9348 64.2726 30.4646 64.745 30.7366C64.8309 30.7939 64.9884 30.7652 65.0457 30.665C65.1602 30.393 65.1889 30.121 65.0886 29.8489C65.0027 29.6342 64.8166 29.4051 64.5732 29.4337C63.9433 29.5053 64.2153 30.4073 64.473 30.6937C64.6591 30.8798 64.9598 30.5648 64.7737 30.3644Z" fill="black"/>
<path d="M68.5113 42.6773C68.5113 42.6916 68.5113 42.6916 68.497 42.7059C68.5829 42.6629 68.6688 42.6057 68.7547 42.5627C68.7404 42.5627 68.726 42.5484 68.7117 42.5484C68.7547 42.6486 68.7976 42.7632 68.8406 42.8634C68.8692 42.8061 69.2558 42.62 69.3703 42.5198C69.628 42.305 69.8428 42.0187 70.0432 41.7466C70.4871 41.1596 70.8164 40.5153 71.0884 39.8424C70.9452 39.7995 70.8164 39.7708 70.6732 39.7279C70.2437 40.9592 69.943 42.6773 68.7404 43.4075C68.8406 43.5077 68.9408 43.6079 69.041 43.7081C69.3274 43.2786 69.6137 42.8348 69.9001 42.4052C70.0289 42.2048 69.7283 41.9614 69.5564 42.1475C69.3274 42.3909 69.084 42.6486 68.8549 42.892C68.9551 42.9923 69.0553 43.0925 69.1556 43.1927C69.3703 42.935 69.5708 42.6629 69.7569 42.3909C69.9001 42.1905 69.5851 41.9471 69.4133 42.1332C69.2128 42.348 69.0124 42.5055 68.7547 42.6343C68.8692 42.6916 68.9694 42.7632 69.084 42.8204C69.084 42.7775 69.0697 42.7345 69.0697 42.6916C69.041 42.4196 68.6115 42.4196 68.6401 42.6916C68.6401 42.7345 68.6544 42.7775 68.6544 42.8204C68.6688 42.9779 68.8263 43.0925 68.9837 43.0066C69.2701 42.8491 69.4992 42.6773 69.7283 42.4339C69.6137 42.348 69.4992 42.2621 69.3846 42.1762C69.2128 42.4196 69.041 42.6629 68.8549 42.892C68.6831 43.1068 68.9694 43.4075 69.1556 43.1927C69.3846 42.9493 69.628 42.6916 69.8571 42.4482C69.7426 42.3623 69.628 42.2764 69.5135 42.1905C69.2271 42.62 68.9408 43.0638 68.6544 43.4934C68.5399 43.6795 68.769 43.8942 68.9551 43.794C70.2723 42.9923 70.6159 41.2169 71.0884 39.8567C71.1743 39.5847 70.7734 39.4988 70.6732 39.7422C70.3725 40.4724 69.986 41.1883 69.4705 41.7896C69.2271 42.0759 68.8406 42.2334 68.6115 42.4911C68.5542 42.5484 68.497 42.5627 68.4683 42.6343C68.3967 42.7632 68.454 42.892 68.5972 42.9493C68.6115 42.9493 68.6258 42.9636 68.6401 42.9636C68.7547 43.0066 68.8692 42.9207 68.8978 42.8204C68.8978 42.8061 68.8978 42.8061 68.9122 42.7918C69.0267 42.5341 68.6115 42.4196 68.5113 42.6773Z" fill="black"/>
<path d="M70.0985 42.2478C70.2274 42.1047 70.3133 41.9615 70.3562 41.7897C70.4278 41.532 70.0985 41.4461 69.9697 41.6179C69.669 42.0188 69.3683 42.4196 69.0677 42.8205C68.8959 43.0353 69.2681 43.2501 69.4399 43.0353C69.7406 42.6344 70.0413 42.2335 70.3419 41.8326C70.2131 41.7754 70.0842 41.7181 69.9554 41.6608C69.9267 41.761 69.8838 41.847 69.8122 41.9329C69.6117 42.1619 69.9267 42.4626 70.0985 42.2478Z" fill="black"/>
<path d="M63.485 38.697C63.0842 37.8953 63.5137 37.5946 64.3155 37.3798C64.4157 37.3512 64.5159 37.3369 64.6018 37.2939C64.9454 37.1364 65.1459 36.7928 65.289 36.4635C65.5181 35.9767 65.647 35.447 65.9476 35.0031C66.5776 34.0439 67.6944 34.0868 68.0523 35.2322C68.4102 36.3776 67.9664 37.6519 67.2076 38.5252C66.8353 38.9548 66.3772 39.3556 65.8331 39.5418C65.3606 39.7136 64.9454 39.6563 64.4873 39.4559C64.158 39.3127 63.5566 39.0263 63.4707 38.6541C63.4135 38.3821 62.9982 38.4966 63.0555 38.7686C63.213 39.5131 64.3298 39.9713 65.0027 40.0715C65.7329 40.1861 66.4201 39.8281 66.9785 39.37C68.2241 38.3391 68.9972 36.5208 68.3959 34.9459C67.7516 33.2421 66.0049 33.8721 65.3606 35.2179C65.1602 35.6331 65.06 36.3347 64.7307 36.6353C64.3155 37.0219 63.7857 36.8787 63.3562 37.1794C62.7549 37.6089 62.8121 38.3677 63.1128 38.9548C63.2416 39.1695 63.6139 38.9548 63.485 38.697Z" fill="black"/>
<path d="M63.1982 38.2532C65.4174 38.1959 66.4912 36.1342 66.978 34.2443C67.0496 33.9723 66.6343 33.8578 66.5628 34.1298C66.1332 35.8192 65.2026 37.7664 63.1982 37.8237C62.9261 37.838 62.9261 38.2675 63.1982 38.2532Z" fill="black"/>
<path d="M57.3138 33.2564C57.0561 33.3996 55.4955 31.6958 54.8369 29.4193C54.3501 27.7585 54.4933 26.2838 54.6651 25.3532C54.9085 24.6087 55.2521 23.8069 55.7246 22.9908C57.7577 19.4973 60.9648 17.8508 62.6256 17.1493C62.282 17.4786 61.8811 17.9081 61.5088 18.4522C60.9934 19.168 60.6641 19.841 60.4493 20.3993C60.9361 19.9841 61.4945 19.5689 62.0958 19.168C63.4417 18.2661 64.7446 17.6218 65.8756 17.1636C65.7038 17.8938 65.5177 18.624 65.3459 19.3399C65.7468 19.1108 66.3052 18.7815 66.9924 18.4522C67.7512 18.0942 69.3118 17.3497 69.5552 17.679C69.6268 17.7793 69.5409 17.8938 69.412 18.309C69.2402 18.8531 69.183 19.3112 69.1543 19.6119C69.5982 19.5403 70.0993 19.483 70.6433 19.4687C71.2447 19.4401 71.7887 19.4687 72.2755 19.5117C72.1037 20.1703 71.9319 20.8146 71.7601 21.4732C72.1037 21.602 72.5905 21.8454 73.0916 22.2463C74.4375 23.3487 74.824 24.8377 74.9242 25.4248C75.139 26.8279 74.7954 28.0019 74.5377 28.6462C73.8504 27.1858 72.4903 26.6131 71.7171 26.971C71.2447 27.1858 70.7006 27.873 70.7579 28.5746C70.7722 28.7321 70.8151 28.8753 70.8581 28.9755C70.357 28.5173 69.5982 27.9017 68.6103 27.329C67.6224 26.7563 66.5199 26.112 65.0595 25.9259C62.3106 25.5679 60.163 27.0713 59.5903 27.4865C58.7026 28.1164 57.2565 29.133 56.9988 30.7508C56.7411 32.111 57.5143 33.1562 57.3138 33.2564Z" fill="#1E2C47"/>
<path opacity="0.11" d="M68.2087 26.9711C68.6526 27.9733 69.2539 29.5339 69.5832 31.4954C69.9268 33.4426 70.3564 35.9481 69.3112 38.7257C68.9532 39.6707 68.1085 41.489 66.1041 43.1928C66.5766 43.1784 67.3926 43.0925 68.2517 42.6344C69.6548 41.9042 70.2704 40.6872 70.4566 40.2577C71.1295 40.9163 72.0315 41.9471 72.7187 43.4075C73.1053 44.2236 73.3487 44.9824 73.4919 45.6124C73.8784 45.2688 74.5943 44.5243 74.9236 43.3502C75.0525 42.8921 75.0954 42.4769 75.0954 42.1333C74.265 41.6751 73.7353 41.1167 73.4346 40.7588C73.3057 40.6013 72.0315 38.9977 72.1031 36.7785C72.1317 35.9768 72.3035 35.9625 72.4324 34.7312C72.5469 33.6287 72.4896 32.6981 72.4324 32.0824C73.1626 32.3831 73.5348 32.2399 73.7066 32.1397C74.0359 31.9393 74.1218 31.5813 74.4225 29.763C74.58 28.7894 74.6659 28.3026 74.6945 28.0449C74.8663 26.6561 74.9522 25.9546 74.8663 25.3962C74.6229 23.807 73.6064 22.7475 73.2628 22.4182C72.6901 21.8598 72.1031 21.5448 71.7165 21.373C71.8883 20.7717 72.0458 20.156 72.2176 19.5547C71.4015 20.514 70.6427 21.1726 70.1273 21.6021C68.8387 22.6329 68.0942 22.8763 67.2065 23.8642C66.505 24.6374 66.1041 25.4248 65.875 25.9546C66.6625 26.3125 67.4356 26.6418 68.2087 26.9711Z" fill="#494949"/>
<path opacity="0.17" d="M62.311 17.3068C61.8242 17.5215 60.6788 18.1229 59.8771 19.3971C59.6766 19.7121 59.2328 20.4995 59.1039 21.602C58.9608 22.819 59.2614 23.7782 59.4332 24.2507C59.4905 23.0624 59.7768 21.1438 60.9222 19.168C61.3661 18.4235 61.8529 17.8079 62.311 17.3068Z" fill="#494949"/>
<path opacity="0.08" d="M72.4327 32.1539C72.3898 32.1396 72.3038 32.2971 71.9889 33.3852C71.5593 34.8599 71.3303 35.948 71.2014 36.4921C71.0153 37.2796 70.7003 38.3963 70.1133 39.7422C71.1298 39.9426 72.1464 40.143 73.1629 40.3292C72.7906 39.5131 72.3468 38.339 72.175 36.8787C71.903 34.3731 72.5759 32.1826 72.4327 32.1539Z" fill="#494949"/>
</svg>
