<svg width="24" height="24" viewBox="0 0 24 24" fill="none" xmlns="http://www.w3.org/2000/svg">
<rect width="24" height="24" rx="5" fill="#EEFFFE"/>
<path d="M18.4284 9.49281V9.42853C18.4284 7.72352 17.7511 6.08837 16.5455 4.88296C15.34 3.67732 13.7048 3 11.9999 3C10.295 3 8.65978 3.67732 7.45437 4.88296C6.24874 6.08845 5.57143 7.72359 5.57143 9.42853V9.49281C4.84592 9.64205 4.19402 10.0368 3.72566 10.6107C3.25714 11.1843 3.00099 11.9021 3 12.6428V13.2857C3.001 14.1379 3.33994 14.9548 3.94261 15.5574C4.54513 16.16 5.36208 16.499 6.21428 16.5H7.5C7.84094 16.5 8.16798 16.3645 8.40918 16.1235C8.65025 15.8822 8.78571 15.5552 8.78571 15.2143V10.7142C8.78571 10.3733 8.65025 10.0463 8.40918 9.80506C8.16796 9.56399 7.84093 9.42853 7.5 9.42853H6.85714C6.85714 7.5912 7.83737 5.89339 9.42857 4.97479C11.0198 4.05598 12.9802 4.05598 14.5714 4.97479C16.1626 5.89346 17.1428 7.59131 17.1428 9.42853H16.5C16.159 9.42853 15.832 9.56399 15.5908 9.80506C15.3497 10.0463 15.2143 10.3733 15.2143 10.7142V15.2143C15.2143 15.5552 15.3497 15.8823 15.5908 16.1235C15.832 16.3645 16.1591 16.5 16.5 16.5H17.1428V17.7857C17.1428 17.9562 17.0751 18.1198 16.9546 18.2403C16.834 18.3608 16.6705 18.4286 16.5 18.4286H14.4532C14.3206 18.0539 14.0756 17.7292 13.7516 17.499C13.4275 17.2688 13.0403 17.1444 12.6428 17.1428H11.3571C10.668 17.1428 10.0313 17.5105 9.68696 18.1071C9.34243 18.7038 9.34243 19.4391 9.68696 20.0357C10.0313 20.6324 10.668 21 11.3571 21H12.6428C13.0403 20.9984 13.4274 20.874 13.7516 20.6438C14.0756 20.4137 14.3206 20.089 14.4532 19.7143H16.5C17.0116 19.7143 17.502 19.5111 17.8638 19.1495C18.2254 18.7877 18.4286 18.2973 18.4286 17.7857V16.5C18.4255 16.4783 18.4212 16.4568 18.4156 16.4357C19.1437 16.2893 19.7986 15.8957 20.2698 15.3216C20.7407 14.7475 20.9987 14.0283 21 13.2857V12.6428C20.999 11.9021 20.7429 11.1843 20.2743 10.6106C19.806 10.0368 19.1541 9.64205 18.4286 9.49279L18.4284 9.49281ZM7.49985 10.7142V15.2143H6.21414C5.70257 15.2143 5.21212 15.0111 4.85036 14.6495C4.48875 14.2877 4.28557 13.7973 4.28557 13.2857V12.6428C4.28557 12.1313 4.48875 11.6408 4.85036 11.279C5.21211 10.9174 5.70257 10.7142 6.21414 10.7142H7.49985ZM12.6427 19.7143H11.357C11.1273 19.7143 10.915 19.5917 10.8002 19.3929C10.6854 19.194 10.6854 18.9489 10.8002 18.75C10.915 18.5511 11.1273 18.4286 11.357 18.4286H12.6427C12.8724 18.4286 13.0847 18.5511 13.1995 18.75C13.3142 18.9489 13.3142 19.194 13.1995 19.3929C13.0847 19.5917 12.8724 19.7143 12.6427 19.7143ZM19.7141 13.2857C19.7141 13.7973 19.5109 14.2877 19.1493 14.6495C18.7876 15.0111 18.2971 15.2143 17.7856 15.2143H16.4998V10.7142H17.7856C18.2971 10.7142 18.7876 10.9174 19.1493 11.279C19.5109 11.6408 19.7141 12.1313 19.7141 12.6428V13.2857Z" fill="#079893"/>
</svg>
