<svg width="142" height="116" viewBox="0 0 142 116" fill="none" xmlns="http://www.w3.org/2000/svg">
<circle cx="97.8429" cy="24.4633" r="1.797" fill="#EC615B"/>
<circle cx="99.748" cy="20.4397" r="0.837865" fill="#EC615B"/>
<circle cx="44.8145" cy="9.51397" r="0.859914" fill="#EC615B"/>
<circle cx="101.083" cy="109.562" r="1.45524" fill="#EC615B"/>
<circle cx="34.8605" cy="115.328" r="0.672497" fill="#EC615B"/>
<circle cx="43.2585" cy="65.6286" r="0.694546" fill="#EC615B"/>
<circle cx="44.6271" cy="69.1901" r="0.672497" fill="#2291D0"/>
<circle cx="43.8208" cy="87.3471" r="1.2568" fill="#2291D0"/>
<circle cx="96.8397" cy="16.3824" r="0.793767" fill="#2291D0"/>
<circle cx="66.6423" cy="17.8708" r="0.694546" fill="#2291D0"/>
<circle cx="4.71668" cy="72.3646" r="0.529178" fill="#2291D0"/>
<circle cx="99.2424" cy="113.332" r="1.32294" fill="#2291D0"/>
<circle cx="113.41" cy="0.694546" r="0.694546" fill="#2291D0"/>
<path d="M45.9273 31.9162C45.817 31.2326 45.7178 29.8656 46.8092 29.9758C47.2061 30.0199 47.4266 30.3727 47.8676 30.2184C48.6944 29.9317 48.507 28.8624 48.8488 28.245C49.411 27.2528 50.5025 28.697 51.3403 28.2229C51.6159 28.0686 51.6821 27.782 51.6711 27.4843C51.649 26.3708 52.6302 26.448 53.435 26.6685C53.6445 26.7236 53.7327 26.4039 53.5232 26.3488C52.7074 26.1283 51.3514 26.0511 51.3183 27.2307C51.3073 27.5174 51.4616 27.804 51.0427 27.9804C50.9104 28.0355 50.6899 27.9694 50.5686 27.9363C50.282 27.8481 50.0284 27.6497 49.7307 27.5725C49.3449 27.4622 48.9701 27.5394 48.7055 27.8481C48.3747 28.245 48.3858 28.7852 48.2314 29.2482C48.066 29.7443 47.7463 30.031 47.2061 29.7884C46.9856 29.6892 46.7872 29.601 46.5336 29.6341C45.3981 29.7884 45.4532 31.1665 45.5965 32.0044C45.6406 32.2138 45.9604 32.1256 45.9273 31.9162Z" fill="#2291D0"/>
<path d="M47.2281 32.5554C47.3163 31.8719 47.8675 31.5742 48.5069 31.5742C48.8487 31.5742 49.1904 31.6293 49.5212 31.5081C50.2708 31.2214 50.1275 30.4056 50.3039 29.7662C50.6347 28.5535 52.1671 29.3032 53.016 29.1047C53.5892 28.9614 54.0743 28.3881 53.8318 27.7818C53.7546 27.5833 53.4349 27.6715 53.5121 27.87C53.8869 28.785 52.6081 28.8401 52.0678 28.774C51.671 28.7299 51.2851 28.6637 50.8882 28.763C50.2598 28.9283 50.0173 29.3914 49.9291 29.9867C49.8519 30.5379 49.8629 31.1443 49.1463 31.2325C48.7605 31.2766 48.3746 31.1663 47.9888 31.2545C47.3714 31.3978 46.9745 31.916 46.8973 32.5334C46.8643 32.7649 47.195 32.7649 47.2281 32.5554Z" fill="#2291D0"/>
<path d="M70.0044 5.47942C69.6186 5.9645 69.2107 6.55983 69.3981 7.21027C69.5524 7.73945 69.9714 7.93789 70.4785 7.90482C70.7762 7.88277 71.0848 7.8056 71.3274 8.07019C71.5148 8.26863 71.3935 8.68756 71.3384 8.90805C71.2502 9.24981 71.0848 9.58055 71.1179 9.94436C71.173 10.4405 71.5699 10.8263 72.0771 10.7161C72.2865 10.672 72.1983 10.3523 71.9889 10.3964C71.0297 10.6169 71.6912 9.0183 71.7353 8.63244C71.7684 8.31273 71.7132 7.95994 71.4707 7.72843C71.2282 7.49691 70.9305 7.51896 70.6218 7.55203C70.1367 7.60716 69.6847 7.45281 69.6627 6.86851C69.6517 6.42753 69.9603 6.03065 70.2249 5.69991C70.3793 5.55659 70.1367 5.31405 70.0044 5.47942Z" fill="#2291D0"/>
<path d="M72.6057 5.31379C72.0875 5.53428 71.7568 6.07448 71.8891 6.63673C71.9552 6.8903 72.1096 7.13284 72.3301 7.28718C72.5946 7.48562 72.9033 7.44152 73.1679 7.60689C73.664 7.90455 73.2671 8.48885 73.2892 8.95188C73.3002 9.1834 73.3553 9.39287 73.5538 9.53619C73.8514 9.7677 74.2924 9.69053 74.4137 9.31569C74.4798 9.11725 74.1601 9.02906 74.094 9.2275C73.675 9.17238 73.5317 8.98496 73.653 8.66525C73.675 8.555 73.6971 8.44476 73.7191 8.33451C73.7412 8.22427 73.7522 8.11402 73.7522 8.00377C73.7522 7.77226 73.6861 7.52972 73.5097 7.36435C73.2451 7.12181 72.8372 7.22103 72.5505 7.02259C71.9662 6.61468 72.1757 5.84297 72.771 5.5894C72.9695 5.51223 72.7931 5.23662 72.6057 5.31379Z" fill="#2291D0"/>
<path d="M0.517269 70.48C0.263704 70.0831 0.263704 69.598 0.517269 69.1901C0.770833 68.7932 1.12362 68.7822 1.53153 68.6278C2.09378 68.3963 2.1048 67.812 2.07173 67.2828C2.0607 67.0954 2.04968 66.897 2.1048 66.7096C2.24812 66.2686 2.62296 66.3899 2.96472 66.445C3.16316 66.478 3.35057 66.445 3.51594 66.3347C3.72541 66.1914 3.8577 65.9378 3.92385 65.6953C3.97897 65.4969 3.99 65.2874 4.0341 65.089C4.05615 64.9456 4.10024 64.8133 4.16639 64.6921C4.34278 64.4165 4.55225 64.3944 4.80581 64.637C4.86094 64.8464 5.18065 64.7582 5.12553 64.5488C4.92708 63.8322 4.04512 64.1519 3.82463 64.659C3.72541 64.8905 3.71438 65.1441 3.65926 65.3866C3.62619 65.5299 3.60414 65.6843 3.52697 65.8166C3.3616 66.1142 3.05291 66.0591 2.76627 66.026C2.42451 65.993 2.15992 65.9599 1.93943 66.2796C1.68587 66.6434 1.75202 67.0734 1.75202 67.4923C1.76304 67.9994 1.6528 68.1979 1.15669 68.3632C0.95825 68.4294 0.792882 68.4625 0.61649 68.5948C-0.0229336 69.0468 -0.188302 69.9839 0.230631 70.6343C0.340876 70.8217 0.627514 70.6563 0.517269 70.48Z" fill="#EC615B"/>
<path d="M1.89529 71.2404C1.43226 71.1742 1.60865 70.6671 1.81812 70.4687C1.97246 70.3253 2.18193 70.2371 2.38037 70.1379C2.62291 70.0167 2.86545 69.8733 3.04184 69.6639C3.5159 69.0685 2.83238 68.2748 3.49385 67.8007C4.15532 67.3377 5.93027 67.1282 5.41212 65.8935C5.33495 65.695 5.04831 65.8714 5.12548 66.0588C5.50032 66.9518 3.68127 67.2164 3.21824 67.5913C3.05287 67.7236 2.90955 67.8999 2.8434 68.1094C2.71111 68.5724 3.09697 69.0465 2.75521 69.4875C2.35832 69.9726 1.50943 69.9726 1.31099 70.6561C1.18972 71.0419 1.39919 71.505 1.81812 71.5711C2.01656 71.5932 2.10476 71.2735 1.89529 71.2404Z" fill="#EC615B"/>
<path d="M122.748 45.6199C122.604 45.3663 122.626 45.0907 122.781 44.8482C123.023 44.4954 123.31 44.5726 123.685 44.6056C123.938 44.6277 124.17 44.6828 124.412 44.5395C124.842 44.2749 124.776 43.7237 124.853 43.3047C125.03 42.3235 125.879 43.2165 126.452 42.9078C126.661 42.7976 126.738 42.5881 126.783 42.3676C126.86 41.9377 126.882 40.6588 127.709 41.177C127.885 41.2872 128.061 41.0006 127.874 40.8904C127.135 40.4384 126.54 41.188 126.474 41.8826C126.43 42.2794 126.474 42.6653 125.945 42.6102C125.757 42.5881 125.57 42.4889 125.382 42.4669C125.085 42.4338 124.82 42.522 124.655 42.7866C124.467 43.0953 124.534 43.4811 124.456 43.8119C124.291 44.5615 123.652 44.1426 123.133 44.2308C122.439 44.3521 122.119 45.1899 122.45 45.7742C122.56 45.9727 122.847 45.8073 122.748 45.6199Z" fill="#EC615B"/>
<path d="M124.389 46.3144C124.202 45.8072 124.786 45.245 125.293 45.5096C125.359 45.5427 125.447 45.5427 125.491 45.4875C125.745 45.2119 125.811 44.8922 125.921 44.5394C126.12 43.9 126.594 43.8118 127.167 43.6354C127.729 43.459 128.358 42.996 128.126 42.3345C128.049 42.1361 127.729 42.2243 127.807 42.4227C128.126 43.2936 126.561 43.3598 126.098 43.6795C125.535 44.0764 125.701 44.793 125.271 45.256C125.337 45.245 125.403 45.234 125.469 45.234C124.731 44.8481 123.794 45.6088 124.08 46.4136C124.146 46.601 124.466 46.5238 124.389 46.3144Z" fill="#EC615B"/>
<path d="M79.8614 49.2024C79.8834 49.2024 80.126 49.7977 80.2252 49.8749C80.3795 49.9962 80.567 50.0072 80.7544 49.9741C81.0851 49.919 81.2946 49.6764 81.5812 49.5221C82.1986 49.1693 82.1986 49.7757 82.4411 50.1174C82.7167 50.5253 83.0144 50.3269 83.3341 50.1285C83.5436 49.9962 83.742 49.908 83.9294 50.0954C84.0287 50.1946 84.0948 50.36 84.172 50.4812C84.2933 50.6576 84.4255 50.8009 84.624 50.8891C84.8114 50.9773 84.9878 50.6907 84.7894 50.6025C84.3373 50.4041 84.2822 49.6544 83.742 49.5772C83.4885 49.5442 83.3782 49.6875 83.1798 49.7977C82.9372 49.941 82.7939 50.0403 82.6396 49.7646C82.5734 49.6544 82.5624 49.5001 82.4852 49.3898C82.1324 48.8055 81.5812 49.1252 81.1402 49.4119C81.0631 49.467 80.9859 49.5221 80.8977 49.5662C80.7103 49.5111 80.5118 49.456 80.3244 49.4008C80.2472 49.3237 80.2472 49.1362 80.1811 49.037C80.0709 48.8827 79.9606 48.8386 79.7842 48.8717C79.5637 48.9158 79.6519 49.2355 79.8614 49.2024Z" fill="#EC615B"/>
<path d="M82.4528 48.1443C82.7835 47.6261 83.5442 48.7065 83.8529 48.8388C84.0403 48.916 84.2167 48.916 84.4152 48.8609C84.5034 48.8388 84.5805 48.7947 84.6577 48.7616C84.9554 48.6404 85.2089 48.7175 85.4515 48.927C85.8043 49.2247 85.9035 49.6215 86.4106 49.7318C86.7083 49.7979 86.9839 49.7097 87.1162 49.4231C87.2044 49.2357 86.9177 49.0593 86.8295 49.2577C86.5209 49.9192 85.672 48.6183 85.4515 48.475C85.0436 48.2104 84.79 48.4309 84.3821 48.5191C83.7317 48.6514 83.5222 47.9238 82.982 47.7474C82.6623 47.6371 82.3536 47.6923 82.1772 47.9899C82.0449 48.1663 82.3315 48.3317 82.4528 48.1443Z" fill="#EC615B"/>
<path d="M123.651 67.4152C129.505 67.4152 135.359 67.4152 141.224 67.4152C141.433 67.4152 141.433 67.0845 141.224 67.0845C135.37 67.0845 129.516 67.0845 123.651 67.0845C123.441 67.0845 123.441 67.4152 123.651 67.4152Z" fill="#E8E8E8"/>
<path d="M128.447 67.3383C128.447 69.0471 128.447 70.7448 128.447 72.4536C128.447 72.6631 128.778 72.6631 128.778 72.4536C128.778 70.7448 128.778 69.0471 128.778 67.3383C128.778 67.1288 128.447 67.1288 128.447 67.3383Z" fill="#E8E8E8"/>
<path d="M136.628 67.1726C136.628 64.7913 136.628 62.41 136.628 60.0287C136.628 59.8192 136.297 59.8192 136.297 60.0287C136.297 62.41 136.297 64.7913 136.297 67.1726C136.297 67.3931 136.628 67.3931 136.628 67.1726Z" fill="#E8E8E8"/>
<path d="M132.735 60.1608C134.951 60.1608 137.167 60.1608 139.383 60.1608C139.592 60.1608 139.592 59.8301 139.383 59.8301C137.167 59.8301 134.951 59.8301 132.735 59.8301C132.525 59.8301 132.525 60.1608 132.735 60.1608Z" fill="#E8E8E8"/>
<path d="M128.382 20.4618C128.382 22.5234 128.382 24.585 128.382 26.6355C128.382 26.845 128.713 26.845 128.713 26.6355C128.713 24.5739 128.713 22.5124 128.713 20.4618C128.713 20.2523 128.382 20.2523 128.382 20.4618Z" fill="#E8E8E8"/>
<path d="M123.232 27.1095C127.212 27.1095 131.181 27.1095 135.161 27.1095C135.37 27.1095 135.37 26.7788 135.161 26.7788C131.181 26.7788 127.212 26.7788 123.232 26.7788C123.012 26.7788 123.012 27.1095 123.232 27.1095Z" fill="#E8E8E8"/>
<path d="M135.052 27.0653C135.052 28.4323 135.052 29.7994 135.052 31.1664C135.052 31.3759 135.382 31.3759 135.382 31.1664C135.382 29.7994 135.382 28.4323 135.382 27.0653C135.382 26.8558 135.052 26.8558 135.052 27.0653Z" fill="#E8E8E8"/>
<path d="M24.3297 14.0343C28.2214 14.0343 32.1241 14.0343 36.0157 14.0343C36.2252 14.0343 36.2252 13.7036 36.0157 13.7036C32.1241 13.7036 28.2214 13.7036 24.3297 13.7036C24.1203 13.7036 24.1092 14.0343 24.3297 14.0343Z" fill="#E8E8E8"/>
<path d="M35.5312 14.0008C35.5312 15.0592 35.5312 16.1175 35.5312 17.1759C35.5312 17.3853 35.862 17.3853 35.862 17.1759C35.862 16.1175 35.862 15.0592 35.862 14.0008C35.862 13.7803 35.5312 13.7803 35.5312 14.0008Z" fill="#E8E8E8"/>
<path d="M31.9924 13.7362C31.9924 12.0385 31.9924 10.3517 31.9924 8.65393C31.9924 8.44446 31.6616 8.44446 31.6616 8.65393C31.6616 10.3517 31.6616 12.0385 31.6616 13.7362C31.6616 13.9567 31.9924 13.9567 31.9924 13.7362Z" fill="#E8E8E8"/>
<path d="M1.21276 48.0119C3.90275 48.0119 6.59274 48.0119 9.28273 48.0119C9.49219 48.0119 9.49219 47.6812 9.28273 47.6812C6.59274 47.6812 3.90275 47.6812 1.21276 47.6812C1.0033 47.6812 1.0033 48.0119 1.21276 48.0119Z" fill="#E8E8E8"/>
<path d="M6.14111 44.6937C6.14111 45.6859 6.14111 46.6781 6.14111 47.6703C6.14111 47.8798 6.47185 47.8798 6.47185 47.6703C6.47185 46.6781 6.47185 45.6859 6.47185 44.6937C6.47185 44.4843 6.14111 44.4843 6.14111 44.6937Z" fill="#E8E8E8"/>
<path d="M4.19955 44.8591C5.63274 44.8591 7.06593 44.8591 8.49912 44.8591C8.70858 44.8591 8.70858 44.5283 8.49912 44.5283C7.06593 44.5283 5.63274 44.5283 4.19955 44.5283C3.97906 44.5283 3.97906 44.8591 4.19955 44.8591Z" fill="#E8E8E8"/>
<path d="M52.7518 114.368C56.3458 114.368 59.9398 114.368 63.5338 114.368C63.7433 114.368 63.7433 114.038 63.5338 114.038C59.9398 114.038 56.3458 114.038 52.7518 114.038C52.5313 114.038 52.5313 114.368 52.7518 114.368Z" fill="#E8E8E8"/>
<path d="M59.3898 114.038C59.3898 113.266 59.3898 112.495 59.3898 111.712C59.3898 111.502 59.0591 111.502 59.0591 111.712C59.0591 112.484 59.0591 113.255 59.0591 114.038C59.0591 114.258 59.3898 114.258 59.3898 114.038Z" fill="#E8E8E8"/>
<path d="M58.3861 111.722C59.8744 111.722 61.3738 111.722 62.8621 111.722C63.0715 111.722 63.0715 111.392 62.8621 111.392C61.3738 111.392 59.8744 111.392 58.3861 111.392C58.1766 111.392 58.1766 111.722 58.3861 111.722Z" fill="#E8E8E8"/>
<path d="M1.46569 108.57C5.05969 108.57 8.65369 108.57 12.2477 108.57C12.4572 108.57 12.4572 108.239 12.2477 108.239C8.65369 108.239 5.05969 108.239 1.46569 108.239C1.25623 108.239 1.25623 108.57 1.46569 108.57Z" fill="#E8E8E8"/>
<path d="M6.44873 104.248C6.44873 105.516 6.44873 106.795 6.44873 108.063C6.44873 108.272 6.77947 108.272 6.77947 108.063C6.77947 106.795 6.77947 105.516 6.77947 104.248C6.77947 104.039 6.44873 104.039 6.44873 104.248Z" fill="#E8E8E8"/>
<path d="M6.44963 103.752C5.01644 103.752 3.57222 103.752 2.13903 103.752C1.92957 103.752 1.92957 104.083 2.13903 104.083C3.57222 104.083 5.01644 104.083 6.44963 104.083C6.65909 104.083 6.65909 103.752 6.44963 103.752Z" fill="#E8E8E8"/>
<path d="M121.314 98.8682C120.95 98.5044 121.039 97.7988 121.601 97.6775C121.899 97.6114 122.185 97.7988 122.472 97.8319C122.692 97.8649 122.924 97.8429 123.067 97.6445C123.288 97.3578 123.111 97.0271 123.1 96.7074C123.078 95.7041 124.269 95.7703 124.864 96.1231C124.996 96.2002 125.14 96.0679 125.107 95.9357C124.82 94.5576 126.397 93.6095 127.477 94.5245C127.642 94.6568 127.874 94.4253 127.708 94.293C126.374 93.1685 124.423 94.315 124.787 96.0349C124.864 95.9687 124.952 95.9136 125.029 95.8475C124.522 95.5388 123.872 95.3844 123.332 95.7262C123.133 95.8475 122.957 96.0349 122.869 96.2554C122.803 96.4097 122.769 96.553 122.78 96.7184C122.792 97.0161 122.891 96.994 122.67 97.2806C122.428 97.6004 122.406 97.457 122.064 97.3799C121.943 97.3468 121.832 97.3247 121.7 97.3358C121.424 97.3468 121.171 97.4791 120.995 97.6775C120.609 98.1075 120.708 98.7138 121.094 99.0997C121.237 99.254 121.469 99.0225 121.314 98.8682Z" fill="#E8E8E8"/>
<path d="M123.462 99.1991C123.341 98.1959 124.983 98.1848 125.446 97.4903C125.568 97.3139 125.612 97.1155 125.689 96.9281C125.832 96.5863 126.086 96.3658 126.461 96.2666C127.067 96.1122 127.695 96.3878 128.247 96.6194C128.445 96.6965 128.533 96.3768 128.335 96.2997C127.321 95.8807 125.954 95.561 125.391 96.7958C125.193 97.2367 125.127 97.4793 124.664 97.7108C124.388 97.8431 124.101 97.9203 123.837 98.0746C123.418 98.3171 123.087 98.692 123.142 99.1991C123.164 99.4086 123.495 99.4086 123.462 99.1991Z" fill="#E8E8E8"/>
<path d="M76.048 67.1396C76.2684 67.6908 76.4889 68.2531 76.7094 68.8043C76.7315 68.7382 76.7646 68.683 76.7866 68.6169C76.6653 68.6941 76.5441 68.7712 76.4228 68.8594C76.2354 68.4185 76.3125 68.3082 76.6653 68.5067C76.8748 68.6389 76.974 68.9256 77.0181 69.1571C77.1173 69.6863 77.0071 70.2375 76.8307 70.7446C76.7866 70.8769 76.9189 70.9651 77.0291 70.9431C77.6906 70.8108 77.9552 71.6045 77.8229 72.1007C77.7237 72.4645 77.5252 72.7842 77.3268 73.1039C77.2166 73.2803 77.5032 73.4456 77.6134 73.2693C77.9662 72.718 78.3741 72.0345 78.1316 71.351C77.9442 70.8439 77.4811 70.5241 76.9409 70.6234C77.0071 70.6895 77.0732 70.7557 77.1394 70.8218C77.3599 70.1824 77.5032 69.3776 77.2276 68.7271C77.0402 68.2972 76.6102 67.9664 76.1251 68.1098C75.7503 68.22 75.5629 68.5948 75.7393 68.9587C76.0369 69.565 76.5551 69.1571 76.9409 68.9035C76.9961 68.8705 77.0402 68.7823 77.0181 68.7161C76.7976 68.1649 76.5771 67.6026 76.3566 67.0514C76.2905 66.864 75.9708 66.9412 76.048 67.1396Z" fill="#E8E8E8"/>
<path d="M10.8475 14.9824C10.6381 14.4533 11.3436 14.3099 11.6744 14.4974C11.9279 14.6407 12.0933 14.8942 12.2476 15.1258C12.391 15.3352 12.5453 15.5667 12.6225 15.8093C12.7107 16.0187 12.6996 16.2172 12.5894 16.4156C12.2035 16.592 12.0051 16.5479 11.9941 16.2944C11.8949 15.9305 12.2807 15.688 12.6114 15.699C12.9532 15.7101 13.2729 15.9085 13.5044 16.151C13.9013 16.57 14.0446 17.1212 13.9895 17.6834C14.0887 17.6504 14.199 17.6283 14.2982 17.5952C14.0777 17.2755 14.2872 16.9338 14.5848 16.7684C14.8384 16.6361 15.125 16.6692 15.3676 16.8015C15.7645 17.0109 16.0401 17.3968 16.2936 17.7496C16.4149 17.926 16.7016 17.7606 16.5803 17.5842C16.1613 16.9999 15.5329 16.1841 14.7061 16.3715C14.0998 16.5038 13.6147 17.2094 14.0116 17.7606C14.1108 17.9039 14.2982 17.8378 14.3203 17.6724C14.4195 16.6251 13.6478 15.1919 12.413 15.3683C11.972 15.4344 11.6523 15.7431 11.6523 16.1951C11.6523 16.5479 11.8728 16.9117 12.2476 16.9338C12.6886 16.9669 12.9863 16.5369 13.0083 16.14C13.0414 15.5888 12.6114 14.9935 12.2807 14.5856C11.972 14.2217 11.52 13.9131 11.0349 14.1005C10.6381 14.2438 10.3735 14.6407 10.5388 15.0486C10.605 15.2691 10.9247 15.1809 10.8475 14.9824Z" fill="#E8E8E8"/>
<path d="M68.925 31.1554C68.462 30.8798 68.7928 30.064 69.3109 30.4057C69.807 30.7365 69.1455 31.2987 68.8258 30.9129C68.6935 30.7475 68.462 30.979 68.5943 31.1444C68.8479 31.4531 69.333 31.431 69.6196 31.1775C69.9503 30.8798 69.8621 30.3947 69.5204 30.1522C69.1786 29.9096 68.6825 29.9537 68.473 30.3506C68.2636 30.7255 68.4069 31.2326 68.7707 31.442C68.9361 31.5413 69.1014 31.2657 68.925 31.1554Z" fill="#E8E8E8"/>
<path d="M104.05 7.04478C103.807 6.70302 104.226 6.18486 104.612 6.33921C104.579 6.31716 104.546 6.28408 104.513 6.26204C104.722 6.62584 104.414 7.12195 104.006 7.0999C104.061 7.144 104.116 7.17707 104.16 7.22117C104.094 7.03375 104.017 6.83531 103.951 6.64789C103.874 6.44945 103.554 6.53765 103.631 6.73609C103.697 6.92351 103.774 7.12195 103.841 7.30937C103.863 7.38654 103.918 7.43064 103.995 7.43064C104.348 7.45268 104.656 7.23219 104.811 6.92351C104.932 6.68097 104.998 6.17384 104.7 6.0195C104.05 5.69978 103.378 6.66994 103.763 7.21015C103.885 7.38654 104.171 7.22117 104.05 7.04478Z" fill="#E8E8E8"/>
<path d="M113.024 23.4382C112.968 23.1846 113.156 22.909 113.409 22.8539C113.641 22.8098 113.85 22.9972 113.906 23.2067C114.049 23.7028 113.398 23.9343 113.09 23.5925C112.946 23.4382 112.715 23.6697 112.858 23.824C113.432 24.4635 114.534 23.8351 114.181 23.0192C114.027 22.6554 113.641 22.4239 113.255 22.5452C112.847 22.6775 112.605 23.1074 112.693 23.5264C112.759 23.7358 113.079 23.6476 113.024 23.4382Z" fill="#E8E8E8"/>
<path d="M77.2378 114.688C76.8189 114.49 76.852 113.917 77.2378 113.696C77.6127 113.487 77.9655 113.674 78.3072 113.829C78.5939 113.961 78.9246 114.082 79.1782 113.829C79.4097 113.608 79.3656 113.266 79.3766 112.98C79.4207 111.866 80.5011 112.087 81.2398 112.362C81.4382 112.439 81.5264 112.12 81.3279 112.043C80.6775 111.789 79.7735 111.546 79.2553 112.186C79.101 112.373 79.0569 112.594 79.0459 112.825C79.0348 112.98 79.101 113.321 79.0128 113.465C78.7703 113.829 78.4395 113.498 78.186 113.388C77.7009 113.178 77.0063 113.233 76.7087 113.74C76.4551 114.17 76.6094 114.755 77.0615 114.964C77.2599 115.063 77.4253 114.777 77.2378 114.688Z" fill="#E8E8E8"/>
<path d="M82.5714 88.7035C82.2407 92.7495 82.4171 96.8065 83.1006 100.808C83.1337 101.018 83.4534 100.93 83.4203 100.72C82.7478 96.7514 82.5714 92.7164 82.9022 88.7035C82.9242 88.494 82.5935 88.494 82.5714 88.7035Z" fill="#E8E8E8"/>
<path d="M82.7908 88.9566C84.5106 89.552 86.2856 89.9488 88.0936 90.1473C89.7914 90.3237 91.7427 90.5111 93.3743 89.8717C93.5728 89.7945 93.4846 89.4748 93.2861 89.552C91.6986 90.1804 89.7693 89.9929 88.0936 89.8165C86.3186 89.6291 84.5657 89.2212 82.879 88.6369C82.6695 88.5598 82.5924 88.8795 82.7908 88.9566Z" fill="#E8E8E8"/>
<path d="M85.4137 89.409C84.8404 88.516 84.3663 87.5679 84.0356 86.5536C83.8813 86.0685 83.749 85.5834 83.6498 85.0873C83.5946 84.7897 83.5395 84.492 83.5064 84.1944C83.5064 84.1613 83.3852 83.3785 83.6167 83.4888C83.7269 83.5439 83.9143 83.4447 83.8592 83.3014C83.2529 81.769 82.9221 80.1594 82.8891 78.5057C82.8339 78.5608 82.7788 78.6159 82.7237 78.6711C82.8119 78.7041 82.8891 78.7372 82.9773 78.7703C83.0875 78.9026 83.297 78.7593 83.2529 78.6049C83.0324 77.8993 82.8891 77.1717 82.845 76.4221C82.8339 76.2457 82.867 74.2612 82.9883 74.2943C83.1206 74.3274 83.2088 74.2061 83.1867 74.0959C82.9773 72.8501 82.878 71.5823 82.9332 70.3255C82.9552 69.6971 83.0103 69.0797 83.1095 68.4623C83.1977 67.9001 83.2418 67.2166 83.6828 66.8087C83.5946 66.7976 83.5064 66.7866 83.4182 66.7756C84.3443 68.5175 84.8624 70.4247 85.3365 72.3209C85.7995 74.1841 86.2074 76.0693 86.5602 77.9655C87.2768 81.8792 87.7288 85.837 87.9273 89.8169C87.9383 90.0263 88.269 90.0263 88.258 89.8169C88.0596 85.815 87.6076 81.8241 86.8799 77.8773C86.5161 75.9149 86.0972 73.9636 85.6121 72.0233C85.1381 70.1601 84.6199 68.308 83.7049 66.5992C83.6498 66.5 83.5175 66.5 83.4403 66.5661C83.0655 66.9079 82.9552 67.3599 82.867 67.8339C82.7457 68.5064 82.6575 69.201 82.6134 69.8845C82.5252 71.3177 82.6134 72.7509 82.856 74.173C82.9221 74.1069 82.9883 74.0408 83.0544 73.9746C82.415 73.7982 82.4922 75.1763 82.4811 75.485C82.4371 76.5654 82.6024 77.6458 82.9221 78.6821C83.0103 78.627 83.1095 78.5718 83.1977 78.5167C83.0544 78.3513 82.9332 78.2962 82.7127 78.3183C82.6245 78.3293 82.5473 78.3844 82.5473 78.4836C82.5804 80.1594 82.9111 81.802 83.5285 83.3675C83.6057 83.3014 83.6938 83.2462 83.771 83.1801C82.6686 82.6509 83.308 85.1425 83.3962 85.5173C83.7269 86.9505 84.3222 88.3175 85.116 89.5523C85.2483 89.7507 85.5349 89.5854 85.4137 89.409Z" fill="#E8E8E8"/>
<path d="M87.1702 78.3957C87.0709 77.6901 87.0489 76.9735 87.1371 76.2679C87.1591 76.0916 87.5781 74.0189 87.7875 74.1071C87.8978 74.1623 88.0301 74.0961 88.0411 73.9638C88.1072 72.5527 88.5482 71.2959 89.0664 69.995C89.5845 68.7051 90.0917 67.4593 90.9516 66.3459C90.8744 66.3459 90.7972 66.3459 90.7201 66.3459C91.3485 67.0625 91.2713 68.1539 91.3044 69.0469C91.3485 70.0501 91.3815 71.0533 91.3925 72.0566C91.4146 74.03 91.3815 76.0034 91.2933 77.9767C91.1059 82.0117 90.6539 86.0357 89.9704 90.0155C89.9373 90.225 90.257 90.3132 90.2901 90.1037C91.0067 85.9585 91.4587 81.7582 91.6461 77.5468C91.7343 75.4301 91.7564 73.3134 91.7123 71.1967C91.6902 70.1383 91.6682 69.0799 91.591 68.0216C91.5469 67.327 91.4366 66.6435 90.9516 66.1033C90.8964 66.0372 90.7752 66.0372 90.7201 66.1033C89.8712 67.2058 89.342 68.4185 88.8349 69.7083C88.2726 71.0974 87.7985 72.4424 87.7214 73.9638C87.8096 73.9197 87.8867 73.8646 87.9749 73.8205C87.3024 73.5228 87.082 74.956 86.9938 75.3419C86.7512 76.3782 86.7292 77.4255 86.8835 78.4729C86.8725 78.6933 87.1922 78.6051 87.1702 78.3957Z" fill="#E8E8E8"/>
<path d="M83.2536 101.084C86.7042 102.198 90.4416 102.142 93.8592 100.93C94.0576 100.864 93.9694 100.544 93.771 100.61C90.4085 101.801 86.7373 101.856 83.3418 100.764C83.1323 100.698 83.0441 101.018 83.2536 101.084Z" fill="#E8E8E8"/>
<path d="M93.3313 89.7621C93.4636 91.5481 93.6069 93.334 93.7282 95.12C93.8495 96.9391 93.8936 98.7802 93.5959 100.588C93.5628 100.798 93.8826 100.886 93.9156 100.676C94.2133 98.9014 94.1912 97.1154 94.07 95.3295C93.9487 93.4773 93.8054 91.6142 93.6621 89.7621C93.651 89.5526 93.3203 89.5526 93.3313 89.7621Z" fill="#E8E8E8"/>
<path d="M34.4907 103.917C36.7397 102.715 38.9998 101.514 41.2488 100.312C42.3071 100.489 43.7624 100.72 45.5042 100.963C48.988 101.448 54.5995 102.23 61.6993 102.44C68.7991 102.649 74.1239 102.197 76.1524 101.999C81.0363 101.536 83.9909 100.907 86.4053 100.257C88.5991 99.6617 90.4072 99.0112 91.697 98.5151C92.7554 98.8679 93.935 99.342 95.1918 99.9924C95.9084 100.367 96.5699 100.753 97.1542 101.139C95.0816 101.734 92.2924 102.495 88.974 103.267C81.9844 104.898 76.6265 105.67 75.502 105.835C69.0747 106.75 59.9133 108.04 48.3927 106.706C44.8097 106.276 40.0361 105.494 34.4907 103.917Z" fill="white"/>
<path d="M34.3687 103.928C34.4238 104.391 34.4899 104.843 34.545 105.306C35.3719 105.538 36.5846 105.869 38.0839 106.199C40.9503 106.839 43.8608 107.28 47.6642 107.577C61.7095 108.68 72.9325 107.699 72.9325 107.699C78.544 107.203 83.9901 106.696 91.0237 104.645C93.6696 103.873 95.8304 103.09 97.3739 102.484C97.2526 101.966 97.1313 101.448 97.0101 100.93C96.5801 101.106 95.9407 101.36 95.1579 101.646C89.8441 103.587 85.4674 104.226 81.5647 104.7C72.9876 105.758 68.6991 106.277 62.404 106.376C55.2381 106.497 45.6247 106.067 34.3687 103.928Z" fill="#161616"/>
<path d="M34.2925 104.138C34.2925 104.491 34.2925 104.844 34.2925 105.196C34.2925 105.406 34.6232 105.406 34.6232 105.196C34.6232 104.844 34.6232 104.491 34.6232 104.138C34.6232 103.918 34.2925 103.918 34.2925 104.138Z" fill="#161616"/>
<path d="M34.4137 105.505C42.649 107.732 51.2482 108.019 59.7261 108.14C67.8732 108.25 76.0754 107.897 84.1013 106.409C88.6214 105.571 93.0753 104.347 97.3748 102.683C97.5733 102.606 97.4851 102.286 97.2867 102.363C89.7018 105.307 81.6428 106.806 73.5398 107.434C65.3706 108.063 57.1243 107.919 48.9551 107.423C44.0712 107.115 39.2314 106.475 34.5019 105.196C34.2924 105.13 34.2043 105.45 34.4137 105.505Z" fill="#161616"/>
<path d="M97.3758 102.451C97.442 101.988 97.464 101.514 97.4199 101.051C97.3979 100.842 97.0671 100.842 97.0892 101.051C97.1223 101.492 97.1223 101.933 97.0561 102.363C97.023 102.562 97.3427 102.661 97.3758 102.451Z" fill="#161616"/>
<path d="M34.5572 104.105C36.8723 103.003 39.1434 101.823 41.3704 100.544C41.5578 100.434 41.3924 100.158 41.205 100.258C38.978 101.525 36.707 102.716 34.3918 103.818C34.1934 103.907 34.3588 104.193 34.5572 104.105Z" fill="#161616"/>
<path d="M41.2819 100.39C54.4342 102.892 68.1046 103.355 81.3671 101.459C84.8949 100.952 88.4007 100.169 91.664 98.7139C91.8625 98.6257 91.6861 98.3391 91.4986 98.4273C88.5661 99.7282 85.4352 100.489 82.2711 100.985C79.0519 101.492 75.7997 101.801 72.5475 102.01C65.9438 102.429 59.307 102.319 52.7254 101.691C48.9109 101.327 45.1294 100.776 41.3701 100.07C41.1606 100.037 41.0724 100.357 41.2819 100.39Z" fill="#161616"/>
<path d="M91.5983 98.6587C93.5607 99.2982 95.4018 100.191 97.1216 101.327C97.298 101.448 97.4633 101.161 97.2869 101.04C95.5451 99.8935 93.6709 98.9895 91.6865 98.339C91.477 98.2729 91.3888 98.5926 91.5983 98.6587Z" fill="#161616"/>
<path d="M34.5791 103.929C38.4707 105.24 42.5278 105.858 46.6068 106.189C50.741 106.519 54.9083 106.618 59.0535 106.618C67.2889 106.618 75.5462 106.056 83.6603 104.579C88.2686 103.741 92.8327 102.606 97.2756 101.117C97.4741 101.051 97.3859 100.731 97.1874 100.798C89.371 103.399 81.2459 104.921 73.0437 105.67C64.8855 106.42 56.6392 106.464 48.459 105.979C43.7846 105.692 39.0991 105.108 34.6452 103.609C34.4688 103.543 34.3806 103.862 34.5791 103.929Z" fill="#161616"/>
<path d="M40.9301 40.967C54.4021 37.8471 68.271 37.1636 82.0517 37.0313C85.9543 36.9872 89.857 36.9982 93.7597 36.9982C93.9692 36.9982 93.9692 36.6675 93.7597 36.6675C79.9349 36.6454 66.044 36.6344 52.3185 38.5416C48.4599 39.0818 44.6344 39.7654 40.8419 40.6473C40.6325 40.7024 40.7207 41.0222 40.9301 40.967Z" fill="#161616"/>
<path d="M94.4429 36.7007C94.5862 41.8272 94.6744 47.7694 94.6413 54.3731C94.6193 58.2096 94.5862 56.3795 94.2445 72.3431C94.046 81.5375 93.9909 84.9992 93.3404 90.3131C92.9215 93.7748 92.4144 96.6191 92.0396 98.5484C94.8839 99.3422 97.5959 100.092 99.9772 100.753C103.659 101.779 104.641 102.054 106.107 102.264C108.378 102.572 111.145 102.616 114.342 101.966C115.522 92.3085 116.172 84.0732 116.547 77.7671C117.892 55.6078 116.635 45.3991 116.15 41.8161C115.489 36.9874 114.673 33.0185 114.045 30.2734C111.685 30.7254 109.767 31.2105 108.422 31.5743C103.803 32.8422 100.143 34.3305 97.0778 35.5873C95.9422 36.0613 95.0272 36.4472 94.4429 36.7007Z" fill="white"/>
<path d="M18.4388 30.4722C18.3506 31.4203 18.2513 32.5889 18.1631 33.6031C16.3331 54.4726 15.418 64.9128 15.1204 71.6268C14.8117 78.8368 14.7896 89.2881 16.3221 102.286C16.4433 102.551 16.6638 102.914 17.0607 103.212C17.5788 103.598 18.0529 103.587 18.99 103.851C19.7286 104.061 20.1145 104.27 20.4673 104.403C21.4815 104.8 23.7526 105.252 26.641 105.141C30.7862 104.976 33.9723 103.708 36.3095 102.749C38.5034 101.856 40.2563 100.897 41.469 100.169C40.7855 94.0286 40.2784 87.5462 39.9917 80.7441C39.4074 66.2799 39.9917 52.9953 41.1934 41.1549C40.6863 40.9565 39.9476 40.6809 39.0767 40.3281C37.5774 39.7218 33.9834 38.2555 27.6553 35.1686C25.1527 33.9559 22.0217 32.3794 18.4388 30.4722Z" fill="white"/>
<path d="M113.978 30.2295C114.11 30.9571 114.287 31.9603 114.485 33.162C114.761 34.8708 115.378 38.9168 115.83 44.2307C116.293 49.765 116.403 54.5276 116.414 58.32C116.448 66.0151 116.161 71.6597 115.411 84.823C115.18 88.9241 114.838 94.9325 114.408 102.264C114.86 102.231 115.301 102.209 115.753 102.176C115.973 100.346 116.271 97.6225 116.503 94.2931C116.679 91.8897 116.756 90.1368 116.833 88.2516C117.219 79.6084 117.285 79.7076 117.418 76.1798C117.682 69.2233 117.627 63.8764 117.583 59.0697C117.55 55.7513 117.451 52.6093 117.252 46.3253C117.109 42.0478 116.966 38.2554 115.996 33.3274C115.742 32.0706 115.499 31.0233 115.323 30.3067C114.871 30.2846 114.43 30.2626 113.978 30.2295Z" fill="#161616"/>
<path d="M16.7523 30.6704C16.6752 31.0563 16.5539 31.6516 16.4326 32.3792C16.0799 34.4849 15.9917 36.0724 15.9586 36.5906C15.716 40.3389 15.231 42.169 14.5254 50.4925C14.3931 52.0139 14.2939 53.3479 14.0954 56.0268C13.6875 61.495 13.4891 64.2291 13.3458 67.316C13.1914 70.7666 13.1694 73.2031 13.1363 78.0759C13.1032 82.2873 13.0812 85.3301 13.1914 89.3099C13.2796 92.485 13.456 96.7956 13.886 101.933C14.779 102.198 15.6609 102.462 16.5539 102.727C16.5429 102.231 16.5098 101.338 16.4437 100.224C16.1791 95.2742 15.7491 93.2677 15.6499 89.1446C15.6168 87.8767 15.6389 87.0389 15.6499 85.8372C15.7712 77.216 15.6278 73.2802 15.705 67.6798C15.8373 58.5404 16.4547 51.3965 16.9839 45.311C17.48 39.5562 18.0422 34.6282 18.5273 30.7696C17.9209 30.7366 17.3366 30.7035 16.7523 30.6704Z" fill="#161616"/>
<path d="M94.1797 36.8885C94.5876 44.9806 94.5325 53.0946 94.4223 61.1866C94.301 69.1022 94.2459 77.0399 93.6395 84.9445C93.2978 89.4425 92.7576 93.9295 91.9197 98.3724C91.8756 98.5818 92.1953 98.67 92.2394 98.4606C93.7057 90.6883 94.2459 82.7837 94.4884 74.8901C94.742 66.8312 94.8522 58.7502 94.8412 50.6802C94.8302 46.083 94.753 41.4858 94.5215 36.8885C94.4994 36.6791 94.1687 36.6791 94.1797 36.8885Z" fill="#161616"/>
<path d="M94.5877 36.8884C100.706 33.8567 107.2 31.6738 113.903 30.3839C114.112 30.3398 114.024 30.0201 113.814 30.0642C107.089 31.3651 100.563 33.57 94.4223 36.6018C94.2349 36.701 94.4002 36.9876 94.5877 36.8884Z" fill="#161616"/>
<path d="M113.79 30.2842C115.609 39.4456 116.161 48.8055 116.15 58.1322C116.127 67.459 115.576 76.7637 115.124 86.0794C114.86 91.4484 114.595 96.8063 114.33 102.175C114.319 102.385 114.65 102.385 114.661 102.175C115.135 92.6721 115.631 83.1689 116.061 73.6548C116.48 64.328 116.745 54.9792 116.116 45.6635C115.764 40.4709 115.135 35.3004 114.121 30.2071C114.066 29.9866 113.746 30.0748 113.79 30.2842Z" fill="#161616"/>
<path d="M91.9737 98.4382C92.4698 99.0115 93.3518 99.1217 94.0463 99.3312C94.9944 99.6178 95.9535 99.9044 96.9017 100.191C98.8199 100.764 100.727 101.371 102.667 101.856C106.46 102.782 110.352 102.969 114.199 102.308C114.409 102.275 114.32 101.955 114.111 101.988C110.319 102.639 106.482 102.451 102.756 101.536C100.981 101.106 99.2389 100.555 97.497 100.026C96.615 99.7611 95.7331 99.4965 94.8511 99.2319C94.4101 99.0996 93.9691 98.9674 93.5281 98.8351C93.0651 98.6917 92.547 98.5925 92.2162 98.2067C92.0619 98.0523 91.8304 98.2838 91.9737 98.4382Z" fill="#161616"/>
<path d="M114.012 30.2956C114.42 30.3948 114.828 30.494 115.247 30.5932C115.456 30.6483 115.544 30.3286 115.335 30.2735C114.927 30.1743 114.519 30.0751 114.1 29.9758C113.891 29.9317 113.802 30.2515 114.012 30.2956Z" fill="#161616"/>
<path d="M115.225 30.483C116.327 34.9369 116.625 39.5892 116.944 44.1644C117.275 48.8388 117.452 53.5243 117.529 58.2207C117.661 67.5364 117.341 76.8522 116.812 86.1569C116.514 91.4266 116.14 96.6963 115.754 101.966C115.743 102.176 116.074 102.176 116.085 101.966C116.779 92.5952 117.407 83.2244 117.705 73.8314C118.003 64.4606 117.981 55.0677 117.385 45.6968C117.066 40.6035 116.779 35.3779 115.555 30.4058C115.489 30.1853 115.169 30.2735 115.225 30.483Z" fill="#161616"/>
<path d="M114.507 102.363C114.992 102.318 115.466 102.274 115.951 102.23C116.161 102.208 116.161 101.877 115.951 101.899C115.466 101.944 114.992 101.988 114.507 102.032C114.298 102.054 114.298 102.385 114.507 102.363Z" fill="#161616"/>
<path d="M40.919 41.0668C40.1803 48.7068 39.7394 56.3688 39.596 64.0419C39.4527 71.7481 39.6071 79.4652 40.0701 87.1604C40.3237 91.482 40.6875 95.7926 41.1284 100.092C41.1505 100.302 41.4812 100.302 41.4592 100.092C40.6654 92.4632 40.1693 84.8011 39.9709 77.128C39.7724 69.4219 39.8716 61.7047 40.2796 54.0096C40.5111 49.688 40.8308 45.3774 41.2387 41.0668C41.2718 40.8573 40.941 40.8573 40.919 41.0668Z" fill="#161616"/>
<path d="M18.6479 30.7367C25.8028 34.7166 33.2333 38.2003 40.8623 41.1659C41.0608 41.2431 41.149 40.9234 40.9505 40.8462C33.3436 37.8917 25.9461 34.4189 18.8132 30.4501C18.6258 30.3398 18.4605 30.6265 18.6479 30.7367Z" fill="#161616"/>
<path d="M18.3091 30.6595C17.0853 39.9863 16.2364 49.3682 15.7734 58.7721C15.3104 68.176 15.2442 77.591 15.5529 86.9949C15.7293 92.2757 16.027 97.5564 16.4459 102.826C16.468 103.036 16.7987 103.036 16.7766 102.826C16.027 93.4443 15.6742 84.0293 15.6962 74.6254C15.7183 65.2104 16.1372 55.8065 16.931 46.4246C17.383 41.1549 17.9563 35.9072 18.6398 30.6595C18.6618 30.4501 18.3311 30.4501 18.3091 30.6595Z" fill="#161616"/>
<path d="M16.4328 103.036C22.5735 106.376 29.9269 105.66 36.1667 103.014C38.0409 102.22 39.8489 101.261 41.5908 100.214C41.7672 100.104 41.6018 99.8169 41.4254 99.9271C35.6155 103.444 28.8023 105.902 21.9341 104.624C20.0709 104.282 18.2629 103.653 16.5982 102.749C16.4218 102.65 16.2454 102.937 16.4328 103.036Z" fill="#161616"/>
<path d="M13.9963 102.121C14.768 102.484 15.5618 102.793 16.3666 103.069C16.565 103.135 16.6532 102.815 16.4548 102.749C15.672 102.484 14.9114 102.187 14.1617 101.834C13.9632 101.746 13.7979 102.032 13.9963 102.121Z" fill="#161616"/>
<path d="M16.5323 30.7366C15.3416 39.9752 14.3494 49.2358 13.6989 58.5295C13.0595 67.7791 12.7508 77.0507 12.9493 86.3223C13.0595 91.57 13.3241 96.8177 13.7761 102.043C13.7982 102.253 14.1289 102.253 14.1069 102.043C13.3131 92.7717 13.0816 83.467 13.3021 74.1623C13.5115 64.8906 14.151 55.63 15.066 46.3915C15.5841 41.1658 16.1905 35.9402 16.863 30.7256C16.8961 30.5272 16.5653 30.5272 16.5323 30.7366Z" fill="#161616"/>
<path d="M16.7192 30.9678C17.3586 30.8355 17.998 30.7914 18.6595 30.8245C18.869 30.8355 18.869 30.5048 18.6595 30.4938C17.976 30.4607 17.3035 30.5158 16.631 30.6481C16.4215 30.6922 16.5097 31.0119 16.7192 30.9678Z" fill="#161616"/>
<path d="M98.4022 37.6381C98.8652 50.4265 98.8432 63.226 98.314 76.0145C98.1707 79.5974 97.9832 83.1694 97.7517 86.7524C97.7407 86.9618 98.0714 86.9618 98.0825 86.7524C98.8873 73.986 99.1959 61.1865 99.0085 48.387C98.9534 44.804 98.8652 41.221 98.7329 37.6381C98.7219 37.4286 98.3912 37.4286 98.4022 37.6381Z" fill="#161616"/>
<path d="M103.748 33.0511C104.189 41.9479 104.409 50.8668 104.398 59.7746C104.398 68.6824 104.178 77.6013 103.737 86.4981C103.494 91.5363 103.175 96.5635 102.789 101.591C102.778 101.8 103.109 101.8 103.12 101.591C103.803 92.7049 104.266 83.8081 104.52 74.9003C104.762 65.9925 104.795 57.0736 104.608 48.1658C104.498 43.1276 104.321 38.0894 104.079 33.0511C104.068 32.8417 103.737 32.8417 103.748 33.0511Z" fill="#161616"/>
<path d="M110.164 31.0891C110.781 40.3387 111.156 49.6104 111.255 58.893C111.354 68.2088 111.2 77.5135 110.781 86.8182C110.55 92.0328 110.23 97.2474 109.822 102.451C109.811 102.66 110.142 102.66 110.153 102.451C110.858 93.2014 111.321 83.9297 111.509 74.6581C111.696 65.3534 111.63 56.0377 111.299 46.7219C111.112 41.5073 110.847 36.2927 110.495 31.0781C110.484 30.8686 110.153 30.8686 110.164 31.0891Z" fill="#161616"/>
<path d="M97.2645 90.8866C97.0109 93.775 96.5479 96.6414 95.8754 99.4637C95.8313 99.6731 96.14 99.7613 96.1951 99.5519C96.8786 96.6965 97.3417 93.8081 97.5952 90.8866C97.6173 90.6771 97.2865 90.6771 97.2645 90.8866Z" fill="#161616"/>
<path d="M22.2649 32.8867C20.942 42.1363 20.3797 51.4851 20.2916 60.8228C20.2144 70.2157 20.6002 79.5976 21.1735 88.9685C21.4932 94.2713 21.8681 99.5631 22.2429 104.866C22.2539 105.075 22.5847 105.075 22.5736 104.866C21.9122 95.5281 21.2507 86.1903 20.8869 76.8415C20.5231 67.5147 20.4679 58.1659 21.0081 48.8392C21.3168 43.5364 21.824 38.2336 22.5736 32.9749C22.6177 32.7764 22.298 32.6772 22.2649 32.8867Z" fill="#161616"/>
<path d="M28.6029 35.9731C27.7651 44.914 27.2028 53.888 27.0154 62.873C26.839 71.847 27.0485 80.8209 27.7871 89.7729C28.195 94.7449 28.7683 99.695 29.518 104.623C29.5511 104.832 29.8708 104.744 29.8377 104.535C28.4927 95.6489 27.721 86.675 27.4343 77.69C27.1477 68.8262 27.3131 59.9405 27.7982 51.0878C28.0738 46.0496 28.4596 41.0113 28.9337 35.9842C28.9557 35.7637 28.625 35.7637 28.6029 35.9731Z" fill="#161616"/>
<path d="M34.9552 38.6082C33.8748 46.9538 33.2464 55.3545 33.081 63.7662C32.9157 72.1779 33.2023 80.6007 33.9409 88.9793C34.3599 93.6537 34.9111 98.3061 35.6056 102.947C35.6387 103.157 35.9584 103.069 35.9254 102.859C34.6796 94.5467 33.8858 86.1791 33.5441 77.7894C33.2023 69.4218 33.3236 61.0321 33.8858 52.6645C34.2055 47.968 34.6686 43.2716 35.2749 38.5972C35.319 38.3987 34.9883 38.3987 34.9552 38.6082Z" fill="#161616"/>
<path opacity="0.12" d="M107.696 31.8389C108.919 36.833 109.911 42.687 110.242 49.2466C111.069 65.9378 107.144 79.5751 103.727 88.3286C101.312 92.1982 98.909 96.0678 96.4946 99.9374C98.8429 100.952 102.327 102.131 106.67 102.484C109.669 102.727 112.271 102.506 114.299 102.175C114.321 101.69 114.685 94.3149 114.707 93.8298C115.909 69.1239 115.986 67.4371 116.03 65.7393C116.229 58.8269 116.195 48.9049 115.016 36.5243C114.608 34.4186 114.2 32.3129 113.792 30.2183C111.775 30.7474 109.735 31.2876 107.696 31.8389Z" fill="#3F3F3F"/>
<path opacity="0.13" d="M30.7546 37.23C30.4679 38.4316 30.038 40.2286 29.5309 42.4225C27.2819 52.2123 25.6282 59.4113 24.7462 66.0371C23.1807 77.7121 21.6704 89.0232 28.1087 98.3059C29.9829 101.007 32.0334 102.826 33.4005 103.906C32.0775 104.425 30.4349 104.899 28.5166 105.13C23.1807 105.758 18.9032 104.028 16.8085 102.991C16.0148 95.6821 15.4636 87.8546 15.2872 79.5752C14.8903 61.2524 16.3786 44.7818 18.6496 30.6152C22.6736 32.8201 26.7086 35.025 30.7546 37.23Z" fill="#3F3F3F"/>
<path d="M19.1906 25.3674C19.0473 25.4776 19.1575 25.9076 19.356 26.6462C19.4332 26.9328 19.5103 27.1533 19.5544 27.2967C19.4662 27.892 19.3891 28.4873 19.3009 29.0826C19.1245 29.1047 18.6725 29.2039 18.2535 29.5677C17.8677 29.9095 17.7133 30.3064 17.6582 30.4827C18.011 30.5158 18.4409 30.593 18.904 30.7363C19.5765 30.9458 20.1057 31.2324 20.4915 31.475C20.4915 31.6072 20.5136 31.8608 20.69 32.0482C20.8443 32.2026 21.0317 32.2246 21.142 32.2467C21.5388 32.3128 22.0129 32.401 22.6192 32.5333C22.8838 32.6877 23.3248 32.9412 23.865 33.2389C25.6951 34.2311 26.3566 34.3965 28.1866 35.3666C29.3663 35.995 29.267 36.0171 30.0939 36.4139C31.3617 37.0313 32.4531 37.3951 33.1918 37.6046C33.5005 37.2628 33.9966 36.6014 34.2722 35.6422C34.4927 34.8815 34.4816 34.2201 34.4375 33.7901C34.625 33.8893 34.9226 33.9996 35.2644 33.9555C36.1464 33.8563 36.7086 32.853 36.885 32.1364C37.0393 31.508 36.896 31.1111 36.7747 30.3725C36.4991 28.7188 36.2566 27.2415 36.9401 26.3044C37.5134 25.5217 38.693 25.1579 39.6411 24.1106C39.7293 24.0113 39.8947 23.8239 39.8396 23.7357C39.7403 23.5704 38.9686 23.857 38.5938 24.0224C38.3513 24.1326 36.5322 24.9705 35.981 26.8667C35.8928 27.1644 35.8818 28.0243 35.8707 29.7331C35.8597 30.9788 35.8818 31.6844 35.3857 32.0923C35.1321 32.3018 34.7573 32.4231 34.4155 32.3459C33.9084 32.2356 33.6658 31.7395 33.4453 31.4088C32.8721 30.5379 32.0562 30.1741 31.053 29.678C30.2703 29.2921 29.5978 29.1488 28.2418 28.8511C26.9629 28.5755 26.5771 28.6086 26.0258 28.2007C25.4085 27.7376 25.0667 27.0872 24.8903 26.7234C24.7139 26.3816 24.4383 25.8414 24.317 25.0697C24.2509 24.6177 24.2619 24.298 24.1517 24.2759C23.9532 24.2318 23.854 25.1469 23.1815 25.4666C22.7736 25.665 22.509 25.4776 21.7924 25.4997C21.3294 25.5107 20.8002 25.6099 20.2049 25.8745C20.0064 25.7312 19.3891 25.224 19.1906 25.3674Z" fill="black"/>
<path d="M19.5203 28.9949C19.2888 27.1759 20.9425 25.5222 22.7726 25.7096C24.5034 25.886 25.65 27.9917 25.5949 29.5682C25.5838 29.7777 25.9146 29.7777 25.9256 29.5682C25.9807 27.8263 24.6798 25.5332 22.7726 25.3789C20.7661 25.2135 18.936 26.9885 19.1896 28.9949C19.2227 29.1934 19.5534 29.2044 19.5203 28.9949Z" fill="black"/>
<path d="M19.4879 30.1408C20.1604 31.4528 21.6046 32.3788 23.1149 32.1804C24.493 31.993 25.6616 30.8795 25.8711 29.5014C25.9041 29.292 25.5844 29.2038 25.5514 29.4132C25.3639 30.67 24.3276 31.6843 23.0708 31.8497C21.6928 32.0371 20.3919 31.1772 19.7745 29.9755C19.6753 29.7881 19.3886 29.9534 19.4879 30.1408Z" fill="black"/>
<path d="M20.6776 31.7395C20.6445 31.3205 21.8352 31.1441 22.1328 31.078C22.673 30.9567 23.2243 30.8906 23.7755 30.8906C24.8008 30.8906 25.7819 31.1552 26.6529 31.6954C26.8293 31.8056 27.0057 31.519 26.8183 31.4087C25.6938 30.7142 24.3818 30.4716 23.0809 30.5929C22.3974 30.6591 21.7249 30.8024 21.0745 31.0229C20.7217 31.1441 20.3028 31.2985 20.3358 31.7395C20.3579 31.9489 20.6996 31.9489 20.6776 31.7395Z" fill="black"/>
<path d="M25.419 27.9246C26.1135 28.7625 27.238 28.961 28.2413 29.1814C29.5752 29.4901 30.9533 29.7657 32.1219 30.5044C34.5363 32.0258 34.9883 35.3442 33.0811 37.4719C32.9377 37.6262 33.1692 37.8688 33.3126 37.7034C35.0103 35.8182 35.0544 32.9298 33.3015 31.0556C32.3755 30.0634 31.0525 29.5453 29.7627 29.2035C28.4507 28.8617 26.5656 28.8066 25.6395 27.6821C25.5182 27.5278 25.2867 27.7593 25.419 27.9246Z" fill="black"/>
<path d="M33.1375 33.691C32.5862 32.9634 31.6161 32.7099 30.7672 33.0626C29.7199 33.4926 29.6647 34.7825 29.786 35.7637C29.8081 35.9731 30.1388 35.9731 30.1167 35.7637C30.0175 34.9919 30.0065 33.8013 30.8003 33.4154C31.4838 33.0737 32.3768 33.2501 32.8398 33.8674C32.9721 34.0328 33.2587 33.8674 33.1375 33.691Z" fill="black"/>
<path d="M30.0709 35.6093C29.4645 35.1462 28.8361 34.7493 28.0534 34.9588C27.9652 34.9809 27.9211 35.0801 27.9431 35.1572C28.1416 35.929 29.3543 36.2487 29.9937 36.5243C30.9749 36.9542 31.9781 37.3181 32.9924 37.6378C33.1908 37.7039 33.279 37.3842 33.0806 37.3181C32.2647 37.0645 31.471 36.7889 30.6772 36.4581C30.2472 36.2817 29.8283 36.0943 29.4094 35.8959C29.0345 35.7195 28.3621 35.51 28.2518 35.069C28.2187 35.1352 28.1746 35.2013 28.1416 35.2675C28.8251 35.0801 29.3873 35.488 29.8945 35.8849C30.0709 36.0282 30.2362 35.7415 30.0709 35.6093Z" fill="black"/>
<path d="M20.3803 31.7063C20.8103 32.4119 21.6812 32.5331 22.4419 32.6434C23.5664 32.8088 24.6909 32.8088 25.8154 32.6875C26.0249 32.6654 26.0249 32.3347 25.8154 32.3568C24.9114 32.456 24.0074 32.478 23.1034 32.3898C22.3427 32.3127 21.119 32.2686 20.6559 31.5409C20.5567 31.3535 20.2701 31.5189 20.3803 31.7063Z" fill="black"/>
<path d="M17.8119 30.5822C17.9552 29.8105 18.6277 29.4136 19.3774 29.3805C19.3222 29.3364 19.2671 29.3034 19.223 29.2593C19.2781 29.5239 19.3553 29.7774 19.4656 30.02C19.5427 30.2184 19.8624 30.1302 19.7853 29.9318C19.686 29.6782 19.6089 29.4357 19.5427 29.1711C19.5317 29.1049 19.4545 29.0498 19.3884 29.0498C18.5064 29.0939 17.6686 29.579 17.5032 30.494C17.4591 30.7035 17.7788 30.7917 17.8119 30.5822Z" fill="black"/>
<path d="M19.7311 27.1645C19.5657 26.6904 19.4445 26.1943 19.4004 25.6872C19.4004 25.6431 19.3894 25.599 19.3894 25.5549C19.3783 25.4557 19.3894 25.4667 19.4335 25.588C19.5327 25.6541 19.6319 25.7313 19.7311 25.8085C19.8965 25.9518 20.0508 26.1061 20.1831 26.2715C20.3264 26.4369 20.558 26.1943 20.4146 26.04C20.2272 25.8195 19.4445 24.9155 19.1137 25.2683C18.9484 25.4447 19.0696 25.8526 19.1027 26.051C19.1578 26.4589 19.2681 26.8668 19.4004 27.2527C19.4886 27.4511 19.8083 27.3739 19.7311 27.1645Z" fill="black"/>
<path d="M23.4565 25.621C23.5557 25.4446 23.6549 25.2682 23.7651 25.0918C23.8092 25.0146 23.8533 24.9485 23.8864 24.8713C23.9526 24.7611 23.9526 24.6618 24.0849 24.6949C24.2392 24.728 24.1841 25.0918 24.1841 25.2241C24.1841 25.4336 24.1951 25.643 24.1951 25.8525C24.1951 26.062 24.5258 26.062 24.5258 25.8525C24.5258 25.5107 24.5369 25.169 24.5148 24.8272C24.5038 24.6067 24.4266 24.3642 24.1841 24.287C23.9636 24.2209 23.8092 24.3642 23.699 24.5295C23.5116 24.8272 23.3462 25.1469 23.1698 25.4446C23.0596 25.643 23.3462 25.8084 23.4565 25.621Z" fill="black"/>
<path d="M34.0188 32.8311C34.085 33.669 35.0221 33.9446 35.6725 33.5367C36.6316 32.9414 36.8411 31.5964 36.7198 30.5821C36.5545 29.193 36.2237 27.9032 36.6978 26.5251C37.1498 25.2132 38.2743 24.1438 39.6965 24.0556C39.9059 24.0446 39.9059 23.7139 39.6965 23.7249C37.7561 23.8461 36.4332 25.4998 36.1576 27.3299C35.9922 28.4213 36.2348 29.4356 36.3781 30.505C36.4663 31.2105 36.4222 31.883 36.1025 32.5335C35.9591 32.8091 35.7607 33.0847 35.4961 33.2611C35.0882 33.5147 34.3826 33.4375 34.3385 32.8422C34.3385 32.6217 34.0078 32.6107 34.0188 32.8311Z" fill="black"/>
<path d="M34.1941 33.426C34.5358 34.341 35.7265 33.9331 36.2446 33.4039C37.0935 32.544 36.9061 31.1108 36.8399 30.0194C36.8289 29.8099 36.4982 29.8099 36.5092 30.0194C36.5533 30.714 36.6195 31.4636 36.4982 32.1582C36.4431 32.4889 36.3218 32.7976 36.1013 33.0622C35.8588 33.3598 34.8004 34.1095 34.5138 33.3378C34.4366 33.1393 34.1169 33.2275 34.1941 33.426Z" fill="black"/>
<path d="M39.7067 23.7138C38.4499 24.1989 37.1821 24.8824 36.6749 26.2054C36.0906 27.7268 36.5096 29.3804 36.4765 30.9569C36.4765 31.1664 36.8072 31.1664 36.8072 30.9569C36.8403 29.5789 36.5096 28.1677 36.8403 26.8007C37.2041 25.3014 38.4499 24.5517 39.7949 24.0335C39.9933 23.9564 39.9051 23.6367 39.7067 23.7138Z" fill="black"/>
<path d="M39.4538 23.9012C38.2962 24.4304 37.2378 25.3564 36.6976 26.536C36.411 27.1534 36.4551 27.8369 36.4551 28.5094C36.4551 29.3693 36.4882 30.2403 36.5543 31.1002C36.5653 31.3097 36.8961 31.3097 36.885 31.1002C36.8409 30.4057 36.8079 29.7221 36.7968 29.0276C36.7858 28.3 36.6866 27.4401 36.9622 26.7565C37.4363 25.599 38.5056 24.706 39.6191 24.1878C39.8176 24.0996 39.6522 23.813 39.4538 23.9012Z" fill="black"/>
<path d="M20.1726 27.8919C20.4812 28.4321 21.264 28.2447 21.3412 27.6494C21.3522 27.5392 21.1868 27.5502 21.1758 27.6494C21.1207 28.1014 20.5474 28.1896 20.3159 27.8148C20.2608 27.7156 20.1174 27.8037 20.1726 27.8919Z" fill="white"/>
<path d="M22.5075 27.462C22.8493 28.0463 23.7202 27.8148 23.7312 27.1423C23.7312 27.032 23.5659 27.032 23.5659 27.1423C23.5548 27.6604 22.9154 27.8258 22.6508 27.3848C22.5957 27.2856 22.4524 27.3627 22.5075 27.462Z" fill="white"/>
<path d="M21.8465 28.1899C21.9237 28.5096 21.8576 28.8293 21.6591 29.0939C21.593 29.1821 21.7363 29.2593 21.8024 29.1821C22.0229 28.8844 22.0891 28.5096 22.0119 28.1458C21.9788 28.0466 21.8135 28.0906 21.8465 28.1899Z" fill="white"/>
<path d="M21.9128 28.1789C21.8797 28.5978 22.1112 28.9947 22.4971 29.1711C22.5963 29.2152 22.6735 29.0719 22.5853 29.0278C22.2546 28.8734 22.0451 28.5427 22.0782 28.1789C22.0782 28.0686 21.9128 28.0686 21.9128 28.1789Z" fill="white"/>
<path d="M19.2224 29.1602C20.1925 29.083 20.8099 29.8768 21.4603 30.4611C21.5375 30.5272 21.6588 30.417 21.5816 30.3398C20.8981 29.7225 20.2366 28.9177 19.2224 28.9838C19.1231 28.9948 19.1231 29.1602 19.2224 29.1602Z" fill="white"/>
<path d="M21.0302 31.1001C22.276 30.3063 23.7532 30.0417 25.1975 30.3614C25.2967 30.3835 25.3408 30.2291 25.2416 30.2071C23.7532 29.8874 22.2319 30.152 20.953 30.9678C20.8538 31.0119 20.942 31.1552 21.0302 31.1001Z" fill="white"/>
<path d="M24.1623 32.6109C25.1876 32.6771 26.1577 32.3573 26.9405 31.6848C27.0177 31.6187 26.9074 31.4974 26.8192 31.5636C26.0696 32.203 25.1435 32.5117 24.1623 32.4455C24.0631 32.4455 24.0631 32.6109 24.1623 32.6109Z" fill="white"/>
<path d="M23.8653 24.7832C23.6228 25.1912 23.5677 25.6652 23.711 26.1172C23.744 26.2164 23.8984 26.1723 23.8653 26.0731C23.733 25.6652 23.7771 25.2352 23.9976 24.8714C24.0638 24.7722 23.9204 24.684 23.8653 24.7832Z" fill="white"/>
<path d="M19.4979 25.8085C19.7625 25.9739 19.9279 26.2275 19.994 26.5251C20.0161 26.6244 20.1704 26.5803 20.1484 26.481C20.0712 26.1393 19.8728 25.8526 19.5751 25.6652C19.4869 25.6101 19.4097 25.7534 19.4979 25.8085Z" fill="white"/>
<path d="M25.3303 27.5723C25.5398 27.8258 25.7824 28.0463 26.058 28.2117C26.1462 28.2668 26.2344 28.1235 26.1462 28.0684C25.8816 27.903 25.639 27.6935 25.4516 27.451C25.3744 27.3738 25.2642 27.4951 25.3303 27.5723Z" fill="white"/>
<path d="M32.1334 32.9856C31.9018 32.4013 30.7884 32.7982 30.4246 33.0297C29.7741 33.4597 29.4875 34.2645 29.73 35.0031C29.7631 35.1023 29.9174 35.0582 29.8844 34.959C29.6969 34.3747 29.8513 33.7463 30.3143 33.3164C30.5128 33.129 30.7773 32.9967 31.0419 32.9305C31.2293 32.8754 31.8688 32.7541 31.968 33.0187C32.0121 33.129 32.1664 33.0849 32.1334 32.9856Z" fill="white"/>
<path d="M29.8611 35.0139C29.0012 34.6501 28.0861 34.617 27.1931 34.8926C27.0939 34.9257 27.138 35.08 27.2372 35.047C28.1082 34.7713 28.9791 34.8154 29.817 35.1682C29.9162 35.2123 29.9603 35.047 29.8611 35.0139Z" fill="white"/>
<path d="M60.1482 80.8645C59.6962 81.9449 59.6962 82.7497 59.63 84.8223C59.5529 87.38 59.3324 89.9267 59.3103 92.4734C59.2883 94.6232 59.2552 97.8754 59.167 102.109C62.6948 102.307 66.5975 102.351 70.831 102.142C74.8659 101.943 78.5922 101.536 81.9547 101.028C80.3672 95.6595 79.3198 91.7458 78.5702 88.714C78.1733 87.0934 77.589 84.668 75.9794 81.8347C75.0974 80.2802 74.1824 79.1116 73.5099 78.3289C73.3335 78.1745 69.4419 74.9003 64.9439 76.4437C64.7234 76.5319 61.4491 77.7225 60.1482 80.8645Z" fill="#EC615B"/>
<path d="M66.6407 87.2918C67.3793 88.6037 68.118 89.9156 68.8456 91.2275C68.9448 91.4149 69.2315 91.2496 69.1322 91.0621C68.3936 89.7502 67.6549 88.4383 66.9273 87.1264C66.8281 86.939 66.5415 87.1043 66.6407 87.2918Z" fill="#C64F4F"/>
<path d="M66.5544 87.2261C68.2522 89.3428 69.2334 91.7572 69.7625 94.4031C70.2586 96.9057 70.5784 99.4413 70.7658 101.988C70.7768 102.197 71.1075 102.197 71.0965 101.988C70.8981 99.3752 70.5673 96.7624 70.0602 94.1936C69.531 91.5367 68.4947 89.1113 66.7969 86.9946C66.6646 86.8182 66.4221 87.0608 66.5544 87.2261Z" fill="#C64F4F"/>
<path opacity="0.19" d="M69.21 76.1904C69.5958 76.9621 70.147 78.0977 70.7644 79.4647C72.5614 83.4556 74.4246 87.667 75.4168 92.8485C75.8247 94.9432 76.2105 97.9749 76.0452 101.756C76.9712 101.712 77.9524 101.635 78.9777 101.525C80.003 101.415 80.9842 101.282 81.9102 101.128C81.6236 100.158 81.1606 98.6143 80.6424 96.7071C79.1982 91.3712 78.9997 89.7065 77.765 86.1897C76.85 83.5769 76.0011 81.8019 74.7774 80.1041C73.6749 78.5717 72.6386 77.6126 71.3267 76.9401C70.5109 76.5212 69.7502 76.3117 69.21 76.1904Z" fill="#3F3F3F"/>
<path opacity="0.11" d="M66.5757 87.3467C67.0056 88.9563 67.3805 90.8745 67.5569 93.0353C67.8656 96.7727 67.4687 99.9587 66.9836 102.34C68.2514 102.263 69.5082 102.186 70.776 102.109C70.6437 99.606 70.3571 97.5003 70.0815 95.9017C69.3869 91.8337 68.6593 90.3233 68.075 89.3531C67.5238 88.4602 66.9726 87.7877 66.5757 87.3467Z" fill="#3F3F3F"/>
<path d="M52.4488 62.0788C52.085 62.3213 51.8645 62.7844 51.4345 63.6994C51.0817 64.4491 50.9164 65.0334 50.6518 65.9043C49.9242 68.3738 50.0013 67.9549 49.7478 68.892C49.417 70.1377 48.8217 72.3206 48.491 75.198C48.1713 77.9872 48.2374 80.137 48.2484 80.6551C48.3697 83.9294 48.943 86.3659 49.3288 87.9313C50.0124 90.7426 50.9274 93.0798 52.7464 97.7432C53.1433 98.7464 53.4741 99.5733 53.7056 100.147C53.5402 100.169 53.2756 100.202 52.9559 100.246C51.2912 100.444 51.0597 100.4 50.3872 100.543C49.5273 100.731 48.7556 100.918 48.4579 101.569C48.3256 101.866 48.2705 102.285 48.4358 102.429C48.6453 102.605 49.0532 102.208 49.7588 101.977C50.3541 101.789 50.8833 101.8 51.2471 101.855C50.9605 102.418 50.7951 102.925 50.6959 103.289C50.4533 104.126 50.2659 104.81 50.5746 105.295C50.729 105.538 51.0266 105.758 51.2692 105.692C51.4014 105.659 51.5227 105.538 51.8535 104.667C52.1732 103.796 52.1952 103.52 52.4598 103.178C52.6913 102.892 52.9559 102.737 53.1323 102.649C53.0441 102.925 52.9449 103.333 52.9008 103.829C52.8787 104.126 52.8457 104.402 52.9008 104.755C52.9449 105.075 53.0441 105.758 53.5512 106.133C53.6394 106.199 54.0032 106.475 54.2237 106.331C54.4111 106.221 54.356 105.912 54.4332 104.92C54.4993 104.082 54.5655 103.851 54.6206 103.718C54.7639 103.333 54.9844 103.057 55.1498 102.892C55.0947 103.685 55.1057 104.347 55.1277 104.832C55.1718 105.615 55.249 105.967 55.5026 106.188C55.6459 106.309 55.8884 106.431 56.0869 106.342C56.2853 106.254 56.3515 105.979 56.4066 105.637C56.6491 104.347 56.5058 103.972 56.7814 103.322C56.8917 103.068 57.0129 102.759 57.3106 102.539C57.939 102.076 58.832 102.351 58.9533 102.385C59.4824 102.55 59.6809 102.837 59.9455 102.715C60.166 102.616 60.2872 102.296 60.2982 102.032C60.3093 101.381 59.5927 100.885 58.9753 100.477C58.6666 100.268 58.2036 99.9922 57.5862 99.7717C57.046 98.7023 56.3625 97.1479 55.8002 95.1745C55.4254 93.8515 55.249 92.8373 55.0836 91.8781C54.4993 88.5156 54.7088 87.2258 54.0584 83.8853C53.904 83.0805 53.7497 82.4411 53.6615 82.0773C53.7056 81.5261 53.7827 80.6662 53.893 79.6188C54.2568 76.2012 54.4993 74.0625 55.238 71.5489C55.8223 69.5755 56.4176 67.9549 56.4176 67.9549C57.1673 65.9374 57.4098 65.6618 57.3216 65.0113C57.0129 62.9608 53.8048 61.1748 52.4488 62.0788Z" fill="white"/>
<path d="M51.6005 63.1261C49.6381 67.6571 48.4033 72.4969 48.1388 77.4359C47.8631 82.4741 48.7341 87.4021 50.3657 92.1647C51.2918 94.8878 52.4163 97.5336 53.5628 100.18C53.651 100.378 53.9266 100.202 53.8495 100.014C51.8651 95.428 49.9247 90.7756 48.9987 85.8587C48.0836 81.0079 48.2711 75.9917 49.3294 71.174C49.9247 68.473 50.7846 65.8381 51.8871 63.3025C51.9643 63.104 51.6887 62.9276 51.6005 63.1261Z" fill="#161616"/>
<path d="M55.7129 69.4209C54.3238 73.6213 53.5962 78.0201 53.519 82.4409C53.519 82.6504 53.8498 82.6504 53.8498 82.4409C53.927 78.0421 54.6546 73.6874 56.0326 69.5091C56.0988 69.3107 55.7791 69.2225 55.7129 69.4209Z" fill="#161616"/>
<path d="M52.3613 80.4345C53.3425 81.8016 53.7394 83.4332 53.9709 85.0649C54.2135 86.7296 54.3237 88.4163 54.5662 90.081C55.0513 93.4656 55.8451 96.8391 57.4436 99.8708C57.5429 100.058 57.8295 99.8929 57.7303 99.7054C56.0656 96.5524 55.2828 93.0356 54.8198 89.5298C54.4119 86.4539 54.5332 82.893 52.648 80.2692C52.5267 80.1038 52.2401 80.2692 52.3613 80.4345Z" fill="#161616"/>
<path d="M53.5186 100.026C52.4933 100.081 51.468 100.18 50.4648 100.367C49.7482 100.511 48.9875 100.742 48.4914 101.316C48.2048 101.657 47.841 102.473 48.4693 102.705C48.745 102.804 48.9875 102.616 49.219 102.484C49.7923 102.153 50.3876 101.812 51.0711 101.999C51.2806 102.054 51.3688 101.734 51.1593 101.679C50.5971 101.525 50.09 101.657 49.5828 101.911C49.4285 101.988 49.2852 102.065 49.1418 102.153C49.0536 102.197 48.9765 102.253 48.8883 102.308C48.7891 102.131 48.6788 101.955 48.5796 101.779C48.6016 101.503 49.1529 101.183 49.3513 101.073C49.8915 100.786 50.5199 100.687 51.1152 100.599C51.92 100.478 52.7248 100.4 53.5296 100.356C53.7391 100.345 53.7391 100.015 53.5186 100.026Z" fill="#161616"/>
<path d="M52.6161 101.006C51.7451 101.15 51.0285 101.745 50.6978 102.55C50.345 103.388 50.0473 104.633 50.4553 105.493C50.7639 106.144 51.5246 106.375 51.8113 105.581C51.9877 105.085 51.9546 104.545 52.131 104.049C52.3515 103.432 52.7263 102.903 53.2775 102.539C53.4539 102.417 53.2886 102.131 53.1122 102.252C52.594 102.594 52.2082 103.057 51.9546 103.619C51.8223 103.906 51.7231 104.203 51.6569 104.512C51.6018 104.766 51.5687 106.045 50.9624 105.67C50.6206 105.46 50.5876 104.788 50.5986 104.446C50.6206 103.939 50.7529 103.355 50.9183 102.869C51.1939 102.054 51.8443 101.469 52.6932 101.326C52.9137 101.293 52.8255 100.973 52.6161 101.006Z" fill="#161616"/>
<path d="M53.6511 101.822C52.9675 102.263 52.725 103.222 52.6589 103.994C52.5927 104.821 52.8242 105.714 53.4416 106.298C53.8054 106.64 54.3677 106.816 54.4669 106.177C54.6322 105.108 54.2023 103.597 55.3709 102.958C55.5583 102.859 55.3929 102.572 55.2055 102.671C54.7866 102.903 54.522 103.278 54.3566 103.73C54.1251 104.391 54.2574 105.063 54.1582 105.747C54.1141 106.056 54.0259 106.386 53.6841 106.067C53.5629 105.956 53.4526 105.813 53.3644 105.67C53.155 105.339 53.0337 104.964 53.0006 104.578C52.9234 103.807 53.1219 102.572 53.8275 102.109C53.9928 101.988 53.8275 101.701 53.6511 101.822Z" fill="#161616"/>
<path d="M55.2168 102.704C55.0073 103.498 54.8089 104.325 54.9411 105.151C54.9963 105.548 55.2278 106.518 55.7349 106.618C56.3082 106.728 56.5397 105.714 56.5948 105.339C56.7161 104.523 56.5618 103.542 57.2012 102.913C57.3555 102.759 57.124 102.528 56.9697 102.682C56.1979 103.443 56.4625 104.545 56.231 105.515C56.1538 105.868 55.9334 106.397 55.5695 105.989C55.3711 105.78 55.316 105.372 55.2719 105.096C55.1616 104.325 55.3491 103.553 55.5475 102.803C55.5916 102.594 55.2719 102.506 55.2168 102.704Z" fill="#161616"/>
<path d="M57.5964 100.058C58.2469 100.323 58.9194 100.609 59.4265 101.116C59.658 101.348 59.9447 101.701 60.0108 102.031C60.1762 102.946 59.4927 102.362 59.2391 102.252C58.5445 101.943 57.1665 102.164 56.7696 102.869C56.6704 103.057 56.957 103.222 57.0562 103.035C57.2657 102.649 57.839 102.549 58.2359 102.494C58.4784 102.461 58.754 102.439 58.9855 102.505C59.2501 102.583 59.4155 102.814 59.669 102.891C60.0329 103.001 60.3085 102.748 60.3636 102.395C60.4628 101.822 59.9667 101.182 59.5809 100.808C59.0406 100.289 58.3461 100.003 57.6626 99.7272C57.4862 99.6611 57.409 99.9808 57.5964 100.058Z" fill="#161616"/>
<path opacity="0.13" d="M55.37 65.8598C54.1022 65.937 53.3415 69.1782 52.9226 70.9752C52.4485 72.9927 52.0186 75.7709 52.1068 79.8169C52.184 83.4329 52.647 86.1891 52.8013 87.1482C53.4959 91.2714 54.5873 94.7331 55.6567 97.4451C56.0095 98.4373 56.3512 99.4295 56.704 100.411C56.5056 101.227 56.3071 102.064 56.1197 102.935C55.8772 104.082 55.6567 105.206 55.4803 106.287C55.6898 106.309 55.9764 106.298 56.1748 106.099C56.4284 105.846 56.3953 105.438 56.4064 105.085C56.4174 104.754 56.4505 103.156 57.167 102.561C57.608 102.197 58.3136 102.197 58.7987 102.373C59.2948 102.561 59.5153 102.924 59.846 102.814C60.0996 102.737 60.276 102.428 60.309 102.186C60.4193 101.381 58.8759 100.554 58.6223 100.422C58.1262 100.157 57.8947 100.124 57.575 99.7933C57.1781 99.3744 57.0458 98.8783 56.9907 98.6578C56.0756 95.1741 55.6236 95.3946 55.0062 91.3926C54.5432 88.3719 54.8409 88.5483 54.3668 86.145C54.0361 84.4472 53.7605 83.7526 53.6723 82.2864C53.573 80.6768 53.7605 79.42 53.9589 78.3065C54.7857 73.7534 56.3733 68.2411 56.7591 66.9292C56.4064 66.378 55.9213 65.8267 55.37 65.8598Z" fill="#3F3F3F"/>
<path d="M77.8765 20.538C77.5347 20.527 77.2701 21.1444 77.204 21.3097C77.1048 21.5523 76.9504 22.0263 77.0607 22.6988C77.0607 22.6988 77.1268 23.1619 77.3473 25.9621C77.4024 26.5905 77.4134 27.5055 77.2481 28.6521C76.8071 29.8648 76.3882 30.8129 76.1015 31.4303C75.1314 33.5029 74.4809 34.3297 73.1249 36.9536C72.6178 37.9347 72.5737 38.0891 71.9783 39.3018C70.49 42.3115 69.3986 44.1967 68.2851 46.2142C67.3039 47.9781 65.9259 50.5689 64.3053 53.8983C64.2281 54.1849 63.8422 55.7173 64.7352 57.0623C65.6833 58.4845 67.6678 59.1239 69.586 58.5065C69.8837 58.0876 70.3026 57.4371 70.6885 56.5883C71.0633 55.7614 71.2397 55.122 71.361 54.7141C71.4822 54.3062 71.9673 52.9281 72.9485 50.1499C73.2572 49.29 73.632 48.2647 74.3927 46.2583C75.5503 43.1824 76.1236 41.65 76.5094 40.6909C77.3804 38.508 78.0418 36.9977 79.3427 34.0651C80.0263 32.5217 80.8641 30.6585 81.8343 28.5418C82.3965 28.2221 83.1683 27.726 83.9951 27.0094C85.1857 25.9841 85.7811 25.1132 86.9276 23.4595C87.6663 22.3791 88.2285 21.431 88.0742 20.4829C88.0521 20.3506 87.997 19.9647 87.7875 19.9096C87.5229 19.8325 87.1922 20.3616 86.8284 20.8247C86.4536 21.2987 85.8913 21.9161 85.0534 22.5555C85.3401 21.7617 85.6267 21.1444 85.8252 20.7365C86.2772 19.8104 86.652 19.2151 86.8835 18.1898C87.1371 17.0984 86.9056 16.8999 86.8394 16.8448C86.5418 16.6243 86.0346 17.0432 85.737 16.8007C85.4724 16.5692 85.7039 16.0621 85.4944 15.9408C85.285 15.8195 84.8219 16.1833 84.4912 16.5692C83.9179 17.2307 83.7856 17.8701 83.5762 18.4875C83.3777 19.0938 83.0139 19.9207 82.3304 20.8357C82.165 20.8577 81.9445 20.8688 81.8453 20.7365C81.7351 20.5821 81.8894 20.3286 82.0327 19.9207C82.0658 19.8214 82.0438 19.8766 82.2753 18.8623C82.3635 18.4764 82.5288 17.7598 82.6611 17.1866C82.8485 16.3597 82.9367 16.018 82.7603 15.6542C82.7273 15.577 82.584 15.2793 82.3745 15.2683C82.1319 15.2573 81.9445 15.6431 81.8012 15.9408C81.2169 17.1425 80.9192 17.7488 80.8421 17.9583C80.4562 19.0056 79.9381 20.6042 79.8609 21.1554C79.8499 21.2215 79.8278 21.4531 79.7176 21.7507C79.6625 21.894 79.6294 21.9492 79.5963 22.0374C79.3207 22.6547 79.5522 23.0626 79.2656 23.2831C79.2325 23.3052 79.0671 23.4265 78.9348 23.3824C78.7915 23.3383 78.7254 23.1508 78.6482 22.5224C78.5379 21.6625 78.6041 21.409 78.4057 21.0341C78.2734 20.8688 78.108 20.549 77.8765 20.538Z" fill="white"/>
<path d="M77.3479 25.6428C77.4251 24.838 77.3038 24.0553 77.2597 23.2505C77.2377 22.8646 77.2377 22.4677 77.2928 22.0819C77.3259 21.8614 77.37 21.6409 77.4361 21.4314C77.5464 21.1117 77.5574 20.8471 77.9102 20.8361C78.2409 20.8251 78.2189 21.0235 78.274 21.2991C78.3291 21.5417 78.3401 21.7952 78.3512 22.0378C78.3732 22.3795 78.3842 22.7323 78.4614 23.0631C78.5386 23.4048 78.748 23.6915 79.1339 23.5702C79.3323 23.504 79.2552 23.1843 79.0457 23.2505C78.6598 23.3607 78.6929 22.0598 78.6709 21.8393C78.6378 21.4865 78.6047 21.1227 78.4724 20.792C78.285 20.329 77.8551 20.0975 77.4912 20.5274C77.0172 21.0786 76.918 22.0708 76.918 22.7544C76.918 23.7245 77.1054 24.6726 77.0172 25.6428C77.0062 25.8523 77.3369 25.8523 77.3479 25.6428Z" fill="#161616"/>
<path d="M79.2642 23.4377C79.8155 22.3683 79.9808 21.1556 80.3005 20.009C80.6423 18.7743 81.0723 17.5616 81.7117 16.4591C81.855 16.2166 81.9983 15.8748 82.2078 15.6874C82.6157 15.3126 82.6157 16.0292 82.5826 16.3379C82.5165 17.0214 82.3401 17.7159 82.1857 18.3884C82.0424 19.0058 81.844 19.6011 81.7007 20.2185C81.6235 20.5603 81.6235 20.8579 81.866 21.1225C82.0094 21.2769 82.2409 21.0453 82.0975 20.891C81.8219 20.5933 82.1086 19.998 82.1968 19.6783C82.296 19.3145 82.3952 18.9507 82.4724 18.5869C82.6267 17.9144 82.7811 17.2309 82.8803 16.5363C82.9354 16.1725 83.0126 15.5331 82.6929 15.2575C82.4173 15.0259 82.1416 15.2464 81.9542 15.4669C81.1494 16.4702 80.6533 17.7931 80.2564 19.0058C79.8044 20.4059 79.6611 21.9714 78.9776 23.2833C78.8784 23.4597 79.165 23.6251 79.2642 23.4377Z" fill="#161616"/>
<path d="M81.9443 21.1554C82.2751 21.1885 82.3963 20.9459 82.5507 20.6814C82.7932 20.2624 83.0137 19.8214 83.2232 19.3915C83.6311 18.5536 83.9177 17.6386 84.4138 16.8558C84.5241 16.6795 84.6564 16.459 84.8328 16.3267C84.9761 16.1613 85.1635 16.1062 85.406 16.1833C85.4391 16.3377 85.4611 16.492 85.4611 16.6464C85.4722 17.1866 85.2958 17.7268 85.1084 18.2339C84.7335 19.2371 84.3146 20.2294 83.9067 21.2326C83.8295 21.431 84.1492 21.5192 84.2264 21.3208C84.4579 20.7475 86.8392 15.7203 85.2848 15.6872C84.9761 15.6762 84.6233 16.0621 84.4469 16.2715C84.1382 16.6354 83.9177 17.0543 83.7193 17.4842C83.4878 18.0024 83.2783 18.5205 83.0358 19.0277C82.8924 19.3364 82.7271 19.6561 82.5727 19.9537C82.4735 20.1522 82.231 20.8357 81.9553 20.8137C81.7349 20.8026 81.7349 21.1334 81.9443 21.1554Z" fill="#161616"/>
<path d="M85.8464 17.0986C85.9677 16.4592 86.6623 16.9002 86.7504 17.3081C86.8276 17.6499 86.6953 17.9916 86.5851 18.3113C86.4197 18.7964 86.2323 19.2705 86.0339 19.7335C85.648 20.6375 85.196 21.4974 84.6889 22.3463C84.5786 22.5337 84.8653 22.6991 84.9755 22.5117C85.4496 21.7289 85.8685 20.9131 86.2433 20.0863C86.563 19.3697 86.9489 18.5759 87.0702 17.7932C87.1473 17.2971 87.004 16.6577 86.4528 16.4813C86.0449 16.349 85.6039 16.6025 85.5267 17.0215C85.4936 17.2199 85.8134 17.3081 85.8464 17.0986Z" fill="#161616"/>
<path d="M85.2082 22.644C85.6272 22.1699 86.0351 21.6959 86.454 21.2218C86.6745 20.9683 86.8729 20.6926 87.1155 20.4722C87.1926 20.406 87.2698 20.3509 87.336 20.2847C87.5234 20.3509 87.7108 20.417 87.9092 20.4832C87.9644 20.5824 87.8321 20.869 87.799 20.9572C87.4572 22.0046 86.9611 22.9968 86.3768 23.9228C85.1972 25.786 83.5766 27.3515 81.6804 28.487C81.493 28.5972 81.6694 28.8839 81.8457 28.7736C84.205 27.3625 86.1453 25.2899 87.369 22.8314C87.6667 22.2361 87.9533 21.6077 88.1408 20.9683C88.251 20.5934 88.3171 20.0863 87.8872 19.8879C87.4683 19.6894 87.0273 20.0753 86.7627 20.3509C86.1343 21.0013 85.561 21.7289 84.9657 22.4125C84.8334 22.5668 85.0649 22.7983 85.2082 22.644Z" fill="#161616"/>
<path d="M77.0605 25.3011C77.1377 26.3154 77.2148 27.3517 77.0495 28.366C76.8841 29.3692 76.4652 30.2953 76.0021 31.1993C75.0651 33.0293 74.0839 34.8374 73.1247 36.6564C71.2065 40.2945 69.2882 43.9216 67.3699 47.5597C66.2675 49.6433 65.165 51.738 64.0626 53.8216C63.9633 54.009 64.25 54.1744 64.3492 53.987C68.307 46.4793 72.342 39.0046 76.2337 31.4528C76.6967 30.5598 77.1266 29.6448 77.3141 28.6636C77.5345 27.5501 77.4574 26.4256 77.3692 25.3011C77.3802 25.0917 77.0495 25.0917 77.0605 25.3011Z" fill="#161616"/>
<path d="M81.6579 28.4101C78.13 35.8627 75.0542 43.4916 72.3421 51.275C71.5484 53.535 70.7546 55.795 69.7955 57.9889C69.7073 58.1874 69.9939 58.3527 70.0821 58.1543C71.7248 54.417 72.9264 50.5033 74.3376 46.6888C75.7818 42.764 77.3473 38.8724 79.012 35.0358C79.9601 32.864 80.9302 30.7142 81.9445 28.5754C82.0327 28.388 81.7461 28.2227 81.6579 28.4101Z" fill="#161616"/>
<path opacity="0.1" d="M86.6397 16.9661C86.1877 16.8999 85.5813 18.7521 85.2285 19.6781C84.1591 22.5224 83.2551 22.8532 80.962 26.7118C80.1131 28.1339 78.9445 30.2727 77.7649 33.0619C74.2371 40.4924 70.7202 47.934 67.1924 55.3645C68.0523 56.4119 68.9012 57.4702 69.7611 58.5176C70.1911 57.2938 70.8195 55.4968 71.6022 53.325C73.0244 49.4113 74.8655 44.3731 77.4673 38.2434C78.5036 35.818 79.9367 32.5438 81.7778 28.6962C82.285 28.3765 82.9905 27.8804 83.7623 27.1969C84.7986 26.2928 86.1656 25.0691 87.1027 23.0737C87.4004 22.4563 87.7752 21.5082 87.9736 20.2624C87.8303 20.1963 87.6208 20.1191 87.3893 20.1632C86.9925 20.2404 86.783 20.6262 86.6176 20.8908C85.9782 21.872 85.0411 22.5224 84.9198 22.4453C84.8537 22.3902 85.0411 22.0704 85.5482 21.0341C86.5845 18.9064 86.1546 19.4687 86.5625 18.7521C86.794 18.3441 87.0255 17.9914 86.9484 17.5394C86.9484 17.3409 86.8271 16.9992 86.6397 16.9661Z" fill="#3F3F3F"/>
<path opacity="0.13" d="M85.9683 24.4849C85.4171 24.8376 84.6343 25.3558 83.7414 26.0393C82.7161 26.811 81.6136 27.6489 80.6876 28.7073C79.4308 30.1405 78.8795 31.5626 78.5488 32.3895C75.517 40.1287 71.912 48.5294 70.8867 50.8666C70.3245 52.1454 69.4425 54.0747 68.2739 56.3899C68.8031 57.0844 69.3433 57.779 69.8725 58.4735C71.3939 53.8322 73.1468 48.9704 75.1532 43.9321C77.314 38.5191 79.552 33.4588 81.801 28.7514C82.4074 28.3435 83.0909 27.8253 83.7854 27.1528C84.7666 26.2157 85.4722 25.2676 85.9683 24.4849Z" fill="#3F3F3F"/>
<path d="M56.6523 56.4006C56.2444 56.6762 55.3294 57.3157 54.3923 58.352C53.4222 59.4214 52.8599 60.4246 52.3969 61.2735C52.0331 61.9239 51.7685 62.4972 51.5811 62.9161C51.8677 63.4674 52.3307 64.3162 52.9701 65.3305C54.1057 67.1275 54.9876 68.0977 56.509 70.049C57.1484 70.8648 58.0745 72.0885 59.177 73.632C59.3534 74.4588 59.5077 75.3298 59.64 76.2448C59.9046 78.119 60.0038 79.8608 60.0038 81.4263C60.4117 81.8673 61.1173 82.5067 62.1536 82.9587C63.8734 83.7194 65.4389 83.4989 66.2547 83.3666C68.0627 83.091 69.2975 82.2862 70.1464 81.724C71.6898 80.7097 72.7371 79.497 73.4317 78.4938C73.2884 76.774 73.101 74.999 72.8694 73.1579C72.671 71.5924 72.4505 70.0711 72.208 68.5938C72.1859 67.4362 72.0757 65.8597 71.7008 64.0296C71.3921 62.4972 71.0173 60.7112 69.9038 58.5945C68.5147 55.9597 66.7839 54.3611 66.1114 53.7768C65.5161 53.2586 64.9759 52.8728 64.579 52.5972C62.9694 53.6224 61.5803 54.2619 60.6322 54.6477C58.8683 55.3754 58.0414 55.4856 56.6523 56.4006Z" fill="white"/>
<path d="M51.7574 62.9605C52.0992 61.6596 53.0473 60.4469 53.8631 59.3885C54.723 58.2861 55.6932 57.2828 56.8508 56.478C57.0272 56.3568 56.8618 56.0701 56.6854 56.1914C55.4948 57.0182 54.4915 58.0435 53.6096 59.1791C52.7607 60.2705 51.8015 61.5052 51.4487 62.8613C51.3936 63.0817 51.7133 63.1589 51.7574 62.9605Z" fill="#161616"/>
<path d="M51.515 63.0711C53.7861 67.0399 56.4761 70.7662 59.5299 74.1728C59.6732 74.3271 59.9047 74.0956 59.7614 73.9412C56.7296 70.5567 54.0617 66.8525 51.8017 62.9057C51.6914 62.7183 51.4048 62.8836 51.515 63.0711Z" fill="#161616"/>
<path d="M60.8414 54.8025C62.0761 53.9316 63.4321 53.2811 64.8763 52.8622C65.0858 52.8071 64.9976 52.4874 64.7881 52.5425C63.3109 52.9725 61.9328 53.6339 60.676 54.5159C60.4996 54.6372 60.665 54.9238 60.8414 54.8025Z" fill="#161616"/>
<path d="M64.6002 52.9502C69.87 56.6214 72.13 63.0597 71.8764 69.2886C71.8654 69.498 72.1961 69.498 72.2072 69.2886C72.4718 62.9274 70.1346 56.4009 64.7656 52.6636C64.6002 52.5423 64.4349 52.8289 64.6002 52.9502Z" fill="#161616"/>
<path d="M58.8121 73.5227C59.3854 74.7023 59.4515 76.1686 59.5728 77.4474C59.7051 78.7483 59.7492 80.0602 59.7492 81.3721C59.7492 81.5816 60.0799 81.5816 60.0799 81.3721C60.0909 79.9169 60.0248 78.4617 59.8594 77.0174C59.7271 75.7937 59.6389 74.4708 59.0987 73.3463C58.9995 73.1589 58.7239 73.3242 58.8121 73.5227Z" fill="#161616"/>
<path d="M59.959 81.4378C61.6127 83.4663 64.435 84.0396 66.8935 83.4112C68.2605 83.0584 69.5283 82.3859 70.6639 81.5481C71.7994 80.7102 72.8798 79.74 73.5192 78.4612C73.6184 78.2738 73.3318 78.1084 73.2326 78.2958C72.6152 79.5195 71.5789 80.4566 70.4875 81.2614C69.4291 82.0442 68.2495 82.6836 66.9706 83.0474C64.5673 83.7199 61.8001 83.2017 60.1795 81.2063C60.0583 81.0409 59.8267 81.2724 59.959 81.4378Z" fill="#161616"/>
<path d="M71.9975 68.7924C72.5377 72.0226 73.0669 75.2528 73.2543 78.5161C73.2653 78.7255 73.5961 78.7255 73.585 78.5161C73.3866 75.2197 72.8574 71.9565 72.3172 68.7042C72.2842 68.4948 71.9644 68.583 71.9975 68.7924Z" fill="#161616"/>
<path opacity="0.13" d="M61.2607 54.3614C62.4845 55.8056 64.1602 58.0546 65.5603 61.0973C67.6109 65.5513 68.0188 69.3988 68.3275 72.6731C68.57 75.1647 68.7023 78.6374 68.2172 82.7826C69.1543 82.3747 70.4773 81.6691 71.7561 80.4454C72.4617 79.7619 72.9909 79.0784 73.3877 78.483C73.0239 75.4072 72.6601 72.3203 72.2963 69.2445C72.3625 66.7088 71.9656 64.6583 71.5907 63.2692C70.4332 58.9696 68.2062 56.2025 67.4565 55.3315C66.4313 54.1298 65.428 53.2479 64.6894 52.6636C63.5428 53.2369 62.4073 53.7991 61.2607 54.3614Z" fill="#3F3F3F"/>
<path opacity="0.14" d="M69.474 58.2202C69.2756 58.2753 69.7386 60.0723 70.1796 62.7292C70.1796 62.7292 70.8521 66.7642 70.9954 70.6669C71.0946 73.2466 70.9623 77.017 69.8048 81.7024C70.3339 81.4378 70.9844 81.052 71.6569 80.5118C72.4727 79.8503 73.057 79.1558 73.4539 78.6045C73.3106 74.1616 72.9357 71.8575 72.583 70.5566C72.5168 70.303 72.3404 69.7077 72.1971 68.8699C71.9325 67.3044 72.0648 66.6319 71.9215 65.331C71.8112 64.2947 71.6018 63.6112 71.2159 62.3433C70.6316 60.4361 69.6945 58.154 69.474 58.2202Z" fill="#3F3F3F"/>
<path d="M56.4983 38.2661C55.7707 38.674 54.8446 39.2913 53.9516 40.2284C52.0995 42.2018 51.5042 44.4067 51.2947 45.4982C51.1293 45.4761 50.6773 45.443 50.3135 45.7297C49.7733 46.1486 49.7623 46.9754 49.9718 47.4605C50.0489 47.6369 50.1592 47.7802 50.3907 48.0669C50.6663 48.4086 50.8427 48.6181 51.1293 48.7394C51.2506 48.7945 51.5262 48.8717 51.9231 48.7835C52.0444 49.1473 52.2428 49.6544 52.5405 50.2387C52.9263 50.9884 53.5106 52.1019 54.6792 53.072C55.021 53.3587 55.5502 53.7335 56.2668 54.0752C56.5314 54.417 57.0164 55.1336 57.0716 56.1038C57.1818 57.8126 55.936 59.2347 54.7564 59.8631C52.7058 60.9546 50.4789 59.8631 49.6631 59.4552C49.2221 59.2347 47.0062 58.0882 46.0801 55.5746C44.9556 52.5428 46.4219 49.5111 47.2928 47.7031C48.1748 45.884 48.5827 46.0053 49.2552 44.2303C50.1481 41.8821 49.6741 41.0553 50.6994 39.2583C51.0963 38.5527 51.901 37.1416 53.5878 36.4801C55.032 35.9178 56.366 36.2045 56.9393 36.3698C57.4133 36.0832 58.2512 35.6753 59.3095 35.6753C61.8231 35.6753 63.4327 38.0566 63.8186 38.6299C64.9651 40.3166 64.3588 40.8348 65.3841 43.2051C66.6739 46.1927 67.9307 46.0163 69.0883 48.8165C69.6506 50.1836 70.5876 52.4436 69.5513 54.6044C68.482 56.8314 66.0455 57.4818 65.7368 57.559C65.1746 57.7023 63.6642 58.0772 62.1539 57.2724C62.0105 57.1952 60.1143 56.1589 59.96 54.3839C59.9049 53.7335 60.0923 53.1271 60.1364 52.9948C60.3679 52.2782 60.7648 51.8152 60.886 51.6609C61.3601 51.0766 61.9334 49.9962 62.3303 47.8464C62.5177 47.8354 62.8264 47.7913 63.135 47.6149C63.7855 47.24 64.0942 46.4793 64.0611 45.8179C64.0501 45.6635 64.006 44.7816 63.3666 44.4839C63.102 44.3626 62.8264 44.3957 62.672 44.4288C60.6215 42.3562 58.5599 40.3166 56.4983 38.2661Z" fill="#2291D0"/>
<path d="M56.4965 38.2549C55.2728 38.9715 54.4239 39.7652 53.8837 40.3495C52.0867 42.3009 51.5134 44.3404 51.3922 44.8145C51.315 45.1121 51.2599 45.3547 51.2378 45.5311C51.1165 45.487 50.8409 45.4098 50.5653 45.5311C50.1464 45.7185 50.0582 46.2256 50.0141 46.4792C49.9038 47.0635 50.1243 47.5265 50.2125 47.7029C50.3338 47.9565 50.5322 48.3644 51.0063 48.5738C51.3922 48.7502 51.756 48.6841 51.9103 48.651C52.0647 49.0479 52.2851 49.5991 52.6269 50.2275C53.1451 51.2197 53.6301 52.1348 54.5672 52.9506C54.931 53.2703 55.5264 53.7113 56.3863 54.053C56.5627 54.3287 56.8052 54.7586 56.9375 55.3209C57.0477 55.7618 57.0698 56.1367 57.0588 56.4233C57.3454 56.5666 57.8856 56.7871 58.5581 56.7761C59.848 56.7541 60.6969 55.9493 60.8953 55.7508C60.6858 55.1224 60.4984 54.3507 60.4213 53.4577C60.3882 53.0498 60.3772 52.664 60.3772 52.3112C60.7189 51.9474 61.1378 51.4292 61.4796 50.7347C62.086 49.533 62.1852 48.4195 62.1962 47.7691C62.3505 47.7911 62.6592 47.8242 62.99 47.6919C63.453 47.5045 63.6625 47.0966 63.7837 46.865C63.8168 46.8099 64.2798 45.8618 63.8609 44.9247C63.7617 44.7153 63.5963 44.3294 63.2656 44.2963C63.023 44.2743 62.8246 44.4617 62.7474 44.5389C62.2954 43.9987 61.4465 42.9954 60.2559 41.6174C59.2306 40.4157 58.5802 39.666 57.4887 38.8943C57.0918 38.6077 56.7391 38.3982 56.4965 38.2549Z" fill="white"/>
<path d="M54.9766 49.952C54.8664 50.2055 55.3845 50.6575 55.6271 50.8449C56.1342 51.2198 56.6744 51.2749 56.8728 51.2859C57.1043 51.308 57.865 51.3631 58.5596 50.867C58.725 50.7457 59.188 50.426 59.3644 49.8307C59.4856 49.4007 59.4526 48.8054 59.2211 48.7062C59.0447 48.64 58.8793 48.8605 58.5045 49.1251C57.843 49.5771 57.1595 49.6874 56.5752 49.7756C55.583 49.9299 55.0869 49.7315 54.9766 49.952Z" fill="black"/>
<path d="M51.482 47.4053C51.8788 49.059 52.5183 50.6796 53.5766 52.0246C54.5137 53.2263 55.9028 54.3839 57.5234 54.2295C59.0227 54.0862 60.2465 52.9176 61.0402 51.727C61.9773 50.3379 62.4293 48.6732 62.3852 46.9974C62.3742 46.788 62.0435 46.788 62.0545 46.9974C62.0986 48.5298 61.7017 50.0292 60.8969 51.3301C60.1362 52.5538 58.8794 53.8437 57.347 53.9098C55.7264 53.976 54.3924 52.653 53.5325 51.4183C52.6726 50.1835 52.1434 48.7614 51.7906 47.3061C51.7465 47.1077 51.4268 47.1959 51.482 47.4053Z" fill="#161616"/>
<path d="M56.1669 54.075C56.6299 54.7805 56.8614 55.5522 56.8614 56.4011C56.8614 56.6106 57.1922 56.6106 57.1922 56.4011C57.1922 55.5081 56.9386 54.6593 56.4535 53.9096C56.3433 53.7222 56.0566 53.8875 56.1669 54.075Z" fill="#161616"/>
<path d="M57.017 56.5336C58.362 57.3054 60.1039 56.9305 61.0189 55.6958C61.1512 55.5304 60.8646 55.365 60.7323 55.5304C59.9165 56.6218 58.351 56.9305 57.1824 56.247C56.995 56.1478 56.8296 56.4344 57.017 56.5336Z" fill="#161616"/>
<path d="M60.1904 52.5975C60.2015 53.6007 60.3558 54.5929 60.6755 55.5521C60.7417 55.7505 61.0614 55.6623 60.9952 55.4639C60.6976 54.5268 60.5322 53.5787 60.5212 52.5975C60.5212 52.377 60.1904 52.377 60.1904 52.5975Z" fill="#161616"/>
<path d="M51.8126 48.4527C51.6693 48.607 51.3165 48.5519 51.1512 48.4637C51.0189 48.3975 50.8976 48.2983 50.7984 48.1991C50.5779 47.9896 50.4015 47.7361 50.2912 47.4605C50.0708 46.9423 49.9715 45.454 50.9527 45.7186C51.1622 45.7737 51.2504 45.454 51.0409 45.3989C49.8282 45.0792 49.6408 46.6887 49.9495 47.4935C50.192 48.144 51.3055 49.489 52.0552 48.6842C52.1875 48.5298 51.956 48.2983 51.8126 48.4527Z" fill="#161616"/>
<path d="M62.8913 44.5942C63.0236 44.1532 63.5968 45.0021 63.663 45.1564C63.7953 45.5092 63.8394 45.8951 63.7842 46.2699C63.6961 47.0196 63.1007 47.7362 62.2739 47.5267C62.0644 47.4716 61.9762 47.7913 62.1857 47.8464C63.5197 48.1882 64.2363 46.7991 64.115 45.6636C64.0599 45.1674 63.8614 44.528 63.3874 44.2634C63.0787 44.0981 62.6818 44.1422 62.5715 44.495C62.5054 44.7154 62.8251 44.7926 62.8913 44.5942Z" fill="#161616"/>
<path d="M52.9913 42.2566C53.3551 41.5621 53.9945 41.1101 54.7662 40.9998C54.9757 40.9668 54.8875 40.6471 54.678 40.6801C53.8292 40.8014 53.1015 41.3306 52.7047 42.0913C52.6054 42.2787 52.8921 42.4441 52.9913 42.2566Z" fill="#161616"/>
<path d="M58.0849 40.5593C59.011 40.3388 59.937 40.8018 60.356 41.6397C60.4552 41.8271 60.7308 41.6618 60.6426 41.4743C60.1575 40.4932 59.0551 39.986 57.9967 40.2396C57.7873 40.2947 57.8755 40.6144 58.0849 40.5593Z" fill="#161616"/>
<path d="M55.6816 41.9151C55.8911 43.0837 55.9462 44.2854 55.8249 45.476C55.7808 45.8398 55.6044 46.358 55.7698 46.7218C55.9462 47.1187 56.4202 47.4604 56.7179 47.7691C56.8612 47.9235 57.1038 47.692 56.9494 47.5376C56.751 47.3281 56.5525 47.1297 56.3541 46.9202C56.0454 46.6005 56.0123 46.5013 56.0785 46.0383C56.1336 45.6193 56.1887 45.1894 56.2108 44.7594C56.2549 43.7782 56.1777 42.7971 56.0013 41.8379C55.9682 41.6174 55.6485 41.7056 55.6816 41.9151Z" fill="#161616"/>
<path d="M54.2927 44.7484C54.1274 44.4838 54.0502 44.1971 54.0722 43.8885C54.0722 43.8223 54.1163 43.5357 54.1714 43.5246C54.2045 43.5246 54.2596 43.9105 54.2707 43.9546C54.2927 44.0979 54.3037 44.2523 54.3037 44.3956C54.3037 44.4397 54.2927 44.8035 54.2927 44.583C54.2817 44.2633 54.3037 43.9436 54.3148 43.6239C54.2045 43.6349 54.0943 43.6569 53.9951 43.668C54.0502 44.0097 54.0833 44.3515 54.0833 44.7043C54.1935 44.7043 54.3037 44.7043 54.414 44.7043C54.414 44.6602 54.414 44.6161 54.414 44.572C54.414 44.3625 54.0833 44.3625 54.0833 44.572C54.0833 44.6161 54.0833 44.6602 54.0833 44.7043C54.0833 44.9137 54.414 44.9137 54.414 44.7043C54.414 44.3294 54.3809 43.9546 54.3148 43.5798C54.2817 43.3924 53.9951 43.4475 53.9951 43.6239C53.984 43.9767 53.9399 44.3625 53.984 44.7153C54.0061 44.8807 54.0833 45.035 54.2707 45.0681C54.8219 45.1783 54.6565 44.0979 54.6124 43.8333C54.5794 43.6239 54.5463 43.3042 54.3478 43.1829C54.1825 43.0837 54.0061 43.1829 53.9069 43.3372C53.6312 43.8003 53.7856 44.4838 54.0392 44.9027C54.1163 45.0901 54.403 44.9248 54.2927 44.7484Z" fill="#161616"/>
<path d="M59.3865 44.1644C59.2211 43.8998 59.1439 43.6132 59.166 43.3045C59.166 43.2383 59.2101 42.9517 59.2652 42.9407C59.2983 42.9407 59.3534 43.3265 59.3644 43.3706C59.3865 43.5139 59.3975 43.6683 59.3975 43.8116C59.3975 43.8557 59.3865 44.2195 59.3865 43.999C59.3754 43.6793 59.3975 43.3596 59.4085 43.0399C59.2983 43.0509 59.188 43.073 59.0888 43.084C59.1439 43.4257 59.177 43.7675 59.177 44.1203C59.2872 44.1203 59.3975 44.1203 59.5077 44.1203C59.5077 44.0762 59.5077 44.0321 59.5077 43.988C59.5077 43.7785 59.177 43.7785 59.177 43.988C59.177 44.0321 59.177 44.0762 59.177 44.1203C59.177 44.3298 59.5077 44.3298 59.5077 44.1203C59.5077 43.7455 59.4747 43.3706 59.4085 42.9958C59.3754 42.8084 59.0888 42.8635 59.0888 43.0399C59.0778 43.3927 59.0337 43.7785 59.0778 44.1313C59.0998 44.2967 59.177 44.451 59.3644 44.4841C59.9156 44.5943 59.7503 43.5139 59.7062 43.2494C59.6731 43.0399 59.64 42.7202 59.4416 42.5989C59.2762 42.4997 59.0998 42.5989 59.0006 42.7532C58.725 43.2163 58.8793 43.8998 59.1329 44.3187C59.2101 44.5172 59.4967 44.3518 59.3865 44.1644Z" fill="#161616"/>
<path d="M52.6595 45.7629C52.869 45.7629 52.869 45.4321 52.6595 45.4321C52.4501 45.4321 52.4501 45.7629 52.6595 45.7629Z" fill="#161616"/>
<path d="M53.9627 46.0051C53.9738 46.0051 53.9848 46.0051 54.0068 46.0051C54.095 46.0051 54.1722 45.9279 54.1722 45.8397C54.1722 45.7515 54.095 45.6743 54.0068 45.6743C53.9958 45.6743 53.9848 45.6743 53.9627 45.6743C53.8745 45.6743 53.7974 45.7515 53.7974 45.8397C53.7974 45.9279 53.8635 46.0051 53.9627 46.0051Z" fill="#161616"/>
<path d="M53.191 47.0197C53.4005 47.0197 53.4005 46.689 53.191 46.689C52.9816 46.689 52.9706 47.0197 53.191 47.0197Z" fill="#161616"/>
<path d="M59.4515 45.5973C59.4625 45.5973 59.4735 45.5973 59.4956 45.5973C59.5838 45.5973 59.661 45.5202 59.661 45.432C59.661 45.3438 59.5838 45.2666 59.4956 45.2666C59.4846 45.2666 59.4735 45.2666 59.4515 45.2666C59.3633 45.2666 59.2861 45.3438 59.2861 45.432C59.2861 45.5202 59.3523 45.5973 59.4515 45.5973Z" fill="#161616"/>
<path d="M60.6654 44.7814C60.8749 44.7814 60.8749 44.4507 60.6654 44.4507C60.4559 44.4507 60.4559 44.7814 60.6654 44.7814Z" fill="#161616"/>
<path d="M60.4998 45.6745C60.5109 45.6745 60.5219 45.6745 60.5439 45.6745C60.6321 45.6745 60.7093 45.5973 60.7093 45.5091C60.7093 45.4209 60.6321 45.3438 60.5439 45.3438C60.5329 45.3438 60.5219 45.3438 60.4998 45.3438C60.4116 45.3438 60.3345 45.4209 60.3345 45.5091C60.3455 45.5973 60.4116 45.6745 60.4998 45.6745Z" fill="#161616"/>
<path d="M55.2514 50.2059C55.075 49.9524 54.7884 49.5886 54.9096 49.2578C55.053 48.883 55.505 48.9381 55.8026 48.9822C56.1664 49.0373 56.4641 49.1035 56.8169 48.9932C57.1035 48.905 57.3571 48.7176 57.6217 48.5743C58.2501 48.2215 58.9887 48.1885 59.1872 49.0153C59.7494 51.2753 55.7585 51.9147 55.1412 49.9303C55.075 49.7319 54.7553 49.8091 54.8214 50.0185C55.5821 52.4549 60.3006 51.5509 59.4738 48.8499C59.3305 48.3979 58.9887 48.0121 58.5036 47.9569C57.7099 47.8798 57.1917 48.6735 56.431 48.7287C55.8688 48.7728 55.1853 48.3428 54.7332 48.872C54.3253 49.346 54.6561 49.9524 54.9537 50.3713C55.086 50.5477 55.3727 50.3823 55.2514 50.2059Z" fill="#161616"/>
<path d="M54.613 49.5772C54.8555 50.2497 56.0682 50.0402 56.5974 49.963C57.6117 49.8087 58.5377 49.3677 59.3205 48.7173C59.4858 48.585 59.2543 48.3424 59.0889 48.4858C58.5157 48.9708 57.8542 49.3236 57.1266 49.5221C56.8069 49.6103 55.1201 49.9851 54.9437 49.5C54.8555 49.2905 54.5358 49.3787 54.613 49.5772Z" fill="#161616"/>
<path d="M56.5744 54.4173C57.8642 54.748 59.5841 53.9322 60.3117 52.8628C60.4329 52.6865 60.1463 52.5211 60.025 52.6975C59.3856 53.6346 57.7871 54.3842 56.6626 54.0976C56.4531 54.0425 56.3649 54.3622 56.5744 54.4173Z" fill="#161616"/>
<path d="M56.6962 54.5163C57.8428 55.2329 59.728 54.2186 60.2792 53.1272C60.3784 52.9398 60.0918 52.7744 59.9925 52.9618C59.5295 53.8879 57.8428 54.847 56.8616 54.2407C56.6742 54.1194 56.5088 54.4061 56.6962 54.5163Z" fill="#161616"/>
<path opacity="0.2" d="M61.2719 42.8301C61.3491 43.227 61.4483 43.8554 61.5145 44.6161C61.6688 46.6446 61.9334 50.0401 59.8828 52.3002C59.4419 52.7852 58.5048 53.6451 56.7739 54.1302C57.3252 54.1082 57.9976 54.042 58.7253 53.8546C59.0891 53.7664 59.4198 53.6562 59.7175 53.5349C59.7616 54.5161 59.7946 55.4973 59.8387 56.4785C60.2136 56.2359 60.5774 56.0044 60.9522 55.7619C60.4451 54.6374 60.4451 53.7664 60.5112 53.2152C60.6105 52.4435 60.8971 51.8151 61.1837 51.1867C61.4373 50.6354 61.7019 50.1945 61.9114 49.8858C61.9334 50.1173 61.9885 50.3598 62.1429 50.5914C62.8154 51.5946 64.9211 51.6938 66.244 50.8339C67.4677 50.0401 68.0631 48.4305 67.7544 46.7769C67.9638 46.9533 68.1843 47.1627 68.3938 47.4163C68.5592 47.6147 68.9891 48.188 69.5844 50.2055C69.7719 50.8339 69.8601 51.1536 69.9152 51.4733C69.9813 51.9143 70.1026 52.7522 69.8711 53.7003C69.4742 55.3319 68.2946 56.269 67.9418 56.5336C67.6882 56.721 66.9165 57.2832 65.7589 57.5478C65.2077 57.6691 63.554 58.066 61.9996 57.162C61.4153 56.8202 61.0955 56.5666 60.9192 56.258C60.7317 55.9162 60.7097 55.5965 60.6876 55.354C60.5884 53.8436 60.5443 53.0829 60.6435 52.5647C60.9412 51.0654 61.6137 50.9111 61.9885 49.2023C62.1208 48.5849 62.1539 48.0667 62.1649 47.736C62.3082 47.758 62.5287 47.7801 62.7933 47.7139C63.3445 47.5706 63.6202 47.1186 63.7194 46.9533C64.1163 46.3249 64.2927 45.2004 63.6753 44.6822C63.5871 44.605 63.2784 44.3735 62.6831 44.4176C62.2311 43.8884 61.757 43.3593 61.2719 42.8301Z" fill="#3F3F3F"/>
<path opacity="0.13" d="M56.0464 46.4023C56.6086 46.5677 57.1819 46.7441 57.7442 46.9095C57.6008 47.0418 57.4575 47.163 57.3032 47.2953C57.1599 47.4166 57.0276 47.5158 56.8843 47.6261C56.7079 47.4938 56.4543 47.2623 56.2559 46.9095C56.1456 46.7221 56.0795 46.5457 56.0464 46.4023Z" fill="#3F3F3F"/>
<path opacity="0.16" d="M47.2039 47.7798C46.0022 52.0243 46.8952 55.4529 48.6922 56.2026C50.1033 56.7869 52.65 55.96 53.1241 54.5158C53.1902 54.3284 53.2564 53.9977 53.0028 52.9834C52.7823 52.0904 52.3303 50.7454 51.316 49.213C51.1396 49.1028 50.9081 48.9264 50.6876 48.6618C50.3018 48.1877 50.1915 47.6806 50.1585 47.4381C50.4782 47.7688 50.9412 48.1877 51.2389 48.0555C51.5255 47.9232 51.7019 47.5263 51.6027 47.1294C51.7019 47.6365 51.8562 48.3311 52.1429 49.1359C52.5177 50.2052 52.8925 51.2415 53.7635 52.2227C54.1604 52.6747 54.9431 53.4134 56.266 53.9426C56.4865 54.2182 56.8944 54.8135 57.0267 55.6844C57.0488 55.8167 57.126 56.4231 56.9275 57.1838C56.8834 57.3602 56.6188 58.3193 55.7479 59.1461C54.7336 60.1163 53.5209 60.2927 53.1241 60.3478C50.1364 60.7447 47.8213 58.1319 47.4133 57.6799C47.0054 57.2168 46.3329 56.4451 45.9471 55.2545C45.3297 53.3583 45.8038 51.6495 46.1455 50.4037C46.4652 49.2351 46.8952 48.3531 47.2039 47.7798Z" fill="#3F3F3F"/>
</svg>
