<svg width="30" height="30" viewBox="0 0 30 30" fill="none" xmlns="http://www.w3.org/2000/svg">
<circle cx="15" cy="15" r="15" fill="#E5E5EA"/>
<path fill-rule="evenodd" clip-rule="evenodd" d="M12.0658 9.99111C12.2437 9.11785 13.0208 8.5 13.9111 8.5H16.0893C16.9796 8.5 17.7567 9.11785 17.9345 9.99111C17.9756 10.1927 18.1582 10.3406 18.3482 10.3406H18.3591L18.37 10.341C19.3056 10.382 20.0243 10.4968 20.6243 10.8904C21.0023 11.1384 21.3275 11.4574 21.5808 11.8298C21.8961 12.293 22.0351 12.8246 22.1017 13.4676C22.1668 14.0959 22.1668 14.8833 22.1668 15.8807V15.9375C22.1668 16.9349 22.1668 17.7223 22.1017 18.3505C22.0351 18.9936 21.8961 19.5252 21.5808 19.9884C21.3275 20.3607 21.0023 20.6798 20.6243 20.9278C20.1553 21.2355 19.6176 21.3711 18.9655 21.4362C18.3271 21.5 17.5262 21.5 16.5091 21.5H13.4912C12.4742 21.5 11.6733 21.5 11.0348 21.4362C10.3827 21.3711 9.84504 21.2355 9.37606 20.9278C8.99804 20.6798 8.67287 20.3607 8.41949 19.9884C8.10424 19.5252 7.9652 18.9936 7.89858 18.3505C7.83349 17.7223 7.83349 16.9348 7.8335 15.9375V15.8807C7.83349 14.8833 7.83349 14.0959 7.89858 13.4676C7.9652 12.8246 8.10424 12.293 8.41949 11.8298C8.67287 11.4574 8.99804 11.1384 9.37606 10.8904C9.97605 10.4968 10.6947 10.382 11.6303 10.341L11.6412 10.3406H11.6522C11.8421 10.3406 12.0247 10.1927 12.0658 9.99111ZM13.9111 9.5C13.4836 9.5 13.1262 9.79533 13.0457 10.1907C12.9152 10.8311 12.3475 11.3346 11.6644 11.3405C10.7653 11.3805 10.2837 11.4909 9.92459 11.7265C9.65556 11.903 9.42517 12.1294 9.2462 12.3924C9.0621 12.6629 8.95147 13.0088 8.89325 13.5707C8.83412 14.1414 8.8335 14.8771 8.8335 15.9091C8.8335 16.9411 8.83412 17.6768 8.89325 18.2475C8.95147 18.8093 9.0621 19.1553 9.2462 19.4258C9.42517 19.6888 9.65556 19.9152 9.92459 20.0917C10.2029 20.2743 10.5591 20.3838 11.1342 20.4412C11.7172 20.4994 12.4681 20.5 13.5187 20.5H16.4816C17.5322 20.5 18.2832 20.4994 18.8661 20.4412C19.4412 20.3838 19.7974 20.2743 20.0757 20.0917C20.3448 19.9152 20.5752 19.6888 20.7541 19.4258C20.9382 19.1553 21.0489 18.8093 21.1071 18.2475C21.1662 17.6768 21.1668 16.9411 21.1668 15.9091C21.1668 14.8771 21.1662 14.1414 21.1071 13.5707C21.0489 13.0088 20.9382 12.6629 20.7541 12.3924C20.5752 12.1294 20.3448 11.903 20.0757 11.7265C19.7166 11.4909 19.235 11.3805 18.3359 11.3405C17.6528 11.3346 17.0851 10.8311 16.9547 10.1907C16.8741 9.79533 16.5167 9.5 16.0893 9.5H13.9111ZM15.0002 14.1667C14.1717 14.1667 13.5002 14.8382 13.5002 15.6667C13.5002 16.4951 14.1717 17.1667 15.0002 17.1667C15.8286 17.1667 16.5002 16.4951 16.5002 15.6667C16.5002 14.8382 15.8286 14.1667 15.0002 14.1667ZM12.5002 15.6667C12.5002 14.286 13.6195 13.1667 15.0002 13.1667C16.3809 13.1667 17.5002 14.286 17.5002 15.6667C17.5002 17.0474 16.3809 18.1667 15.0002 18.1667C13.6195 18.1667 12.5002 17.0474 12.5002 15.6667ZM18.5002 13.6667C18.5002 13.3905 18.724 13.1667 19.0002 13.1667H19.6668C19.943 13.1667 20.1668 13.3905 20.1668 13.6667C20.1668 13.9428 19.943 14.1667 19.6668 14.1667H19.0002C18.724 14.1667 18.5002 13.9428 18.5002 13.6667Z" fill="#1E2C47"/>
</svg>
