<svg width="11" height="13" viewBox="0 0 11 13" fill="none" xmlns="http://www.w3.org/2000/svg">
<path fill-rule="evenodd" clip-rule="evenodd" d="M0.760498 5.41688C0.760498 2.55912 2.87571 0.229126 5.50008 0.229126C8.12445 0.229126 10.2397 2.55912 10.2397 5.41688C10.2397 6.79652 9.87457 8.27791 9.22915 9.55771C8.58454 10.8359 7.64271 11.9467 6.46452 12.5397C5.85247 12.8478 5.14769 12.8478 4.53564 12.5397C3.35745 11.9467 2.41562 10.8359 1.77101 9.55771C1.1256 8.27791 0.760498 6.79652 0.760498 5.41688ZM5.50008 1.10413C3.33798 1.10413 1.573 3.02766 1.573 5.41688C1.573 6.64017 1.89942 7.97895 2.485 9.14011C3.07138 10.3029 3.90001 11.2539 4.87968 11.747C5.27369 11.9454 5.72647 11.9454 6.12048 11.747C7.10015 11.2539 7.92878 10.3029 8.51516 9.14011C9.10074 7.97895 9.42716 6.64017 9.42716 5.41688C9.42716 3.02766 7.66218 1.10413 5.50008 1.10413ZM5.50008 4.02079C4.82698 4.02079 4.28133 4.60842 4.28133 5.33329C4.28133 6.05817 4.82698 6.64579 5.50008 6.64579C6.17318 6.64579 6.71883 6.05817 6.71883 5.33329C6.71883 4.60842 6.17318 4.02079 5.50008 4.02079ZM3.46883 5.33329C3.46883 4.12517 4.37825 3.14579 5.50008 3.14579C6.62191 3.14579 7.53133 4.12517 7.53133 5.33329C7.53133 6.54142 6.62191 7.52079 5.50008 7.52079C4.37825 7.52079 3.46883 6.54142 3.46883 5.33329Z" fill="white"/>
</svg>
