<svg width="28" height="36" viewBox="0 0 28 36" fill="none" xmlns="http://www.w3.org/2000/svg">
<path d="M3.5 36C2.5375 36 1.71325 35.664 1.02725 34.992C0.341253 34.32 -0.0011637 33.5131 2.97114e-06 32.5714V15.4286C2.97114e-06 14.4857 0.343003 13.6783 1.029 13.0063C1.715 12.3343 2.53867 11.9989 3.5 12H5.25V8.57143C5.25 6.2 6.10342 4.17829 7.81025 2.50629C9.51709 0.834287 11.5803 -0.00114169 14 1.17096e-06C16.4208 1.17096e-06 18.4847 0.836001 20.1915 2.508C21.8983 4.18 22.7512 6.20114 22.75 8.57143V12H24.5C25.4625 12 26.2867 12.336 26.9727 13.008C27.6587 13.68 28.0012 14.4869 28 15.4286V32.5714C28 33.5143 27.657 34.3217 26.971 34.9937C26.285 35.6657 25.4613 36.0011 24.5 36H3.5ZM14 27.4286C14.9625 27.4286 15.7867 27.0926 16.4727 26.4206C17.1588 25.7486 17.5012 24.9417 17.5 24C17.5 23.0571 17.157 22.2497 16.471 21.5777C15.785 20.9057 14.9613 20.5703 14 20.5714C13.0375 20.5714 12.2133 20.9074 11.5273 21.5794C10.8413 22.2514 10.4988 23.0583 10.5 24C10.5 24.9429 10.843 25.7503 11.529 26.4223C12.215 27.0943 13.0387 27.4297 14 27.4286ZM8.75 12H19.25V8.57143C19.25 7.14286 18.7396 5.92857 17.7188 4.92857C16.6979 3.92857 15.4583 3.42857 14 3.42857C12.5417 3.42857 11.3021 3.92857 10.2813 4.92857C9.26042 5.92857 8.75 7.14286 8.75 8.57143V12Z" fill="white"/>
</svg>
