<svg width="14" height="14" viewBox="0 0 14 14" fill="none" xmlns="http://www.w3.org/2000/svg">
<path fill-rule="evenodd" clip-rule="evenodd" d="M7.7246 13.2581L8.086 12.6476C8.36632 12.174 8.50647 11.9372 8.73161 11.8062C8.95674 11.6753 9.24019 11.6704 9.80708 11.6606C10.644 11.6462 11.1689 11.5949 11.6091 11.4126C12.4259 11.0743 13.0748 10.4254 13.4131 9.60862C13.6668 8.99605 13.6668 8.21948 13.6668 6.66634V5.99967C13.6668 3.81739 13.6668 2.72624 13.1756 1.92468C12.9008 1.47616 12.5237 1.09906 12.0752 0.824207C11.2736 0.333008 10.1824 0.333008 8.00016 0.333008H6.00016C3.81788 0.333008 2.72673 0.333008 1.92517 0.824207C1.47665 1.09906 1.09955 1.47616 0.824696 1.92468C0.333496 2.72624 0.333496 3.81739 0.333496 5.99967V6.66634C0.333496 8.21948 0.333496 8.99605 0.587231 9.60862C0.925544 10.4254 1.57446 11.0743 2.39122 11.4126C2.83142 11.5949 3.35631 11.6462 4.19321 11.6606C4.76011 11.6704 5.04356 11.6753 5.26869 11.8062C5.49382 11.9372 5.63398 12.174 5.9143 12.6476L6.2757 13.2581C6.59781 13.8023 7.40249 13.8023 7.7246 13.2581ZM7.00016 3.16634C7.2763 3.16634 7.50016 3.3902 7.50016 3.66634V8.99967C7.50016 9.27582 7.2763 9.49967 7.00016 9.49967C6.72402 9.49967 6.50016 9.27582 6.50016 8.99967V3.66634C6.50016 3.3902 6.72402 3.16634 7.00016 3.16634ZM4.8335 4.99967C4.8335 4.72353 4.60964 4.49967 4.3335 4.49967C4.05735 4.49967 3.8335 4.72353 3.8335 4.99967V7.66634C3.8335 7.94248 4.05735 8.16634 4.3335 8.16634C4.60964 8.16634 4.8335 7.94248 4.8335 7.66634V4.99967ZM9.66683 4.49967C9.94297 4.49967 10.1668 4.72353 10.1668 4.99967V7.66634C10.1668 7.94248 9.94297 8.16634 9.66683 8.16634C9.39069 8.16634 9.16683 7.94248 9.16683 7.66634V4.99967C9.16683 4.72353 9.39069 4.49967 9.66683 4.49967Z" fill="#1E2C47"/>
</svg>
