<svg width="128" height="29" viewBox="0 0 128 29" fill="none" xmlns="http://www.w3.org/2000/svg">
<path d="M34.9489 18.5747H29.239C29.2462 19.2377 29.378 19.8222 29.6347 20.3283C29.8984 20.8344 30.2441 21.2158 30.6718 21.4724C31.1067 21.729 31.5843 21.8573 32.1047 21.8573C32.4539 21.8573 32.7712 21.8181 33.0563 21.7397C33.3486 21.6542 33.6301 21.5259 33.901 21.3548C34.1719 21.1766 34.4214 20.9877 34.6495 20.7881C34.8776 20.5885 35.1734 20.3176 35.537 19.9754C35.6867 19.8471 35.9005 19.783 36.1785 19.783C36.4779 19.783 36.7203 19.865 36.9056 20.0289C37.091 20.1929 37.1836 20.4245 37.1836 20.7239C37.1836 20.9877 37.0803 21.2978 36.8736 21.6542C36.6668 22.0035 36.3532 22.3421 35.9326 22.67C35.5192 22.9908 34.9952 23.2581 34.3608 23.4719C33.7335 23.6858 33.01 23.7927 32.1902 23.7927C30.3154 23.7927 28.8577 23.2581 27.8169 22.1888C26.7762 21.1196 26.2558 19.6689 26.2558 17.8369C26.2558 16.9744 26.3841 16.176 26.6407 15.4418C26.8973 14.7004 27.2716 14.066 27.7635 13.5385C28.2553 13.011 28.8612 12.6082 29.5812 12.3302C30.3012 12.0451 31.0995 11.9025 31.9763 11.9025C33.1169 11.9025 34.0935 12.1449 34.9061 12.6296C35.7259 13.1072 36.3389 13.7274 36.7452 14.4901C37.1516 15.2529 37.3547 16.0299 37.3547 16.8211C37.3547 17.5553 37.1444 18.033 36.7239 18.2539C36.3033 18.4678 35.7116 18.5747 34.9489 18.5747ZM29.239 16.9174H34.5319C34.4606 15.9194 34.1897 15.1745 33.7192 14.6826C33.2559 14.1836 32.6428 13.9341 31.8801 13.9341C31.153 13.9341 30.5542 14.1872 30.0837 14.6933C29.6204 15.1923 29.3388 15.9336 29.239 16.9174ZM41.3431 13.7416L43.2464 20.2641L44.9786 14.2014C45.1639 13.567 45.2993 13.1357 45.3849 12.9076C45.4775 12.6724 45.6451 12.4514 45.8874 12.2447C46.1369 12.0308 46.4755 11.9239 46.9032 11.9239C47.3381 11.9239 47.6767 12.0308 47.919 12.2447C48.1685 12.4514 48.3432 12.6795 48.443 12.929C48.5428 13.1714 48.6818 13.5955 48.86 14.2014L50.5922 20.2641L52.5169 13.7416C52.6452 13.2712 52.7485 12.9326 52.8269 12.7259C52.9053 12.512 53.0372 12.3267 53.2226 12.1698C53.4079 12.0059 53.6752 11.9239 54.0245 11.9239C54.3738 11.9239 54.6768 12.0451 54.9334 12.2875C55.19 12.5298 55.3183 12.815 55.3183 13.1429C55.3183 13.4423 55.2078 13.8949 54.9868 14.5008L52.6024 21.4938C52.3957 22.0855 52.2353 22.5132 52.1212 22.7769C52.0072 23.0407 51.8254 23.2759 51.5759 23.4826C51.3335 23.6893 50.9985 23.7927 50.5708 23.7927C50.1288 23.7927 49.7795 23.6822 49.5229 23.4612C49.2734 23.2403 49.0881 22.9694 48.9669 22.6486C48.8457 22.3278 48.7138 21.9108 48.5713 21.3976L46.9032 15.7091L45.2886 21.3976C45.0748 22.1888 44.8431 22.7876 44.5936 23.1939C44.3441 23.5931 43.9057 23.7927 43.2784 23.7927C42.9577 23.7927 42.6832 23.7286 42.4551 23.6002C42.2341 23.4791 42.0488 23.3044 41.8991 23.0763C41.7494 22.8411 41.6175 22.5666 41.5035 22.253C41.3894 21.9322 41.3003 21.6791 41.2361 21.4938L38.8731 14.5008C38.6378 13.845 38.5202 13.3924 38.5202 13.1429C38.5202 12.8292 38.645 12.5476 38.8945 12.2981C39.144 12.0487 39.4505 11.9239 39.814 11.9239C40.2988 11.9239 40.6267 12.0629 40.7977 12.3409C40.9688 12.6118 41.1506 13.0787 41.3431 13.7416ZM59.4029 13.7416L61.766 20.3711L64.3108 13.4529C64.5104 12.8969 64.7064 12.5049 64.8989 12.2768C65.0914 12.0415 65.3836 11.9239 65.7757 11.9239C66.1464 11.9239 66.46 12.0487 66.7166 12.2981C66.9804 12.5476 67.1123 12.8363 67.1123 13.1642C67.1123 13.2926 67.0873 13.4423 67.0374 13.6133C66.9947 13.7844 66.9412 13.9448 66.877 14.0945C66.82 14.2442 66.7523 14.4153 66.6739 14.6078L63.8724 21.5579C63.794 21.7575 63.6906 22.0106 63.5623 22.3171C63.4411 22.6236 63.3021 22.8874 63.1453 23.1084C62.9956 23.3222 62.8067 23.4897 62.5786 23.6109C62.3576 23.7321 62.0867 23.7927 61.766 23.7927C61.3525 23.7927 61.021 23.7 60.7715 23.5147C60.5292 23.3222 60.3474 23.1155 60.2262 22.8945C60.1122 22.6664 59.9161 22.2209 59.6381 21.5579L56.8581 14.6826C56.7939 14.5115 56.7262 14.3404 56.6549 14.1694C56.5907 13.9983 56.5337 13.8236 56.4838 13.6454C56.441 13.4672 56.4197 13.3139 56.4197 13.1856C56.4197 12.986 56.4802 12.79 56.6014 12.5975C56.7226 12.3979 56.8901 12.2376 57.104 12.1164C57.3178 11.9881 57.5495 11.9239 57.799 11.9239C58.2837 11.9239 58.6152 12.0629 58.7934 12.3409C58.9788 12.6189 59.1819 13.0858 59.4029 13.7416ZM77.0564 18.5747H71.3465C71.3537 19.2377 71.4855 19.8222 71.7422 20.3283C72.0059 20.8344 72.3516 21.2158 72.7794 21.4724C73.2142 21.729 73.6918 21.8573 74.2122 21.8573C74.5615 21.8573 74.8787 21.8181 75.1638 21.7397C75.4561 21.6542 75.7376 21.5259 76.0085 21.3548C76.2794 21.1766 76.5289 20.9877 76.757 20.7881C76.9851 20.5885 77.2809 20.3176 77.6445 19.9754C77.7942 19.8471 78.008 19.783 78.286 19.783C78.5854 19.783 78.8278 19.865 79.0131 20.0289C79.1985 20.1929 79.2912 20.4245 79.2912 20.7239C79.2912 20.9877 79.1878 21.2978 78.9811 21.6542C78.7743 22.0035 78.4607 22.3421 78.0401 22.67C77.6267 22.9908 77.1027 23.2581 76.4683 23.4719C75.841 23.6858 75.1175 23.7927 74.2977 23.7927C72.4229 23.7927 70.9652 23.2581 69.9244 22.1888C68.8837 21.1196 68.3633 19.6689 68.3633 17.8369C68.3633 16.9744 68.4916 16.176 68.7482 15.4418C69.0049 14.7004 69.3791 14.066 69.871 13.5385C70.3628 13.011 70.9687 12.6082 71.6887 12.3302C72.4087 12.0451 73.2071 11.9025 74.0838 11.9025C75.2244 11.9025 76.201 12.1449 77.0136 12.6296C77.8334 13.1072 78.4464 13.7274 78.8528 14.4901C79.2591 15.2529 79.4622 16.0299 79.4622 16.8211C79.4622 17.5553 79.2519 18.033 78.8314 18.2539C78.4108 18.4678 77.8191 18.5747 77.0564 18.5747ZM71.3465 16.9174H76.6394C76.5681 15.9194 76.2972 15.1745 75.8267 14.6826C75.3634 14.1836 74.7504 13.9341 73.9876 13.9341C73.2605 13.9341 72.6617 14.1872 72.1913 14.6933C71.7279 15.1923 71.4463 15.9336 71.3465 16.9174ZM84.8299 19.5798V22.0177C84.8299 22.6094 84.6909 23.0549 84.4129 23.3543C84.1349 23.6466 83.7821 23.7927 83.3543 23.7927C82.9338 23.7927 82.588 23.643 82.3172 23.3436C82.0463 23.0442 81.9108 22.6023 81.9108 22.0177V13.8913C81.9108 12.5797 82.3849 11.9239 83.333 11.9239C83.8177 11.9239 84.167 12.0772 84.3808 12.3837C84.5947 12.6902 84.7123 13.1429 84.7337 13.7416C85.083 13.1429 85.4394 12.6902 85.803 12.3837C86.1736 12.0772 86.6655 11.9239 87.2785 11.9239C87.8916 11.9239 88.4868 12.0772 89.0642 12.3837C89.6416 12.6902 89.9303 13.0965 89.9303 13.6026C89.9303 13.9591 89.8056 14.2549 89.5561 14.4901C89.3137 14.7182 89.0499 14.8323 88.7648 14.8323C88.6579 14.8323 88.3977 14.7681 87.9842 14.6398C87.5779 14.5044 87.2179 14.4367 86.9043 14.4367C86.4766 14.4367 86.1273 14.5507 85.8564 14.7788C85.5855 14.9998 85.3753 15.3313 85.2256 15.7732C85.0759 16.2152 84.9725 16.7427 84.9155 17.3558C84.8584 17.9617 84.8299 18.703 84.8299 19.5798ZM100.377 19.9754C100.377 20.781 100.181 21.4724 99.7889 22.0498C99.3968 22.6201 98.8159 23.0549 98.046 23.3543C97.2833 23.6466 96.353 23.7927 95.2552 23.7927C94.2073 23.7927 93.3092 23.6323 92.5607 23.3115C91.8122 22.9908 91.2598 22.5916 90.9033 22.114C90.5469 21.6292 90.3687 21.1445 90.3687 20.6598C90.3687 20.339 90.4828 20.0645 90.7109 19.8364C90.939 19.6083 91.2277 19.4943 91.577 19.4943C91.8835 19.4943 92.1187 19.5691 92.2827 19.7188C92.4466 19.8685 92.6035 20.0788 92.7532 20.3497C93.0525 20.8701 93.409 21.2586 93.8224 21.5152C94.243 21.7718 94.8133 21.9001 95.5332 21.9001C96.1178 21.9001 96.5954 21.7718 96.966 21.5152C97.3438 21.2514 97.5328 20.952 97.5328 20.617C97.5328 20.1038 97.3367 19.7295 96.9447 19.4943C96.5597 19.259 95.9217 19.0345 95.0307 18.8206C94.0256 18.5711 93.2058 18.311 92.5714 18.0401C91.9441 17.7621 91.4415 17.3985 91.0637 16.9494C90.6859 16.5003 90.497 15.9479 90.497 15.2921C90.497 14.7075 90.6717 14.1551 91.0209 13.6347C91.3702 13.1143 91.8835 12.7009 92.5607 12.3944C93.245 12.0807 94.0683 11.9239 95.0307 11.9239C95.7863 11.9239 96.4635 12.0023 97.0623 12.1591C97.6682 12.316 98.1707 12.5263 98.5699 12.79C98.9763 13.0538 99.2828 13.346 99.4895 13.6668C99.7034 13.9876 99.8103 14.3012 99.8103 14.6078C99.8103 14.9428 99.6962 15.2172 99.4681 15.4311C99.2471 15.6449 98.9299 15.7519 98.5165 15.7519C98.2171 15.7519 97.9605 15.6663 97.7466 15.4952C97.5399 15.3242 97.3011 15.0675 97.0302 14.7254C96.8092 14.4402 96.549 14.2121 96.2496 14.041C95.9502 13.87 95.5439 13.7844 95.0307 13.7844C94.5032 13.7844 94.0648 13.8985 93.7155 14.1266C93.3662 14.3476 93.1915 14.6256 93.1915 14.9606C93.1915 15.2671 93.3199 15.5202 93.5765 15.7198C93.8331 15.9123 94.1788 16.0726 94.6137 16.201C95.0485 16.3293 95.6473 16.4861 96.41 16.6714C97.3153 16.8924 98.0531 17.1562 98.6234 17.4627C99.2008 17.7692 99.6356 18.1327 99.9279 18.5533C100.227 18.9668 100.377 19.4408 100.377 19.9754ZM105.766 13.5813V22.0177C105.766 22.6023 105.627 23.0442 105.349 23.3436C105.071 23.643 104.718 23.7927 104.29 23.7927C103.863 23.7927 103.513 23.6394 103.243 23.3329C102.979 23.0264 102.847 22.588 102.847 22.0177V13.6668C102.847 13.0894 102.979 12.6546 103.243 12.3623C103.513 12.07 103.863 11.9239 104.29 11.9239C104.718 11.9239 105.071 12.07 105.349 12.3623C105.627 12.6546 105.766 13.0609 105.766 13.5813ZM104.323 10.5659C103.916 10.5659 103.567 10.4412 103.275 10.1917C102.99 9.94221 102.847 9.58935 102.847 9.13313C102.847 8.71969 102.993 8.38109 103.285 8.11734C103.585 7.84646 103.931 7.71102 104.323 7.71102C104.7 7.71102 105.035 7.8322 105.328 8.07456C105.62 8.31693 105.766 8.66979 105.766 9.13313C105.766 9.58222 105.623 9.93508 105.338 10.1917C105.053 10.4412 104.715 10.5659 104.323 10.5659ZM108.952 12.1805H109.273V10.4269C109.273 9.95646 109.284 9.58935 109.305 9.3256C109.334 9.05472 109.405 8.82305 109.519 8.63058C109.633 8.43098 109.797 8.2706 110.011 8.14941C110.225 8.0211 110.464 7.95695 110.727 7.95695C111.098 7.95695 111.433 8.09595 111.733 8.37396C111.932 8.5593 112.057 8.78741 112.107 9.05828C112.164 9.32204 112.192 9.69984 112.192 10.1917V12.1805H113.262C113.675 12.1805 113.989 12.2803 114.203 12.4799C114.424 12.6724 114.534 12.9219 114.534 13.2284C114.534 13.6205 114.377 13.8949 114.064 14.0517C113.757 14.2086 113.315 14.287 112.738 14.287H112.192V19.6547C112.192 20.1109 112.207 20.4637 112.235 20.7132C112.271 20.9556 112.356 21.1552 112.492 21.312C112.634 21.4617 112.862 21.5366 113.176 21.5366C113.347 21.5366 113.579 21.5081 113.871 21.451C114.163 21.3869 114.391 21.3548 114.555 21.3548C114.791 21.3548 115.001 21.451 115.186 21.6435C115.379 21.8288 115.475 22.0605 115.475 22.3385C115.475 22.809 115.218 23.169 114.705 23.4185C114.192 23.668 113.454 23.7927 112.492 23.7927C111.579 23.7927 110.888 23.6394 110.417 23.3329C109.947 23.0264 109.637 22.6023 109.487 22.0605C109.345 21.5187 109.273 20.7952 109.273 19.8899V14.287H108.888C108.468 14.287 108.147 14.1872 107.926 13.9876C107.705 13.788 107.595 13.5349 107.595 13.2284C107.595 12.9219 107.709 12.6724 107.937 12.4799C108.172 12.2803 108.511 12.1805 108.952 12.1805ZM119.249 24.1563L119.517 23.504L115.924 14.4581C115.703 13.9377 115.593 13.5599 115.593 13.3246C115.593 13.0751 115.657 12.8435 115.785 12.6296C115.913 12.4158 116.088 12.2447 116.309 12.1164C116.537 11.9881 116.772 11.9239 117.015 11.9239C117.435 11.9239 117.752 12.0593 117.966 12.3302C118.18 12.594 118.369 12.9753 118.533 13.4743L121.003 20.6598L123.345 13.9769C123.53 13.4351 123.698 13.011 123.847 12.7045C123.997 12.3979 124.154 12.1912 124.318 12.0843C124.489 11.9774 124.728 11.9239 125.034 11.9239C125.255 11.9239 125.465 11.9845 125.665 12.1057C125.872 12.2197 126.029 12.3766 126.135 12.5762C126.25 12.7758 126.307 12.986 126.307 13.207C126.278 13.3425 126.232 13.5349 126.168 13.7844C126.103 14.0339 126.025 14.287 125.932 14.5436L122.126 24.5091C121.798 25.3859 121.477 26.0738 121.163 26.5728C120.85 27.0718 120.433 27.4531 119.912 27.7169C119.399 27.9878 118.704 28.1232 117.827 28.1232C116.972 28.1232 116.33 28.0305 115.903 27.8452C115.475 27.6599 115.261 27.3213 115.261 26.8294C115.261 26.4944 115.361 26.2342 115.561 26.0488C115.767 25.8706 116.07 25.7815 116.469 25.7815C116.626 25.7815 116.779 25.8029 116.929 25.8457C117.114 25.8885 117.275 25.9098 117.41 25.9098C117.745 25.9098 118.009 25.8599 118.202 25.7601C118.394 25.6603 118.565 25.4857 118.715 25.2362C118.872 24.9938 119.05 24.6339 119.249 24.1563Z" fill="#1E2C47"/>
<path d="M104.298 11.5187C105.123 11.5187 105.792 10.8498 105.792 10.0247C105.792 9.19963 105.123 8.53076 104.298 8.53076C103.473 8.53076 102.804 9.19963 102.804 10.0247C102.804 10.8498 103.473 11.5187 104.298 11.5187Z" fill="#079893"/>
<path d="M4.08794 24.5167C3.57296 24.5156 3.06281 24.4173 2.58425 24.2271C1.8131 23.911 1.15456 23.3708 0.693874 22.6763C0.233184 21.9818 -0.00845673 21.165 0.000226043 20.3316V4.25571C-0.00792408 3.44918 0.219901 2.65787 0.655665 1.97915C1.09143 1.30043 1.71612 0.763922 2.45285 0.435643C3.19636 0.105279 4.02289 0.00934251 4.82231 0.160618C5.62172 0.311894 6.35605 0.703197 6.92744 1.28238L17.1492 11.436C17.3542 11.6413 17.4694 11.9196 17.4694 12.2097C17.4694 12.4999 17.3542 12.7782 17.1492 12.9835C17.0475 13.0854 16.9267 13.1662 16.7937 13.2214C16.6607 13.2765 16.5182 13.3049 16.3742 13.3049C16.2302 13.3049 16.0877 13.2765 15.9547 13.2214C15.8217 13.1662 15.7009 13.0854 15.5992 12.9835L5.37995 2.82501C5.11107 2.54727 4.76084 2.36222 4.37988 2.29662C3.99892 2.23101 3.60696 2.28824 3.26066 2.46003C2.93452 2.61792 2.6604 2.86588 2.47068 3.1746C2.28097 3.48331 2.1836 3.83989 2.19007 4.20218V20.407C2.18522 20.7684 2.28361 21.1236 2.47369 21.4309C2.66377 21.7382 2.93764 21.9849 3.2631 22.1419C3.6094 22.3137 4.00135 22.3709 4.38231 22.3053C4.76327 22.2397 5.1135 22.0547 5.38238 21.7769L6.97367 20.1954C7.17908 19.9924 7.45621 19.8786 7.74499 19.8786C8.03376 19.8786 8.31089 19.9924 8.5163 20.1954C8.72134 20.4007 8.83651 20.679 8.83651 20.9691C8.83651 21.2593 8.72134 21.5376 8.5163 21.7429L6.92501 23.3244C6.55401 23.7003 6.11237 23.9991 5.62548 24.2037C5.1386 24.4083 4.61607 24.5147 4.08794 24.5167Z" fill="#1E2C47"/>
<path d="M20.2736 0C20.7886 0.00110614 21.2987 0.0993388 21.7773 0.289546C22.548 0.605469 23.2063 1.14535 23.667 1.83937C24.1276 2.5334 24.3695 3.34965 24.3613 4.18261V20.2585C24.3705 21.0678 24.1422 21.862 23.7045 22.5427C23.2668 23.2234 22.639 23.7608 21.8989 24.0883C21.1559 24.4188 20.3297 24.5148 19.5306 24.3636C18.7315 24.2123 17.9976 23.8209 17.4268 23.2416L7.2075 13.0807C7.10538 12.9794 7.02434 12.8588 6.96903 12.726C6.91373 12.5932 6.88525 12.4508 6.88525 12.3069C6.88525 12.1631 6.91373 12.0207 6.96903 11.8879C7.02434 11.7551 7.10538 11.6345 7.2075 11.5332C7.30882 11.4311 7.42936 11.35 7.56216 11.2947C7.69496 11.2394 7.83739 11.211 7.98124 11.211C8.12509 11.211 8.26753 11.2394 8.40032 11.2947C8.53312 11.35 8.65366 11.4311 8.75499 11.5332L18.9791 21.6795C19.2486 21.9571 19.5993 22.142 19.9805 22.2076C20.3618 22.2732 20.7541 22.2161 21.1009 22.0445C21.4254 21.8876 21.6986 21.6416 21.8886 21.3353C22.0786 21.029 22.1775 20.6749 22.1739 20.3145V4.10961C22.1775 3.74917 22.0786 3.39514 21.8886 3.08882C21.6986 2.7825 21.4254 2.53654 21.1009 2.37963C20.7541 2.20802 20.3618 2.15089 19.9805 2.21648C19.5993 2.28207 19.2486 2.46699 18.9791 2.74461L17.3879 4.32616C17.1826 4.53121 16.9043 4.64638 16.6141 4.64638C16.3239 4.64638 16.0457 4.53121 15.8404 4.32616C15.7385 4.22467 15.6578 4.10408 15.6026 3.97131C15.5475 3.83853 15.5191 3.69618 15.5191 3.55242C15.5191 3.40866 15.5475 3.26631 15.6026 3.13353C15.6578 3.00076 15.7385 2.88017 15.8404 2.77867L17.4316 1.19712C17.8025 0.819351 18.2447 0.519002 18.7325 0.3135C19.2204 0.107998 19.7442 0.00143694 20.2736 0Z" fill="#079893"/>
<path d="M4.28276 21.2514C4.15011 21.2504 4.01855 21.2274 3.89345 21.1833C3.66343 21.0811 3.46681 20.9162 3.32611 20.7075C3.1854 20.4988 3.10628 20.2547 3.09781 20.0032V4.52096C3.09399 4.27727 3.16243 4.03791 3.29451 3.83309C3.42658 3.62826 3.61637 3.46715 3.83992 3.37007C4.05395 3.28377 4.28872 3.26267 4.51471 3.30943C4.7407 3.35619 4.94782 3.46871 5.11003 3.63285L15.1833 13.677C15.2061 13.6996 15.2242 13.7265 15.2366 13.7561C15.2489 13.7858 15.2553 13.8176 15.2553 13.8497C15.2553 13.8818 15.2489 13.9136 15.2366 13.9433C15.2242 13.9729 15.2061 13.9998 15.1833 14.0225C15.1377 14.0678 15.0761 14.0932 15.0118 14.0932C14.9475 14.0932 14.8858 14.0678 14.8403 14.0225L4.76939 3.97593C4.67185 3.87897 4.54793 3.81286 4.41308 3.78584C4.27823 3.75881 4.1384 3.77207 4.01103 3.82395C3.88366 3.87583 3.77437 3.96405 3.69679 4.07761C3.6192 4.19117 3.57674 4.32505 3.57471 4.46256V20.0616C3.57085 20.2043 3.61083 20.3448 3.68927 20.4641C3.76772 20.5834 3.88085 20.6758 4.01342 20.7288C4.146 20.7819 4.29164 20.793 4.43072 20.7607C4.56981 20.7284 4.69565 20.6542 4.79129 20.5482L6.19766 19.0883C6.24325 19.043 6.30492 19.0176 6.3692 19.0176C6.43348 19.0176 6.49515 19.043 6.54073 19.0883C6.58605 19.1339 6.61149 19.1956 6.61149 19.2598C6.61149 19.3241 6.58605 19.3858 6.54073 19.4314L5.13437 20.8913C5.02476 21.0066 4.89257 21.098 4.74606 21.16C4.59954 21.222 4.44183 21.2531 4.28276 21.2514Z" fill="#1E2C47"/>
<path d="M20.1467 3.22656C20.2827 3.22728 20.4177 3.25114 20.5457 3.29712C20.7759 3.39907 20.9727 3.56388 21.1134 3.77262C21.2542 3.98137 21.3332 4.22558 21.3414 4.47721V19.9521C21.3468 20.1946 21.2805 20.4332 21.1506 20.638C21.0207 20.8428 20.8331 21.0046 20.6114 21.103C20.3962 21.1929 20.1589 21.2162 19.9303 21.1698C19.7017 21.1233 19.4923 21.0094 19.3291 20.8427L9.2461 10.801C9.20225 10.7556 9.17773 10.695 9.17773 10.6319C9.17773 10.5688 9.20225 10.5082 9.2461 10.4628C9.29169 10.4175 9.35336 10.392 9.41764 10.392C9.48192 10.392 9.54359 10.4175 9.58918 10.4628L19.66 20.502C19.7571 20.6001 19.8811 20.6673 20.0164 20.695C20.1516 20.7227 20.292 20.7096 20.4199 20.6576C20.5477 20.6055 20.6572 20.5167 20.7346 20.4024C20.812 20.2881 20.8538 20.1534 20.8547 20.0154V4.41638C20.8558 4.2763 20.8148 4.13912 20.7369 4.02267C20.659 3.90623 20.5479 3.8159 20.418 3.76342C20.2881 3.71094 20.1455 3.69874 20.0086 3.7284C19.8717 3.75806 19.7468 3.82822 19.6503 3.92975L18.2488 5.40181C18.2032 5.44713 18.1416 5.47257 18.0773 5.47257C18.013 5.47257 17.9513 5.44713 17.9057 5.40181C17.8829 5.37919 17.8648 5.35228 17.8525 5.32263C17.8401 5.29298 17.8338 5.26118 17.8338 5.22906C17.8338 5.19694 17.8401 5.16513 17.8525 5.13548C17.8648 5.10583 17.8829 5.07892 17.9057 5.0563L19.3121 3.5964C19.4193 3.48188 19.5484 3.39011 19.6918 3.32657C19.8351 3.26303 19.9899 3.22902 20.1467 3.22656Z" fill="#079893"/>
</svg>
