<svg width="109" height="27" viewBox="0 0 109 27" fill="none" xmlns="http://www.w3.org/2000/svg">
<path d="M29.861 16.3502H24.9825C24.9886 16.9166 25.1012 17.416 25.3205 17.8485C25.5458 18.2809 25.8412 18.6067 26.2067 18.826C26.5782 19.0453 26.9863 19.1549 27.4309 19.1549C27.7293 19.1549 28.0003 19.1214 28.244 19.0544C28.4937 18.9813 28.7343 18.8717 28.9657 18.7255C29.1971 18.5732 29.4103 18.4118 29.6052 18.2413C29.8001 18.0708 30.0529 17.8393 30.3635 17.547C30.4914 17.4373 30.6741 17.3825 30.9116 17.3825C31.1675 17.3825 31.3745 17.4526 31.5329 17.5926C31.6912 17.7327 31.7704 17.9307 31.7704 18.1865C31.7704 18.4118 31.6821 18.6768 31.5055 18.9813C31.3289 19.2797 31.0609 19.569 30.7015 19.8492C30.3483 20.1233 29.9006 20.3517 29.3586 20.5344C28.8226 20.7171 28.2044 20.8085 27.504 20.8085C25.9021 20.8085 24.6566 20.3517 23.7674 19.4381C22.8782 18.5245 22.4336 17.2851 22.4336 15.7198C22.4336 14.9828 22.5432 14.3007 22.7624 13.6734C22.9817 13.0399 23.3015 12.4979 23.7217 12.0472C24.142 11.5965 24.6597 11.2523 25.2748 11.0148C25.89 10.7712 26.5721 10.6494 27.3212 10.6494C28.2957 10.6494 29.1302 10.8565 29.8245 11.2706C30.5249 11.6787 31.0487 12.2086 31.3959 12.8603C31.743 13.512 31.9166 14.1758 31.9166 14.8519C31.9166 15.4792 31.7369 15.8873 31.3776 16.0761C31.0182 16.2588 30.5127 16.3502 29.861 16.3502ZM24.9825 14.9341H29.5047C29.4438 14.0814 29.2124 13.445 28.8104 13.0247C28.4145 12.5984 27.8907 12.3852 27.239 12.3852C26.6178 12.3852 26.1062 12.6014 25.7042 13.0338C25.3083 13.4602 25.0677 14.0936 24.9825 14.9341ZM35.3243 12.2208L36.9505 17.7936L38.4305 12.6136C38.5888 12.0715 38.7046 11.7031 38.7776 11.5082C38.8568 11.3072 38.9999 11.1184 39.207 10.9417C39.4202 10.759 39.7095 10.6677 40.0749 10.6677C40.4465 10.6677 40.7358 10.759 40.9428 10.9417C41.156 11.1184 41.3052 11.3133 41.3905 11.5264C41.4758 11.7335 41.5945 12.0959 41.7468 12.6136L43.2268 17.7936L44.8713 12.2208C44.9809 11.8188 45.0692 11.5295 45.1362 11.3528C45.2032 11.1701 45.3159 11.0118 45.4742 10.8778C45.6326 10.7377 45.861 10.6677 46.1594 10.6677C46.4579 10.6677 46.7167 10.7712 46.936 10.9783C47.1552 11.1854 47.2649 11.429 47.2649 11.7091C47.2649 11.9649 47.1705 12.3517 46.9817 12.8694L44.9444 18.8443C44.7677 19.3498 44.6307 19.7152 44.5332 19.9406C44.4358 20.1659 44.2805 20.3669 44.0673 20.5435C43.8602 20.7202 43.574 20.8085 43.2085 20.8085C42.8309 20.8085 42.5325 20.7141 42.3132 20.5253C42.1001 20.3365 41.9417 20.105 41.8382 19.8309C41.7346 19.5569 41.6219 19.2006 41.5001 18.762L40.0749 13.9018L38.6954 18.762C38.5127 19.4381 38.3148 19.9497 38.1016 20.2969C37.8884 20.6379 37.5138 20.8085 36.9779 20.8085C36.7038 20.8085 36.4693 20.7537 36.2744 20.644C36.0856 20.5405 35.9272 20.3913 35.7993 20.1964C35.6714 19.9954 35.5588 19.7609 35.4613 19.4929C35.3639 19.2188 35.2877 19.0026 35.2329 18.8443L33.2139 12.8694C33.0129 12.3091 32.9124 11.9223 32.9124 11.7091C32.9124 11.4412 33.019 11.2006 33.2322 10.9874C33.4453 10.7742 33.7072 10.6677 34.0178 10.6677C34.432 10.6677 34.7122 10.7864 34.8583 11.024C35.0045 11.2554 35.1598 11.6543 35.3243 12.2208ZM50.7548 12.2208L52.7738 17.885L54.9481 11.9741C55.1187 11.499 55.2862 11.164 55.4506 10.9691C55.6151 10.7681 55.8648 10.6677 56.1998 10.6677C56.5165 10.6677 56.7844 10.7742 57.0037 10.9874C57.2291 11.2006 57.3417 11.4472 57.3417 11.7274C57.3417 11.837 57.3204 11.9649 57.2778 12.1111C57.2412 12.2573 57.1956 12.3943 57.1407 12.5222C57.092 12.6501 57.0342 12.7963 56.9672 12.9608L54.5736 18.8991C54.5066 19.0696 54.4183 19.2858 54.3086 19.5477C54.2051 19.8096 54.0863 20.035 53.9523 20.2238C53.8244 20.4065 53.663 20.5496 53.4681 20.6532C53.2793 20.7567 53.0479 20.8085 52.7738 20.8085C52.4205 20.8085 52.1373 20.7293 51.9242 20.5709C51.7171 20.4065 51.5618 20.2299 51.4582 20.0411C51.3608 19.8462 51.1933 19.4655 50.9558 18.8991L48.5804 13.0247C48.5256 12.8785 48.4678 12.7324 48.4069 12.5862C48.352 12.44 48.3033 12.2908 48.2607 12.1385C48.2241 11.9863 48.2059 11.8553 48.2059 11.7457C48.2059 11.5752 48.2576 11.4077 48.3612 11.2432C48.4647 11.0727 48.6078 10.9356 48.7906 10.8321C48.9733 10.7225 49.1712 10.6677 49.3844 10.6677C49.7985 10.6677 50.0818 10.7864 50.234 11.024C50.3924 11.2615 50.566 11.6604 50.7548 12.2208ZM65.8381 16.3502H60.9595C60.9656 16.9166 61.0783 17.416 61.2976 17.8485C61.5229 18.2809 61.8183 18.6067 62.1837 18.826C62.5553 19.0453 62.9633 19.1549 63.408 19.1549C63.7064 19.1549 63.9774 19.1214 64.221 19.0544C64.4708 18.9813 64.7113 18.8717 64.9428 18.7255C65.1742 18.5732 65.3874 18.4118 65.5823 18.2413C65.7772 18.0708 66.03 17.8393 66.3406 17.547C66.4685 17.4373 66.6512 17.3825 66.8887 17.3825C67.1445 17.3825 67.3516 17.4526 67.51 17.5926C67.6683 17.7327 67.7475 17.9307 67.7475 18.1865C67.7475 18.4118 67.6592 18.6768 67.4826 18.9813C67.3059 19.2797 67.0379 19.569 66.6786 19.8492C66.3253 20.1233 65.8777 20.3517 65.3356 20.5344C64.7997 20.7171 64.1815 20.8085 63.481 20.8085C61.8792 20.8085 60.6337 20.3517 59.7445 19.4381C58.8552 18.5245 58.4106 17.2851 58.4106 15.7198C58.4106 14.9828 58.5203 14.3007 58.7395 13.6734C58.9588 13.0399 59.2785 12.4979 59.6988 12.0472C60.119 11.5965 60.6367 11.2523 61.2519 11.0148C61.867 10.7712 62.5492 10.6494 63.2983 10.6494C64.2728 10.6494 65.1072 10.8565 65.8016 11.2706C66.502 11.6787 67.0258 12.2086 67.3729 12.8603C67.7201 13.512 67.8937 14.1758 67.8937 14.8519C67.8937 15.4792 67.714 15.8873 67.3547 16.0761C66.9953 16.2588 66.4898 16.3502 65.8381 16.3502ZM60.9595 14.9341H65.4818C65.4209 14.0814 65.1894 13.445 64.7875 13.0247C64.3916 12.5984 63.8678 12.3852 63.2161 12.3852C62.5949 12.3852 62.0833 12.6014 61.6813 13.0338C61.2854 13.4602 61.0448 14.0936 60.9595 14.9341ZM72.4799 17.2089V19.2919C72.4799 19.7974 72.3611 20.1781 72.1236 20.4339C71.886 20.6836 71.5846 20.8085 71.2191 20.8085C70.8598 20.8085 70.5644 20.6806 70.333 20.4248C70.1015 20.169 69.9858 19.7913 69.9858 19.2919V12.3487C69.9858 11.228 70.3908 10.6677 71.2009 10.6677C71.615 10.6677 71.9135 10.7986 72.0962 11.0605C72.2789 11.3224 72.3794 11.7091 72.3977 12.2208C72.6961 11.7091 73.0006 11.3224 73.3112 11.0605C73.628 10.7986 74.0482 10.6677 74.572 10.6677C75.0958 10.6677 75.6044 10.7986 76.0977 11.0605C76.591 11.3224 76.8377 11.6696 76.8377 12.102C76.8377 12.4065 76.7311 12.6593 76.5179 12.8603C76.3109 13.0552 76.0855 13.1526 75.8419 13.1526C75.7505 13.1526 75.5282 13.0978 75.175 12.9882C74.8278 12.8724 74.5202 12.8146 74.2522 12.8146C73.8868 12.8146 73.5884 12.912 73.3569 13.1069C73.1255 13.2957 72.9458 13.579 72.8179 13.9566C72.69 14.3342 72.6017 14.7849 72.553 15.3087C72.5042 15.8264 72.4799 16.4598 72.4799 17.2089ZM85.7634 17.547C85.7634 18.2352 85.596 18.826 85.261 19.3193C84.926 19.8066 84.4296 20.1781 83.7718 20.4339C83.1201 20.6836 82.3253 20.8085 81.3874 20.8085C80.492 20.8085 79.7246 20.6714 79.0851 20.3974C78.4456 20.1233 77.9736 19.7822 77.6691 19.3741C77.3645 18.96 77.2123 18.5458 77.2123 18.1317C77.2123 17.8576 77.3097 17.6231 77.5046 17.4282C77.6995 17.2333 77.9462 17.1359 78.2446 17.1359C78.5065 17.1359 78.7075 17.1998 78.8476 17.3277C78.9877 17.4556 79.1217 17.6353 79.2496 17.8667C79.5054 18.3113 79.8099 18.6433 80.1632 18.8625C80.5225 19.0818 81.0097 19.1914 81.6249 19.1914C82.1243 19.1914 82.5324 19.0818 82.8491 18.8625C83.1719 18.6372 83.3333 18.3814 83.3333 18.0951C83.3333 17.6566 83.1658 17.3368 82.8308 17.1359C82.5019 16.9349 81.9568 16.743 81.1955 16.5603C80.3367 16.3471 79.6363 16.1248 79.0943 15.8934C78.5583 15.6558 78.1289 15.3452 77.8061 14.9615C77.4833 14.5778 77.3219 14.1058 77.3219 13.5455C77.3219 13.046 77.4711 12.574 77.7696 12.1294C78.068 11.6848 78.5065 11.3315 79.0851 11.0696C79.6698 10.8016 80.3733 10.6677 81.1955 10.6677C81.8411 10.6677 82.4197 10.7347 82.9313 10.8686C83.449 11.0026 83.8784 11.1823 84.2195 11.4077C84.5666 11.633 84.8285 11.8827 85.0052 12.1568C85.1879 12.4309 85.2792 12.6989 85.2792 12.9608C85.2792 13.247 85.1818 13.4815 84.9869 13.6642C84.7981 13.8469 84.5271 13.9383 84.1738 13.9383C83.918 13.9383 83.6987 13.8652 83.516 13.719C83.3394 13.5729 83.1354 13.3536 82.9039 13.0613C82.7151 12.8176 82.4928 12.6227 82.237 12.4766C81.9812 12.3304 81.634 12.2573 81.1955 12.2573C80.7448 12.2573 80.3702 12.3547 80.0718 12.5496C79.7734 12.7385 79.6241 12.976 79.6241 13.2622C79.6241 13.5241 79.7338 13.7404 79.953 13.9109C80.1723 14.0753 80.4677 14.2124 80.8392 14.322C81.2107 14.4316 81.7223 14.5656 82.374 14.724C83.1475 14.9128 83.7779 15.1381 84.2652 15.4C84.7585 15.6619 85.13 15.9726 85.3797 16.3319C85.6355 16.6852 85.7634 17.0902 85.7634 17.547ZM90.3679 12.0837V19.2919C90.3679 19.7913 90.2492 20.169 90.0116 20.4248C89.7741 20.6806 89.4726 20.8085 89.1072 20.8085C88.7417 20.8085 88.4433 20.6775 88.2119 20.4156C87.9865 20.1537 87.8738 19.7792 87.8738 19.2919V12.1568C87.8738 11.6635 87.9865 11.2919 88.2119 11.0422C88.4433 10.7925 88.7417 10.6677 89.1072 10.6677C89.4726 10.6677 89.7741 10.7925 90.0116 11.0422C90.2492 11.2919 90.3679 11.6391 90.3679 12.0837ZM89.1346 9.5074C88.7874 9.5074 88.489 9.40081 88.2393 9.18764C87.9956 8.97447 87.8738 8.67299 87.8738 8.28319C87.8738 7.92994 87.9987 7.64063 88.2484 7.41528C88.5042 7.18384 88.7996 7.06812 89.1346 7.06812C89.4574 7.06812 89.7436 7.17166 89.9934 7.37874C90.2431 7.58582 90.3679 7.8873 90.3679 8.28319C90.3679 8.6669 90.2461 8.96838 90.0025 9.18764C89.7589 9.40081 89.4696 9.5074 89.1346 9.5074ZM93.0904 10.8869H93.3645V9.38863C93.3645 8.98665 93.3736 8.67299 93.3919 8.44764C93.4163 8.21619 93.4772 8.01825 93.5746 7.8538C93.6721 7.68327 93.8121 7.54623 93.9949 7.44269C94.1776 7.33306 94.3816 7.27824 94.607 7.27824C94.9237 7.27824 95.2099 7.39701 95.4657 7.63454C95.6363 7.7929 95.7429 7.9878 95.7855 8.21924C95.8342 8.44459 95.8586 8.76739 95.8586 9.18764V10.8869H96.7722C97.1254 10.8869 97.3934 10.9722 97.5761 11.1427C97.7649 11.3072 97.8593 11.5203 97.8593 11.7822C97.8593 12.1172 97.7253 12.3517 97.4574 12.4857C97.1955 12.6197 96.8178 12.6867 96.3245 12.6867H95.8586V17.2729C95.8586 17.6627 95.8708 17.9642 95.8951 18.1773C95.9256 18.3844 95.9987 18.555 96.1144 18.689C96.2362 18.8169 96.4311 18.8808 96.6991 18.8808C96.8453 18.8808 97.0432 18.8564 97.2929 18.8077C97.5426 18.7529 97.7375 18.7255 97.8776 18.7255C98.0786 18.7255 98.2583 18.8077 98.4166 18.9722C98.5811 19.1305 98.6633 19.3285 98.6633 19.566C98.6633 19.968 98.444 20.2755 98.0055 20.4887C97.567 20.7019 96.9366 20.8085 96.1144 20.8085C95.3348 20.8085 94.744 20.6775 94.342 20.4156C93.94 20.1537 93.6751 19.7913 93.5472 19.3285C93.4254 18.8656 93.3645 18.2474 93.3645 17.4739V12.6867H93.0356C92.6763 12.6867 92.4022 12.6014 92.2134 12.4309C92.0246 12.2603 91.9302 12.0441 91.9302 11.7822C91.9302 11.5203 92.0276 11.3072 92.2225 11.1427C92.4235 10.9722 92.7128 10.8869 93.0904 10.8869ZM101.888 21.1191L102.117 20.5618L99.047 12.8329C98.8582 12.3882 98.7638 12.0654 98.7638 11.8645C98.7638 11.6513 98.8186 11.4533 98.9282 11.2706C99.0379 11.0879 99.1871 10.9417 99.3759 10.8321C99.5708 10.7225 99.7718 10.6677 99.9789 10.6677C100.338 10.6677 100.609 10.7834 100.792 11.0148C100.975 11.2402 101.136 11.566 101.276 11.9924L103.387 18.1317L105.387 12.4217C105.546 11.9589 105.689 11.5965 105.817 11.3346C105.945 11.0727 106.079 10.8961 106.219 10.8047C106.365 10.7133 106.569 10.6677 106.831 10.6677C107.02 10.6677 107.199 10.7194 107.37 10.823C107.546 10.9204 107.68 11.0544 107.772 11.2249C107.869 11.3955 107.918 11.5752 107.918 11.764C107.894 11.8797 107.854 12.0441 107.799 12.2573C107.744 12.4705 107.677 12.6867 107.598 12.9059L104.346 21.4206C104.066 22.1697 103.792 22.7575 103.524 23.1838C103.256 23.6101 102.899 23.936 102.455 24.1613C102.016 24.3928 101.422 24.5085 100.673 24.5085C99.9423 24.5085 99.3942 24.4293 99.0287 24.271C98.6633 24.1126 98.4806 23.8233 98.4806 23.4031C98.4806 23.1168 98.5659 22.8945 98.7364 22.7361C98.913 22.5839 99.1719 22.5077 99.5129 22.5077C99.6469 22.5077 99.7779 22.526 99.9058 22.5626C100.064 22.5991 100.201 22.6174 100.317 22.6174C100.603 22.6174 100.829 22.5747 100.993 22.4895C101.157 22.4042 101.304 22.255 101.431 22.0418C101.565 21.8347 101.718 21.5272 101.888 21.1191Z" fill="#1E2C47"/>
<path d="M89.1124 10.9982C89.8174 10.9982 90.3889 10.3721 90.3889 9.59969C90.3889 8.82731 89.8174 8.20117 89.1124 8.20117C88.4074 8.20117 87.8359 8.82731 87.8359 9.59969C87.8359 10.3721 88.4074 10.9982 89.1124 10.9982Z" fill="#079893"/>
<path d="M3.49278 23.1661C3.05277 23.1651 2.6169 23.0731 2.20801 22.8951C1.54913 22.5992 0.986471 22.0934 0.592853 21.4433C0.199234 20.7932 -0.00722552 20.0286 0.000193134 19.2484V4.19958C-0.00677042 3.44459 0.187886 2.70383 0.560207 2.06847C0.932527 1.43311 1.46627 0.93088 2.09574 0.623574C2.73101 0.314316 3.4372 0.224509 4.12023 0.36612C4.80326 0.507731 5.43067 0.874034 5.91888 1.41622L14.6524 10.9211C14.8276 11.1133 14.926 11.3738 14.926 11.6454C14.926 11.917 14.8276 12.1776 14.6524 12.3697C14.5655 12.4651 14.4623 12.5408 14.3487 12.5924C14.2351 12.6441 14.1133 12.6706 13.9903 12.6706C13.8673 12.6706 13.7455 12.6441 13.6319 12.5924C13.5182 12.5408 13.415 12.4651 13.3281 12.3697L4.59668 2.86029C4.36695 2.60029 4.06771 2.42707 3.74221 2.36565C3.41672 2.30424 3.08183 2.35781 2.78594 2.51863C2.50729 2.66643 2.27307 2.89855 2.11098 3.18754C1.94888 3.47653 1.86569 3.81033 1.87122 4.14948V19.319C1.86707 19.6573 1.95114 19.9898 2.11355 20.2775C2.27596 20.5652 2.50995 20.7961 2.78802 20.9431C3.0839 21.1039 3.41879 21.1575 3.74429 21.096C4.06979 21.0346 4.36903 20.8614 4.59876 20.6014L5.95838 19.1209C6.13388 18.9309 6.37066 18.8243 6.61739 18.8243C6.86412 18.8243 7.10091 18.9309 7.27641 19.1209C7.4516 19.3131 7.55001 19.5736 7.55001 19.8452C7.55001 20.1168 7.4516 20.3773 7.27641 20.5695L5.9168 22.05C5.59981 22.4019 5.22247 22.6816 4.80647 22.8732C4.39047 23.0647 3.94401 23.1643 3.49278 23.1661Z" fill="#1E2C47"/>
<path d="M17.3219 0.21582C17.7619 0.216856 18.1978 0.308813 18.6067 0.486868C19.2653 0.782607 19.8277 1.28799 20.2213 1.93768C20.6149 2.58736 20.8215 3.35147 20.8145 4.13121V19.1801C20.8224 19.9376 20.6273 20.6811 20.2533 21.3183C19.8794 21.9556 19.343 22.4586 18.7107 22.7652C18.0758 23.0746 17.3698 23.1645 16.6871 23.0228C16.0044 22.8812 15.3773 22.5148 14.8896 21.9725L6.15814 12.4608C6.07089 12.366 6.00165 12.2531 5.95439 12.1288C5.90714 12.0045 5.88281 11.8712 5.88281 11.7365C5.88281 11.6018 5.90714 11.4685 5.95439 11.3442C6.00165 11.2199 6.07089 11.107 6.15814 11.0122C6.24471 10.9166 6.3477 10.8407 6.46117 10.789C6.57463 10.7372 6.69632 10.7105 6.81923 10.7105C6.94214 10.7105 7.06384 10.7372 7.1773 10.789C7.29077 10.8407 7.39376 10.9166 7.48033 11.0122L16.2159 20.5103C16.4462 20.7701 16.7458 20.9432 17.0716 21.0046C17.3973 21.066 17.7325 21.0126 18.0288 20.8519C18.306 20.705 18.5395 20.4748 18.7018 20.188C18.8641 19.9013 18.9487 19.5699 18.9456 19.2325V4.06288C18.9487 3.72547 18.8641 3.39405 18.7018 3.1073C18.5395 2.82055 18.306 2.5903 18.0288 2.44342C17.7325 2.28277 17.3973 2.2293 17.0716 2.2907C16.7458 2.3521 16.4462 2.5252 16.2159 2.78508L14.8563 4.2656C14.6809 4.45754 14.4432 4.56535 14.1952 4.56535C13.9473 4.56535 13.7096 4.45754 13.5341 4.2656C13.4471 4.17059 13.3781 4.0577 13.331 3.93341C13.2839 3.80912 13.2597 3.67586 13.2597 3.54128C13.2597 3.4067 13.2839 3.27345 13.331 3.14916C13.3781 3.02486 13.4471 2.91198 13.5341 2.81697L14.8938 1.33646C15.2106 0.982825 15.5884 0.701664 16.0053 0.509292C16.4221 0.316919 16.8696 0.217165 17.3219 0.21582Z" fill="#079893"/>
<path d="M3.65905 20.1104C3.54571 20.1095 3.43331 20.0879 3.32642 20.0466C3.12989 19.951 2.9619 19.7966 2.84168 19.6013C2.72145 19.4059 2.65385 19.1774 2.64661 18.9419V4.44884C2.64335 4.22072 2.70183 3.99666 2.81468 3.80492C2.92752 3.61318 3.08968 3.46235 3.28068 3.37148C3.46355 3.2907 3.66414 3.27095 3.85723 3.31471C4.05032 3.35848 4.22728 3.46382 4.36588 3.61748L12.9726 13.0199C12.9921 13.0411 13.0076 13.0662 13.0181 13.094C13.0287 13.1218 13.0341 13.1515 13.0341 13.1816C13.0341 13.2117 13.0287 13.2414 13.0181 13.2692C13.0076 13.2969 12.9921 13.3221 12.9726 13.3433C12.9337 13.3857 12.881 13.4095 12.826 13.4095C12.7711 13.4095 12.7184 13.3857 12.6795 13.3433L4.07483 3.93863C3.99149 3.84787 3.88561 3.78599 3.77039 3.76069C3.65518 3.73539 3.53571 3.7478 3.42688 3.79636C3.31806 3.84493 3.22468 3.92751 3.15839 4.03382C3.0921 4.14012 3.05582 4.26544 3.05408 4.39418V18.9966C3.05078 19.1302 3.08495 19.2617 3.15197 19.3734C3.21899 19.4851 3.31565 19.5716 3.42892 19.6212C3.5422 19.6709 3.66663 19.6813 3.78547 19.651C3.90431 19.6208 4.01183 19.5514 4.09354 19.4521L5.29516 18.0855C5.33411 18.0431 5.3868 18.0193 5.44172 18.0193C5.49664 18.0193 5.54933 18.0431 5.58828 18.0855C5.627 18.1282 5.64874 18.1859 5.64874 18.2461C5.64874 18.3063 5.627 18.364 5.58828 18.4067L4.38667 19.7733C4.29302 19.8812 4.18008 19.9669 4.05489 20.0249C3.92971 20.0828 3.79496 20.112 3.65905 20.1104Z" fill="#1E2C47"/>
<path d="M17.2138 3.23633C17.33 3.237 17.4453 3.25934 17.5547 3.30238C17.7514 3.39781 17.9195 3.55209 18.0398 3.7475C18.16 3.94291 18.2275 4.17152 18.2345 4.40707V18.8933C18.2392 19.1203 18.1825 19.3437 18.0715 19.5354C17.9605 19.7271 17.8002 19.8786 17.6108 19.9707C17.4269 20.0549 17.2242 20.0766 17.0289 20.0332C16.8336 19.9897 16.6546 19.8831 16.5153 19.727L7.90021 10.3269C7.86274 10.2844 7.8418 10.2276 7.8418 10.1685C7.8418 10.1095 7.86274 10.0527 7.90021 10.0102C7.93916 9.96783 7.99185 9.94401 8.04678 9.94401C8.1017 9.94401 8.15439 9.96783 8.19334 10.0102L16.798 19.4081C16.8809 19.4999 16.9869 19.5628 17.1024 19.5887C17.218 19.6146 17.3379 19.6024 17.4472 19.5537C17.5564 19.505 17.65 19.4218 17.7161 19.3148C17.7823 19.2078 17.818 19.0818 17.8187 18.9526V4.35013C17.8197 4.219 17.7846 4.09058 17.7181 3.98158C17.6515 3.87257 17.5566 3.78801 17.4456 3.73888C17.3346 3.68976 17.2127 3.67833 17.0958 3.7061C16.9788 3.73387 16.8721 3.79954 16.7897 3.89459L15.5922 5.2726C15.5533 5.31503 15.5006 5.33884 15.4456 5.33884C15.3907 5.33884 15.338 5.31503 15.2991 5.2726C15.2796 5.25143 15.2641 5.22624 15.2536 5.19848C15.243 5.17073 15.2376 5.14095 15.2376 5.11089C15.2376 5.08082 15.243 5.05105 15.2536 5.02329C15.2641 4.99553 15.2796 4.97034 15.2991 4.94917L16.5007 3.58254C16.5923 3.47533 16.7026 3.38943 16.8251 3.32994C16.9476 3.27046 17.0798 3.23862 17.2138 3.23633Z" fill="#079893"/>
</svg>
