<svg width="175" height="159" viewBox="0 0 175 159" fill="none" xmlns="http://www.w3.org/2000/svg">
<path d="M23.2755 140.851C31.5682 140.851 39.2777 144.336 47.3998 145.474C55.2942 146.569 63.1033 144.763 70.8697 143.539C74.7813 142.928 78.7356 142.444 82.7042 142.643C86.8007 142.857 90.5986 143.966 94.3253 145.616C97.6965 147.124 100.996 148.873 104.567 149.883C107.966 150.851 111.465 150.893 114.936 150.282C123.101 148.845 130.611 144.393 139.046 144.435C139.316 144.435 139.316 144.009 139.046 144.009C131.664 143.966 124.936 147.337 117.937 149.172C114.296 150.125 110.498 150.637 106.771 149.954C103.002 149.272 99.5314 147.536 96.0891 145.943C92.6753 144.364 89.2189 142.985 85.4637 142.473C81.5947 141.946 77.683 142.174 73.8283 142.686C66.005 143.696 58.2244 145.829 50.2873 145.346C41.1127 144.777 32.5639 140.438 23.304 140.438C23.0053 140.424 23.0053 140.851 23.2755 140.851Z" fill="#161616"/>
<path d="M11.8387 142.558C13.5314 141.918 15.2667 141.463 17.059 141.192C17.3292 141.15 17.2155 140.737 16.9452 140.78C15.1529 141.036 13.4176 141.491 11.7249 142.145C11.4689 142.245 11.5827 142.657 11.8387 142.558Z" fill="#161616"/>
<path d="M8.7955 146.256C18.3257 142.06 28.6098 146.797 37.9266 149.201C40.6577 149.912 43.4456 150.438 46.2762 150.594C46.5465 150.609 46.5465 150.182 46.2762 150.168C36.0064 149.613 26.6753 143.881 16.2774 144.222C13.6317 144.307 11.0145 144.834 8.59636 145.901C8.34033 146 8.55369 146.37 8.7955 146.256Z" fill="#161616"/>
<path d="M52.9188 154.079C55.1093 153.752 57.1861 153.027 59.277 152.316C61.3538 151.619 63.4447 151.021 65.5783 150.58C69.9878 149.684 74.5111 149.385 78.9918 149.698C81.5948 149.883 84.1836 150.282 86.7155 150.865C86.9857 150.922 87.0995 150.509 86.8293 150.452C78.0387 148.418 68.7361 148.788 60.1447 151.576C57.7124 152.358 55.3369 153.283 52.7908 153.667C52.5348 153.71 52.6486 154.122 52.9188 154.079Z" fill="#161616"/>
<path d="M103.884 154.663C106.843 156.185 110.228 156.213 113.457 155.772C117.198 155.274 120.868 154.279 124.495 153.198C131.707 151.05 138.89 148.432 146.471 147.977C150.639 147.721 154.835 148.162 158.747 149.656C159.003 149.755 159.117 149.343 158.861 149.243C144.537 143.753 130.028 152.159 116.117 154.89C112.177 155.658 107.81 156.185 104.112 154.279C103.856 154.165 103.642 154.535 103.884 154.663Z" fill="#161616"/>
<path d="M147.538 144.62C150.766 144.535 153.967 145.161 156.925 146.498C157.167 146.612 157.395 146.242 157.139 146.128C154.123 144.763 150.852 144.108 147.538 144.194C147.253 144.208 147.253 144.635 147.538 144.62Z" fill="#161616"/>
<path d="M46.987 144.905C45.8775 143.738 45.0098 142.359 44.4551 140.837C44.2133 140.154 44.0284 139.457 43.9146 138.746C43.8434 138.319 43.559 137.124 44.5404 137.395C44.9245 137.508 45.3654 138.106 45.5788 138.419C45.7353 138.646 46.1051 138.433 45.9486 138.205C45.209 137.138 44.6542 135.958 44.3128 134.706C44.1421 134.08 44.0284 133.426 43.9572 132.772C43.9288 132.459 43.9146 132.146 43.9146 131.819C43.9146 131.662 43.9146 131.506 43.9288 131.349C43.9003 131.036 44.0426 130.794 44.384 130.624C44.5262 130.581 44.6542 130.553 44.7965 130.51C44.5689 129.927 44.3982 129.329 44.2844 128.718C44.2275 128.376 44.1848 128.021 44.1564 127.665C44.1564 127.622 44.1848 126.314 44.4124 126.556C44.5547 126.712 44.8391 126.556 44.768 126.342C44.0426 124.052 43.9003 121.62 44.4124 119.259C44.512 118.803 44.5973 118.135 44.9245 117.765C45.3512 117.282 45.9628 117.538 46.2758 117.993C46.4749 118.277 46.6029 118.604 46.7167 118.932C47.0723 120.013 47.2003 121.179 47.4137 122.288C48.3383 127.139 49.2202 132.004 49.7323 136.925C50.0167 139.685 50.1874 142.458 50.1874 145.232C50.1874 145.502 50.6142 145.502 50.6142 145.232C50.6142 139.471 49.8745 133.739 48.9073 128.063C48.4236 125.261 47.94 122.431 47.3426 119.643C47.1435 118.732 46.8163 117.424 45.8348 117.054C45.1094 116.784 44.5831 117.367 44.3413 117.993C43.3314 120.61 43.5447 123.81 44.3697 126.442C44.4835 126.371 44.6115 126.3 44.7253 126.229C44.199 125.688 43.7723 126.385 43.7296 126.883C43.6301 128.12 43.943 129.443 44.384 130.581C44.4835 130.837 44.8818 130.738 44.7965 130.467C44.6684 130.055 44.1706 129.927 43.8292 130.211C43.2602 130.681 43.4736 132.004 43.5305 132.615C43.687 134.692 44.4124 136.669 45.5788 138.376C45.7068 138.305 45.8206 138.234 45.9486 138.163C45.5788 137.636 44.7111 136.541 43.943 136.84C43.1607 137.138 43.4309 138.348 43.5305 138.945C43.9288 141.292 45.0525 143.454 46.6883 145.175C46.8732 145.403 47.1861 145.104 46.987 144.905Z" fill="#E8E8E8"/>
<path d="M50.0306 134.478C50.0306 133.085 50.1586 131.705 50.4289 130.353C50.5427 129.827 51.2254 126.428 51.8371 126.527C51.9367 126.541 52.0789 126.499 52.0931 126.385C52.3776 124.877 52.7759 123.398 53.3022 121.961C53.8142 120.596 54.3832 118.832 55.5638 117.893C55.4642 117.893 55.3647 117.893 55.2651 117.893C56.019 118.718 55.8056 120.212 55.8199 121.25C55.8199 122.388 55.7914 123.526 55.7203 124.678C55.578 127.082 55.2936 129.472 54.9095 131.833C54.1698 136.456 53.0604 141.022 51.9367 145.573C51.8655 145.844 52.278 145.957 52.3492 145.687C53.5724 140.78 54.753 135.872 55.4927 130.866C55.8483 128.49 56.0901 126.115 56.1897 123.725C56.2466 122.445 56.2608 121.165 56.2181 119.884C56.1897 119.059 56.147 118.234 55.5638 117.609C55.4785 117.523 55.3505 117.537 55.2651 117.609C54.1272 118.505 53.5867 120.069 53.0746 121.378C52.4487 122.971 51.9935 124.607 51.6806 126.285C51.766 126.243 51.8513 126.186 51.9367 126.143C51.4957 126.072 51.2681 126.328 51.0832 126.712C50.7134 127.509 50.4573 128.391 50.244 129.244C49.7888 130.965 49.5897 132.743 49.5897 134.521C49.6039 134.749 50.0306 134.749 50.0306 134.478Z" fill="#E8E8E8"/>
<path d="M114.04 150.082C113.329 148.916 112.731 147.693 112.262 146.398C112.049 145.815 111.864 145.218 111.707 144.606C111.622 144.279 111.551 143.952 111.48 143.625C111.451 143.468 111.408 143.297 111.38 143.127C111.238 142.785 111.38 142.558 111.793 142.444C111.935 142.43 112.077 142.401 112.205 142.387C111.821 141.335 111.551 140.254 111.408 139.13C111.337 138.575 111.295 138.035 111.295 137.48C111.295 137.21 111.494 135.901 111.337 135.73C111.465 135.872 111.707 135.759 111.707 135.574C111.679 134.222 111.75 132.885 111.977 131.548C112.077 130.937 112.219 130.339 112.376 129.742C112.461 129.443 112.546 129.144 112.632 128.846C112.689 128.675 112.746 128.504 112.802 128.348C112.859 127.978 113.087 127.822 113.514 127.893C113.599 128.106 113.94 128.092 113.926 127.836C113.912 126.428 114.125 125.048 114.623 123.725C114.751 123.398 115.164 122.075 115.647 122.047C116.273 122.018 116.287 123.711 116.316 124.052C116.558 126.854 116.743 129.671 116.842 132.487C117.055 138.219 116.999 143.952 116.657 149.67C116.643 149.94 117.07 149.94 117.084 149.67C117.383 144.649 117.468 139.628 117.34 134.607C117.269 132.117 117.155 129.628 116.984 127.153C116.899 125.93 116.814 124.721 116.686 123.497C116.615 122.744 116.472 122.047 115.818 121.591C115.747 121.549 115.676 121.563 115.605 121.591C114.68 122.032 114.324 123.17 114.04 124.095C113.656 125.304 113.485 126.57 113.499 127.85C113.642 127.836 113.784 127.807 113.912 127.793C113.77 127.409 113.357 127.238 112.973 127.423C112.347 127.708 112.191 128.831 112.02 129.386C111.451 131.406 111.209 133.497 111.266 135.588C111.394 135.531 111.508 135.488 111.636 135.432C111.608 135.403 111.593 135.389 111.565 135.36C111.522 135.304 111.423 135.275 111.352 135.304C111.039 135.417 110.968 135.616 110.911 135.929C110.783 136.683 110.825 137.508 110.882 138.262C110.982 139.713 111.295 141.135 111.793 142.501C111.864 142.714 112.233 142.7 112.205 142.444C112.162 142.003 111.693 141.761 111.28 141.989C110.612 142.344 110.982 143.44 111.096 143.98C111.593 146.213 112.475 148.333 113.656 150.282C113.812 150.523 114.182 150.31 114.04 150.082Z" fill="#E8E8E8"/>
<path d="M117.467 139.414C117.453 138.646 117.524 137.892 117.68 137.138C117.751 136.797 117.851 136.456 117.965 136.129C118.007 136.015 118.462 134.706 118.733 135.104C118.847 135.275 119.117 135.218 119.131 134.991C119.174 134.365 119.259 133.753 119.43 133.156C119.501 132.9 120.127 131.122 120.411 131.292C120.553 131.392 120.724 131.264 120.738 131.107C120.824 129.856 121.108 128.632 121.62 127.494C121.862 126.94 122.161 126.399 122.502 125.901C122.772 125.489 123.185 124.792 123.612 124.522C124.721 123.81 124.522 125.546 124.508 126.058C124.479 126.698 124.437 127.338 124.394 127.992C124.294 129.372 124.152 130.738 123.967 132.103C123.228 137.665 121.919 143.127 120.625 148.575C120.568 148.845 120.966 148.959 121.037 148.688C122.26 143.582 123.484 138.461 124.237 133.255C124.593 130.78 124.849 128.291 124.949 125.788C124.977 125.19 125.062 124.223 124.408 123.896C123.725 123.554 123.156 124.394 122.787 124.835C121.322 126.627 120.468 128.817 120.312 131.136C120.425 131.079 120.525 131.008 120.639 130.951C119.415 130.169 118.747 134.379 118.719 135.019C118.847 134.976 118.989 134.948 119.117 134.905C118.633 134.194 118.022 134.891 117.794 135.417C117.268 136.683 117.04 138.063 117.054 139.429C117.04 139.685 117.467 139.685 117.467 139.414Z" fill="#E8E8E8"/>
<path d="M15.3364 140.695C14.7674 140.467 14.2269 140.14 13.8713 139.628C13.7006 139.386 13.5868 139.116 13.4873 138.845C13.4588 138.789 13.1885 137.921 13.5299 138.092C13.7575 138.205 13.9424 137.949 13.786 137.75C13.0179 136.769 12.4631 135.645 12.1929 134.422C12.1217 134.095 11.951 133.625 12.0222 133.298C12.1644 132.644 12.8187 132.558 13.2454 132.971C13.7006 133.412 14.0989 133.952 14.4545 134.479C15.7773 136.399 16.5881 138.618 16.8299 140.936C16.8584 141.207 17.2851 141.207 17.2567 140.936C17.1002 139.357 16.6877 137.835 16.0334 136.385C15.4217 135.048 14.5256 133.426 13.3592 132.501C12.9752 132.203 12.4347 132.004 11.9937 132.288C11.4816 132.601 11.5954 133.298 11.6523 133.796C11.8515 135.375 12.5058 136.826 13.4873 138.077C13.5726 137.964 13.6579 137.85 13.7433 137.736C13.5015 137.622 13.2454 137.608 13.0463 137.835C12.7476 138.163 12.9325 138.618 13.0748 138.973C13.473 140.04 14.1558 140.709 15.2084 141.136C15.4786 141.207 15.5924 140.794 15.3364 140.695Z" fill="#E8E8E8"/>
<path d="M15.8069 136.086C15.2237 133.867 14.6547 131.705 14.3702 129.429C14.2991 128.888 14.228 128.334 14.1853 127.793C14.1427 127.238 14.0004 126.428 14.1427 125.887C14.1427 125.802 14.1569 125.702 14.1569 125.617C14.5978 125.133 14.925 125.105 15.1383 125.56C15.2664 125.745 15.3802 125.958 15.4797 126.172C15.75 126.641 15.9918 127.125 16.2194 127.622C18.1254 131.619 19.0073 136.043 18.8224 140.467C18.8082 140.737 19.2349 140.737 19.2491 140.467C19.4767 135.332 18.2819 129.941 15.6077 125.531C15.2806 124.991 14.484 124.251 13.9293 124.991C13.6875 125.304 13.7159 125.816 13.7159 126.186C13.6875 126.911 13.7444 127.651 13.8297 128.376C13.972 129.656 14.1 130.965 14.3845 132.231C14.6832 133.582 15.0672 134.905 15.4228 136.242C15.4655 136.456 15.878 136.342 15.8069 136.086Z" fill="#E8E8E8"/>
<path d="M6.98773 102.744C16.3899 102.517 25.5503 104.892 34.4689 107.637C43.3874 110.383 52.2349 113.569 61.4806 115.091C66.1177 115.859 70.8259 116.158 75.5199 115.802C80.6832 115.418 85.7613 114.365 90.7682 113.085C95.8747 111.777 100.924 110.255 106.031 108.903C111.151 107.538 116.301 106.3 121.492 105.234C131.976 103.071 142.63 101.621 153.355 101.365C154.649 101.336 155.958 101.322 157.252 101.322C157.522 101.322 157.522 100.895 157.252 100.895C146.74 100.867 136.257 102.033 125.916 103.939C115.49 105.874 105.305 108.676 95.0923 111.492C90.0285 112.9 84.9221 114.195 79.716 114.934C74.7518 115.631 69.7448 115.717 64.7664 115.134C55.4069 114.053 46.4314 110.98 37.4986 108.149C28.6796 105.362 19.6757 102.702 10.3873 102.346C9.24937 102.303 8.11144 102.303 6.9735 102.332C6.70324 102.332 6.70324 102.759 6.98773 102.744Z" fill="#E8E8E8"/>
<path d="M99.5868 104.935C109.302 102.261 118.775 98.8327 128.391 95.8171C137.978 92.8016 147.764 90.1701 157.792 89.146C163.382 88.577 169.029 88.5059 174.619 89.146C174.89 89.1745 174.89 88.7477 174.619 88.7193C164.691 87.5956 154.663 88.6908 144.948 90.8387C135.09 93.015 125.532 96.2723 115.959 99.4301C110.497 101.237 105.035 103 99.4872 104.522C99.2027 104.593 99.3165 105.006 99.5868 104.935Z" fill="#E8E8E8"/>
<path d="M68.309 127.523C71.9504 128.362 75.7056 127.978 79.3469 127.309C83.159 126.612 86.9 125.617 90.6409 124.564C98.1798 122.459 105.676 120.311 113.513 119.714C117.937 119.387 122.389 119.472 126.799 119.941C127.069 119.97 127.069 119.543 126.799 119.515C119.146 118.69 111.408 119.074 103.869 120.667C96.3733 122.246 89.119 124.806 81.637 126.413C77.3271 127.338 72.8038 128.12 68.437 127.11C68.1525 127.053 68.0387 127.466 68.309 127.523Z" fill="#E8E8E8"/>
<path d="M139.018 130.282C148.548 129.77 157.367 134.023 166.513 135.958C169.073 136.498 171.662 136.854 174.279 136.897C174.55 136.897 174.55 136.47 174.279 136.47C164.763 136.313 156.044 131.947 146.77 130.368C144.209 129.927 141.621 129.713 139.018 129.856C138.747 129.884 138.733 130.311 139.018 130.282Z" fill="#E8E8E8"/>
<path d="M0.202695 86.3865C10.0601 86.2727 19.9032 88.065 29.0778 91.6637C31.7093 92.7021 34.2838 93.8969 36.7873 95.2198C37.0291 95.3478 37.2425 94.9779 37.0007 94.8499C28.2528 90.2128 18.623 87.3111 8.77988 86.3296C5.93504 86.0452 3.06176 85.9171 0.202695 85.9598C-0.0675649 85.9598 -0.0675649 86.3865 0.202695 86.3865Z" fill="#E8E8E8"/>
<path d="M10.1315 69.7016C17.9122 71.6503 25.01 75.4766 32.3639 78.5917C39.789 81.7353 47.5838 83.9116 55.5636 84.9926C60.0584 85.6042 64.6102 85.8745 69.1477 85.8034C69.4179 85.8034 69.4179 85.3766 69.1477 85.3766C60.9688 85.5047 52.7756 84.509 44.867 82.4322C40.9838 81.4081 37.1859 80.1279 33.4734 78.5917C29.7894 77.0697 26.1764 75.3344 22.535 73.727C18.538 71.9632 14.4841 70.3417 10.2453 69.2891C9.98929 69.218 9.8755 69.6305 10.1315 69.7016Z" fill="#E8E8E8"/>
<path d="M63.1451 94.2668C70.5274 97.1116 78.6352 95.5612 85.8753 93.0577C89.7727 91.7064 93.5564 90.0849 97.4253 88.6767C101.223 87.2969 105.078 86.1021 108.99 85.0922C113.513 83.9258 118.107 83.0155 122.73 82.3611C123 82.3185 122.887 81.906 122.616 81.9486C114.608 83.0866 106.728 84.9926 99.0896 87.6383C91.5792 90.2413 84.3106 93.9254 76.3593 95.0491C71.964 95.675 67.4265 95.4616 63.2588 93.8543C63.0028 93.7547 62.889 94.1672 63.1451 94.2668Z" fill="#E8E8E8"/>
<ellipse cx="60.6535" cy="110.372" rx="1.77736" ry="1.86579" fill="#5222D0"/>
<ellipse cx="117.572" cy="108.44" rx="1.35916" ry="1.418" fill="#5222D0"/>
<ellipse cx="159.457" cy="33.7442" rx="0.906103" ry="0.951555" fill="#5222D0"/>
<ellipse cx="27.1944" cy="142.295" rx="1.30688" ry="1.36203" fill="#5222D0"/>
<ellipse cx="174.687" cy="99.2522" rx="0.313651" ry="0.335843" fill="#5222D0"/>
<ellipse cx="57.132" cy="107.555" rx="1.72508" ry="1.80982" fill="#EC615B"/>
<ellipse cx="29.0934" cy="137.033" rx="0.592452" ry="0.615712" fill="#EC615B"/>
<ellipse cx="32.0771" cy="55.6859" rx="1.28945" ry="1.34337" fill="#EC615B"/>
<ellipse cx="163.774" cy="86.1918" rx="1.28945" ry="1.34337" fill="#EC615B"/>
<ellipse cx="168.987" cy="81.3966" rx="1.08035" ry="1.11948" fill="#EC615B"/>
<path d="M40.3435 109.615C38.7404 109.653 38.0608 112.041 38.5836 113.459C38.8275 114.112 39.3677 114.28 39.9776 114.168C40.1692 114.131 40.4132 114 40.6223 114C41.4413 114.056 41.4239 114.597 41.1799 115.12C41.0057 115.493 40.814 115.791 40.7269 116.202C40.6223 116.724 40.7094 117.303 41.2148 117.526C41.4936 117.657 41.8246 117.433 42.0686 117.526C42.9398 117.825 42.2428 119 42.1731 119.579C42.1034 120.213 42.2603 120.941 42.8353 121.239C43.3406 121.501 43.9505 121.333 44.2119 120.792C44.3687 120.474 43.9156 120.194 43.7588 120.512C43.1664 121.015 42.8179 120.829 42.6785 119.915C42.6785 119.653 42.7133 119.411 42.783 119.168C42.8701 118.758 43.0444 118.385 43.0792 117.956C43.0967 117.657 43.0792 117.34 42.8701 117.116C42.4519 116.705 41.4413 117.303 41.2148 116.575C41.0754 116.127 41.7027 115.381 41.8246 114.97C42.0686 114.168 41.7724 113.366 40.8837 113.384C40.1518 113.403 39.2806 114.205 39.0192 112.806C38.8275 111.836 39.2631 110.175 40.3783 110.157C40.6746 110.157 40.692 109.597 40.3435 109.615Z" fill="#EC615B"/>
<path d="M137.452 91.144C135.692 91.1813 134.054 92.4874 133.636 94.3532C133.27 95.9764 134.211 97.9168 135.936 96.9093C136.546 96.5548 137.156 95.9204 137.261 95.1368C137.33 94.5211 136.964 93.9987 136.355 94.0546C135.501 94.1293 134.717 95.2114 134.264 95.8831C133.741 96.6481 133.201 97.7116 133.288 98.7005C133.462 100.398 135.745 100.734 136.546 99.3908C136.686 99.1669 136.407 98.8311 136.18 98.999C134.978 99.9879 133.723 101.611 134.194 103.365C134.56 104.746 135.954 105.735 137.261 105.249C137.574 105.137 137.435 104.596 137.121 104.708C135.954 105.137 134.734 104.093 134.629 102.824C134.525 101.462 135.483 100.268 136.442 99.4841C136.32 99.3535 136.198 99.2229 136.076 99.0923C135.727 99.6893 134.943 99.82 134.368 99.5028C133.549 99.0363 133.776 98.0288 134.089 97.2825C134.351 96.6481 134.734 96.0697 135.17 95.5659C135.344 95.3607 135.797 94.801 136.041 94.7637C136.267 94.8196 136.511 94.8943 136.738 94.9502C136.72 95.1928 136.651 95.398 136.529 95.6033C136.058 96.4242 134.873 97.0772 134.229 96.1257C133.793 95.51 134.072 94.3532 134.368 93.7375C134.961 92.506 136.145 91.7224 137.417 91.7037C137.783 91.6851 137.783 91.1254 137.452 91.144Z" fill="#EC615B"/>
<path d="M0.597364 62.8772C1.15497 62.1496 2.11334 62.3921 2.39215 63.2317C2.5664 63.7355 2.54897 64.1646 2.9846 64.5191C3.76873 65.1535 4.81423 64.6684 5.65063 64.4818C7.82877 64.0154 7.11434 66.3476 8.35152 67.2619C8.8917 67.6723 9.71067 67.5604 9.98947 66.8887C10.1289 66.5715 9.67582 66.273 9.53642 66.6088C9.08337 67.691 8.24697 66.2916 8.10757 65.8625C8.02044 65.6013 7.96817 65.3401 7.86362 65.0975C7.70679 64.7057 7.49769 64.3326 7.14919 64.09C6.17338 63.437 5.09303 64.2393 4.0998 64.2579C3.03687 64.2952 3.14142 63.5116 2.7755 62.7466C2.61867 62.4108 2.3573 62.1682 2.02622 62.019C1.38149 61.7578 0.649639 61.907 0.231437 62.4854C0.00491141 62.7653 0.388263 63.1571 0.597364 62.8772Z" fill="#EC615B"/>
<path d="M2.46195 68.1574C3.55973 66.8887 5.14541 67.4857 5.79014 68.8664C6.19092 69.7247 6.46972 70.6576 7.34097 71.0867C8.66528 71.7397 10.3904 71.0121 10.8434 69.5381C10.948 69.2023 10.4426 69.053 10.3381 69.3888C10.007 70.471 8.78725 70.9934 7.81145 70.6762C6.60912 70.3031 6.52199 68.8291 5.85984 67.8962C4.95374 66.6088 3.10668 66.5902 2.09603 67.7656C1.8695 68.0268 2.23543 68.4186 2.46195 68.1574Z" fill="#EC615B"/>
<path d="M126.127 150.085C126.772 149.282 127.643 149.301 128.428 149.861C128.689 150.047 128.95 150.234 129.281 150.103C129.7 149.935 129.769 149.338 130.066 149.04C130.675 148.424 131.686 148.424 132.313 148.984C132.575 149.208 132.941 148.816 132.679 148.592C131.738 147.752 130.188 147.827 129.438 148.946C129.369 149.058 129.281 149.357 129.194 149.413C128.794 149.693 128.637 149.264 128.375 149.152C128.097 149.04 127.835 148.909 127.539 148.89C126.842 148.834 126.197 149.133 125.744 149.693C125.552 149.954 125.918 150.346 126.127 150.085Z" fill="#5222D0"/>
<path d="M131.233 151.036C132.418 149.152 136.705 151.708 137.14 148.685C137.192 148.331 136.687 148.181 136.635 148.536C136.408 150.122 134.352 149.749 133.307 149.711C132.331 149.693 131.355 149.842 130.78 150.756C130.588 151.055 131.041 151.335 131.233 151.036Z" fill="#5222D0"/>
<path d="M38.8795 158.872C39.559 157.622 40.4651 156.577 41.5803 155.775C41.8591 155.57 41.5978 155.085 41.319 155.29C40.1341 156.167 39.1583 157.268 38.4264 158.593C38.2521 158.891 38.7052 159.171 38.8795 158.872Z" fill="#5222D0"/>
<path d="M41.3544 157.977C42.278 157.305 43.2015 156.615 44.125 155.943C44.4038 155.738 44.1425 155.253 43.8637 155.458C42.9401 156.13 42.0166 156.82 41.0931 157.492C40.8143 157.697 41.0756 158.182 41.3544 157.977Z" fill="#5222D0"/>
<path d="M41.3362 16.801C41.5784 18.0637 41.8725 19.3957 42.253 20.7795C43.5158 25.2943 45.3148 29.0653 47.0965 32.0751C47.6154 32.1962 48.3592 32.3692 49.276 32.473C50.5388 32.6287 52.5799 32.8881 54.8806 32.2308C55.4341 32.0751 55.1919 32.0924 57.6309 31.0891C60.07 30.0859 60.2083 30.1205 61.1424 29.7053C62.7339 29.0134 64.1696 28.0101 66.9892 26.0554C67.8022 25.4846 68.9265 24.6889 70.2412 23.7029C70.3277 23.1494 70.4315 22.3363 70.4142 21.3504C70.3796 19.7935 70.0509 18.6692 69.5839 17.0432C68.8401 14.5003 68.3211 12.7705 67.9925 11.6808C67.3351 11.2656 66.6259 10.8505 65.8129 10.4699C63.1317 9.17256 60.5889 8.65362 58.6342 8.44604C56.6277 8.60173 55.0362 8.96499 53.9638 9.25905C49.2587 10.5564 46.024 12.9954 44.0174 14.5349C42.8238 15.4344 41.907 16.2474 41.3362 16.801Z" fill="white"/>
<path d="M114.436 10.4526C113.053 11.9403 111.582 13.722 110.181 15.815C109.489 16.8529 108.884 17.8562 108.348 18.8249C109.403 20.399 110.458 21.9731 111.53 23.5299C113.9 24.4467 116.27 25.3635 118.64 26.2976C120.889 23.9451 123.155 21.5926 125.403 19.2227C124.815 17.3199 124.227 15.4345 123.656 13.5317C122.497 12.9436 121.165 12.3554 119.643 11.8192C117.706 11.1619 115.959 10.7294 114.436 10.4526Z" fill="white"/>
<path d="M41.1621 16.9566C41.7502 22.5266 44.2066 27.5949 46.8705 32.4557C47.0261 32.7497 47.4759 32.4903 47.3202 32.1962C44.7082 27.4392 42.2519 22.4401 41.6811 16.9566C41.6465 16.628 41.1275 16.6107 41.1621 16.9566Z" fill="#161616"/>
<path d="M41.648 17.095C45.886 12.4764 51.6981 9.48387 57.9081 8.67086C58.2368 8.63627 58.2368 8.11733 57.9081 8.15192C51.5597 8.98223 45.6092 11.9921 41.2674 16.7144C41.0598 16.9739 41.4231 17.3372 41.648 17.095Z" fill="#161616"/>
<path d="M57.942 8.60167C60.7616 12.8397 62.0763 17.7696 63.339 22.6304C63.4255 22.959 63.9271 22.8206 63.8407 22.492C62.5606 17.5793 61.2287 12.6148 58.3918 8.3422C58.2015 8.06543 57.7518 8.3249 57.942 8.60167Z" fill="#161616"/>
<path d="M47.4775 32.4384C50.643 31.487 53.6874 30.2242 56.5935 28.6501C58.0292 27.8717 59.4131 27.0068 60.7623 26.0727C61.9732 25.2424 63.2359 24.3775 63.8933 23.0282C64.049 22.7342 63.5992 22.4747 63.4435 22.7688C62.7343 24.2045 61.2813 25.104 60.0012 25.9689C58.7385 26.8165 57.4238 27.6122 56.0746 28.3387C53.2896 29.8264 50.3662 31.0199 47.3564 31.9367C47.0277 32.0405 47.1661 32.5421 47.4775 32.4384Z" fill="#161616"/>
<path d="M58.2186 8.63631C61.6436 8.77469 64.9302 9.91636 67.6979 11.9575C67.9747 12.1478 68.2341 11.6981 67.9574 11.5078C65.1205 9.41472 61.7474 8.25575 58.2186 8.11737C57.8899 8.10007 57.8899 8.61901 58.2186 8.63631Z" fill="#161616"/>
<path d="M67.6627 11.7327C69.2368 15.348 70.0671 19.2227 70.0844 23.184C70.0844 23.5126 70.6033 23.5126 70.6033 23.184C70.5687 19.1362 69.7211 15.175 68.0951 11.4732C67.974 11.1618 67.5416 11.4213 67.6627 11.7327Z" fill="#161616"/>
<path d="M63.5648 23.0801C65.7097 24.4639 68.2525 24.0834 70.5877 23.4606C70.9164 23.3742 70.778 22.8725 70.4494 22.959C68.2525 23.5471 65.8654 23.9277 63.8415 22.6303C63.5475 22.4574 63.288 22.9071 63.5648 23.0801Z" fill="#161616"/>
<path d="M47.2009 32.5249C50.2799 33.2168 53.48 32.9919 56.4207 31.833C56.7321 31.7119 56.5937 31.2102 56.2823 31.3313C53.4282 32.4557 50.3318 32.7152 47.3393 32.0233C47.0106 31.9541 46.8722 32.4557 47.2009 32.5249Z" fill="#161616"/>
<path d="M56.5578 31.7984C61.6953 29.861 66.4696 27.076 70.6557 23.5126C70.9152 23.2878 70.5346 22.9245 70.2924 23.1494C66.1755 26.6436 61.4877 29.394 56.4367 31.2967C56.1081 31.4178 56.2464 31.9195 56.5578 31.7984Z" fill="#161616"/>
<path d="M114.04 10.4007C111.843 12.9954 109.836 15.7458 108.037 18.6173C107.864 18.894 108.314 19.1535 108.487 18.8767C110.269 16.0399 112.258 13.3241 114.403 10.764C114.628 10.5218 114.265 10.1412 114.04 10.4007Z" fill="#161616"/>
<path d="M114.282 10.8504C117.396 11.352 120.388 12.338 123.173 13.7737C123.467 13.9294 123.727 13.4797 123.433 13.324C120.596 11.8537 117.569 10.8677 114.403 10.3487C114.092 10.2968 113.953 10.7985 114.282 10.8504Z" fill="#161616"/>
<path d="M108.056 19.1707C110.754 20.3989 113.418 21.6789 116.065 23.0282C116.359 23.1838 116.618 22.7341 116.324 22.5784C113.678 21.2465 111.014 19.9664 108.315 18.721C108.004 18.5826 107.744 19.0323 108.056 19.1707Z" fill="#161616"/>
<path d="M123.313 13.5316C120.995 16.628 118.746 19.7762 116.567 22.9763C116.688 22.9417 116.809 22.9071 116.93 22.8898C116.74 22.786 116.549 22.665 116.342 22.5612C116.048 22.3882 115.788 22.8379 116.082 23.0109C116.273 23.1147 116.463 23.2358 116.67 23.3396C116.791 23.4088 116.947 23.3569 117.034 23.2531C119.196 20.053 121.445 16.8874 123.78 13.8084C123.953 13.5316 123.503 13.2721 123.313 13.5316Z" fill="#161616"/>
<path d="M123.26 13.8257C124.039 15.642 124.61 17.5102 124.99 19.4476C125.059 19.7762 125.561 19.6378 125.492 19.3092C125.111 17.3372 124.506 15.4171 123.71 13.5662C123.589 13.2722 123.139 13.5317 123.26 13.8257Z" fill="#161616"/>
<path d="M116.74 23.3741C117.415 24.2736 118.003 25.2077 118.522 26.211C118.677 26.5051 119.127 26.2456 118.971 25.9516C118.452 24.9483 117.864 24.0142 117.19 23.1147C116.999 22.8552 116.55 23.1147 116.74 23.3741Z" fill="#161616"/>
<path d="M118.968 26.1764C121.217 24.1007 123.327 21.9211 125.334 19.6205C125.559 19.361 125.178 18.9978 124.971 19.2572C122.964 21.5579 120.854 23.7547 118.605 25.8132C118.363 26.0381 118.726 26.4013 118.968 26.1764Z" fill="#161616"/>
<path d="M108.106 19.3091C109.214 20.7449 110.321 22.1979 111.428 23.6336C111.635 23.8931 112.085 23.6336 111.877 23.3742C110.77 21.9384 109.663 20.4854 108.556 19.0497C108.349 18.7902 107.899 19.0324 108.106 19.3091Z" fill="#161616"/>
<path d="M111.53 23.8239C113.848 24.7061 116.166 25.5883 118.484 26.4705C118.795 26.5916 118.934 26.09 118.622 25.9689C116.304 25.0867 113.986 24.2045 111.668 23.3223C111.357 23.2012 111.219 23.7029 111.53 23.8239Z" fill="#161616"/>
<path d="M46.6281 12.2862C48.825 18.0983 51.0391 23.9105 53.236 29.7399C54.8793 30.2069 56.5399 30.6567 58.1832 31.1237C59.4114 30.5702 60.6395 29.9994 61.8677 29.4458C60.4666 28.8404 59.0654 28.235 57.6643 27.6295C55.4155 21.7482 53.1668 15.8496 50.9181 9.96826C50.2953 10.245 49.638 10.5564 48.9634 10.9197C48.0812 11.3521 47.3201 11.8364 46.6281 12.2862Z" fill="#EC615B"/>
<path d="M62.4578 8.86121C63.8762 11.4213 65.4157 15.002 66.0557 19.4476C66.2633 20.9006 66.3498 22.2845 66.3498 23.5299C63.5994 25.6403 60.2436 27.8717 56.2132 29.9475C53.9644 31.1065 51.7849 32.0751 49.761 32.8708C50.8854 32.8708 52.0098 32.8708 53.1341 32.8708C55.5386 31.8676 58.2024 30.6048 61.022 28.9961C64.0838 27.249 66.7131 25.4327 68.9099 23.7375C68.4948 21.6617 68.045 19.5341 67.5607 17.3891C67.0244 15.0193 66.4709 12.7187 65.9174 10.4526C65.606 10.1413 65.0871 9.70881 64.3432 9.36285C63.5821 9.01689 62.9075 8.8958 62.4578 8.86121Z" fill="#EC615B"/>
<path d="M48.7203 10.9715C48.3398 10.6601 48.8414 8.79193 50.2252 8.20379C51.2804 7.75405 52.647 8.1173 53.5984 9.15519C53.0621 9.31087 52.2491 9.55304 51.2804 9.95089C49.5506 10.6601 48.9798 11.1791 48.7203 10.9715Z" fill="#EC615B"/>
<path d="M51.1268 9.15519C51.9398 8.63625 53.116 7.73675 54.1366 6.30102C55.8837 3.8274 56.0221 1.30189 56.0048 0.246715C56.2989 0.160225 58.046 -0.376014 59.0147 0.471589C60.3293 1.61326 59.1185 4.34634 58.859 4.91718C58.0979 6.62968 56.8524 7.56377 56.4546 7.84054C54.2404 9.39736 51.8187 9.22438 51.1268 9.15519Z" fill="#EC615B"/>
<path d="M42.2698 4.55385C43.1347 4.41546 43.619 5.95499 45.418 7.47721C47.0267 8.82646 48.8257 9.43189 50.2268 9.74325C49.6387 10.193 48.5316 10.9368 46.9921 11.1271C44.7607 11.4039 41.7162 10.5563 40.9897 8.4286C40.4535 6.81989 41.3011 4.69223 42.2698 4.55385Z" fill="#EC615B"/>
<path d="M117.62 11.1099C115.388 14.0851 113.139 17.0604 110.908 20.0356C111.704 21.4887 112.499 22.9417 113.312 24.3947C114.004 24.6715 114.696 24.9656 115.388 25.2423C114.887 24.0315 114.385 22.8033 113.866 21.5925C115.855 18.3231 117.862 15.0711 119.851 11.8018C119.107 11.5769 118.363 11.352 117.62 11.1099Z" fill="#5222D0"/>
<path d="M124.401 15.9187C122.118 18.4615 119.817 20.987 117.534 23.5298C114.87 22.7514 112.206 21.973 109.542 21.1946C109.992 21.7654 110.442 22.3363 110.891 22.9071C113.4 23.7374 115.891 24.5677 118.399 25.398C120.561 22.959 122.706 20.5373 124.868 18.0983C124.73 17.3717 124.574 16.6452 124.401 15.9187Z" fill="#5222D0"/>
<path d="M119.852 11.7326C119.939 11.3694 121.219 11.0061 122.084 11.6634C122.637 12.0786 122.966 12.8916 122.724 13.1338C122.274 13.5835 119.731 12.2862 119.852 11.7326Z" fill="#5222D0"/>
<path d="M118.502 6.14533C118.883 5.93775 119.644 6.59507 119.852 6.76805C120.059 6.94103 120.786 7.59836 121.287 9.48384C121.547 10.4352 121.928 11.8537 121.53 12.0439C121.08 12.2688 119.713 10.8504 118.97 9.32816C118.399 8.1173 118.001 6.42209 118.502 6.14533Z" fill="#5222D0"/>
<path d="M128.537 12.2861C128.571 11.871 127.637 11.5423 127.378 11.4558C127.136 11.3693 126.219 11.0753 124.264 11.5077C123.278 11.7326 121.825 12.0612 121.808 12.4764C121.791 12.9607 123.693 13.4278 125.406 13.3413C126.772 13.2721 128.485 12.8224 128.537 12.2861Z" fill="#5222D0"/>
<path opacity="0.09" d="M47.3383 32.3692C48.3589 32.0059 49.8639 31.4697 51.6629 30.7086C54.7246 29.4285 56.8869 28.529 59.2913 26.903C60.4848 26.09 62.0936 24.8446 63.8061 23.0283C64.6537 21.3331 65.6915 18.8076 66.0894 15.5901C66.3316 13.6355 66.297 11.9057 66.1586 10.5045C66.7813 10.8678 67.3867 11.231 68.0095 11.577C68.6322 13.203 69.2722 15.1923 69.722 17.4929C70.1717 19.7244 70.362 21.7482 70.4139 23.4607C68.5457 25.0867 66.8851 26.2976 65.6396 27.1452C59.6372 31.2448 55.503 32.2135 54.5862 32.4211C53.1678 32.7325 52.078 32.7844 51.5937 32.8017C49.7774 32.8708 48.307 32.5941 47.3383 32.3692Z" fill="#353535"/>
<path opacity="0.09" d="M108.402 18.894C109.509 20.4681 110.599 22.0422 111.706 23.599C114.007 24.4985 116.325 25.3807 118.625 26.2802C120.822 23.8931 123.019 21.5233 125.216 19.1361C124.68 17.3026 124.126 15.469 123.59 13.6354C121.341 16.6798 119.092 19.7243 116.844 22.7687C114.024 21.4887 111.204 20.1913 108.402 18.894Z" fill="#353535"/>
<path d="M79.9977 146.808C80.6897 145.944 81.1048 145.546 81.2605 145.649C81.6583 145.892 80.2399 149.386 76.9879 156.149C69.0135 156.53 64.9658 156.34 64.862 155.561C64.7755 154.887 67.7335 153.762 73.7359 152.205C75.0505 149.42 76.3652 146.635 77.6798 143.85C78.4582 144.836 79.2193 145.822 79.9977 146.808Z" fill="black"/>
<path d="M84.0455 91.6624C83.3882 96.3155 82.6271 101.055 81.7968 105.864C79.3405 119.979 76.3479 133.351 73.0094 145.926C73.4937 146.462 74.7565 147.691 76.8323 148.261C79.4443 148.971 81.6065 148.192 82.2292 147.95C86.1386 134.285 90.0306 120.602 93.94 106.937C99.0775 101.332 98.0915 94.0841 94.1649 91.4548C91.5702 89.725 87.557 89.9672 84.0455 91.6624Z" fill="#EC615B"/>
<path opacity="0.15" d="M84.2538 91.9564C84.7555 92.0083 84.4441 99.7751 84.0463 106.764C83.1468 122.626 80.1888 136.551 76.6773 148.158C76.2968 148.054 75.847 147.898 75.3973 147.673C74.2902 147.12 73.5464 146.393 73.1139 145.874C74.1691 142.103 75.6913 136.43 77.2654 129.476C82.1954 107.698 83.5446 91.9045 84.2538 91.9564Z" fill="#353535"/>
<path opacity="0.13" d="M81.3278 110.102C80.9472 114.669 80.3937 119.478 79.6153 124.494C78.3525 132.745 76.6746 140.322 74.8237 147.189C74.6162 147.154 74.3048 147.068 73.9588 146.843C73.4918 146.532 73.2669 146.134 73.1804 145.944C74.5643 140.183 75.9135 134.371 77.2628 128.507C78.6639 122.314 80.0131 116.174 81.3278 110.102Z" fill="#353535"/>
<path d="M113.121 146.29C112.36 145.425 111.893 145.027 111.72 145.131C111.287 145.373 112.844 148.867 116.408 155.63C125.178 156.011 129.606 155.821 129.727 155.042C129.831 154.368 126.579 153.243 119.971 151.686C118.518 148.902 117.082 146.117 115.629 143.332C114.799 144.318 113.969 145.304 113.121 146.29Z" fill="black"/>
<path d="M90.6865 95.7965C90.0464 98.8755 91.4995 101.418 92.0357 102.266C97.744 117.523 103.435 132.797 109.143 148.054C110.112 148.192 112.119 148.331 114.437 147.518C117.049 146.601 118.571 144.957 119.159 144.231C115.751 136.966 113.606 130.877 112.292 126.743C108.849 115.931 104.214 105.483 100.927 94.6202C100.373 92.8039 99.4392 89.6211 97.3289 89.2232C94.8726 88.7735 91.4303 92.1639 90.6865 95.7965Z" fill="#EC615B"/>
<path opacity="0.1" d="M96.0485 89.3272C94.8549 90.1921 97.0691 94.8106 98.1242 97.1113C100.667 102.664 101.982 108.701 104.421 114.306C107.05 120.343 110.907 130.116 116.356 146.514C116.737 146.324 117.221 146.065 117.706 145.667C118.346 145.148 118.778 144.612 119.055 144.196C117.688 141.239 115.716 136.758 113.641 131.171C112.897 129.182 112.81 128.819 111.997 126.328C111.132 123.681 109.783 119.668 109.506 118.855C108.209 115.119 108.209 115.62 105.77 108.995C105.251 107.594 104.542 105.656 103.694 103.131C103.279 101.903 102.968 100.917 102.743 100.208C102.708 100.104 101.567 96.5577 99.9578 92.3543C99.5427 91.2473 99.0929 90.1575 97.9686 89.5866C97.8994 89.5348 96.6366 88.8947 96.0485 89.3272Z" fill="#353535"/>
<path opacity="0.12" d="M104.489 105.432C104.385 105.466 106.703 112.68 117.791 145.58C118.241 145.148 118.691 144.715 119.14 144.266C118.466 142.761 117.411 140.374 116.2 137.398C113.415 130.6 112.221 126.639 109.108 117.904C107.378 113.043 104.593 105.397 104.489 105.432Z" fill="#353535"/>
<path d="M109.387 41.0139C108.989 41.0485 108.713 39.8722 108.28 39.8895C107.934 39.9068 107.692 40.6852 107.675 40.789C107.467 41.4982 107.571 42.2247 108.28 44.1275C108.488 44.681 108.764 45.3903 109.128 46.2033C108.937 47.5525 108.591 49.4207 107.969 51.6176C107.19 54.3333 105.876 58.7962 102.399 63.3975C101.326 64.8159 99.7176 66.7014 97.3824 68.6388C96.6039 70.507 96.5002 72.0638 96.5348 73.0325C96.5521 73.6033 96.6212 76.1807 97.5726 76.4229C98.2127 76.5786 98.9738 75.6445 99.3543 75.1774C103.229 70.2821 105.184 67.8431 105.962 66.4247C107.778 63.1726 109.249 60.526 110.494 56.5475C111.411 53.6414 111.843 51.0986 112.086 49.2304C112.484 48.5731 113.037 47.639 113.677 46.4973C115.424 43.3837 116.047 41.9826 116.427 40.4257C116.825 38.817 116.895 37.4332 116.497 37.2775C116.203 37.1737 115.839 37.7099 115.511 37.5716C115.026 37.364 115.545 35.9283 115.026 35.6169C114.836 35.4958 114.455 35.5131 113.677 36.032C113.141 34.9077 112.795 34.7001 112.57 34.7174C112.103 34.7866 111.878 36.0666 111.774 37.5197C111.636 36.8105 111.29 35.3228 110.858 35.3228C110.494 35.3228 110.114 36.4126 110.01 37.2775C109.854 38.4711 110.2 39.336 109.768 40.5468C109.681 40.7198 109.56 40.9793 109.387 41.0139Z" fill="white"/>
<path d="M108.782 45.9784C108.731 48.2617 108.004 50.4586 107.312 52.6208C106.637 54.662 105.876 56.6859 104.942 58.6232C103.212 62.2212 100.877 65.5078 97.8155 68.0852C97.556 68.2928 97.9366 68.6734 98.1788 68.4485C101.362 65.7846 103.749 62.3423 105.513 58.6059C106.43 56.6686 107.191 54.662 107.848 52.6208C108.54 50.4759 109.249 48.279 109.284 45.9957C109.319 45.6497 108.8 45.6497 108.782 45.9784Z" fill="#161616"/>
<path d="M111.861 48.9882C111.394 54.4544 109.006 59.5919 106.585 64.4353C104.371 68.8636 101.689 73.1708 97.6935 76.198C97.434 76.4056 97.6935 76.8553 97.9529 76.6477C102.035 73.5514 104.786 69.2096 107.034 64.6948C109.508 59.7649 111.895 54.5409 112.379 48.9882C112.397 48.6595 111.878 48.6595 111.861 48.9882Z" fill="#161616"/>
<path d="M109.215 45.7016C108.627 44.4388 108.073 42.9685 107.987 41.5674C107.969 41.3771 107.935 40.5641 108.073 40.4603C108.506 40.1662 108.627 40.6679 108.731 40.8755C108.921 41.2387 109.059 41.4982 109.422 41.7058C109.717 41.8614 109.976 41.429 109.682 41.256C109.077 40.9101 109.128 39.9587 108.436 39.6992C107.848 39.4743 107.641 39.9587 107.52 40.4603C107.105 42.242 108.004 44.3697 108.731 45.9611C108.921 46.2724 109.353 45.9957 109.215 45.7016Z" fill="#161616"/>
<path d="M109.802 41.5501C110.39 40.2008 110.252 38.817 110.303 37.3812C110.321 37.0526 110.252 36.2915 110.442 36.032C110.788 35.5996 111.047 36.5163 111.134 36.8104C111.376 37.7445 111.428 38.6786 111.359 39.63C111.324 39.9587 111.843 39.9587 111.878 39.63C111.929 38.9727 111.86 34.3887 110.39 35.1325C109.785 35.4439 109.819 36.672 109.802 37.2083C109.75 38.5748 109.94 39.9759 109.369 41.2733C109.231 41.5847 109.681 41.8614 109.802 41.5501Z" fill="#161616"/>
<path d="M111.932 39.6646C112.035 39.0418 112.122 38.4191 112.174 37.7791C112.226 37.0698 112.122 36.2741 112.347 35.5995C112.537 34.9768 112.641 34.8557 112.9 35.4092C113.091 35.8071 113.16 36.2222 113.212 36.6374C113.298 37.4158 113.367 38.3326 113.125 39.0937C113.021 39.4224 113.523 39.5435 113.627 39.2321C113.904 38.3153 113.834 37.1909 113.679 36.2568C113.592 35.7552 113.316 34.4406 112.641 34.4406C112.053 34.4406 111.811 35.4265 111.759 35.8417C111.586 37.0526 111.62 38.298 111.43 39.5089C111.378 39.8548 111.88 39.9932 111.932 39.6646Z" fill="#161616"/>
<path d="M113.816 39.2148C113.885 38.6786 113.885 38.125 113.885 37.5888C113.903 37.1217 113.868 35.8763 114.456 35.9282C114.889 35.9628 114.854 36.326 114.889 36.7066C114.906 36.966 114.906 37.2428 114.906 37.5023C114.906 38.1423 114.871 38.765 114.75 39.4051C114.681 39.7337 115.183 39.8721 115.252 39.5435C115.425 38.6958 116.013 35.2189 114.456 35.1844C113.02 35.1498 113.401 38.4364 113.297 39.2321C113.263 39.5435 113.782 39.5435 113.816 39.2148Z" fill="#161616"/>
<path d="M115.668 37.6925C115.875 37.6752 116.065 37.6579 116.273 37.6406C116.308 37.7963 116.342 37.952 116.359 38.125C116.394 38.4364 116.411 38.7304 116.411 39.0418C116.394 39.5953 116.308 40.1662 116.152 40.7024C115.875 41.7576 115.408 42.7609 114.889 43.7295C113.938 45.5285 112.917 47.3102 111.931 49.0919C111.776 49.386 112.225 49.6455 112.381 49.3514C113.211 47.8465 114.059 46.3415 114.889 44.8366C115.668 43.4355 116.446 41.9651 116.775 40.3737C116.948 39.5088 117.311 37.5196 116.411 36.9141C115.841 36.5163 115.097 37.0525 115.166 37.7098C115.183 38.0212 115.702 38.0212 115.668 37.6925Z" fill="#161616"/>
<path opacity="0.08" d="M114.784 35.7379C114.525 35.7552 114.456 36.8277 114.283 38.1078C114.006 40.3565 113.695 42.882 112.622 44.9924C112.276 45.6843 111.653 46.7049 110.529 47.8119C110.356 49.0401 110.027 50.8045 109.474 52.8803C108.505 56.5128 107.087 61.6676 103.074 66.4938C101.984 67.7911 100.306 69.5901 97.8323 71.3372C97.7631 73.0324 97.6939 74.7103 97.6074 76.4056C98.6799 75.5925 100.237 74.2952 101.845 72.4443C103.956 70.0053 105.322 67.2376 107.969 61.806C110.079 57.4642 110.65 55.7863 110.996 54.5755C111.653 52.3613 111.982 50.4412 112.155 49.0574C113.331 47.2065 114.196 45.5632 114.802 44.2658C115.857 42.0171 117.552 38.3845 116.514 37.485C116.22 37.2429 115.788 37.2602 115.459 37.312C115.303 36.5855 115.026 35.7206 114.784 35.7379Z" fill="#353535"/>
<path opacity="0.1" d="M114.128 45.8745C113.211 46.8432 112.294 47.8292 111.378 48.7979C111.291 49.6282 111.135 50.8563 110.772 52.3267C110.08 55.0944 109.077 57.0317 108.679 57.8447C107.658 59.8859 106.327 62.9995 105.046 67.6527C105.617 66.6667 108.644 61.4081 110.34 56.9106C110.98 55.1808 111.326 54.2813 111.602 52.8802C111.948 51.2023 111.862 50.4239 112.312 49.0746C112.813 47.6043 113.574 46.5318 114.128 45.8745Z" fill="#353535"/>
<path d="M66.0708 37.2256C65.5172 37.3813 65.4999 38.8862 65.5864 39.7338C65.7248 41.2387 66.3129 42.3631 66.5724 42.8474C67.6795 44.8886 68.752 46.8087 69.8417 48.6596C69.9801 49.905 70.2223 51.6002 70.7066 53.5722C71.5542 57.0318 72.644 59.3843 74.1489 62.6191C76.5361 67.722 77.9545 70.6453 80.9817 73.759C82.1233 74.9179 83.1612 75.7828 83.8704 76.3364C84.1299 76.0423 85.7213 74.2087 85.41 71.5967C85.1678 69.4691 83.8185 68.1717 83.438 67.8258C82.6077 67.1338 81.3449 66.0095 80.0476 64.418C77.3145 61.0276 76.1728 57.6372 74.5122 52.5516C74.0625 51.1678 73.457 49.2131 72.8516 46.8087C73.1803 45.7362 73.457 44.8886 73.6473 44.3524C74.2181 42.709 74.5814 41.8787 74.3219 40.8236C74.2527 40.5468 74.1143 40.0279 73.7684 39.9241C73.3705 39.8203 72.7651 40.3046 72.2981 41.1868C72.0386 39.7684 71.9175 38.5921 71.8656 37.7099C71.7964 36.4299 71.831 35.4958 71.5542 35.4266C71.2602 35.3574 70.8104 36.3953 70.7585 36.4991C70.3261 37.4677 70.3261 38.3845 70.3953 38.9554C70.5337 35.7379 70.1704 34.9249 69.7725 34.8211C69.4439 34.7347 69.0287 35.1671 68.9076 35.3055C68.0946 36.1704 68.5098 37.4331 68.5444 37.5196C68.1811 35.5996 67.8006 35.4785 67.6795 35.4785C67.3681 35.4612 67.0568 36.1531 66.9357 36.551C66.7973 37.0353 66.8838 37.4677 66.9357 37.6926C66.6589 37.4331 66.3302 37.1564 66.0708 37.2256Z" fill="white"/>
<path d="M72.6949 46.013C72.7468 48.2271 73.3869 50.3721 74.0442 52.4824C74.7015 54.5755 75.4453 56.634 76.3621 58.6232C78.0746 62.3423 80.3926 65.7846 83.4889 68.4658C83.7484 68.6907 84.1116 68.3101 83.8522 68.1025C80.8596 65.5078 78.6109 62.2212 76.933 58.6405C76.0162 56.7032 75.2723 54.6793 74.6323 52.6381C73.9404 50.4759 73.2485 48.279 73.1966 45.9957C73.1966 45.6843 72.6776 45.6843 72.6949 46.013Z" fill="#161616"/>
<path d="M69.7201 49.0402C70.1698 54.5063 72.4532 59.6438 74.8057 64.5392C76.9852 69.0885 79.6664 73.5168 83.6796 76.6651C83.939 76.8727 84.3023 76.5094 84.0428 76.3018C80.1162 73.2401 77.5215 68.9502 75.3592 64.5392C72.9894 59.6611 70.6715 54.5063 70.2217 49.0575C70.2044 48.7115 69.6855 48.7115 69.7201 49.0402Z" fill="#161616"/>
<path d="M73.2331 46.013C73.9596 44.387 74.8764 42.1901 74.3747 40.3738C74.2536 39.9241 74.0288 39.5608 73.5098 39.7684C72.8352 40.0279 72.9044 40.9793 72.299 41.3252C72.0049 41.4982 72.2644 41.948 72.5584 41.775C72.8352 41.6193 72.9909 41.4117 73.1466 41.135C73.2158 40.9966 73.285 40.6852 73.406 40.5814C74.0807 40.0798 73.9596 41.1696 73.9596 41.4809C73.925 42.934 73.3542 44.4562 72.766 45.7708C72.6449 46.0476 73.0947 46.3071 73.2331 46.013Z" fill="#161616"/>
<path d="M72.6444 41.3252C72.1082 40.0797 72.2639 38.7305 72.2293 37.4158C72.212 36.8623 72.2812 35.513 71.6411 35.1844C70.2054 34.4405 70.1189 39.0418 70.1708 39.6818C70.2054 40.0105 70.7243 40.0105 70.6897 39.6818C70.6206 38.7823 70.6551 37.8829 70.8627 37.0007C70.9146 36.7758 71.1049 35.7379 71.5373 35.9282C71.7276 36.0147 71.7103 37.2082 71.7103 37.4158C71.7449 38.8515 71.6238 40.2354 72.1947 41.5846C72.3331 41.896 72.7828 41.6365 72.6444 41.3252Z" fill="#161616"/>
<path d="M70.6405 39.5608C70.4503 38.3499 70.4849 37.1218 70.3119 35.9282C70.26 35.4958 70.0351 34.5098 69.4297 34.4925C68.807 34.4752 68.5302 35.7206 68.4437 36.1704C68.2534 37.1564 68.1842 38.3153 68.461 39.284C68.5475 39.5954 69.0491 39.4743 68.9626 39.1457C68.7551 38.4537 68.807 37.658 68.8589 36.9315C68.8934 36.4991 68.9626 36.0493 69.1183 35.6342C69.3778 34.9768 69.4816 34.8384 69.7238 35.6342C69.914 36.2742 69.8275 37.018 69.8794 37.6753C69.9313 38.3499 70.0178 39.0246 70.1389 39.6992C70.1908 40.0279 70.6924 39.8895 70.6405 39.5608Z" fill="#161616"/>
<path d="M68.8213 39.2494C68.7175 38.471 69.0981 35.1498 67.6797 35.2017C66.1574 35.2535 66.7456 38.7304 66.9012 39.5608C66.9704 39.8894 67.4721 39.751 67.4029 39.4224C67.2818 38.7996 67.2472 38.1596 67.2472 37.5196C67.2472 37.0525 67.1088 35.9974 67.6624 35.9455C68.2332 35.8936 68.1986 37.1563 68.2159 37.6061C68.2332 38.1596 68.2159 38.6958 68.2851 39.2321C68.337 39.578 68.8732 39.5953 68.8213 39.2494Z" fill="#161616"/>
<path d="M67.0404 37.7272C67.1096 37.0871 66.4003 36.5336 65.8295 36.9315C64.9819 37.5196 65.2933 39.4051 65.449 40.2354C65.7257 41.7749 66.4176 43.1933 67.1615 44.5772C68.0091 46.1859 68.8913 47.7773 69.7389 49.3687C69.8945 49.6628 70.3443 49.4033 70.1886 49.1093C69.2026 47.2757 68.182 45.4594 67.2306 43.6085C66.7636 42.6917 66.3311 41.7403 66.089 40.7197C65.9506 40.1835 65.8641 39.6299 65.8468 39.0591C65.8468 38.8515 65.8468 38.644 65.8641 38.4191C65.8641 38.1942 65.8987 37.9693 65.9506 37.7618C65.9679 37.5023 66.1755 37.485 66.5387 37.7099C66.4868 38.0558 67.0058 38.0558 67.0404 37.7272Z" fill="#161616"/>
<path opacity="0.09" d="M67.8185 35.6342C68.3028 35.8072 67.9569 37.8829 67.8704 38.6613C67.6801 40.443 68.078 43.1415 70.8975 46.9817C71.6414 50.6834 73.0598 55.7345 75.9659 61.2006C78.4222 65.8365 81.2072 69.3653 83.5251 71.8908C83.6981 73.413 83.8538 74.9353 84.0267 76.4748C82.9543 75.731 81.4666 74.5547 79.9963 72.8422C78.7162 71.3373 77.9551 70.0226 76.8481 67.9296C73.9939 62.5153 72.5582 59.7995 71.5549 56.5129C71.0013 54.7139 70.344 52.1192 69.9634 48.9017C68.5969 47.1374 67.6628 45.5113 67.0401 44.2659C65.8292 41.8615 65.5179 40.3392 65.5525 38.9727C65.5871 37.4159 65.8638 37.2083 65.9849 37.1564C66.2444 37.0526 66.5903 37.2602 66.8152 37.4332C66.7979 37.3467 66.6249 36.5683 67.1439 35.9974C67.2304 35.9282 67.5763 35.5477 67.8185 35.6342Z" fill="#353535"/>
<path opacity="0.09" d="M66.4343 41.8096C66.6072 41.7231 67.6624 43.2108 68.4235 44.4562C70.2052 47.3796 70.9317 49.9916 71.122 50.6316C72.2637 54.5929 73.734 57.9487 76.692 64.643C77.5915 66.6669 78.958 69.6075 80.8781 73.0844C80.3246 72.5655 79.5288 71.7871 78.6812 70.7665C77.9374 69.8843 75.4984 66.8918 72.9556 60.0244C71.9696 57.3432 70.8106 53.728 69.9803 49.2824C69.3922 48.2791 68.5792 46.8434 67.7143 45.0444C67.3337 44.2314 66.244 41.9134 66.4343 41.8096Z" fill="#353535"/>
<path d="M91.001 66.3208C90.3956 66.2689 89.3231 66.1824 87.922 66.3208C86.296 66.4938 84.8429 66.6322 83.7532 67.5836C82.9401 68.2928 82.698 69.175 82.2482 70.9221C81.9888 71.9427 81.6428 73.3265 81.6774 75.1947C81.7466 78.6543 83.0612 79.1041 83.7532 83.2902C84.0991 85.314 84.0645 86.8882 84.0472 88.7736C84.0126 91.2819 83.7532 93.4095 83.4764 95.0528C84.2202 95.641 85.3619 96.4367 86.9187 97.0594C87.8701 97.4399 90.5686 98.4605 94.0282 97.8551C97.6608 97.2324 99.8922 95.1912 100.636 94.4474C99.4252 91.1781 99.3041 88.5488 99.4079 86.7671C99.5462 84.6048 99.996 84.1378 100.636 79.4846C101.12 76.025 101.103 74.5893 101.068 73.8109C100.947 70.6972 100.878 69.1231 99.8403 68.0679C98.8197 67.03 96.2077 66.7879 91.001 66.3208Z" fill="white"/>
<path d="M90.1365 66.1996C88.8565 66.1131 87.5764 66.1823 86.3137 66.4072C85.2412 66.5975 84.1341 66.7877 83.4249 67.6699C82.1275 69.2614 81.574 71.4582 81.4702 73.4648C81.2107 78.585 83.7535 83.2555 84.6184 88.2027C84.6703 88.5313 85.172 88.393 85.1201 88.0643C84.3417 83.6014 82.1967 79.4326 81.9892 74.8659C81.9027 72.7729 82.214 70.6279 83.2865 68.7943C83.6498 68.1716 84.0476 67.5662 84.7568 67.3067C85.2412 67.1337 85.7774 67.0299 86.2791 66.9261C87.5418 66.684 88.8392 66.6321 90.1192 66.7013C90.4652 66.7359 90.4652 66.2169 90.1365 66.1996Z" fill="#161616"/>
<path d="M83.4241 83.2209C83.9258 87.0264 83.8739 90.8666 83.2511 94.6548C83.1992 94.9835 83.7009 95.1219 83.7528 94.7932C84.3928 90.9531 84.462 87.0783 83.9431 83.2209C83.8912 82.8922 83.3722 82.8922 83.4241 83.2209Z" fill="#161616"/>
<path d="M92.2642 66.6667C94.5821 66.5283 97.4363 66.8051 99.4082 68.189C100.602 69.0366 100.654 70.455 100.775 71.7869C100.896 72.9805 100.948 74.1741 100.861 75.3849C100.515 80.1073 98.6125 84.5875 98.6298 89.3617C98.6298 89.6904 99.1488 89.6904 99.1488 89.3617C99.1315 83.982 101.588 78.9137 101.415 73.5167C101.346 71.4583 101.415 68.8117 99.4428 67.6008C97.3844 66.3381 94.634 66.0094 92.2642 66.1478C91.9182 66.1651 91.9182 66.684 92.2642 66.6667Z" fill="#161616"/>
<path d="M99.1655 84.1723C99.1309 87.5627 99.5461 90.9185 100.376 94.2051C100.463 94.5338 100.965 94.3954 100.878 94.0667C100.065 90.832 99.6499 87.5108 99.6845 84.1723C99.6845 83.8436 99.1655 83.8436 99.1655 84.1723Z" fill="#161616"/>
<path d="M83.2889 95.1393C85.6414 97.094 88.634 98.2702 91.713 98.2875C95.1899 98.3048 98.096 96.6096 100.777 94.5512C101.037 94.3436 100.777 93.8938 100.518 94.1014C97.9749 96.0388 95.2591 97.6994 91.9898 97.7513C88.9626 97.8032 85.9874 96.6788 83.6694 94.7587C83.3927 94.5512 83.0294 94.9144 83.2889 95.1393Z" fill="#161616"/>
<path opacity="0.11" d="M96.3801 66.5457C96.9163 67.843 97.6083 69.7977 97.9542 72.2367C98.6288 77.132 97.4872 80.8857 96.1206 85.2275C95.1 88.4622 93.3875 92.9251 90.3777 97.9242C91.3291 98.0107 92.5053 98.0107 93.82 97.7686C97.245 97.1458 99.5283 95.2777 100.549 94.3263C100.428 93.4614 100.22 92.1121 99.9262 90.4861C99.4591 87.9433 99.3035 87.753 99.2516 86.8362C99.1824 85.7119 99.3727 85.8502 100.393 81.0933C100.791 79.2251 101.085 77.5299 101.258 75.3157C101.275 75.1255 101.275 74.9352 101.293 74.7449C101.379 71.8907 101.414 70.1436 100.203 68.656C99.044 67.2376 97.3661 66.7359 96.3801 66.5457Z" fill="#353535"/>
<path opacity="0.08" d="M101.38 74.8313C101.259 74.7967 100.654 75.7481 99.2352 79.5364C97.6783 83.7052 95.7583 89.7076 94.2706 97.4744C95.0317 97.3707 96.0869 97.1458 97.2459 96.6268C98.8027 95.9176 99.8406 94.9662 100.429 94.3262C99.9098 92.5099 99.3216 89.8114 99.3389 86.5248C99.3562 80.0553 101.657 74.9178 101.38 74.8313Z" fill="#353535"/>
<path d="M84.7531 53.7278C84.0784 55.1116 84.2687 56.5128 84.4244 57.1701C84.3552 57.1701 83.5422 57.1355 83.1097 57.7236C82.5908 58.4156 83.0751 59.2805 83.1616 59.4189C83.2827 59.6264 83.4384 59.9205 83.7671 60.007C84.286 60.1627 84.7704 59.7129 84.8049 59.6783C85.0644 60.3356 85.4969 61.166 86.1715 62.0136C87.2094 63.3282 88.3683 64.1066 89.1467 64.5391C89.1813 65.3694 89.2159 66.1824 89.2332 67.0127C89.4235 67.1857 89.8214 67.497 90.4095 67.6008C91.5685 67.8257 92.468 67.0646 92.5718 66.9608C92.5545 65.9229 92.5372 64.885 92.5199 63.8471C92.9696 63.5012 93.4886 63.0168 93.9902 62.3768C94.9935 61.0622 95.3567 59.7302 95.4951 58.9345C95.6854 59.0037 95.9968 59.0729 96.3946 59.0729C96.7752 59.0729 97.2595 59.0556 97.4844 58.7442C97.7266 58.3983 97.4671 57.8966 97.2076 57.3604C96.9482 56.8587 96.7579 56.7896 96.6887 56.7723C96.3946 56.6858 96.1178 56.8587 96.0314 56.9106C96.1006 56.3571 96.1351 55.3192 95.7027 54.1603C95.5816 53.8316 94.8897 52.0672 93.2118 51.1331C90.4614 49.6455 86.1369 50.9082 84.7531 53.7278Z" fill="white"/>
<path d="M84.4399 53.7625C83.4193 58.2427 85.08 64.0202 90.1656 64.9889C90.4942 65.0581 90.6326 64.5565 90.304 64.4873C85.4951 63.5705 83.9902 58.1216 84.9416 53.9009C85.0108 53.5722 84.5091 53.4338 84.4399 53.7625Z" fill="#161616"/>
<path d="M90.2343 64.9716C90.9435 65.1791 91.9122 64.5045 92.483 64.1239C93.2441 63.6223 93.9188 62.9823 94.455 62.2385C95.7869 60.4568 96.2886 58.208 96.081 56.0285C96.0464 55.6998 95.5275 55.6998 95.5621 56.0285C95.7523 57.914 95.4064 59.834 94.3858 61.4428C93.9534 62.1174 93.4171 62.7228 92.7944 63.2418C92.2927 63.6569 91.0646 64.6602 90.3727 64.4699C90.044 64.3834 89.9056 64.8851 90.2343 64.9716Z" fill="#161616"/>
<path d="M88.7137 64.5564C88.9731 65.2656 89.0423 66.0094 88.9212 66.7532C88.8694 67.0819 89.371 67.2203 89.4229 66.8916C89.5613 66.044 89.5094 65.231 89.2153 64.418C89.1115 64.1066 88.6099 64.2277 88.7137 64.5564Z" fill="#161616"/>
<path d="M92.2961 63.9683C92.2096 64.8505 92.2788 65.7154 92.5037 66.5803C92.5901 66.909 93.0918 66.7706 93.0053 66.4419C92.7977 65.6289 92.7458 64.7986 92.815 63.9683C92.8496 63.6396 92.3307 63.6396 92.2961 63.9683Z" fill="#161616"/>
<path d="M88.939 67.0819C90.1326 68.4138 92.6235 68.3792 93.0559 66.3554C93.1251 66.0267 92.6235 65.8883 92.5543 66.217C92.191 67.8603 90.2537 67.7565 89.3023 66.7186C89.0774 66.4764 88.7141 66.8397 88.939 67.0819Z" fill="#161616"/>
<path d="M89.0431 64.9024C90.0464 65.8192 91.6205 65.6116 92.2606 64.3835C92.4162 64.0894 91.9665 63.8299 91.8108 64.124C91.3265 65.0408 90.1675 65.2484 89.4064 64.5391C89.1642 64.3143 88.8009 64.6775 89.0431 64.9024Z" fill="#161616"/>
<path d="M90.0815 65.2829C90.3236 65.2656 90.5485 65.2829 90.7734 65.3521C91.102 65.4386 91.2404 64.9369 90.9118 64.8504C90.635 64.7812 90.3582 64.7466 90.0815 64.7639C89.7528 64.7812 89.7528 65.3002 90.0815 65.2829Z" fill="#161616"/>
<path d="M84.4919 59.7302C83.7826 60.3011 83.1599 59.5053 83.0907 58.8307C83.0042 58.1734 83.5751 57.3604 84.3016 57.8101C84.5784 57.9831 84.8378 57.5334 84.5611 57.3604C83.4886 56.6858 82.4507 57.8274 82.5718 58.8999C82.7102 60.0416 83.8345 60.9238 84.8551 60.0935C85.1146 59.8859 84.7513 59.5226 84.4919 59.7302Z" fill="#161616"/>
<path d="M96.1706 57.2047C96.7242 56.6857 97.2604 57.6717 97.2431 58.1215C97.2431 58.3982 97.1047 58.675 96.8625 58.8307C96.6723 58.9518 96.2225 59.1074 96.0668 58.8653C95.8939 58.5885 95.4441 58.848 95.6171 59.1247C95.8766 59.5572 96.4647 59.5745 96.8971 59.4015C97.3988 59.1939 97.7274 58.7269 97.7447 58.1906C97.7966 57.2393 96.7069 55.9765 95.7901 56.8414C95.5652 57.0663 95.9285 57.4468 96.1706 57.2047Z" fill="#161616"/>
<path d="M89.2172 53.7105C89.3556 54.9213 89.2864 56.063 89.1653 57.2739C89.0961 58.0869 89.5285 58.4328 90.1686 58.9518C90.428 59.1594 90.7913 58.7961 90.5318 58.5885C90.0821 58.208 89.6842 57.9485 89.7015 57.2566C89.7015 56.9279 89.788 56.5647 89.8226 56.236C89.8918 55.3884 89.8572 54.5408 89.7534 53.7105C89.7015 53.3818 89.1826 53.3818 89.2172 53.7105Z" fill="#161616"/>
<path d="M86.3266 56.1669C86.3093 55.7864 86.8628 55.5442 87.1742 55.5615C87.5375 55.5615 87.7277 55.8556 87.918 56.1323C88.1083 56.4091 88.558 56.1496 88.3678 55.8729C88.0218 55.3712 87.6239 54.9561 86.9666 55.0599C86.4131 55.1636 85.7731 55.5615 85.7904 56.1842C85.8076 56.5129 86.3266 56.5129 86.3266 56.1669Z" fill="#161616"/>
<path d="M92.2617 55.6998C92.7287 54.8176 93.9915 54.956 94.2163 55.942C94.2855 56.2706 94.7872 56.1322 94.718 55.8036C94.4066 54.3851 92.4865 54.1603 91.8119 55.423C91.6735 55.7171 92.106 55.9939 92.2617 55.6998Z" fill="#161616"/>
<path d="M85.8249 54.3334C86.119 53.8836 86.6207 53.5895 87.1569 53.5204C87.4856 53.4858 87.4856 52.9668 87.1569 53.0014C86.4131 53.0879 85.7903 53.4512 85.3752 54.0739C85.1849 54.3507 85.6347 54.6101 85.8249 54.3334Z" fill="#161616"/>
<path d="M92.2605 53.3645C92.8832 53.3299 93.454 53.5202 93.9038 53.9354C94.1459 54.1602 94.5265 53.797 94.267 53.5721C93.7135 53.0705 93.0043 52.811 92.2432 52.8456C91.9145 52.8629 91.9145 53.3818 92.2605 53.3645Z" fill="#161616"/>
<path d="M86.4657 57.4988C86.4657 57.4815 86.4657 57.4815 86.4657 57.4642C86.4657 57.3258 86.3446 57.2047 86.2062 57.2047C86.0679 57.2047 85.9468 57.3258 85.9468 57.4642C85.9468 57.4815 85.9468 57.4815 85.9468 57.4988C85.9468 57.6372 86.0679 57.7582 86.2062 57.7582C86.3446 57.7582 86.4657 57.6545 86.4657 57.4988Z" fill="#161616"/>
<path d="M87.2608 57.3778C87.2781 57.3778 87.2954 57.3778 87.2954 57.3778C87.4338 57.3778 87.5549 57.2567 87.5549 57.1184C87.5549 56.98 87.4338 56.8589 87.2954 56.8589C87.2781 56.8589 87.2608 56.8589 87.2608 56.8589C87.1225 56.8589 87.0014 56.98 87.0014 57.1184C87.0187 57.2567 87.1225 57.3778 87.2608 57.3778Z" fill="#161616"/>
<path d="M87.2276 58.5194C87.2449 58.5194 87.2622 58.5194 87.2622 58.5194C87.4006 58.5194 87.5216 58.3983 87.5216 58.26C87.5216 58.1216 87.4006 58.0005 87.2622 58.0005C87.2449 58.0005 87.2276 58.0005 87.2276 58.0005C87.0892 58.0005 86.9681 58.1216 86.9681 58.26C86.9681 58.3983 87.0892 58.5194 87.2276 58.5194Z" fill="#161616"/>
<path d="M92.8307 56.9971C92.848 56.9971 92.8653 56.9971 92.8653 56.9971C93.0036 56.9971 93.1247 56.876 93.1247 56.7376C93.1247 56.5992 93.0036 56.4781 92.8653 56.4781C92.848 56.4781 92.8307 56.4781 92.8307 56.4781C92.6923 56.4781 92.5712 56.5992 92.5712 56.7376C92.5885 56.876 92.6923 56.9971 92.8307 56.9971Z" fill="#161616"/>
<path d="M94.3544 56.9625C94.6831 56.9625 94.6831 56.4436 94.3544 56.4436C94.0258 56.4436 94.0258 56.9625 94.3544 56.9625Z" fill="#161616"/>
<path d="M93.7831 57.7929C94.1118 57.7929 94.1118 57.2739 93.7831 57.2739C93.4372 57.2739 93.4372 57.7929 93.7831 57.7929Z" fill="#161616"/>
<path d="M88.0573 60.0588C89.1125 61.9616 91.8802 61.6849 92.5548 59.6264C92.6586 59.315 92.157 59.1766 92.0532 59.488C91.5169 61.1486 89.3374 61.287 88.5071 59.7994C88.3514 59.5053 87.9017 59.7648 88.0573 60.0588Z" fill="#161616"/>
<path d="M81.8817 55.8209C81.2416 56.7723 80.3248 58.4156 79.9616 60.6125C79.7021 62.1866 79.2524 64.937 80.9822 67.1165C81.4492 67.7046 83.1617 69.6247 85.5142 69.3134C87.0884 69.1058 88.7663 67.9295 89.0776 66.2862C89.2333 65.5251 89.0603 64.8678 88.9047 64.4872C88.1608 64.124 86.8289 63.3628 85.791 61.8752C85.2721 61.1487 84.9607 60.4395 84.7877 59.8859C84.7012 59.9551 84.4245 60.1627 84.0439 60.1454C83.5942 60.1281 83.3174 59.8167 83.2482 59.7303C82.712 59.1248 82.7639 57.8794 83.4731 57.4642C83.8363 57.2566 84.2515 57.3258 84.4764 57.3777C84.3726 56.7377 84.2688 55.3712 84.9953 53.9354C85.4797 52.9667 86.2235 52.2575 87.936 51.185C89.3544 50.3028 89.9771 50.372 90.202 50.4066C90.9631 50.545 91.4302 51.1504 91.6723 51.4618C92.7621 52.8457 94.1806 54.6273 95.8758 56.8242C95.945 56.7896 96.412 56.5647 96.879 56.7723C97.2077 56.928 97.3634 57.222 97.4672 57.4469C97.5537 57.6372 97.6921 57.914 97.6229 58.2426C97.5537 58.6578 97.225 59.0383 96.7753 59.1767C96.2217 59.3497 95.772 59.0556 95.7028 59.0037C95.5644 59.6611 95.2876 60.6471 94.6303 61.7022C93.9557 62.7747 93.1773 63.4839 92.641 63.8991C92.5718 64.3142 92.4853 65.0753 92.814 65.9402C93.333 67.3587 94.6822 68.2582 95.9277 68.5349C98.2629 69.0366 100.148 67.2895 100.633 66.8224C102.293 65.2656 103.297 62.6536 102.449 60.1454C101.809 58.2772 100.391 57.2566 99.837 56.8934C99.1624 55.3366 98.4705 54.1257 97.9169 53.2608C96.3601 50.8218 95.2876 49.1785 93.333 48.573C92.1394 48.2098 91.0496 48.3482 90.3231 48.5211C89.1468 48.2617 88.23 48.3655 87.6073 48.5211C84.7358 49.2304 82.5563 52.1018 81.8817 55.8209Z" fill="#5222D0"/>
<path opacity="0.08" d="M93.7487 53.9007C93.6103 53.9526 93.8871 54.8521 94.0255 55.7516C94.0428 55.8727 94.3369 58.1042 93.5065 60.2318C92.5725 62.6189 90.6351 63.899 89.7875 64.3833C90.3237 64.5044 90.8773 64.6255 91.4135 64.7639C91.5692 65.698 91.7076 66.6494 91.8632 67.5835C92.2092 67.1683 92.5725 66.7532 92.9184 66.338C93.0741 66.6321 93.3509 67.0645 93.7833 67.4624C93.9217 67.6008 94.925 68.5003 96.4126 68.6214C98.0732 68.777 99.3014 67.8775 99.9933 67.3759C100.46 67.0472 101.844 66.0094 102.484 64.0201C103.176 61.8578 102.502 60.0415 102.294 59.5399C102.069 60.4048 101.602 61.7021 100.599 62.9649C100.357 63.2763 98.177 65.9921 96.8278 65.525C95.6688 65.1272 95.2709 62.3941 95.8418 58.8134C95.8764 58.848 96.1531 59.1766 96.551 59.1593C97.0526 59.142 97.2775 58.6404 97.3121 58.5885C97.5543 58.0696 97.2602 57.4987 96.9662 57.1874C96.5856 56.7722 96.0667 56.703 95.911 56.703C95.6861 56.4781 95.3574 56.1322 95.0115 55.6824C94.1812 54.6619 93.8698 53.8661 93.7487 53.9007Z" fill="#353535"/>
<path opacity="0.09" d="M89.5607 57.7409C89.6991 57.5161 90.4602 57.4642 90.6851 57.9312C90.8581 58.2945 90.6332 58.7788 90.3911 58.8307C90.0105 58.9345 89.3705 58.035 89.5607 57.7409Z" fill="#353535"/>
<path opacity="0.09" d="M85.566 65.0581C85.2027 65.6808 84.4762 66.2516 83.7497 66.1824C83.3172 66.1478 82.8329 65.8884 81.155 63.2072C80.6015 62.325 80.169 61.5639 79.8749 61.0622C79.7193 61.633 79.5117 62.6536 79.6847 63.8818C79.7539 64.3661 79.9268 65.1964 80.3939 66.0959C80.6879 66.6668 81.3799 67.9295 82.8502 68.7252C83.2826 68.9674 84.0438 69.3653 85.0643 69.3653C86.7768 69.348 87.8839 68.2063 88.1088 67.9641C88.5066 67.5663 89.0775 66.9608 89.164 66.0094C89.2505 65.0926 88.818 64.3834 88.7142 64.245C88.1953 63.4493 87.6417 63.5358 86.7596 62.7747C85.6352 61.806 85.3238 60.6125 85.1854 60.6644C84.9779 60.7854 86.552 63.3628 85.566 65.0581Z" fill="#353535"/>
<path opacity="0.13" d="M95.7725 57.7756C95.6687 57.741 95.3573 58.8308 94.4578 60.3011C93.1778 62.3942 91.6037 63.7607 90.462 64.591C91.2577 64.3661 92.6762 63.8472 93.8524 62.5671C95.7206 60.5606 95.9282 57.8275 95.7725 57.7756Z" fill="#353535"/>
</svg>
