<svg width="220" height="149" viewBox="0 0 220 149" fill="none" xmlns="http://www.w3.org/2000/svg">
<path d="M9.89776 112.065C10.3133 113.296 9.86698 114.528 9.68231 115.743C9.52842 116.774 9.65153 117.682 10.2209 118.575C10.5287 119.052 10.9596 119.544 11.0827 120.114C11.2366 120.822 10.7134 121.314 10.4826 121.93C10.2517 122.545 10.4056 123.423 11.1751 123.53C11.1443 123.407 11.1135 123.269 11.0674 123.146C10.7134 123.53 10.6057 124.1 10.9288 124.546C11.1751 124.885 11.6983 124.915 11.8368 125.362C11.9753 125.808 11.7445 126.377 11.6675 126.808C11.3751 128.609 12.4678 130.179 13.7605 131.302C15.2686 132.625 16.9307 133.703 18.285 135.195C19.7008 136.75 20.8704 138.535 21.7476 140.443C21.8707 140.705 22.2708 140.474 22.1477 140.212C20.6703 137.027 18.4388 134.318 15.638 132.195C14.0837 131.025 12.1446 129.64 12.0677 127.485C12.0523 126.793 12.3908 126.1 12.2985 125.408C12.2677 125.192 12.2062 124.977 12.0523 124.808C11.7137 124.408 10.7134 124.161 11.3751 123.453C11.4829 123.346 11.4521 123.099 11.2674 123.069C10.2209 122.915 11.1751 121.591 11.3444 121.176C11.4829 120.868 11.5598 120.56 11.529 120.222C11.4521 119.344 10.7442 118.683 10.3594 117.929C9.37453 116.02 10.9904 113.897 10.3133 111.911C10.2517 111.665 9.80543 111.788 9.89776 112.065Z" fill="#E8E8E8"/>
<path d="M10.2205 112.512C20.8238 117.205 23.4246 129.655 25.2713 139.905C25.3175 140.197 25.7638 140.074 25.7176 139.781C24.1941 131.271 22.4243 122.099 15.9454 115.836C14.3449 114.281 12.4982 113.004 10.4514 112.111C10.1898 111.988 9.94354 112.388 10.2205 112.512Z" fill="#E8E8E8"/>
<path d="M10.9912 113.589C16.6545 120.776 20.6865 129.194 22.7487 138.104C22.8102 138.396 23.2565 138.273 23.1949 137.981C21.1174 128.978 17.0392 120.514 11.3298 113.25C11.1297 113.019 10.8065 113.358 10.9912 113.589Z" fill="#E8E8E8"/>
<path d="M12.2374 121.299C15.5768 122.822 18.2546 125.5 19.7935 128.84C19.9166 129.117 20.3168 128.87 20.1936 128.609C18.6393 125.208 15.8846 122.453 12.4836 120.899C12.1912 120.776 11.9603 121.176 12.2374 121.299Z" fill="#E8E8E8"/>
<path d="M23.7333 129.732C22.7176 125.346 26.1956 121.807 28.3501 118.421C29.3965 116.774 30.2737 115.005 30.9355 113.173C31.2586 112.281 31.4895 111.357 31.7665 110.449C32.0281 109.588 32.3821 108.618 33.3208 108.356C33.2285 108.326 33.1515 108.279 33.0592 108.249C33.4132 108.941 33.5978 109.695 33.5209 110.48C33.4747 110.973 33.1054 111.511 33.1515 111.973C33.1823 112.25 33.4285 112.681 33.5209 112.958C33.6286 113.312 33.7056 113.666 33.7517 114.02C33.8133 114.451 33.8441 114.881 33.8441 115.312C33.8441 115.636 33.6286 116.513 33.7363 116.759C33.6132 116.497 33.2747 116.697 33.3208 116.944C33.7517 119.56 34.3673 122.222 34.5212 124.854C34.6751 127.501 33.6132 129.748 32.2743 131.964C29.9044 135.888 27.3805 140.074 27.8576 144.86C27.8884 145.152 28.3501 145.152 28.3193 144.86C27.796 139.612 30.9355 135.395 33.3516 131.056C34.4904 129.009 35.1522 126.916 34.9675 124.561C34.7674 121.976 34.1826 119.391 33.7671 116.821C33.6286 116.882 33.4901 116.944 33.3516 117.005C33.367 117.036 33.3824 117.067 33.3978 117.098C33.4285 117.175 33.5209 117.205 33.5978 117.205C34.1672 117.221 34.2288 116.574 34.275 116.143C34.3981 115.082 34.3057 114.004 34.0287 112.989C33.921 112.604 33.6594 112.173 33.7056 111.773C33.7517 111.404 33.9518 111.019 33.998 110.619C34.1057 109.711 33.9056 108.833 33.4901 108.033C33.4439 107.941 33.3208 107.895 33.2285 107.926C31.6434 108.387 31.3972 110.265 30.997 111.619C30.3045 113.943 29.2888 116.159 27.9807 118.206C25.7339 121.73 22.2559 125.315 23.3177 129.871C23.3639 130.148 23.8102 130.025 23.7333 129.732Z" fill="#E8E8E8"/>
<path d="M32.2894 112.111C32.0277 116.759 30.1502 121.053 28.6267 125.377C27.0878 129.763 26.1182 134.287 25.7797 138.92C25.7643 139.212 26.2259 139.212 26.2413 138.92C26.5953 134.134 27.6572 129.486 29.2576 124.977C30.7504 120.776 32.4894 116.605 32.751 112.111C32.7664 111.819 32.3047 111.819 32.2894 112.111Z" fill="#E8E8E8"/>
<path d="M25.7648 122.684C25.9803 124.792 26.5497 126.824 27.4884 128.732C27.6269 128.993 28.0117 128.763 27.8885 128.501C26.996 126.67 26.4266 124.715 26.2265 122.699C26.1957 122.391 25.734 122.391 25.7648 122.684Z" fill="#E8E8E8"/>
<path d="M29.3806 124.885C30.9811 123.915 32.3354 122.653 33.4126 121.13C33.5819 120.883 33.1818 120.652 33.0125 120.899C31.9814 122.361 30.6733 123.561 29.1344 124.484C28.8882 124.638 29.119 125.038 29.3806 124.885Z" fill="#E8E8E8"/>
<path d="M21.1632 139.212C22.1481 141.043 22.7637 143.013 22.9946 145.075C23.0253 145.368 23.487 145.368 23.4562 145.075C23.21 142.936 22.579 140.889 21.5633 138.981C21.4248 138.72 21.0247 138.95 21.1632 139.212Z" fill="#E8E8E8"/>
<path d="M25.0262 138.92C25.4109 140.812 25.6264 142.736 25.6572 144.675C25.6572 144.968 26.1188 144.968 26.1188 144.675C26.0881 142.69 25.8726 140.736 25.4725 138.796C25.4109 138.504 24.9646 138.627 25.0262 138.92Z" fill="#E8E8E8"/>
<path d="M179.627 125.9C179.443 126.516 179.15 127.178 179.058 127.824C179.012 128.086 178.996 128.332 179.166 128.547C179.381 128.809 179.75 128.84 180.058 128.886C180.751 129.009 181.443 129.117 182.136 129.209C184.629 129.548 187.153 129.686 189.661 129.732C192.262 129.778 194.863 129.701 197.479 129.609C198.156 129.578 198.926 129.655 199.572 129.532C199.757 129.501 199.957 129.501 200.08 129.332C200.357 128.978 199.972 128.67 199.618 128.855C199.541 128.901 199.48 129.024 199.51 129.117C199.526 129.132 199.526 129.163 199.541 129.178C199.649 129.455 200.095 129.332 199.987 129.055C199.972 129.04 199.972 129.009 199.957 128.993C199.926 129.086 199.88 129.163 199.849 129.255C199.757 129.194 199.664 129.132 199.572 129.07C199.418 129.07 199.28 129.086 199.126 129.086C198.879 129.101 198.633 129.101 198.372 129.117C197.925 129.132 197.464 129.147 197.017 129.163C196.109 129.194 195.217 129.224 194.309 129.24C192.4 129.286 190.508 129.301 188.599 129.24C186.753 129.194 184.906 129.07 183.075 128.855C182.105 128.747 181.135 128.609 180.166 128.439C179.535 128.332 179.458 128.055 179.627 127.455C179.766 126.977 179.92 126.485 180.058 126.008C180.151 125.731 179.704 125.608 179.627 125.9Z" fill="#E8E8E8"/>
<path d="M180.057 126.146C180.304 125.392 181.996 125.577 182.597 125.562C183.443 125.531 184.305 125.5 185.151 125.485C186.952 125.454 188.752 125.454 190.568 125.515C192.323 125.562 194.077 125.654 195.816 125.792C196.647 125.854 197.555 125.839 198.355 126.023C199.186 126.223 199.186 126.624 199.309 127.285C199.402 127.762 199.494 128.239 199.586 128.716C199.648 129.009 200.094 128.886 200.033 128.593C199.925 128.024 199.802 127.439 199.694 126.87C199.633 126.531 199.586 126.146 199.325 125.885C198.832 125.392 197.77 125.515 197.14 125.454C194.893 125.254 192.646 125.115 190.384 125.054C188.183 124.992 185.967 124.992 183.766 125.069C182.797 125.1 181.796 125.085 180.827 125.208C180.273 125.285 179.765 125.469 179.58 126.039C179.519 126.316 179.965 126.423 180.057 126.146Z" fill="#E8E8E8"/>
<path d="M180.504 128.701C181.181 132.425 181.658 136.18 181.951 139.951C181.966 140.089 182.043 140.166 182.181 140.182C186.706 140.597 191.246 140.705 195.77 140.505C196.063 140.489 196.063 140.028 195.77 140.043C191.23 140.243 186.69 140.135 182.181 139.72C182.258 139.797 182.335 139.874 182.412 139.951C182.12 136.134 181.643 132.348 180.95 128.578C180.889 128.286 180.442 128.409 180.504 128.701Z" fill="#E8E8E8"/>
<path d="M198.279 129.624C197.664 133.133 196.91 136.627 196.002 140.074C195.925 140.366 196.371 140.489 196.448 140.197C197.34 136.75 198.11 133.256 198.726 129.748C198.772 129.455 198.325 129.332 198.279 129.624Z" fill="#E8E8E8"/>
<path d="M170.132 101.016C171.147 103.77 171.886 106.602 172.363 109.48C172.378 109.557 172.455 109.618 172.517 109.634C173.009 109.772 173.502 109.911 173.979 110.049C173.933 109.957 173.871 109.865 173.825 109.772C173.548 111.034 173.425 112.404 174.61 113.204C174.995 113.466 175.395 113.62 175.487 114.127C175.549 114.497 175.518 114.866 175.595 115.235C175.749 116.02 176.072 116.774 176.534 117.421C177.565 118.852 179.181 119.467 180.627 120.375C182.228 121.391 183.474 122.853 184.305 124.546C184.428 124.808 184.828 124.577 184.705 124.315C184.028 122.93 183.074 121.684 181.874 120.714C180.55 119.637 178.842 119.083 177.595 117.929C176.934 117.328 176.457 116.528 176.18 115.682C176.041 115.251 175.964 114.805 175.949 114.358C175.933 114.112 175.98 113.912 175.872 113.696C175.61 113.112 174.856 112.942 174.456 112.481C173.856 111.788 174.087 110.711 174.256 109.895C174.287 109.772 174.225 109.649 174.102 109.618C173.794 109.526 173.179 109.48 172.932 109.295C172.625 109.064 172.64 108.449 172.579 108.079C172.425 107.264 172.24 106.463 172.04 105.648C171.64 104.032 171.147 102.462 170.578 100.908C170.486 100.616 170.039 100.739 170.132 101.016Z" fill="#E8E8E8"/>
<path d="M170.624 101.031C175.918 102.585 180.458 106.202 183.167 111.003C183.305 111.265 183.705 111.034 183.567 110.773C180.812 105.863 176.164 102.17 170.747 100.585C170.455 100.492 170.332 100.939 170.624 101.031Z" fill="#E8E8E8"/>
<path d="M182.613 110.342C185.46 114.574 187.368 119.36 188.23 124.392C188.276 124.684 188.722 124.561 188.676 124.269C187.814 119.206 185.875 114.374 183.013 110.111C182.844 109.865 182.443 110.095 182.613 110.342Z" fill="#E8E8E8"/>
<path d="M171.64 102.324C177.565 108.326 182.489 115.235 186.26 122.776C186.398 123.038 186.798 122.807 186.66 122.545C182.889 114.974 177.919 108.033 171.978 102.001C171.747 101.801 171.424 102.124 171.64 102.324Z" fill="#E8E8E8"/>
<path d="M172.733 107.71C176.657 110.08 180.104 113.158 182.89 116.805C183.074 117.036 183.475 116.805 183.29 116.574C180.458 112.85 176.965 109.711 172.964 107.31C172.717 107.156 172.487 107.556 172.733 107.71Z" fill="#E8E8E8"/>
<path d="M176.641 103.647C177.642 105.817 178.273 108.126 178.55 110.511C178.581 110.803 179.042 110.803 179.011 110.511C178.734 108.049 178.073 105.679 177.042 103.416C176.903 103.139 176.518 103.37 176.641 103.647Z" fill="#E8E8E8"/>
<path d="M187.383 118.298C186.952 108.049 196.693 101.493 201.125 93.2594C200.987 93.2132 200.833 93.1825 200.694 93.1363C200.694 94.429 200.679 95.7217 200.679 97.0144C200.679 97.6146 200.679 98.2148 200.664 98.7996C200.664 99.4151 200.894 101.508 199.663 101.123C199.479 101.062 199.294 101.293 199.402 101.462C200.048 102.447 200.202 103.663 199.786 104.786C199.586 105.325 199.371 105.525 199.309 106.11C199.248 106.756 199.186 107.418 199.125 108.064C199.002 109.372 198.863 110.665 198.74 111.973C198.617 113.204 198.632 114.558 198.278 115.743C197.94 116.913 196.97 117.575 195.954 118.144C195.062 118.667 194.169 119.175 193.354 119.806C191.815 121.022 190.63 122.73 190.676 124.746C190.676 125.038 191.138 125.038 191.138 124.746C191.076 122.068 193.231 120.268 195.339 119.021C196.185 118.513 197.109 118.082 197.817 117.375C198.509 116.682 198.771 115.836 198.894 114.881C199.232 112.204 199.417 109.511 199.679 106.833C199.74 106.202 199.848 105.725 200.11 105.155C200.279 104.771 200.387 104.355 200.448 103.94C200.556 102.97 200.325 102.031 199.786 101.216C199.694 101.323 199.617 101.447 199.525 101.554C201.033 102.047 201.095 100.031 201.095 99.092C201.11 97.1067 201.11 95.1215 201.125 93.1209C201.125 92.8901 200.802 92.7977 200.694 92.9978C196.216 101.308 186.444 107.895 186.89 118.267C186.921 118.59 187.383 118.59 187.383 118.298Z" fill="#E8E8E8"/>
<path d="M199.818 97.4145C197.479 101.354 195.139 105.294 193.108 109.403C192.123 111.388 191.23 113.404 190.43 115.466C189.645 117.528 189.03 119.667 189.153 121.884C189.168 122.176 189.63 122.176 189.615 121.884C189.476 119.606 190.153 117.421 190.969 115.312C191.784 113.204 192.723 111.126 193.739 109.11C195.709 105.186 197.956 101.4 200.187 97.63C200.372 97.3837 199.972 97.1529 199.818 97.4145Z" fill="#E8E8E8"/>
<path d="M190.784 108.818C190.415 110.434 190.338 112.065 190.569 113.696C190.615 113.989 191.061 113.866 191.015 113.573C190.8 112.019 190.877 110.465 191.231 108.941C191.292 108.649 190.846 108.526 190.784 108.818Z" fill="#E8E8E8"/>
<path d="M195.324 100.923C195.093 102.247 195.124 103.57 195.416 104.878C195.478 105.171 195.924 105.048 195.863 104.755C195.586 103.524 195.555 102.293 195.77 101.046C195.816 100.754 195.385 100.631 195.324 100.923Z" fill="#E8E8E8"/>
<path d="M199.417 111.88C201.926 108.926 204.08 105.709 205.85 102.262C205.712 102.247 205.573 102.231 205.435 102.201C206.266 105.078 206.096 108.049 205.465 110.942C205.158 112.342 204.758 113.727 204.327 115.097C204.127 115.728 203.911 116.359 203.696 117.005C203.465 117.698 203.249 118.683 202.403 118.836C202.295 118.852 202.234 118.96 202.234 119.052C202.203 119.837 202.157 120.683 201.803 121.406C201.356 122.33 200.464 122.576 199.541 122.838C198.156 123.222 196.74 123.623 195.77 124.746C195.57 124.961 195.909 125.3 196.093 125.069C196.77 124.284 197.663 123.884 198.633 123.576C199.448 123.315 200.372 123.207 201.126 122.776C202.449 122.037 202.618 120.406 202.68 119.052C202.618 119.129 202.572 119.206 202.511 119.267C203.711 119.067 203.988 117.528 204.311 116.574C204.865 114.943 205.388 113.296 205.773 111.619C206.512 108.479 206.774 105.201 205.866 102.062C205.819 101.877 205.542 101.831 205.45 102.001C203.711 105.417 201.587 108.603 199.094 111.527C198.894 111.788 199.217 112.111 199.417 111.88Z" fill="#E8E8E8"/>
<path d="M204.527 107.002C203.342 110.772 201.357 114.281 198.725 117.221C196.586 119.591 193.308 121.653 192.954 125.115C192.924 125.408 193.385 125.408 193.416 125.115C193.601 123.222 194.832 121.76 196.125 120.468C197.402 119.19 198.725 117.99 199.864 116.59C202.157 113.789 203.881 110.572 204.958 107.125C205.066 106.848 204.619 106.725 204.527 107.002Z" fill="#E8E8E8"/>
<path d="M152.434 30.317C151.495 38.104 148.633 45.5833 144.155 52.0314C143.985 52.2776 144.385 52.5085 144.555 52.2622C149.079 45.7525 151.942 38.181 152.896 30.317C152.926 30.0092 152.465 30.0246 152.434 30.317Z" fill="#E8E8E8"/>
<path d="M152.511 30.4401C159.282 31.3019 166.13 31.3327 172.902 30.5478C173.194 30.517 173.194 30.0553 172.902 30.0861C166.13 30.871 159.282 30.8402 152.511 29.9784C152.218 29.9476 152.218 30.4093 152.511 30.4401Z" fill="#E8E8E8"/>
<path d="M172.917 30.8249C174.656 38.9504 173.579 47.5377 169.916 55.0015C169.778 55.2631 170.178 55.494 170.316 55.2323C174.04 47.6608 175.133 38.9658 173.363 30.7017C173.302 30.4093 172.855 30.5325 172.917 30.8249Z" fill="#E8E8E8"/>
<path d="M144.447 52.4468C152.588 55.4631 161.391 55.3246 169.947 55.1553C170.24 55.1553 170.24 54.6937 169.947 54.6937C161.437 54.8629 152.681 55.0015 144.57 52.0005C144.293 51.8928 144.17 52.3391 144.447 52.4468Z" fill="#E8E8E8"/>
<path d="M174.179 40.2432C178.057 38.6735 182.151 37.6578 186.321 37.2577C186.244 37.1807 186.167 37.1038 186.09 37.0268C186.213 42.9671 188.63 48.7227 192.769 52.9856C192.969 53.201 193.308 52.8778 193.093 52.6624C189.03 48.4919 186.675 42.8594 186.552 37.0268C186.552 36.9037 186.444 36.7806 186.321 36.796C182.105 37.2115 177.98 38.2118 174.056 39.7969C173.779 39.92 173.902 40.3663 174.179 40.2432Z" fill="#E8E8E8"/>
<path d="M165.761 55.4785C166.376 57.5869 167.038 59.6952 167.823 61.742C168.454 63.3887 169.27 64.9892 170.639 66.1434C170.87 66.328 171.193 66.0049 170.962 65.8202C169.531 64.6044 168.731 62.9116 168.1 61.1726C167.408 59.2643 166.792 57.3253 166.207 55.3708C166.115 55.0784 165.684 55.2015 165.761 55.4785Z" fill="#E8E8E8"/>
<path d="M171.147 66.1741C178.103 61.3573 185.505 57.2021 193.215 53.7241C193.492 53.601 193.246 53.2009 192.985 53.324C185.259 56.7866 177.872 60.9571 170.916 65.774C170.67 65.9433 170.901 66.3434 171.147 66.1741Z" fill="#E8E8E8"/>
<path d="M153.896 32.4407C159.59 33.1486 165.315 33.6564 171.039 33.9488C171.332 33.9642 171.332 33.5026 171.039 33.4872C165.299 33.1948 159.59 32.6869 153.896 31.979C153.603 31.9482 153.603 32.4099 153.896 32.4407Z" fill="#E8E8E8"/>
<path d="M153.773 34.7183C154.558 35.1954 155.62 35.1184 156.497 35.18C157.759 35.2723 159.021 35.3647 160.283 35.457C160.575 35.4724 160.575 35.0107 160.283 34.9953C159.221 34.9184 158.159 34.8414 157.097 34.7645C156.143 34.6875 154.835 34.826 154.004 34.3182C153.758 34.1643 153.527 34.5644 153.773 34.7183Z" fill="#E8E8E8"/>
<path d="M152.973 37.0114C155.836 37.2114 158.698 37.4115 161.545 37.6116C164.284 37.7962 167.131 38.2271 169.871 37.9501C170.163 37.9193 170.163 37.4577 169.871 37.4884C167.131 37.7655 164.284 37.3499 161.545 37.1499C158.683 36.9498 155.82 36.7498 152.973 36.5497C152.681 36.5343 152.681 36.996 152.973 37.0114Z" fill="#E8E8E8"/>
<path d="M152.465 40.8895C154.958 41.7205 157.59 41.7667 160.206 41.7359C163.084 41.7205 165.946 41.6897 168.824 41.659C169.116 41.659 169.116 41.1973 168.824 41.1973C166.038 41.2127 163.268 41.2435 160.483 41.2588C157.821 41.2742 155.143 41.2742 152.588 40.4278C152.296 40.3509 152.173 40.7972 152.465 40.8895Z" fill="#E8E8E8"/>
<path d="M149.294 47.8609C149.294 48.3534 149.248 48.8766 149.294 49.3844C149.325 49.6307 149.433 49.8769 149.725 49.8923C150.079 49.9077 150.356 49.5076 150.572 49.2921C150.926 48.9228 151.249 48.538 151.572 48.1533C151.757 47.9225 151.434 47.5993 151.249 47.8301C150.864 48.3226 150.449 48.7843 150.002 49.2152C149.956 49.2613 149.91 49.3075 149.848 49.3537C149.756 49.446 149.725 49.4306 149.756 49.2921C149.71 49.1844 149.756 48.9689 149.756 48.8612C149.756 48.5226 149.756 48.1995 149.756 47.8609C149.756 47.5685 149.294 47.5685 149.294 47.8609Z" fill="#E8E8E8"/>
<path d="M153.019 44.3212C157.974 45.3831 163.053 45.7525 168.1 45.4293C168.393 45.4139 168.393 44.9522 168.1 44.9676C163.083 45.2908 158.051 44.9214 153.142 43.875C152.849 43.8134 152.726 44.2597 153.019 44.3212Z" fill="#E8E8E8"/>
<path d="M171.255 60.5725C177.457 58.3102 183.382 55.3555 188.907 51.739C189.153 51.5697 188.922 51.1696 188.676 51.3389C183.182 54.94 177.303 57.8947 171.132 60.1262C170.855 60.2339 170.978 60.6802 171.255 60.5725Z" fill="#E8E8E8"/>
<path d="M169.823 57.6947C174.44 56.3558 178.949 54.7245 183.366 52.8317C183.643 52.7085 183.397 52.3238 183.135 52.4315C178.765 54.3244 174.271 55.9249 169.7 57.2484C169.423 57.3407 169.531 57.787 169.823 57.6947Z" fill="#E8E8E8"/>
<path d="M171.824 54.0012C174.456 52.9085 177.088 51.8005 179.719 50.7079C182.027 49.7383 184.397 48.8611 186.444 47.3838C186.675 47.2145 186.46 46.8144 186.213 46.9836C184.12 48.4918 181.674 49.3998 179.319 50.3847C176.78 51.4466 174.24 52.5084 171.701 53.5703C171.44 53.678 171.563 54.1243 171.824 54.0012Z" fill="#E8E8E8"/>
<path d="M173.964 49.2921C175.103 48.815 176.257 48.3533 177.396 47.8763C177.673 47.7685 177.55 47.3222 177.273 47.43C176.134 47.907 174.98 48.3687 173.841 48.8458C173.564 48.9535 173.687 49.3998 173.964 49.2921Z" fill="#E8E8E8"/>
<path d="M174.595 43.321C176.119 43.3671 177.658 42.6285 179.058 42.0744C180.52 41.4896 181.951 40.8433 183.352 40.1354C183.613 39.9969 183.382 39.5968 183.121 39.7353C181.751 40.4278 180.366 41.0587 178.935 41.6281C177.596 42.1668 176.072 42.9055 174.595 42.8593C174.287 42.8439 174.287 43.3056 174.595 43.321Z" fill="#E8E8E8"/>
<path d="M155.481 55.0477C153.742 60.4186 150.833 65.3585 147.001 69.5137C146.863 69.6675 146.955 69.8984 147.17 69.9138C154.28 70.1446 160.867 73.1301 167.192 76.1465C167.454 76.2696 167.7 75.8695 167.423 75.7463C161.021 72.6992 154.373 69.6983 147.17 69.4521C147.232 69.5906 147.278 69.7137 147.34 69.8522C151.233 65.6509 154.173 60.634 155.942 55.1862C156.019 54.8938 155.573 54.7707 155.481 55.0477Z" fill="#E8E8E8"/>
<path d="M167.715 75.9926C169.793 71.9606 172.04 68.0209 174.441 64.1582C174.594 63.912 174.194 63.6658 174.04 63.9274C171.64 67.7747 169.393 71.7298 167.315 75.7618C167.177 76.0234 167.577 76.2696 167.715 75.9926Z" fill="#E8E8E8"/>
<path d="M167.039 70.6679C167.331 70.6679 167.331 70.2062 167.039 70.2062C166.731 70.2062 166.731 70.6679 167.039 70.6679Z" fill="#E8E8E8"/>
<path d="M151.08 67.3591C153.481 67.1898 155.512 68.6364 157.713 69.3597C158.913 69.7445 160.16 69.9445 161.36 70.3447C162.576 70.7294 163.699 71.3142 164.761 72.0375C165.007 72.2068 165.238 71.8066 164.992 71.6374C164.022 70.9756 162.976 70.4216 161.868 70.0369C160.56 69.5752 159.159 69.3597 157.836 68.9288C155.589 68.1901 153.542 66.7282 151.08 66.9128C150.772 66.9128 150.772 67.3745 151.08 67.3591Z" fill="#E8E8E8"/>
<path d="M153.511 65.3893C157.112 66.3127 160.559 67.7439 163.745 69.6521C164.006 69.806 164.237 69.4059 163.976 69.252C160.759 67.313 157.281 65.8664 153.634 64.943C153.342 64.8815 153.218 65.3124 153.511 65.3893Z" fill="#E8E8E8"/>
<path d="M154.681 62.6962C156.282 63.0348 157.759 63.6812 159.113 64.6045C159.359 64.7738 159.59 64.3737 159.344 64.2044C157.959 63.2656 156.435 62.6039 154.804 62.25C154.512 62.1884 154.389 62.6347 154.681 62.6962Z" fill="#E8E8E8"/>
<path d="M155.635 60.2339C158.236 61.2035 160.806 62.2346 163.361 63.3272C163.638 63.4503 163.869 63.0502 163.592 62.9271C161.006 61.819 158.39 60.7572 155.758 59.7877C155.466 59.6953 155.358 60.1416 155.635 60.2339Z" fill="#E8E8E8"/>
<path d="M24.7493 36.4266C24.503 40.0892 24.4415 43.7827 23.2719 47.3068C22.1793 50.5848 20.3479 53.5857 17.9472 56.0634C17.7471 56.2788 18.0703 56.602 18.2704 56.3866C20.6711 53.9089 22.5178 50.9233 23.6412 47.6608C24.8878 44.0443 24.9493 40.2124 25.211 36.4266C25.2263 36.1342 24.7647 36.1342 24.7493 36.4266Z" fill="#E8E8E8"/>
<path d="M25.0718 36.5651C31.1044 36.4882 37.1524 36.5035 43.185 36.6267C44.7239 36.6574 46.2629 36.7036 47.7864 36.7498C48.5713 36.7806 49.7717 36.5497 50.1872 37.3807C50.4796 37.9655 50.4642 38.9043 50.5565 39.5506C50.9566 42.3823 51.0336 45.2601 50.8181 48.1071C50.5719 51.3389 49.9255 54.5245 48.9252 57.6023C48.8329 57.8793 49.2792 58.0025 49.3715 57.7255C51.249 51.9544 51.8492 45.7987 51.049 39.7815C50.972 39.1505 50.8643 38.5196 50.7566 37.904C50.6796 37.4577 50.6335 36.8883 50.2333 36.5959C49.8486 36.3035 49.31 36.3497 48.8637 36.3343C47.9865 36.3035 47.1247 36.2727 46.2475 36.2573C42.9234 36.165 39.5993 36.1034 36.2752 36.088C32.5356 36.0573 28.796 36.0726 25.0718 36.1188C24.7794 36.1188 24.7794 36.5805 25.0718 36.5651Z" fill="#E8E8E8"/>
<path d="M18.0546 56.6328C25.8724 58.8181 34.1365 59.0489 42.0774 57.3407C42.3698 57.2792 42.2467 56.8329 41.9543 56.8944C34.1057 58.6026 25.9186 58.3564 18.1777 56.1865C17.8853 56.1096 17.7622 56.5405 18.0546 56.6328Z" fill="#E8E8E8"/>
<path d="M49.3721 37.6732C49.0181 44.3983 47.1714 50.9695 43.9704 56.8791C43.8319 57.1407 44.2321 57.3715 44.3706 57.1099C47.6023 51.1234 49.4798 44.4752 49.8338 37.6732C49.8492 37.3808 49.3875 37.3808 49.3721 37.6732Z" fill="#E8E8E8"/>
<path d="M49.3715 38.9505C49.8024 40.9972 49.6177 43.0594 49.2638 45.0908C48.956 46.8606 48.6021 48.6304 48.2019 50.4001C47.4171 53.8627 46.3552 57.2792 44.3238 60.2185C44.1545 60.4648 44.5547 60.6956 44.7239 60.4494C46.8323 57.4023 47.9095 53.8473 48.7098 50.2616C49.5254 46.599 50.6181 42.5823 49.8178 38.8273C49.7563 38.5349 49.31 38.6581 49.3715 38.9505Z" fill="#E8E8E8"/>
<path d="M49.7101 40.4278C50.2487 47.4146 49.1099 54.4475 46.386 60.911C46.2783 61.188 46.7245 61.3111 46.8323 61.0341C49.5562 54.5398 50.7104 47.4607 50.1718 40.4278C50.1564 40.1354 49.6947 40.1354 49.7101 40.4278Z" fill="#E8E8E8"/>
<path d="M20.9935 60.4493C28.7035 61.7728 36.5829 61.7267 44.2775 60.3262C44.5699 60.2801 44.4468 59.8338 44.1544 59.8799C36.5521 61.265 28.7343 61.3111 21.1166 60.003C20.8242 59.9569 20.7011 60.4032 20.9935 60.4493Z" fill="#E8E8E8"/>
<path d="M22.0089 57.8331C21.6549 58.4179 21.1933 58.9104 20.6392 59.3105C20.393 59.4798 20.6239 59.8799 20.8701 59.7106C21.4857 59.2643 22.0089 58.7257 22.3936 58.0793C22.5629 57.8177 22.1628 57.5869 22.0089 57.8331Z" fill="#E8E8E8"/>
<path d="M23.0869 61.2034C22.8869 61.5882 22.656 61.9575 22.379 62.2961C22.1943 62.5269 22.5175 62.8501 22.7022 62.6193C23.01 62.2499 23.2716 61.8652 23.4717 61.4343C23.6102 61.1727 23.2254 60.9264 23.0869 61.2034Z" fill="#E8E8E8"/>
<path d="M22.6399 62.927C30.3807 63.835 38.2447 63.3426 45.8162 61.4651C46.1086 61.3881 45.9855 60.9418 45.6931 61.0188C38.1677 62.8809 30.35 63.3579 22.6399 62.45C22.3475 62.4346 22.3475 62.8963 22.6399 62.927Z" fill="#E8E8E8"/>
<path d="M26.4108 42.6132C33.059 41.7052 39.7687 42.1361 46.4323 42.5978C46.7247 42.6132 46.7247 42.1515 46.4323 42.1361C39.7226 41.6744 32.982 41.2435 26.2877 42.1669C25.9953 42.1976 26.1184 42.6439 26.4108 42.6132Z" fill="#E8E8E8"/>
<path d="M24.5019 49.5075C30.7346 49.5998 36.9519 49.8922 43.1538 50.3846C43.4462 50.4154 43.4462 49.9537 43.1538 49.923C36.9519 49.4151 30.7346 49.1227 24.5019 49.0458C24.1941 49.0458 24.1941 49.5075 24.5019 49.5075Z" fill="#E8E8E8"/>
<path d="M22.6399 53.0779C29.5343 53.4011 36.4287 53.7396 43.3232 54.0628C43.6156 54.0782 43.6156 53.6165 43.3232 53.6011C36.4287 53.278 29.5343 52.9394 22.6399 52.6162C22.3475 52.6008 22.3475 53.0625 22.6399 53.0779Z" fill="#E8E8E8"/>
<path d="M28.3345 46.7991C27.0264 49.9077 25.7799 53.0317 24.6257 56.2019C24.518 56.4789 24.9643 56.6021 25.072 56.3251C26.2262 53.201 27.4419 50.1078 28.7347 47.0453C28.8424 46.7683 28.4423 46.522 28.3345 46.7991Z" fill="#E8E8E8"/>
<path d="M33.5515 47.3376C32.028 50.4155 30.7661 53.5857 29.6734 56.8175C29.5811 57.0945 30.0274 57.2176 30.1197 56.9406C31.197 53.7396 32.4435 50.6002 33.9517 47.5685C34.0902 47.3068 33.69 47.076 33.5515 47.3376Z" fill="#E8E8E8"/>
<path d="M39.399 47.707C37.6447 50.554 36.3366 53.6472 35.5209 56.8944C35.444 57.1868 35.8903 57.3099 35.9672 57.0175C36.7675 53.8011 38.0602 50.754 39.7992 47.9378C39.9531 47.6916 39.5529 47.4607 39.399 47.707Z" fill="#E8E8E8"/>
<path d="M44.0158 47.9224C42.5692 50.7232 41.3381 53.6318 40.3224 56.6327C40.23 56.9097 40.6763 57.0329 40.7687 56.7558C41.769 53.8011 42.9847 50.9387 44.4159 48.1686C44.5391 47.8916 44.1543 47.6607 44.0158 47.9224Z" fill="#E8E8E8"/>
<path d="M23.8562 50.631C24.5333 50.9388 25.1027 51.3543 25.6105 51.8929C25.8106 52.1083 26.1338 51.7852 25.9337 51.5697C25.4105 51.0003 24.7949 50.554 24.087 50.2308C23.81 50.1231 23.5792 50.5079 23.8562 50.631Z" fill="#E8E8E8"/>
<path d="M25.9492 49.846C24.9643 50.4308 24.1025 51.1695 23.3792 52.0467C23.1945 52.2775 23.5177 52.6007 23.7024 52.3699C24.4103 51.5081 25.2259 50.8002 26.18 50.2461C26.4417 50.0922 26.2108 49.6921 25.9492 49.846Z" fill="#E8E8E8"/>
<path d="M32.1205 54.6784C32.9823 55.1862 33.7209 55.8172 34.3673 56.5713C34.552 56.8021 34.8905 56.4636 34.6905 56.2481C34.0287 55.4632 33.2439 54.8015 32.3513 54.2783C32.1051 54.1244 31.8742 54.5245 32.1205 54.6784Z" fill="#E8E8E8"/>
<path d="M34.7362 54.0319C33.7512 54.7706 32.8433 55.6017 32.0122 56.5096C31.8122 56.7251 32.1354 57.0636 32.3354 56.8328C33.1357 55.9402 34.0129 55.14 34.967 54.4167C35.1978 54.2628 34.967 53.8627 34.7362 54.0319Z" fill="#E8E8E8"/>
<path d="M27.8262 49.9384C28.6265 50.6771 29.4267 51.4004 30.227 52.1391C30.4424 52.3392 30.7656 52.016 30.5501 51.8159C29.7499 51.0772 28.9496 50.3539 28.1494 49.6152C27.934 49.3998 27.6108 49.723 27.8262 49.9384Z" fill="#E8E8E8"/>
<path d="M30.4585 49.569C29.3351 50.2154 28.3502 51.0464 27.5499 52.0621C27.3652 52.293 27.6884 52.6161 27.8731 52.3853C28.6579 51.4004 29.5967 50.6001 30.6893 49.9692C30.951 49.8153 30.7047 49.4151 30.4585 49.569Z" fill="#E8E8E8"/>
<path d="M33.6433 53.0162C32.5353 52.4161 32.3814 50.9233 33.4432 50.1538C34.2435 49.5844 35.8747 49.1074 36.4903 50.1538C37.0289 51.0926 36.3826 52.2314 35.6131 52.8008C34.4128 53.678 33.5663 52.7085 33.0123 51.7082C32.8738 51.4465 32.4737 51.6774 32.6122 51.939C33.3201 53.2163 34.4589 54.2166 35.8747 53.1855C36.9212 52.4315 37.6445 50.831 36.7519 49.6921C35.8286 48.5226 33.7202 49.1381 32.8277 50.0615C31.8273 51.108 32.1967 52.7238 33.4125 53.3856C33.6741 53.5549 33.9049 53.1548 33.6433 53.0162Z" fill="#E8E8E8"/>
<path d="M27.119 37.6423C26.8266 38.7042 26.7342 39.7815 26.8881 40.8895C26.9189 41.1819 27.396 41.1819 27.3498 40.8895C27.2113 39.8276 27.2729 38.7966 27.5653 37.7655C27.6422 37.4885 27.1959 37.3653 27.119 37.6423Z" fill="#E8E8E8"/>
<path d="M27.4111 37.9193C33.1975 37.273 39.0301 37.1191 44.8473 37.473C44.7703 37.3961 44.6934 37.3191 44.6164 37.2422C44.6934 38.1502 44.678 39.0428 44.5241 39.9353C44.4779 40.2277 44.9242 40.3508 44.9704 40.0585C45.1243 39.1197 45.1704 38.1963 45.0781 37.2422C45.0627 37.1191 44.9858 37.0268 44.8473 37.0114C39.0301 36.6574 33.1975 36.8113 27.4111 37.4577C27.1187 37.4884 27.1187 37.9501 27.4111 37.9193Z" fill="#E8E8E8"/>
<path d="M27.8576 40.7356C33.3977 40.6125 38.9379 40.4893 44.478 40.3662C44.7704 40.3662 44.7704 39.9045 44.478 39.9045C38.9379 40.0277 33.3977 40.1508 27.8576 40.2739C27.5652 40.2893 27.5652 40.751 27.8576 40.7356Z" fill="#E8E8E8"/>
<path d="M120.686 131.656C129.334 131.656 137.968 131.656 146.617 131.656C147.509 131.656 147.509 130.271 146.617 130.271C137.968 130.271 129.334 130.271 120.686 130.271C119.793 130.271 119.793 131.656 120.686 131.656Z" fill="#161616"/>
<path d="M149.756 131.656C151.618 131.656 153.465 131.656 155.327 131.656C156.22 131.656 156.22 130.271 155.327 130.271C153.465 130.271 151.618 130.271 149.756 130.271C148.864 130.271 148.864 131.656 149.756 131.656Z" fill="#161616"/>
<path d="M160.913 130.686C162.037 130.686 163.176 130.686 164.299 130.686C165.192 130.686 165.192 129.301 164.299 129.301C163.176 129.301 162.037 129.301 160.913 129.301C160.021 129.301 160.021 130.686 160.913 130.686Z" fill="#161616"/>
<path d="M150.003 143.29C160.345 143.29 170.686 143.29 181.028 143.29C181.92 143.29 181.92 141.905 181.028 141.905C170.686 141.905 160.345 141.905 150.003 141.905C149.11 141.905 149.11 143.29 150.003 143.29Z" fill="#161616"/>
<path d="M182.966 143.29C185.551 143.29 188.137 143.29 190.722 143.29C191.615 143.29 191.615 141.905 190.722 141.905C188.137 141.905 185.551 141.905 182.966 141.905C182.073 141.905 182.073 143.29 182.966 143.29Z" fill="#161616"/>
<path d="M195.571 143.059C199.372 143.059 203.158 143.059 206.959 143.059C207.851 143.059 207.851 141.674 206.959 141.674C203.158 141.674 199.372 141.674 195.571 141.674C194.678 141.674 194.678 143.059 195.571 143.059Z" fill="#161616"/>
<path d="M211.559 142.321C212.36 142.321 213.175 142.321 213.976 142.321C214.868 142.321 214.868 140.936 213.976 140.936C213.175 140.936 212.36 140.936 211.559 140.936C210.667 140.936 210.667 142.321 211.559 142.321Z" fill="#161616"/>
<path d="M1.09521 146.245C13.5606 145.937 26.0259 145.706 38.4913 145.568C42.0616 145.522 45.6474 145.491 49.2177 145.46C49.5101 145.46 49.5101 144.998 49.2177 144.998C36.7523 145.091 24.287 145.275 11.8216 145.537C8.25126 145.614 4.66554 145.691 1.09521 145.783C0.787426 145.799 0.787426 146.26 1.09521 146.245Z" fill="#161616"/>
<path d="M34.7512 148.815C44.2003 148.415 53.6647 148.476 63.0984 149C63.3908 149.015 63.3908 148.553 63.0984 148.538C53.6647 148.015 44.2003 147.953 34.7512 148.353C34.4434 148.369 34.4434 148.83 34.7512 148.815Z" fill="#161616"/>
<path d="M184.151 129.594C183.551 131.009 182.766 132.318 181.797 133.518C181.612 133.749 181.935 134.072 182.12 133.841C183.151 132.579 183.967 131.21 184.598 129.717C184.705 129.44 184.259 129.317 184.151 129.594Z" fill="#E8E8E8"/>
<path d="M187.06 129.255C185.844 131.948 184.105 134.364 181.935 136.38C181.719 136.58 182.043 136.904 182.258 136.704C184.459 134.672 186.213 132.225 187.46 129.486C187.583 129.224 187.183 128.993 187.06 129.255Z" fill="#E8E8E8"/>
<path d="M190.076 129.409C188.152 133.318 185.397 136.734 181.966 139.427C181.735 139.612 182.058 139.935 182.289 139.751C185.736 137.027 188.521 133.564 190.461 129.624C190.599 129.378 190.199 129.147 190.076 129.409Z" fill="#E8E8E8"/>
<path d="M192.892 129.532C190.799 133.333 188.199 136.796 185.121 139.858C184.905 140.074 185.244 140.397 185.444 140.182C188.537 137.104 191.184 133.595 193.277 129.763C193.446 129.501 193.046 129.27 192.892 129.532Z" fill="#E8E8E8"/>
<path d="M195.401 129.424C193.4 133.303 190.922 136.904 187.983 140.135C187.783 140.351 188.106 140.689 188.306 140.459C191.261 137.196 193.785 133.58 195.801 129.655C195.939 129.394 195.539 129.163 195.401 129.424Z" fill="#E8E8E8"/>
<path d="M197.433 129.44C195.602 133.349 193.216 136.981 190.338 140.197C190.138 140.412 190.462 140.751 190.662 140.52C193.57 137.258 195.986 133.61 197.833 129.655C197.972 129.409 197.571 129.163 197.433 129.44Z" fill="#E8E8E8"/>
<path d="M197.678 132.425C196.247 135.288 194.493 137.965 192.446 140.428C192.261 140.659 192.584 140.982 192.769 140.751C194.847 138.258 196.632 135.549 198.078 132.656C198.217 132.394 197.817 132.164 197.678 132.425Z" fill="#E8E8E8"/>
<path d="M63.2064 0.23084C63.2064 2.84703 63.2064 5.46322 63.2064 8.06402C63.2064 8.35641 63.6681 8.35641 63.6681 8.06402C63.6681 5.44783 63.6681 2.83164 63.6681 0.23084C63.6681 -0.0769467 63.2064 -0.0769467 63.2064 0.23084Z" fill="#E8E8E8"/>
<path d="M54.8045 8.49488C62.5146 8.49488 70.2093 8.49488 77.9193 8.49488C78.2117 8.49488 78.2117 8.0332 77.9193 8.0332C70.2093 8.0332 62.5146 8.0332 54.8045 8.0332C54.4967 8.0332 54.4967 8.49488 54.8045 8.49488Z" fill="#E8E8E8"/>
<path d="M71.0547 9.06439C71.0547 11.4805 71.0547 13.8813 71.0547 16.2974C71.0547 16.5898 71.5164 16.5898 71.5164 16.2974C71.5164 13.8813 71.5164 11.4805 71.5164 9.06439C71.5164 8.77199 71.0547 8.77199 71.0547 9.06439Z" fill="#E8E8E8"/>
<path d="M59.0211 17.1437C66.5311 17.1437 74.0257 17.1437 81.5357 17.1437C81.8281 17.1437 81.8281 16.682 81.5357 16.682C74.0257 16.682 66.5311 16.682 59.0211 16.682C58.7287 16.682 58.7287 17.1437 59.0211 17.1437Z" fill="#E8E8E8"/>
<path d="M58.5892 17.313C58.5892 19.1289 58.5892 20.9295 58.5892 22.7454C58.5892 23.0378 59.0509 23.0378 59.0509 22.7454C59.0509 20.9295 59.0509 19.1289 59.0509 17.313C59.0509 17.0206 58.5892 17.0052 58.5892 17.313Z" fill="#E8E8E8"/>
<path d="M170.254 81.3942C174.917 81.3942 179.565 81.3942 184.228 81.3942C184.52 81.3942 184.52 80.9325 184.228 80.9325C179.565 80.9325 174.917 80.9325 170.254 80.9325C169.946 80.9325 169.946 81.3942 170.254 81.3942Z" fill="#E8E8E8"/>
<path d="M177.642 81.5789C177.642 83.4102 177.642 85.2416 177.642 87.0883C177.642 87.3807 178.104 87.3807 178.104 87.0883C178.104 85.257 178.104 83.4256 178.104 81.5789C178.104 81.2865 177.642 81.2865 177.642 81.5789Z" fill="#E8E8E8"/>
<path d="M169.193 87.3191C174.563 87.3191 179.919 87.3191 185.29 87.3191C185.582 87.3191 185.582 86.8574 185.29 86.8574C179.919 86.8574 174.563 86.8574 169.193 86.8574C168.9 86.8574 168.9 87.3191 169.193 87.3191Z" fill="#E8E8E8"/>
<path d="M173.41 87.3037C173.41 88.858 173.41 90.4124 173.41 91.9667C173.41 92.2591 173.871 92.2591 173.871 91.9667C173.871 90.4124 173.871 88.858 173.871 87.3037C173.871 86.9959 173.41 86.9959 173.41 87.3037Z" fill="#E8E8E8"/>
<path d="M183.567 87.5037C183.567 89.058 183.567 90.6124 183.567 92.1667C183.567 92.4591 184.028 92.4591 184.028 92.1667C184.028 90.6124 184.028 89.058 184.028 87.5037C184.028 87.2113 183.567 87.2113 183.567 87.5037Z" fill="#E8E8E8"/>
<path d="M33.2738 131.84C40.2606 131.84 47.2473 131.84 54.2341 131.84C54.5265 131.84 54.5265 131.379 54.2341 131.379C47.2473 131.379 40.2606 131.379 33.2738 131.379C32.966 131.379 32.966 131.84 33.2738 131.84Z" fill="#E8E8E8"/>
<path d="M1.09521 132.133C5.49656 132.133 9.89792 132.133 14.2993 132.133C14.5917 132.133 14.5917 131.671 14.2993 131.671C9.89792 131.671 5.49656 131.671 1.09521 131.671C0.787426 131.671 0.787426 132.133 1.09521 132.133Z" fill="#E8E8E8"/>
<path d="M28.8724 95.5986C35.8592 95.5986 42.846 95.5986 49.8327 95.5986C50.1251 95.5986 50.1251 95.137 49.8327 95.137C42.846 95.137 35.8592 95.137 28.8724 95.137C28.5647 95.137 28.5647 95.5986 28.8724 95.5986Z" fill="#E8E8E8"/>
<path d="M40.5841 95.7833C40.5841 97.3838 40.5841 98.9996 40.5841 100.6C40.5841 100.893 41.0458 100.893 41.0458 100.6C41.0458 98.9996 41.0458 97.3838 41.0458 95.7833C41.0458 95.4909 40.5841 95.4909 40.5841 95.7833Z" fill="#E8E8E8"/>
<path d="M36.6293 100.831C42.0772 100.831 47.525 100.831 52.9728 100.831C53.2652 100.831 53.2652 100.369 52.9728 100.369C47.525 100.369 42.0772 100.369 36.6293 100.369C36.3215 100.369 36.3215 100.831 36.6293 100.831Z" fill="#E8E8E8"/>
<path d="M48.9713 101.016C48.9713 102.755 48.9713 104.509 48.9713 106.248C48.9713 106.54 49.4329 106.54 49.4329 106.248C49.4329 104.509 49.4329 102.755 49.4329 101.016C49.4329 100.723 48.9713 100.723 48.9713 101.016Z" fill="#E8E8E8"/>
<path d="M162.037 133.487C167.962 133.487 173.872 133.487 179.796 133.487C180.089 133.487 180.089 133.026 179.796 133.026C173.872 133.026 167.962 133.026 162.037 133.026C161.729 133.026 161.729 133.487 162.037 133.487Z" fill="#E8E8E8"/>
<path d="M200.049 131.81C206.343 131.81 212.622 131.81 218.916 131.81C219.209 131.81 219.209 131.348 218.916 131.348C212.622 131.348 206.343 131.348 200.049 131.348C199.757 131.348 199.757 131.81 200.049 131.81Z" fill="#E8E8E8"/>
<path d="M139.6 88.027C139.6 90.9817 139.6 93.9519 139.6 96.9066C139.6 97.199 140.061 97.199 140.061 96.9066C140.061 93.9519 140.061 90.9817 140.061 88.027C140.061 87.7192 139.6 87.7192 139.6 88.027Z" fill="#E8E8E8"/>
<path d="M140.107 92.413C142.877 92.413 145.663 92.413 148.433 92.413C148.725 92.413 148.725 91.9513 148.433 91.9513C145.663 91.9513 142.877 91.9513 140.107 91.9513C139.815 91.9513 139.815 92.413 140.107 92.413Z" fill="#E8E8E8"/>
<path d="M147.925 89.1351C147.925 91.9052 147.925 94.6907 147.925 97.4608C147.925 97.7532 148.387 97.7532 148.387 97.4608C148.387 94.6907 148.387 91.9052 148.387 89.1351C148.387 88.8274 147.925 88.8274 147.925 89.1351Z" fill="#E8E8E8"/>
<path d="M142.615 98.2456C146.955 98.2456 151.31 98.2456 155.65 98.2456C155.942 98.2456 155.942 97.7839 155.65 97.7839C151.31 97.7839 146.955 97.7839 142.615 97.7839C142.307 97.7839 142.307 98.2456 142.615 98.2456Z" fill="#E8E8E8"/>
<path d="M151.541 98.8457C151.541 100.969 151.541 103.093 151.541 105.232C151.541 105.525 152.003 105.525 152.003 105.232C152.003 103.109 152.003 100.985 152.003 98.8457C152.003 98.5379 151.541 98.5379 151.541 98.8457Z" fill="#E8E8E8"/>
<path d="M116.423 11.9422C116.423 16.7591 116.423 21.5759 116.423 26.3928C116.423 26.6852 116.884 26.6852 116.884 26.3928C116.884 21.5759 116.884 16.7591 116.884 11.9422C116.884 11.6498 116.423 11.6498 116.423 11.9422Z" fill="#E8E8E8"/>
<path d="M116.9 11.9114C124.472 11.9114 132.043 11.9114 139.599 11.9114C139.892 11.9114 139.892 11.4497 139.599 11.4497C132.028 11.4497 124.456 11.4497 116.9 11.4497C116.608 11.4497 116.608 11.9114 116.9 11.9114Z" fill="#E8E8E8"/>
<path d="M139.399 11.8652C139.399 16.6359 139.399 21.4066 139.399 26.1619C139.399 26.4543 139.86 26.4543 139.86 26.1619C139.86 21.3912 139.86 16.6205 139.86 11.8652C139.86 11.5728 139.399 11.5728 139.399 11.8652Z" fill="#E8E8E8"/>
<path d="M116.854 26.7775C124.503 26.7775 132.167 26.7775 139.815 26.7775C140.108 26.7775 140.108 26.3158 139.815 26.3158C132.167 26.3158 124.503 26.3158 116.854 26.3158C116.562 26.3158 116.562 26.7775 116.854 26.7775Z" fill="#E8E8E8"/>
<path d="M126.718 11.4342C126.641 11.0187 126.626 10.6032 126.703 10.1877C126.78 9.81836 126.964 9.07968 127.395 9.54136C127.611 9.7722 127.626 10.28 127.688 10.5724C127.765 10.9572 127.842 11.3573 127.919 11.742C127.98 12.0344 128.426 11.9113 128.365 11.6189C128.226 10.9418 128.165 10.1877 127.903 9.54136C127.765 9.20279 127.503 8.80267 127.088 8.81806C126.626 8.83345 126.441 9.32591 126.333 9.71064C126.149 10.3108 126.149 10.9264 126.272 11.5266C126.318 11.8498 126.764 11.7266 126.718 11.4342Z" fill="#E8E8E8"/>
<path d="M117.762 13.6043C117.762 17.3439 117.762 21.0835 117.762 24.8231C117.762 25.1155 118.223 25.1155 118.223 24.8231C118.223 21.0835 118.223 17.3439 118.223 13.6043C118.223 13.2965 117.762 13.2965 117.762 13.6043Z" fill="#E8E8E8"/>
<path d="M118.116 13.5734C124.764 13.5734 131.412 13.5734 138.045 13.5734C138.338 13.5734 138.338 13.1117 138.045 13.1117C131.397 13.1117 124.749 13.1117 118.116 13.1117C117.824 13.1117 117.824 13.5734 118.116 13.5734Z" fill="#E8E8E8"/>
<path d="M138.075 13.2194C138.075 17.2053 138.075 21.1911 138.075 25.1769C138.075 25.4693 138.537 25.4693 138.537 25.1769C138.537 21.1911 138.537 17.2053 138.537 13.2194C138.537 12.927 138.075 12.927 138.075 13.2194Z" fill="#E8E8E8"/>
<path d="M118.362 25.1616C124.964 25.1616 131.566 25.1616 138.168 25.1616C138.46 25.1616 138.46 24.7 138.168 24.7C131.566 24.7 124.964 24.7 118.362 24.7C118.069 24.7 118.069 25.1616 118.362 25.1616Z" fill="#E8E8E8"/>
<path d="M118.101 21.145C121.117 20.3293 124.133 19.6214 127.227 20.4986C129.781 21.2373 132.121 22.607 134.768 23.0533C135.06 23.0994 135.183 22.6531 134.891 22.607C132.074 22.1299 129.612 20.6064 126.857 19.9292C123.856 19.1905 120.886 19.9138 117.993 20.6987C117.685 20.7756 117.808 21.2219 118.101 21.145Z" fill="#E8E8E8"/>
<path d="M128.688 21.1141C131.536 20.791 134.367 19.6675 137.245 20.2677C137.537 20.3293 137.66 19.883 137.368 19.8214C134.429 19.2059 131.582 20.3139 128.688 20.6371C128.396 20.6832 128.396 21.1603 128.688 21.1141Z" fill="#E8E8E8"/>
<path d="M129.18 17.8363C128.826 17.4977 128.796 16.8976 129.165 16.559C129.565 16.1743 130.288 16.282 130.596 16.7283C130.919 17.1746 130.842 17.8517 130.427 18.2056C129.919 18.6365 129.242 18.298 128.888 17.8517C128.719 17.6209 128.303 17.8517 128.488 18.0825C128.98 18.7443 129.888 19.1752 130.627 18.6365C131.319 18.1287 131.427 17.0668 130.904 16.4051C130.442 15.8203 129.488 15.6972 128.903 16.1743C128.288 16.6667 128.272 17.6516 128.842 18.1903C129.073 18.3595 129.396 18.0364 129.18 17.8363Z" fill="#E8E8E8"/>
<path d="M147.51 120.514C148.002 119.498 148.818 118.252 150.142 117.882C152.173 117.313 153.62 119.344 156.651 120.822C162.13 123.499 166.901 121.499 167.347 122.992C167.701 124.177 164.854 126.1 163.007 127.024C159.298 128.87 152.296 130.363 149.064 126.408C148.587 125.823 147.264 123.992 147.51 120.514Z" fill="#161616" stroke="#161616" stroke-width="0.46168"/>
<path d="M143.324 122.515C142.663 121.884 142.37 121.083 142.247 120.499C143.401 116.636 145.802 113.696 148.603 113.373C150.404 113.173 152.173 114.066 153.558 114.774C155.821 115.913 155.867 116.667 158.052 118.021C161.73 120.314 164.346 119.898 164.562 121.114C164.762 122.253 162.7 123.823 160.684 124.531C156.636 125.946 155.359 123.007 149.065 123.284C146.833 123.392 144.756 123.869 143.324 122.515Z" fill="#161616" stroke="#161616" stroke-width="0.46168"/>
<path d="M115.561 97.3992C115.869 99.3074 116.346 102.401 116.838 106.217C118.716 120.56 117.962 122.653 120.209 125.639C125.395 132.533 136.952 131.363 137.86 131.256C144.447 130.502 148.91 127.039 150.695 125.485C149.679 123.715 148.664 121.961 147.648 120.191C142.569 120.237 137.491 120.299 132.397 120.345C133.49 116.405 134.767 109.788 133.674 101.739C132.843 95.5832 130.935 90.7202 129.335 87.4576C125.149 87.7654 120.316 88.4579 115.053 89.8584C112.514 90.5355 110.159 91.305 107.99 92.1052C107.882 95.0138 107.743 99.1535 107.666 104.14C107.405 123.007 108.482 126.885 111.191 128.855C112.514 129.809 114.822 129.886 119.378 129.978C127.303 130.148 134.013 128.07 141.846 125.639C143.616 125.085 145.047 124.608 145.924 124.315C145.478 120.791 145.016 117.282 144.57 113.758C141.446 114.604 138.183 115.405 134.798 116.174C131.551 116.897 128.396 117.544 125.333 118.098" fill="#5222D0"/>
<path d="M113.883 99.8306C115.484 100.431 115.761 102.447 115.915 103.924C116.13 105.909 116.253 107.895 116.377 109.895C116.623 113.789 116.884 117.698 117.854 121.483C117.931 121.776 118.377 121.653 118.3 121.36C117.192 117.036 117.023 112.573 116.73 108.156C116.607 106.263 116.561 104.309 116.161 102.447C115.884 101.154 115.315 99.8922 114.007 99.3997C113.73 99.292 113.606 99.7383 113.883 99.8306Z" fill="#281472"/>
<path d="M121.194 126.454C122.379 127.485 123.533 128.686 124.856 129.563C126.134 130.409 127.673 130.717 129.166 130.994C129.458 131.056 129.581 130.609 129.289 130.548C127.842 130.271 126.349 129.994 125.087 129.163C123.81 128.316 122.687 127.147 121.517 126.131C121.302 125.931 120.963 126.27 121.194 126.454Z" fill="#281472"/>
<path d="M132.658 118.76C134.336 118.79 135.967 119.098 137.537 119.668C137.814 119.775 137.937 119.329 137.66 119.221C136.044 118.636 134.367 118.329 132.658 118.298C132.351 118.282 132.351 118.744 132.658 118.76Z" fill="#281472"/>
<path opacity="0.58" d="M107.882 102.647C107.974 101.216 108.959 99.9384 110.283 99.3536C111.668 98.7534 113.391 99.1535 114.453 99.9999C116.3 101.447 116.146 104.17 116.223 107.464C116.362 113.481 116.531 120.699 120.07 125.515C120.886 126.623 122.363 128.27 125.041 129.686C123.656 130.348 121.178 131.302 118.054 131.133C116.7 131.056 113.053 130.825 110.437 128.162C109.159 126.87 108.051 124.9 107.713 115.405C107.605 112.158 107.574 107.802 107.882 102.647Z" fill="#474747"/>
<path opacity="0.59" d="M133.059 116.682C136.891 115.697 140.723 114.712 144.555 113.727C144.786 115.851 145.001 117.99 145.232 120.114C143.493 119.637 141.523 119.191 139.384 118.837C136.907 118.436 134.629 118.236 132.598 118.159C132.752 117.667 132.905 117.175 133.059 116.682Z" fill="#474747"/>
<path d="M108.944 53.9859C108.897 52.9086 109.021 51.7236 109.729 51.3235C112.268 49.9077 121.548 59.0336 126.103 69.1444C127.888 73.1148 130.073 79.7476 129.596 88.8427C122.548 90.1354 115.515 91.4435 108.467 92.7362C107.266 90.7202 105.235 87.6577 102.111 84.426C98.9867 81.1942 97.8018 80.948 96.4629 78.5934C93.6005 73.5457 95.1394 67.8055 95.5241 66.3589C96.032 64.4814 97.14 60.4494 100.987 57.3254C104.081 54.8015 107.405 54.1705 108.944 53.9859Z" fill="white" stroke="#161616" stroke-width="0.46168"/>
<path opacity="0.36" d="M108.682 56.4482C110.514 57.7101 116.9 62.4039 119.485 71.3759C122.302 81.1943 118.562 89.2121 117.639 91.0435C121.671 90.3663 125.718 89.7046 129.75 89.0275C129.996 85.1186 129.904 78.2241 126.857 70.4217C123.04 60.6649 116.638 54.8323 113.468 52.2931C111.868 53.6781 110.283 55.0632 108.682 56.4482Z" fill="#828181"/>
<path opacity="0.4" d="M124.841 67.036C125.102 68.5288 125.41 70.7141 125.533 73.3918C125.749 78.1163 125.918 81.4866 124.256 84.9338C123.61 86.2881 122.178 88.6888 119.07 90.8741C122.594 90.2278 126.103 89.5968 129.627 88.9504C129.796 85.7341 129.658 81.2404 128.349 76.1157C127.38 72.4377 126.072 69.3752 124.841 67.036Z" fill="#828181"/>
<path d="M79.043 52.7085C80.1202 54.2782 81.0898 55.5709 81.8746 56.5559C83.7983 59.0028 84.537 59.6337 85.5681 59.8492C86.4452 60.0339 87.2763 59.88 87.7687 59.7722C89.1384 59.4952 89.6924 58.9412 90.6004 58.5103C91.8007 57.9563 92.2778 58.2333 96.1713 58.2795C98.9876 58.3102 98.6798 58.1564 101.204 58.2025C103.42 58.2487 105.251 58.3872 106.544 58.5103C106.174 58.2179 105.805 57.9409 105.451 57.6485C104.943 57.51 103.466 57.0483 102.312 55.6017C101.358 54.4014 101.127 53.1702 101.05 52.6162C101.373 52.5239 101.942 52.293 102.312 51.7544C103.081 50.6156 102.281 49.0613 102.004 48.538C101.665 47.8917 101.05 46.7221 100.203 46.8144C99.5724 46.876 98.9722 47.6147 98.7875 48.615C97.3409 49.0766 95.1556 49.5075 92.8934 48.7689C88.6305 47.3684 87.7533 42.9363 85.4295 42.8747C83.9214 42.8593 81.7823 44.6137 79.043 52.7085Z" fill="white"/>
<path d="M78.6273 52.0006C79.843 54.7861 81.6898 57.2484 84.0135 59.2028C84.2444 59.3875 84.5676 59.0643 84.3367 58.8796C82.0283 56.9406 80.2278 54.5244 79.012 51.7697C78.9043 51.5081 78.5042 51.739 78.6273 52.0006Z" fill="#161616"/>
<path d="M86.0138 55.3246C86.1523 56.1095 86.3216 56.879 86.5217 57.6484C86.7063 58.3102 86.8448 59.1104 87.1834 59.7106C87.6605 60.557 89.184 59.5105 89.6765 59.1258C89.9073 58.9411 89.5841 58.618 89.3533 58.8026C89.0147 59.0642 88.3376 59.5875 87.8759 59.5259C87.3681 59.4644 87.245 58.4641 87.1219 58.0793C86.8448 57.1406 86.6294 56.1864 86.4601 55.2169C86.3986 54.9091 85.9523 55.0322 86.0138 55.3246Z" fill="#161616"/>
<path d="M83.9064 55.417C83.3216 54.9246 82.5676 54.2936 82.8446 53.4318C82.7214 53.4626 82.5829 53.4934 82.4598 53.5395C83.06 54.1243 83.5217 54.8168 83.8141 55.6017C83.8603 55.5094 83.9218 55.417 83.968 55.3247C83.8756 55.2477 83.7679 55.1708 83.6756 55.1092C83.5986 54.8168 83.1523 54.94 83.2293 55.2324C83.337 55.6479 83.6756 55.8325 84.0911 55.771C84.2142 55.7556 84.2912 55.5863 84.245 55.494C83.9218 54.6322 83.4294 53.8781 82.7676 53.2317C82.6445 53.1086 82.429 53.1702 82.3829 53.3395C82.0597 54.3706 82.8292 55.1708 83.5679 55.771C83.7987 55.9249 84.1373 55.6017 83.9064 55.417Z" fill="#161616"/>
<path d="M82.4597 53.7088C82.829 54.2782 83.1983 54.8477 83.5677 55.4171C83.7216 55.6633 84.1217 55.4324 83.9678 55.1862C83.5985 54.6168 83.2291 54.0474 82.8598 53.478C82.7059 53.2164 82.3058 53.4472 82.4597 53.7088Z" fill="#161616"/>
<path d="M89.4157 53.0625C89.1387 52.7393 88.8463 52.37 88.7078 51.9545C88.6617 51.8314 88.6463 51.6929 88.6463 51.5697C88.6771 51.3697 88.7232 51.3543 88.8156 51.5082C88.9694 51.5697 89.108 51.8621 89.2003 52.0006C89.4157 52.3238 89.6158 52.6778 89.7235 53.0317C89.7851 53.2318 89.862 53.2626 89.6466 53.1702C89.4465 53.0779 89.2618 52.8624 89.1233 52.7086C88.9233 52.4777 88.6001 52.8163 88.8002 53.0317C89.0464 53.3087 89.8466 54.1244 90.1698 53.4934C90.4622 52.924 89.7389 51.9237 89.4157 51.5082C89.1387 51.1542 88.477 50.4463 88.2154 51.2312C87.9538 52.016 88.6155 52.8317 89.0772 53.3703C89.2772 53.6165 89.6004 53.2933 89.4157 53.0625Z" fill="#161616"/>
<path d="M88.4001 51.5851C88.7541 52.1545 89.108 52.7239 89.462 53.2933C89.6159 53.5396 90.016 53.3087 89.8621 53.0625C89.539 52.5393 89.2619 52.016 89.0003 51.462C88.8772 51.5544 88.7541 51.6467 88.631 51.739C88.9849 52.0776 89.2466 52.4777 89.4158 52.9394C89.5236 53.2164 89.9699 53.0933 89.8621 52.8163C89.6621 52.2777 89.3697 51.816 88.9542 51.4158C88.7541 51.2312 88.4771 51.462 88.5848 51.6929C88.8464 52.2469 89.1234 52.7855 89.4466 53.2933C89.5851 53.2164 89.7082 53.1395 89.8467 53.0625C89.4928 52.4931 89.1388 51.9237 88.7849 51.3543C88.6464 51.1081 88.2462 51.3389 88.4001 51.5851Z" fill="#161616"/>
<path d="M100.726 54.032C101.204 55.2939 101.157 56.6174 100.542 57.8178C100.403 58.0794 100.803 58.3102 100.942 58.0486C101.604 56.7405 101.696 55.2785 101.173 53.9089C101.065 53.6473 100.619 53.755 100.726 54.032Z" fill="#161616"/>
<path d="M76.7806 42.767C76.5344 43.1056 74.3029 46.2296 75.4879 50.1539C76.6575 54.032 80.1509 55.417 80.551 55.5709C80.3817 54.6168 80.1047 52.2622 81.2435 49.646C82.5978 46.4912 85.0908 45.0138 85.8911 44.5829C86.3989 45.3216 88.3226 47.9378 91.9853 48.9689C95.2632 49.8769 97.9717 48.9689 98.8643 48.6303C99.0336 48.3533 99.6799 47.3992 100.496 47.43C101.665 47.4761 102.819 49.5999 102.127 51.0465C101.696 51.9544 100.68 52.2622 100.403 52.3392C100.573 53.0009 100.926 54.0012 101.696 55.0015C102.989 56.7097 104.681 57.3715 105.651 57.7562C106.605 58.1256 114.408 61.0957 119.055 56.2019C121.564 53.5703 122.764 49.0612 121.117 45.968C119.778 43.4749 117.424 43.4595 111.068 40.6433C103.45 37.2576 104.497 36.2265 99.9877 34.7953C97.6332 34.0412 88.9689 31.2865 82.1976 35.9957C79.1044 38.1348 77.5347 41.028 76.7806 42.767Z" fill="#EC615B"/>
<path d="M73.4245 68.8981C73.3629 68.0055 73.3322 65.4355 75.0096 63.0809C77.5796 59.4798 82.0118 59.4028 82.7658 59.3874C84.1047 59.3567 85.8745 59.5875 89.968 61.8344C92.6304 63.2963 96.2777 65.5894 100.171 69.1751C101.156 69.2366 102.787 69.4521 104.465 70.4216C106.25 71.4373 109.559 74.115 108.851 76.9929C108.451 78.6241 106.804 80.2092 105.234 80.1323C102.71 80.0092 101.079 75.6694 100.556 75.931C100.14 76.1311 101.402 78.7165 100.848 79.0704C100.34 79.3936 98.3398 77.8393 97.4165 75.7309C96.6624 74.0381 96.7855 72.4376 96.9394 71.5296C93.246 69.7906 87.1518 67.6054 79.611 67.9901C77.3026 68.1286 75.2404 68.4672 73.4245 68.8981Z" fill="white" stroke="#161616" stroke-width="0.46168"/>
<path opacity="0.34" d="M73.455 68.5903C74.009 65.6048 75.3171 64.2351 76.0712 63.6349C80.7957 59.8184 89.7523 64.4198 92.4147 65.7741C95.5541 67.3746 97.9087 69.329 99.0475 70.3293C101.325 72.3453 100.756 72.4684 103.864 75.4232C106.003 77.4546 107.527 78.6088 107.219 79.4398C106.958 80.1169 105.665 80.1785 105.542 80.1785C102.541 80.2862 100.479 75.6386 100.386 75.4232C101.125 78.1163 100.987 78.932 100.648 79.1012C100.002 79.4398 98.0934 77.6546 97.2931 75.5463C96.6621 73.8843 96.8468 72.3299 97.0315 71.4527C94.7385 70.4216 91.8299 69.3906 88.3981 68.7134C82.2269 67.5131 76.9638 67.9747 73.455 68.5903Z" fill="#828181"/>
<path d="M60.7746 70.16C60.2821 72.7916 59.6665 78.3472 62.175 84.4106C66.8841 95.8141 78.5646 99.1689 80.1344 99.5845C80.1805 101.385 80.2421 103.201 80.2883 105.002C77.4258 106.356 73.1938 108.726 68.9771 112.742C65.853 115.728 60.4052 121.053 58.2969 129.778C57.0042 135.118 57.3889 139.935 58.143 143.567C76.7333 143.875 95.3083 144.183 113.899 144.491C114.499 140.982 115.161 133.995 112.19 126.223C106.881 112.327 94.1848 106.925 91.7533 105.94C91.7071 103.509 91.6456 101.093 91.5994 98.6611C93.9848 98.1379 99.5095 96.5989 104.142 91.6897C111.867 83.518 110.698 72.8224 110.498 71.2527C93.9078 70.8833 77.3335 70.5294 60.7746 70.16Z" fill="white" stroke="#161616" stroke-width="0.46168"/>
<path d="M63.7452 87.2575C65.2688 88.0885 66.9001 88.7195 68.639 88.9657C69.901 89.135 71.1013 89.0273 72.3633 88.8888C73.9638 88.7041 75.5489 88.5656 77.134 88.2886C78.7498 88.0116 80.2888 87.5345 81.8893 87.1806C82.3202 87.0882 82.7203 87.0421 83.1512 87.1344C83.9976 87.3037 84.4901 87.8269 85.1364 88.3194C86.029 88.9965 87.1832 88.9503 88.1066 88.3963C88.599 88.0885 89.0453 87.7038 89.5378 87.4114C90.2611 86.9805 91.0613 86.7651 91.9077 86.7035C92.8157 86.6419 93.7391 86.7035 94.6317 86.8728C95.6935 87.0728 96.6323 87.5038 97.648 87.8269C99.6486 88.4733 100.264 86.3342 101.818 85.6109C103.681 84.7337 106.251 84.826 108.205 85.2415C108.497 85.3031 108.621 84.8568 108.328 84.7952C106.635 84.4259 104.973 84.4413 103.265 84.7337C102.542 84.8568 101.849 85.0261 101.218 85.4108C100.495 85.8571 100.079 86.5342 99.4639 87.0882C98.5713 87.8885 97.5402 87.2729 96.6015 86.919C95.7551 86.6112 94.8625 86.4111 93.9545 86.3034C92.4464 86.1187 90.8459 86.1803 89.4762 86.919C88.3528 87.5345 87.3833 88.7657 85.9674 88.2424C85.3519 88.0116 84.9671 87.4422 84.4131 87.119C83.9668 86.842 83.4282 86.6727 82.905 86.6266C81.9047 86.5496 80.8736 86.9805 79.904 87.2267C78.0727 87.6884 76.1952 87.9962 74.3023 88.1963C72.825 88.3502 71.3014 88.6272 69.8086 88.581C67.7465 88.5194 65.7766 87.8269 63.9915 86.842C63.7145 86.7035 63.4836 87.1036 63.7452 87.2575Z" fill="#161616"/>
<path d="M80.3653 103.155C80.6115 103.74 80.8577 104.355 81.2732 104.848C81.5348 105.171 81.935 105.417 82.1043 105.832C82.2735 106.263 82.2735 106.833 82.3351 107.294C82.5352 108.88 82.7506 110.465 83.4123 111.942C83.5355 112.219 83.9356 111.973 83.8125 111.711C83.0892 110.126 82.9507 108.403 82.7198 106.694C82.6429 106.14 82.6121 105.571 82.212 105.14C81.5964 104.463 81.1809 103.909 80.8115 103.032C80.7038 102.755 80.2575 102.878 80.3653 103.155Z" fill="#161616"/>
<path d="M90.4297 104.494C89.7526 103.97 89.2294 104.94 88.9831 105.463C88.7369 105.956 88.5522 106.463 88.4291 106.987C88.2906 107.587 88.3214 108.279 88.0444 108.833C87.7828 109.403 87.3519 109.88 87.1056 110.465C86.8748 110.988 86.7055 111.542 86.5516 112.096C86.1977 113.481 85.9976 114.912 85.7514 116.313C85.7052 116.605 86.1515 116.728 86.1977 116.436C86.567 114.327 86.7517 111.973 87.8135 110.08C88.0598 109.649 88.383 109.28 88.5522 108.818C88.6753 108.495 88.6907 108.156 88.7369 107.833C88.7831 107.495 89.6449 104.463 90.1066 104.817C90.322 105.001 90.6606 104.678 90.4297 104.494Z" fill="#161616"/>
<path d="M85.4902 122.622C85.3517 122.376 85.2132 122.084 85.2747 121.807C85.3671 121.376 85.8441 121.314 85.998 121.73C86.1827 122.222 85.8903 122.792 85.5518 123.115C85.6441 123.099 85.7364 123.084 85.8288 123.084C85.6441 122.945 85.4594 122.807 85.2901 122.684C85.0439 122.499 84.8285 122.915 85.0593 123.084C85.244 123.222 85.4286 123.361 85.5979 123.484C85.6749 123.546 85.8134 123.515 85.8749 123.453C86.4289 122.915 86.9368 121.468 85.9673 121.037C85.5825 120.868 85.1516 121.068 84.9362 121.422C84.6592 121.884 84.8438 122.438 85.0901 122.868C85.2286 123.115 85.6287 122.884 85.4902 122.622Z" fill="#161616"/>
<path d="M84.2746 127.916C84.1669 127.701 83.9976 127.408 84.0438 127.147C84.0746 126.993 84.2746 126.777 84.4285 126.916C84.5824 127.039 84.5978 127.408 84.5516 127.578C84.5055 127.732 84.2439 127.993 84.1053 127.793C83.9361 127.562 83.5359 127.793 83.7052 128.024C83.9515 128.378 84.4593 128.409 84.7825 128.101C85.1364 127.762 85.1057 127.085 84.844 126.7C84.5824 126.316 84.0746 126.377 83.7976 126.7C83.3974 127.131 83.6437 127.732 83.8745 128.178C84.013 128.409 84.4131 128.178 84.2746 127.916Z" fill="#161616"/>
<path d="M86.506 129.747C86.3059 129.594 86.506 129.086 86.783 129.24C86.9061 129.301 86.983 129.486 86.9522 129.624C86.9061 129.824 86.6445 129.794 86.5367 129.686C86.3213 129.47 85.9981 129.809 86.2136 130.009C86.5367 130.317 87.1369 130.317 87.3524 129.886C87.5217 129.532 87.3678 129.086 87.06 128.87C86.7214 128.639 86.2905 128.778 86.0904 129.132C85.8904 129.486 85.9519 129.917 86.2905 130.148C86.506 130.317 86.7368 129.917 86.506 129.747Z" fill="#161616"/>
<path d="M71.3781 143.829C72.6555 142.798 73.9328 141.767 75.2101 140.736C75.8257 140.243 76.4105 139.72 77.0722 139.289C77.7339 138.858 78.4572 138.658 79.1959 138.381C81.5043 137.488 83.5357 133.656 86.1827 136.057C87.0445 136.827 87.7524 137.504 88.8758 137.873C90.1531 138.289 91.4151 138.535 92.6308 139.135C94.97 140.289 96.8783 142.151 98.1556 144.414C98.2941 144.675 98.6942 144.444 98.5557 144.183C97.5708 142.413 96.2165 140.905 94.5545 139.735C93.7542 139.166 92.8771 138.689 91.9691 138.319C90.9226 137.889 89.83 137.719 88.7681 137.334C86.8598 136.642 85.8749 134.21 83.5511 134.918C82.6124 135.211 81.8583 135.842 81.135 136.488C80.7041 136.873 80.2732 137.258 79.7807 137.565C79.1498 137.965 78.4265 138.104 77.7493 138.396C76.6721 138.858 75.7795 139.674 74.8715 140.397C73.5942 141.428 72.3169 142.459 71.0396 143.49C70.8241 143.69 71.1473 144.013 71.3781 143.829Z" fill="#161616"/>
<path d="M91.3225 102.124C91.1532 103.37 90.9686 104.601 90.7993 105.848C90.6454 106.971 90.63 108.295 90.1222 109.341C90.2299 109.31 90.3376 109.28 90.4453 109.264C90.0144 108.972 90.3068 107.525 90.3068 107.094C90.3222 106.34 90.3376 105.602 90.353 104.848C90.353 104.555 89.8913 104.555 89.8913 104.848C89.8605 105.94 89.8451 107.033 89.8144 108.141C89.799 108.695 89.6913 109.31 90.1991 109.664C90.2914 109.726 90.4607 109.695 90.5223 109.587C91.0147 108.572 91.0609 107.387 91.2148 106.279C91.3995 104.94 91.5995 103.601 91.7842 102.262C91.7996 101.954 91.3533 101.831 91.3225 102.124Z" fill="#161616"/>
<path d="M80.1498 100.169C79.9036 101.477 80.0883 102.739 80.6731 103.924C80.8116 104.186 81.1963 103.955 81.0732 103.693C80.5499 102.616 80.3807 101.462 80.5961 100.292C80.6423 100 80.196 99.8769 80.1498 100.169Z" fill="#161616"/>
<path d="M71.6862 93.6441C74.4871 95.6909 77.9497 96.4757 80.8736 98.2763C81.1199 98.4302 81.3661 98.03 81.1045 97.8762C78.1651 96.0756 74.7025 95.2907 71.917 93.244C71.6708 93.0593 71.44 93.4594 71.6862 93.6441Z" fill="#161616"/>
<path d="M80.6575 96.0295C82.0426 96.8759 83.0121 98.1686 83.4276 99.7537C83.5046 100.046 83.9508 99.923 83.8739 99.6306C83.443 97.9377 82.3965 96.5373 80.9038 95.6293C80.6421 95.4754 80.4113 95.8756 80.6575 96.0295Z" fill="#161616"/>
<path d="M88.6451 101.847C89.3838 99.8153 90.3533 97.7685 92.1538 96.4758C92.4001 96.3065 92.1692 95.9064 91.923 96.0757C90.0147 97.4607 88.9836 99.5537 88.1988 101.724C88.1064 102.016 88.5527 102.124 88.6451 101.847Z" fill="#161616"/>
<path d="M74.7635 142.751C76.3332 141.028 78.3492 139.843 80.6114 139.289C80.9038 139.227 80.7807 138.781 80.4883 138.843C78.1491 139.397 76.0562 140.643 74.4403 142.413C74.2403 142.659 74.5634 142.982 74.7635 142.751Z" fill="#161616"/>
<path d="M78.3031 141.305C79.4111 140.812 80.5191 140.32 81.6272 139.828C81.9042 139.704 81.6579 139.304 81.3963 139.427C80.2883 139.92 79.1803 140.412 78.0722 140.905C77.8106 141.028 78.0414 141.428 78.3031 141.305Z" fill="#161616"/>
<path d="M87.491 135.565C88.8452 136.811 91.0305 136.38 92.2771 137.735C92.4771 137.95 92.8003 137.627 92.6002 137.411C91.3229 136.026 89.1684 136.473 87.8142 135.242C87.5987 135.026 87.2755 135.365 87.491 135.565Z" fill="#161616"/>
<path d="M58.1586 145.198C72.7015 145.198 87.2444 145.198 101.803 145.198C105.896 145.198 110.005 145.198 114.099 145.198C115.884 145.198 115.884 142.428 114.099 142.428C99.5559 142.428 85.013 142.428 70.4546 142.428C66.3611 142.428 62.2521 142.428 58.1586 142.428C56.3734 142.428 56.3734 145.198 58.1586 145.198Z" fill="#161616"/>
<path d="M60.3438 71.1142C73.4556 71.1142 86.5673 71.1142 99.679 71.1142C103.372 71.1142 107.05 71.1142 110.744 71.1142C112.529 71.1142 112.529 68.3441 110.744 68.3441C97.6322 68.3441 84.5205 68.3441 71.4088 68.3441C67.7153 68.3441 64.0373 68.3441 60.3438 68.3441C58.5587 68.3441 58.5587 71.1142 60.3438 71.1142Z" fill="#161616"/>
<path d="M56.5882 68.3441C55.511 68.3441 54.4337 68.3441 53.3565 68.3441C51.5713 68.3441 51.5713 71.1142 53.3565 71.1142C54.4337 71.1142 55.511 71.1142 56.5882 71.1142C58.3734 71.1142 58.3734 68.3441 56.5882 68.3441Z" fill="#161616"/>
<path d="M47.3091 70.8063C47.7246 70.8063 48.1401 70.8063 48.5556 70.8063C49.2789 70.8063 49.9715 70.1754 49.9407 69.4213C49.9099 68.6672 49.3251 68.0363 48.5556 68.0363C48.1401 68.0363 47.7246 68.0363 47.3091 68.0363C46.5858 68.0363 45.8933 68.6672 45.9241 69.4213C45.9548 70.16 46.5242 70.8063 47.3091 70.8063Z" fill="#161616"/>
<path d="M117.315 144.998C119.5 144.998 121.701 144.998 123.886 144.998C125.672 144.998 125.672 142.228 123.886 142.228C121.701 142.228 119.5 142.228 117.315 142.228C115.53 142.228 115.53 144.998 117.315 144.998Z" fill="#161616"/>
<path d="M128.596 145.306C128.981 145.306 129.365 145.306 129.75 145.306C130.473 145.306 131.166 144.675 131.135 143.921C131.104 143.167 130.52 142.536 129.75 142.536C129.365 142.536 128.981 142.536 128.596 142.536C127.873 142.536 127.18 143.167 127.211 143.921C127.242 144.675 127.811 145.306 128.596 145.306Z" fill="#161616"/>
<path d="M80.1343 99.6921C80.0266 100.754 79.9342 101.831 80.1497 102.878C80.3805 103.986 81.073 104.771 81.5809 105.756C82.1657 106.864 82.335 108.202 82.612 109.403C82.9044 110.68 83.1968 111.957 83.4892 113.235C83.6277 113.82 84.5048 113.573 84.3817 112.989C84.1047 111.757 83.8123 110.526 83.5353 109.295C83.2737 108.156 83.089 106.956 82.6581 105.879C82.2734 104.909 81.4885 104.124 81.1654 103.124C80.8114 102.016 80.9499 100.816 81.0576 99.6921C81.1192 99.1073 80.1958 99.1073 80.1343 99.6921Z" fill="#161616"/>
<path d="M78.0421 99.2304C78.8885 99.6305 79.7503 99.7536 80.6736 99.5997C81.2584 99.5074 81.0122 98.6148 80.4274 98.7072C79.7657 98.8149 79.1039 98.7225 78.5037 98.4301C77.9651 98.1685 77.5034 98.9688 78.0421 99.2304Z" fill="#161616"/>
<path d="M89.4456 104.54C88.7069 105.063 88.3375 105.817 88.1683 106.679C88.0452 107.264 88.0144 107.864 87.8451 108.449C87.6758 109.033 87.3988 109.572 87.1218 110.126C86.0907 112.204 85.0596 114.404 85.352 116.774C85.429 117.359 86.3523 117.359 86.2754 116.774C85.9984 114.543 86.9525 112.527 87.922 110.588C88.3375 109.757 88.7223 108.941 88.8762 108.033C89.0455 107.094 89.0608 105.94 89.9073 105.34C90.3997 104.986 89.938 104.186 89.4456 104.54Z" fill="#161616"/>
<path d="M80.4577 125.162C81.0579 125.162 81.0579 124.238 80.4577 124.238C79.8729 124.238 79.8729 125.162 80.4577 125.162Z" fill="#161616"/>
<path d="M78.7952 132.779C79.3954 132.779 79.3954 131.856 78.7952 131.856C78.195 131.856 78.195 132.779 78.7952 132.779Z" fill="#161616"/>
<path d="M83.5504 115.128C83.5965 115.435 83.6427 115.759 83.6889 116.066C83.7196 116.313 84.0428 116.451 84.2583 116.39C84.5199 116.313 84.6122 116.066 84.5815 115.82C84.5353 115.512 84.4891 115.189 84.4429 114.881C84.4122 114.635 84.089 114.497 83.8735 114.558C83.6119 114.635 83.5196 114.881 83.5504 115.128Z" fill="#161616"/>
<path d="M85.9521 119.067C85.9521 119.098 85.9521 119.144 85.9521 119.175C85.9521 119.421 86.1675 119.652 86.4138 119.637C86.66 119.621 86.8755 119.437 86.8755 119.175C86.8755 119.144 86.8755 119.098 86.8755 119.067C86.8755 118.821 86.66 118.59 86.4138 118.606C86.1675 118.621 85.9521 118.806 85.9521 119.067Z" fill="#161616"/>
<path d="M98.6476 88.1193C100.125 87.5653 101.295 86.488 102.71 85.8263C104.449 85.026 106.281 85.9956 108.004 85.3338C108.558 85.1184 108.312 84.2258 107.758 84.4412C106.819 84.7952 105.865 84.5951 104.88 84.5336C104.065 84.472 103.295 84.5798 102.541 84.8875C101.064 85.4877 99.8787 86.6573 98.3859 87.2267C97.8627 87.4422 98.0936 88.3348 98.6476 88.1193Z" fill="#161616"/>
<path d="M101.464 115.374C100.063 115.974 101.248 117.451 101.895 118.098C103.218 119.421 104.403 120.883 105.434 122.438C107.45 125.469 108.85 128.87 109.605 132.425C109.666 132.718 110.112 132.595 110.051 132.302C109.405 129.286 108.296 126.377 106.758 123.699C106.019 122.407 105.172 121.176 104.234 120.021C103.757 119.437 103.264 118.867 102.741 118.313C102.279 117.836 100.433 116.313 101.694 115.774C101.971 115.651 101.725 115.251 101.464 115.374Z" fill="#161616"/>
<path d="M103.173 116.559C107.836 120.437 109.728 126.362 111.437 131.964C111.529 132.241 111.975 132.133 111.883 131.84C110.144 126.162 108.22 120.16 103.496 116.22C103.265 116.036 102.942 116.359 103.173 116.559Z" fill="#161616"/>
<path d="M109.805 133.964C110.097 134.38 110.451 134.872 111.005 134.918C111.436 134.949 111.898 134.703 111.959 134.241C112.005 133.949 111.559 133.826 111.513 134.118C111.467 134.41 111.159 134.518 110.897 134.426C110.589 134.318 110.374 133.995 110.205 133.733C110.035 133.487 109.635 133.718 109.805 133.964Z" fill="#161616"/>
<path d="M110.713 140.459C111.405 140.766 112.267 140.551 112.636 139.858C112.99 139.197 112.713 138.289 112.067 137.919C111.405 137.55 110.497 137.812 110.113 138.458C109.728 139.135 110.005 139.997 110.62 140.412C110.867 140.582 111.098 140.182 110.851 140.012C110.436 139.735 110.251 139.135 110.513 138.689C110.759 138.258 111.39 138.073 111.836 138.319C112.283 138.55 112.467 139.181 112.236 139.628C112.006 140.089 111.39 140.258 110.944 140.058C110.682 139.935 110.436 140.335 110.713 140.459Z" fill="#161616"/>
<path d="M63.5757 73.4687C63.7296 80.594 66.6998 87.5038 71.7782 92.4899C71.9937 92.7054 72.3169 92.3668 72.1014 92.1667C67.0999 87.2575 64.1759 80.4708 64.0374 73.4687C64.022 73.1763 63.5603 73.1763 63.5757 73.4687Z" fill="#161616"/>
<path d="M64.0681 73.2687C63.668 72.8685 63.0986 72.8839 62.6677 73.2379C62.0983 73.7149 62.1599 74.5768 62.2214 75.2539C62.3753 77.2699 62.7754 79.2551 63.3756 81.1788C64.576 84.9953 66.592 88.5349 69.2544 91.505C69.4544 91.7205 69.7776 91.3973 69.5775 91.1819C67.4076 88.7657 65.684 85.9956 64.499 82.9793C63.9296 81.5635 63.4987 80.0861 63.1756 78.5934C63.0063 77.7777 62.8678 76.9621 62.7754 76.1465C62.7293 75.7617 62.6831 75.3924 62.6677 75.0077C62.6523 74.8384 62.6369 74.6691 62.6523 74.5152C62.6677 74.1458 63.0678 72.9147 63.745 73.6072C63.9604 73.8073 64.2836 73.4687 64.0681 73.2687Z" fill="#161616"/>
<path opacity="0.25" d="M110.821 71.3603C110.836 71.8528 97.5705 72.653 71.0393 73.7918C70.5776 75.8848 70.2698 78.7472 71.0393 81.9174C73.5016 92.1513 84.6127 96.091 85.7207 96.4603C85.8592 100.4 86.0131 104.355 86.1516 108.295C84.9666 108.741 83.4123 109.418 81.7041 110.449C80.6114 111.111 78.0106 112.804 75.5945 115.558C74.2249 117.128 69.8235 122.176 69.4696 129.824C69.2541 134.364 70.5622 138.027 71.6087 140.228C84.1048 140.936 96.6164 141.659 109.112 142.367C92.0919 142.505 75.0867 142.659 58.066 142.798C57.5274 139.366 57.0196 132.795 59.7743 125.408C60.2821 124.069 64.4988 113.265 75.7484 107.156C77.5336 106.186 79.0879 105.555 80.1651 105.155C80.119 103.247 80.0728 101.354 80.0266 99.4458C78.4723 99.0457 76.1639 98.307 73.6093 96.8758C72.1165 96.0448 62.2058 90.2892 60.3437 79.055C60.0513 77.2698 59.805 74.4536 60.4822 70.9294C94.0309 70.6678 110.805 70.8063 110.821 71.3603Z" fill="#474747"/>
<path opacity="0.3" d="M88.4451 70.9756C80.4581 72.099 72.471 73.2224 64.4839 74.3305C64.6994 76.9928 65.5304 82.4868 69.3008 88.0578C73.9638 94.9368 80.2888 97.7684 82.7357 98.7226C82.8742 101.647 83.0281 104.571 83.1666 107.494C77.9496 108.51 74.5178 110.634 72.6403 112.019C71.3937 112.942 60.1287 121.191 61.3907 133.056C61.6061 135.103 62.3448 138.612 65.1764 142.49C62.7449 142.521 60.3288 142.551 57.8973 142.567C57.4048 138.796 56.9585 131.025 60.9905 123.007C64.0684 116.913 68.4698 113.173 71.0244 111.049C74.4562 108.202 77.7342 106.356 80.1349 105.201C80.2118 103.309 80.3042 101.416 80.3811 99.5228C77.3186 98.8765 71.2091 97.1067 66.4999 91.6589C66.1614 91.2741 64.9918 89.8891 63.8222 87.8115C60.4058 81.7481 60.1749 75.4077 60.4981 71.268C69.8394 71.1603 79.15 71.0679 88.4451 70.9756Z" fill="#474747"/>
<path d="M79.7803 64.3736C74.9634 67.8824 71.2546 72.2068 71.6086 72.6377C71.7778 72.8531 72.7166 72.5761 76.1946 70.3447C75.5944 70.6986 74.1786 71.6066 73.4399 73.3764C73.2244 73.8996 72.5165 75.3616 73.1629 76.3157C73.8554 77.316 75.6867 77.2237 76.8717 76.8236C79.1647 76.0541 80.2574 73.6688 80.3805 73.7611C80.5652 73.8842 78.0105 77.5315 78.3799 77.8239C78.7646 78.147 82.7658 74.746 85.8283 69.9753C86.7671 68.5133 87.4134 67.236 87.8443 66.2973C90.5682 66.3588 93.9385 66.5897 97.7551 67.2206C104.649 68.344 107.281 69.8214 111.975 69.0519C114.853 68.5903 119.516 67.1129 119.685 64.9276C119.9 62.2191 113.16 59.726 111.698 59.1874C100.587 55.0784 90.1681 58.8796 88.4753 59.5259C84.2586 61.1418 81.35 63.2348 79.7803 64.3736Z" fill="white" stroke="#161616" stroke-width="0.46168"/>
<path d="M72.7777 76.0695C72.8547 76.2234 72.9009 76.2542 73.0394 76.3466C73.1163 76.4081 73.2548 76.3773 73.3164 76.3158C74.8399 74.4998 76.1634 72.3915 78.3333 71.2681C78.5949 71.1296 78.3641 70.7294 78.1025 70.8679C75.8864 72.0068 74.5475 74.1305 72.9932 75.9926C73.0855 75.9772 73.1779 75.9618 73.2702 75.9618C73.2394 75.9157 73.2086 75.8849 73.1779 75.8387C73.0394 75.5771 72.6392 75.8079 72.7777 76.0695Z" fill="#161616"/>
<path d="M74.2246 77.2544C75.1634 77.4699 76.0252 76.1926 76.5792 75.5924C77.4872 74.6075 78.349 73.6226 79.5339 72.9454C79.7956 72.7915 79.5647 72.4068 79.3031 72.5453C78.4105 73.0532 77.6872 73.7303 76.9947 74.469C76.6408 74.8537 76.3022 75.2384 75.9328 75.6232C75.5943 75.9925 74.8864 76.9313 74.3477 76.8082C74.0553 76.7466 73.9322 77.1929 74.2246 77.2544Z" fill="#161616"/>
<path opacity="0.33" d="M72.8392 74.3612C76.5327 71.7604 77.4253 71.1602 77.4407 71.191C77.4714 71.2218 75.9941 72.1144 74.7167 73.8226C74.0704 74.6998 73.6549 75.5308 73.3933 76.1464C73.4394 76.2387 73.5779 76.485 73.8549 76.6388C74.2089 76.8389 74.5321 76.7927 74.6398 76.7773C74.7321 76.7312 74.8706 76.6542 75.0245 76.5465C75.5632 76.1926 75.8863 75.777 76.0094 75.6385C76.071 75.5616 77.0405 74.3458 77.4868 73.8688C77.8869 73.4379 78.5641 72.8838 79.6721 72.4837C78.7641 73.8688 77.8408 75.2692 76.9328 76.6542C77.8716 76.1926 78.4871 75.6693 78.8719 75.2692C79.2566 74.8845 79.3797 74.6536 80.0722 73.7918C80.7186 72.9916 81.1957 72.4837 81.3803 72.2683C82.9962 70.4216 85.4123 66.0202 86.9513 64.5428C90.2446 61.3572 95.5539 63.958 106.034 64.035C111.328 64.0811 115.714 63.4194 118.73 62.8192C118.992 63.0039 119.484 63.4194 119.669 64.0965C119.669 64.0965 119.9 64.9429 119.315 66.0048C118.669 67.2052 115.437 69.3597 108.558 69.175C102.941 69.0211 101.233 67.4822 93.7072 66.6358C91.1833 66.3588 89.1058 66.2818 87.7823 66.251C86.5358 69.2058 85.1045 71.3757 83.9811 72.8377C81.5034 76.0848 78.7026 78.3471 78.2871 78.0393C78.2563 78.0239 78.1793 77.9469 78.1332 77.8084C78.0254 77.5006 78.2563 77.1467 78.3794 76.962C78.6102 76.5927 78.9026 76.1002 79.272 75.3923C79.0258 75.7001 78.6256 76.1156 78.0408 76.4696C76.4557 77.4391 73.8703 77.7469 72.9931 76.485C72.87 76.3311 72.4699 75.6847 72.8392 74.3612Z" fill="#828181"/>
<path opacity="0.51" d="M89.9369 66.2357C89.9523 66.0972 93.4764 66.1895 97.3699 66.3896C107.481 66.9128 110.128 67.6515 114.037 66.2357C116.499 65.3431 118.253 64.035 119.207 63.2347C119.5 63.8041 119.808 64.6506 119.577 65.497C119.007 67.5591 115.699 68.2363 113.56 68.6672C112.375 68.9134 110.359 69.2058 107.173 68.9288C104.341 68.698 103.218 68.2363 100.217 67.6053C94.2151 66.3588 89.9215 66.3742 89.9369 66.2357Z" fill="#828181"/>
</svg>
