<svg width="18" height="26" viewBox="0 0 18 26" fill="none" xmlns="http://www.w3.org/2000/svg">
<path fill-rule="evenodd" clip-rule="evenodd" d="M13.2122 0.961481C11.4651 2.10358 9.76862 3.97497 9.36844 5.2011C9.10457 6.01013 9.01553 6.07227 8.299 5.94875C7.86923 5.87479 6.67817 5.74423 5.65224 5.6592C4.01226 5.52285 3.65163 5.57442 2.66774 6.08535C0.975033 6.96432 0.584562 7.96429 0.191354 12.4278C-0.354561 18.6238 0.208516 21.1999 2.64859 23.668C4.38707 25.4264 5.90195 26.0045 8.7611 26C11.3091 25.9959 12.8974 25.3341 14.4898 23.6121C16.522 21.4145 17.3119 18.9665 17.8477 13.2072C18.2018 9.39695 18.0126 8.59345 16.4827 7.41311C15.703 6.81162 15.1989 6.67049 12.9939 6.43654C11.5765 6.28635 10.3416 6.08686 10.2501 5.99353C9.9932 5.7319 10.3456 4.85696 11.048 4.01271C11.821 3.08343 13.2155 2.33402 14.5829 2.11289C15.1427 2.02233 15.6006 1.91994 15.6006 1.88523C15.6006 1.72196 14.8378 0 14.7654 0C14.7199 0 14.021 0.432691 13.2122 0.961481Z" fill="#5B0F8B"/>
</svg>
