<svg width="24" height="24" viewBox="0 0 24 24" fill="none" xmlns="http://www.w3.org/2000/svg">
<rect width="24" height="24" rx="5" fill="#EEFFFE"/>
<path d="M5 15.667C5 13.31 5 12.1315 5.61508 11.3992C6.23015 10.667 7.2201 10.667 9.2 10.667H14.8C16.7799 10.667 17.7698 10.667 18.3849 11.3992C19 12.1315 19 13.31 19 15.667C19 18.024 19 19.2025 18.3849 19.9348C17.7698 20.667 16.7799 20.667 14.8 20.667H9.2C7.2201 20.667 6.23015 20.667 5.61508 19.9348C5 19.2025 5 18.024 5 15.667Z" stroke="#079893" stroke-width="1.5"/>
<path d="M12 14V17.3333" stroke="#079893" stroke-width="1.5" stroke-linecap="round"/>
<path d="M7 10.6667V9C7 6.23858 9.23858 4 12 4C14.7614 4 17 6.23858 17 9V10.6667" stroke="#079893" stroke-width="1.5" stroke-linecap="round"/>
</svg>
