<svg width="142" height="116" viewBox="0 0 142 116" fill="none" xmlns="http://www.w3.org/2000/svg">
<circle cx="97.8429" cy="24.4633" r="1.797" fill="#EC615B"/>
<circle cx="99.748" cy="20.4397" r="0.837865" fill="#EC615B"/>
<circle cx="44.815" cy="9.51397" r="0.859914" fill="#EC615B"/>
<circle cx="101.083" cy="109.562" r="1.45524" fill="#EC615B"/>
<circle cx="34.86" cy="115.328" r="0.672497" fill="#EC615B"/>
<circle cx="43.259" cy="65.6286" r="0.694546" fill="#EC615B"/>
<circle cx="44.6276" cy="69.1903" r="0.672497" fill="#2291D0"/>
<circle cx="43.8213" cy="87.3473" r="1.2568" fill="#2291D0"/>
<circle cx="96.8397" cy="16.3824" r="0.793767" fill="#2291D0"/>
<circle cx="66.6428" cy="17.8708" r="0.694546" fill="#2291D0"/>
<circle cx="4.71668" cy="72.3647" r="0.529178" fill="#2291D0"/>
<circle cx="99.2429" cy="113.332" r="1.32294" fill="#2291D0"/>
<circle cx="113.41" cy="0.694546" r="0.694546" fill="#2291D0"/>
<path d="M45.9268 31.9162C45.8165 31.2326 45.7173 29.8656 46.8088 29.9758C47.2056 30.0199 47.4261 30.3727 47.8671 30.2184C48.694 29.9317 48.5065 28.8624 48.8483 28.245C49.4105 27.2528 50.502 28.697 51.3398 28.2229C51.6155 28.0686 51.6816 27.782 51.6706 27.4843C51.6485 26.3708 52.6297 26.448 53.4345 26.6685C53.644 26.7236 53.7322 26.4039 53.5227 26.3488C52.7069 26.1283 51.3509 26.0511 51.3178 27.2307C51.3068 27.5174 51.4611 27.804 51.0422 27.9804C50.9099 28.0355 50.6894 27.9694 50.5681 27.9363C50.2815 27.8481 50.0279 27.6497 49.7303 27.5725C49.3444 27.4622 48.9696 27.5394 48.705 27.8481C48.3742 28.245 48.3853 28.7852 48.2309 29.2482C48.0656 29.7443 47.7458 30.031 47.2056 29.7884C46.9851 29.6892 46.7867 29.601 46.5331 29.6341C45.3976 29.7884 45.4527 31.1665 45.5961 32.0044C45.6402 32.2138 45.9599 32.1256 45.9268 31.9162Z" fill="#2291D0"/>
<path d="M47.2286 32.5554C47.3168 31.8719 47.868 31.5742 48.5074 31.5742C48.8492 31.5742 49.1909 31.6293 49.5217 31.5081C50.2713 31.2214 50.128 30.4056 50.3044 29.7662C50.6351 28.5535 52.1676 29.3032 53.0164 29.1047C53.5897 28.9614 54.0748 28.3881 53.8323 27.7818C53.7551 27.5833 53.4354 27.6715 53.5126 27.87C53.8874 28.785 52.6085 28.8401 52.0683 28.774C51.6715 28.7299 51.2856 28.6637 50.8887 28.763C50.2603 28.9283 50.0178 29.3914 49.9296 29.9867C49.8524 30.5379 49.8634 31.1443 49.1468 31.2325C48.761 31.2766 48.3751 31.1663 47.9893 31.2545C47.3719 31.3978 46.975 31.916 46.8978 32.5334C46.8648 32.7649 47.1955 32.7649 47.2286 32.5554Z" fill="#2291D0"/>
<path d="M70.0049 5.47942C69.6191 5.9645 69.2112 6.55983 69.3986 7.21027C69.5529 7.73945 69.9719 7.93789 70.479 7.90482C70.7766 7.88277 71.0853 7.8056 71.3279 8.07019C71.5153 8.26863 71.394 8.68756 71.3389 8.90805C71.2507 9.24981 71.0853 9.58055 71.1184 9.94436C71.1735 10.4405 71.5704 10.8263 72.0775 10.7161C72.287 10.672 72.1988 10.3523 71.9893 10.3964C71.0302 10.6169 71.6917 9.0183 71.7358 8.63244C71.7689 8.31273 71.7137 7.95994 71.4712 7.72843C71.2286 7.49691 70.931 7.51896 70.6223 7.55203C70.1372 7.60716 69.6852 7.45281 69.6632 6.86851C69.6521 6.42753 69.9608 6.03065 70.2254 5.69991C70.3798 5.55659 70.1372 5.31405 70.0049 5.47942Z" fill="#2291D0"/>
<path d="M72.6062 5.31379C72.088 5.53428 71.7573 6.07448 71.8896 6.63673C71.9557 6.8903 72.1101 7.13284 72.3305 7.28718C72.5951 7.48562 72.9038 7.44152 73.1684 7.60689C73.6645 7.90455 73.2676 8.48885 73.2897 8.95188C73.3007 9.1834 73.3558 9.39287 73.5543 9.53619C73.8519 9.7677 74.2929 9.69053 74.4142 9.31569C74.4803 9.11725 74.1606 9.02906 74.0945 9.2275C73.6755 9.17238 73.5322 8.98496 73.6535 8.66525C73.6755 8.555 73.6976 8.44476 73.7196 8.33451C73.7417 8.22427 73.7527 8.11402 73.7527 8.00377C73.7527 7.77226 73.6866 7.52972 73.5102 7.36435C73.2456 7.12181 72.8377 7.22103 72.551 7.02259C71.9667 6.61468 72.1762 5.84297 72.7715 5.5894C72.97 5.51223 72.7936 5.23662 72.6062 5.31379Z" fill="#2291D0"/>
<path d="M0.517269 70.4798C0.263704 70.083 0.263704 69.5979 0.517269 69.19C0.770833 68.7931 1.12362 68.7821 1.53153 68.6277C2.09378 68.3962 2.1048 67.8119 2.07173 67.2827C2.0607 67.0953 2.04968 66.8969 2.1048 66.7094C2.24812 66.2685 2.62296 66.3897 2.96472 66.4449C3.16316 66.4779 3.35057 66.4449 3.51594 66.3346C3.72541 66.1913 3.8577 65.9377 3.92385 65.6952C3.97897 65.4967 3.99 65.2873 4.0341 65.0888C4.05615 64.9455 4.10024 64.8132 4.16639 64.692C4.34278 64.4163 4.55225 64.3943 4.80581 64.6368C4.86094 64.8463 5.18065 64.7581 5.12553 64.5486C4.92708 63.832 4.04512 64.1518 3.82463 64.6589C3.72541 64.8904 3.71438 65.144 3.65926 65.3865C3.62619 65.5298 3.60414 65.6842 3.52697 65.8165C3.3616 66.1141 3.05291 66.059 2.76627 66.0259C2.42451 65.9928 2.15992 65.9598 1.93943 66.2795C1.68587 66.6433 1.75202 67.0733 1.75202 67.4922C1.76304 67.9993 1.6528 68.1978 1.15669 68.3631C0.95825 68.4293 0.792882 68.4623 0.61649 68.5946C-0.0229336 69.0466 -0.188302 69.9837 0.230631 70.6342C0.340876 70.8216 0.627514 70.6562 0.517269 70.4798Z" fill="#EC615B"/>
<path d="M1.8948 71.2403C1.43177 71.1741 1.60817 70.667 1.81763 70.4685C1.97198 70.3252 2.18144 70.237 2.37988 70.1378C2.62242 70.0165 2.86496 69.8732 3.04136 69.6637C3.51541 69.0684 2.83189 68.2747 3.49336 67.8006C4.15483 67.3376 5.92978 67.1281 5.41163 65.8934C5.33446 65.6949 5.04782 65.8713 5.12499 66.0587C5.49983 66.9517 3.68078 67.2163 3.21775 67.5911C3.05238 67.7234 2.90906 67.8998 2.84291 68.1093C2.71062 68.5723 3.09648 69.0464 2.75472 69.4874C2.35784 69.9724 1.50895 69.9724 1.3105 70.656C1.18923 71.0418 1.3987 71.5048 1.81763 71.571C2.01607 71.593 2.10427 71.2733 1.8948 71.2403Z" fill="#EC615B"/>
<path d="M122.748 45.6196C122.605 45.3661 122.627 45.0905 122.781 44.8479C123.024 44.4951 123.31 44.5723 123.685 44.6054C123.939 44.6274 124.17 44.6826 124.413 44.5392C124.843 44.2746 124.777 43.7234 124.854 43.3045C125.03 42.3233 125.879 43.2163 126.452 42.9076C126.662 42.7974 126.739 42.5879 126.783 42.3674C126.86 41.9374 126.882 40.6586 127.709 41.1768C127.886 41.287 128.062 41.0004 127.874 40.8901C127.136 40.4381 126.541 41.1878 126.474 41.8823C126.43 42.2792 126.474 42.6651 125.945 42.6099C125.758 42.5879 125.57 42.4887 125.383 42.4666C125.085 42.4335 124.821 42.5217 124.655 42.7863C124.468 43.095 124.534 43.4809 124.457 43.8116C124.292 44.5613 123.652 44.1424 123.134 44.2305C122.439 44.3518 122.12 45.1897 122.45 45.774C122.561 45.9724 122.847 45.8071 122.748 45.6196Z" fill="#EC615B"/>
<path d="M124.389 46.3141C124.202 45.807 124.786 45.2447 125.293 45.5093C125.359 45.5424 125.447 45.5424 125.491 45.4873C125.745 45.2117 125.811 44.892 125.921 44.5392C126.12 43.8998 126.594 43.8116 127.167 43.6352C127.729 43.4588 128.358 42.9957 128.126 42.3343C128.049 42.1358 127.729 42.224 127.807 42.4225C128.126 43.2934 126.561 43.3596 126.098 43.6793C125.535 44.0761 125.701 44.7927 125.271 45.2558C125.337 45.2447 125.403 45.2337 125.469 45.2337C124.731 44.8479 123.794 45.6086 124.08 46.4133C124.146 46.6008 124.466 46.5236 124.389 46.3141Z" fill="#EC615B"/>
<path d="M79.8609 49.2024C79.8829 49.2024 80.1255 49.7977 80.2247 49.8749C80.3791 49.9962 80.5665 50.0072 80.7539 49.9741C81.0846 49.919 81.2941 49.6764 81.5807 49.5221C82.1981 49.1693 82.1981 49.7757 82.4406 50.1174C82.7163 50.5253 83.0139 50.3269 83.3336 50.1285C83.5431 49.9962 83.7415 49.908 83.929 50.0954C84.0282 50.1946 84.0943 50.36 84.1715 50.4812C84.2928 50.6576 84.4251 50.8009 84.6235 50.8891C84.8109 50.9773 84.9873 50.6907 84.7889 50.6025C84.3369 50.4041 84.2817 49.6544 83.7415 49.5772C83.488 49.5442 83.3777 49.6875 83.1793 49.7977C82.9367 49.941 82.7934 50.0403 82.6391 49.7646C82.5729 49.6544 82.5619 49.5001 82.4847 49.3898C82.132 48.8055 81.5807 49.1252 81.1397 49.4119C81.0626 49.467 80.9854 49.5221 80.8972 49.5662C80.7098 49.5111 80.5113 49.456 80.3239 49.4008C80.2468 49.3237 80.2468 49.1362 80.1806 49.037C80.0704 48.8827 79.9601 48.8386 79.7837 48.8717C79.5632 48.9158 79.6514 49.2355 79.8609 49.2024Z" fill="#EC615B"/>
<path d="M82.4523 48.1443C82.7831 47.6261 83.5437 48.7065 83.8524 48.8388C84.0399 48.916 84.2162 48.916 84.4147 48.8609C84.5029 48.8388 84.5801 48.7947 84.6572 48.7616C84.9549 48.6404 85.2085 48.7175 85.451 48.927C85.8038 49.2247 85.903 49.6215 86.4101 49.7318C86.7078 49.7979 86.9834 49.7097 87.1157 49.4231C87.2039 49.2357 86.9173 49.0593 86.8291 49.2577C86.5204 49.9192 85.6715 48.6183 85.451 48.475C85.0431 48.2104 84.7895 48.4309 84.3816 48.5191C83.7312 48.6514 83.5217 47.9238 82.9815 47.7474C82.6618 47.6371 82.3531 47.6923 82.1767 47.9899C82.0444 48.1663 82.331 48.3317 82.4523 48.1443Z" fill="#EC615B"/>
<path d="M123.651 67.4151C129.505 67.4151 135.359 67.4151 141.224 67.4151C141.434 67.4151 141.434 67.0844 141.224 67.0844C135.37 67.0844 129.516 67.0844 123.651 67.0844C123.442 67.0844 123.442 67.4151 123.651 67.4151Z" fill="#E8E8E8"/>
<path d="M128.446 67.3383C128.446 69.0471 128.446 70.7448 128.446 72.4536C128.446 72.6631 128.777 72.6631 128.777 72.4536C128.777 70.7448 128.777 69.0471 128.777 67.3383C128.777 67.1288 128.446 67.1288 128.446 67.3383Z" fill="#E8E8E8"/>
<path d="M136.628 67.1726C136.628 64.7913 136.628 62.41 136.628 60.0287C136.628 59.8192 136.297 59.8192 136.297 60.0287C136.297 62.41 136.297 64.7913 136.297 67.1726C136.297 67.3931 136.628 67.3931 136.628 67.1726Z" fill="#E8E8E8"/>
<path d="M132.735 60.1609C134.951 60.1609 137.167 60.1609 139.383 60.1609C139.592 60.1609 139.592 59.8302 139.383 59.8302C137.167 59.8302 134.951 59.8302 132.735 59.8302C132.526 59.8302 132.526 60.1609 132.735 60.1609Z" fill="#E8E8E8"/>
<path d="M128.382 20.4618C128.382 22.5234 128.382 24.585 128.382 26.6355C128.382 26.845 128.713 26.845 128.713 26.6355C128.713 24.5739 128.713 22.5124 128.713 20.4618C128.713 20.2523 128.382 20.2523 128.382 20.4618Z" fill="#E8E8E8"/>
<path d="M123.233 27.1098C127.213 27.1098 131.181 27.1098 135.161 27.1098C135.371 27.1098 135.371 26.7791 135.161 26.7791C131.181 26.7791 127.213 26.7791 123.233 26.7791C123.012 26.7791 123.012 27.1098 123.233 27.1098Z" fill="#E8E8E8"/>
<path d="M135.052 27.0655C135.052 28.4326 135.052 29.7996 135.052 31.1667C135.052 31.3761 135.382 31.3761 135.382 31.1667C135.382 29.7996 135.382 28.4326 135.382 27.0655C135.382 26.8561 135.052 26.8561 135.052 27.0655Z" fill="#E8E8E8"/>
<path d="M24.3292 14.0343C28.2209 14.0343 32.1236 14.0343 36.0152 14.0343C36.2247 14.0343 36.2247 13.7036 36.0152 13.7036C32.1236 13.7036 28.2209 13.7036 24.3292 13.7036C24.1198 13.7036 24.1087 14.0343 24.3292 14.0343Z" fill="#E8E8E8"/>
<path d="M35.5312 14.0008C35.5312 15.0592 35.5312 16.1175 35.5312 17.1759C35.5312 17.3853 35.862 17.3853 35.862 17.1759C35.862 16.1175 35.862 15.0592 35.862 14.0008C35.862 13.7803 35.5312 13.7803 35.5312 14.0008Z" fill="#E8E8E8"/>
<path d="M31.9919 13.7362C31.9919 12.0385 31.9919 10.3517 31.9919 8.65393C31.9919 8.44446 31.6611 8.44446 31.6611 8.65393C31.6611 10.3517 31.6611 12.0385 31.6611 13.7362C31.6611 13.9567 31.9919 13.9567 31.9919 13.7362Z" fill="#E8E8E8"/>
<path d="M1.21276 48.0116C3.90275 48.0116 6.59274 48.0116 9.28273 48.0116C9.49219 48.0116 9.49219 47.6809 9.28273 47.6809C6.59274 47.6809 3.90275 47.6809 1.21276 47.6809C1.0033 47.6809 1.0033 48.0116 1.21276 48.0116Z" fill="#E8E8E8"/>
<path d="M6.14062 44.6935C6.14062 45.6857 6.14062 46.6779 6.14062 47.6701C6.14062 47.8796 6.47136 47.8796 6.47136 47.6701C6.47136 46.6779 6.47136 45.6857 6.47136 44.6935C6.47136 44.484 6.14062 44.484 6.14062 44.6935Z" fill="#E8E8E8"/>
<path d="M4.19955 44.8588C5.63274 44.8588 7.06593 44.8588 8.49912 44.8588C8.70858 44.8588 8.70858 44.5281 8.49912 44.5281C7.06593 44.5281 5.63274 44.5281 4.19955 44.5281C3.97906 44.5281 3.97906 44.8588 4.19955 44.8588Z" fill="#E8E8E8"/>
<path d="M52.7513 114.368C56.3453 114.368 59.9393 114.368 63.5333 114.368C63.7428 114.368 63.7428 114.038 63.5333 114.038C59.9393 114.038 56.3453 114.038 52.7513 114.038C52.5308 114.038 52.5308 114.368 52.7513 114.368Z" fill="#E8E8E8"/>
<path d="M59.3893 114.038C59.3893 113.266 59.3893 112.495 59.3893 111.712C59.3893 111.502 59.0586 111.502 59.0586 111.712C59.0586 112.484 59.0586 113.255 59.0586 114.038C59.0586 114.258 59.3893 114.258 59.3893 114.038Z" fill="#E8E8E8"/>
<path d="M58.3856 111.723C59.8739 111.723 61.3733 111.723 62.8616 111.723C63.071 111.723 63.071 111.392 62.8616 111.392C61.3733 111.392 59.8739 111.392 58.3856 111.392C58.1761 111.392 58.1761 111.723 58.3856 111.723Z" fill="#E8E8E8"/>
<path d="M1.46569 108.57C5.05969 108.57 8.65369 108.57 12.2477 108.57C12.4572 108.57 12.4572 108.239 12.2477 108.239C8.65369 108.239 5.05969 108.239 1.46569 108.239C1.25623 108.239 1.25623 108.57 1.46569 108.57Z" fill="#E8E8E8"/>
<path d="M6.44824 104.248C6.44824 105.516 6.44824 106.795 6.44824 108.063C6.44824 108.272 6.77898 108.272 6.77898 108.063C6.77898 106.795 6.77898 105.516 6.77898 104.248C6.77898 104.039 6.44824 104.039 6.44824 104.248Z" fill="#E8E8E8"/>
<path d="M6.44914 103.752C5.01595 103.752 3.57173 103.752 2.13854 103.752C1.92908 103.752 1.92908 104.083 2.13854 104.083C3.57173 104.083 5.01595 104.083 6.44914 104.083C6.65861 104.083 6.65861 103.752 6.44914 103.752Z" fill="#E8E8E8"/>
<path d="M121.314 98.8682C120.95 98.5044 121.039 97.7988 121.601 97.6775C121.899 97.6114 122.185 97.7988 122.472 97.8319C122.692 97.8649 122.924 97.8429 123.067 97.6445C123.288 97.3578 123.111 97.0271 123.1 96.7074C123.078 95.7041 124.269 95.7703 124.864 96.1231C124.996 96.2002 125.14 96.0679 125.107 95.9357C124.82 94.5576 126.397 93.6095 127.477 94.5245C127.642 94.6568 127.874 94.4253 127.708 94.293C126.374 93.1685 124.423 94.315 124.787 96.0349C124.864 95.9687 124.952 95.9136 125.029 95.8475C124.522 95.5388 123.872 95.3844 123.332 95.7262C123.133 95.8475 122.957 96.0349 122.869 96.2554C122.803 96.4097 122.769 96.553 122.78 96.7184C122.792 97.0161 122.891 96.994 122.67 97.2806C122.428 97.6004 122.406 97.457 122.064 97.3799C121.943 97.3468 121.832 97.3247 121.7 97.3358C121.424 97.3468 121.171 97.4791 120.995 97.6775C120.609 98.1075 120.708 98.7138 121.094 99.0997C121.237 99.254 121.469 99.0225 121.314 98.8682Z" fill="#E8E8E8"/>
<path d="M123.462 99.1989C123.341 98.1956 124.984 98.1846 125.447 97.4901C125.568 97.3137 125.612 97.1152 125.689 96.9278C125.833 96.586 126.086 96.3656 126.461 96.2663C127.067 96.112 127.696 96.3876 128.247 96.6191C128.446 96.6963 128.534 96.3766 128.335 96.2994C127.321 95.8805 125.954 95.5608 125.392 96.7955C125.193 97.2365 125.127 97.479 124.664 97.7105C124.389 97.8428 124.102 97.92 123.837 98.0744C123.418 98.3169 123.088 98.6917 123.143 99.1989C123.165 99.4083 123.496 99.4083 123.462 99.1989Z" fill="#E8E8E8"/>
<path d="M76.0484 67.1395C76.2689 67.6907 76.4894 68.253 76.7099 68.8042C76.732 68.738 76.765 68.6829 76.7871 68.6168C76.6658 68.6939 76.5446 68.7711 76.4233 68.8593C76.2359 68.4183 76.313 68.3081 76.6658 68.5065C76.8753 68.6388 76.9745 68.9255 77.0186 69.157C77.1178 69.6862 77.0076 70.2374 76.8312 70.7445C76.7871 70.8768 76.9194 70.965 77.0296 70.943C77.6911 70.8107 77.9557 71.6044 77.8234 72.1005C77.7242 72.4643 77.5257 72.784 77.3273 73.1038C77.217 73.2802 77.5037 73.4455 77.6139 73.2691C77.9667 72.7179 78.3746 72.0344 78.1321 71.3509C77.9447 70.8437 77.4816 70.524 76.9414 70.6232C77.0076 70.6894 77.0737 70.7555 77.1399 70.8217C77.3604 70.1823 77.5037 69.3775 77.2281 68.727C77.0407 68.2971 76.6107 67.9663 76.1256 68.1096C75.7508 68.2199 75.5634 68.5947 75.7398 68.9585C76.0374 69.5649 76.5556 69.157 76.9414 68.9034C76.9966 68.8703 77.0407 68.7821 77.0186 68.716C76.7981 68.1648 76.5776 67.6025 76.3571 67.0513C76.291 66.8639 75.9713 66.941 76.0484 67.1395Z" fill="#E8E8E8"/>
<path d="M10.847 14.9824C10.6376 14.4533 11.3431 14.3099 11.6739 14.4974C11.9274 14.6407 12.0928 14.8942 12.2471 15.1258C12.3905 15.3352 12.5448 15.5667 12.622 15.8093C12.7102 16.0187 12.6992 16.2172 12.5889 16.4156C12.2031 16.592 12.0046 16.5479 11.9936 16.2944C11.8944 15.9305 12.2802 15.688 12.611 15.699C12.9527 15.7101 13.2724 15.9085 13.5039 16.151C13.9008 16.57 14.0441 17.1212 13.989 17.6834C14.0882 17.6504 14.1985 17.6283 14.2977 17.5952C14.0772 17.2755 14.2867 16.9338 14.5844 16.7684C14.8379 16.6361 15.1246 16.6692 15.3671 16.8015C15.764 17.0109 16.0396 17.3968 16.2932 17.7496C16.4144 17.926 16.7011 17.7606 16.5798 17.5842C16.1609 16.9999 15.5325 16.1841 14.7056 16.3715C14.0993 16.5038 13.6142 17.2094 14.0111 17.7606C14.1103 17.9039 14.2977 17.8378 14.3198 17.6724C14.419 16.6251 13.6473 15.1919 12.4125 15.3683C11.9715 15.4344 11.6518 15.7431 11.6518 16.1951C11.6518 16.5479 11.8723 16.9117 12.2471 16.9338C12.6881 16.9669 12.9858 16.5369 13.0078 16.14C13.0409 15.5888 12.611 14.9935 12.2802 14.5856C11.9715 14.2217 11.5195 13.9131 11.0344 14.1005C10.6376 14.2438 10.373 14.6407 10.5383 15.0486C10.6045 15.2691 10.9242 15.1809 10.847 14.9824Z" fill="#E8E8E8"/>
<path d="M68.925 31.1554C68.462 30.8798 68.7928 30.064 69.3109 30.4057C69.807 30.7365 69.1455 31.2987 68.8258 30.9129C68.6935 30.7475 68.462 30.979 68.5943 31.1444C68.8479 31.4531 69.333 31.431 69.6196 31.1775C69.9503 30.8798 69.8621 30.3947 69.5204 30.1522C69.1786 29.9096 68.6825 29.9537 68.473 30.3506C68.2636 30.7255 68.4069 31.2326 68.7707 31.442C68.9361 31.5413 69.1014 31.2657 68.925 31.1554Z" fill="#E8E8E8"/>
<path d="M104.05 7.04478C103.807 6.70302 104.226 6.18486 104.612 6.33921C104.579 6.31716 104.546 6.28408 104.513 6.26204C104.722 6.62584 104.414 7.12195 104.006 7.0999C104.061 7.144 104.116 7.17707 104.16 7.22117C104.094 7.03375 104.017 6.83531 103.951 6.64789C103.874 6.44945 103.554 6.53765 103.631 6.73609C103.697 6.92351 103.774 7.12195 103.841 7.30937C103.863 7.38654 103.918 7.43064 103.995 7.43064C104.348 7.45268 104.656 7.23219 104.811 6.92351C104.932 6.68097 104.998 6.17384 104.7 6.0195C104.05 5.69978 103.378 6.66994 103.763 7.21015C103.885 7.38654 104.171 7.22117 104.05 7.04478Z" fill="#E8E8E8"/>
<path d="M113.024 23.4382C112.968 23.1846 113.156 22.909 113.409 22.8539C113.641 22.8098 113.85 22.9972 113.906 23.2067C114.049 23.7028 113.398 23.9343 113.09 23.5925C112.946 23.4382 112.715 23.6697 112.858 23.824C113.432 24.4635 114.534 23.8351 114.181 23.0192C114.027 22.6554 113.641 22.4239 113.255 22.5452C112.847 22.6775 112.605 23.1074 112.693 23.5264C112.759 23.7358 113.079 23.6476 113.024 23.4382Z" fill="#E8E8E8"/>
<path d="M77.2378 114.688C76.8189 114.49 76.852 113.917 77.2378 113.696C77.6127 113.487 77.9655 113.674 78.3072 113.829C78.5939 113.961 78.9246 114.082 79.1782 113.829C79.4097 113.608 79.3656 113.266 79.3766 112.98C79.4207 111.866 80.5011 112.087 81.2398 112.362C81.4382 112.439 81.5264 112.12 81.3279 112.043C80.6775 111.789 79.7735 111.546 79.2553 112.186C79.101 112.373 79.0569 112.594 79.0459 112.825C79.0348 112.98 79.101 113.321 79.0128 113.465C78.7703 113.829 78.4395 113.498 78.186 113.388C77.7009 113.178 77.0063 113.233 76.7087 113.74C76.4551 114.17 76.6094 114.755 77.0615 114.964C77.2599 115.063 77.4253 114.777 77.2378 114.688Z" fill="#E8E8E8"/>
<path d="M82.571 88.7034C82.2402 92.7494 82.4166 96.8064 83.1001 100.808C83.1332 101.018 83.4529 100.93 83.4198 100.72C82.7473 96.7513 82.571 92.7163 82.9017 88.7034C82.9237 88.4939 82.593 88.4939 82.571 88.7034Z" fill="#E8E8E8"/>
<path d="M82.7908 88.9569C84.5106 89.5522 86.2856 89.9491 88.0936 90.1475C89.7914 90.3239 91.7427 90.5113 93.3743 89.8719C93.5728 89.7947 93.4846 89.475 93.2861 89.5522C91.6986 90.1806 89.7693 89.9932 88.0936 89.8168C86.3186 89.6294 84.5657 89.2215 82.879 88.6372C82.6695 88.56 82.5924 88.8797 82.7908 88.9569Z" fill="#E8E8E8"/>
<path d="M85.4132 89.409C84.8399 88.516 84.3659 87.5679 84.0351 86.5536C83.8808 86.0685 83.7485 85.5834 83.6493 85.0873C83.5941 84.7897 83.539 84.492 83.5059 84.1944C83.5059 84.1613 83.3847 83.3785 83.6162 83.4888C83.7264 83.5439 83.9139 83.4447 83.8587 83.3014C83.2524 81.769 82.9216 80.1594 82.8886 78.5057C82.8334 78.5608 82.7783 78.6159 82.7232 78.6711C82.8114 78.7041 82.8886 78.7372 82.9768 78.7703C83.087 78.9026 83.2965 78.7593 83.2524 78.6049C83.0319 77.8993 82.8886 77.1717 82.8445 76.4221C82.8334 76.2457 82.8665 74.2612 82.9878 74.2943C83.1201 74.3274 83.2083 74.2061 83.1862 74.0959C82.9768 72.8501 82.8775 71.5823 82.9327 70.3255C82.9547 69.6971 83.0098 69.0797 83.1091 68.4623C83.1973 67.9001 83.2414 67.2166 83.6823 66.8087C83.5941 66.7976 83.5059 66.7866 83.4177 66.7756C84.3438 68.5175 84.862 70.4247 85.336 72.3209C85.799 74.1841 86.207 76.0693 86.5597 77.9655C87.2763 81.8792 87.7283 85.837 87.9268 89.8169C87.9378 90.0263 88.2685 90.0263 88.2575 89.8169C88.0591 85.815 87.6071 81.8241 86.8795 77.8773C86.5156 75.9149 86.0967 73.9636 85.6116 72.0233C85.1376 70.1601 84.6194 68.308 83.7044 66.5992C83.6493 66.5 83.517 66.5 83.4398 66.5661C83.065 66.9079 82.9547 67.3599 82.8665 67.8339C82.7453 68.5064 82.6571 69.201 82.613 69.8845C82.5248 71.3177 82.613 72.7509 82.8555 74.173C82.9216 74.1069 82.9878 74.0408 83.0539 73.9746C82.4145 73.7982 82.4917 75.1763 82.4807 75.485C82.4366 76.5654 82.6019 77.6458 82.9216 78.6821C83.0098 78.627 83.1091 78.5718 83.1973 78.5167C83.0539 78.3513 82.9327 78.2962 82.7122 78.3183C82.624 78.3293 82.5468 78.3844 82.5468 78.4836C82.5799 80.1594 82.9106 81.802 83.528 83.3675C83.6052 83.3014 83.6934 83.2462 83.7705 83.1801C82.6681 82.6509 83.3075 85.1425 83.3957 85.5173C83.7264 86.9505 84.3218 88.3175 85.1155 89.5523C85.2478 89.7507 85.5345 89.5854 85.4132 89.409Z" fill="#E8E8E8"/>
<path d="M87.1697 78.3957C87.0704 77.6901 87.0484 76.9735 87.1366 76.2679C87.1586 76.0916 87.5776 74.0189 87.787 74.1071C87.8973 74.1623 88.0296 74.0961 88.0406 73.9638C88.1067 72.5527 88.5477 71.2959 89.0659 69.995C89.584 68.7051 90.0912 67.4593 90.9511 66.3459C90.8739 66.3459 90.7967 66.3459 90.7196 66.3459C91.348 67.0625 91.2708 68.1539 91.3039 69.0469C91.348 70.0501 91.381 71.0533 91.3921 72.0566C91.4141 74.03 91.381 76.0034 91.2928 77.9767C91.1054 82.0117 90.6534 86.0357 89.9699 90.0155C89.9368 90.225 90.2565 90.3132 90.2896 90.1037C91.0062 85.9585 91.4582 81.7582 91.6456 77.5468C91.7338 75.4301 91.7559 73.3134 91.7118 71.1967C91.6897 70.1383 91.6677 69.0799 91.5905 68.0216C91.5464 67.327 91.4362 66.6435 90.9511 66.1033C90.896 66.0372 90.7747 66.0372 90.7196 66.1033C89.8707 67.2058 89.3415 68.4185 88.8344 69.7083C88.2721 71.0974 87.7981 72.4424 87.7209 73.9638C87.8091 73.9197 87.8863 73.8646 87.9745 73.8205C87.302 73.5228 87.0815 74.956 86.9933 75.3419C86.7507 76.3782 86.7287 77.4255 86.883 78.4729C86.872 78.6933 87.1917 78.6051 87.1697 78.3957Z" fill="#E8E8E8"/>
<path d="M83.2536 101.084C86.7042 102.198 90.4416 102.143 93.8592 100.93C94.0576 100.864 93.9694 100.544 93.771 100.61C90.4085 101.801 86.7373 101.856 83.3418 100.764C83.1323 100.698 83.0441 101.018 83.2536 101.084Z" fill="#E8E8E8"/>
<path d="M93.3303 89.7622C93.4626 91.5482 93.606 93.3342 93.7272 95.1201C93.8485 96.9392 93.8926 98.7803 93.5949 100.588C93.5619 100.798 93.8816 100.886 93.9146 100.676C94.2123 98.9015 94.1903 97.1156 94.069 95.3296C93.9477 93.4775 93.8044 91.6143 93.6611 89.7622C93.6501 89.5527 93.3193 89.5527 93.3303 89.7622Z" fill="#E8E8E8"/>
<path d="M34.4912 103.917C36.7402 102.715 39.0002 101.514 41.2493 100.312C42.3076 100.488 43.7628 100.72 45.5047 100.962C48.9885 101.447 54.6 102.23 61.6998 102.44C68.7996 102.649 74.1244 102.197 76.1529 101.999C81.0368 101.536 83.9914 100.907 86.4058 100.257C88.5996 99.6614 90.4077 99.011 91.6975 98.5149C92.7559 98.8677 93.9355 99.3417 95.1923 99.9922C95.9089 100.367 96.5704 100.753 97.1547 101.139C95.0821 101.734 92.2929 102.495 88.9745 103.266C81.9849 104.898 76.627 105.67 75.5025 105.835C69.0752 106.75 59.9138 108.04 48.3932 106.706C44.8102 106.276 40.0366 105.493 34.4912 103.917Z" fill="white"/>
<path d="M34.3682 103.928C34.4233 104.391 34.4894 104.843 34.5446 105.306C35.3714 105.538 36.5841 105.868 38.0834 106.199C40.9498 106.838 43.8603 107.279 47.6638 107.577C61.709 108.68 72.932 107.698 72.932 107.698C78.5435 107.202 83.9896 106.695 91.0233 104.645C93.6691 103.873 95.83 103.09 97.3734 102.484C97.2521 101.966 97.1309 101.447 97.0096 100.929C96.5796 101.106 95.9402 101.359 95.1575 101.646C89.8436 103.586 85.4669 104.226 81.5642 104.7C72.9871 105.758 68.6986 106.276 62.4036 106.375C55.2376 106.497 45.6242 106.067 34.3682 103.928Z" fill="#161616"/>
<path d="M34.292 104.138C34.292 104.49 34.292 104.843 34.292 105.196C34.292 105.405 34.6227 105.405 34.6227 105.196C34.6227 104.843 34.6227 104.49 34.6227 104.138C34.6227 103.917 34.292 103.917 34.292 104.138Z" fill="#161616"/>
<path d="M34.4137 105.505C42.649 107.732 51.2482 108.018 59.7261 108.139C67.8732 108.25 76.0754 107.897 84.1013 106.409C88.6214 105.571 93.0753 104.347 97.3748 102.682C97.5733 102.605 97.4851 102.285 97.2867 102.363C89.7018 105.306 81.6428 106.806 73.5398 107.434C65.3706 108.062 57.1243 107.919 48.9551 107.423C44.0712 107.114 39.2314 106.475 34.5019 105.196C34.2924 105.13 34.2043 105.45 34.4137 105.505Z" fill="#161616"/>
<path d="M97.3758 102.451C97.442 101.988 97.464 101.514 97.4199 101.051C97.3979 100.841 97.0671 100.841 97.0892 101.051C97.1223 101.492 97.1223 101.933 97.0561 102.363C97.023 102.561 97.3427 102.66 97.3758 102.451Z" fill="#161616"/>
<path d="M34.5577 104.105C36.8728 103.002 39.1439 101.823 41.3708 100.544C41.5583 100.434 41.3929 100.158 41.2055 100.257C38.9785 101.525 36.7075 102.716 34.3923 103.818C34.1939 103.906 34.3592 104.193 34.5577 104.105Z" fill="#161616"/>
<path d="M41.2819 100.389C54.4342 102.892 68.1046 103.355 81.3671 101.459C84.8949 100.952 88.4007 100.169 91.664 98.7136C91.8625 98.6254 91.6861 98.3387 91.4986 98.4269C88.5661 99.7278 85.4352 100.489 82.2711 100.985C79.0519 101.492 75.7997 101.8 72.5475 102.01C65.9438 102.429 59.307 102.319 52.7254 101.69C48.9109 101.326 45.1294 100.775 41.3701 100.07C41.1606 100.037 41.0724 100.356 41.2819 100.389Z" fill="#161616"/>
<path d="M91.5983 98.6583C93.5607 99.2977 95.4018 100.191 97.1216 101.326C97.298 101.447 97.4633 101.161 97.2869 101.04C95.5451 99.893 93.6709 98.989 91.6865 98.3385C91.477 98.2724 91.3888 98.5921 91.5983 98.6583Z" fill="#161616"/>
<path d="M34.5791 103.928C38.4707 105.24 42.5278 105.858 46.6068 106.188C50.741 106.519 54.9083 106.618 59.0535 106.618C67.2889 106.618 75.5462 106.056 83.6603 104.579C88.2686 103.741 92.8327 102.605 97.2756 101.117C97.4741 101.051 97.3859 100.731 97.1874 100.797C89.371 103.399 81.2459 104.92 73.0437 105.67C64.8855 106.42 56.6392 106.464 48.459 105.979C43.7846 105.692 39.0991 105.108 34.6452 103.609C34.4688 103.542 34.3806 103.862 34.5791 103.928Z" fill="#161616"/>
<path d="M40.9296 40.9668C54.4016 37.8468 68.2705 37.1633 82.0512 37.031C85.9539 36.9869 89.8565 36.998 93.7592 36.998C93.9687 36.998 93.9687 36.6672 93.7592 36.6672C79.9345 36.6452 66.0435 36.6341 52.318 38.5414C48.4594 39.0816 44.6339 39.7651 40.8415 40.6471C40.632 40.7022 40.7202 41.0219 40.9296 40.9668Z" fill="#161616"/>
<path d="M94.4424 36.7005C94.5857 41.8269 94.6739 47.7691 94.6409 54.3728C94.6188 58.2094 94.5857 56.3793 94.244 72.3428C94.0455 81.5373 93.9904 84.999 93.34 90.3128C92.921 93.7745 92.4139 96.6189 92.0391 98.5481C94.8834 99.3419 97.5954 100.092 99.9767 100.753C103.659 101.778 104.64 102.054 106.106 102.263C108.377 102.572 111.145 102.616 114.342 101.966C115.521 92.3083 116.172 84.0729 116.547 77.7669C117.892 55.6076 116.635 45.3989 116.15 41.8159C115.488 36.9871 114.672 33.0183 114.044 30.2732C111.685 30.7252 109.767 31.2103 108.422 31.5741C103.802 32.8419 100.142 34.3302 97.0773 35.587C95.9417 36.0611 95.0267 36.4469 94.4424 36.7005Z" fill="white"/>
<path d="M18.4383 30.4717C18.3501 31.4198 18.2509 32.5884 18.1627 33.6026C16.3326 54.4721 15.4176 64.9123 15.1199 71.6263C14.8112 78.8363 14.7892 89.2876 16.3216 102.286C16.4428 102.55 16.6633 102.914 17.0602 103.212C17.5784 103.597 18.0524 103.586 18.9895 103.851C19.7281 104.06 20.114 104.27 20.4668 104.402C21.481 104.799 23.7521 105.251 26.6405 105.141C30.7858 104.976 33.9718 103.708 36.309 102.749C38.5029 101.856 40.2558 100.896 41.4685 100.169C40.785 94.0281 40.2779 87.5457 39.9912 80.7436C39.4069 66.2794 39.9912 52.9948 41.1929 41.1545C40.6858 40.956 39.9471 40.6804 39.0762 40.3276C37.5769 39.7213 33.9829 38.255 27.6548 35.1681C25.1522 33.9554 22.0212 32.3789 18.4383 30.4717Z" fill="white"/>
<path d="M113.978 30.2295C114.11 30.9571 114.286 31.9603 114.485 33.162C114.76 34.8708 115.378 38.9168 115.83 44.2307C116.293 49.765 116.403 54.5276 116.414 58.32C116.447 66.0151 116.16 71.6597 115.411 84.823C115.179 88.9241 114.837 94.9325 114.407 102.264C114.86 102.231 115.3 102.209 115.752 102.176C115.973 100.346 116.271 97.6225 116.502 94.2931C116.679 91.8897 116.756 90.1368 116.833 88.2516C117.219 79.6084 117.285 79.7076 117.417 76.1798C117.682 69.2233 117.627 63.8764 117.583 59.0697C117.549 55.7513 117.45 52.6093 117.252 46.3253C117.109 42.0478 116.965 38.2554 115.995 33.3274C115.741 32.0706 115.499 31.0233 115.323 30.3067C114.871 30.2846 114.43 30.2626 113.978 30.2295Z" fill="#161616"/>
<path d="M16.7523 30.6702C16.6752 31.056 16.5539 31.6513 16.4326 32.379C16.0799 34.4847 15.9917 36.0722 15.9586 36.5903C15.716 40.3387 15.231 42.1688 14.5254 50.4923C14.3931 52.0137 14.2939 53.3476 14.0954 56.0266C13.6875 61.4948 13.4891 64.2289 13.3458 67.3157C13.1914 70.7664 13.1694 73.2028 13.1363 78.0757C13.1032 82.287 13.0812 85.3298 13.1914 89.3097C13.2796 92.4847 13.456 96.7953 13.886 101.933C14.779 102.197 15.6609 102.462 16.5539 102.727C16.5429 102.23 16.5098 101.337 16.4437 100.224C16.1791 95.2739 15.7491 93.2675 15.6499 89.1443C15.6168 87.8765 15.6389 87.0386 15.6499 85.8369C15.7712 77.2158 15.6278 73.28 15.705 67.6795C15.8373 58.5402 16.4547 51.3963 16.9839 45.3108C17.48 39.5559 18.0422 34.628 18.5273 30.7694C17.9209 30.7363 17.3366 30.7032 16.7523 30.6702Z" fill="#161616"/>
<path d="M94.1792 36.8883C94.5871 44.9803 94.532 53.0944 94.4218 61.1864C94.3005 69.102 94.2454 77.0397 93.639 84.9443C93.2973 89.4423 92.7571 93.9293 91.9192 98.3721C91.8751 98.5816 92.1948 98.6698 92.2389 98.4603C93.7052 90.688 94.2454 82.7834 94.4879 74.8899C94.7415 66.8309 94.8517 58.75 94.8407 50.68C94.8297 46.0828 94.7525 41.4855 94.521 36.8883C94.4989 36.6788 94.1682 36.6788 94.1792 36.8883Z" fill="#161616"/>
<path d="M94.5877 36.8882C100.706 33.8564 107.2 31.6736 113.903 30.3837C114.112 30.3396 114.024 30.0199 113.814 30.064C107.089 31.3649 100.563 33.5698 94.4223 36.6015C94.2349 36.7007 94.4002 36.9874 94.5877 36.8882Z" fill="#161616"/>
<path d="M113.79 30.2842C115.609 39.4456 116.161 48.8055 116.15 58.1322C116.127 67.459 115.576 76.7637 115.124 86.0794C114.86 91.4484 114.595 96.8063 114.33 102.175C114.319 102.385 114.65 102.385 114.661 102.175C115.135 92.6721 115.631 83.1689 116.061 73.6548C116.48 64.328 116.745 54.9792 116.116 45.6635C115.764 40.4709 115.135 35.3004 114.121 30.2071C114.066 29.9866 113.746 30.0748 113.79 30.2842Z" fill="#161616"/>
<path d="M91.9737 98.4381C92.4698 99.0113 93.3518 99.1216 94.0463 99.331C94.9944 99.6177 95.9535 99.9043 96.9017 100.191C98.8199 100.764 100.727 101.371 102.667 101.856C106.46 102.782 110.352 102.969 114.199 102.308C114.409 102.275 114.32 101.955 114.111 101.988C110.319 102.638 106.482 102.451 102.756 101.536C100.981 101.106 99.2389 100.555 97.497 100.026C96.615 99.761 95.7331 99.4964 94.8511 99.2318C94.4101 99.0995 93.9691 98.9672 93.5281 98.8349C93.0651 98.6916 92.547 98.5924 92.2162 98.2065C92.0619 98.0522 91.8304 98.2837 91.9737 98.4381Z" fill="#161616"/>
<path d="M114.011 30.2953C114.419 30.3945 114.827 30.4938 115.246 30.593C115.456 30.6481 115.544 30.3284 115.334 30.2733C114.926 30.174 114.519 30.0748 114.1 29.9756C113.89 29.9315 113.802 30.2512 114.011 30.2953Z" fill="#161616"/>
<path d="M115.224 30.4825C116.327 34.9364 116.624 39.5887 116.944 44.1639C117.275 48.8383 117.451 53.5238 117.528 58.2202C117.661 67.5359 117.341 76.8517 116.812 86.1564C116.514 91.4261 116.139 96.6958 115.753 101.966C115.742 102.175 116.073 102.175 116.084 101.966C116.779 92.5947 117.407 83.2239 117.705 73.831C118.002 64.4601 117.98 55.0672 117.385 45.6963C117.065 40.603 116.779 35.3774 115.555 30.4053C115.489 30.1848 115.169 30.273 115.224 30.4825Z" fill="#161616"/>
<path d="M114.507 102.363C114.992 102.318 115.466 102.274 115.951 102.23C116.16 102.208 116.16 101.877 115.951 101.899C115.466 101.944 114.992 101.988 114.507 102.032C114.297 102.054 114.297 102.385 114.507 102.363Z" fill="#161616"/>
<path d="M40.9195 41.0663C40.1808 48.7063 39.7398 56.3683 39.5965 64.0414C39.4532 71.7476 39.6075 79.4647 40.0706 87.1599C40.3241 91.4815 40.688 95.7921 41.1289 100.092C41.151 100.301 41.4817 100.301 41.4597 100.092C40.6659 92.4627 40.1698 84.8006 39.9714 77.1275C39.7729 69.4214 39.8721 61.7042 40.28 54.0091C40.5116 49.6875 40.8313 45.3769 41.2392 41.0663C41.2723 40.8568 40.9415 40.8568 40.9195 41.0663Z" fill="#161616"/>
<path d="M18.6479 30.7365C25.8028 34.7163 33.2333 38.2001 40.8623 41.1657C41.0608 41.2429 41.149 40.9232 40.9505 40.846C33.3436 37.8914 25.9461 34.4187 18.8132 30.4498C18.6258 30.3396 18.4605 30.6262 18.6479 30.7365Z" fill="#161616"/>
<path d="M18.3086 30.6593C17.0848 39.9861 16.236 49.3679 15.7729 58.7719C15.3099 68.1758 15.2437 77.5907 15.5524 86.9947C15.7288 92.2754 16.0265 97.5562 16.4454 102.826C16.4675 103.035 16.7982 103.035 16.7762 102.826C16.0265 93.444 15.6737 84.0291 15.6957 74.6252C15.7178 65.2102 16.1367 55.8063 16.9305 46.4244C17.3825 41.1547 17.9558 35.907 18.6393 30.6593C18.6613 30.4498 18.3306 30.4498 18.3086 30.6593Z" fill="#161616"/>
<path d="M16.4328 103.036C22.5735 106.376 29.9269 105.66 36.1667 103.014C38.0409 102.22 39.8489 101.261 41.5908 100.213C41.7672 100.103 41.6018 99.8165 41.4254 99.9268C35.6155 103.444 28.8023 105.902 21.9341 104.623C20.0709 104.281 18.2629 103.653 16.5982 102.749C16.4218 102.65 16.2454 102.936 16.4328 103.036Z" fill="#161616"/>
<path d="M13.9958 102.12C14.7675 102.484 15.5613 102.793 16.3661 103.068C16.5645 103.135 16.6527 102.815 16.4543 102.749C15.6716 102.484 14.9109 102.186 14.1612 101.834C13.9628 101.745 13.7974 102.032 13.9958 102.12Z" fill="#161616"/>
<path d="M16.5323 30.7364C15.3416 39.9749 14.3494 49.2356 13.6989 58.5292C13.0595 67.7788 12.7508 77.0505 12.9493 86.3221C13.0595 91.5698 13.3241 96.8175 13.7761 102.043C13.7982 102.253 14.1289 102.253 14.1069 102.043C13.3131 92.7715 13.0816 83.4667 13.3021 74.162C13.5115 64.8904 14.151 55.6298 15.066 46.3912C15.5841 41.1656 16.1905 35.94 16.863 30.7254C16.8961 30.5269 16.5653 30.5269 16.5323 30.7364Z" fill="#161616"/>
<path d="M16.7197 30.9676C17.3591 30.8353 17.9985 30.7912 18.66 30.8242C18.8695 30.8353 18.8695 30.5045 18.66 30.4935C17.9765 30.4604 17.304 30.5156 16.6315 30.6479C16.422 30.6919 16.5102 31.0117 16.7197 30.9676Z" fill="#161616"/>
<path d="M98.4017 37.6378C98.8647 50.4263 98.8427 63.2258 98.3135 76.0142C98.1702 79.5972 97.9828 83.1691 97.7512 86.7521C97.7402 86.9616 98.071 86.9616 98.082 86.7521C98.8868 73.9857 99.1955 61.1862 99.008 48.3867C98.9529 44.8038 98.8647 41.2208 98.7324 37.6378C98.7214 37.4283 98.3907 37.4283 98.4017 37.6378Z" fill="#161616"/>
<path d="M103.748 33.0511C104.189 41.9479 104.41 50.8668 104.399 59.7746C104.399 68.6824 104.178 77.6013 103.737 86.4981C103.495 91.5363 103.175 96.5635 102.789 101.591C102.778 101.8 103.109 101.8 103.12 101.591C103.804 92.7049 104.267 83.8081 104.52 74.9003C104.763 65.9925 104.796 57.0736 104.608 48.1658C104.498 43.1276 104.322 38.0894 104.079 33.0511C104.068 32.8417 103.737 32.8417 103.748 33.0511Z" fill="#161616"/>
<path d="M110.164 31.0891C110.782 40.3387 111.157 49.6104 111.256 58.893C111.355 68.2088 111.201 77.5135 110.782 86.8182C110.55 92.0328 110.23 97.2474 109.823 102.451C109.812 102.66 110.142 102.66 110.153 102.451C110.859 93.2014 111.322 83.9297 111.509 74.6581C111.697 65.3534 111.631 56.0377 111.3 46.7219C111.112 41.5073 110.848 36.2927 110.495 31.0781C110.484 30.8686 110.153 30.8686 110.164 31.0891Z" fill="#161616"/>
<path d="M97.2645 90.8861C97.0109 93.7745 96.5479 96.6409 95.8754 99.4632C95.8313 99.6727 96.14 99.7609 96.1951 99.5514C96.8786 96.696 97.3417 93.8076 97.5952 90.8861C97.6173 90.6766 97.2865 90.6766 97.2645 90.8861Z" fill="#161616"/>
<path d="M22.2654 32.8862C20.9425 42.1358 20.3802 51.4846 20.292 60.8224C20.2149 70.2153 20.6007 79.5971 21.174 88.968C21.4937 94.2708 21.8685 99.5626 22.2434 104.865C22.2544 105.075 22.5851 105.075 22.5741 104.865C21.9126 95.5276 21.2512 86.1898 20.8874 76.841C20.5236 67.5143 20.4684 58.1654 21.0086 48.8387C21.3173 43.5359 21.8244 38.2331 22.5741 32.9744C22.6182 32.7759 22.2985 32.6767 22.2654 32.8862Z" fill="#161616"/>
<path d="M28.6025 35.9726C27.7646 44.9135 27.2023 53.8875 27.0149 62.8725C26.8385 71.8465 27.048 80.8205 27.7866 89.7724C28.1945 94.7444 28.7678 99.6945 29.5175 104.622C29.5506 104.832 29.8703 104.744 29.8372 104.534C28.4922 95.6485 27.7205 86.6745 27.4339 77.6895C27.1472 68.8258 27.3126 59.94 27.7977 51.0873C28.0733 46.0491 28.4591 41.0109 28.9332 35.9837C28.9552 35.7632 28.6245 35.7632 28.6025 35.9726Z" fill="#161616"/>
<path d="M34.9547 38.6077C33.8743 46.9533 33.2459 55.354 33.0805 63.7657C32.9152 72.1774 33.2018 80.6002 33.9404 88.9788C34.3594 93.6532 34.9106 98.3056 35.6052 102.947C35.6382 103.156 35.9579 103.068 35.9249 102.859C34.6791 94.5462 33.8853 86.1786 33.5436 77.7889C33.2018 69.4213 33.3231 61.0316 33.8853 52.664C34.205 47.9676 34.6681 43.2711 35.2744 38.5967C35.3185 38.3983 34.9878 38.3983 34.9547 38.6077Z" fill="#161616"/>
<path opacity="0.12" d="M107.695 31.8384C108.919 36.8325 109.911 42.6865 110.242 49.2461C111.069 65.9373 107.144 79.5746 103.726 88.3281C101.312 92.1977 98.9085 96.0673 96.4941 99.937C98.8424 100.951 102.326 102.131 106.67 102.484C109.668 102.726 112.27 102.506 114.299 102.175C114.321 101.69 114.685 94.3144 114.707 93.8294C115.908 69.1234 115.986 67.4366 116.03 65.7388C116.228 58.8265 116.195 48.9044 115.015 36.5238C114.607 34.4181 114.2 32.3124 113.792 30.2178C111.774 30.747 109.735 31.2872 107.695 31.8384Z" fill="#3F3F3F"/>
<path opacity="0.13" d="M30.7541 37.23C30.4675 38.4316 30.0375 40.2286 29.5304 42.4225C27.2814 52.2123 25.6277 59.4113 24.7457 66.0371C23.1802 77.7121 21.6699 89.0232 28.1082 98.3059C29.9824 101.007 32.0329 102.826 33.4 103.906C32.077 104.425 30.4344 104.899 28.5161 105.13C23.1802 105.758 18.9027 104.028 16.8081 102.991C16.0143 95.6821 15.4631 87.8546 15.2867 79.5752C14.8898 61.2524 16.3781 44.7818 18.6492 30.6152C22.6731 32.8201 26.7081 35.025 30.7541 37.23Z" fill="#3F3F3F"/>
<path d="M19.1906 25.3674C19.0473 25.4776 19.1575 25.9076 19.356 26.6462C19.4332 26.9328 19.5103 27.1533 19.5544 27.2967C19.4662 27.892 19.3891 28.4873 19.3009 29.0826C19.1245 29.1047 18.6725 29.2039 18.2535 29.5677C17.8677 29.9095 17.7133 30.3064 17.6582 30.4827C18.011 30.5158 18.4409 30.593 18.904 30.7363C19.5765 30.9458 20.1057 31.2324 20.4915 31.475C20.4915 31.6072 20.5136 31.8608 20.69 32.0482C20.8443 32.2026 21.0317 32.2246 21.142 32.2467C21.5388 32.3128 22.0129 32.401 22.6192 32.5333C22.8838 32.6877 23.3248 32.9412 23.865 33.2389C25.6951 34.2311 26.3566 34.3965 28.1866 35.3666C29.3663 35.995 29.267 36.0171 30.0939 36.4139C31.3617 37.0313 32.4531 37.3951 33.1918 37.6046C33.5005 37.2628 33.9966 36.6014 34.2722 35.6422C34.4927 34.8815 34.4816 34.2201 34.4375 33.7901C34.625 33.8893 34.9226 33.9996 35.2644 33.9555C36.1464 33.8563 36.7086 32.853 36.885 32.1364C37.0393 31.508 36.896 31.1111 36.7747 30.3725C36.4991 28.7188 36.2566 27.2415 36.9401 26.3044C37.5134 25.5217 38.693 25.1579 39.6411 24.1106C39.7293 24.0113 39.8947 23.8239 39.8396 23.7357C39.7403 23.5704 38.9686 23.857 38.5938 24.0224C38.3513 24.1326 36.5322 24.9705 35.981 26.8667C35.8928 27.1644 35.8818 28.0243 35.8707 29.7331C35.8597 30.9788 35.8818 31.6844 35.3857 32.0923C35.1321 32.3018 34.7573 32.4231 34.4155 32.3459C33.9084 32.2356 33.6658 31.7395 33.4453 31.4088C32.8721 30.5379 32.0562 30.1741 31.053 29.678C30.2703 29.2921 29.5978 29.1488 28.2418 28.8511C26.9629 28.5755 26.5771 28.6086 26.0258 28.2007C25.4085 27.7376 25.0667 27.0872 24.8903 26.7234C24.7139 26.3816 24.4383 25.8414 24.317 25.0697C24.2509 24.6177 24.2619 24.298 24.1517 24.2759C23.9532 24.2318 23.854 25.1469 23.1815 25.4666C22.7736 25.665 22.509 25.4776 21.7924 25.4997C21.3294 25.5107 20.8002 25.6099 20.2049 25.8745C20.0064 25.7312 19.3891 25.224 19.1906 25.3674Z" fill="black"/>
<path d="M19.5203 28.9947C19.2888 27.1756 20.9425 25.5219 22.7726 25.7094C24.5034 25.8858 25.65 27.9914 25.5949 29.568C25.5838 29.7774 25.9146 29.7774 25.9256 29.568C25.9807 27.8261 24.6798 25.533 22.7726 25.3786C20.7661 25.2133 18.936 26.9882 19.1896 28.9947C19.2227 29.1931 19.5534 29.2041 19.5203 28.9947Z" fill="black"/>
<path d="M19.4874 30.1408C20.1599 31.4528 21.6041 32.3788 23.1144 32.1804C24.4925 31.993 25.6611 30.8795 25.8706 29.5014C25.9036 29.292 25.5839 29.2038 25.5509 29.4132C25.3634 30.67 24.3271 31.6843 23.0703 31.8497C21.6923 32.0371 20.3914 31.1772 19.774 29.9755C19.6748 29.7881 19.3881 29.9534 19.4874 30.1408Z" fill="black"/>
<path d="M20.6776 31.7392C20.6445 31.3203 21.8352 31.1439 22.1328 31.0777C22.673 30.9565 23.2243 30.8903 23.7755 30.8903C24.8008 30.8903 25.7819 31.1549 26.6529 31.6951C26.8293 31.8054 27.0057 31.5187 26.8183 31.4085C25.6938 30.7139 24.3818 30.4714 23.0809 30.5927C22.3974 30.6588 21.7249 30.8021 21.0745 31.0226C20.7217 31.1439 20.3028 31.2982 20.3358 31.7392C20.3579 31.9487 20.6996 31.9487 20.6776 31.7392Z" fill="black"/>
<path d="M25.4185 27.9249C26.1131 28.7628 27.2376 28.9612 28.2408 29.1817C29.5748 29.4904 30.9528 29.766 32.1214 30.5046C34.5358 32.026 34.9878 35.3444 33.0806 37.4721C32.9372 37.6265 33.1688 37.869 33.3121 37.7037C35.0099 35.8185 35.054 32.93 33.3011 31.0559C32.375 30.0637 31.052 29.5455 29.7622 29.2037C28.4503 28.862 26.5651 28.8069 25.639 27.6824C25.5177 27.528 25.2862 27.7595 25.4185 27.9249Z" fill="black"/>
<path d="M33.1375 33.691C32.5862 32.9634 31.6161 32.7099 30.7672 33.0626C29.7199 33.4926 29.6647 34.7825 29.786 35.7637C29.8081 35.9731 30.1388 35.9731 30.1167 35.7637C30.0175 34.9919 30.0065 33.8013 30.8003 33.4154C31.4838 33.0737 32.3768 33.2501 32.8398 33.8674C32.9721 34.0328 33.2587 33.8674 33.1375 33.691Z" fill="black"/>
<path d="M30.0709 35.6093C29.4645 35.1462 28.8361 34.7493 28.0534 34.9588C27.9652 34.9809 27.9211 35.0801 27.9431 35.1572C28.1416 35.929 29.3543 36.2487 29.9937 36.5243C30.9749 36.9542 31.9781 37.3181 32.9924 37.6378C33.1908 37.7039 33.279 37.3842 33.0806 37.3181C32.2647 37.0645 31.471 36.7889 30.6772 36.4581C30.2472 36.2817 29.8283 36.0943 29.4094 35.8959C29.0345 35.7195 28.3621 35.51 28.2518 35.069C28.2187 35.1352 28.1746 35.2013 28.1416 35.2675C28.8251 35.0801 29.3873 35.488 29.8945 35.8849C30.0709 36.0282 30.2362 35.7415 30.0709 35.6093Z" fill="black"/>
<path d="M20.3803 31.7066C20.8103 32.4121 21.6812 32.5334 22.4419 32.6436C23.5664 32.809 24.6909 32.809 25.8154 32.6877C26.0249 32.6657 26.0249 32.335 25.8154 32.357C24.9114 32.4562 24.0074 32.4783 23.1034 32.3901C22.3427 32.3129 21.119 32.2688 20.6559 31.5412C20.5567 31.3538 20.2701 31.5191 20.3803 31.7066Z" fill="black"/>
<path d="M17.8119 30.582C17.9552 29.8103 18.6277 29.4134 19.3774 29.3803C19.3222 29.3362 19.2671 29.3031 19.223 29.259C19.2781 29.5236 19.3553 29.7772 19.4656 30.0197C19.5427 30.2182 19.8624 30.13 19.7853 29.9315C19.686 29.678 19.6089 29.4354 19.5427 29.1708C19.5317 29.1047 19.4545 29.0496 19.3884 29.0496C18.5064 29.0937 17.6686 29.5787 17.5032 30.4938C17.4591 30.7032 17.7788 30.7914 17.8119 30.582Z" fill="black"/>
<path d="M19.7316 27.1642C19.5662 26.6902 19.445 26.1941 19.4009 25.687C19.4009 25.6429 19.3898 25.5988 19.3898 25.5547C19.3788 25.4554 19.3898 25.4665 19.4339 25.5877C19.5332 25.6539 19.6324 25.731 19.7316 25.8082C19.897 25.9515 20.0513 26.1059 20.1836 26.2713C20.3269 26.4366 20.5584 26.1941 20.4151 26.0397C20.2277 25.8192 19.445 24.9152 19.1142 25.268C18.9489 25.4444 19.0701 25.8523 19.1032 26.0508C19.1583 26.4587 19.2686 26.8666 19.4009 27.2524C19.4891 27.4509 19.8088 27.3737 19.7316 27.1642Z" fill="black"/>
<path d="M23.4569 25.6212C23.5562 25.4448 23.6554 25.2684 23.7656 25.092C23.8097 25.0149 23.8538 24.9487 23.8869 24.8715C23.953 24.7613 23.953 24.6621 24.0853 24.6952C24.2397 24.7282 24.1846 25.092 24.1846 25.2243C24.1846 25.4338 24.1956 25.6433 24.1956 25.8527C24.1956 26.0622 24.5263 26.0622 24.5263 25.8527C24.5263 25.511 24.5373 25.1692 24.5153 24.8274C24.5043 24.607 24.4271 24.3644 24.1846 24.2872C23.9641 24.2211 23.8097 24.3644 23.6995 24.5298C23.5121 24.8274 23.3467 25.1472 23.1703 25.4448C23.0601 25.6433 23.3467 25.8086 23.4569 25.6212Z" fill="black"/>
<path d="M34.0188 32.8311C34.085 33.669 35.0221 33.9446 35.6725 33.5367C36.6316 32.9414 36.8411 31.5964 36.7198 30.5821C36.5545 29.193 36.2237 27.9032 36.6978 26.5251C37.1498 25.2132 38.2743 24.1438 39.6965 24.0556C39.9059 24.0446 39.9059 23.7139 39.6965 23.7249C37.7561 23.8461 36.4332 25.4998 36.1576 27.3299C35.9922 28.4213 36.2348 29.4356 36.3781 30.505C36.4663 31.2105 36.4222 31.883 36.1025 32.5335C35.9591 32.8091 35.7607 33.0847 35.4961 33.2611C35.0882 33.5147 34.3826 33.4375 34.3385 32.8422C34.3385 32.6217 34.0078 32.6107 34.0188 32.8311Z" fill="black"/>
<path d="M34.1945 33.426C34.5363 34.341 35.727 33.9331 36.2451 33.4039C37.094 32.544 36.9066 31.1108 36.8404 30.0194C36.8294 29.8099 36.4987 29.8099 36.5097 30.0194C36.5538 30.714 36.6199 31.4636 36.4987 32.1582C36.4435 32.4889 36.3223 32.7976 36.1018 33.0622C35.8592 33.3598 34.8009 34.1095 34.5143 33.3378C34.4371 33.1393 34.1174 33.2275 34.1945 33.426Z" fill="black"/>
<path d="M39.7072 23.7138C38.4504 24.1989 37.1826 24.8824 36.6754 26.2054C36.0911 27.7268 36.5101 29.3804 36.477 30.9569C36.477 31.1664 36.8077 31.1664 36.8077 30.9569C36.8408 29.5789 36.5101 28.1677 36.8408 26.8007C37.2046 25.3014 38.4504 24.5517 39.7954 24.0335C39.9938 23.9564 39.9056 23.6367 39.7072 23.7138Z" fill="black"/>
<path d="M39.4542 23.9012C38.2967 24.4304 37.2383 25.3564 36.6981 26.536C36.4115 27.1534 36.4556 27.8369 36.4556 28.5094C36.4556 29.3693 36.4886 30.2403 36.5548 31.1002C36.5658 31.3097 36.8965 31.3097 36.8855 31.1002C36.8414 30.4057 36.8084 29.7221 36.7973 29.0276C36.7863 28.3 36.6871 27.4401 36.9627 26.7565C37.4368 25.599 38.5061 24.706 39.6196 24.1878C39.818 24.0996 39.6527 23.813 39.4542 23.9012Z" fill="black"/>
<path d="M20.1726 27.8919C20.4812 28.4321 21.264 28.2447 21.3412 27.6494C21.3522 27.5392 21.1868 27.5502 21.1758 27.6494C21.1207 28.1014 20.5474 28.1896 20.3159 27.8148C20.2608 27.7156 20.1174 27.8037 20.1726 27.8919Z" fill="white"/>
<path d="M22.5075 27.4622C22.8493 28.0465 23.7202 27.815 23.7312 27.1425C23.7312 27.0323 23.5659 27.0323 23.5659 27.1425C23.5548 27.6607 22.9154 27.826 22.6508 27.385C22.5957 27.2858 22.4524 27.363 22.5075 27.4622Z" fill="white"/>
<path d="M21.846 28.1896C21.9232 28.5093 21.8571 28.829 21.6586 29.0936C21.5925 29.1818 21.7358 29.259 21.802 29.1818C22.0224 28.8842 22.0886 28.5093 22.0114 28.1455C21.9783 28.0463 21.813 28.0904 21.846 28.1896Z" fill="white"/>
<path d="M21.9133 28.1789C21.8802 28.5978 22.1117 28.9947 22.4976 29.1711C22.5968 29.2152 22.674 29.0719 22.5858 29.0278C22.255 28.8734 22.0456 28.5427 22.0787 28.1789C22.0787 28.0686 21.9133 28.0686 21.9133 28.1789Z" fill="white"/>
<path d="M19.2229 29.16C20.193 29.0828 20.8104 29.8766 21.4608 30.4609C21.538 30.527 21.6593 30.4168 21.5821 30.3396C20.8986 29.7222 20.2371 28.9174 19.2229 28.9836C19.1236 28.9946 19.1236 29.16 19.2229 29.16Z" fill="white"/>
<path d="M21.0302 31.1003C22.276 30.3065 23.7532 30.042 25.1975 30.3617C25.2967 30.3837 25.3408 30.2294 25.2416 30.2073C23.7532 29.8876 22.2319 30.1522 20.953 30.968C20.8538 31.0121 20.942 31.1554 21.0302 31.1003Z" fill="white"/>
<path d="M24.1623 32.6107C25.1876 32.6768 26.1577 32.3571 26.9405 31.6846C27.0177 31.6185 26.9074 31.4972 26.8192 31.5633C26.0696 32.2028 25.1435 32.5114 24.1623 32.4453C24.0631 32.4453 24.0631 32.6107 24.1623 32.6107Z" fill="white"/>
<path d="M23.8653 24.783C23.6228 25.1909 23.5677 25.665 23.711 26.117C23.744 26.2162 23.8984 26.1721 23.8653 26.0729C23.733 25.665 23.7771 25.235 23.9976 24.8712C24.0638 24.772 23.9204 24.6838 23.8653 24.783Z" fill="white"/>
<path d="M19.4979 25.8085C19.7625 25.9739 19.9279 26.2275 19.994 26.5251C20.0161 26.6244 20.1704 26.5803 20.1484 26.481C20.0712 26.1393 19.8728 25.8526 19.5751 25.6652C19.4869 25.6101 19.4097 25.7534 19.4979 25.8085Z" fill="white"/>
<path d="M25.3299 27.572C25.5393 27.8256 25.7819 28.0461 26.0575 28.2114C26.1457 28.2666 26.2339 28.1232 26.1457 28.0681C25.8811 27.9027 25.6385 27.6933 25.4511 27.4507C25.374 27.3736 25.2637 27.4948 25.3299 27.572Z" fill="white"/>
<path d="M32.1334 32.9856C31.9018 32.4013 30.7884 32.7982 30.4246 33.0297C29.7741 33.4597 29.4875 34.2645 29.73 35.0031C29.7631 35.1023 29.9174 35.0582 29.8844 34.959C29.6969 34.3747 29.8513 33.7463 30.3143 33.3164C30.5128 33.129 30.7773 32.9967 31.0419 32.9305C31.2293 32.8754 31.8688 32.7541 31.968 33.0187C32.0121 33.129 32.1664 33.0849 32.1334 32.9856Z" fill="white"/>
<path d="M29.8616 35.0139C29.0016 34.6501 28.0866 34.617 27.1936 34.8926C27.0944 34.9257 27.1385 35.08 27.2377 35.047C28.1087 34.7713 28.9796 34.8154 29.8175 35.1682C29.9167 35.2123 29.9608 35.047 29.8616 35.0139Z" fill="white"/>
<path d="M60.1482 80.8647C59.6962 81.9451 59.6962 82.7499 59.63 84.8225C59.5529 87.3802 59.3324 89.9268 59.3103 92.4735C59.2883 94.6233 59.2552 97.8755 59.167 102.109C62.6948 102.307 66.5975 102.351 70.831 102.142C74.8659 101.944 78.5922 101.536 81.9547 101.029C80.3672 95.6596 79.3198 91.7459 78.5702 88.7141C78.1733 87.0935 77.589 84.6681 75.9794 81.8348C75.0974 80.2804 74.1824 79.1118 73.5099 78.329C73.3335 78.1747 69.4419 74.9004 64.9439 76.4438C64.7234 76.532 61.4491 77.7227 60.1482 80.8647Z" fill="#EC615B"/>
<path d="M66.6407 87.2916C67.3793 88.6036 68.118 89.9155 68.8456 91.2274C68.9448 91.4148 69.2315 91.2494 69.1322 91.062C68.3936 89.7501 67.6549 88.4382 66.9273 87.1263C66.8281 86.9388 66.5415 87.1042 66.6407 87.2916Z" fill="#C64F4F"/>
<path d="M66.5549 87.2261C68.2527 89.3428 69.2338 91.7572 69.763 94.4031C70.2591 96.9057 70.5788 99.4413 70.7663 101.988C70.7773 102.197 71.108 102.197 71.097 101.988C70.8986 99.3752 70.5678 96.7624 70.0607 94.1936C69.5315 91.5367 68.4952 89.1113 66.7974 86.9946C66.6651 86.8182 66.4226 87.0608 66.5549 87.2261Z" fill="#C64F4F"/>
<path opacity="0.19" d="M69.21 76.1904C69.5958 76.9621 70.147 78.0977 70.7644 79.4647C72.5614 83.4556 74.4246 87.667 75.4168 92.8485C75.8247 94.9432 76.2105 97.9749 76.0452 101.756C76.9712 101.712 77.9524 101.635 78.9777 101.525C80.003 101.415 80.9842 101.282 81.9102 101.128C81.6236 100.158 81.1606 98.6143 80.6424 96.7071C79.1982 91.3712 78.9997 89.7065 77.765 86.1897C76.85 83.5769 76.0011 81.8019 74.7774 80.1041C73.6749 78.5717 72.6386 77.6126 71.3267 76.9401C70.5109 76.5212 69.7502 76.3117 69.21 76.1904Z" fill="#3F3F3F"/>
<path opacity="0.11" d="M66.5752 87.3469C67.0052 88.9565 67.38 90.8748 67.5564 93.0356C67.8651 96.7729 67.4682 99.959 66.9831 102.34C68.2509 102.263 69.5077 102.186 70.7755 102.109C70.6432 99.6062 70.3566 97.5005 70.081 95.902C69.3865 91.8339 68.6588 90.3235 68.0745 89.3534C67.5233 88.4604 66.9721 87.7879 66.5752 87.3469Z" fill="#3F3F3F"/>
<path d="M52.4488 62.0789C52.085 62.3215 51.8645 62.7845 51.4345 63.6995C51.0817 64.4492 50.9164 65.0335 50.6518 65.9044C49.9242 68.3739 50.0013 67.955 49.7478 68.8921C49.417 70.1379 48.8217 72.3207 48.491 75.1981C48.1713 77.9873 48.2374 80.1371 48.2484 80.6553C48.3697 83.9296 48.943 86.366 49.3288 87.9315C50.0124 90.7427 50.9274 93.0799 52.7464 97.7433C53.1433 98.7465 53.4741 99.5734 53.7056 100.147C53.5402 100.169 53.2756 100.202 52.9559 100.246C51.2912 100.444 51.0597 100.4 50.3872 100.544C49.5273 100.731 48.7556 100.918 48.4579 101.569C48.3256 101.866 48.2705 102.285 48.4358 102.429C48.6453 102.605 49.0532 102.208 49.7588 101.977C50.3541 101.789 50.8833 101.8 51.2471 101.855C50.9605 102.418 50.7951 102.925 50.6959 103.289C50.4533 104.127 50.2659 104.81 50.5746 105.295C50.729 105.538 51.0266 105.758 51.2692 105.692C51.4014 105.659 51.5227 105.538 51.8535 104.667C52.1732 103.796 52.1952 103.52 52.4598 103.178C52.6913 102.892 52.9559 102.737 53.1323 102.649C53.0441 102.925 52.9449 103.333 52.9008 103.829C52.8787 104.127 52.8457 104.402 52.9008 104.755C52.9449 105.075 53.0441 105.758 53.5512 106.133C53.6394 106.199 54.0032 106.475 54.2237 106.331C54.4111 106.221 54.356 105.912 54.4332 104.92C54.4993 104.082 54.5655 103.851 54.6206 103.719C54.7639 103.333 54.9844 103.057 55.1498 102.892C55.0947 103.686 55.1057 104.347 55.1277 104.832C55.1718 105.615 55.249 105.968 55.5026 106.188C55.6459 106.309 55.8884 106.431 56.0869 106.342C56.2853 106.254 56.3515 105.979 56.4066 105.637C56.6491 104.347 56.5058 103.972 56.7814 103.322C56.8917 103.068 57.0129 102.759 57.3106 102.539C57.939 102.076 58.832 102.352 58.9533 102.385C59.4824 102.55 59.6809 102.837 59.9455 102.715C60.166 102.616 60.2872 102.296 60.2982 102.032C60.3093 101.381 59.5927 100.885 58.9753 100.477C58.6666 100.268 58.2036 99.9923 57.5862 99.7718C57.046 98.7024 56.3625 97.148 55.8002 95.1746C55.4254 93.8516 55.249 92.8374 55.0836 91.8783C54.4993 88.5158 54.7088 87.2259 54.0584 83.8855C53.904 83.0807 53.7497 82.4412 53.6615 82.0774C53.7056 81.5262 53.7827 80.6663 53.893 79.619C54.2568 76.2014 54.4993 74.0626 55.238 71.549C55.8223 69.5756 56.4176 67.955 56.4176 67.955C57.1673 65.9375 57.4098 65.6619 57.3216 65.0115C57.0129 62.9609 53.8048 61.1749 52.4488 62.0789Z" fill="white"/>
<path d="M51.6 63.1261C49.6376 67.6571 48.4029 72.4969 48.1383 77.4359C47.8627 82.4741 48.7336 87.4021 50.3652 92.1647C51.2913 94.8878 52.4158 97.5336 53.5623 100.18C53.6505 100.378 53.9262 100.202 53.849 100.014C51.8646 95.428 49.9242 90.7756 48.9982 85.8587C48.0831 81.0079 48.2706 75.9917 49.3289 71.174C49.9242 68.473 50.7842 65.8381 51.8866 63.3025C51.9638 63.104 51.6882 62.9276 51.6 63.1261Z" fill="#161616"/>
<path d="M55.7124 69.4211C54.3233 73.6214 53.5957 78.0202 53.5186 82.441C53.5186 82.6505 53.8493 82.6505 53.8493 82.441C53.9265 78.0422 54.6541 73.6876 56.0321 69.5093C56.0983 69.3108 55.7786 69.2226 55.7124 69.4211Z" fill="#161616"/>
<path d="M52.3604 80.4345C53.3415 81.8016 53.7384 83.4332 53.9699 85.0649C54.2125 86.7296 54.3227 88.4163 54.5653 90.081C55.0503 93.4656 55.8441 96.8391 57.4427 99.8708C57.5419 100.058 57.8285 99.8929 57.7293 99.7054C56.0646 96.5524 55.2819 93.0356 54.8188 89.5298C54.4109 86.4539 54.5322 82.893 52.647 80.2692C52.5257 80.1038 52.2391 80.2692 52.3604 80.4345Z" fill="#161616"/>
<path d="M53.5186 100.026C52.4933 100.081 51.468 100.18 50.4648 100.367C49.7482 100.511 48.9875 100.742 48.4914 101.316C48.2048 101.657 47.841 102.473 48.4693 102.705C48.745 102.804 48.9875 102.616 49.219 102.484C49.7923 102.153 50.3876 101.812 51.0711 101.999C51.2806 102.054 51.3688 101.734 51.1593 101.679C50.5971 101.525 50.09 101.657 49.5828 101.911C49.4285 101.988 49.2852 102.065 49.1418 102.153C49.0536 102.197 48.9765 102.253 48.8883 102.308C48.7891 102.131 48.6788 101.955 48.5796 101.779C48.6016 101.503 49.1529 101.183 49.3513 101.073C49.8915 100.786 50.5199 100.687 51.1152 100.599C51.92 100.478 52.7248 100.4 53.5296 100.356C53.7391 100.345 53.7391 100.015 53.5186 100.026Z" fill="#161616"/>
<path d="M52.6156 101.006C51.7446 101.15 51.028 101.745 50.6973 102.55C50.3445 103.388 50.0469 104.633 50.4548 105.493C50.7635 106.144 51.5241 106.375 51.8108 105.582C51.9872 105.086 51.9541 104.545 52.1305 104.049C52.351 103.432 52.7258 102.903 53.2771 102.539C53.4534 102.418 53.2881 102.131 53.1117 102.252C52.5935 102.594 52.2077 103.057 51.9541 103.619C51.8218 103.906 51.7226 104.204 51.6564 104.512C51.6013 104.766 51.5682 106.045 50.9619 105.67C50.6201 105.46 50.5871 104.788 50.5981 104.446C50.6201 103.939 50.7524 103.355 50.9178 102.87C51.1934 102.054 51.8439 101.469 52.6927 101.326C52.9132 101.293 52.825 100.973 52.6156 101.006Z" fill="#161616"/>
<path d="M53.6506 101.823C52.9671 102.263 52.7245 103.223 52.6584 103.994C52.5922 104.821 52.8237 105.714 53.4411 106.298C53.8049 106.64 54.3672 106.817 54.4664 106.177C54.6318 105.108 54.2018 103.597 55.3704 102.958C55.5578 102.859 55.3925 102.572 55.205 102.671C54.7861 102.903 54.5215 103.278 54.3561 103.73C54.1246 104.391 54.2569 105.064 54.1577 105.747C54.1136 106.056 54.0254 106.387 53.6836 106.067C53.5624 105.957 53.4521 105.813 53.3639 105.67C53.1545 105.339 53.0332 104.965 53.0001 104.579C52.923 103.807 53.1214 102.572 53.827 102.109C53.9923 101.988 53.827 101.701 53.6506 101.823Z" fill="#161616"/>
<path d="M55.2168 102.704C55.0073 103.498 54.8089 104.325 54.9411 105.151C54.9963 105.548 55.2278 106.518 55.7349 106.618C56.3082 106.728 56.5397 105.714 56.5948 105.339C56.7161 104.523 56.5618 103.542 57.2012 102.913C57.3555 102.759 57.124 102.528 56.9697 102.682C56.1979 103.443 56.4625 104.545 56.231 105.515C56.1538 105.868 55.9334 106.397 55.5695 105.989C55.3711 105.78 55.316 105.372 55.2719 105.096C55.1616 104.325 55.3491 103.553 55.5475 102.803C55.5916 102.594 55.2719 102.506 55.2168 102.704Z" fill="#161616"/>
<path d="M57.5955 100.058C58.2459 100.323 58.9184 100.61 59.4255 101.117C59.657 101.348 59.9437 101.701 60.0098 102.032C60.1752 102.947 59.4917 102.362 59.2381 102.252C58.5436 101.944 57.1655 102.164 56.7686 102.87C56.6694 103.057 56.956 103.222 57.0553 103.035C57.2647 102.649 57.838 102.55 58.2349 102.495C58.4774 102.462 58.753 102.44 58.9846 102.506C59.2491 102.583 59.4145 102.814 59.6681 102.892C60.0319 103.002 60.3075 102.748 60.3626 102.396C60.4618 101.822 59.9657 101.183 59.5799 100.808C59.0397 100.29 58.3451 100.003 57.6616 99.7276C57.4852 99.6614 57.408 99.9811 57.5955 100.058Z" fill="#161616"/>
<path opacity="0.13" d="M55.3696 65.8601C54.1017 65.9372 53.341 69.1784 52.9221 70.9754C52.4481 72.9929 52.0181 75.7711 52.1063 79.8171C52.1835 83.4332 52.6465 86.1893 52.8008 87.1484C53.4954 91.2716 54.5868 94.7333 55.6562 97.4454C56.009 98.4376 56.3507 99.4298 56.7035 100.411C56.5051 101.227 56.3066 102.065 56.1192 102.936C55.8767 104.082 55.6562 105.207 55.4798 106.287C55.6893 106.309 55.9759 106.298 56.1744 106.1C56.4279 105.846 56.3948 105.438 56.4059 105.085C56.4169 104.755 56.45 103.156 57.1666 102.561C57.6075 102.197 58.3131 102.197 58.7982 102.373C59.2943 102.561 59.5148 102.925 59.8455 102.814C60.0991 102.737 60.2755 102.428 60.3086 102.186C60.4188 101.381 58.8754 100.554 58.6218 100.422C58.1257 100.157 57.8942 100.124 57.5745 99.7936C57.1776 99.3747 57.0453 98.8785 56.9902 98.6581C56.0751 95.1743 55.6231 95.3948 55.0057 91.3929C54.5427 88.3722 54.8404 88.5486 54.3663 86.1452C54.0356 84.4474 53.76 83.7529 53.6718 82.2866C53.5726 80.677 53.76 79.4202 53.9584 78.3068C54.7853 73.7536 56.3728 68.2414 56.7587 66.9294C56.4059 66.3782 55.9208 65.827 55.3696 65.8601Z" fill="#3F3F3F"/>
<path d="M77.8765 20.538C77.5347 20.527 77.2701 21.1444 77.204 21.3097C77.1048 21.5523 76.9504 22.0263 77.0607 22.6988C77.0607 22.6988 77.1268 23.1619 77.3473 25.9621C77.4024 26.5905 77.4134 27.5055 77.2481 28.6521C76.8071 29.8648 76.3882 30.8129 76.1015 31.4303C75.1314 33.5029 74.4809 34.3297 73.1249 36.9536C72.6178 37.9347 72.5737 38.0891 71.9783 39.3018C70.49 42.3115 69.3986 44.1967 68.2851 46.2142C67.3039 47.9781 65.9259 50.5689 64.3053 53.8983C64.2281 54.1849 63.8422 55.7173 64.7352 57.0623C65.6833 58.4845 67.6678 59.1239 69.586 58.5065C69.8837 58.0876 70.3026 57.4371 70.6885 56.5883C71.0633 55.7614 71.2397 55.122 71.361 54.7141C71.4822 54.3062 71.9673 52.9281 72.9485 50.1499C73.2572 49.29 73.632 48.2647 74.3927 46.2583C75.5503 43.1824 76.1236 41.65 76.5094 40.6909C77.3804 38.508 78.0418 36.9977 79.3427 34.0651C80.0263 32.5217 80.8641 30.6585 81.8343 28.5418C82.3965 28.2221 83.1683 27.726 83.9951 27.0094C85.1857 25.9841 85.7811 25.1132 86.9276 23.4595C87.6663 22.3791 88.2285 21.431 88.0742 20.4829C88.0521 20.3506 87.997 19.9647 87.7875 19.9096C87.5229 19.8325 87.1922 20.3616 86.8284 20.8247C86.4536 21.2987 85.8913 21.9161 85.0534 22.5555C85.3401 21.7617 85.6267 21.1444 85.8252 20.7365C86.2772 19.8104 86.652 19.2151 86.8835 18.1898C87.1371 17.0984 86.9056 16.8999 86.8394 16.8448C86.5418 16.6243 86.0346 17.0432 85.737 16.8007C85.4724 16.5692 85.7039 16.0621 85.4944 15.9408C85.285 15.8195 84.8219 16.1833 84.4912 16.5692C83.9179 17.2307 83.7856 17.8701 83.5762 18.4875C83.3777 19.0938 83.0139 19.9207 82.3304 20.8357C82.165 20.8577 81.9445 20.8688 81.8453 20.7365C81.7351 20.5821 81.8894 20.3286 82.0327 19.9207C82.0658 19.8214 82.0438 19.8766 82.2753 18.8623C82.3635 18.4764 82.5288 17.7598 82.6611 17.1866C82.8485 16.3597 82.9367 16.018 82.7603 15.6542C82.7273 15.577 82.584 15.2793 82.3745 15.2683C82.1319 15.2573 81.9445 15.6431 81.8012 15.9408C81.2169 17.1425 80.9192 17.7488 80.8421 17.9583C80.4562 19.0056 79.9381 20.6042 79.8609 21.1554C79.8499 21.2215 79.8278 21.4531 79.7176 21.7507C79.6625 21.894 79.6294 21.9492 79.5963 22.0374C79.3207 22.6547 79.5522 23.0626 79.2656 23.2831C79.2325 23.3052 79.0671 23.4265 78.9348 23.3824C78.7915 23.3383 78.7254 23.1508 78.6482 22.5224C78.5379 21.6625 78.6041 21.409 78.4057 21.0341C78.2734 20.8688 78.108 20.549 77.8765 20.538Z" fill="white"/>
<path d="M77.3479 25.6428C77.4251 24.838 77.3038 24.0553 77.2597 23.2505C77.2377 22.8646 77.2377 22.4677 77.2928 22.0819C77.3259 21.8614 77.37 21.6409 77.4361 21.4314C77.5464 21.1117 77.5574 20.8471 77.9102 20.8361C78.2409 20.8251 78.2189 21.0235 78.274 21.2991C78.3291 21.5417 78.3401 21.7952 78.3512 22.0378C78.3732 22.3795 78.3842 22.7323 78.4614 23.0631C78.5386 23.4048 78.748 23.6915 79.1339 23.5702C79.3323 23.504 79.2552 23.1843 79.0457 23.2505C78.6598 23.3607 78.6929 22.0598 78.6709 21.8393C78.6378 21.4865 78.6047 21.1227 78.4724 20.792C78.285 20.329 77.8551 20.0975 77.4912 20.5274C77.0172 21.0786 76.918 22.0708 76.918 22.7544C76.918 23.7245 77.1054 24.6726 77.0172 25.6428C77.0062 25.8523 77.3369 25.8523 77.3479 25.6428Z" fill="#161616"/>
<path d="M79.2642 23.4377C79.8155 22.3683 79.9808 21.1556 80.3005 20.009C80.6423 18.7743 81.0723 17.5616 81.7117 16.4591C81.855 16.2166 81.9983 15.8748 82.2078 15.6874C82.6157 15.3126 82.6157 16.0292 82.5826 16.3379C82.5165 17.0214 82.3401 17.7159 82.1857 18.3884C82.0424 19.0058 81.844 19.6011 81.7007 20.2185C81.6235 20.5603 81.6235 20.8579 81.866 21.1225C82.0094 21.2769 82.2409 21.0453 82.0975 20.891C81.8219 20.5933 82.1086 19.998 82.1968 19.6783C82.296 19.3145 82.3952 18.9507 82.4724 18.5869C82.6267 17.9144 82.7811 17.2309 82.8803 16.5363C82.9354 16.1725 83.0126 15.5331 82.6929 15.2575C82.4173 15.0259 82.1416 15.2464 81.9542 15.4669C81.1494 16.4702 80.6533 17.7931 80.2564 19.0058C79.8044 20.4059 79.6611 21.9714 78.9776 23.2833C78.8784 23.4597 79.165 23.6251 79.2642 23.4377Z" fill="#161616"/>
<path d="M81.9438 21.1554C82.2746 21.1885 82.3958 20.9459 82.5502 20.6814C82.7927 20.2624 83.0132 19.8214 83.2227 19.3915C83.6306 18.5536 83.9172 17.6386 84.4133 16.8558C84.5236 16.6795 84.6559 16.459 84.8323 16.3267C84.9756 16.1613 85.163 16.1062 85.4055 16.1833C85.4386 16.3377 85.4607 16.492 85.4607 16.6464C85.4717 17.1866 85.2953 17.7268 85.1079 18.2339C84.733 19.2371 84.3141 20.2294 83.9062 21.2326C83.829 21.431 84.1487 21.5192 84.2259 21.3208C84.4574 20.7475 86.8387 15.7203 85.2843 15.6872C84.9756 15.6762 84.6228 16.0621 84.4464 16.2715C84.1377 16.6354 83.9172 17.0543 83.7188 17.4842C83.4873 18.0024 83.2778 18.5205 83.0353 19.0277C82.8919 19.3364 82.7266 19.6561 82.5722 19.9537C82.473 20.1522 82.2305 20.8357 81.9549 20.8137C81.7344 20.8026 81.7344 21.1334 81.9438 21.1554Z" fill="#161616"/>
<path d="M85.8464 17.0986C85.9677 16.4592 86.6623 16.9002 86.7504 17.3081C86.8276 17.6499 86.6953 17.9916 86.5851 18.3113C86.4197 18.7964 86.2323 19.2705 86.0339 19.7335C85.648 20.6375 85.196 21.4974 84.6889 22.3463C84.5786 22.5337 84.8653 22.6991 84.9755 22.5117C85.4496 21.7289 85.8685 20.9131 86.2433 20.0863C86.563 19.3697 86.9489 18.5759 87.0702 17.7932C87.1473 17.2971 87.004 16.6577 86.4528 16.4813C86.0449 16.349 85.6039 16.6025 85.5267 17.0215C85.4936 17.2199 85.8134 17.3081 85.8464 17.0986Z" fill="#161616"/>
<path d="M85.2077 22.644C85.6267 22.1699 86.0346 21.6959 86.4535 21.2218C86.674 20.9683 86.8724 20.6926 87.115 20.4722C87.1922 20.406 87.2693 20.3509 87.3355 20.2847C87.5229 20.3509 87.7103 20.417 87.9088 20.4832C87.9639 20.5824 87.8316 20.869 87.7985 20.9572C87.4567 22.0046 86.9606 22.9968 86.3763 23.9228C85.1967 25.786 83.5761 27.3515 81.6799 28.487C81.4925 28.5972 81.6689 28.8839 81.8453 28.7736C84.2045 27.3625 86.1448 25.2899 87.3685 22.8314C87.6662 22.2361 87.9529 21.6077 88.1403 20.9683C88.2505 20.5934 88.3167 20.0863 87.8867 19.8879C87.4678 19.6894 87.0268 20.0753 86.7622 20.3509C86.1338 21.0013 85.5605 21.7289 84.9652 22.4125C84.8329 22.5668 85.0644 22.7983 85.2077 22.644Z" fill="#161616"/>
<path d="M77.0605 25.3009C77.1377 26.3152 77.2148 27.3515 77.0495 28.3657C76.8841 29.369 76.4652 30.295 76.0021 31.199C75.0651 33.0291 74.0839 34.8371 73.1247 36.6562C71.2065 40.2943 69.2882 43.9213 67.3699 47.5594C66.2675 49.6431 65.165 51.7377 64.0626 53.8214C63.9633 54.0088 64.25 54.1742 64.3492 53.9867C68.307 46.479 72.342 39.0044 76.2337 31.4526C76.6967 30.5596 77.1266 29.6446 77.3141 28.6634C77.5345 27.5499 77.4574 26.4254 77.3692 25.3009C77.3802 25.0914 77.0495 25.0914 77.0605 25.3009Z" fill="#161616"/>
<path d="M81.6584 28.4101C78.1305 35.8627 75.0547 43.4916 72.3426 51.275C71.5489 53.535 70.7551 55.795 69.7959 57.9889C69.7078 58.1874 69.9944 58.3527 70.0826 58.1543C71.7252 54.417 72.9269 50.5033 74.3381 46.6888C75.7823 42.764 77.3478 38.8724 79.0125 35.0358C79.9606 32.864 80.9307 30.7142 81.945 28.5754C82.0332 28.388 81.7465 28.2227 81.6584 28.4101Z" fill="#161616"/>
<path opacity="0.1" d="M86.6397 16.9661C86.1877 16.8999 85.5813 18.7521 85.2285 19.6781C84.1591 22.5224 83.2551 22.8532 80.962 26.7118C80.1131 28.1339 78.9445 30.2727 77.7649 33.0619C74.2371 40.4924 70.7202 47.934 67.1924 55.3645C68.0523 56.4119 68.9012 57.4702 69.7611 58.5176C70.1911 57.2938 70.8195 55.4968 71.6022 53.325C73.0244 49.4113 74.8655 44.3731 77.4673 38.2434C78.5036 35.818 79.9367 32.5438 81.7778 28.6962C82.285 28.3765 82.9905 27.8804 83.7623 27.1969C84.7986 26.2928 86.1656 25.0691 87.1027 23.0737C87.4004 22.4563 87.7752 21.5082 87.9736 20.2624C87.8303 20.1963 87.6208 20.1191 87.3893 20.1632C86.9925 20.2404 86.783 20.6262 86.6176 20.8908C85.9782 21.872 85.0411 22.5224 84.9198 22.4453C84.8537 22.3902 85.0411 22.0704 85.5482 21.0341C86.5845 18.9064 86.1546 19.4687 86.5625 18.7521C86.794 18.3441 87.0255 17.9914 86.9484 17.5394C86.9484 17.3409 86.8271 16.9992 86.6397 16.9661Z" fill="#3F3F3F"/>
<path opacity="0.13" d="M85.9688 24.4849C85.4176 24.8376 84.6348 25.3558 83.7418 26.0393C82.7166 26.811 81.6141 27.6489 80.688 28.7073C79.4312 30.1405 78.88 31.5626 78.5493 32.3895C75.5175 40.1287 71.9125 48.5294 70.8872 50.8666C70.325 52.1454 69.443 54.0747 68.2744 56.3899C68.8036 57.0844 69.3438 57.779 69.873 58.4735C71.3944 53.8322 73.1473 48.9704 75.1537 43.9321C77.3145 38.5191 79.5525 33.4588 81.8015 28.7514C82.4079 28.3435 83.0914 27.8253 83.7859 27.1528C84.7671 26.2157 85.4727 25.2676 85.9688 24.4849Z" fill="#3F3F3F"/>
<path d="M56.6523 56.4008C56.2444 56.6764 55.3294 57.3158 54.3923 58.3521C53.4222 59.4215 52.8599 60.4247 52.3969 61.2736C52.0331 61.924 51.7685 62.4973 51.5811 62.9163C51.8677 63.4675 52.3307 64.3164 52.9701 65.3306C54.1057 67.1276 54.9876 68.0978 56.509 70.0491C57.1484 70.8649 58.0745 72.0887 59.177 73.6321C59.3534 74.4589 59.5077 75.3299 59.64 76.2449C59.9046 78.1191 60.0038 79.861 60.0038 81.4265C60.4117 81.8674 61.1173 82.5069 62.1536 82.9589C63.8734 83.7196 65.4389 83.4991 66.2547 83.3668C68.0627 83.0912 69.2975 82.2864 70.1464 81.7241C71.6898 80.7099 72.7371 79.4972 73.4317 78.4939C73.2884 76.7741 73.101 74.9991 72.8694 73.1581C72.671 71.5926 72.4505 70.0712 72.208 68.5939C72.1859 67.4363 72.0757 65.8598 71.7008 64.0297C71.3921 62.4973 71.0173 60.7113 69.9038 58.5946C68.5147 55.9598 66.7839 54.3612 66.1114 53.7769C65.5161 53.2588 64.9759 52.8729 64.579 52.5973C62.9694 53.6226 61.5803 54.262 60.6322 54.6479C58.8683 55.3755 58.0414 55.4857 56.6523 56.4008Z" fill="white"/>
<path d="M51.7574 62.9607C52.0992 61.6598 53.0473 60.4471 53.8631 59.3888C54.723 58.2863 55.6932 57.2831 56.8508 56.4783C57.0272 56.357 56.8618 56.0704 56.6854 56.1917C55.4948 57.0185 54.4915 58.0438 53.6096 59.1793C52.7607 60.2707 51.8015 61.5055 51.4487 62.8615C51.3936 63.082 51.7133 63.1592 51.7574 62.9607Z" fill="#161616"/>
<path d="M51.515 63.0711C53.7861 67.0399 56.4761 70.7662 59.5299 74.1728C59.6732 74.3271 59.9047 74.0956 59.7614 73.9412C56.7296 70.5567 54.0617 66.8525 51.8017 62.9057C51.6914 62.7183 51.4048 62.8836 51.515 63.0711Z" fill="#161616"/>
<path d="M60.8414 54.8025C62.0761 53.9316 63.4321 53.2811 64.8763 52.8622C65.0858 52.8071 64.9976 52.4874 64.7881 52.5425C63.3109 52.9725 61.9328 53.6339 60.676 54.5159C60.4996 54.6372 60.665 54.9238 60.8414 54.8025Z" fill="#161616"/>
<path d="M64.5997 52.9505C69.8695 56.6216 72.1295 63.06 71.8759 69.2888C71.8649 69.4983 72.1957 69.4983 72.2067 69.2888C72.4713 62.9277 70.1341 56.4011 64.7651 52.6638C64.5997 52.5426 64.4344 52.8292 64.5997 52.9505Z" fill="#161616"/>
<path d="M58.8121 73.5225C59.3854 74.7022 59.4515 76.1684 59.5728 77.4473C59.7051 78.7482 59.7492 80.0601 59.7492 81.372C59.7492 81.5815 60.0799 81.5815 60.0799 81.372C60.0909 79.9168 60.0248 78.4615 59.8594 77.0173C59.7271 75.7936 59.6389 74.4707 59.0987 73.3462C58.9995 73.1587 58.7239 73.3241 58.8121 73.5225Z" fill="#161616"/>
<path d="M59.9585 81.4377C61.6122 83.4662 64.4345 84.0395 66.893 83.4111C68.26 83.0583 69.5278 82.3858 70.6634 81.5479C71.7989 80.7101 72.8793 79.7399 73.5187 78.4611C73.618 78.2737 73.3313 78.1083 73.2321 78.2957C72.6147 79.5194 71.5784 80.4565 70.487 81.2613C69.4286 82.044 68.249 82.6835 66.9702 83.0473C64.5668 83.7198 61.7996 83.2016 60.179 81.2062C60.0578 81.0408 59.8263 81.2723 59.9585 81.4377Z" fill="#161616"/>
<path d="M71.9975 68.7928C72.5377 72.023 73.0669 75.2532 73.2543 78.5164C73.2653 78.7259 73.5961 78.7259 73.585 78.5164C73.3866 75.2201 72.8574 71.9568 72.3172 68.7046C72.2842 68.4951 71.9644 68.5833 71.9975 68.7928Z" fill="#161616"/>
<path opacity="0.13" d="M61.2607 54.3616C62.4845 55.8058 64.1602 58.0548 65.5603 61.0976C67.6109 65.5515 68.0188 69.3991 68.3275 72.6734C68.57 75.1649 68.7023 78.6376 68.2172 82.7829C69.1543 82.3749 70.4773 81.6694 71.7561 80.4457C72.4617 79.7621 72.9909 79.0786 73.3877 78.4833C73.0239 75.4074 72.6601 72.3206 72.2963 69.2447C72.3625 66.7091 71.9656 64.6585 71.5907 63.2694C70.4332 58.9699 68.2062 56.2027 67.4565 55.3318C66.4313 54.1301 65.428 53.2481 64.6894 52.6638C63.5428 53.2371 62.4073 53.7993 61.2607 54.3616Z" fill="#3F3F3F"/>
<path opacity="0.14" d="M69.474 58.2202C69.2756 58.2753 69.7386 60.0723 70.1796 62.7292C70.1796 62.7292 70.8521 66.7642 70.9954 70.6669C71.0946 73.2466 70.9623 77.017 69.8048 81.7024C70.3339 81.4378 70.9844 81.052 71.6569 80.5118C72.4727 79.8503 73.057 79.1558 73.4539 78.6045C73.3106 74.1616 72.9357 71.8575 72.583 70.5566C72.5168 70.303 72.3404 69.7077 72.1971 68.8699C71.9325 67.3044 72.0648 66.6319 71.9215 65.331C71.8112 64.2947 71.6018 63.6112 71.2159 62.3433C70.6316 60.4361 69.6945 58.154 69.474 58.2202Z" fill="#3F3F3F"/>
<path d="M56.4988 38.2658C55.7711 38.6737 54.8451 39.2911 53.9521 40.2282C52.1 42.2016 51.5047 44.4065 51.2952 45.4979C51.1298 45.4759 50.6778 45.4428 50.314 45.7294C49.7738 46.1484 49.7628 46.9752 49.9722 47.4603C50.0494 47.6367 50.1597 47.78 50.3912 48.0666C50.6668 48.4084 50.8432 48.6179 51.1298 48.7391C51.2511 48.7942 51.5267 48.8714 51.9236 48.7832C52.0449 49.147 52.2433 49.6542 52.541 50.2385C52.9268 50.9881 53.5111 52.1016 54.6797 53.0718C55.0215 53.3584 55.5507 53.7332 56.2673 54.075C56.5318 54.4168 57.0169 55.1334 57.072 56.1035C57.1823 57.8123 55.9365 59.2345 54.7569 59.8629C52.7063 60.9543 50.4794 59.8629 49.6636 59.455C49.2226 59.2345 47.0066 58.0879 46.0806 55.5743C44.9561 52.5426 46.4223 49.5108 47.2933 47.7028C48.1752 45.8838 48.5831 46.005 49.2556 44.2301C50.1486 41.8819 49.6746 41.055 50.6999 39.258C51.0967 38.5525 51.9015 37.1413 53.5883 36.4798C55.0325 35.9176 56.3665 36.2042 56.9397 36.3696C57.4138 36.083 58.2517 35.675 59.31 35.675C61.8236 35.675 63.4332 38.0563 63.8191 38.6296C64.9656 40.3164 64.3593 40.8345 65.3845 43.2048C66.6744 46.1925 67.9312 46.0161 69.0888 48.8163C69.651 50.1833 70.5881 52.4434 69.5518 54.6042C68.4824 56.8311 66.046 57.4816 65.7373 57.5588C65.1751 57.7021 63.6647 58.0769 62.1544 57.2721C62.011 57.1949 60.1148 56.1586 59.9605 54.3837C59.9053 53.7332 60.0928 53.1269 60.1369 52.9946C60.3684 52.278 60.7653 51.815 60.8865 51.6606C61.3606 51.0763 61.9339 49.9959 62.3307 47.8461C62.5182 47.8351 62.8268 47.791 63.1355 47.6146C63.786 47.2398 64.0947 46.4791 64.0616 45.8176C64.0506 45.6633 64.0065 44.7813 63.3671 44.4837C63.1025 44.3624 62.8269 44.3955 62.6725 44.4285C60.6219 42.3559 58.5604 40.3164 56.4988 38.2658Z" fill="#2291D0"/>
<path d="M56.496 38.2544C55.2723 38.971 54.4234 39.7648 53.8832 40.3491C52.0862 42.3004 51.5129 44.3399 51.3917 44.814C51.3145 45.1117 51.2594 45.3542 51.2373 45.5306C51.1161 45.4865 50.8404 45.4093 50.5648 45.5306C50.1459 45.718 50.0577 46.2251 50.0136 46.4787C49.9034 47.063 50.1238 47.526 50.212 47.7024C50.3333 47.956 50.5318 48.3639 51.0058 48.5734C51.3917 48.7498 51.7555 48.6836 51.9098 48.6505C52.0642 49.0474 52.2847 49.5986 52.6264 50.227C53.1446 51.2192 53.6296 52.1343 54.5667 52.9501C54.9305 53.2698 55.5259 53.7108 56.3858 54.0526C56.5622 54.3282 56.8047 54.7581 56.937 55.3204C57.0473 55.7614 57.0693 56.1362 57.0583 56.4228C57.3449 56.5661 57.8851 56.7866 58.5576 56.7756C59.8475 56.7536 60.6964 55.9488 60.8948 55.7503C60.6854 55.1219 60.4979 54.3502 60.4208 53.4572C60.3877 53.0493 60.3767 52.6635 60.3767 52.3107C60.7184 51.9469 61.1374 51.4287 61.4791 50.7342C62.0855 49.5325 62.1847 48.419 62.1957 47.7686C62.3501 47.7906 62.6587 47.8237 62.9895 47.6914C63.4525 47.504 63.662 47.0961 63.7832 46.8646C63.8163 46.8094 64.2794 45.8613 63.8604 44.9242C63.7612 44.7148 63.5958 44.3289 63.2651 44.2958C63.0226 44.2738 62.8241 44.4612 62.7469 44.5384C62.2949 43.9982 61.446 42.9949 60.2554 41.6169C59.2301 40.4152 58.5797 39.6655 57.4882 38.8938C57.0914 38.6072 56.7386 38.3977 56.496 38.2544Z" fill="white"/>
<path d="M54.9771 49.9517C54.8669 50.2053 55.385 50.6573 55.6275 50.8447C56.1347 51.2195 56.6749 51.2747 56.8733 51.2857C57.1048 51.3077 57.8655 51.3629 58.5601 50.8668C58.7254 50.7455 59.1885 50.4258 59.3649 49.8304C59.4861 49.4005 59.4531 48.8052 59.2215 48.7059C59.0452 48.6398 58.8798 48.8603 58.5049 49.1249C57.8435 49.5769 57.16 49.6871 56.5757 49.7753C55.5834 49.9297 55.0873 49.7312 54.9771 49.9517Z" fill="black"/>
<path d="M51.482 47.4049C51.8788 49.0585 52.5183 50.6791 53.5766 52.0241C54.5137 53.2258 55.9028 54.3834 57.5234 54.229C59.0227 54.0857 60.2465 52.9171 61.0402 51.7265C61.9773 50.3374 62.4293 48.6727 62.3852 46.9969C62.3742 46.7875 62.0435 46.7875 62.0545 46.9969C62.0986 48.5294 61.7017 50.0287 60.8969 51.3296C60.1362 52.5533 58.8794 53.8432 57.347 53.9093C55.7264 53.9755 54.3924 52.6525 53.5325 51.4178C52.6726 50.183 52.1434 48.7609 51.7906 47.3056C51.7465 47.1072 51.4268 47.1954 51.482 47.4049Z" fill="#161616"/>
<path d="M56.1674 54.0747C56.6304 54.7803 56.8619 55.552 56.8619 56.4009C56.8619 56.6104 57.1927 56.6104 57.1927 56.4009C57.1927 55.5079 56.9391 54.659 56.454 53.9093C56.3438 53.7219 56.0571 53.8873 56.1674 54.0747Z" fill="#161616"/>
<path d="M57.017 56.5334C58.362 57.3051 60.1039 56.9303 61.0189 55.6955C61.1512 55.5302 60.8646 55.3648 60.7323 55.5302C59.9165 56.6216 58.351 56.9303 57.1824 56.2468C56.995 56.1475 56.8296 56.4342 57.017 56.5334Z" fill="#161616"/>
<path d="M60.1904 52.5974C60.2015 53.6006 60.3558 54.5928 60.6755 55.552C60.7417 55.7504 61.0614 55.6622 60.9952 55.4638C60.6976 54.5267 60.5322 53.5786 60.5212 52.5974C60.5212 52.3769 60.1904 52.3769 60.1904 52.5974Z" fill="#161616"/>
<path d="M51.8126 48.4527C51.6693 48.607 51.3165 48.5519 51.1512 48.4637C51.0189 48.3975 50.8976 48.2983 50.7984 48.1991C50.5779 47.9896 50.4015 47.7361 50.2912 47.4605C50.0708 46.9423 49.9715 45.454 50.9527 45.7186C51.1622 45.7737 51.2504 45.454 51.0409 45.3989C49.8282 45.0792 49.6408 46.6887 49.9495 47.4935C50.192 48.144 51.3055 49.489 52.0552 48.6842C52.1875 48.5298 51.956 48.2983 51.8126 48.4527Z" fill="#161616"/>
<path d="M62.8917 44.5939C63.024 44.1529 63.5973 45.0018 63.6635 45.1562C63.7958 45.509 63.8399 45.8948 63.7847 46.2697C63.6965 47.0193 63.1012 47.7359 62.2744 47.5265C62.0649 47.4713 61.9767 47.791 62.1862 47.8462C63.5201 48.1879 64.2367 46.7988 64.1155 45.6633C64.0603 45.1672 63.8619 44.5278 63.3879 44.2632C63.0792 44.0978 62.6823 44.1419 62.572 44.4947C62.5059 44.7152 62.8256 44.7924 62.8917 44.5939Z" fill="#161616"/>
<path d="M52.9918 42.2566C53.3556 41.5621 53.995 41.1101 54.7667 40.9998C54.9762 40.9668 54.888 40.6471 54.6785 40.6801C53.8296 40.8014 53.102 41.3306 52.7051 42.0913C52.6059 42.2787 52.8926 42.4441 52.9918 42.2566Z" fill="#161616"/>
<path d="M58.0849 40.5591C59.011 40.3386 59.937 40.8016 60.356 41.6395C60.4552 41.8269 60.7308 41.6615 60.6426 41.4741C60.1575 40.4929 59.0551 39.9858 57.9967 40.2393C57.7873 40.2945 57.8755 40.6142 58.0849 40.5591Z" fill="#161616"/>
<path d="M55.6811 41.9149C55.8906 43.0835 55.9457 44.2851 55.8244 45.4758C55.7803 45.8396 55.6039 46.3577 55.7693 46.7216C55.9457 47.1184 56.4198 47.4602 56.7174 47.7689C56.8607 47.9232 57.1033 47.6917 56.9489 47.5374C56.7505 47.3279 56.552 47.1295 56.3536 46.92C56.0449 46.6003 56.0118 46.5011 56.078 46.038C56.1331 45.6191 56.1882 45.1891 56.2103 44.7592C56.2544 43.778 56.1772 42.7968 56.0008 41.8377C55.9677 41.6172 55.648 41.7054 55.6811 41.9149Z" fill="#161616"/>
<path d="M54.2927 44.7484C54.1274 44.4838 54.0502 44.1971 54.0722 43.8885C54.0722 43.8223 54.1163 43.5357 54.1714 43.5246C54.2045 43.5246 54.2596 43.9105 54.2707 43.9546C54.2927 44.0979 54.3037 44.2523 54.3037 44.3956C54.3037 44.4397 54.2927 44.8035 54.2927 44.583C54.2817 44.2633 54.3037 43.9436 54.3148 43.6239C54.2045 43.6349 54.0943 43.6569 53.9951 43.668C54.0502 44.0097 54.0833 44.3515 54.0833 44.7043C54.1935 44.7043 54.3037 44.7043 54.414 44.7043C54.414 44.6602 54.414 44.6161 54.414 44.572C54.414 44.3625 54.0833 44.3625 54.0833 44.572C54.0833 44.6161 54.0833 44.6602 54.0833 44.7043C54.0833 44.9137 54.414 44.9137 54.414 44.7043C54.414 44.3294 54.3809 43.9546 54.3148 43.5798C54.2817 43.3924 53.9951 43.4475 53.9951 43.6239C53.984 43.9767 53.9399 44.3625 53.984 44.7153C54.0061 44.8807 54.0833 45.035 54.2707 45.0681C54.8219 45.1783 54.6565 44.0979 54.6124 43.8333C54.5794 43.6239 54.5463 43.3042 54.3478 43.1829C54.1825 43.0837 54.0061 43.1829 53.9069 43.3372C53.6312 43.8003 53.7856 44.4838 54.0392 44.9027C54.1163 45.0901 54.403 44.9248 54.2927 44.7484Z" fill="#161616"/>
<path d="M59.3865 44.1641C59.2211 43.8996 59.1439 43.6129 59.166 43.3042C59.166 43.2381 59.2101 42.9514 59.2652 42.9404C59.2983 42.9404 59.3534 43.3263 59.3644 43.3704C59.3865 43.5137 59.3975 43.668 59.3975 43.8114C59.3975 43.8555 59.3865 44.2193 59.3865 43.9988C59.3754 43.6791 59.3975 43.3594 59.4085 43.0396C59.2983 43.0507 59.188 43.0727 59.0888 43.0837C59.1439 43.4255 59.177 43.7673 59.177 44.12C59.2872 44.12 59.3975 44.12 59.5077 44.12C59.5077 44.0759 59.5077 44.0318 59.5077 43.9877C59.5077 43.7783 59.177 43.7783 59.177 43.9877C59.177 44.0318 59.177 44.0759 59.177 44.12C59.177 44.3295 59.5077 44.3295 59.5077 44.12C59.5077 43.7452 59.4747 43.3704 59.4085 42.9955C59.3754 42.8081 59.0888 42.8632 59.0888 43.0396C59.0778 43.3924 59.0337 43.7783 59.0778 44.1311C59.0998 44.2964 59.177 44.4508 59.3644 44.4839C59.9156 44.5941 59.7503 43.5137 59.7062 43.2491C59.6731 43.0396 59.64 42.7199 59.4416 42.5987C59.2762 42.4994 59.0998 42.5987 59.0006 42.753C58.725 43.216 58.8793 43.8996 59.1329 44.3185C59.2101 44.5169 59.4967 44.3516 59.3865 44.1641Z" fill="#161616"/>
<path d="M52.6591 45.7624C52.8685 45.7624 52.8685 45.4316 52.6591 45.4316C52.4496 45.4316 52.4496 45.7624 52.6591 45.7624Z" fill="#161616"/>
<path d="M53.9622 46.0048C53.9733 46.0048 53.9843 46.0048 54.0063 46.0048C54.0945 46.0048 54.1717 45.9276 54.1717 45.8394C54.1717 45.7512 54.0945 45.6741 54.0063 45.6741C53.9953 45.6741 53.9843 45.6741 53.9622 45.6741C53.874 45.6741 53.7969 45.7512 53.7969 45.8394C53.7969 45.9276 53.863 46.0048 53.9622 46.0048Z" fill="#161616"/>
<path d="M53.1915 47.0192C53.401 47.0192 53.401 46.6885 53.1915 46.6885C52.9821 46.6885 52.971 47.0192 53.1915 47.0192Z" fill="#161616"/>
<path d="M59.4515 45.5971C59.4625 45.5971 59.4735 45.5971 59.4956 45.5971C59.5838 45.5971 59.661 45.5199 59.661 45.4317C59.661 45.3435 59.5838 45.2664 59.4956 45.2664C59.4846 45.2664 59.4735 45.2664 59.4515 45.2664C59.3633 45.2664 59.2861 45.3435 59.2861 45.4317C59.2861 45.5199 59.3523 45.5971 59.4515 45.5971Z" fill="#161616"/>
<path d="M60.6649 44.7814C60.8744 44.7814 60.8744 44.4507 60.6649 44.4507C60.4554 44.4507 60.4554 44.7814 60.6649 44.7814Z" fill="#161616"/>
<path d="M60.4994 45.6745C60.5104 45.6745 60.5214 45.6745 60.5435 45.6745C60.6316 45.6745 60.7088 45.5973 60.7088 45.5091C60.7088 45.4209 60.6316 45.3438 60.5435 45.3438C60.5324 45.3438 60.5214 45.3438 60.4994 45.3438C60.4112 45.3438 60.334 45.4209 60.334 45.5091C60.345 45.5973 60.4112 45.6745 60.4994 45.6745Z" fill="#161616"/>
<path d="M55.2514 50.2055C55.075 49.9519 54.7884 49.5881 54.9096 49.2573C55.053 48.8825 55.505 48.9376 55.8026 48.9817C56.1664 49.0369 56.4641 49.103 56.8169 48.9928C57.1035 48.9046 57.3571 48.7171 57.6217 48.5738C58.2501 48.221 58.9887 48.188 59.1872 49.0148C59.7494 51.2748 55.7585 51.9143 55.1412 49.9298C55.075 49.7314 54.7553 49.8086 54.8214 50.018C55.5821 52.4545 60.3006 51.5504 59.4738 48.8494C59.3305 48.3974 58.9887 48.0116 58.5036 47.9564C57.7099 47.8793 57.1917 48.673 56.431 48.7282C55.8688 48.7723 55.1853 48.3423 54.7332 48.8715C54.3253 49.3455 54.6561 49.9519 54.9537 50.3708C55.086 50.5472 55.3727 50.3818 55.2514 50.2055Z" fill="#161616"/>
<path d="M54.6125 49.5769C54.855 50.2494 56.0677 50.04 56.5969 49.9628C57.6112 49.8085 58.5372 49.3675 59.32 48.717C59.4853 48.5847 59.2538 48.3422 59.0885 48.4855C58.5152 48.9706 57.8537 49.3234 57.1261 49.5218C56.8064 49.61 55.1196 49.9849 54.9432 49.4998C54.855 49.2903 54.5353 49.3785 54.6125 49.5769Z" fill="#161616"/>
<path d="M56.5748 54.4171C57.8647 54.7478 59.5845 53.932 60.3122 52.8626C60.4334 52.6862 60.1468 52.5208 60.0255 52.6972C59.3861 53.6343 57.7875 54.384 56.663 54.0974C56.4536 54.0422 56.3654 54.3619 56.5748 54.4171Z" fill="#161616"/>
<path d="M56.6957 54.5158C57.8423 55.2324 59.7275 54.2181 60.2787 53.1267C60.3779 52.9393 60.0913 52.7739 59.9921 52.9613C59.529 53.8874 57.8423 54.8465 56.8611 54.2402C56.6737 54.1189 56.5083 54.4056 56.6957 54.5158Z" fill="#161616"/>
<path opacity="0.2" d="M61.2724 42.8301C61.3496 43.227 61.4488 43.8554 61.515 44.6161C61.6693 46.6446 61.9339 50.0401 59.8833 52.3002C59.4424 52.7852 58.5053 53.6451 56.7744 54.1302C57.3256 54.1082 57.9981 54.042 58.7258 53.8546C59.0896 53.7664 59.4203 53.6562 59.718 53.5349C59.7621 54.5161 59.7951 55.4973 59.8392 56.4785C60.2141 56.2359 60.5779 56.0044 60.9527 55.7619C60.4456 54.6374 60.4456 53.7664 60.5117 53.2152C60.611 52.4435 60.8976 51.8151 61.1842 51.1867C61.4378 50.6354 61.7024 50.1945 61.9118 49.8858C61.9339 50.1173 61.989 50.3598 62.1434 50.5914C62.8159 51.5946 64.9215 51.6938 66.2445 50.8339C67.4682 50.0401 68.0635 48.4305 67.7549 46.7769C67.9643 46.9533 68.1848 47.1627 68.3943 47.4163C68.5596 47.6147 68.9896 48.188 69.5849 50.2055C69.7723 50.8339 69.8605 51.1536 69.9157 51.4733C69.9818 51.9143 70.1031 52.7522 69.8716 53.7003C69.4747 55.3319 68.2951 56.269 67.9423 56.5336C67.6887 56.721 66.917 57.2832 65.7594 57.5478C65.2082 57.6691 63.5545 58.066 62 57.162C61.4157 56.8202 61.096 56.5666 60.9196 56.258C60.7322 55.9162 60.7102 55.5965 60.6881 55.354C60.5889 53.8436 60.5448 53.0829 60.644 52.5647C60.9417 51.0654 61.6142 50.9111 61.989 49.2023C62.1213 48.5849 62.1544 48.0667 62.1654 47.736C62.3087 47.758 62.5292 47.7801 62.7938 47.7139C63.345 47.5706 63.6207 47.1186 63.7199 46.9533C64.1168 46.3249 64.2931 45.2004 63.6758 44.6822C63.5876 44.605 63.2789 44.3735 62.6836 44.4176C62.2316 43.8884 61.7575 43.3593 61.2724 42.8301Z" fill="#3F3F3F"/>
<path opacity="0.13" d="M56.0459 46.4021C56.6081 46.5675 57.1814 46.7439 57.7437 46.9092C57.6004 47.0415 57.457 47.1628 57.3027 47.2951C57.1594 47.4164 57.0271 47.5156 56.8838 47.6258C56.7074 47.4935 56.4538 47.262 56.2554 46.9092C56.1451 46.7218 56.079 46.5454 56.0459 46.4021Z" fill="#3F3F3F"/>
<path opacity="0.16" d="M47.2039 47.7798C46.0022 52.0243 46.8952 55.4529 48.6922 56.2026C50.1033 56.7869 52.65 55.96 53.1241 54.5158C53.1902 54.3284 53.2564 53.9977 53.0028 52.9834C52.7823 52.0904 52.3303 50.7454 51.316 49.213C51.1396 49.1028 50.9081 48.9264 50.6876 48.6618C50.3018 48.1877 50.1915 47.6806 50.1585 47.4381C50.4782 47.7688 50.9412 48.1877 51.2389 48.0555C51.5255 47.9232 51.7019 47.5263 51.6027 47.1294C51.7019 47.6365 51.8562 48.3311 52.1429 49.1359C52.5177 50.2052 52.8925 51.2415 53.7635 52.2227C54.1604 52.6747 54.9431 53.4134 56.266 53.9426C56.4865 54.2182 56.8944 54.8135 57.0267 55.6844C57.0488 55.8167 57.126 56.4231 56.9275 57.1838C56.8834 57.3602 56.6188 58.3193 55.7479 59.1461C54.7336 60.1163 53.5209 60.2927 53.1241 60.3478C50.1364 60.7447 47.8213 58.1319 47.4133 57.6799C47.0054 57.2168 46.3329 56.4451 45.9471 55.2545C45.3297 53.3583 45.8038 51.6495 46.1455 50.4037C46.4652 49.2351 46.8952 48.3531 47.2039 47.7798Z" fill="#3F3F3F"/>
</svg>
