<svg width="12" height="18" viewBox="0 0 12 18" fill="none" xmlns="http://www.w3.org/2000/svg">
<path d="M0 0H4.332C4.5 0 4.7 0.00800037 4.932 0.0240002C5.164 0.0320005 5.388 0.0560007 5.604 0.0960007C6.54 0.240001 7.324 0.564 7.956 1.068C8.596 1.564 9.076 2.188 9.396 2.94C9.716 3.692 9.876 4.528 9.876 5.448C9.876 6.744 9.56 7.86 8.928 8.796C8.304 9.724 7.372 10.356 6.132 10.692C5.836 10.772 5.548 10.828 5.268 10.86C4.988 10.884 4.664 10.896 4.296 10.896H0V8.868H4.26C4.412 8.868 4.584 8.86 4.776 8.844C4.976 8.828 5.164 8.8 5.34 8.76C5.892 8.632 6.34 8.4 6.684 8.064C7.036 7.72 7.292 7.32 7.452 6.864C7.612 6.4 7.692 5.928 7.692 5.448C7.692 4.968 7.612 4.496 7.452 4.032C7.292 3.568 7.036 3.168 6.684 2.832C6.34 2.488 5.892 2.256 5.34 2.136C5.164 2.088 4.976 2.06 4.776 2.052C4.584 2.036 4.412 2.028 4.26 2.028H0V0ZM0 10.896L2.232 10.2L10.236 17.28H7.188L0 10.896ZM0.0480001 6.3V4.584H11.676V6.3H0.0480001ZM4.116 1.716V0H11.628V1.716H4.116Z" fill="white"/>
</svg>
