<svg width="23" height="24" viewBox="0 0 23 24" fill="none" xmlns="http://www.w3.org/2000/svg">
<path fill-rule="evenodd" clip-rule="evenodd" d="M10.5415 6.56928C8.07156 6.56928 6.06928 8.57156 6.06928 11.0415C6.06928 13.5114 8.07156 15.5137 10.5415 15.5137C13.0114 15.5137 15.0137 13.5114 15.0137 11.0415C15.0137 8.57156 13.0114 6.56928 10.5415 6.56928ZM4.7915 11.0415C4.7915 7.86587 7.36587 5.2915 10.5415 5.2915C13.7171 5.2915 16.2915 7.86587 16.2915 11.0415C16.2915 14.2171 13.7171 16.7915 10.5415 16.7915C7.36587 16.7915 4.7915 14.2171 4.7915 11.0415Z" fill="#8E8E93"/>
<path fill-rule="evenodd" clip-rule="evenodd" d="M14.5519 15.0521C14.7877 14.8163 15.1699 14.8163 15.4057 15.0521L18.0316 17.678C18.2674 17.9138 18.2674 18.296 18.0316 18.5318C17.7959 18.7675 17.4137 18.7675 17.1779 18.5318L14.5519 15.9058C14.3162 15.67 14.3162 15.2878 14.5519 15.0521Z" fill="#8E8E93"/>
</svg>
