<svg width="200" height="132" viewBox="0 0 200 132" fill="none" xmlns="http://www.w3.org/2000/svg">
<path d="M15.2521 117.762C13.4021 116.249 11.471 114.804 9.75606 113.144C8.95935 112.374 8.21664 111.537 7.64949 110.578C7.35241 110.092 7.10934 109.565 6.93379 109.025C6.78525 108.579 6.63671 107.891 7.28489 107.823C7.52795 107.796 7.78452 107.85 8.01409 107.918C8.27066 107.985 8.37869 107.593 8.12212 107.526C7.35241 107.337 6.2451 107.391 6.36664 108.471C6.51518 109.687 7.31189 110.929 8.04109 111.861C9.93161 114.291 12.6053 116.114 14.9685 118.045C15.171 118.207 15.4546 117.924 15.2521 117.762Z" fill="#E8E8E8"/>
<path d="M8.19012 107.593C7.40691 106.662 6.79924 105.581 6.44815 104.407C6.2861 103.88 6.21858 103.34 6.05654 102.827C5.94851 102.503 5.74595 102.205 6.04303 101.922C6.17807 101.8 6.38063 101.719 6.52917 101.611C6.98829 101.301 7.24486 100.936 6.67771 100.544C6.35362 100.328 5.94851 100.288 5.59741 100.112C5.12478 99.8558 4.76018 99.4372 4.49011 98.9916C3.92295 98.0733 3.61237 96.993 3.27478 95.9802C2.86967 94.7784 2.47806 93.5496 2.12696 92.3342C1.42477 89.8766 0.844112 87.3919 0.371482 84.8937C0.330971 84.9747 0.276956 85.0558 0.236445 85.1368C2.77514 84.2995 5.30033 86.4466 7.10983 87.9726C8.97334 89.539 10.6478 91.335 12.1197 93.2795C15.158 97.3306 17.2781 102.003 18.6015 106.878C19.4117 109.862 19.9248 112.927 20.2084 116.006C20.2354 116.263 20.6405 116.263 20.6135 116.006C19.6278 105.379 15.7117 94.6164 7.32589 87.608C5.40836 86.0145 2.81565 83.8674 0.141919 84.7452C0.0338898 84.7857 -0.020125 84.8802 0.0068824 84.9882C0.506519 87.662 1.14119 90.3087 1.9109 92.9284C2.2755 94.1572 2.65361 95.3726 3.07222 96.5744C3.40981 97.5467 3.7204 98.5865 4.31456 99.4372C4.54412 99.7613 4.80069 100.058 5.12478 100.288C5.51639 100.572 5.97552 100.599 6.36712 100.842C6.88026 101.152 6.13756 101.395 5.86749 101.584C5.66493 101.733 5.47588 101.908 5.43537 102.178C5.38135 102.584 5.73245 103.056 5.82698 103.434C5.96201 104.015 6.08355 104.582 6.2996 105.149C6.69121 106.149 7.24486 107.067 7.93355 107.891C8.06859 108.08 8.35217 107.796 8.19012 107.593Z" fill="#E8E8E8"/>
<path d="M2.41081 87.068C8.05535 93.4417 12.4441 100.882 15.3068 108.903C16.1036 111.132 16.7652 113.4 17.3189 115.696C17.3864 115.952 17.7645 115.844 17.7105 115.588C15.7119 107.27 12.12 99.3429 7.1506 92.3614C5.77323 90.4169 4.28782 88.5534 2.70789 86.7709C2.51883 86.5954 2.23526 86.8789 2.41081 87.068Z" fill="#E8E8E8"/>
<path d="M3.32769 95.9534C3.97586 96.1154 4.61054 96.3315 5.23171 96.588C5.47477 96.6826 5.5828 96.2909 5.33974 96.1964C4.71857 95.9399 4.08389 95.7238 3.43571 95.5617C3.19265 95.4942 3.08462 95.8858 3.32769 95.9534Z" fill="#E8E8E8"/>
<path d="M8.08111 104.92C8.95885 104.893 9.68805 105.352 10.4037 105.784C11.0519 106.176 11.6866 106.568 12.3078 107C13.5906 107.891 14.7519 108.944 15.5216 110.322C15.6432 110.551 15.9943 110.349 15.8727 110.119C15.0625 108.688 13.8472 107.58 12.5103 106.662C11.8081 106.176 11.0654 105.717 10.3227 105.285C9.62053 104.866 8.90484 104.515 8.06761 104.528C7.82454 104.515 7.82454 104.92 8.08111 104.92Z" fill="#E8E8E8"/>
<path d="M13.4576 102.489C13.093 100.302 13.1065 98.087 13.4982 95.9129C13.5387 95.6564 13.1471 95.5483 13.1065 95.8049C12.7014 98.06 12.6879 100.342 13.066 102.597C13.1065 102.854 13.4982 102.746 13.4576 102.489Z" fill="#E8E8E8"/>
<path d="M12.7681 93.2391C13.0516 90.5654 13.6188 87.8916 14.564 85.3799C15.3608 83.2599 16.5491 81.1803 18.5881 80.046C18.4801 79.992 18.3856 79.9245 18.2776 79.8704C18.4936 83.6245 20.6947 86.9599 20.7893 90.7274C20.8433 90.6599 20.8838 90.5924 20.9378 90.5384C20.4247 90.6734 19.9115 90.8084 19.3984 90.9435C19.2498 90.984 19.1958 91.173 19.3038 91.2811C19.925 91.8752 20.0465 92.7125 20.0736 93.5362C20.0871 93.9683 20.3166 96.0614 19.817 96.1964C19.6955 96.2369 19.6279 96.3855 19.6955 96.4935C21.1944 98.8971 20.5057 101.746 20.0871 104.339C19.6549 107.013 19.6009 109.714 19.9115 112.387C19.9385 112.644 20.3436 112.644 20.3166 112.387C19.9655 109.376 20.1411 106.419 20.6542 103.448C21.0728 101.044 21.4104 98.465 20.0601 96.2774C20.0195 96.372 19.979 96.48 19.9385 96.5745C20.3031 96.48 20.4247 96.1964 20.4787 95.8453C20.5732 95.1971 20.5057 94.4814 20.4922 93.8333C20.4787 92.807 20.3706 91.7402 19.5874 90.9975C19.5604 91.1055 19.5334 91.227 19.4929 91.3351C20.006 91.2 20.5192 91.065 21.0323 90.93C21.1133 90.903 21.1809 90.8219 21.1809 90.7409C21.0863 86.9599 18.8987 83.638 18.6692 79.8839C18.6557 79.7354 18.5071 79.6274 18.3586 79.7084C16.3465 80.8292 15.1312 82.8142 14.294 84.9073C13.2272 87.5675 12.633 90.4168 12.3359 93.2661C12.3359 93.4957 12.741 93.4957 12.7681 93.2391Z" fill="#E8E8E8"/>
<path d="M17.6711 81.8962C16.2262 87.3652 15.4835 93.0098 15.47 98.6678C15.47 98.9244 15.8751 98.9244 15.8751 98.6678C15.8886 93.0368 16.6178 87.4462 18.0492 82.0042C18.1302 81.7477 17.7386 81.6396 17.6711 81.8962Z" fill="#E8E8E8"/>
<path d="M176.216 73.8075C177.08 76.5892 177.728 79.425 178.133 82.3148C178.336 83.7732 178.484 85.2586 178.552 86.7305C178.579 87.1086 178.592 87.5002 178.606 87.8783C178.619 88.1079 178.552 88.486 178.633 88.702C178.714 88.9046 178.997 89.0396 179.159 89.1747C179.443 89.4042 179.727 89.6338 179.997 89.8634C180.01 89.7553 180.024 89.6473 180.037 89.5393C179.659 89.7688 179.295 89.8769 178.849 89.8904C178.754 89.8904 178.687 89.9579 178.66 90.0389C178.268 91.2542 178.552 92.5371 179.43 93.4824C179.484 93.3608 179.524 93.2528 179.578 93.1313C178.174 93.0772 178.147 94.6977 178.282 95.697C178.471 97.0878 178.741 98.4787 179.132 99.8291C179.916 102.476 181.226 104.988 183.373 106.797C183.575 106.959 183.859 106.675 183.656 106.513C181.847 104.988 180.631 102.935 179.848 100.707C179.484 99.6535 179.2 98.5732 178.984 97.493C178.808 96.5882 177.931 93.4824 179.578 93.5364C179.767 93.5499 179.835 93.3203 179.727 93.1853C178.957 92.348 178.714 91.2137 179.065 90.1469C178.997 90.201 178.93 90.2415 178.876 90.2955C179.389 90.2955 179.821 90.1739 180.267 89.8904C180.361 89.8229 180.415 89.6608 180.307 89.5663C179.808 89.1612 179.119 88.8101 179.038 88.1349C178.957 87.4192 178.984 86.6765 178.93 85.9608C178.835 84.6239 178.7 83.2871 178.498 81.9502C178.093 79.1549 177.458 76.4002 176.621 73.6994C176.526 73.4429 176.135 73.5509 176.216 73.8075Z" fill="#E8E8E8"/>
<path d="M176.879 74.415C176.325 73.6858 177.365 73.1456 177.973 73.2941C178.581 73.4562 179.08 73.9423 179.499 74.3744C180.269 75.1577 180.876 76.0759 181.403 77.0347C182.497 79.0062 183.415 81.1128 184.225 83.2059C185.886 87.5135 187.034 92.0238 187.642 96.588C187.979 99.1807 188.155 101.787 188.155 104.393C188.155 104.65 188.56 104.65 188.56 104.393C188.56 98.9647 187.817 93.5497 186.359 88.3373C185.643 85.7986 184.765 83.3139 183.725 80.8832C182.767 78.6416 181.74 76.2379 180.093 74.4014C179.431 73.6587 178.31 72.5109 177.203 72.9025C176.528 73.1321 176.082 73.9963 176.541 74.6175C176.69 74.8201 177.041 74.631 176.879 74.415Z" fill="#E8E8E8"/>
<path d="M186.601 89.2556C187.29 86.9464 188.086 84.6913 188.991 82.4632C189.464 81.3154 189.964 80.1676 190.504 79.0468C190.76 78.5201 191.017 77.98 191.287 77.4533C191.462 77.1157 191.989 75.6303 192.543 75.7654C192.705 75.8059 192.813 75.6708 192.786 75.5223C192.651 74.6851 193.596 73.9694 194.096 73.4157C194.541 72.9296 194.973 72.4435 195.419 71.9573C196.337 70.958 197.242 69.9588 198.16 68.946C198.052 68.919 197.931 68.892 197.823 68.8515C199.214 72.2949 198.849 76.0624 198.039 79.6004C197.62 81.4099 197.093 83.2059 196.648 85.0154C196.337 86.2712 196 88.1753 194.46 88.4453C194.352 88.4588 194.298 88.5939 194.325 88.6884C194.717 90.2953 193.637 91.7807 192.921 93.1311C192.246 94.4005 191.624 95.7103 191.057 97.0472C189.95 99.6534 189.072 102.341 188.411 105.082C188.343 105.338 188.735 105.446 188.802 105.19C189.531 102.152 190.531 99.1943 191.814 96.345C192.421 94.9946 193.096 93.6713 193.812 92.3749C194.46 91.2001 195.054 89.9577 194.73 88.5939C194.69 88.6749 194.636 88.7559 194.595 88.8369C195.905 88.6074 196.472 87.284 196.81 86.1227C197.364 84.1782 197.863 82.1796 198.336 80.2081C199.241 76.4541 199.727 72.4164 198.241 68.7434C198.187 68.6084 198.012 68.5274 197.904 68.6489C196.756 69.9048 195.608 71.1741 194.46 72.43C193.92 73.0241 193.339 73.5913 192.84 74.2259C192.516 74.6581 192.34 75.0632 192.421 75.6033C192.502 75.5223 192.583 75.4413 192.664 75.3603C191.692 75.1172 191.219 76.7106 190.895 77.3453C190.247 78.6281 189.639 79.9245 189.086 81.2344C187.978 83.8001 187.033 86.4468 186.236 89.1205C186.128 89.3906 186.52 89.4986 186.601 89.2556Z" fill="#E8E8E8"/>
<path d="M197.162 72.4433C192.948 80.3024 188.654 88.4046 187.641 97.3846C187.614 97.6412 188.02 97.6412 188.047 97.3846C189.059 88.4722 193.34 80.424 197.513 72.6458C197.648 72.4163 197.297 72.2137 197.162 72.4433Z" fill="#E8E8E8"/>
<path d="M179.592 77.8449C182.873 86.5278 184.831 95.6833 185.412 104.947C185.425 105.203 185.83 105.203 185.817 104.947C185.236 95.6428 183.278 86.4603 179.983 77.7369C179.889 77.5073 179.497 77.6018 179.592 77.8449Z" fill="#E8E8E8"/>
<path d="M8.95884 73.4966C17.1961 72.0247 25.7034 72.1057 33.9137 73.7397C37.9783 74.5499 41.9619 75.7247 45.7969 77.2642C49.8075 78.8711 53.6561 80.8021 57.5856 82.5846C72.4127 89.3095 88.2795 93.7117 104.443 95.6292C113.612 96.723 122.876 97.0066 132.086 96.4934C132.342 96.4799 132.342 96.0748 132.086 96.0883C115.557 97.0201 98.9069 95.3321 82.8916 91.1324C74.8569 89.0259 66.9842 86.2846 59.3816 82.9492C55.4386 81.2207 51.59 79.2762 47.6334 77.5882C43.8524 75.9813 39.9498 74.6849 35.9527 73.7667C27.0808 71.7411 17.8173 71.5116 8.85081 73.1185C8.59424 73.1455 8.70227 73.5371 8.95884 73.4966Z" fill="#E8E8E8"/>
<path d="M82.4192 90.8356C90.1029 91.2272 97.5164 88.4589 104.741 86.2443C112.303 83.9352 119.892 81.6936 127.495 79.506C135.057 77.3319 142.619 75.0497 150.302 73.3078C157.959 71.5793 165.764 70.7556 173.61 70.526C182.347 70.2559 191.083 70.6475 199.807 71.0527C200.063 71.0662 200.063 70.661 199.807 70.6475C184.399 69.9453 168.789 69.2567 153.557 72.214C145.833 73.7129 138.271 76.0085 130.708 78.1556C123.106 80.3297 115.517 82.5578 107.941 84.8399C103.742 86.1093 99.5554 87.4866 95.3288 88.648C91.1156 89.8093 86.7944 90.6465 82.4057 90.4305C82.1627 90.417 82.1627 90.8221 82.4192 90.8356Z" fill="#E8E8E8"/>
<path d="M49.6317 76.9805C54.9657 78.52 60.5022 77.4532 65.8226 76.4269C71.5212 75.3331 77.2738 74.5904 83.0804 74.3608C94.5855 73.9287 106.023 75.5762 117.488 76.0353C123.835 76.2919 130.208 76.1433 136.474 75.1035C136.731 75.063 136.623 74.6714 136.366 74.7119C125.09 76.5889 113.639 75.4681 102.323 74.6174C96.6651 74.1853 90.9935 73.8207 85.3085 73.9152C79.6774 74.0097 74.0464 74.5499 68.4829 75.5356C62.3252 76.6159 55.9244 78.3984 49.7262 76.6024C49.4832 76.5214 49.3751 76.913 49.6317 76.9805Z" fill="#E8E8E8"/>
<path d="M73.5335 103.002C75.262 102.287 77.1255 101.922 79.0025 101.976C80.7445 102.03 82.3109 102.597 83.9989 102.948C85.2547 103.218 86.5105 103.218 87.5233 102.327C87.9149 101.99 88.2525 101.638 88.8197 101.814C89.2383 101.936 89.5894 102.219 89.981 102.395C90.4401 102.611 90.9128 102.692 91.3989 102.597C92.5602 102.368 93.4379 101.409 94.4507 100.855C96.1657 99.937 97.8131 101.166 99.4876 101.611C102.972 102.543 106.699 102.26 110.264 102.219C114.652 102.179 119.054 102.206 123.416 101.665C123.673 101.638 123.673 101.233 123.416 101.26C119.5 101.733 115.543 101.76 111.6 101.801C107.846 101.841 103.876 102.192 100.176 101.355C99.312 101.166 98.5018 100.882 97.6781 100.545C96.9624 100.248 96.2197 99.964 95.4365 100.072C94.2077 100.234 93.2894 101.206 92.2496 101.801C91.7095 102.111 91.1153 102.327 90.4941 102.152C89.819 101.949 89.2653 101.355 88.5226 101.328C87.8204 101.314 87.4828 101.882 86.9697 102.246C86.254 102.746 85.3492 102.759 84.512 102.624C82.7295 102.341 81.0686 101.652 79.2456 101.571C77.2605 101.476 75.2755 101.841 73.4255 102.611C73.1824 102.705 73.2904 103.097 73.5335 103.002Z" fill="#E8E8E8"/>
<path d="M82.149 90.957C82.3921 90.9975 82.6217 91.0515 82.8647 91.0921C83.1213 91.1461 83.2158 90.795 82.9728 90.7004C82.8242 90.6464 82.6757 90.5924 82.5136 90.5384C82.2976 90.4574 82.149 90.8085 82.3516 90.903C83.5939 91.5512 84.8903 92.0643 86.2407 92.4289C86.4972 92.4964 86.6053 92.1048 86.3487 92.0373C85.0253 91.6862 83.7695 91.1866 82.5542 90.5519C82.5001 90.6734 82.4461 90.795 82.3921 90.9165C82.5406 90.9705 82.6892 91.0245 82.8512 91.0786C82.8917 90.9435 82.9188 90.822 82.9593 90.6869C82.7162 90.6464 82.4866 90.5924 82.2436 90.5519C82.0005 90.5114 81.8925 90.903 82.149 90.957Z" fill="#E8E8E8"/>
<path d="M64.0021 109.673C63.705 109.322 63.4349 108.957 63.2054 108.552C63.0973 108.35 62.9623 108.134 62.8948 107.904C62.8003 107.756 62.7868 107.58 62.8408 107.404C62.8003 107.215 62.8543 107.067 62.9893 106.959C63.1919 106.405 62.9488 105.825 62.8138 105.257C62.6112 104.366 62.4087 103.475 62.2061 102.584C62.0981 102.111 61.99 101.652 61.8955 101.179C61.8415 100.963 61.801 100.761 61.747 100.545C61.666 100.166 61.5849 99.9909 61.8685 99.6804C62.0035 99.3968 62.2061 99.3428 62.4762 99.5588C62.5977 99.6804 62.7192 99.8019 62.8408 99.9234C62.9758 100.099 63.0703 100.302 63.1784 100.491C63.3674 100.842 63.5565 101.193 63.732 101.544C64.1506 102.381 64.5152 103.245 64.8258 104.123C65.42 105.771 65.8251 107.472 66.0682 109.214C66.1357 109.133 66.2032 109.038 66.2572 108.957C66.2842 108.984 66.2977 109.025 66.3247 109.052C66.3922 108.795 66.0006 108.687 65.9331 108.944C65.8791 109.187 66.0006 109.363 66.2572 109.363C66.4058 109.363 66.4733 109.241 66.4463 109.106C66.1357 106.878 65.555 104.704 64.6638 102.638C64.2452 101.665 63.7995 100.585 63.1784 99.7209C62.8408 99.2482 62.2331 98.8161 61.6525 99.1537C60.9908 99.5318 61.3014 100.464 61.4364 101.044C61.7065 102.233 61.9765 103.421 62.2331 104.609C62.3546 105.176 62.6112 105.811 62.6382 106.392C62.6517 106.864 62.2601 107.08 62.3276 107.553C62.4627 108.431 63.1244 109.322 63.678 109.97C63.8806 110.146 64.1641 109.862 64.0021 109.673Z" fill="#E8E8E8"/>
<path d="M65.2425 103.867C65.04 102.651 65.067 101.409 65.3506 100.207C65.4181 99.8966 65.5126 99.5995 65.6207 99.3025C65.8097 98.7893 66.0798 98.8433 66.3499 99.2214C66.7009 99.7211 66.971 100.275 67.1736 100.842C67.9973 103.192 67.6327 105.717 67.2816 108.107C67.2411 108.363 67.6327 108.471 67.6732 108.215C68.1188 105.204 68.578 101.787 66.755 99.0999C66.5524 98.8028 66.2823 98.3032 65.8637 98.3707C65.4181 98.4517 65.2696 99.0594 65.148 99.4105C64.6619 100.882 64.5809 102.449 64.8374 103.961C64.905 104.231 65.2966 104.123 65.2425 103.867Z" fill="#E8E8E8"/>
<path d="M65.974 100.761C66.3791 102.867 66.5276 104.987 66.4601 107.121C66.4466 107.377 66.8517 107.377 66.8652 107.121C66.9462 104.947 66.7707 102.786 66.3656 100.653C66.3116 100.396 65.9335 100.504 65.974 100.761Z" fill="#E8E8E8"/>
<path d="M16.3057 71.9708C15.9141 71.1065 15.0364 70.4989 14.4827 69.7427C13.8751 68.9054 13.3619 68.0007 12.8623 67.1094C12.8218 67.204 12.7813 67.312 12.7407 67.4065C15.455 66.9204 17.0214 69.5941 17.5481 71.8492C17.6021 72.1058 17.9937 71.9978 17.9397 71.7412C17.359 69.243 15.5765 66.5018 12.6327 67.0149C12.4977 67.0419 12.4572 67.204 12.5112 67.312C13.0108 68.2167 13.5105 69.1215 14.1316 69.9452C14.6853 70.7014 15.5765 71.3361 15.9546 72.1733C16.0627 72.4164 16.4138 72.2138 16.3057 71.9708Z" fill="#E8E8E8"/>
<path d="M17.4806 69.7968C17.6832 67.6767 19.7087 66.3533 20.4919 64.4763C20.3974 64.5168 20.2894 64.5573 20.1949 64.5979C21.0996 65.1785 20.4244 67.2851 20.1679 68.0953C19.7898 69.2836 19.1686 70.3639 18.3719 71.3092C18.2098 71.5117 18.4934 71.7953 18.6554 71.5928C19.6547 70.4179 20.3704 69.0541 20.735 67.5552C20.9646 66.6099 21.3967 64.8949 20.3974 64.2468C20.2759 64.1657 20.1408 64.2603 20.1003 64.3683C19.2901 66.3128 17.2916 67.5822 17.0755 69.7968C17.0485 70.0533 17.4536 70.0533 17.4806 69.7968Z" fill="#E8E8E8"/>
<path d="M137.394 75.9274C137.273 75.6168 137.151 75.3063 137.03 74.9957C136.962 74.8471 136.908 74.6851 136.841 74.5366C136.76 74.4285 136.76 74.307 136.827 74.1855C136.949 74.2935 137.192 74.226 137.178 74.0369C137.111 73.3617 137.043 72.673 136.976 71.9979C136.962 71.8358 136.8 71.2011 136.895 71.0796C137.313 70.4989 137.597 71.4577 137.637 71.6062C138.002 72.8486 137.988 74.28 137.975 75.5628C137.975 75.8194 138.38 75.8194 138.38 75.5628C138.394 74.5095 138.339 73.4698 138.191 72.43C138.096 71.7683 137.988 70.8095 137.34 70.4179C136.922 70.1614 136.571 70.4314 136.489 70.877C136.408 71.3092 136.543 71.8223 136.584 72.2409C136.638 72.8351 136.706 73.4292 136.76 74.0234C136.881 73.9694 136.989 73.9289 137.111 73.8749C136.881 73.6588 136.53 73.6993 136.395 73.9964C136.3 74.199 136.381 74.415 136.449 74.6176C136.611 75.0902 136.827 75.5493 137.003 76.022C137.097 76.2785 137.489 76.1705 137.394 75.9274Z" fill="#E8E8E8"/>
<path d="M138.299 73.7263C138.245 71.8358 138.637 69.9858 139.46 68.2708C139.352 68.2843 139.244 68.2978 139.136 68.3113C140.014 69.0405 139.433 71.0121 139.285 71.9573C139.082 73.2267 138.826 74.496 138.502 75.7383C138.434 75.9949 138.826 76.1029 138.893 75.8464C139.285 74.334 139.582 72.7945 139.798 71.2416C139.933 70.2423 140.325 68.7704 139.42 68.0142C139.325 67.9332 139.163 67.9332 139.096 68.0547C138.245 69.8237 137.826 71.7413 137.88 73.7128C137.907 73.9829 138.312 73.9829 138.299 73.7263Z" fill="#E8E8E8"/>
<path d="M67.4293 115.061C68.2801 114.197 69.6034 115.358 70.5892 115.304C71.0618 115.277 71.4939 115.102 71.9261 114.953C72.5067 114.764 73.0604 114.697 73.668 114.751C76.0717 114.953 78.4078 115.129 80.825 114.967C81.0816 114.953 81.0816 114.548 80.825 114.562C79.5151 114.643 78.2188 114.67 76.9089 114.616C75.5856 114.562 74.2082 114.238 72.8983 114.332C72.3717 114.373 71.8855 114.548 71.3859 114.71C70.6567 114.94 70.1031 114.899 69.4009 114.643C68.6312 114.359 67.7669 114.13 67.1322 114.778C66.9567 114.967 67.2403 115.25 67.4293 115.061Z" fill="#E8E8E8"/>
<path d="M41.921 118.342C42.8662 117.316 44.5272 117.249 45.5265 118.221C45.54 118.113 45.5535 118.005 45.567 117.897C44.8648 118.234 44.1491 118.383 43.3794 118.342C43.1228 118.329 43.1228 118.734 43.3794 118.748C44.2301 118.788 45.0133 118.626 45.783 118.248C45.9046 118.194 45.9181 118.018 45.8235 117.924C44.6622 116.803 42.7312 116.857 41.6374 118.045C41.4618 118.248 41.7454 118.532 41.921 118.342Z" fill="#E8E8E8"/>
<path d="M4.2879 121.988C3.59922 121.934 2.91053 122.137 2.38388 122.61C2.0598 122.907 1.60067 123.46 2.01928 123.852C2.49191 124.284 3.62622 124.001 4.17988 123.947C5.19265 123.838 6.17842 123.649 7.16419 123.393C7.42076 123.325 7.31273 122.934 7.05616 123.001C5.86784 123.312 4.66601 123.514 3.43717 123.595C3.19411 123.609 2.93754 123.636 2.69447 123.636C2.0868 123.609 2.37038 123.15 2.66746 122.893C3.11308 122.488 3.69374 122.34 4.2879 122.394C4.55798 122.407 4.54448 122.002 4.2879 121.988Z" fill="#E8E8E8"/>
<path d="M23.584 110.848C23.611 110.74 23.6921 110.672 23.8001 110.672C23.8946 110.659 23.9891 110.645 24.0702 110.632C24.2862 110.605 24.4888 110.618 24.7048 110.645C25.1235 110.699 25.5016 110.848 25.8662 111.078C25.8797 110.956 25.8932 110.835 25.9202 110.713C25.4205 110.889 24.9209 110.929 24.3943 110.848C24.1377 110.808 24.0297 111.199 24.2862 111.24C24.8804 111.334 25.4475 111.294 26.0282 111.105C26.1902 111.051 26.2308 110.835 26.0822 110.74C25.38 110.294 24.4618 110.078 23.638 110.308C23.1924 110.429 22.8413 111.118 23.476 111.253C23.7326 111.294 23.8406 110.902 23.584 110.848Z" fill="#E8E8E8"/>
<path d="M34.7645 17.983C31.5506 16.8487 29.2549 13.7293 28.9039 10.3534C28.5393 6.86943 30.4973 3.54752 33.4411 1.76503C36.6145 -0.152495 41.1247 -0.165999 43.7309 2.7373C45.0678 4.2092 45.8915 6.22125 46.3776 8.12527C46.8773 10.0833 46.9583 12.2574 45.8375 14.0264C44.7032 15.7954 42.6776 16.7811 40.7736 17.5238C38.7616 18.3206 36.3444 18.9417 34.3729 17.6994C34.1568 17.5644 33.9542 17.9154 34.1703 18.0505C35.9393 19.1578 38.0729 18.8742 39.9634 18.253C41.8134 17.6454 43.7714 16.7946 45.2028 15.4173C48.4032 12.3519 47.0933 7.28804 45.0948 3.92562C44.0415 2.14313 42.4616 0.833275 40.4495 0.293127C38.532 -0.220014 36.4794 -0.0444655 34.6564 0.698238C31.3075 2.07561 28.6878 5.28949 28.4717 8.9625C28.2287 13.0136 30.8349 17.0242 34.6564 18.3746C34.8995 18.4691 35.0075 18.0775 34.7645 17.983Z" fill="#E8E8E8"/>
<path d="M136.298 96.372C145.508 95.7914 154.663 94.549 163.684 92.645C166.29 92.0914 168.883 91.4837 171.462 90.822C171.718 90.7545 171.61 90.3629 171.354 90.4304C162.414 92.7125 153.313 94.36 144.13 95.3187C141.524 95.5888 138.918 95.8049 136.312 95.9669C136.042 95.9804 136.042 96.3855 136.298 96.372Z" fill="#E8E8E8"/>
<path d="M115.194 106.122C116.382 106.324 117.597 106.311 118.772 106.027C119.501 105.852 120.028 105.568 120.784 105.811C121.257 105.96 121.703 106.014 122.189 105.919C122.729 105.811 123.228 105.541 123.688 105.244C124.187 104.906 124.687 104.434 125.295 104.312C125.997 104.177 126.631 104.731 127.307 104.879C127.793 104.987 128.292 104.974 128.779 104.893C129.035 104.852 128.927 104.461 128.67 104.501C127.82 104.65 127.158 104.434 126.388 104.096C126.064 103.948 125.754 103.867 125.389 103.894C124.295 104.015 123.539 105.041 122.526 105.406C121.878 105.636 121.351 105.555 120.717 105.352C120.231 105.203 119.88 105.284 119.407 105.433C118.07 105.852 116.706 105.973 115.329 105.744C115.059 105.69 114.937 106.081 115.194 106.122Z" fill="#E8E8E8"/>
<path d="M48.2838 123.69C58.7761 123.69 69.2685 123.69 79.7609 123.69C80.2875 123.69 80.2875 122.88 79.7609 122.88C69.2685 122.88 58.7761 122.88 48.2838 122.88C47.7571 122.88 47.7571 123.69 48.2838 123.69Z" fill="#161616"/>
<path d="M82.0147 123.447C83.2436 123.447 84.4724 123.447 85.7012 123.447C86.2279 123.447 86.2279 122.637 85.7012 122.637C84.4724 122.637 83.2436 122.637 82.0147 122.637C81.4881 122.637 81.4881 123.447 82.0147 123.447Z" fill="#161616"/>
<path d="M88.4287 123.325C88.8203 123.325 89.2254 123.325 89.617 123.325C90.1436 123.325 90.1436 122.515 89.617 122.515C89.2254 122.515 88.8203 122.515 88.4287 122.515C87.902 122.515 87.902 123.325 88.4287 123.325Z" fill="#161616"/>
<path d="M14.4295 126.661C22.1942 126.661 29.9453 126.661 37.7099 126.661C38.2365 126.661 38.2365 125.851 37.7099 125.851C29.9453 125.851 22.1942 125.851 14.4295 125.851C13.9164 125.851 13.9164 126.661 14.4295 126.661Z" fill="#161616"/>
<path d="M39.9632 126.661C41.9888 126.661 44.0008 126.661 46.0264 126.661C46.553 126.661 46.553 125.851 46.0264 125.851C44.0008 125.851 41.9888 125.851 39.9632 125.851C39.4501 125.851 39.4501 126.661 39.9632 126.661Z" fill="#161616"/>
<path d="M49.4695 126.418C49.591 126.418 49.7125 126.418 49.8206 126.418C50.0366 126.418 50.2392 126.229 50.2257 126.013C50.2122 125.797 50.0501 125.608 49.8206 125.608C49.699 125.608 49.5775 125.608 49.4695 125.608C49.2534 125.608 49.0509 125.797 49.0644 126.013C49.0779 126.229 49.2399 126.418 49.4695 126.418Z" fill="#161616"/>
<path d="M10.1606 126.769C10.4442 126.769 10.7143 126.769 10.9978 126.769C11.5245 126.769 11.5245 125.959 10.9978 125.959C10.7143 125.959 10.4442 125.959 10.1606 125.959C9.63396 125.959 9.63396 126.769 10.1606 126.769Z" fill="#161616"/>
<path d="M117.165 111.928C128.049 111.928 138.933 111.928 149.83 111.928C150.357 111.928 150.357 111.118 149.83 111.118C138.946 111.118 128.062 111.118 117.165 111.118C116.638 111.118 116.638 111.928 117.165 111.928Z" fill="#161616"/>
<path d="M154.097 111.456C163.955 111.456 173.813 111.456 183.67 111.456C184.197 111.456 184.197 110.646 183.67 110.646C173.813 110.646 163.955 110.646 154.097 110.646C153.584 110.646 153.584 111.456 154.097 111.456Z" fill="#161616"/>
<path d="M186.291 111.213C187.087 111.213 187.871 111.213 188.667 111.213C189.194 111.213 189.194 110.402 188.667 110.402C187.871 110.402 187.087 110.402 186.291 110.402C185.764 110.402 185.764 111.213 186.291 111.213Z" fill="#161616"/>
<path d="M175.839 106.702C178.094 106.702 180.35 106.702 182.605 106.702C183.131 106.702 183.131 105.892 182.605 105.892C180.35 105.892 178.094 105.892 175.839 105.892C175.313 105.892 175.313 106.702 175.839 106.702Z" fill="#161616"/>
<path d="M184.858 106.581C185.412 106.581 185.966 106.581 186.519 106.581C187.046 106.581 187.046 105.771 186.519 105.771C185.966 105.771 185.412 105.771 184.858 105.771C184.345 105.771 184.345 106.581 184.858 106.581Z" fill="#161616"/>
<path d="M110.631 114.305C113.52 114.305 116.41 114.305 119.3 114.305C119.827 114.305 119.827 113.495 119.3 113.495C116.41 113.495 113.52 113.495 110.631 113.495C110.117 113.495 110.117 114.305 110.631 114.305Z" fill="#161616"/>
<path d="M122.392 114.183C123.621 114.183 124.85 114.183 126.079 114.183C126.605 114.183 126.605 113.373 126.079 113.373C124.85 113.373 123.621 113.373 122.392 113.373C121.866 113.373 121.866 114.183 122.392 114.183Z" fill="#161616"/>
<path d="M127.739 116.209C128.576 116.209 129.4 116.209 130.237 116.209C130.764 116.209 130.764 115.399 130.237 115.399C129.4 115.399 128.576 115.399 127.739 115.399C127.212 115.399 127.212 116.209 127.739 116.209Z" fill="#161616"/>
<path d="M70.2251 48.5016C69.739 47.8939 71.5755 47.5158 71.8726 47.3943C72.4532 47.1377 72.8178 46.6651 72.9529 46.0439C73.0879 45.4092 72.9529 44.7341 73.1419 44.1129C73.4255 43.1946 74.4788 43.2486 75.262 43.2892C75.7886 43.3162 75.7751 42.5059 75.262 42.4789C74.3707 42.4249 73.3445 42.4519 72.7233 43.1811C72.1696 43.8293 72.2777 44.707 72.2101 45.5038C72.1561 46.2195 71.8861 46.5706 71.1839 46.7731C70.7788 46.8946 70.3736 46.9622 70.0361 47.2187C69.4149 47.6644 69.1583 48.4476 69.658 49.0687C69.9685 49.4874 70.5492 48.9067 70.2251 48.5016Z" fill="#161616"/>
<path d="M73.1019 49.1766C72.7373 48.7445 73.5745 48.3124 73.8446 48.1504C74.2092 47.9343 74.5198 47.7318 74.7898 47.4077C75.3435 46.746 75.7081 45.4901 76.7073 45.4361C77.2205 45.4091 77.234 44.5989 76.7073 44.6259C75.0464 44.7069 74.9114 46.4354 73.777 47.2456C73.2909 47.5832 72.7103 47.7723 72.3997 48.3124C72.1161 48.7985 72.1701 49.3252 72.5212 49.7438C72.8588 50.1489 73.4395 49.5683 73.1019 49.1766Z" fill="#161616"/>
<path d="M136.381 5.46505C136.327 6.32929 135.651 7.36907 136.462 8.09827C137.164 8.71944 138.042 8.26032 138.838 8.31433C139.716 8.38185 139.338 9.19207 139.23 9.78623C139.149 10.2319 139.108 10.718 139.311 11.1501C139.635 11.8253 140.513 12.2574 141.161 11.7713C141.566 11.4607 141.161 10.7585 140.756 11.0691C140.094 11.5687 139.959 10.3669 140.027 10.0023C140.094 9.61069 140.229 9.21908 140.243 8.81397C140.256 8.24681 139.959 7.80119 139.432 7.61214C138.784 7.38258 138.204 7.63915 137.555 7.62564C136.381 7.59864 137.164 6.16724 137.204 5.46505C137.231 4.93841 136.421 4.93841 136.381 5.46505Z" fill="#161616"/>
<path d="M141.026 6.397C140.688 7.12619 140.364 7.99043 140.904 8.71963C141.107 8.9897 141.377 9.15175 141.701 9.20576C141.917 9.23277 142.201 9.13825 142.39 9.21927C142.7 9.3408 142.876 9.7054 142.727 10.0295C142.498 10.5021 143.2 10.9072 143.429 10.4346C143.713 9.82693 143.605 9.12474 143.065 8.67912C142.768 8.43605 142.498 8.43605 142.133 8.39554C141.147 8.30102 141.417 7.47729 141.728 6.81561C141.944 6.34298 141.242 5.92437 141.026 6.397Z" fill="#161616"/>
<path d="M184.063 34.4037C183.766 33.634 184.482 32.5267 185.386 32.8103C186.075 33.0398 186.386 34.0661 185.926 34.6333C185.602 35.0384 186.169 35.6055 186.494 35.2004C187.331 34.1876 186.912 32.4187 185.602 32.027C184.157 31.5949 182.767 33.2424 183.293 34.6063C183.469 35.1059 184.252 34.8898 184.063 34.4037Z" fill="#161616"/>
<path d="M26.4209 66.4613C26.3399 65.5025 27.5552 64.9623 28.0684 65.8671C28.5005 66.6503 27.6497 67.339 26.907 67.0824C26.4209 66.9069 26.2048 67.6901 26.691 67.8656C28.1899 68.4058 29.6078 66.7043 28.703 65.3539C27.7308 63.9091 25.4756 64.7598 25.6242 66.4613C25.6512 66.9744 26.4614 66.9879 26.4209 66.4613Z" fill="#161616"/>
<path d="M31.1181 28.6105C30.8076 29.1236 30.7806 29.7853 31.1857 30.2579C31.3882 30.4875 31.6718 30.636 31.9689 30.69C32.3875 30.7576 32.6981 30.528 33.0627 30.7035C33.4273 30.8926 33.3463 31.1222 33.3868 31.5003C33.4003 31.7298 33.4138 31.9459 33.4408 32.1754C33.4678 32.4185 33.4948 32.6616 33.6703 32.8506C33.8324 33.0262 34.0349 33.0937 34.2645 33.1342C34.4265 33.1612 34.5886 33.1477 34.7641 33.1477C34.8992 33.1477 35.0477 33.1477 35.1828 33.1747C35.4393 33.2422 35.5474 33.4178 35.5203 33.6744C35.3178 33.8229 35.5068 34.174 35.7229 34.0254C36.128 33.7284 35.993 33.2692 35.6419 32.9722C35.4798 32.8371 35.3043 32.7696 35.0882 32.7426C34.386 32.6481 33.9809 32.9181 33.8189 31.9324C33.7379 31.4462 33.9134 30.4335 33.4138 30.1094C33.1842 29.9608 32.9817 30.0284 32.7521 30.1229C32.3875 30.2714 32.0904 30.393 31.7123 30.1634C31.1992 29.8528 31.1857 29.2451 31.4692 28.786C31.6043 28.597 31.2532 28.3944 31.1181 28.6105Z" fill="#5E5E5E"/>
<path d="M36.5763 30.2174C36.3062 30.6901 35.9821 31.4058 36.4007 31.8919C36.6708 32.216 37.1299 32.1755 37.481 32.378C38.0347 32.6886 38.2913 33.3368 38.1832 33.9445C38.1427 34.201 38.5343 34.3091 38.5748 34.0525C38.6829 33.4448 38.5478 32.8507 38.1292 32.3915C37.9537 32.189 37.7241 32.0404 37.481 31.9324C37.1975 31.8109 36.7113 31.6623 36.6168 31.3112C36.5493 31.0547 36.8193 30.6225 36.9274 30.42C37.0489 30.1904 36.6978 29.9879 36.5763 30.2174Z" fill="#5E5E5E"/>
<path d="M112.588 72.8621C112.128 71.9168 112.993 70.8095 114.019 71.1741C115.086 71.5522 115.045 73.0106 114.032 73.4158C113.789 73.5103 113.897 73.9019 114.14 73.8074C115.45 73.2807 115.626 71.4037 114.262 70.8365C112.858 70.2424 111.615 71.7683 112.25 73.0782C112.358 73.3077 112.709 73.0917 112.588 72.8621Z" fill="#494949"/>
<path d="M62.8543 69.6617C61.9901 69.4861 63.3809 68.5544 63.5295 68.4599C63.7455 68.3113 63.9481 68.1493 64.0561 67.8927C64.4207 67.069 63.759 65.4215 65.2174 65.3405C65.474 65.327 65.474 64.9219 65.2174 64.9354C64.6503 64.9624 64.2317 65.273 63.9751 65.7591C63.5565 66.5423 64.0561 67.6091 63.2459 68.1493C62.7868 68.4599 62.3006 68.6624 62.2466 69.2701C62.2196 69.6347 62.3682 69.9588 62.7463 70.0398C63.0028 70.1073 63.1109 69.7157 62.8543 69.6617Z" fill="#7F7F7F"/>
<path d="M65.4471 68.4868C65.069 67.9602 65.2851 67.2175 65.9197 67.0149C66.3519 66.8799 66.6759 66.9474 66.919 66.5018C67.1621 66.0426 67.1216 65.5025 67.3916 65.0299C67.7292 64.4222 68.2964 64.0036 68.9446 63.801C69.1876 63.72 69.0931 63.3284 68.8365 63.4094C68.2289 63.5985 67.7022 63.9361 67.3106 64.4357C67.1081 64.6923 66.9325 64.9893 66.8245 65.3134C66.6759 65.7455 66.7435 66.3262 66.2573 66.5558C65.9603 66.7043 65.6632 66.6233 65.3796 66.8393C65.1905 66.9744 65.0555 67.1769 64.9745 67.3795C64.7854 67.8251 64.8259 68.2977 65.1095 68.6894C65.2446 68.9054 65.5957 68.7029 65.4471 68.4868Z" fill="#7F7F7F"/>
<path d="M51.7111 6.38352C51.468 5.89739 52.5078 6.07294 52.5483 6.08644C52.6969 6.14046 52.8454 6.26199 52.9804 6.34301C53.1965 6.46455 53.4396 6.58608 53.6961 6.59958C54.0337 6.61309 54.3173 6.46455 54.5334 6.22148C55.1545 5.46527 54.925 3.50724 56.3834 4.0879C56.8155 4.26344 57.3016 4.52001 57.7742 4.30396C58.1523 4.12841 58.2334 3.7503 58.1794 3.3722C58.1523 3.18315 57.9363 2.80505 57.9903 2.61599C58.0983 2.25139 58.4359 2.22439 58.6925 2.34592C58.814 2.39993 58.9221 2.48096 59.0571 2.52147C59.4622 2.67001 59.8538 2.643 60.0969 2.2649C60.2319 2.04884 59.8808 1.84628 59.7458 2.06234C59.4757 2.49446 58.3954 1.60322 57.9093 1.87329C57.5177 2.07585 57.5312 2.48096 57.6257 2.85906C57.7337 3.30468 58.0038 3.95286 57.1801 3.93936C56.8155 3.93936 56.4779 3.62877 56.1268 3.56125C55.7082 3.48023 55.3301 3.58826 55.06 3.91235C54.3848 4.70907 54.6414 6.78864 53.075 5.9379C52.6158 5.69484 52.2377 5.45177 51.7246 5.68133C51.333 5.85688 51.1439 6.19447 51.3465 6.58608C51.4815 6.81564 51.8191 6.61309 51.7111 6.38352Z" fill="#303030"/>
<path d="M67.7961 17.4023C67.1884 17.2538 67.1074 16.4705 67.4045 16.0114C67.8231 15.3632 68.8089 15.4038 69.4705 15.5253C70.5778 15.7278 71.6041 16.16 72.7249 15.7413C73.8052 15.3362 74.6155 14.4585 75.8308 14.4315C77.1001 14.4045 78.302 14.9581 79.5848 14.9176C81.8264 14.8501 83.8655 13.7428 86.0126 13.2297C87.2819 12.9191 88.5243 12.8921 89.7936 13.2162C91.0089 13.5267 92.1432 14.0264 93.3586 14.3235C94.6279 14.6475 95.8838 14.5935 97.1666 14.4855C98.571 14.3775 100.016 14.2694 101.285 14.9986C101.258 14.9176 101.218 14.8501 101.191 14.7691C100.516 16.7541 98.3279 17.5643 96.3969 17.6724C93.9797 17.8074 91.6301 16.9297 89.1994 17.0242C86.7418 17.1187 84.6622 18.6176 82.245 18.8472C79.7739 19.0903 77.4377 17.9154 74.9801 17.983C72.4819 18.0505 69.2275 19.4144 67.2559 17.1862C67.0804 16.9972 66.7968 17.2808 66.9724 17.4698C68.5253 19.2118 70.983 18.9012 73.049 18.5906C74.5749 18.3611 75.9658 18.3476 77.4917 18.6446C78.7881 18.9012 80.0844 19.2523 81.4078 19.2793C84.0815 19.3468 86.3367 17.6184 88.9699 17.4428C91.6301 17.2673 94.2093 18.3341 96.8695 18.037C98.8546 17.8209 100.921 16.8892 101.596 14.8636C101.623 14.7826 101.582 14.6746 101.501 14.634C99.1247 13.2432 96.2619 14.553 93.7097 13.9724C92.3053 13.6483 90.9954 13.0271 89.5775 12.73C88.3487 12.46 87.1334 12.5275 85.918 12.8246C84.6217 13.1351 83.3929 13.6483 82.1235 14.0399C80.6651 14.4855 79.2742 14.6205 77.7618 14.31C76.56 14.0534 75.4527 13.8508 74.3184 14.418C73.7917 14.6881 73.3056 15.0527 72.7654 15.2957C71.8472 15.7008 70.9695 15.4578 70.0377 15.2282C69.0519 14.9986 67.5665 14.8366 67.0129 15.9304C66.6618 16.6191 66.9048 17.6049 67.7151 17.7939C67.9446 17.8479 68.0527 17.4563 67.7961 17.4023Z" fill="#E8E8E8"/>
<path d="M11.5655 38.2114C13.402 37.9684 15.1439 38.9136 16.9669 38.6841C17.7096 38.5895 18.3983 38.2655 19.087 37.9819C19.4111 37.8468 19.7487 37.7253 20.0998 37.6443C20.7615 37.4957 21.3556 37.6713 22.0038 37.8063C23.8133 38.1979 25.8389 37.7658 27.6484 37.5092C28.5396 37.3877 29.4174 37.2527 30.3086 37.1041C31.3214 36.9286 32.3342 36.6585 33.3469 36.5505C34.4137 36.4425 35.6696 36.9151 35.2374 38.2249C34.8728 39.3457 33.509 39.6698 32.4827 39.7509C30.7002 39.8859 28.9312 39.3728 27.1487 39.7103C25.4878 40.0209 24.0024 40.8852 22.3954 41.3578C21.5042 41.6279 20.6129 41.7359 19.6947 41.6144C18.7764 41.4793 17.9122 41.2498 16.9669 41.3173C15.0494 41.4388 13.0104 42.5596 11.0928 42.114C9.91802 41.8439 9.31035 40.7636 9.8775 39.6428C10.4312 38.5625 11.7005 38.279 12.8078 38.279C13.0644 38.279 13.0644 37.8738 12.8078 37.8738C11.2549 37.8738 9.41838 38.549 9.25633 40.3315C9.10779 41.979 10.7282 42.6542 12.1191 42.6001C13.1319 42.5596 14.1312 42.2625 15.1169 42.033C16.3998 41.7359 17.5746 41.6279 18.871 41.8709C19.8297 42.0465 20.721 42.141 21.6932 41.952C22.6925 41.7629 23.6378 41.3578 24.5695 40.9797C25.5148 40.6016 26.4735 40.21 27.4863 40.0614C28.6746 39.8859 29.863 40.0749 31.0513 40.1425C32.6042 40.237 35.0754 40.1695 35.6426 38.333C35.8451 37.6713 35.6966 36.9016 35.1159 36.4695C34.5488 36.0508 33.779 36.0779 33.1174 36.1589C30.6867 36.4965 28.2965 37.0501 25.8389 37.3202C24.4615 37.4687 23.1381 37.6443 21.7878 37.3202C20.694 37.0501 19.8297 37.2392 18.8034 37.6578C18.2633 37.8738 17.7367 38.1169 17.1695 38.2249C16.4673 38.36 15.7381 38.2655 15.0359 38.1439C13.8881 37.9279 12.7673 37.6308 11.606 37.7793C11.3089 37.8333 11.3089 38.2384 11.5655 38.2114Z" fill="#E8E8E8"/>
<path d="M176.108 54.2677C173.556 55.1589 170.572 53.0524 168.735 51.4589C168.708 51.5669 168.681 51.6885 168.641 51.7965C169.937 51.2699 171.301 51.2429 172.678 51.3239C174.042 51.3914 175.406 51.4859 176.77 51.5264C179.673 51.6075 182.59 51.5399 185.48 51.3239C186.979 51.2158 188.464 51.0673 189.95 50.8918C190.679 50.7972 191.556 50.6217 192.245 50.9593C193.204 51.4454 193.123 52.4987 192.205 52.9038C191.732 53.1064 191.219 53.1739 190.719 53.2684C189.936 53.4034 189.153 53.552 188.37 53.687C186.938 53.9436 185.507 54.2002 184.062 54.4567C183.238 54.6053 182.414 54.7538 181.591 54.9024C180.821 55.0374 180.024 55.24 179.228 55.2535C177.877 55.267 176.864 54.0786 175.514 54.2272C175.258 54.2542 175.258 54.6593 175.514 54.6323C176.284 54.5378 176.891 54.9564 177.553 55.267C178.093 55.5235 178.62 55.6586 179.214 55.6586C180.767 55.6451 182.374 55.1724 183.9 54.8889C185.547 54.5918 187.208 54.2947 188.856 53.9976C189.639 53.8626 190.422 53.714 191.205 53.579C191.732 53.4845 192.286 53.3629 192.745 53.0524C193.515 52.5257 193.542 51.5534 192.893 50.9188C191.881 49.9195 190.139 50.4461 188.91 50.5812C185.588 50.9458 182.239 51.1348 178.89 51.1213C177.054 51.1213 175.217 51.0538 173.381 50.9323C171.747 50.8377 170.086 50.7567 168.546 51.3779C168.425 51.4319 168.33 51.6075 168.452 51.7155C170.396 53.4034 173.502 55.5775 176.216 54.6323C176.459 54.5783 176.365 54.1867 176.108 54.2677Z" fill="#E8E8E8"/>
<path d="M114.179 125.608C114.058 124.838 115.152 124.96 115.584 125.108C115.921 125.216 116.246 125.351 116.597 125.392C117.434 125.5 118.258 125.216 119.041 124.96C119.797 124.703 120.594 124.419 121.404 124.5C122.376 124.595 123.159 125.392 123.011 126.418C122.849 127.485 121.755 127.984 120.783 127.687C120.121 127.485 119.54 127.066 118.852 126.958C117.393 126.742 115.867 128.011 114.463 127.336C114.234 127.228 114.017 127.566 114.261 127.687C115.098 128.092 115.935 127.903 116.786 127.66C117.326 127.512 117.893 127.323 118.46 127.336C119.122 127.35 119.662 127.674 120.243 127.917C121.066 128.268 121.931 128.335 122.66 127.741C123.281 127.242 123.551 126.445 123.362 125.675C122.795 123.447 120.229 124.136 118.69 124.649C117.961 124.892 117.191 125.122 116.408 124.96C115.908 124.852 115.435 124.541 114.895 124.554C114.247 124.568 113.666 125.041 113.774 125.716C113.828 125.972 114.22 125.864 114.179 125.608Z" fill="#E8E8E8"/>
<path d="M98.6104 121.111C99.2586 120.503 100.15 120.247 101.028 120.436C101.392 120.517 102.405 120.787 101.77 121.273C101.433 121.529 100.69 121.502 100.285 121.502C100.028 121.502 100.028 121.908 100.285 121.908C100.879 121.908 101.919 121.881 102.364 121.408C102.743 121.003 102.31 120.557 101.946 120.355C100.785 119.679 99.2856 119.936 98.3269 120.827C98.1378 121.003 98.4214 121.286 98.6104 121.111Z" fill="#E8E8E8"/>
<path d="M91.1026 130.064C90.9946 130.023 90.9 129.983 90.792 129.942C90.7785 130.05 90.765 130.158 90.7515 130.266C91.5752 129.672 92.507 130.104 93.3847 130.307C94.1274 130.482 94.7756 130.401 95.5048 130.226C96.4095 130.01 97.3278 129.875 98.2595 129.821C98.6917 129.794 99.1238 129.78 99.5559 129.767C99.961 129.753 100.974 129.551 100.623 130.239C100.204 131.063 98.9887 131.09 98.246 130.847C97.6114 130.644 97.0172 130.347 96.342 130.509C95.6398 130.672 95.0457 131.117 94.3165 131.266C93.3442 131.468 92.3854 131.374 91.4537 131.036C91.2106 130.955 91.1026 131.333 91.3457 131.428C92.2639 131.752 93.2227 131.86 94.1949 131.698C95.2887 131.509 96.261 130.658 97.3953 130.969C98.2055 131.198 98.8672 131.563 99.7315 131.306C100.285 131.144 101.068 130.658 101.176 130.037C101.311 129.308 100.407 129.335 99.934 129.348C98.8402 129.375 97.7329 129.429 96.6391 129.591C96.0449 129.686 95.4778 129.848 94.8971 129.956C94.1814 130.091 93.6008 129.956 92.9121 129.767C92.1019 129.537 91.2646 129.402 90.5354 129.915C90.4274 129.996 90.4004 130.131 90.4949 130.239C90.6975 130.469 90.9135 130.523 91.1971 130.469C91.4672 130.415 91.3592 130.023 91.1026 130.064Z" fill="#E8E8E8"/>
<path d="M146.873 122.326C147.656 122.002 148.48 121.826 149.33 121.84C150.208 121.853 150.951 122.191 151.788 122.38C153.017 122.677 153.935 121.921 154.934 121.34C156.514 120.408 158.081 121.016 159.728 121.354C160.903 121.597 162.159 121.637 163.172 120.922C163.388 120.773 163.185 120.422 162.969 120.571C161.7 121.489 160.133 121.043 158.742 120.706C157.432 120.395 156.136 120.219 154.907 120.895C154.367 121.192 153.868 121.583 153.3 121.84C152.436 122.231 151.734 121.921 150.897 121.678C149.533 121.286 148.088 121.394 146.778 121.934C146.521 122.029 146.63 122.421 146.873 122.326Z" fill="#E8E8E8"/>
<path d="M52.9819 55.8338C54.1837 55.3746 56.2903 57.8458 57.3301 59.4663C58.9235 61.9104 59.1801 64.044 59.9633 68.9864C60.2604 70.9039 60.7465 73.9422 61.4082 77.7773C62.5965 78.9386 63.0421 80.0729 63.2177 80.7751C63.4607 81.6798 63.5283 82.8411 63.2177 82.9492C62.8801 83.0707 62.2859 81.9364 62.0429 82.0444C61.7188 82.193 62.7721 84.016 62.1374 84.8532C61.4892 85.7039 59.0585 85.5689 57.7892 84.313C56.6009 83.1382 57.0735 81.6393 56.8844 78.0608C56.8169 76.8455 56.6279 73.5371 55.6151 70.2692C54.3728 66.2856 53.0764 66.0831 52.3472 62.5586C51.8341 60.0739 51.6855 56.3334 52.9819 55.8338Z" fill="white" stroke="#161616" stroke-width="0.270074"/>
<path opacity="0.15" d="M54.7651 59.3177C55.5078 59.1556 56.8042 62.5181 56.8852 62.7071C58.0735 65.813 57.5064 67.1363 58.033 71.7141C58.4651 75.4411 58.7082 77.5612 59.91 80.1809C61.0713 82.6926 62.4217 84.1645 61.9086 84.8397C61.3954 85.5284 59.3834 84.8667 57.8034 84.232C57.6549 83.8944 57.4388 83.3678 57.2633 82.7196C56.8177 81.1397 56.8447 79.8838 56.8447 79.2761C56.8447 78.9386 56.8312 75.0225 56.0615 71.606C55.6428 69.783 55.4538 70.0531 54.9677 68.1626C53.9009 64.0575 53.9414 59.4932 54.7651 59.3177Z" fill="#6D6C6C"/>
<path opacity="0.17" d="M56.5866 65.8535C56.7351 67.2579 56.9242 69.351 57.0052 71.9032C57.1267 75.8327 56.9377 79.1006 56.8296 79.1006C56.7351 79.1006 56.8566 76.751 56.3435 73.5371C56.0059 71.4035 55.5063 69.6751 55.1282 68.5272C55.3847 68.2707 55.6953 67.9196 55.9789 67.4334C56.33 66.8123 56.5056 66.2451 56.5866 65.8535Z" fill="#6D6C6C"/>
<path d="M55.6556 113.751C55.3045 114.399 55.2505 115.101 56.0607 121.219C56.1553 121.975 56.2498 122.596 56.3038 123.028C58.3699 123.352 61.2867 123.609 64.7436 123.271C66.8367 123.069 69.2809 122.839 69.4159 122.042C69.5239 121.394 68.106 120.233 61.6243 118.018C61.3272 115.858 61.0166 113.697 60.7195 111.536C56.925 111.793 55.9392 113.251 55.6556 113.751Z" fill="#161616"/>
<path d="M47.5134 75.2522C48.7827 76.9807 50.5922 79.4654 52.7123 82.5037C57.7357 89.6877 60.2474 93.2797 61.1251 95.6833C63.7178 102.8 63.0426 109.714 62.7861 112.063C62.6375 113.414 62.4485 114.521 62.2999 115.277C61.2737 115.669 59.8018 116.101 58.0058 116.249C56.3988 116.384 55.0214 116.236 54.0087 116.06C53.6981 114.224 53.4415 112.158 53.32 109.916C53.1444 106.581 53.3065 103.596 53.6171 101.044C50.1466 98.3841 47.905 95.6428 46.5411 93.7388C42.8951 88.5939 41.9229 84.1377 41.3422 81.2749C40.5185 77.3048 41.0856 76.2245 41.6123 75.6573C43.3678 73.8343 47.1758 75.1442 47.5134 75.2522Z" fill="white" stroke="#161616" stroke-width="0.270074"/>
<path opacity="0.19" d="M47.9045 86.6492C49.2954 87.824 51.1049 89.566 52.8604 91.9561C53.3465 92.6313 55.3586 95.5076 57.1275 100.126C59.5582 106.527 59.7608 112.495 59.6527 115.871C59.0586 116.087 58.2213 116.317 57.2221 116.398C55.8852 116.492 54.7914 116.263 54.0892 116.047C53.6571 113.413 53.333 110.375 53.306 106.999C53.2925 104.812 53.387 102.773 53.5626 100.909C53.225 100.72 46.7027 97.047 46.7837 90.9028C46.7972 89.1879 47.3374 87.7295 47.9045 86.6492Z" fill="#6D6C6C"/>
<path opacity="0.15" d="M49.6469 96.9931C49.944 96.588 53.6575 97.7223 55.1294 100.477C56.2368 102.543 55.3455 104.137 55.386 107.08C55.413 109.281 55.9802 112.414 58.4244 116.209C57.0065 116.182 55.5886 116.155 54.1572 116.128C53.7656 113.616 53.455 110.753 53.374 107.607C53.3065 105.122 53.3875 102.827 53.5495 100.734C53.0229 100.464 52.3477 100.045 51.632 99.4238C50.8353 98.7216 49.4309 97.2902 49.6469 96.9931Z" fill="#6D6C6C"/>
<path d="M31.7952 112.684C30.7689 113.346 30.5933 114.264 29.6616 116.29C29.0134 117.694 28.0411 119.571 26.5422 121.705C27.393 122.664 28.8109 124.001 30.8904 124.986C33.7397 126.337 37.7368 126.985 38.358 125.81C39.0197 124.541 35.5492 121.529 34.5094 120.638C34.793 120.003 35.2521 118.991 35.8193 117.762C37.3182 114.548 37.6153 114.075 37.3722 113.495C36.805 112.117 33.6587 111.496 31.7952 112.684Z" fill="#161616"/>
<path d="M36.1309 72.2004C35.3206 74.4285 34.4969 76.6567 33.6867 78.8713C32.3498 82.7333 32.9305 85.4071 33.3626 86.6899C33.8352 88.1078 34.659 89.3231 36.2929 91.7403C37.5623 93.6038 38.7101 95.1027 39.5473 96.1425C37.8728 97.8845 35.9688 100.14 34.1728 102.975C31.7557 106.81 30.3243 110.416 29.4465 113.238C30.2433 113.846 31.4451 114.616 33.025 115.196C34.794 115.844 36.3604 115.993 37.4272 116.006C39.3042 114.562 41.8699 112.306 44.2601 108.998C46.1371 106.419 48.6623 102.948 49.4725 98.087C50.8499 89.8093 46.3532 83.0709 44.7462 80.6673C41.8429 76.3056 38.359 73.6588 36.1309 72.2004Z" fill="white" stroke="#161616" stroke-width="0.270074"/>
<path d="M41.8156 77.0617C42.8554 78.5066 43.8817 79.965 44.8675 81.4369C44.989 81.3694 45.097 81.3018 45.2186 81.2343C44.3408 80.0595 43.5576 78.8037 42.8824 77.4938C42.7879 77.5883 42.6934 77.6829 42.5988 77.7774C43.1525 78.1555 43.4631 78.7226 43.8007 79.2763C44.1923 79.9245 44.5974 80.5726 44.989 81.2208C45.7587 82.4767 46.5284 83.746 47.2981 85.0019C47.4197 84.9343 47.5277 84.8668 47.6492 84.7993C46.4744 82.9628 45.2996 81.1263 44.1113 79.2898C43.9762 79.0737 43.6251 79.2763 43.7602 79.4924C45.2186 81.923 46.6905 84.3402 48.1489 86.7708C48.2839 87.0004 48.635 86.7979 48.5 86.5683C47.4332 84.7588 46.3799 82.9358 45.3131 81.1263C45.2051 81.2073 45.097 81.2883 44.989 81.3694C46.5149 83.0573 46.785 85.515 48.4459 87.0949C48.635 87.2705 48.9186 86.9869 48.7295 86.8114C47.0686 85.2449 46.7985 82.7737 45.2726 81.0858C45.1105 80.9102 44.8405 81.1398 44.9485 81.3289C46.0153 83.1383 47.0686 84.9613 48.1354 86.7708C48.2569 86.7033 48.3649 86.6358 48.4865 86.5683C47.0281 84.1376 45.5562 81.7205 44.0978 79.2898C43.9762 79.3573 43.8682 79.4248 43.7467 79.4924C44.9215 81.3289 46.0963 83.1654 47.2846 85.0019C47.4197 85.2179 47.7708 85.0154 47.6357 84.7993C46.7715 83.3814 45.9072 81.9635 45.043 80.5591C44.4083 79.5059 43.8277 78.142 42.7744 77.4263C42.5988 77.3048 42.4098 77.5343 42.4908 77.7099C43.166 79.0197 43.9357 80.2621 44.827 81.4504C44.9755 81.6529 45.3266 81.4639 45.178 81.2478C44.1923 79.7624 43.1795 78.304 42.1262 76.8726C42.0182 76.6431 41.6671 76.8456 41.8156 77.0617Z" fill="white"/>
<path opacity="0.2" d="M42.665 77.656C41.9628 78.6687 40.9905 80.3432 40.5719 82.5443C39.289 89.2151 44.6905 92.1724 43.4887 98.0195C42.854 101.098 41.2471 100.815 37.6551 107.216C35.8321 110.47 34.6708 113.333 33.9821 115.277C33.1043 115.007 32.1456 114.656 31.1328 114.197C30.5386 113.927 29.985 113.657 29.4854 113.373C30.2821 110.889 31.4839 107.891 33.2934 104.677C35.346 101.044 37.6011 98.2086 39.5051 96.1155C38.9784 95.4403 38.1952 94.414 37.2905 93.1312C34.7923 89.5932 33.523 87.7837 33.1043 85.7042C32.6317 83.4085 33.0233 81.4505 33.2934 80.1271C33.6985 78.1286 34.3872 76.5622 34.9408 75.4954C37.5065 76.2111 40.0858 76.9403 42.665 77.656Z" fill="#6D6C6C"/>
<path opacity="0.17" d="M39.4935 76.8322C37.9676 78.5741 35.9691 81.4369 36.1311 84.8939C36.3742 90.3088 41.7216 92.3749 40.9519 96.8176C40.7359 98.0465 39.0344 100.018 35.618 103.921C33.7409 106.068 32.1475 107.783 31.0537 108.93C31.8909 106.878 33.1063 104.42 34.8618 101.827C36.4147 99.5319 38.0081 97.6954 39.426 96.2505C39.0074 95.6158 38.2647 94.4815 37.3329 93.0771C34.0785 88.1888 33.4439 87.419 33.0793 85.7176C32.6471 83.719 32.9307 82.0311 33.1468 80.7752C33.5384 78.4391 34.3621 76.6431 34.9833 75.5088C36.4822 75.9409 37.9946 76.3865 39.4935 76.8322Z" fill="#6D6C6C"/>
<path d="M46.473 53.3358C44.5555 54.4701 40.9095 56.9683 38.1277 61.5595C34.5898 67.4066 34.5898 73.1187 34.7113 75.3333C35.373 75.5494 36.0482 75.7654 36.7369 75.968C41.3416 77.3454 45.7978 78.2771 50.011 78.8713C50.3621 77.6694 50.7402 76.4541 51.1453 75.1983C51.753 73.3483 52.3876 71.5793 53.0358 69.8913C55.2774 68.73 56.0606 67.2311 56.3172 66.6099C57.357 64.1793 56.3712 61.6406 55.3044 58.8993C54.7103 57.3599 54.3997 56.5767 53.657 55.7394C51.3344 53.1062 47.4993 53.2683 46.473 53.3358Z" fill="#B5B5B5"/>
<path opacity="0.27" d="M51.0247 56.5361C47.3382 57.0222 45.3667 58.6967 44.5699 59.4799C40.0732 63.9226 41.6261 71.4172 42.0447 73.4427C42.4229 75.2657 42.99 76.7241 43.4356 77.7099C40.5863 76.9402 37.7506 76.157 34.9013 75.3872C34.7257 73.3212 34.5502 68.0142 37.6155 62.3562C40.4648 57.1167 44.5564 54.4295 46.3794 53.3762C46.636 53.3897 46.8926 53.4167 47.1491 53.4302C47.5408 53.8894 48.0134 54.3755 48.594 54.8751C49.4583 55.6313 50.309 56.158 51.0247 56.5361Z" fill="#6D6C6C"/>
<path opacity="0.2" d="M39.2078 59.9255C38.8297 61.9106 38.5191 64.7869 38.9242 68.1898C39.4103 72.1869 40.6932 75.2792 41.6924 77.2238C39.3698 76.6296 37.0337 76.0354 34.711 75.4548C34.603 73.5913 34.657 70.796 35.5483 67.5821C36.5205 64.0712 38.087 61.5055 39.2078 59.9255Z" fill="#6D6C6C"/>
<path d="M153.368 104.542C152.517 106.446 152.679 108.228 152.814 109.065C155.474 110.24 157.838 110.78 159.647 111.051C160.241 111.145 167.587 112.185 168.303 110.173C168.478 109.673 168.195 109.16 167.911 108.66C166.331 105.892 162.334 105.73 161.794 105.717C161.646 102.84 159.796 100.707 157.905 100.558C155.231 100.356 153.557 104.123 153.368 104.542Z" fill="#161616"/>
<path d="M156.88 58.0891C158.635 60.6143 160.999 64.5439 162.714 69.7563C165.509 78.2501 165.05 85.3801 164.739 89.4177C164.469 93.0097 163.74 98.1141 161.701 104.002C161.147 104.353 158.703 105.811 155.611 105.149C153.774 104.758 152.532 103.786 151.938 103.245C153.031 100.842 154.355 97.2228 154.854 92.7126C155.408 87.7972 154.733 83.9487 153.842 79.0063C151.816 67.8388 149.021 63.5986 151.438 60.4793C152.599 58.9669 154.584 58.2917 156.88 58.0891Z" fill="white" stroke="#161616" stroke-width="0.270074"/>
<path opacity="0.16" d="M157.84 64.2603C158.759 68.73 159.488 73.8614 159.771 79.5599C160.258 89.6742 159.164 98.3976 157.746 105.19C157.138 105.271 155.666 105.366 154.1 104.582C153.168 104.11 152.533 103.488 152.169 103.056C153.857 99.1673 154.464 95.8589 154.708 93.6308C155.086 90.1333 154.775 87.3246 154.194 82.0851C153.857 79.0198 153.465 76.5081 153.182 74.7931C154.735 71.2957 156.287 67.7712 157.84 64.2603Z" fill="#6D6C6C"/>
<path opacity="0.22" d="M154.882 70.9851C156.043 74.0099 157.785 79.776 157.191 87.1085C156.624 94.171 154.139 99.4239 152.559 102.206C155.206 94.5626 155.341 89.8768 154.936 86.9735C154.828 86.2308 154.369 83.287 153.842 78.9523C153.626 77.1563 153.464 75.6844 153.37 74.7391C153.883 73.4833 154.382 72.2274 154.882 70.9851Z" fill="#6D6C6C"/>
<path d="M133.827 98.6944C132.707 99.2481 132.369 100.153 130.83 103.083C129.803 105.028 128.939 106.581 128.372 107.58C130.1 108.822 132.842 110.456 136.501 111.32C138.662 111.834 143.158 112.549 143.672 111.32C144.239 109.957 139.621 106.81 137.676 105.541C139.675 103.596 139.769 100.774 138.419 99.3291C137.271 98.1003 135.191 98.0193 133.827 98.6944Z" fill="#161616"/>
<path d="M153.408 57.8053C157.864 61.7348 152.651 74.8334 148.371 85.3123C146.521 89.836 143.631 96.3853 139.377 104.042C138.635 104.15 136.406 104.366 134.03 103.083C131.64 101.8 130.6 99.7883 130.289 99.1266C131.532 96.9795 133.031 94.0897 134.462 90.5652C135.029 89.1744 137.473 82.9627 138.851 74.1853C139.391 70.7148 139.877 66.1371 139.809 60.6951C140.606 59.8848 145.049 55.5231 150.302 56.5224C151.099 56.671 152.408 56.9275 153.408 57.8053Z" fill="white" stroke="#161616" stroke-width="0.270074"/>
<path d="M154.854 63.2066C154.84 63.6792 154.827 64.1519 154.827 64.6245C154.962 64.6245 155.097 64.6245 155.232 64.6245C155.164 63.8683 155.205 63.1526 155.353 62.4099C155.218 62.3964 155.083 62.3694 154.962 62.3559C155.043 63.9493 154.678 65.6238 154.395 67.1902C154.111 68.7701 153.733 70.3366 153.287 71.876C153.422 71.9165 153.544 71.9435 153.679 71.984C154.422 69.1752 155.043 66.353 155.556 63.4902C155.596 63.2336 155.205 63.1256 155.164 63.3821C154.651 66.2314 154.03 69.0672 153.287 71.876C153.22 72.1325 153.611 72.2406 153.679 71.984C154.152 70.3636 154.53 68.7026 154.827 67.0417C155.097 65.5292 155.448 63.8953 155.367 62.3559C155.353 62.1398 155.016 62.0723 154.975 62.3019C154.813 63.0716 154.773 63.8413 154.84 64.6245C154.867 64.8811 155.245 64.8946 155.245 64.6245C155.259 64.1519 155.272 63.6792 155.272 63.2066C155.272 62.95 154.867 62.95 154.854 63.2066Z" fill="white"/>
<path d="M153.137 71.0253C153.15 72.0651 153.177 73.1049 153.191 74.1447C153.191 74.4012 153.596 74.4012 153.596 74.1447C153.582 73.1049 153.555 72.0651 153.542 71.0253C153.528 70.7552 153.123 70.7552 153.137 71.0253Z" fill="white"/>
<path opacity="0.19" d="M147.521 62.0049C147.562 64.7191 147.413 68.4191 146.616 72.7133C145.766 77.2641 144.469 80.7885 142.579 86.0955C141.039 90.4437 140.297 91.74 138.73 96.5608C137.771 99.4911 137.096 101.949 136.664 103.596C135.921 103.502 134.382 103.191 132.843 102.043C131.411 100.977 130.682 99.7072 130.358 99.0455C132.843 94.6838 134.423 90.8623 135.422 88.0805C138.514 79.4787 139.243 71.9976 139.662 67.3929C139.838 65.4753 139.932 63.8819 139.973 62.8421C142.484 62.5585 145.009 62.2885 147.521 62.0049Z" fill="#6D6C6C"/>
<path opacity="0.24" d="M146.13 62.3965C145.077 67.0283 143.861 70.6742 142.903 73.2264C142.119 75.333 140.918 78.1688 138.527 83.8268C137.65 85.9199 137.204 86.9597 136.988 87.4323C135.665 90.4031 133.545 94.5758 130.155 99.4911C133.193 94.0356 136.677 86.2575 138.527 76.4538C139.459 71.5115 139.797 67.0012 139.837 63.0987C139.824 63.0852 139.824 63.0852 146.13 62.3965Z" fill="#6D6C6C"/>
<path d="M150.399 29.1914C150.615 29.718 150.993 30.4877 151.681 31.2709C152.181 31.8381 152.816 32.5673 153.761 32.8509C155.598 33.418 157.38 31.9596 157.623 31.7571C159.406 32.8103 161.188 33.8636 162.957 34.9169C163.119 37.118 163.133 40.4399 162.268 44.3155C161.445 48.002 160.648 48.4476 160 52.0261C159.014 57.4006 159.743 62.1944 159.5 62.2079C159.46 62.2079 159.406 62.0999 159.298 61.5192C152.343 62.0458 145.389 62.5725 138.434 63.0991C138.232 58.9265 138.259 55.4155 138.34 52.8228C138.448 48.7717 138.772 43.8699 140.122 38.1848C141.081 34.1202 141.837 32.7428 142.985 31.6625C145.47 29.2994 148.873 29.1508 150.399 29.1914Z" fill="#686868"/>
<path opacity="0.3" d="M158.446 32.2432C158.216 34.7143 157.784 38.3873 156.96 42.7896C156.717 44.1129 156.029 47.7589 155.475 49.5414C154.8 51.729 152.167 57.9812 139.284 63.0586C143.214 62.5995 147.265 62.1944 151.41 61.8568C154.003 61.6407 156.569 61.4517 159.094 61.3031C159.985 58.1297 160.809 54.5378 161.403 50.5677C162.308 44.5585 162.483 39.13 162.335 34.5523C161.039 33.7826 159.742 33.0129 158.446 32.2432Z" fill="#3F3F3F"/>
<path d="M152.935 20.3195C152.381 22.7501 152.084 25.1808 150.41 28.3002C150.005 29.0564 149.613 29.664 149.356 30.0421C149.923 30.7038 151.936 32.8509 155.244 33.337C157.134 33.6071 158.687 33.229 159.565 32.9454C159.552 32.0812 159.579 31.1089 159.687 30.0556C159.849 28.4757 160.159 27.0983 160.497 25.9505C162.131 25.7345 163.751 25.5319 165.385 25.3158C165.709 24.6001 166.02 23.8844 166.344 23.1688C166.79 23.1553 167.235 23.1417 167.681 23.1147C167.343 22.129 166.83 20.5895 166.249 18.6585C165.142 15.0395 165.169 14.5264 164.575 13.7162C162.941 11.5016 159.268 10.0702 156.864 11.272C154.812 12.2848 154.164 14.918 152.935 20.3195Z" fill="white" stroke="#161616" stroke-width="0.270074"/>
<path d="M167.641 22.9394C166.844 22.9529 166.048 22.8989 165.251 22.7773C164.994 22.7368 164.886 23.1284 165.143 23.169C165.967 23.2905 166.804 23.358 167.641 23.3445C167.911 23.3445 167.911 22.9394 167.641 22.9394Z" fill="#161616"/>
<path d="M168.194 16.5116C167.492 16.12 166.627 16.3496 166.168 16.9978C166.02 17.2138 166.371 17.4164 166.519 17.2003C166.857 16.7277 167.492 16.5927 167.991 16.8627C168.221 16.9843 168.423 16.6332 168.194 16.5116Z" fill="#161616"/>
<path d="M167.829 19.0232C167.91 18.7126 167.883 18.3885 167.734 18.0915C167.626 17.8754 167.383 17.6458 167.113 17.7404C166.829 17.8484 166.856 18.2265 166.897 18.4696C166.951 18.7667 167.113 19.0232 167.329 19.2258C167.45 19.3338 167.68 19.2663 167.68 19.0772C167.68 18.7396 167.599 18.4156 167.45 18.105C167.342 17.8754 166.991 18.078 167.099 18.3075C167.221 18.5506 167.275 18.8072 167.275 19.0772C167.396 19.0232 167.505 18.9827 167.626 18.9287C167.41 18.7396 167.275 18.4696 167.288 18.1725C167.302 18.1455 167.288 18.1185 167.261 18.1185C167.288 18.132 167.315 18.159 167.329 18.186C167.383 18.2535 167.41 18.321 167.437 18.4021C167.491 18.5641 167.491 18.7261 167.45 18.9017C167.369 19.1718 167.761 19.2798 167.829 19.0232Z" fill="#161616"/>
<path d="M164.117 17.0651C163.307 16.8086 162.442 17.1326 161.97 17.8348C161.821 18.0509 162.172 18.2535 162.321 18.0374C162.699 17.4837 163.374 17.2542 164.009 17.4567C164.252 17.5243 164.36 17.1462 164.117 17.0651Z" fill="#161616"/>
<path d="M164.331 19.3878C164.358 19.0097 164.21 18.429 163.818 18.267C163.305 18.0644 163.305 18.7801 163.372 19.0907C163.44 19.4013 163.683 19.9549 164.102 19.7254C164.264 19.6309 164.291 19.4553 164.237 19.2798C164.142 19.0232 163.994 18.7666 163.859 18.5236C163.751 18.6046 163.643 18.6856 163.535 18.7666C163.602 18.8206 163.629 18.8747 163.656 18.9557C163.724 19.2122 164.115 19.1042 164.048 18.8476C164.007 18.6991 163.94 18.5776 163.818 18.4695C163.643 18.3075 163.399 18.5101 163.494 18.7126C163.548 18.8071 163.589 18.9152 163.643 19.0097C163.683 19.0907 163.724 19.2528 163.791 19.3068C163.805 19.4013 163.845 19.4013 163.872 19.3203C163.845 19.2933 163.832 19.2528 163.818 19.2122C163.778 19.1312 163.751 19.0367 163.737 18.9422C163.71 18.8476 163.724 18.7531 163.71 18.6721C163.71 18.6046 163.71 18.6046 163.71 18.6586C163.751 18.6991 163.778 18.7396 163.805 18.7801C163.913 18.9557 163.94 19.1447 163.926 19.3473C163.899 19.6579 164.304 19.6579 164.331 19.3878Z" fill="#161616"/>
<path d="M165.168 14.621C165.047 13.8783 164.763 12.6765 163.967 11.4206C163.683 10.975 163.089 10.0432 162.116 9.40856C160.28 8.20673 157.458 8.30125 155.405 9.77316C153.393 11.2181 152.394 13.7973 152.839 16.3765C156.945 15.7958 161.063 15.2151 165.168 14.621Z" fill="#4C4C4C"/>
<path d="M171.893 13.2975C165.559 14.0942 159.24 14.8909 152.907 15.6876C152.137 15.7822 152.137 16.9975 152.907 16.903C159.24 16.1062 165.559 15.3095 171.893 14.5128C172.662 14.4183 172.676 13.2029 171.893 13.2975Z" fill="#161616"/>
<path d="M156.944 16.2143C158.065 16.6194 158.713 17.3891 159.456 18.3074C161.049 20.2384 160.577 20.9541 161.697 22.1559C163.48 24.0735 165.289 22.9392 166.869 24.8162C168.22 26.4096 168.044 28.5567 167.99 29.0563C167.936 29.529 167.693 31.4465 166.127 32.7698C164.763 33.9042 162.926 34.1742 162.818 33.9177C162.778 33.8231 162.926 33.5936 163.939 32.9184C163.642 33.1209 163.183 33.3775 162.589 33.4855C161.9 33.6071 161.238 33.4855 161.238 33.391C161.238 33.31 161.603 33.31 161.886 33.0129C162.062 32.8374 162.129 32.6213 162.17 32.4458C161.616 32.8104 160.928 33.1209 160.252 32.9184C158.443 32.3647 158.119 28.3541 158.011 27.0173C157.66 22.7096 158.902 20.3464 157.403 18.834C157.282 18.7125 156.674 18.0913 155.999 18.2129C155.148 18.3749 154.513 19.6848 154.783 20.549C155.026 21.2917 155.864 21.5078 155.81 21.6428C155.729 21.8183 154.297 21.5483 153.109 20.5895C152.677 20.2384 152.312 19.9548 152.137 19.4417C151.813 18.5505 152.191 17.5242 152.69 16.9165C153.744 15.6742 155.729 15.7687 156.944 16.2143Z" fill="#161616" stroke="#161616" stroke-width="0.270074"/>
<path opacity="0.22" d="M155.271 21.7778C155.541 21.8048 155.919 21.8183 155.946 21.7238C155.959 21.6832 155.865 21.6157 155.865 21.6157C155.865 21.6022 156.189 22.0208 156.58 22.0749C156.77 22.1019 156.945 22.0343 157.04 21.9803C156.324 23.4117 155.568 25.2347 154.987 27.4088C154.433 29.4479 154.177 31.2844 154.055 32.8103C153.421 32.6618 152.502 32.3782 151.503 31.757C150.49 31.1358 149.815 30.4201 149.41 29.907C150.355 28.5161 150.895 27.3008 151.22 26.4636C151.449 25.8559 151.53 25.4643 152.07 23.6953C152.462 22.3989 152.772 21.3322 152.989 20.6165C153.097 20.711 153.272 20.8595 153.502 21.0216C153.799 21.2511 154.433 21.6832 155.271 21.7778Z" fill="#6D6C6C"/>
<path d="M159.809 8.67936C158.161 9.00345 156.932 10.3133 156.743 11.8797C156.527 13.7297 157.878 14.9991 158.013 15.1071C156.257 15.3232 154.515 15.5392 152.76 15.7553C152.733 15.3502 152.719 14.7965 152.827 14.1484C153.165 12.0823 154.38 10.7994 154.623 10.5294C155.028 10.1108 156.473 8.74688 158.607 8.62534C159.106 8.58483 159.525 8.62534 159.809 8.67936Z" fill="#383838"/>
<path d="M162.55 34.7813C163.63 34.6193 164.738 36.4963 165.251 37.3605C168.222 42.4109 166.979 48.2445 166.601 49.946C166.304 51.2829 165.751 53.646 164.022 56.2522C162.375 58.7639 160.43 60.3168 159.188 61.1676C157.108 61.9643 153.327 63.0581 148.776 62.3154C147.196 62.0588 145.819 61.6267 144.671 61.1676C142.727 61.2891 140.782 61.3971 138.838 61.5187C138.527 61.4646 138.095 61.3836 137.582 61.1946C136.961 60.965 136.367 60.7354 136.367 60.5194C136.367 60.2763 137.042 59.8982 140.337 59.3851C140.175 59.4121 138.014 59.8307 136.569 58.3183C135.219 56.9139 135.138 54.5102 136.164 53.565C137.028 52.7683 138.433 53.1194 140.998 53.8081C143.537 54.4832 145.576 55.4015 147.061 56.1847C147.629 56.4413 152.044 58.3453 156.082 56.0227C159.161 54.2537 160.187 51.0803 160.43 50.2026C161.402 46.7186 159.633 45.4898 160.268 40.4529C160.349 39.5887 160.93 35.0109 162.55 34.7813Z" fill="white" stroke="#161616" stroke-width="0.270074"/>
<path d="M135.649 56.5763C137.216 56.6979 138.715 57.076 140.146 57.7241C140.376 57.8322 140.592 57.4811 140.349 57.373C138.85 56.6844 137.283 56.2792 135.649 56.1577C135.393 56.1577 135.393 56.5628 135.649 56.5763Z" fill="#161616"/>
<path d="M135.556 54.929C137.352 54.875 138.878 55.9688 140.553 56.4819C140.796 56.563 140.904 56.1714 140.661 56.0903C138.959 55.5637 137.406 54.4699 135.556 54.5239C135.3 54.5374 135.286 54.9425 135.556 54.929Z" fill="#161616"/>
<path d="M137.285 53.4975C138.757 53.619 140.053 54.3212 141.322 55.0369C141.552 55.1584 141.754 54.8208 141.525 54.6858C140.188 53.9431 138.838 53.2274 137.285 53.0924C137.015 53.0653 137.015 53.4705 137.285 53.4975Z" fill="#161616"/>
<path opacity="0.18" d="M160.902 37.2661C160.105 40.4664 162.226 42.627 162.941 46.2865C163.063 46.9347 164.022 52.1877 161.213 55.9147C158.08 60.0738 151.868 60.2223 150.653 60.2629C147.48 60.3439 146.278 59.4121 141.308 59.6687C140.836 59.6957 136.515 59.9388 136.474 60.5464C136.46 60.8705 137.662 61.2351 138.567 61.3567C139.755 61.5187 140.377 61.2486 141.889 61.1271C142.537 61.0731 143.469 61.0326 144.617 61.1271C145.994 61.6943 147.777 62.2479 149.91 62.464C150.491 62.518 152.3 62.68 154.623 62.3424C154.623 62.3424 156.567 62.0724 158.107 61.5322C161.928 60.2088 165.709 54.6318 166.776 48.5552C167.978 41.7088 165.304 36.5504 163.805 35.4026C163.603 35.2405 163.022 34.7949 162.415 34.9434C161.429 35.1595 161.024 36.7664 160.902 37.2661Z" fill="#6D6C6C"/>
<path opacity="0.17" d="M166.602 41.3306C166.386 41.3306 166.386 43.9098 165.792 47.1507C165.427 49.1222 164.684 53.1328 162.888 55.9281C159.688 60.9109 153.152 62.0317 150.668 62.3288C152.801 62.6259 156.083 62.6934 159.283 60.9919C166.224 57.2919 166.899 48.366 167.021 46.7455C167.21 44.0178 166.818 41.3306 166.602 41.3306Z" fill="#6D6C6C"/>
<path d="M49.9979 92.4289C55.5885 87.4595 61.206 82.5172 66.8505 77.6153C77.4915 68.3653 88.2269 59.2368 99.0704 50.2163C98.2196 47.6912 97.1258 43.316 97.774 37.9955C97.9766 36.3075 99.705 23.8706 111.102 17.4429C112.047 16.9027 125.132 9.82679 137.394 17.6319C145.483 22.7768 149.669 32.1619 148.683 41.3309C147.225 54.9561 135.125 60.9923 134.423 61.3299C125.7 65.489 115.207 64.2602 107.389 58.1835C95.6404 67.8522 83.9192 77.5343 72.2115 87.2435C67.0801 91.4971 61.9622 95.7508 56.8443 100.018C55.7775 99.5048 54.0085 98.4785 52.4151 96.6015C51.0782 95.0351 50.376 93.4687 49.9979 92.4289Z" fill="#161616"/>
<ellipse cx="123.499" cy="39.0622" rx="21.4169" ry="20.5256" fill="white" stroke="#161616" stroke-width="0.270074"/>
<path d="M125.239 19.671C121.323 27.9622 117.204 36.1725 112.897 44.2747C111.681 46.5568 110.453 48.839 109.21 51.1076C109.089 51.3371 109.44 51.5397 109.561 51.3101C113.977 43.2619 118.204 35.1192 122.228 26.8684C123.362 24.5458 124.483 22.2097 125.604 19.86C125.712 19.644 125.361 19.4414 125.239 19.671Z" fill="#E8E8E8"/>
<path d="M131.844 21.6829C127.55 28.4618 123.472 35.3622 119.596 42.3841C119.475 42.6137 119.826 42.8162 119.947 42.5867C123.823 35.5647 127.901 28.6644 132.195 21.8855C132.33 21.6694 131.979 21.4669 131.844 21.6829Z" fill="#E8E8E8"/>
<path d="M118.88 44.7608C117.098 48.2312 115.194 51.6477 113.155 54.9831C113.019 55.2126 113.371 55.4152 113.506 55.1856C115.531 51.8502 117.449 48.4338 119.231 44.9633C119.353 44.7338 119.002 44.5177 118.88 44.7608Z" fill="#E8E8E8"/>
<path d="M126.374 34.6332C124.105 38.9004 121.85 43.1675 119.581 47.4347C119.46 47.6643 119.811 47.8668 119.932 47.6373C122.201 43.3701 124.456 39.1029 126.725 34.8358C126.846 34.6062 126.495 34.4036 126.374 34.6332Z" fill="#E8E8E8"/>
<path opacity="0.08" d="M122.863 18.4692C121.364 19.0094 111.493 22.7094 108.333 32.6211C107.968 33.7689 106.834 37.4689 107.685 41.7496C109.319 49.9058 117.475 56.5092 128.143 58.7238C127.333 58.9938 126.198 59.3179 124.794 59.4935C116.314 60.5603 109.737 54.7807 108.968 54.092C107.293 52.5661 102.121 47.3807 102.027 39.1704C102.013 38.4547 102.054 30.3525 108.198 24.5054C111.776 21.1025 115.962 19.8601 117.718 19.3605C119.77 18.7798 121.566 18.5638 122.863 18.4692Z" fill="#6D6C6C"/>
<path d="M43.8418 60.1281C44.8141 60.0066 46.2725 59.9931 47.3393 60.8573C49.6349 62.7209 47.8659 66.772 49.0002 71.0526C49.6079 73.3483 51.2149 76.4406 55.8871 79.5059C57.7371 80.4377 59.2766 81.1399 60.3434 81.626C61.8693 82.3147 62.8415 82.7063 62.828 83.233C62.8145 83.7596 61.8558 84.1512 61.1671 84.3808C61.9908 85.1505 62.4094 86.1228 62.1258 86.8655C61.9098 87.4461 61.3156 87.7297 60.6539 88.0538C59.8977 88.4319 59.2631 88.5129 58.5339 88.6074C57.17 88.783 56.4948 88.864 55.8736 88.6074C54.9149 88.2023 54.4827 87.3111 53.8481 86.0282C53.497 85.326 53.0649 84.2322 52.8353 82.8144C51.3094 82.1122 49.1218 80.8968 46.9477 78.8578C46.097 78.0611 38.2108 70.499 40.6955 63.9632C41.0736 63.0449 41.8703 61.5595 43.8418 60.1281Z" fill="white" stroke="#161616" stroke-width="0.270074"/>
<path d="M55.9154 86.9329C56.253 87.6756 56.7661 88.2968 57.4278 88.7964C57.6304 88.9585 57.8329 88.6074 57.6304 88.4453C57.0362 87.9997 56.5771 87.4056 56.2665 86.7304C56.1585 86.5008 55.8074 86.7034 55.9154 86.9329Z" fill="#161616"/>
<path d="M57.5334 86.7169C57.9385 87.5001 58.5462 88.1483 59.2889 88.6344C59.505 88.7694 59.7075 88.4183 59.4915 88.2833C58.8028 87.8512 58.2491 87.2435 57.871 86.5143C57.763 86.2848 57.4119 86.4873 57.5334 86.7169Z" fill="#161616"/>
<path d="M59.2349 85.7986C59.613 86.5953 60.2612 87.23 61.0579 87.6081C61.2874 87.7161 61.5035 87.365 61.2604 87.257C60.5177 86.9059 59.9371 86.3388 59.586 85.5961C59.4644 85.353 59.1269 85.5555 59.2349 85.7986Z" fill="#161616"/>
<path opacity="0.2" d="M44.1793 60.1553C43.8822 61.4921 43.5581 63.5987 43.8417 66.1374C44.5844 72.5652 48.7435 76.8053 49.4322 77.494C52.8622 80.8969 55.1038 80.4378 56.4677 83.4762C56.8323 84.2864 57.4804 86.1229 59.2359 87.0816C59.9246 87.4462 60.5728 87.5813 61.0049 87.6353C60.7753 87.8243 60.3972 88.0809 59.8976 88.297C59.0604 88.6616 58.3312 88.6751 57.1833 88.6886C56.3326 88.7021 55.9005 88.7021 55.5224 88.5265C54.7257 88.1619 54.3476 87.4057 54.199 87.0276C53.6589 85.5692 53.1322 84.1108 52.5921 82.6524C49.9589 81.3021 46.2319 78.8984 43.288 74.7798C42.0592 73.0648 40.0067 70.121 40.1822 66.583C40.2632 64.9761 40.7764 63.8553 40.8979 63.5852C41.8567 61.6002 43.4501 60.5739 44.1793 60.1553Z" fill="#6D6C6C"/>
<path opacity="0.32" d="M40.3568 67.4068C40.4378 67.3798 40.951 69.0003 41.9637 70.8908C44.4349 75.5631 47.9999 78.4258 50.5521 80.4244C51.7134 81.3291 52.6992 82.0043 53.3204 82.4229C54.0766 83.6923 54.5087 84.7861 54.7653 85.5828C54.9813 86.2445 55.1028 86.8386 55.6025 87.4598C56.1156 88.135 56.7773 88.5131 57.2634 88.7292C56.8988 88.7427 56.3452 88.7157 55.7645 88.4456C54.6572 87.9324 54.1711 86.8657 53.6579 85.7313C53.3609 85.0832 53.0098 84.1109 52.8207 82.8551C45.7718 79.2901 43.1251 74.7933 42.1258 72.6598C41.0995 70.4722 40.2488 67.4608 40.3568 67.4068Z" fill="#6D6C6C"/>
<path d="M51.5392 47.7993C50.5805 48.1774 51.1476 50.0679 49.6082 51.7829C48.852 52.6336 47.9337 53.0387 47.2991 53.2683C47.7042 53.8759 48.5009 54.8617 49.8108 55.6449C50.7425 56.2121 51.6338 56.4822 52.2549 56.6037C52.4575 56.2391 52.7951 55.6719 53.2137 54.9968C54.7126 52.6336 55.2527 52.377 55.3338 51.5938C55.5363 49.6763 52.7681 47.3132 51.5392 47.7993Z" fill="white" stroke="#161616" stroke-width="0.270074"/>
<path d="M51.3616 51.4454C51.9153 52.5527 52.4959 53.6465 53.4142 54.4972C53.6032 54.6728 53.8868 54.3892 53.6978 54.2136C52.8065 53.3899 52.2529 52.3096 51.7127 51.2428C51.5912 51.0133 51.2401 51.2158 51.3616 51.4454Z" fill="#161616"/>
<path d="M50.956 50.7164C51.5772 51.9317 52.2524 53.1335 53.4407 53.8762C53.6433 53.9978 53.8458 53.7277 53.6838 53.5521C53.2922 53.1335 52.8871 52.7149 52.509 52.2963C52.4144 52.3908 52.3199 52.4853 52.2254 52.5799C52.4549 52.8229 52.698 53.0525 52.9681 53.2416C53.0626 53.3091 53.3597 53.4441 53.4137 53.5251C53.4947 53.6602 53.4137 53.8762 53.3732 54.0113C53.5082 54.0518 53.6298 54.0788 53.7648 54.1193C53.7783 54.0518 53.7783 53.9843 53.7918 53.9302C53.8188 53.7547 53.6028 53.5656 53.4542 53.7277C53.4542 53.5791 53.4137 53.4306 53.3192 53.3091C53.1976 53.3766 53.0896 53.4441 52.9681 53.5116C53.1166 53.7142 53.2652 53.9167 53.4137 54.1193C53.5217 54.0383 53.6298 53.9572 53.7378 53.8762C53.6163 53.7412 53.5217 53.6062 53.4272 53.4576C53.3057 53.2821 52.9681 53.3901 53.0626 53.6197C53.1436 53.7952 53.1706 53.8627 53.2922 54.0113C53.4542 54.2138 53.7378 53.9302 53.5757 53.7277C53.5352 53.6602 53.4947 53.5926 53.4542 53.5116C53.3327 53.5656 53.2111 53.6197 53.0896 53.6737C53.2111 53.8492 53.3327 54.0113 53.4677 54.1733C53.6163 54.3489 53.9268 54.1193 53.7918 53.9302C53.6433 53.7277 53.4947 53.5251 53.3462 53.3226C53.1976 53.1065 52.8871 53.2956 52.9951 53.5251C53.1301 53.7952 53.4002 54.4299 53.7648 54.0248C53.6568 53.9572 53.5352 53.8897 53.4272 53.8222C53.4137 53.8897 53.4137 53.9572 53.4002 54.0113C53.3597 54.2678 53.7243 54.3759 53.7918 54.1193C53.8863 53.7952 54.1159 53.6467 53.8458 53.3226C53.7243 53.174 53.5217 53.1065 53.3732 53.012C53.0626 52.8094 52.7925 52.5664 52.536 52.2963C52.3604 52.1072 52.0768 52.3908 52.2524 52.5799C52.644 52.9985 53.0356 53.4171 53.4272 53.8357C53.5082 53.7277 53.5892 53.6197 53.6703 53.5116C52.5495 52.8094 51.9283 51.6481 51.3341 50.5003C51.1856 50.2707 50.8345 50.4868 50.956 50.7164Z" fill="#161616"/>
<path d="M63.9606 44.2208C63.6905 45.4226 63.1369 47.2051 61.8675 49.0416C59.6394 52.269 56.6146 53.6329 55.3182 54.1325C54.5755 53.8489 53.6033 53.3493 52.685 52.4986C50.1733 50.1624 49.9843 46.962 49.9573 46.1383C49.6872 46.0708 49.2956 45.9223 48.958 45.5982C48.0938 44.7609 47.8912 43.1 48.6879 42.4113C49.5927 41.6281 51.3212 42.5868 51.5102 42.6814C51.9288 42.9109 52.2259 43.1945 52.415 43.4106C53.1577 41.169 54.9401 39.481 57.0602 39.1299C59.95 38.6573 63.1099 40.7638 63.9606 44.2208Z" fill="white" stroke="#161616" stroke-width="0.270074"/>
<path d="M60.6932 47.4483C60.1531 48.6637 59.3563 49.7035 58.3301 50.5542C58.1275 50.7162 58.4111 50.9998 58.6136 50.8378C59.6804 49.9735 60.4907 48.9067 61.0443 47.6509C61.1523 47.4078 60.8012 47.2053 60.6932 47.4483Z" fill="#161616"/>
<path d="M57.8174 49.6495C57.7634 50.1086 57.9254 50.5542 58.236 50.8918C58.4116 51.0809 58.6951 50.7973 58.5196 50.6082C58.2765 50.3381 58.182 50.0141 58.2225 49.6495C58.2495 49.3929 57.8444 49.3929 57.8174 49.6495Z" fill="#161616"/>
<path d="M56.9938 47.3402C57.3449 46.8541 57.7635 46.422 58.2361 46.0304C58.1281 45.9628 58.0066 45.8953 57.8985 45.8278C57.723 46.368 57.3449 46.8001 56.8452 47.0702C56.9263 47.1782 57.0073 47.2862 57.0883 47.3942C57.3989 47.0161 57.7095 46.6515 58.0201 46.2734C58.1821 46.0709 57.8985 45.7873 57.7365 45.9899C57.4259 46.368 57.1153 46.7326 56.8047 47.1107C56.6562 47.2862 56.8452 47.5428 57.0478 47.4348C57.642 47.1107 58.0741 46.584 58.2901 45.9493C58.3576 45.7333 58.1011 45.6388 57.9525 45.7468C57.4529 46.1519 57.0208 46.611 56.6562 47.1377C56.4941 47.3537 56.8452 47.5563 56.9938 47.3402Z" fill="#161616"/>
<path d="M61.4766 48.5286C61.6522 48.2315 61.8817 47.975 62.1383 47.7454C62.0303 47.6779 61.9087 47.6104 61.8007 47.5428C61.6792 47.948 61.4361 48.3126 61.085 48.5691C61.1795 48.6501 61.2876 48.7177 61.3821 48.7987C61.4631 48.5826 61.5846 48.3801 61.7332 48.2045C61.8952 48.002 61.6116 47.7184 61.4496 47.9209C61.2606 48.164 61.112 48.4071 61.004 48.6907C60.9365 48.8527 61.166 49.0282 61.3011 48.9202C61.7332 48.5961 62.0438 48.1775 62.1923 47.6644C62.2598 47.4618 62.0033 47.3403 61.8547 47.4618C61.5711 47.7049 61.3281 48.002 61.1255 48.3261C60.977 48.5421 61.3281 48.7447 61.4766 48.5286Z" fill="#161616"/>
<path d="M55.6018 46.341C55.8043 46.8136 55.9123 47.2998 55.9123 47.7994C55.9123 47.9344 56.1149 47.9344 56.1149 47.7994C56.1149 47.2592 55.9934 46.7326 55.7773 46.233C55.7233 46.1114 55.5477 46.2195 55.6018 46.341Z" fill="#161616"/>
<path d="M55.0373 45.9897C55.1723 46.2058 55.2668 46.4218 55.3479 46.6514C55.3884 46.7729 55.5774 46.7189 55.5369 46.5974C55.4559 46.3408 55.3479 46.1112 55.2128 45.8817C55.1453 45.7736 54.9698 45.8817 55.0373 45.9897Z" fill="#161616"/>
<path d="M58.1538 44.8825C58.6535 44.734 59.1261 45.0716 59.1396 45.5982C59.1396 45.7873 59.4502 45.8008 59.4502 45.5982C59.4232 44.8825 58.775 44.3964 58.0728 44.5855C57.8838 44.6395 57.9648 44.9365 58.1538 44.8825Z" fill="#161616"/>
<path d="M61.7739 46.8677C61.9899 46.7327 62.2465 46.7192 62.4761 46.8542C62.6381 46.9623 62.8001 46.6922 62.6246 46.5977C62.314 46.4086 61.9224 46.4086 61.6253 46.6112C61.4633 46.7192 61.6118 46.9758 61.7739 46.8677Z" fill="#161616"/>
<path d="M55.1837 50.338C55.5078 50.9186 56.0614 51.3372 56.7096 51.5128C56.9662 51.5803 57.0742 51.1887 56.8176 51.1212C56.264 50.9726 55.8184 50.635 55.5348 50.1354C55.3998 49.9058 55.0487 50.1084 55.1837 50.338Z" fill="#161616"/>
<path d="M52.4039 43.9508C52.7009 43.4377 53.4166 42.3439 54.794 41.5877C55.7393 41.061 56.6305 40.9125 57.1707 40.8585C57.4677 41.2501 57.9539 41.7632 58.6696 42.0873C60.3575 42.857 61.7214 41.8442 62.7207 42.5194C63.2473 42.8705 63.774 43.7213 63.5714 46.0439C64.4627 46.9621 65.0568 47.0162 65.3809 46.9486C66.7313 46.6786 67.7035 43.6402 66.8528 41.4256C66.5962 40.7639 66.2587 40.3858 63.3959 38.1037C59.3583 34.8898 58.8586 34.7008 58.332 34.5793C55.5502 33.9311 53.0925 35.3355 52.6739 35.5785C52.1338 35.8891 52.0123 36.0377 48.9199 39.292C46.5162 41.8172 46.2867 42.0468 46.0706 42.668C45.5035 44.2344 45.6115 46.503 47.0564 48.164C48.4203 49.7169 50.2568 49.9465 50.7294 50.0005C50.5268 49.5413 50.3108 48.8932 50.2028 48.0965C50.0677 47.0702 50.2028 46.2194 50.3243 45.6658C50.2298 45.5983 49.6896 45.1526 49.6491 44.3964C49.6221 43.8428 49.8787 43.1406 50.4728 42.911C51.1345 42.6545 52.0393 43.0461 52.4039 43.9508Z" fill="#232323"/>
<path d="M51.8219 37.1586C51.2682 36.0648 49.6478 35.9027 49.3642 35.8757C47.1091 35.6462 45.2996 37.6582 44.2328 38.833C42.3423 40.9261 42.8824 41.5473 41.0459 44.0725C38.6153 47.4214 36.7923 47.5699 36.4142 49.8791C36.3872 50.0546 36.0496 52.3773 37.589 53.7816C38.9123 54.997 41.0459 55.0105 42.4503 54.2813C44.3543 53.2955 44.1923 51.3105 45.5697 47.975C48.2704 41.4663 52.8887 39.2652 51.8219 37.1586Z" fill="#232323"/>
<path opacity="0.12" d="M53.9949 42.074C53.5628 43.1543 53.0496 44.8692 53.0766 47.0163C53.1172 50.4463 54.5215 52.958 55.2237 54.0382C54.454 53.7142 53.1712 53.0255 52.0504 51.6751C51.5912 51.1214 50.5109 49.8116 50.2274 47.7995C50.0923 46.8948 50.1734 46.1386 50.2544 45.6254C50.1734 45.5579 49.6197 45.0583 49.6467 44.2751C49.6602 43.7619 49.9303 43.0732 50.5109 42.8707C51.1591 42.6411 52.0504 43.0597 52.4015 43.9645C52.5365 43.6944 52.7256 43.3568 53.0091 43.0057C53.3602 42.5871 53.7113 42.29 53.9949 42.074Z" fill="#6D6C6C"/>
<path opacity="0.13" d="M51.618 51.9585C51.51 52.2016 51.3884 52.4447 51.2399 52.6877C50.5647 53.822 49.687 54.5782 48.9983 55.0374C48.7552 54.8888 48.4311 54.6593 48.107 54.3082C47.7559 53.9301 47.5399 53.552 47.4183 53.2819C47.945 53.1198 49.2548 52.6202 50.1461 51.3103C50.4567 50.8377 50.6457 50.3786 50.7537 50.0005C51.0373 50.6622 51.3209 51.3103 51.618 51.9585Z" fill="#6D6C6C"/>
<path opacity="0.18" d="M50.4311 45.3958C50.4986 46.3275 50.6742 47.5428 51.1333 48.9067C51.768 50.7567 52.6862 52.1206 53.3884 52.9848C52.6862 52.4177 51.849 51.5669 51.1738 50.3786C50.7282 49.5819 50.0665 48.4341 50.1475 46.8677C50.1745 46.26 50.3096 45.7468 50.4311 45.3958Z" fill="#6D6C6C"/>
<path opacity="0.32" d="M52.4964 35.916C51.9292 36.4697 48.3913 40.0346 48.8774 45.0985C49.08 47.2591 49.9442 48.8931 50.5654 49.8518C50.1332 49.8248 49.296 49.7303 48.3913 49.2037C47.4865 48.677 46.9734 47.9883 46.7438 47.6372C46.5683 47.3536 46.3522 46.8945 46.2172 46.3139C46.2172 46.3139 45.9741 45.1796 46.4197 43.7752C46.8924 42.2357 49.0259 39.2379 52.4964 35.916Z" fill="#111111"/>
<path opacity="0.33" d="M45.1902 38.1037C45.5007 38.3062 43.7858 41.9117 41.8953 45.0581C40.1938 47.8803 39.3566 48.6635 39.235 50.392C39.1135 52.188 39.8697 53.7274 40.5449 54.7672C40.2073 54.7942 38.938 54.8347 37.8306 53.957C37.223 53.4709 36.8989 52.9037 36.7504 52.5526C36.4263 51.6074 36.1427 50.23 36.7098 48.9336C37.0879 48.0559 37.5336 47.9884 38.9244 46.584C40.1533 45.3416 41.3686 44.1128 42.2599 42.2898C42.719 41.358 42.881 40.6829 43.6642 39.6296C44.1774 38.9274 45.0146 37.9821 45.1902 38.1037Z" fill="#111111"/>
</svg>
