<svg width="24" height="24" viewBox="0 0 24 24" fill="none" xmlns="http://www.w3.org/2000/svg">
<rect width="24" height="24" rx="5" fill="#EEFFFE"/>
<circle cx="12" cy="12" r="3" stroke="#079893" stroke-width="1.5"/>
<path d="M13.4979 4.12179C13.1861 4 12.7907 4 12 4C11.2093 4 10.8139 4 10.5021 4.12179C10.0862 4.28418 9.75587 4.59566 9.58363 4.98771C9.505 5.16667 9.47423 5.3748 9.46219 5.67839C9.44449 6.12454 9.20182 6.53752 8.79172 6.76074C8.38162 6.98397 7.88096 6.97563 7.4623 6.76701C7.17742 6.62504 6.97085 6.5461 6.76715 6.52081C6.32092 6.46542 5.86963 6.57943 5.51255 6.83776C5.24475 7.0315 5.04707 7.35432 4.65171 7.99995C4.25635 8.64557 4.05867 8.96839 4.01461 9.28392C3.95586 9.70464 4.07678 10.1301 4.35078 10.4668C4.47584 10.6204 4.6516 10.7496 4.92438 10.9112C5.3254 11.1488 5.58343 11.5535 5.5834 12C5.58338 12.4465 5.32536 12.8511 4.92438 13.0887C4.65155 13.2503 4.47577 13.3795 4.35069 13.5332C4.0767 13.8698 3.95578 14.2953 4.01452 14.716C4.05859 15.0316 4.25627 15.3544 4.65162 16C5.04698 16.6456 5.24466 16.9684 5.51247 17.1622C5.86954 17.4205 6.32083 17.5345 6.76707 17.4791C6.97076 17.4538 7.17731 17.3749 7.46217 17.233C7.88086 17.0243 8.38156 17.016 8.79168 17.2392C9.2018 17.4625 9.44449 17.8755 9.46219 18.3217C9.47423 18.6252 9.505 18.8333 9.58363 19.0123C9.75587 19.4043 10.0862 19.7158 10.5021 19.8782C10.8139 20 11.2093 20 12 20C12.7907 20 13.1861 20 13.4979 19.8782C13.9138 19.7158 14.2441 19.4043 14.4164 19.0123C14.495 18.8333 14.5258 18.6252 14.5378 18.3216C14.5555 17.8754 14.7982 17.4625 15.2082 17.2392C15.6184 17.016 16.1191 17.0243 16.5378 17.2329C16.8226 17.3749 17.0292 17.4538 17.2329 17.4791C17.6791 17.5345 18.1304 17.4205 18.4874 17.1621C18.7553 16.9684 18.9529 16.6456 19.3483 15.9999C19.7437 15.3543 19.9413 15.0315 19.9854 14.716C20.0441 14.2953 19.9232 13.8698 19.6492 13.5331C19.5242 13.3794 19.3484 13.2503 19.0756 13.0886C18.6746 12.8511 18.4166 12.4464 18.4166 11.9999C18.4166 11.5535 18.6746 11.1489 19.0756 10.9114C19.3484 10.7497 19.5242 10.6205 19.6493 10.4668C19.9233 10.1302 20.0442 9.7047 19.9855 9.28398C19.9414 8.96844 19.7437 8.64563 19.3484 8C18.953 7.35437 18.7553 7.03156 18.4875 6.83781C18.1305 6.57949 17.6792 6.46548 17.2329 6.52087C17.0292 6.54615 16.8227 6.62509 16.5378 6.76704C16.1191 6.97567 15.6184 6.98401 15.2083 6.76077C14.7982 6.53752 14.5555 6.12453 14.5378 5.67835C14.5258 5.37478 14.495 5.16666 14.4164 4.98771C14.2441 4.59566 13.9138 4.28418 13.4979 4.12179Z" stroke="#079893" stroke-width="1.5"/>
</svg>
