<svg width="17" height="20" viewBox="0 0 17 20" fill="none" xmlns="http://www.w3.org/2000/svg">
<path fill-rule="evenodd" clip-rule="evenodd" d="M13.5 0.25C11.7051 0.25 10.25 1.70507 10.25 3.5C10.25 3.69591 10.2673 3.88776 10.3006 4.07412L5.56991 7.38558C5.54587 7.4024 5.52312 7.42038 5.50168 7.43939C4.94993 7.00747 4.25503 6.75 3.5 6.75C1.70507 6.75 0.25 8.20507 0.25 10C0.25 11.7949 1.70507 13.25 3.5 13.25C4.25503 13.25 4.94993 12.9925 5.50168 12.5606C5.52312 12.5796 5.54587 12.5976 5.56991 12.6144L10.3006 15.9259C10.2673 16.1122 10.25 16.3041 10.25 16.5C10.25 18.2949 11.7051 19.75 13.5 19.75C15.2949 19.75 16.75 18.2949 16.75 16.5C16.75 14.7051 15.2949 13.25 13.5 13.25C12.4472 13.25 11.5113 13.7506 10.9174 14.5267L6.43806 11.3911C6.63809 10.9694 6.75 10.4978 6.75 10C6.75 9.50222 6.63809 9.03057 6.43806 8.60886L10.9174 5.4733C11.5113 6.24942 12.4472 6.75 13.5 6.75C15.2949 6.75 16.75 5.29493 16.75 3.5C16.75 1.70507 15.2949 0.25 13.5 0.25ZM11.75 3.5C11.75 2.5335 12.5335 1.75 13.5 1.75C14.4665 1.75 15.25 2.5335 15.25 3.5C15.25 4.4665 14.4665 5.25 13.5 5.25C12.5335 5.25 11.75 4.4665 11.75 3.5ZM3.5 8.25C2.5335 8.25 1.75 9.0335 1.75 10C1.75 10.9665 2.5335 11.75 3.5 11.75C4.4665 11.75 5.25 10.9665 5.25 10C5.25 9.0335 4.4665 8.25 3.5 8.25ZM13.5 14.75C12.5335 14.75 11.75 15.5335 11.75 16.5C11.75 17.4665 12.5335 18.25 13.5 18.25C14.4665 18.25 15.25 17.4665 15.25 16.5C15.25 15.5335 14.4665 14.75 13.5 14.75Z" fill="#1C1C1E"/>
</svg>
