<svg width="12" height="12" viewBox="0 0 12 12" fill="none" xmlns="http://www.w3.org/2000/svg">
<path d="M6.26703 9.2535L8.87002 10.9027C9.20275 11.1135 9.61586 10.7999 9.51713 10.4115L8.76506 7.4531C8.74388 7.3707 8.74639 7.284 8.7723 7.20296C8.79821 7.12192 8.84646 7.04985 8.91151 6.99501L11.2457 5.05222C11.5524 4.79694 11.3941 4.28793 11.0001 4.26235L7.95175 4.06452C7.86964 4.05865 7.79089 4.02958 7.72467 3.98069C7.65844 3.9318 7.60747 3.86511 7.57768 3.78837L6.44079 0.92538C6.40988 0.84393 6.35493 0.773809 6.28324 0.724328C6.21154 0.674846 6.12648 0.648346 6.03937 0.648346C5.95225 0.648346 5.8672 0.674846 5.7955 0.724328C5.7238 0.773809 5.66886 0.84393 5.63795 0.92538L4.50106 3.78837C4.47127 3.86511 4.4203 3.9318 4.35407 3.98069C4.28785 4.02958 4.2091 4.05865 4.12699 4.06452L1.07867 4.26235C0.684621 4.28793 0.526318 4.79694 0.833023 5.05222L3.16723 6.99501C3.23228 7.04985 3.28053 7.12192 3.30644 7.20296C3.33234 7.284 3.33485 7.3707 3.31367 7.4531L2.61622 10.1967C2.49774 10.6628 2.99347 11.039 3.39274 10.7861L5.81171 9.2535C5.87975 9.21019 5.95872 9.18719 6.03937 9.18719C6.12002 9.18719 6.19899 9.21019 6.26703 9.2535Z" fill="#FACA30" stroke="#FACA30" stroke-width="0.60317" stroke-linecap="round" stroke-linejoin="round"/>
</svg>
