<svg width="234" height="148" viewBox="0 0 234 148" fill="none" xmlns="http://www.w3.org/2000/svg">
<path d="M225.955 86.1083C224.174 101.403 222.408 116.682 220.627 131.977C220.113 136.326 219.616 140.676 219.102 145.041C219.07 145.346 219.552 145.346 219.584 145.041C221.365 129.746 223.13 114.467 224.912 99.1724C225.426 94.8231 225.923 90.4737 226.437 86.1083C226.469 85.8034 225.987 85.8034 225.955 86.1083Z" fill="#E8E8E8"/>
<path d="M226.342 86.3651C226.663 84.7281 229.504 84.8886 230.579 85.5626C231.622 86.2207 231.285 87.5527 231.173 88.5799C231.061 89.6392 230.948 90.6984 230.836 91.7577C230.386 96.0589 229.937 100.344 229.488 104.645C228.589 113.183 227.69 121.722 226.791 130.244C226.294 135.01 225.796 139.793 225.283 144.56C225.251 144.865 225.732 144.865 225.764 144.56C227.754 125.686 229.761 106.812 231.719 87.9379C231.799 87.1034 231.911 86.2207 231.317 85.5466C230.82 84.9849 230.049 84.7602 229.343 84.6639C228.091 84.5034 226.182 84.712 225.877 86.2207C225.812 86.5416 226.278 86.67 226.342 86.3651Z" fill="#E8E8E8"/>
<path d="M224.415 98.5625C221.237 97.9045 220.788 102.302 219.696 104.212C218.156 106.876 215.379 108.722 212.33 109.107C212.089 109.139 211.977 109.508 212.266 109.572C213.293 109.829 213.485 111.081 213.582 111.964C213.678 112.878 213.694 113.809 213.614 114.724C213.421 116.714 212.795 118.624 211.784 120.341C211.624 120.614 212.041 120.855 212.201 120.582C212.603 119.908 213.566 120.004 214.095 120.486C214.705 121.048 214.705 121.994 214.625 122.749C214.464 124.065 213.967 125.285 214.304 126.617C214.352 126.825 214.625 126.841 214.737 126.681C216.422 124.322 218.766 122.54 221.494 121.561C221.783 121.465 221.654 120.999 221.366 121.096C218.509 122.123 216.085 123.968 214.32 126.44C214.464 126.456 214.609 126.472 214.753 126.504C214.272 124.562 215.973 122.203 214.641 120.422C213.967 119.507 212.41 119.298 211.768 120.357C211.913 120.438 212.041 120.518 212.185 120.598C213.373 118.56 214.063 116.265 214.127 113.906C214.175 112.429 214.24 109.572 212.378 109.123C212.362 109.283 212.33 109.444 212.314 109.588C214.898 109.267 217.289 107.983 218.99 106.009C219.809 105.062 220.435 103.971 220.868 102.783C221.414 101.259 222.104 98.5785 224.287 99.0279C224.591 99.0921 224.72 98.6267 224.415 98.5625Z" fill="#E8E8E8"/>
<path d="M227.656 87.1836C228.266 87.6169 229.037 87.7132 229.727 87.4404C230.016 87.3281 229.887 86.8626 229.598 86.975C229.004 87.1997 228.411 87.1355 227.897 86.7663C227.656 86.5898 227.416 87.0071 227.656 87.1836Z" fill="#E8E8E8"/>
<path d="M227.896 88.1626C228.201 88.6761 228.859 88.9329 229.421 88.7082C229.71 88.5959 229.581 88.1305 229.292 88.2428C228.923 88.3873 228.506 88.2749 228.313 87.9218C228.153 87.649 227.752 87.8897 227.896 88.1626Z" fill="#E8E8E8"/>
<path d="M206.536 145.972C209.249 145.683 212.25 144.977 214.946 145.683C216.166 146.004 217.354 146.486 218.589 146.791C219.953 147.128 221.366 147.32 222.746 147.529C223.051 147.577 223.179 147.112 222.874 147.063C221.478 146.855 220.082 146.646 218.718 146.325C217.386 146.004 216.134 145.458 214.802 145.153C212.154 144.512 209.217 145.202 206.552 145.491C206.231 145.523 206.231 146.02 206.536 145.972Z" fill="#E8E8E8"/>
<path d="M221.076 145.812C223.13 145.972 225.072 145.346 227.046 144.897C229.261 144.399 231.508 144.223 233.771 144.367C234.076 144.383 234.076 143.902 233.771 143.886C231.668 143.757 229.582 143.886 227.527 144.303C225.393 144.736 223.307 145.507 221.092 145.33C220.755 145.298 220.755 145.779 221.076 145.812Z" fill="#E8E8E8"/>
<path d="M207.996 69.8023C205.861 83.3799 203.727 96.9576 201.576 110.551C200.966 114.403 200.357 118.271 199.747 122.123C199.699 122.428 200.164 122.556 200.212 122.251C202.347 108.674 204.481 95.0959 206.632 81.5022C207.242 77.6504 207.852 73.7825 208.461 69.9307C208.51 69.6257 208.044 69.4973 207.996 69.8023Z" fill="#E8E8E8"/>
<path d="M203.454 70.5565C200.998 84.1181 198.623 97.6958 196.328 111.273C195.686 115.109 195.044 118.929 194.402 122.765C194.354 123.07 194.819 123.198 194.867 122.893C197.13 109.299 199.457 95.7217 201.865 82.144C202.539 78.3243 203.229 74.5046 203.919 70.6688C203.983 70.3799 203.518 70.2515 203.454 70.5565Z" fill="#E8E8E8"/>
<path d="M203.792 70.4121C204.611 68.6787 206.761 68.3096 208.093 69.7059C208.302 69.9306 208.655 69.5935 208.43 69.3689C206.89 67.7639 204.322 68.1652 203.375 70.1874C203.246 70.4442 203.664 70.6849 203.792 70.4121Z" fill="#E8E8E8"/>
<path d="M201.737 77.6182C201.175 79.8651 198.816 80.7959 196.842 81.454C195.029 82.0638 193.151 82.7219 191.979 84.3268C191.819 84.5515 192.124 84.7441 192.316 84.6638C193.696 84.07 193.311 86.4292 193.167 87.007C192.958 87.7774 192.653 88.5156 192.268 89.2058C192.188 89.3341 192.252 89.5267 192.412 89.5588C193.295 89.7514 192.83 91.0835 192.637 91.6292C192.316 92.5279 191.979 93.4107 191.658 94.3094C191 96.0909 190.358 97.8723 189.7 99.6538C189.636 99.8464 189.829 99.9909 189.989 99.9427C190.294 99.8785 190.503 99.7341 190.727 99.5254C190.936 99.3328 191.161 99.0921 191.433 98.9958C191.738 98.8995 192.075 98.9637 192.396 98.9797C193.311 99.0118 194.226 98.8995 195.077 98.5785C196.714 97.9686 198.078 96.781 198.88 95.2242C199.025 94.9514 198.608 94.7106 198.463 94.9835C197.612 96.6366 196.088 97.8563 194.29 98.3217C193.375 98.5625 192.525 98.3859 191.626 98.4822C190.84 98.5625 190.583 99.3328 189.861 99.4773C189.957 99.5736 190.053 99.6699 190.15 99.7662C191.016 97.3909 191.899 95.0156 192.766 92.6403C193.087 91.7576 194.13 89.4304 192.541 89.0774C192.589 89.1897 192.637 89.3181 192.685 89.4304C193.327 88.2909 194.05 86.7021 193.841 85.3539C193.712 84.4873 192.942 83.8614 192.075 84.2305C192.188 84.3428 192.3 84.4552 192.412 84.5675C194.836 81.2774 201.095 82.2885 202.235 77.7466C202.267 77.4416 201.817 77.3133 201.737 77.6182Z" fill="#E8E8E8"/>
<path d="M189.251 124.049C191.145 124.257 192.798 122.941 194.708 123.214C196.457 123.455 198.046 124.402 199.844 124.322C200.149 124.306 200.149 123.824 199.844 123.84C198.014 123.92 196.393 122.925 194.612 122.717C192.734 122.508 191.113 123.776 189.251 123.567C188.946 123.535 188.946 124.017 189.251 124.049Z" fill="#E8E8E8"/>
<path d="M199.265 93.4749C198.96 94.1169 198.591 94.7107 198.141 95.2724C197.949 95.5132 198.286 95.8502 198.479 95.6095C198.96 95.0317 199.361 94.4058 199.666 93.7157C199.811 93.4428 199.393 93.2021 199.265 93.4749Z" fill="#E8E8E8"/>
<path d="M131.33 120.887C137.685 119.314 144.314 120.438 150.733 120.839C157.474 121.256 164.231 121.32 170.987 121.256C174.823 121.224 178.643 121.144 182.479 121.08C182.784 121.08 182.784 120.598 182.479 120.598C175.626 120.727 168.757 120.855 161.904 120.759C158.501 120.71 155.099 120.598 151.712 120.406C148.422 120.213 145.148 119.876 141.858 119.699C138.295 119.507 134.7 119.555 131.217 120.422C130.912 120.486 131.041 120.951 131.33 120.887Z" fill="#E8E8E8"/>
<path d="M184.242 129.249C189.169 129.971 194.016 128.655 198.911 128.302C203.998 127.933 209.086 128.687 214.045 129.859C214.35 129.923 214.479 129.473 214.174 129.393C209.391 128.27 204.464 127.515 199.521 127.788C194.465 128.061 189.442 129.538 184.37 128.799C184.065 128.735 183.937 129.201 184.242 129.249Z" fill="#E8E8E8"/>
<path d="M23.4943 120.791C29.4326 120.213 35.3387 120.598 41.1806 121.802C43.8929 122.364 46.6213 122.957 49.4139 122.925C52.1262 122.893 54.8225 122.38 57.4867 121.93C60.6965 121.385 63.9545 120.919 67.1965 121.449C67.5014 121.497 67.6298 121.031 67.3248 120.983C61.82 120.069 56.4595 121.978 51.0188 122.38C47.9694 122.604 45.0324 122.107 42.0633 121.497C39.2547 120.919 36.4461 120.438 33.5733 120.213C30.219 119.956 26.8486 119.988 23.4943 120.325C23.1894 120.325 23.1894 120.807 23.4943 120.791Z" fill="#E8E8E8"/>
<path d="M5.87272 82.1601C10.6875 80.9243 15.5183 79.6885 20.4454 78.9824C25.3565 78.2762 30.2515 78.2602 35.1626 78.8861C44.6156 80.1058 53.9884 82.4009 63.2007 84.8404C81.3203 89.6712 99.0708 95.7859 117.174 100.681C127.398 103.441 137.733 105.817 148.214 107.309C148.519 107.357 148.647 106.892 148.342 106.844C129.532 104.148 111.3 98.6748 93.1646 93.1378C75.0611 87.6008 56.8612 81.8231 38.1157 78.8219C32.7231 77.9552 27.3466 77.6342 21.8899 78.2923C16.4171 78.9503 11.0566 80.3145 5.72828 81.6787C5.43939 81.7749 5.56779 82.2404 5.87272 82.1601Z" fill="#E8E8E8"/>
<path d="M100.194 95.6736C111.412 95.7217 122.518 93.9403 133.496 91.7576C144.538 89.5588 155.516 86.9428 166.686 85.3539C173.041 84.4391 179.445 83.8934 185.865 83.9255C186.17 83.9255 186.17 83.444 185.865 83.444C174.646 83.3798 163.54 85.1613 152.563 87.328C141.521 89.5267 130.543 92.1427 119.373 93.7477C113.017 94.6625 106.614 95.2242 100.194 95.1921C99.8729 95.1921 99.8729 95.6736 100.194 95.6736Z" fill="#E8E8E8"/>
<path d="M210.419 86.5095C213.966 87.7293 217.4 89.2539 220.674 91.0836C220.947 91.228 221.188 90.8268 220.915 90.6663C217.593 88.8206 214.126 87.2799 210.531 86.0441C210.258 85.9478 210.13 86.4132 210.419 86.5095Z" fill="#E8E8E8"/>
<path d="M0.0299001 103.955C1.79532 107.101 2.48544 110.712 2.05211 114.291C2.03606 114.419 2.1805 114.532 2.29285 114.532C2.83852 114.499 3.78543 114.532 4.18666 114.981C4.55579 115.382 4.18666 115.832 3.94592 116.169C3.62493 116.618 3.20765 117.083 3.20765 117.661C3.20765 117.982 3.33605 118.239 3.44839 118.528C3.70518 119.122 3.84962 119.683 3.96197 120.325C4.10641 121.192 4.2669 122.027 4.61999 122.829C6.00022 126.007 9.12983 128.029 11.9705 129.794C12.2273 129.955 12.4841 129.538 12.2113 129.377C9.06563 127.419 5.42245 125.076 4.60394 121.192C4.3953 120.197 4.2669 119.25 3.88172 118.287C3.44839 117.26 4.23481 116.794 4.66814 115.976C5.48665 114.483 3.44839 113.986 2.30889 114.05C2.38914 114.13 2.46939 114.211 2.54963 114.291C2.99901 110.632 2.26075 106.94 0.46323 103.714C0.302737 103.441 -0.114543 103.682 0.0299001 103.955Z" fill="#E8E8E8"/>
<path d="M0.865137 103.987C2.50216 104.95 4.15523 105.929 5.79226 106.892C6.45028 107.277 7.71817 107.903 7.42928 108.818C7.26879 109.332 6.69102 109.54 6.70707 110.134C6.70707 110.295 6.85151 110.407 7.012 110.359C8.29594 110.022 8.82557 111.53 9.3231 112.381C9.74038 113.087 10.3502 113.585 10.928 114.162C12.0836 115.334 13.0144 116.698 13.7206 118.175C15.1811 121.224 15.5984 124.739 14.844 128.029C14.7798 128.334 15.2453 128.462 15.3095 128.157C16.128 124.562 15.6144 120.759 13.9132 117.485C13.0465 115.799 11.8749 114.419 10.5268 113.103C9.45149 112.06 8.87372 109.364 6.88361 109.877C6.9799 109.957 7.09225 110.038 7.18854 110.102C7.1725 109.733 7.70212 109.46 7.87866 109.171C7.99101 108.962 8.03916 108.77 8.02311 108.529C7.97496 107.903 7.42928 107.374 6.94781 107.004C6.08115 106.346 5.05399 105.849 4.10709 105.303C3.11203 104.709 2.10093 104.116 1.10588 103.522C0.833038 103.409 0.592299 103.827 0.865137 103.987Z" fill="#E8E8E8"/>
<path d="M3.62664 108.545C7.86364 114.371 11.0093 120.919 12.9031 127.852C12.9834 128.157 13.4488 128.029 13.3685 127.724C11.4587 120.743 8.31302 114.146 4.04392 108.304C3.86738 108.048 3.4501 108.288 3.62664 108.545Z" fill="#E8E8E8"/>
<path d="M10.2535 112.301C10.4782 106.892 14.7955 102.719 15.1967 97.3267C15.0362 97.3427 14.8757 97.3748 14.7313 97.3909C15.1646 98.739 15.5979 100.087 16.0473 101.435C16.3202 102.254 17.9572 105.929 16.1115 105.881C15.8708 105.881 15.7905 106.202 15.9831 106.33C16.7053 106.796 16.5609 107.759 16.609 108.513C16.6411 109.155 16.7856 109.701 17.0424 110.294C17.8769 112.14 18.0535 113.938 17.7806 115.928C17.5239 117.773 17.0103 119.571 16.5609 121.368C16.0794 123.326 15.5979 125.301 15.1165 127.259C15.0362 127.563 15.5016 127.692 15.5819 127.387C16.1115 125.22 16.6572 123.054 17.1868 120.871C17.6683 118.929 18.214 116.987 18.3745 114.981C18.4387 114.098 18.4226 113.199 18.2621 112.317C18.0856 111.322 17.5881 110.503 17.2831 109.556C16.8979 108.369 17.4757 106.683 16.2399 105.897C16.1918 106.041 16.1597 106.202 16.1115 106.346C17.7967 106.395 17.5399 104.437 17.2029 103.393C16.5449 101.355 15.8708 99.3007 15.2128 97.2625C15.1325 97.0057 14.7634 97.0539 14.7473 97.3267C14.3622 102.703 10.0289 106.876 9.80416 112.301C9.75602 112.606 10.2375 112.606 10.2535 112.301Z" fill="#E8E8E8"/>
<path d="M14.9728 101.724C14.042 105.865 13.3519 110.07 12.9185 114.291C12.8864 114.596 13.3679 114.596 13.4 114.291C13.8333 110.102 14.5235 105.961 15.4383 101.853C15.5025 101.548 15.037 101.419 14.9728 101.724Z" fill="#E8E8E8"/>
<path d="M6.54643 119.94C8.27975 120.261 9.82048 121.08 11.0563 122.331C11.281 122.556 11.618 122.219 11.3933 121.994C10.1094 120.678 8.48839 119.812 6.67482 119.475C6.36989 119.427 6.24149 119.892 6.54643 119.94Z" fill="#E8E8E8"/>
<path d="M8.93614 115.912C9.09663 114.612 9.27317 113.328 9.43367 112.028C9.46576 111.723 8.98429 111.723 8.95219 112.028C8.79169 113.328 8.61515 114.612 8.45466 115.912C8.42256 116.217 8.90404 116.217 8.93614 115.912Z" fill="#E8E8E8"/>
<path d="M12.4685 106.571C12.9661 107.229 13.3031 107.935 13.4796 108.738C13.5438 109.043 14.0093 108.914 13.9451 108.609C13.7525 107.775 13.3994 107.004 12.8858 106.33C12.6932 106.09 12.2759 106.314 12.4685 106.571Z" fill="#E8E8E8"/>
<path d="M138.471 110.664C138.567 111.691 138.535 112.718 138.423 113.745C138.407 113.841 138.503 113.97 138.599 113.97C139.033 114.034 139.466 114.098 139.915 114.146C139.867 114.034 139.819 113.906 139.771 113.793C139.61 114.178 139.145 114.788 139.37 115.206C139.514 115.462 139.883 115.543 140.028 115.848C140.204 116.217 140.156 116.65 140.316 117.019C140.958 118.399 143.382 117.565 143.767 119.025C143.847 119.33 144.313 119.202 144.232 118.897C143.912 117.645 142.531 117.757 141.536 117.42C140.477 117.067 140.814 116.088 140.316 115.334C140.204 115.173 139.883 115.045 139.819 114.917C139.755 114.788 140.092 114.227 140.188 114.034C140.236 113.906 140.22 113.697 140.044 113.681C139.61 113.617 139.177 113.553 138.728 113.504C138.792 113.585 138.84 113.665 138.904 113.729C139.033 112.702 139.049 111.675 138.952 110.648C138.92 110.359 138.439 110.359 138.471 110.664Z" fill="#E8E8E8"/>
<path d="M139 111.241C140.364 111.867 141.857 112.381 143.109 113.215C144.713 114.291 144.938 115.88 144.922 117.693C144.922 117.998 145.404 117.998 145.404 117.693C145.404 116.056 145.291 114.419 143.975 113.28C142.659 112.124 140.813 111.546 139.241 110.824C138.968 110.696 138.727 111.113 139 111.241Z" fill="#E8E8E8"/>
<path d="M140.364 113.745C142.146 114.917 143.494 116.554 144.344 118.512C144.473 118.801 144.874 118.544 144.762 118.271C143.895 116.233 142.467 114.548 140.621 113.344C140.348 113.167 140.107 113.585 140.364 113.745Z" fill="#E8E8E8"/>
<path d="M145.019 114.05C144.891 113.553 144.666 112.927 144.923 112.445C145.132 112.06 145.533 111.98 145.87 111.755C146.367 111.434 146.48 110.68 146.721 110.198C146.881 109.877 147.186 109.251 147.507 109.059C147.972 108.77 148.358 109.283 148.486 109.733C148.614 110.182 148.534 110.616 148.374 111.049C148.293 111.258 148.165 111.434 148.181 111.675C148.197 111.851 148.245 111.948 148.341 112.108C148.614 112.525 148.903 112.798 148.951 113.344C149.016 114.275 148.534 115.077 147.956 115.767C147.074 116.827 145.998 117.693 145.613 119.074C145.533 119.378 145.998 119.507 146.079 119.202C146.656 117.18 149 116.201 149.385 114.098C149.529 113.328 149.321 112.798 149 112.124C148.695 111.466 148.871 111.258 148.983 110.648C149.048 110.311 149.032 109.941 148.935 109.604C148.807 109.107 148.358 108.353 147.748 108.369C147.138 108.369 146.608 109.412 146.367 109.845C146.127 110.279 145.998 110.969 145.629 111.274C145.34 111.514 145.003 111.546 144.73 111.819C144.121 112.477 144.329 113.408 144.538 114.178C144.65 114.467 145.116 114.355 145.019 114.05Z" fill="#E8E8E8"/>
<path d="M147.058 111.948C146.223 113.809 145.501 115.719 144.923 117.677C144.827 117.982 145.292 118.094 145.389 117.806C145.95 115.896 146.657 114.018 147.475 112.204C147.603 111.916 147.186 111.659 147.058 111.948Z" fill="#E8E8E8"/>
<path d="M20.1399 118.111C24.8102 116.554 29.8978 116.698 34.4719 118.544C34.7607 118.656 34.8891 118.191 34.6002 118.078C29.946 116.217 24.7621 116.072 20.0115 117.645C19.7226 117.757 19.851 118.223 20.1399 118.111Z" fill="#E8E8E8"/>
<ellipse cx="179.154" cy="14.4323" rx="13.0801" ry="12.8876" stroke="#E8E8E8" stroke-width="0.320985"/>
<path d="M23.285 40.4481C22.2739 38.8111 24.6813 37.479 26.0455 37.5914C27.7306 37.7358 29.2393 38.7148 30.9405 38.8111C33.717 38.9876 36.0441 37.1099 38.4676 36.0827C39.9602 35.4568 41.4527 35.2321 43.0256 35.6333C44.5663 36.0346 45.9626 36.821 47.4873 37.2543C48.8194 37.6395 50.1193 37.6556 51.4675 37.3025C52.9761 36.9173 54.3724 36.1951 55.8971 35.8259C57.5341 35.4247 58.9625 35.6975 60.3588 36.5963C61.5304 37.3506 62.6057 38.3457 63.9699 38.7629C65.4143 39.2123 67.934 38.6667 68.6402 40.3839C69.3785 42.1654 66.6982 42.8716 65.4785 43.0321C63.5847 43.2567 61.6588 43.3049 59.7649 43.1444C57.9193 43 56.1218 42.5506 54.2761 42.5024C52.5749 42.4543 51.1304 42.9197 49.67 43.7703C48.1292 44.6851 46.6688 45.4715 44.8391 45.6641C40.9392 46.0814 37.1194 44.6049 33.2355 44.653C31.0528 44.6691 28.7738 45.2469 26.6232 44.637C24.8257 44.1234 23.0122 42.4382 23.4455 40.4321C23.5097 40.1271 23.0442 39.9987 22.9801 40.3037C22.6751 41.7481 23.3171 43.0642 24.4245 43.995C25.7887 45.1345 27.4899 45.4234 29.2232 45.3913C31.3257 45.3431 33.3639 45.0543 35.4664 45.2629C37.4244 45.4715 39.3663 45.8728 41.3244 46.0975C43.1219 46.2901 44.9996 46.3222 46.749 45.7925C48.6107 45.2148 50.0551 43.8185 51.9169 43.2728C54.0354 42.6469 56.2662 43.2407 58.4008 43.5135C60.5514 43.7864 62.7341 43.8185 64.8847 43.6098C66.2168 43.4814 67.7735 43.2728 68.7365 42.2296C69.555 41.3308 69.3464 40.079 68.3994 39.3568C66.9711 38.2654 64.997 38.8111 63.4242 38.0568C61.9797 37.3667 60.8402 36.1469 59.3316 35.537C56.0094 34.1889 53.0082 37.0136 49.7342 37.1259C47.9045 37.1901 46.2354 36.3074 44.5824 35.6654C43.0577 35.0877 41.5169 34.7506 39.912 35.1198C38.2108 35.505 36.7182 36.4358 35.1775 37.2062C33.2355 38.1691 31.422 38.6506 29.2874 37.9926C27.6022 37.479 25.7726 36.5803 24.0714 37.5432C22.964 38.1691 22.1134 39.4691 22.8677 40.6889C23.0282 40.9617 23.4455 40.721 23.285 40.4481Z" fill="#E8E8E8"/>
<path d="M106.02 17.7224C107.304 15.0742 110.819 17.0643 112.68 17.6582C115.088 18.4285 117.078 17.3372 119.228 16.3421C120.56 15.7162 121.876 15.3471 123.353 15.4273C124.862 15.5236 126.338 15.9409 127.831 16.1495C130.671 16.5347 133.32 15.636 136.08 15.1705C137.557 14.9298 139.065 14.8816 140.542 15.0421C141.296 15.1224 142.05 15.2508 142.789 15.4434C143.479 15.6199 144.329 15.7804 144.939 16.1495C146.801 17.2569 144.329 19.1186 143.174 19.4557C141.986 19.8088 140.718 19.7285 139.515 19.5199C138.118 19.2791 136.738 18.8779 135.326 18.8298C133.994 18.7656 132.79 19.1186 131.57 19.6001C130.158 20.1618 128.81 20.7075 127.269 20.7236C125.76 20.7396 124.236 20.531 122.727 20.4507C119.26 20.2902 115.778 20.3705 112.327 20.6915C110.674 20.852 108.989 21.2371 107.336 21.2532C106.517 21.2692 105.651 21.0927 105.041 20.5149C104.688 20.1618 104.431 19.6964 104.511 19.1828C104.607 18.5569 105.121 17.9631 105.827 18.0754C106.132 18.1236 106.261 17.6582 105.956 17.61C104.977 17.4656 104.142 18.1717 104.014 19.1507C103.885 20.21 104.752 21.1087 105.683 21.4779C107.127 22.0557 108.812 21.5902 110.289 21.4137C112.119 21.189 113.948 21.0285 115.794 20.9483C117.639 20.868 119.469 20.8359 121.315 20.9001C123.144 20.9483 124.974 21.1569 126.804 21.2211C128.473 21.2692 129.917 20.7878 131.442 20.1779C133.223 19.4717 134.828 19.1668 136.738 19.4878C139.29 19.9051 142.259 20.9322 144.634 19.3433C145.453 18.7977 146.287 17.7545 145.999 16.7113C145.678 15.5076 143.768 15.2187 142.773 14.9779C141.232 14.6088 139.643 14.4483 138.054 14.5125C136.353 14.5928 134.7 14.9779 133.047 15.331C131.185 15.7322 129.371 15.9409 127.478 15.636C125.873 15.3792 124.268 14.9137 122.615 14.9619C119.18 15.0421 116.452 18.3322 112.921 17.273C111.412 16.8236 110.016 15.9248 108.379 15.9569C107.24 15.989 106.1 16.4384 105.586 17.5137C105.474 17.7545 105.891 17.9952 106.02 17.7224Z" fill="#E8E8E8"/>
<path d="M177.294 41.8444C181.355 39.5815 186.154 40.721 190.567 40.6247C192.766 40.5765 194.724 40.079 196.81 39.405C197.998 39.0198 199.169 38.7469 200.421 38.7469C201.657 38.7309 202.877 38.8914 204.113 38.9556C205.156 39.0037 206.215 39.0037 207.226 38.7469C207.724 38.6346 208.189 38.4259 208.671 38.3136C209.762 38.0729 210.276 38.8753 210.308 39.8704C210.372 42.3259 207.9 43.6901 205.798 44.0592C203.262 44.4926 200.63 44.1716 198.078 44.0913C195.655 44.0271 193.295 44.2518 190.904 44.6852C188.144 45.1827 185.367 45.8086 182.542 45.7444C181.21 45.7123 179.878 45.5358 178.61 45.1185C177.984 44.9098 177.326 44.6531 176.765 44.2839C176.171 43.8987 175.304 42.5667 176.524 42.3099C176.829 42.2457 176.7 41.7802 176.396 41.8444C175.705 41.9889 175.336 42.695 175.465 43.3852C175.657 44.3481 176.733 44.8777 177.551 45.2308C179.894 46.258 182.51 46.3864 185.03 46.1456C188.015 45.8728 190.904 45.0703 193.889 44.7333C196.971 44.3802 200.052 44.7654 203.15 44.7494C205.461 44.7333 208.173 44.4926 209.778 42.5988C210.388 41.8765 210.805 40.9617 210.821 39.9988C210.837 39.2284 210.597 38.2173 209.81 37.8963C208.799 37.479 207.579 38.2494 206.584 38.4099C205.124 38.6346 203.615 38.442 202.155 38.3457C200.855 38.2494 199.555 38.2334 198.271 38.5222C196.842 38.8432 195.494 39.437 194.066 39.7741C188.481 41.0901 182.334 38.5222 177.086 41.4593C176.781 41.5876 177.021 42.0049 177.294 41.8444Z" fill="#E8E8E8"/>
<path d="M10.3655 139.857C16.3197 138.156 22.3542 136.471 28.5493 135.957C31.6628 135.701 34.8085 135.749 37.906 136.278C40.8751 136.792 43.6677 137.803 46.396 139.039C49.3972 140.371 52.3343 141.863 55.4639 142.842C55.7528 142.939 55.8811 142.473 55.5923 142.377C49.7824 140.547 44.6306 137.081 38.6121 135.925C32.6418 134.77 26.511 135.444 20.6209 136.696C17.1222 137.45 13.6716 138.413 10.2371 139.392C9.94817 139.472 10.0766 139.938 10.3655 139.857Z" fill="#E8E8E8"/>
<path d="M47.2795 138.686C51.9177 138.124 56.5239 137.707 61.1781 138.252C65.7682 138.798 70.246 140.114 74.4188 142.104C74.6916 142.232 74.9484 141.815 74.6595 141.687C70.583 139.745 66.2337 138.429 61.7559 137.851C56.909 137.209 52.1103 137.626 47.2795 138.204C46.9745 138.236 46.9745 138.718 47.2795 138.686Z" fill="#E8E8E8"/>
<path d="M67.7244 141.96C70.0355 142.634 72.3305 143.34 74.6416 143.966C76.6317 144.496 78.7021 144.833 80.7082 144.142C80.9971 144.046 80.8687 143.581 80.5798 143.677C78.4774 144.415 76.2947 143.934 74.2083 143.34C72.0898 142.746 69.9713 142.104 67.8528 141.494C67.5639 141.414 67.4355 141.88 67.7244 141.96Z" fill="#E8E8E8"/>
<path d="M48.1457 143.019C53.1691 143.26 57.8876 146.454 62.9913 145.298C63.2962 145.234 63.1678 144.768 62.8629 144.833C57.8394 145.972 53.1049 142.778 48.1457 142.538C47.8408 142.521 47.8408 143.003 48.1457 143.019Z" fill="#E8E8E8"/>
<path d="M3.1758 144.046C6.91528 142.987 10.6548 141.928 14.3942 140.868C14.6992 140.788 14.5708 140.323 14.2658 140.403C10.5264 141.462 6.78688 142.521 3.04741 143.581C2.74247 143.661 2.87087 144.126 3.1758 144.046Z" fill="#E8E8E8"/>
<path d="M13.0137 143.131C16.4322 142.216 19.8988 141.446 23.3815 140.836C23.6864 140.788 23.5581 140.323 23.2531 140.371C19.7704 140.997 16.3038 141.751 12.8853 142.666C12.5804 142.762 12.7088 143.212 13.0137 143.131Z" fill="#E8E8E8"/>
<path d="M85.8134 129.473C98.2355 129.473 110.658 129.473 123.096 129.473C124.027 129.473 124.027 128.029 123.096 128.029C110.674 128.029 98.2516 128.029 85.8134 128.029C84.8825 128.029 84.8825 129.473 85.8134 129.473Z" fill="#161616"/>
<path d="M127.847 129.746C130.398 129.746 132.95 129.746 135.518 129.746C136.449 129.746 136.449 128.302 135.518 128.302C132.966 128.302 130.414 128.302 127.847 128.302C126.916 128.302 126.916 129.746 127.847 129.746Z" fill="#161616"/>
<path d="M140.525 129.473C141.665 129.473 142.82 129.473 143.96 129.473C144.891 129.473 144.891 128.029 143.96 128.029C142.82 128.029 141.665 128.029 140.525 128.029C139.594 128.029 139.594 129.473 140.525 129.473Z" fill="#161616"/>
<path d="M138.679 141.366C150.266 141.366 161.87 141.366 173.457 141.366C176.747 141.366 180.054 141.366 183.344 141.366C184.275 141.366 184.275 139.921 183.344 139.921C171.756 139.921 160.153 139.921 148.565 139.921C145.275 139.921 141.969 139.921 138.679 139.921C137.748 139.921 137.748 141.366 138.679 141.366Z" fill="#161616"/>
<path d="M187.054 141.109C189.525 141.109 191.981 141.109 194.452 141.109C195.383 141.109 195.383 139.665 194.452 139.665C191.981 139.665 189.525 139.665 187.054 139.665C186.123 139.665 186.123 141.109 187.054 141.109Z" fill="#161616"/>
<path d="M198.158 141.366C199.121 141.366 200.1 141.366 201.063 141.366C201.994 141.366 201.994 139.921 201.063 139.921C200.1 139.921 199.121 139.921 198.158 139.921C197.227 139.921 197.227 141.366 198.158 141.366Z" fill="#161616"/>
<path d="M34.2792 5.07559C35.0817 5.50892 35.8199 6.03855 36.494 6.66447C36.7187 6.87311 37.0557 6.53607 36.831 6.32743C36.1409 5.66941 35.3705 5.12374 34.5199 4.67436C34.2471 4.51387 34.0064 4.93115 34.2792 5.07559Z" fill="#161616"/>
<path d="M37.5214 3.93601C37.2164 3.24589 36.9115 2.57182 36.6066 1.88171C36.4782 1.59282 36.0609 1.84961 36.1893 2.12245C36.4942 2.81256 36.7992 3.48663 37.1041 4.17675C37.2325 4.46564 37.6498 4.2249 37.5214 3.93601Z" fill="#161616"/>
<path d="M39.5929 2.82868C39.304 1.97807 39.2077 1.12746 39.3361 0.228702C39.3682 -0.076234 38.8868 -0.076234 38.8547 0.228702C38.7423 1.15956 38.8226 2.07437 39.1435 2.95708C39.2238 3.24596 39.6892 3.11757 39.5929 2.82868Z" fill="#161616"/>
<path d="M94.5611 12.057C95.1549 12.3298 95.8129 12.3458 96.4067 12.0088C97.2252 11.5434 97.2573 10.757 97.4499 9.92241C97.5141 9.61747 97.6104 9.24834 97.8512 9.0397C98.3487 8.60637 98.5252 8.91131 98.9265 9.02365C99.1833 9.08785 99.424 9.1039 99.6647 8.99155C100.13 8.78291 101.286 6.58416 101.815 7.30638C102.008 7.54712 102.425 7.30638 102.233 7.06564C101.847 6.56812 101.302 6.61626 100.804 6.9533C100.467 7.17799 100.307 7.49897 100.098 7.81996C99.9857 8.01255 99.8413 8.26934 99.6647 8.41378C99.1672 8.78291 98.9746 8.46193 98.5413 8.38168C97.8672 8.25329 97.3536 8.70267 97.1129 9.31254C96.9043 9.81007 96.9524 10.3718 96.7598 10.8854C96.4388 11.6718 95.5722 12.0249 94.8018 11.6557C94.5129 11.5113 94.2722 11.9286 94.5611 12.057Z" fill="#161616"/>
<path d="M96.9685 13.5977C97.4981 13.9829 98.108 13.7261 98.5092 13.2767C99.2154 12.4421 98.7178 11.0298 99.8252 10.5002C100.644 10.0989 101.591 10.2755 102.377 9.71377C103.067 9.21624 103.436 8.44588 103.501 7.61131C103.517 7.30638 103.035 7.30638 103.019 7.61131C102.955 8.59032 102.313 9.39278 101.366 9.66562C100.756 9.84216 100.082 9.81006 99.5203 10.0989C99.0549 10.3397 98.782 10.757 98.6536 11.2545C98.5573 11.5915 98.5413 11.9607 98.461 12.2977C98.3326 12.7792 97.8512 13.6458 97.2252 13.1804C96.9685 13.0039 96.7277 13.4211 96.9685 13.5977Z" fill="#161616"/>
<path d="M98.8438 111.354C100.384 112.67 101.957 113.986 103.562 115.302C105.103 116.57 106.644 117.822 108.168 119.025C108.858 121.144 108.554 122.412 108.12 123.166C107.366 124.498 106.146 124.514 104.14 126.44C103.113 127.419 101.925 128.575 102.15 129.249C102.423 130.067 104.83 130.452 113.384 129.008C115.15 125.349 116.915 121.689 118.681 118.03C114.813 114.018 110.929 109.99 107.061 105.977C104.317 107.775 101.588 109.572 98.8438 111.354Z" fill="#191919"/>
<path d="M81.4794 73.3973C79.73 77.6182 81.5436 82.3046 84.4003 89.6391C85.588 92.6885 86.8238 94.9835 87.4658 96.1551C88.7336 98.4823 89.4719 99.4934 94.6558 106.796C98.7805 112.606 99.1817 113.199 100.385 113.585C104.526 114.917 111.235 111.514 111.299 107.069C111.347 103.955 108.105 101.708 107.575 101.339C105.601 98.5625 104.366 96.0267 103.579 94.149C102.215 90.8589 100.755 87.3601 101.043 82.9626C101.3 79.175 102.568 78.9503 102.504 75.6442C102.488 75.1306 102.295 68.9516 98.5076 66.464C93.5645 63.2381 84.0152 67.2986 81.4794 73.3973Z" fill="white" stroke="#191919" stroke-width="0.320985"/>
<path opacity="0.47" d="M102.296 74.1195C102.553 74.8256 102.344 76.1577 101.927 78.8058C101.461 81.7589 101.124 81.9354 100.964 83.4922C100.691 86.0922 101.349 88.0342 102.601 91.7415C102.938 92.7205 103.644 94.2773 105.056 97.3909C106.035 99.5415 106.517 100.504 107.592 101.403C108.459 102.125 108.812 102.093 109.518 102.816C110.529 103.859 111.203 105.416 111.235 106.828C111.299 110.022 108.17 112.59 105.441 113.44C103.034 114.194 100.899 113.617 99.9365 113.296C98.0427 111.049 95.4266 107.807 92.5699 103.698C88.8625 98.3699 86.7921 95.4168 85.2033 91.2761C83.2773 86.2687 80.2119 78.2923 84.1601 73.7182C88.8304 68.3417 100.948 70.4923 102.296 74.1195Z" fill="#6C6D6D"/>
<path opacity="0.37" d="M91.7348 81.0367C93.7088 82.5935 93.4039 85.2737 93.8212 89.2218C94.3027 93.7638 95.5224 98.0008 96.7261 100.681C100.177 108.385 106.933 111.049 105.954 112.959C105.409 114.018 102.777 114.275 100.899 113.697C100.209 113.488 99.6792 113.183 99.3421 112.959C96.373 109.107 94.078 105.817 92.5051 103.506C84.4163 91.6613 83.5657 87.7934 84.2558 84.6157C84.4484 83.733 84.9459 81.4058 86.8558 80.4589C88.3805 79.6725 90.4348 80.0096 91.7348 81.0367Z" fill="#6C6D6D"/>
<path opacity="0.47" d="M96.9182 80.8602C95.7948 83.2676 94.559 84.9046 93.6763 85.9478C91.4775 88.5157 89.7924 89.2218 88.5887 91.6613C87.7541 93.3786 87.6097 95.0156 87.5936 96.0428C87.0961 95.2564 86.5986 94.4057 86.1171 93.507C85.0418 91.4687 84.2393 89.5428 83.6455 87.7934C88.0751 85.4824 92.4886 83.1713 96.9182 80.8602Z" fill="#6C6D6D"/>
<path d="M67.7744 109.99C69.3151 111.306 70.888 112.622 72.4929 113.938C74.0336 115.206 75.5744 116.457 77.099 117.661C76.5855 118.239 75.783 119.122 74.804 120.181C72.9904 122.123 72.5089 122.524 71.9472 123.471C71.6744 123.936 70.1658 126.52 70.9682 127.531C72.0275 128.864 76.8904 127.018 80.0681 125.012C82.0101 123.776 85.1237 121.336 87.6273 116.682C83.7595 112.67 79.8756 108.641 76.0077 104.629C73.2472 106.411 70.5028 108.208 67.7744 109.99Z" fill="#191919"/>
<path d="M82.1545 71.7442C79.5867 73.3331 77.5163 74.9059 70.4386 81.3737C58.9634 91.8379 57.872 93.6514 57.535 96.1391C56.9732 100.264 58.6745 104.774 61.788 107.63C62.5584 108.336 65.688 111.193 70.0052 110.808C73.6163 110.487 78.4311 107.871 78.2225 104.26C78.0941 101.901 75.8472 99.702 72.8299 98.6588C79.0249 93.0094 84.6903 89.4786 88.8792 87.2478C94.1273 84.4552 97.4655 83.4762 98.9742 79.9614C100.836 75.6121 99.1828 69.1121 95.331 67.2664C91.9606 65.6615 88.0125 68.1171 82.1545 71.7442Z" fill="white" stroke="#191919" stroke-width="0.320985"/>
<path opacity="0.42" d="M90.0999 69.9628C90.0999 72.9319 89.6184 76.9121 87.3073 80.6355C82.0111 89.1095 72.2852 88.596 69.8136 96.2354C69.5248 97.1502 68.4816 101.371 70.568 103.714C71.7235 104.998 73.521 105.367 74.0185 107.101C74.3074 108.096 74.0185 109.059 73.7297 109.733C75.9605 109.235 77.6778 107.518 78.0469 105.416C78.6247 102.093 75.4309 99.9428 75.1901 99.7823C74.179 99.1243 73.184 98.9156 72.5581 98.8354C79.5395 92.2391 85.8148 88.4997 90.469 86.2688C93.6789 84.7281 97.5628 83.1874 99.0875 79.3997C100.371 76.1899 99.4085 72.7714 98.4295 70.4924C95.6529 70.2998 92.8764 70.1393 90.0999 69.9628Z" fill="#6C6D6D"/>
<path opacity="0.5" d="M93.2441 74.1355C93.5169 75.6281 93.7095 77.875 92.8107 80.2021C91.3021 84.1021 87.7071 85.6268 83.8231 88.2428C81.0145 90.1206 77.1627 93.186 73.1504 98.1131C74.338 97.1501 75.9911 95.8502 78.0133 94.3736C81.8009 91.6131 83.9034 90.0885 86.9688 88.4514C91.5268 86.0441 93.8058 84.8404 93.9342 84.7762C94.4478 84.5515 95.5391 84.086 96.6465 83.0589C96.9675 82.754 97.8983 81.8552 98.6366 80.2824C98.9095 79.6886 101.156 75.0182 99.2144 73.333C98.0267 72.2738 95.507 72.6108 93.2441 74.1355Z" fill="#6C6D6D"/>
<path d="M85.3633 29.9198C87.2731 29.5346 90.1781 29.1655 93.6768 29.5186C96.7101 29.8235 102.279 30.3692 106.629 34.5581C107.784 35.6815 109.838 37.7037 110.577 40.9617C111.491 45.0061 109.87 48.4728 109.212 49.6925C106.548 54.6357 102.375 54.6196 100.482 59.2418C100.305 59.6751 99.7916 60.9912 98.5718 62.243C97.2397 63.5912 95.378 64.522 95.0249 64.1529C94.8644 63.9763 94.9447 63.4788 95.9718 61.9702C95.7151 62.1307 94.6558 62.8048 93.3879 62.5159C91.6385 62.1307 90.4669 60.1727 90.804 58.8406C90.8842 58.5036 91.1089 57.99 93.8052 56.385C95.041 55.6468 95.6669 55.2777 96.8064 54.748C99.7434 53.3838 105.072 48.7296 104.301 44.3802C103.852 41.8765 101.477 39.9988 99.5348 39.1963C95.6669 37.6235 93.1472 40.1913 90.1299 38.9235C88.3645 38.1691 86.3102 36.0667 85.3633 29.9198Z" fill="white" stroke="#191919" stroke-width="0.320985"/>
<path opacity="0.29" d="M86.9358 32.5359C88.4604 32.5359 90.7394 32.6643 93.4197 33.242C97.0789 34.0445 100.321 35.0717 103.338 37.8C105.874 40.0951 106.339 43.3531 106.484 44.3642C106.612 45.295 107.078 48.4888 105.344 51.4258C104.237 53.2876 103.129 53.5764 99.711 56.4172C97.9777 57.8616 97.3357 59.3542 95.2172 60.5579C93.0987 61.7616 92.2641 61.4085 92.0073 61.264C90.8518 60.6542 90.8036 58.8727 90.7876 58.632C91.1728 58.2628 91.7826 57.7172 92.5691 57.1394C95.169 55.2135 96.3406 55.3098 98.5554 53.9295C99.4221 53.3839 102.038 51.6987 103.483 48.5851C103.9 47.6864 104.462 46.4024 104.269 44.7333C104.06 42.9679 103.113 41.7963 102.776 41.379C100.754 38.9395 97.6246 38.5864 96.9987 38.5222C93.6765 38.2173 92.2641 39.9506 90.0012 38.8111C89.0061 38.3136 88.4284 37.5432 88.1395 37.1741C86.7432 35.2803 86.8716 33.1457 86.9358 32.5359Z" fill="#6C6D6D"/>
<path opacity="0.24" d="M88.9415 37.8161C89.0218 36.8852 92.6971 36.4037 95.2168 36.3877C97.7365 36.3716 100.577 36.3556 102.856 38.3778C104.172 39.5333 104.686 40.8333 104.782 41.0901C106.227 44.8135 103.659 48.4567 103.354 48.8579C103.691 48.3444 104.782 46.5469 104.349 44.3C103.916 41.9728 102.15 40.7049 101.283 40.0951C100.77 39.7259 99.0526 38.5383 96.6452 38.458C93.9008 38.3778 92.6971 39.8222 90.5144 39.0358C90.4181 38.9877 88.8934 38.4259 88.9415 37.8161Z" fill="#6C6D6D"/>
<path d="M43.0263 18.7656C42.4646 17.8347 41.7905 16.4866 41.293 14.7693C39.8164 9.56936 41.1646 4.3373 41.7744 4.35335C42.0152 4.35335 42.3201 5.17186 42.6251 8.59035C42.9621 7.41876 43.1386 6.4558 43.251 5.76568C43.3633 5.04347 43.4275 4.44964 43.8448 3.83977C44.1658 3.35829 44.5831 3.05336 44.888 2.87682C45.1608 2.63608 45.4337 2.37929 45.7065 2.13855C45.9954 2.37929 46.2361 2.62003 46.4448 2.87682C48.6275 5.54099 47.4559 9.6175 47.1349 10.6286C47.504 10.3879 47.9695 10.0187 48.3867 9.47306C49.1411 8.51011 49.1732 7.72369 49.3497 7.73974C49.6867 7.77184 50.104 10.5805 49.109 13.3891C48.804 14.2557 48.4349 14.9298 48.146 15.3952C48.0818 17.0002 48.0497 22.5853 52.0299 27.7211C52.3991 28.1865 58.0323 35.2642 65.5915 34.9111C70.5187 34.6864 72.2038 31.5889 75.4779 32.8568C78.0137 33.8358 79.8593 36.7889 79.9235 39.8543C80.0038 43.0481 78.1421 46.0172 75.205 47.3975C73.1026 47.574 70.0211 47.6382 66.394 47.0604C62.2693 46.4024 53.683 45.0222 48.788 38.3617C46.6374 35.4247 45.6423 32.0704 45.2411 30.3371C45.1769 30.0482 45.1287 29.8396 45.0485 29.4544C44.551 27.1272 43.8769 23.6767 43.0263 18.7656Z" fill="white" stroke="#191919" stroke-width="0.320985"/>
<path d="M44.76 4.11264C45.0649 4.11264 45.0649 3.63116 44.76 3.63116C44.455 3.63116 44.455 4.11264 44.76 4.11264Z" fill="#161616"/>
<path d="M44.8086 2.94093C44.3431 4.77055 44.0864 6.61621 44.0703 8.49398C44.0703 8.71867 44.4234 8.71867 44.4394 8.49398C44.4555 6.64831 44.6962 4.8187 45.1617 3.03723C45.2098 2.81254 44.8567 2.71625 44.8086 2.94093Z" fill="#161616"/>
<path d="M46.2204 2.94102C45.8673 4.69039 45.6586 6.45581 45.6426 8.23728C45.6426 8.46197 45.9957 8.46197 46.0117 8.23728C46.0438 6.48791 46.2204 4.75459 46.5734 3.03732C46.6055 2.79658 46.2685 2.70028 46.2204 2.94102Z" fill="#161616"/>
<path opacity="0.24" d="M41.3252 5.86194C41.6462 5.87799 41.4697 9.08784 42.1758 13.1804C43.0104 18.0433 44.7758 21.4779 45.7869 24.0137C47.5844 28.5395 51.0832 37.3185 59.0757 41.2185C67.2287 45.2147 76.0077 42.1012 78.736 41.0098C78.8163 41.5073 78.9286 42.8073 78.2706 44.2197C77.6607 45.5357 76.7138 46.274 76.2805 46.5468C75.5262 46.8518 74.4027 47.2369 72.9904 47.4456C70.7917 47.7666 69.0583 47.4616 67.5658 47.1727C62.5102 46.1777 59.9745 45.6962 57.6152 44.637C55.1597 43.5456 52.014 42.1333 49.382 39.0037C46.8141 35.9704 46.0277 32.8568 44.6474 27.3359C43.7808 23.8853 43.3635 20.9643 43.1388 18.8939C42.224 17.3693 41.0524 14.9458 40.7314 11.8162C40.4104 8.76686 41.0203 5.86194 41.3252 5.86194Z" fill="#6C6D6D"/>
<path opacity="0.4" d="M43.7473 3.93606C43.9399 3.75952 44.1325 3.58297 44.3411 3.40643C43.3621 7.19406 42.8325 9.08787 42.7522 9.07182C42.672 9.03972 42.993 7.3385 43.7473 3.93606Z" fill="#6C6D6D"/>
<path opacity="0.44" d="M58.4814 45.0382C60.5037 45.5839 63.3765 46.1135 66.8271 45.9209C72.3801 45.616 76.5529 43.6098 78.7677 42.3259C78.7035 42.8394 78.4788 44.2197 77.3714 45.4876C76.1035 46.948 74.5147 47.3011 74.0171 47.3814C72.4764 47.4295 70.8073 47.3974 69.0258 47.253C64.869 46.8999 61.3061 46.0011 58.4814 45.0382Z" fill="#6C6D6D"/>
<path d="M82.8926 51.8912C87.7234 49.2271 95.4591 45.3592 105.442 42.1493C120.929 37.1741 129.74 37.6716 144.907 34.4617C153.301 32.6963 165.514 29.3902 180.007 22.6816C180.039 24.4149 180.119 26.1964 180.263 28.0581C180.568 32.1506 181.13 35.9222 181.804 39.3407C180.36 41.8123 178.899 44.2999 177.455 46.7715C177.888 51.0406 178.305 55.3097 178.739 59.5788C170.056 59.7714 161.165 60.0924 152.081 60.606C129.708 61.8578 108.491 63.9924 88.5259 66.7528C86.6481 61.8097 84.7703 56.8505 82.8926 51.8912Z" fill="#AF4545"/>
<g opacity="0.28">
<path d="M101.429 45.4716C113.787 41.8926 126.578 39.9667 139.433 39.7259C139.738 39.7259 139.738 39.2444 139.433 39.2444C126.53 39.4852 113.69 41.4271 101.3 45.0061C100.995 45.0864 101.124 45.5518 101.429 45.4716Z" fill="#681225"/>
</g>
<g opacity="0.28">
<path d="M135.132 42.4222C146.447 39.5654 158.708 42.2617 169.59 37.4629C169.878 37.3346 169.622 36.9173 169.349 37.0457C158.516 41.8283 146.254 39.116 135.003 41.9567C134.699 42.037 134.827 42.5024 135.132 42.4222Z" fill="#681225"/>
</g>
<g opacity="0.28">
<path d="M157.986 45.5678C163.507 44.3481 169.205 44.1073 174.822 44.8938C175.127 44.9419 175.255 44.4765 174.95 44.4283C169.253 43.6259 163.475 43.8505 157.858 45.1024C157.553 45.1666 157.681 45.632 157.986 45.5678Z" fill="#681225"/>
</g>
<path d="M74.4827 32.6001C75.2691 33.0976 76.5852 34.0606 77.5963 35.7136C79.0246 38.0408 80.132 42.2136 77.8691 45.0864C76.6494 46.6271 74.9 47.253 73.6963 47.4938C74.5309 50.158 75.3173 53.0789 75.9432 56.2246C77.4358 63.6072 77.7568 70.2677 77.5802 75.8047C80.9827 76.3985 85.6209 76.8479 91.0937 76.3183C96.0048 75.8368 100.081 74.7133 103.131 73.638C102.36 60.0443 99.1665 49.9493 96.5665 43.5457C95.8282 41.7321 90.2591 28.2347 85.3801 28.8766C83.9678 29.0532 83.2135 30.3371 79.9074 31.5087C77.7086 32.2791 75.7666 32.5198 74.4827 32.6001Z" fill="white" stroke="#191919" stroke-width="0.320985"/>
<path opacity="0.36" d="M81.7051 31.0754C83.2779 32.8569 85.4767 35.6334 87.4347 39.405C92.5062 49.1309 92.2976 58.2789 92.0568 61.7456C91.6396 67.7159 90.0025 72.7072 88.2853 76.4306C90.5964 76.222 93.1161 75.885 95.8124 75.3714C98.4284 74.8739 100.836 74.28 103.002 73.6541C102.858 71.1986 102.537 67.3949 101.799 62.8048C100.049 51.9234 97.1605 44.4926 94.4 39.068C89.826 30.1285 86.552 28.6039 85.4606 28.989C85.2841 29.0532 84.4816 29.4063 83.5828 29.9039C82.7804 30.3372 82.1545 30.7545 81.7051 31.0754Z" fill="#6C6D6D"/>
<path opacity="0.49" d="M92.5225 36.147C93.1805 41.3309 93.9027 45.5679 94.4484 48.4888C96.3743 58.8406 97.9311 62.9492 96.4064 68.6627C95.5718 71.8084 94.1274 74.1837 93.0521 75.6923C94.336 75.6121 95.7965 75.4516 97.3693 75.1306C99.6002 74.6812 101.51 74.0232 103.051 73.3652C102.73 63.3665 100.692 51.5863 94.6249 39.9025C93.9508 38.6025 93.2447 37.3506 92.5225 36.147Z" fill="#6C6D6D"/>
<path d="M74.8192 52.3728C74.5625 54.8925 74.4501 57.7814 74.6106 60.9591C74.8674 65.8702 75.718 70.0751 76.6489 73.4294C78.4624 73.3491 81.1587 73.2849 84.4167 73.4294C91.4142 73.7343 94.8969 74.7133 98.1228 75.0664C107.849 76.1578 110.802 71.1664 121.651 69.5455C126.402 68.8393 133.64 68.6307 143.125 71.7924C149.882 75.4676 156.622 79.159 163.379 82.8343C164.005 81.5343 165.658 78.5812 169.109 76.4948C173.988 73.5257 178.963 74.4084 180.151 74.6491C179.188 72.1454 177.663 67.122 178.931 61.1517C179.38 59.0493 180.07 57.2678 180.776 55.8394C176.828 54.1863 171.259 52.0999 164.406 50.3185C152.514 47.2049 143.269 46.6913 133.929 46.2259C116.13 45.3271 102.777 46.9802 99.1499 47.4456C89.2957 48.7617 81.0303 50.6715 74.8192 52.3728Z" fill="#EC615B"/>
<path opacity="0.25" d="M122.004 59.5307C122.004 59.5788 135.437 61.4245 148.854 63.4628C154.135 64.2652 159.559 65.1319 165.834 68.3578C169.895 70.4442 172.912 72.8034 174.918 74.5688C175.624 74.3602 176.652 74.1355 177.903 74.2158C178.674 74.2639 179.332 74.3923 179.861 74.5528C179.348 73.0923 178.834 71.2787 178.513 69.1442C178.208 67.138 178.16 65.3566 178.208 63.88C133.351 60.3332 122.004 59.4825 122.004 59.5307Z" fill="#681225"/>
<path opacity="0.28" d="M74.6738 58.8567C75.7491 60.574 76.9207 61.5049 77.7553 62.0184C80.5639 63.7678 83.1157 63.1098 90.049 63.9764C91.4132 64.153 92.5206 64.3295 93.2107 64.4419C87.2243 65.0357 81.2219 65.6295 75.2356 66.2073C75.0911 65.148 74.9627 64.0246 74.8664 62.853C74.7541 61.4567 74.6899 60.1086 74.6738 58.8567Z" fill="#681225"/>
<g opacity="0.28">
<path d="M95.7785 64.6666C100.545 65.0357 105.344 64.6345 109.982 63.4629C110.287 63.3826 110.159 62.9172 109.854 62.9974C105.248 64.153 100.513 64.5542 95.7785 64.1851C95.4736 64.153 95.4736 64.6345 95.7785 64.6666Z" fill="#681225"/>
</g>
<g opacity="0.28">
<path d="M114.476 63.5591C119.82 63.19 125.181 63.4308 130.477 64.2814C130.782 64.3295 130.911 63.8641 130.606 63.8159C125.277 62.9493 119.869 62.7085 114.476 63.0777C114.155 63.1098 114.155 63.5912 114.476 63.5591Z" fill="#681225"/>
</g>
<g opacity="0.28">
<path d="M109.067 56.8505C119.339 55.069 129.899 55.39 140.042 57.7974C140.347 57.8616 140.476 57.4122 140.171 57.332C129.947 54.9085 119.291 54.6036 108.939 56.3851C108.634 56.4332 108.762 56.8987 109.067 56.8505Z" fill="#681225"/>
</g>
<g opacity="0.28">
<path d="M151.778 79.1912C155.437 80.7961 158.727 83.1232 161.44 86.0442C161.648 86.2689 161.985 85.9319 161.777 85.7072C159.032 82.7541 155.71 80.3949 152.019 78.7739C151.73 78.6455 151.489 79.0628 151.778 79.1912Z" fill="#681225"/>
</g>
<path d="M81.5921 17.2571C82.7798 21.1731 83.2131 23.436 84.8983 27.015C85.6847 28.6842 86.439 30.0162 86.9686 30.8829C85.2513 31.6854 82.4588 32.7125 78.8798 32.8409C76.7613 32.9212 74.9477 32.6483 73.5514 32.3434C73.6959 31.2681 73.7761 29.936 73.6638 28.4113C73.5193 26.5015 73.1181 24.8965 72.7169 23.7089C70.807 23.4681 68.8972 23.2274 66.9873 22.9867C66.6182 22.1682 66.233 21.3496 65.8638 20.5151C65.3342 20.499 64.8206 20.483 64.291 20.4669C64.6922 19.3435 65.2861 17.562 65.9762 15.3633C67.2601 11.2226 67.2441 10.6287 67.9342 9.69788C69.8441 7.14605 74.1613 5.52507 76.9699 6.88926C78.6712 7.70777 79.6662 10.9016 81.5921 17.2571Z" fill="white" stroke="#161616" stroke-width="0.320985"/>
<path d="M64.3547 20.7236C65.3337 20.7397 66.3127 20.6755 67.2756 20.531C67.5806 20.4829 67.4522 20.0174 67.1472 20.0656C66.2164 20.21 65.2855 20.2582 64.3547 20.2421C64.0497 20.2421 64.0497 20.7236 64.3547 20.7236Z" fill="#161616"/>
<path d="M63.9535 13.2928C64.5313 12.9879 65.2856 13.1323 65.6869 13.678C65.8634 13.9187 66.2807 13.678 66.1041 13.4373C65.5585 12.6829 64.5474 12.4422 63.7128 12.8755C63.44 13.02 63.6807 13.4373 63.9535 13.2928Z" fill="#161616"/>
<path d="M64.6121 15.636C64.564 15.4595 64.564 15.283 64.6121 15.1064C64.6442 15.0262 64.6763 14.9299 64.7244 14.8657C64.7565 14.8175 64.7886 14.7854 64.8207 14.7533C64.7886 14.7533 64.7726 14.7694 64.7726 14.8175C64.7726 15.1546 64.6282 15.4434 64.3714 15.6681C64.5158 15.7323 64.6442 15.7805 64.7886 15.8447C64.7886 15.5397 64.8528 15.2509 64.9973 14.978C65.1417 14.7052 64.7244 14.4644 64.58 14.7373C64.4035 15.0904 64.3072 15.4595 64.3072 15.8607C64.3072 16.0854 64.564 16.1657 64.7244 16.0373C64.9812 15.8126 65.1738 15.5076 65.238 15.1706C65.2862 14.8817 65.3183 14.4484 64.9973 14.32C64.6923 14.2077 64.4035 14.4805 64.2751 14.7212C64.0985 15.0583 64.0664 15.4274 64.1627 15.7965C64.2109 16.0694 64.6763 15.941 64.6121 15.636Z" fill="#161616"/>
<path d="M68.6242 13.983C69.3625 13.7583 70.1489 13.999 70.5983 14.641C70.7748 14.8978 71.1921 14.6571 71.0156 14.4003C70.4539 13.5978 69.4428 13.2287 68.4958 13.5176C68.207 13.5978 68.3354 14.0632 68.6242 13.983Z" fill="#161616"/>
<path d="M68.7204 16.1978C68.7043 15.9731 68.7364 15.7484 68.8648 15.5558C68.8969 15.5077 68.929 15.4595 68.9772 15.4114C68.9611 15.3472 68.9611 15.3472 68.9611 15.4114C68.9451 15.5077 68.9451 15.62 68.929 15.7324C68.913 15.8287 68.8809 15.941 68.8327 16.0373C68.8167 16.0854 68.8006 16.1175 68.7685 16.1496C68.8167 16.262 68.8488 16.262 68.8809 16.1496C68.9611 16.0694 69.0093 15.8929 69.0574 15.7966C69.1216 15.6842 69.1698 15.5719 69.2339 15.4435C69.3623 15.2027 69.0574 14.962 68.8488 15.1546C68.7204 15.283 68.6401 15.4114 68.592 15.5879C68.5117 15.8929 68.9611 16.0052 69.0574 15.7163C69.0895 15.62 69.1216 15.5719 69.2019 15.4916C69.0735 15.3953 68.9451 15.299 68.8167 15.2027C68.6722 15.4756 68.5117 15.7484 68.3994 16.0373C68.3191 16.2299 68.3352 16.4546 68.5278 16.5669C69.0093 16.8879 69.3302 16.2138 69.4105 15.8447C69.4907 15.4916 69.5068 14.7213 68.913 14.8817C68.4315 15.0262 68.2389 15.7484 68.271 16.1817C68.2549 16.5027 68.7364 16.5027 68.7204 16.1978Z" fill="#161616"/>
<path d="M67.2598 10.725C67.3882 9.87441 67.7252 8.49417 68.6721 7.06579C69.0091 6.56826 69.6993 5.49296 70.8388 4.77074C72.9894 3.39051 76.2955 3.50285 78.7029 5.18802C81.0461 6.8411 82.2177 9.81021 81.7201 12.7472C76.8893 12.0732 72.0745 11.3991 67.2598 10.725Z" fill="#5222D0"/>
<path d="M59.3796 10.6287C66.7944 11.5435 74.2092 12.4583 81.6239 13.3731C82.5387 13.4855 82.5387 12.041 81.6239 11.9287C74.2092 11.0139 66.7944 10.0991 59.3796 9.18425C58.4488 9.07191 58.4648 10.5163 59.3796 10.6287Z" fill="#161616"/>
<path d="M76.8891 12.5546C75.5731 13.02 74.8188 13.9027 73.9361 14.962C72.0743 17.1768 72.62 17.9953 71.32 19.3755C69.2336 21.5743 67.1151 20.2743 65.2534 22.4249C63.6806 24.2545 63.8732 26.7261 63.9374 27.2718C64.0016 27.8174 64.2744 30.0162 66.1201 31.5248C67.709 32.8248 69.8596 33.1297 70.004 32.8409C70.0521 32.7285 69.8756 32.4717 68.688 31.7014C69.041 31.9421 69.5707 32.231 70.2768 32.3594C71.0793 32.5038 71.8497 32.3594 71.8657 32.247C71.8657 32.1668 71.4324 32.1668 71.0953 31.8137C70.9028 31.6051 70.8065 31.3643 70.7744 31.1557C71.4163 31.573 72.2348 31.9261 73.0213 31.7014C75.1398 31.0754 75.5249 26.4693 75.6373 24.9446C76.0385 20.0015 74.5941 17.3052 76.3435 15.5719C76.4879 15.4274 77.2101 14.7212 77.9805 14.8657C78.9755 15.0422 79.7298 16.5509 79.3928 17.5459C79.12 18.3965 78.1249 18.6373 78.1891 18.7978C78.2854 19.0064 79.9545 18.6854 81.3508 17.5941C81.8644 17.1928 82.2817 16.8718 82.4903 16.278C82.8755 15.2509 82.4261 14.0793 81.8323 13.3892C80.6286 11.9447 78.3175 12.041 76.8891 12.5546Z" fill="#161616" stroke="#161616" stroke-width="0.320985"/>
<path opacity="0.22" d="M78.8637 18.9262C78.5428 18.9583 78.0934 18.9743 78.0773 18.862C78.0613 18.8138 78.1736 18.7336 78.1736 18.7336C78.1736 18.7336 77.7884 19.199 77.323 19.2632C77.0983 19.2953 76.9057 19.215 76.7773 19.1508C77.6119 20.8842 78.4625 22.9706 79.1847 25.3619C79.9872 27.994 80.4366 30.4014 80.6934 32.4557C81.56 32.4557 82.7637 32.3594 84.1279 31.9421C85.2514 31.589 86.1501 31.1236 86.8081 30.7224C85.0106 27.9779 84.1119 25.7792 83.6143 24.2866C83.3736 23.5804 82.8761 21.9274 82.6193 21.1249C82.1538 19.6484 81.8008 18.4286 81.544 17.5941C81.4156 17.7064 81.2069 17.883 80.9502 18.0595C80.581 18.3163 79.8428 18.8138 78.8637 18.9262Z" fill="#6D6C6C"/>
<path d="M73.5352 3.90401C75.4611 4.27315 76.9055 5.78178 77.1302 7.56324C77.387 9.68175 75.7981 11.1262 75.6537 11.2546C77.708 11.4953 79.7462 11.7521 81.8005 11.9928C81.8326 11.5274 81.8487 10.8854 81.7203 10.1472C81.3351 7.77189 79.9067 6.3114 79.6018 6.00647C79.1363 5.52499 77.4351 3.96821 74.9314 3.82377C74.3537 3.80772 73.8722 3.85587 73.5352 3.90401Z" fill="#321693"/>
</svg>
