<svg width="22" height="21" viewBox="0 0 22 21" fill="none" xmlns="http://www.w3.org/2000/svg">
<path fill-rule="evenodd" clip-rule="evenodd" d="M10.4697 13.4697C10.7626 13.1768 11.2374 13.1768 11.5303 13.4697L13.5303 15.4697C13.8232 15.7626 13.8232 16.2374 13.5303 16.5303C13.2374 16.8232 12.7626 16.8232 12.4697 16.5303L11.75 15.8107V20C11.75 20.4142 11.4142 20.75 11 20.75C10.5858 20.75 10.25 20.4142 10.25 20V15.8107L9.53033 16.5303C9.23744 16.8232 8.76256 16.8232 8.46967 16.5303C8.17678 16.2374 8.17678 15.7626 8.46967 15.4697L10.4697 13.4697Z" fill="#C7C7CC"/>
<path d="M11.4762 1.75C8.7261 1.75 6.5119 3.95083 6.5119 6.64706C6.5119 7.10922 6.5766 7.55551 6.69729 7.97813C7.19449 8.12162 7.65991 8.3389 8.08045 8.61709C8.42592 8.84561 8.52072 9.31093 8.29219 9.6564C8.06366 10.0019 7.59835 10.0967 7.25288 9.86814C6.87207 9.61623 6.43917 9.43553 5.9733 9.34513C5.75147 9.30209 5.52165 9.27941 5.28571 9.27941C3.3246 9.27941 1.75 10.8482 1.75 12.7647C1.75 14.6812 3.3246 16.25 5.28571 16.25C5.69993 16.25 6.03571 16.5858 6.03571 17C6.03571 17.4142 5.69993 17.75 5.28571 17.75C2.51296 17.75 0.25 15.5264 0.25 12.7647C0.25 10.0605 2.41987 7.87207 5.11351 7.78228C5.04673 7.41355 5.0119 7.03413 5.0119 6.64706C5.0119 3.10572 7.91446 0.25 11.4762 0.25C14.6343 0.25 17.2724 2.49369 17.8314 5.47127C20.1313 6.44751 21.75 8.70929 21.75 11.3529C21.75 14.4269 19.5623 16.9843 16.6568 17.6057C16.2518 17.6923 15.8532 17.4341 15.7666 17.0291C15.68 16.624 15.9381 16.2254 16.3432 16.1388C18.5829 15.6598 20.25 13.693 20.25 11.3529C20.25 9.21622 18.8607 7.39087 16.9124 6.72463C16.4038 6.55072 15.8568 6.45588 15.2857 6.45588C14.7031 6.45588 14.1455 6.55458 13.6283 6.73526C13.2372 6.87185 12.8095 6.66557 12.6729 6.27453C12.5363 5.88348 12.7426 5.45575 13.1336 5.31916C13.8079 5.08364 14.5326 4.95588 15.2857 4.95588C15.5812 4.95588 15.8723 4.97555 16.1577 5.01367C15.477 3.11631 13.6422 1.75 11.4762 1.75Z" fill="#C7C7CC"/>
</svg>
