<svg width="24" height="24" viewBox="0 0 24 24" fill="none" xmlns="http://www.w3.org/2000/svg">
<rect width="24" height="24" rx="5" fill="#EEFFFE"/>
<path fill-rule="evenodd" clip-rule="evenodd" d="M12 3C9.90135 3 8.20006 4.78045 8.20006 6.97674C8.20006 9.17304 9.90135 10.9535 12 10.9535C14.0986 10.9535 15.7999 9.17304 15.7999 6.97674C15.7999 4.78045 14.0986 3 12 3ZM9.40004 6.97674C9.40004 5.47402 10.5641 4.25581 12 4.25581C13.4359 4.25581 14.6 5.47402 14.6 6.97674C14.6 8.47947 13.4359 9.69767 12 9.69767C10.5641 9.69767 9.40004 8.47947 9.40004 6.97674Z" fill="#079893"/>
<path fill-rule="evenodd" clip-rule="evenodd" d="M12 12.2093C10.1492 12.2093 8.44399 12.6496 7.18043 13.3934C5.93568 14.1262 5.00011 15.2367 5.00011 16.6047L5.00005 16.69C4.99915 17.6627 4.99802 18.8835 6.02122 19.7555C6.52479 20.1847 7.22925 20.4898 8.18103 20.6915C9.13545 20.8936 10.3794 21 12 21C13.6206 21 14.8645 20.8936 15.819 20.6915C16.7707 20.4898 17.4752 20.1847 17.9788 19.7555C19.002 18.8835 19.0008 17.6627 18.9999 16.69L18.9999 16.6047C18.9999 15.2367 18.0643 14.1262 16.8196 13.3934C15.556 12.6496 13.8508 12.2093 12 12.2093ZM6.20009 16.6047C6.20009 15.8919 6.69718 15.1187 7.76874 14.4879C8.82149 13.8682 10.3162 13.4651 12 13.4651C13.6838 13.4651 15.1785 13.8682 16.2313 14.4879C17.3028 15.1187 17.7999 15.8919 17.7999 16.6047C17.7999 17.6996 17.7677 18.3159 17.2211 18.7817C16.9246 19.0344 16.4291 19.2809 15.5809 19.4606C14.7354 19.6397 13.5794 19.7442 12 19.7442C10.4206 19.7442 9.26463 19.6397 8.41909 19.4606C7.57089 19.2809 7.07537 19.0344 6.77895 18.7817C6.23234 18.3159 6.20009 17.6996 6.20009 16.6047Z" fill="#079893"/>
</svg>
