<svg width="187" height="170" viewBox="0 0 187 170" fill="none" xmlns="http://www.w3.org/2000/svg">
<path d="M40.8903 168.611C43.7159 168.611 46.5415 168.611 49.3671 168.611C49.6687 168.611 49.6687 168.134 49.3671 168.134C46.5415 168.134 43.7159 168.134 40.8903 168.134C40.5887 168.134 40.5887 168.611 40.8903 168.611Z" fill="#161616"/>
<path d="M78.1463 168.325C80.2417 168.325 82.3371 168.325 84.4325 168.325C84.7341 168.325 84.7341 167.849 84.4325 167.849C82.3371 167.849 80.2417 167.849 78.1463 167.849C77.8288 167.849 77.8288 168.325 78.1463 168.325Z" fill="#161616"/>
<path d="M87.4811 168.039C88.7034 168.039 89.9099 168.039 91.1322 168.039C91.4338 168.039 91.4338 167.563 91.1322 167.563C89.9099 167.563 88.7034 167.563 87.4811 167.563C87.1795 167.563 87.1795 168.039 87.4811 168.039Z" fill="#161616"/>
<path fill-rule="evenodd" clip-rule="evenodd" d="M72.5277 149.006H42.3824C41.3347 149.006 40.4775 148.149 40.4775 147.101V146.117C40.4775 145.069 41.3347 144.212 42.3824 144.212H72.5277C73.5754 144.212 74.4326 145.069 74.4326 146.117V147.101C74.4326 148.149 73.5754 149.006 72.5277 149.006Z" stroke="#161616" stroke-width="0.317485"/>
<path fill-rule="evenodd" clip-rule="evenodd" d="M75.4798 154.054H45.3346C44.2869 154.054 43.4297 153.197 43.4297 152.149V151.165C43.4297 150.117 44.2869 149.26 45.3346 149.26H75.4798C76.5275 149.26 77.3847 150.117 77.3847 151.165V152.149C77.3847 153.197 76.5275 154.054 75.4798 154.054Z" stroke="#161616" stroke-width="0.317485"/>
<path fill-rule="evenodd" clip-rule="evenodd" d="M68.5267 158.975H38.3815C37.3338 158.975 36.4766 158.117 36.4766 157.07V156.086C36.4766 155.038 37.3338 154.181 38.3815 154.181H68.5267C69.5744 154.181 70.4316 155.038 70.4316 156.086V157.07C70.4316 158.117 69.5744 158.975 68.5267 158.975Z" stroke="#161616" stroke-width="0.317485"/>
<path fill-rule="evenodd" clip-rule="evenodd" d="M72.21 163.61H42.0807C41.033 163.61 40.1758 162.753 40.1758 161.705V160.721C40.1758 159.673 41.033 158.816 42.0807 158.816H72.2259C73.2736 158.816 74.1308 159.673 74.1308 160.721V161.705C74.1149 162.753 73.2577 163.61 72.21 163.61Z" stroke="#161616" stroke-width="0.317485"/>
<path fill-rule="evenodd" clip-rule="evenodd" d="M75.4798 168.404H45.3346C44.2869 168.404 43.4297 167.547 43.4297 166.499V165.515C43.4297 164.468 44.2869 163.61 45.3346 163.61H75.4798C76.5275 163.61 77.3847 164.468 77.3847 165.515V166.499C77.3847 167.547 76.5275 168.404 75.4798 168.404Z" stroke="#161616" stroke-width="0.317485"/>
<path d="M63.7168 146.275C63.7168 146.926 63.7168 147.593 63.7168 148.244C63.7168 148.466 64.0819 148.482 64.0819 148.244C64.0819 147.593 64.0819 146.926 64.0819 146.275C64.066 146.037 63.7168 146.037 63.7168 146.275Z" fill="#161616"/>
<path d="M64.7803 146.625C64.7803 147.228 64.7803 147.815 64.7803 148.418C64.7803 148.641 65.1454 148.657 65.1454 148.418C65.1454 147.815 65.1454 147.228 65.1454 146.625C65.1454 146.402 64.7803 146.402 64.7803 146.625Z" fill="#161616"/>
<path d="M68.3682 145.64C68.3682 146.482 68.3682 147.307 68.3682 148.148C68.3682 148.371 68.7333 148.387 68.7333 148.148C68.7333 147.307 68.7333 146.482 68.7333 145.64C68.7333 145.418 68.3682 145.418 68.3682 145.64Z" fill="#161616"/>
<path d="M69.083 147.069C69.083 147.402 69.083 147.72 69.083 148.053C69.083 148.275 69.4481 148.291 69.4481 148.053C69.4481 147.72 69.4481 147.402 69.4481 147.069C69.4481 146.847 69.083 146.847 69.083 147.069Z" fill="#161616"/>
<path d="M44.4453 145.577C44.4453 146.498 44.4453 147.418 44.4453 148.355C44.4453 148.577 44.8104 148.593 44.8104 148.355C44.8104 147.434 44.8104 146.514 44.8104 145.577C44.7945 145.339 44.4453 145.339 44.4453 145.577Z" fill="#161616"/>
<path d="M42.9697 146.276C42.9697 146.815 42.9697 147.371 42.9697 147.911C42.9697 148.133 43.3348 148.149 43.3348 147.911C43.3348 147.371 43.3348 146.815 43.3348 146.276C43.3348 146.053 42.9697 146.053 42.9697 146.276Z" fill="#161616"/>
<path d="M48.9062 145.688C48.9062 146.434 48.9062 147.181 48.9062 147.911C48.9062 148.133 49.2714 148.149 49.2714 147.911C49.2714 147.165 49.2714 146.419 49.2714 145.688C49.2555 145.45 48.9062 145.45 48.9062 145.688Z" fill="#161616"/>
<path d="M47.2715 146.99C47.2715 147.482 47.2715 147.974 47.2715 148.466C47.2715 148.688 47.6366 148.704 47.6366 148.466C47.6366 147.974 47.6366 147.482 47.6366 146.99C47.6207 146.752 47.2715 146.752 47.2715 146.99Z" fill="#161616"/>
<path d="M55.5898 145.736C55.5898 146.704 55.5898 147.656 55.5898 148.625C55.5898 148.847 55.955 148.863 55.955 148.625C55.955 147.656 55.955 146.704 55.955 145.736C55.955 145.513 55.5898 145.513 55.5898 145.736Z" fill="#161616"/>
<path d="M56.6846 146.831C56.6846 147.323 56.6846 147.815 56.6846 148.307C56.6846 148.529 57.0497 148.545 57.0497 148.307C57.0497 147.815 57.0497 147.323 57.0497 146.831C57.0338 146.593 56.6846 146.593 56.6846 146.831Z" fill="#161616"/>
<path d="M58.3037 145.513C58.3037 146.482 58.3037 147.434 58.3037 148.402C58.3037 148.625 58.6688 148.641 58.6688 148.402C58.6688 147.434 58.6688 146.482 58.6688 145.513C58.6688 145.291 58.3037 145.291 58.3037 145.513Z" fill="#161616"/>
<path d="M47.7002 150.355C47.7002 151.498 47.7002 152.641 47.7002 153.784C47.7002 154.006 48.0653 154.022 48.0653 153.784C48.0653 152.641 48.0653 151.498 48.0653 150.355C48.0653 150.133 47.7002 150.133 47.7002 150.355Z" fill="#161616"/>
<path d="M49.668 151.498C49.668 152.308 49.668 153.133 49.668 153.943C49.668 154.165 50.0331 154.181 50.0331 153.943C50.0331 153.133 50.0331 152.308 50.0331 151.498C50.0172 151.276 49.668 151.276 49.668 151.498Z" fill="#161616"/>
<path d="M56.0342 150.847C56.0342 151.657 56.0342 152.482 56.0342 153.292C56.0342 153.514 56.3993 153.53 56.3993 153.292C56.3993 152.482 56.3993 151.657 56.3993 150.847C56.3834 150.625 56.0342 150.625 56.0342 150.847Z" fill="#161616"/>
<path d="M60.1611 149.974C60.1611 151.292 60.1611 152.625 60.1611 153.943C60.1611 154.165 60.5262 154.181 60.5262 153.943C60.5262 152.625 60.5262 151.292 60.5262 149.974C60.5104 149.752 60.1611 149.752 60.1611 149.974Z" fill="#161616"/>
<path d="M63.9072 151.561C63.9072 151.99 63.9072 152.434 63.9072 152.863C63.9072 153.085 64.2723 153.101 64.2723 152.863C64.2723 152.434 64.2723 151.99 64.2723 151.561C64.2723 151.323 63.9072 151.323 63.9072 151.561Z" fill="#161616"/>
<path d="M40.1914 155.53C40.1914 156.578 40.1914 157.626 40.1914 158.689C40.1914 158.911 40.5565 158.927 40.5565 158.689C40.5565 157.641 40.5565 156.594 40.5565 155.53C40.5565 155.292 40.1914 155.292 40.1914 155.53Z" fill="#161616"/>
<path d="M48.5732 155.641C48.5732 156.737 48.5732 157.816 48.5732 158.912C48.5732 159.134 48.9383 159.15 48.9383 158.912C48.9383 157.816 48.9383 156.737 48.9383 155.641C48.9383 155.403 48.5732 155.403 48.5732 155.641Z" fill="#161616"/>
<path d="M45.0967 155.911C45.0967 156.641 45.0967 157.356 45.0967 158.086C45.0967 158.308 45.4618 158.324 45.4618 158.086C45.4618 157.356 45.4618 156.641 45.4618 155.911C45.4459 155.673 45.0967 155.673 45.0967 155.911Z" fill="#161616"/>
<path d="M46.2871 155.197C46.2871 155.8 46.2871 156.388 46.2871 156.991C46.2871 157.213 46.6522 157.229 46.6522 156.991C46.6522 156.388 46.6522 155.8 46.6522 155.197C46.6522 154.975 46.2871 154.975 46.2871 155.197Z" fill="#161616"/>
<path d="M57.8281 155.26C57.8281 156.371 57.8281 157.467 57.8281 158.578C57.8281 158.8 58.1932 158.816 58.1932 158.578C58.1932 157.467 58.1932 156.371 58.1932 155.26C58.1774 155.022 57.8281 155.022 57.8281 155.26Z" fill="#161616"/>
<path d="M54.8271 155.197C54.8271 155.467 54.8271 155.737 54.8271 156.007C54.8271 156.229 55.1923 156.245 55.1923 156.007C55.1923 155.737 55.1923 155.467 55.1923 155.197C55.1923 154.975 54.8271 154.975 54.8271 155.197Z" fill="#161616"/>
<path d="M64.9395 154.228C64.9395 155.276 64.9395 156.324 64.9395 157.387C64.9395 157.61 65.3046 157.625 65.3046 157.387C65.3046 156.34 65.3046 155.292 65.3046 154.228C65.3046 153.99 64.9395 153.99 64.9395 154.228Z" fill="#161616"/>
<path d="M66.5264 156.498C66.5264 157.133 66.5264 157.768 66.5264 158.403C66.5264 158.625 66.8915 158.641 66.8915 158.403C66.8915 157.768 66.8915 157.133 66.8915 156.498C66.8756 156.276 66.5264 156.276 66.5264 156.498Z" fill="#161616"/>
<path d="M60.8125 155.197C60.8125 156.118 60.8125 157.038 60.8125 157.975C60.8125 158.197 61.1776 158.213 61.1776 157.975C61.1776 157.054 61.1776 156.134 61.1776 155.197C61.1776 154.975 60.8125 154.975 60.8125 155.197Z" fill="#161616"/>
<path d="M43.2393 159.34C43.2393 160.515 43.2393 161.69 43.2393 162.88C43.2393 163.102 43.6044 163.118 43.6044 162.88C43.6044 161.705 43.6044 160.531 43.6044 159.34C43.6044 159.102 43.2393 159.102 43.2393 159.34Z" fill="#161616"/>
<path d="M46.0018 163.515C46.0018 162.34 46.0018 161.165 46.0018 159.975C46.0018 159.753 45.6367 159.737 45.6367 159.975C45.6367 161.15 45.6367 162.324 45.6367 163.515C45.6367 163.753 46.0018 163.753 46.0018 163.515Z" fill="#161616"/>
<path d="M47.1444 163.42C47.1444 162.959 47.1444 162.515 47.1444 162.055C47.1444 161.832 46.7793 161.816 46.7793 162.055C46.7793 162.515 46.7793 162.959 46.7793 163.42C46.7793 163.642 47.1444 163.642 47.1444 163.42Z" fill="#161616"/>
<path d="M49.668 159.07C49.668 160.308 49.668 161.531 49.668 162.769C49.668 162.991 50.0331 163.007 50.0331 162.769C50.0331 161.531 50.0331 160.308 50.0331 159.07C50.0172 158.832 49.668 158.832 49.668 159.07Z" fill="#161616"/>
<path d="M50.5889 160.8C50.5889 161.388 50.5889 161.959 50.5889 162.547C50.5889 162.769 50.954 162.785 50.954 162.547C50.954 161.959 50.954 161.388 50.954 160.8C50.9381 160.578 50.5889 160.578 50.5889 160.8Z" fill="#161616"/>
<path d="M51.8428 160.15C51.8428 160.785 51.8428 161.42 51.8428 162.055C51.8428 162.277 52.2079 162.293 52.2079 162.055C52.2079 161.42 52.2079 160.785 52.2079 160.15C52.192 159.927 51.8428 159.927 51.8428 160.15Z" fill="#161616"/>
<path d="M55.9229 159.07C55.9229 160.356 55.9229 161.642 55.9229 162.928C55.9229 163.15 56.288 163.166 56.288 162.928C56.288 161.642 56.288 160.356 56.288 159.07C56.2721 158.832 55.9229 158.832 55.9229 159.07Z" fill="#161616"/>
<path d="M60.0498 160.483C60.0498 161.197 60.0498 161.896 60.0498 162.61C60.0498 162.832 60.4149 162.848 60.4149 162.61C60.4149 161.896 60.4149 161.197 60.4149 160.483C60.4149 160.245 60.0498 160.245 60.0498 160.483Z" fill="#161616"/>
<path d="M65.7012 158.959C65.7012 160.324 65.7012 161.673 65.7012 163.039C65.7012 163.261 66.0663 163.277 66.0663 163.039C66.0663 161.673 66.0663 160.324 66.0663 158.959C66.0663 158.721 65.7012 158.721 65.7012 158.959Z" fill="#161616"/>
<path d="M67.4473 160.959C67.4473 161.61 67.4473 162.261 67.4473 162.912C67.4473 163.134 67.8124 163.15 67.8124 162.912C67.8124 162.261 67.8124 161.61 67.8124 160.959C67.8124 160.737 67.4473 160.737 67.4473 160.959Z" fill="#161616"/>
<path d="M70.4473 159.165C70.4473 160.181 70.4473 161.197 70.4473 162.213C70.4473 162.435 70.8124 162.451 70.8124 162.213C70.8124 161.197 70.8124 160.181 70.8124 159.165C70.7965 158.943 70.4473 158.943 70.4473 159.165Z" fill="#161616"/>
<path d="M47.6844 168.261C47.6844 167.087 47.6844 165.912 47.6844 164.722C47.6844 164.499 47.3193 164.483 47.3193 164.722C47.3193 165.896 47.3193 167.071 47.3193 168.261C47.3193 168.484 47.6844 168.484 47.6844 168.261Z" fill="#161616"/>
<path d="M48.9862 168.198C48.9862 167.595 48.9862 167.007 48.9862 166.404C48.9862 166.182 48.6211 166.166 48.6211 166.404C48.6211 167.007 48.6211 167.595 48.6211 168.198C48.637 168.436 48.9862 168.436 48.9862 168.198Z" fill="#161616"/>
<path d="M52.6523 164.071C52.6523 165.436 52.6523 166.785 52.6523 168.15C52.6523 168.373 53.0175 168.388 53.0175 168.15C53.0175 166.785 53.0175 165.436 53.0175 164.071C53.0175 163.833 52.6523 163.833 52.6523 164.071Z" fill="#161616"/>
<path d="M55.9229 164.722C55.9229 165.563 55.9229 166.388 55.9229 167.23C55.9229 167.452 56.288 167.468 56.288 167.23C56.288 166.388 56.288 165.563 56.288 164.722C56.2721 164.483 55.9229 164.483 55.9229 164.722Z" fill="#161616"/>
<path d="M54.7803 165.213C54.7803 165.547 54.7803 165.864 54.7803 166.197C54.7803 166.42 55.1454 166.436 55.1454 166.197C55.1454 165.864 55.1454 165.547 55.1454 165.213C55.1295 164.975 54.7803 164.975 54.7803 165.213Z" fill="#161616"/>
<path d="M61.8438 163.689C61.8438 165.102 61.8438 166.515 61.8438 167.928C61.8438 168.15 62.2089 168.166 62.2089 167.928C62.2089 166.515 62.2089 165.102 62.2089 163.689C62.2089 163.451 61.8438 163.451 61.8438 163.689Z" fill="#161616"/>
<path d="M63.209 165.531C63.209 166.166 63.209 166.801 63.209 167.436C63.209 167.658 63.5741 167.674 63.5741 167.436C63.5741 166.801 63.5741 166.166 63.5741 165.531C63.5582 165.309 63.209 165.309 63.209 165.531Z" fill="#161616"/>
<path d="M66.6855 163.896C66.6855 165.213 66.6855 166.547 66.6855 167.864C66.6855 168.086 67.0507 168.102 67.0507 167.864C67.0507 166.547 67.0507 165.213 67.0507 163.896C67.0507 163.673 66.6855 163.673 66.6855 163.896Z" fill="#161616"/>
<path d="M73.0039 164.229C73.0039 165.372 73.0039 166.515 73.0039 167.658C73.0039 167.88 73.369 167.896 73.369 167.658C73.369 166.515 73.369 165.372 73.369 164.229C73.3531 164.007 73.0039 164.007 73.0039 164.229Z" fill="#161616"/>
<path d="M73.9717 165.705C73.9717 166.245 73.9717 166.801 73.9717 167.34C73.9717 167.563 74.3368 167.579 74.3368 167.34C74.3368 166.801 74.3368 166.245 74.3368 165.705C74.3368 165.467 73.9717 165.467 73.9717 165.705Z" fill="#161616"/>
<path d="M69.9081 153.689C69.9081 152.847 69.9081 151.99 69.9081 151.149C69.9081 150.927 69.543 150.911 69.543 151.149C69.543 151.99 69.543 152.847 69.543 153.689C69.5588 153.911 69.9081 153.927 69.9081 153.689Z" fill="#161616"/>
<path d="M72.0986 150.117C72.0986 151.26 72.0986 152.387 72.0986 153.53C72.0986 153.752 72.4637 153.768 72.4637 153.53C72.4637 152.387 72.4637 151.26 72.4637 150.117C72.4479 149.895 72.0986 149.879 72.0986 150.117Z" fill="#161616"/>
<path d="M73.75 143.323C74.6231 143.831 75.0993 144.783 75.02 145.783C75.0041 146.006 75.3533 146.006 75.3851 145.783C75.4803 144.656 74.9247 143.593 73.9405 143.021C73.7341 142.894 73.5436 143.196 73.75 143.323Z" fill="#161616"/>
<path d="M37.3978 155.117C36.9691 155.816 36.8898 156.641 37.1755 157.403C37.2549 157.609 37.6041 157.53 37.5247 157.308C37.2708 156.625 37.3343 155.927 37.7152 155.292C37.8264 155.101 37.5247 154.911 37.3978 155.117Z" fill="#161616"/>
<path d="M35.6038 153.324C34.6831 154.482 34.2227 155.863 34.2545 157.34C34.2545 157.562 34.6196 157.578 34.6196 157.34C34.5878 155.959 35.0164 154.657 35.8736 153.562C36.0006 153.403 35.7466 153.149 35.6038 153.324Z" fill="#161616"/>
<path d="M73.5908 158.387C74.2258 158.721 74.6227 159.356 74.6227 160.086C74.6227 160.308 74.9878 160.324 74.9878 160.086C74.9878 159.245 74.5274 158.467 73.7813 158.086C73.575 157.975 73.3845 158.276 73.5908 158.387Z" fill="#161616"/>
<path opacity="0.15" d="M57.1296 144.593C58.098 144.466 60.368 144.307 62.5269 145.609C63.146 145.974 63.6222 146.387 64.0191 146.784C63.9714 147.514 63.9079 148.244 63.8603 148.974C61.5268 149.07 59.2092 149.165 56.8757 149.244C57.1931 149.26 59.733 149.403 61.1141 151.467C61.7173 152.371 61.8602 153.276 61.8919 153.816C61.8125 154.387 61.5586 155.61 60.6379 156.784C59.5267 158.197 58.1297 158.721 57.59 158.896C57.844 159.023 59.0504 159.705 59.4632 161.166C59.7013 162.023 59.5584 162.769 59.4632 163.118C57.9234 164.785 56.3836 166.452 54.8438 168.135C61.9078 168.214 68.9877 168.293 76.0518 168.373C76.3216 168.23 76.8296 167.896 77.1471 167.277C77.6709 166.261 77.4169 165.039 76.8296 164.309C75.7184 162.896 73.1944 163.388 72.9086 163.452C72.988 163.404 74.2738 162.436 74.1627 160.864C74.0833 159.737 73.3055 159.054 73.1468 158.912C72.0197 158.832 70.9085 158.753 69.7814 158.673C69.8925 158.562 70.7339 157.642 70.5593 156.324C70.4164 155.308 69.7338 154.451 68.7655 154.054C70.2735 154.038 71.5752 154.006 72.607 153.975C75.6073 153.895 76.2899 153.848 76.8296 153.276C77.5598 152.482 77.7979 150.943 77.0677 149.99C76.6708 149.482 76.1311 149.292 75.8136 149.212C74.6389 149.165 73.4642 149.101 72.2896 149.054C72.4642 149.054 73.3055 149.07 73.9405 148.435C74.5596 147.8 74.5119 146.958 74.4961 146.561C74.4802 146.307 74.385 145.26 73.6389 144.609C72.861 143.926 71.8609 144.117 70.0354 144.212C68.6067 144.291 67.1622 144.149 65.7335 144.212C62.7491 144.339 59.733 144.482 57.1296 144.593Z" fill="#3D3D3D"/>
<path d="M79.1471 164.182C90.0845 164.182 101.038 164.182 111.975 164.182C115.086 164.182 118.214 164.182 121.325 164.182C121.627 164.182 121.627 163.706 121.325 163.706C110.388 163.706 99.4344 163.706 88.497 163.706C85.3857 163.706 82.2585 163.706 79.1471 163.706C78.8455 163.706 78.8455 164.182 79.1471 164.182Z" fill="#CFCFCF"/>
<path d="M125.754 164.579C133.087 164.007 140.405 163.848 147.755 164.468C148.057 164.499 148.057 164.023 147.755 163.991C140.405 163.372 133.103 163.531 125.754 164.102C125.452 164.118 125.452 164.595 125.754 164.579Z" fill="#CFCFCF"/>
<path d="M145.629 167.086C149.581 167.436 153.502 166.452 157.439 166.198C161.487 165.944 165.551 166.198 169.551 166.912C169.853 166.959 169.98 166.499 169.678 166.452C165.741 165.753 161.741 165.483 157.741 165.705C153.709 165.928 149.676 166.975 145.629 166.61C145.327 166.579 145.327 167.055 145.629 167.086Z" fill="#CFCFCF"/>
<path d="M148.104 163.88C146.453 162.61 144.914 161.182 143.548 159.61C143.247 159.261 142.961 158.912 142.675 158.562C142.469 158.308 142.247 158.038 142.104 157.753C141.913 157.372 141.993 157.102 141.993 156.673C141.993 155.927 141.564 155.959 141.072 155.451C140.326 154.673 140.215 153.546 139.993 152.546C139.786 151.609 139.405 150.784 138.977 149.943C137.977 147.927 137.516 145.625 136.913 143.466C136.865 143.561 136.802 143.656 136.754 143.752C138.85 143.466 141.12 145.037 142.787 146.18C143.644 146.768 144.453 147.403 145.231 148.085C146.009 148.784 147.2 149.768 146.771 150.943C146.707 151.101 146.866 151.244 146.993 151.244C148.295 151.292 149.279 152.594 149.978 153.562C150.66 154.483 151.216 155.499 151.628 156.562C152.454 158.705 152.708 161.039 152.343 163.309C152.295 163.61 152.756 163.737 152.803 163.436C153.216 160.896 152.898 158.292 151.867 155.911C151.359 154.752 150.692 153.657 149.882 152.673C149.136 151.768 148.231 150.8 146.977 150.752C147.057 150.847 147.136 150.959 147.2 151.054C147.565 150.07 146.993 149.165 146.326 148.466C145.469 147.561 144.469 146.784 143.453 146.069C141.58 144.736 139.024 142.942 136.596 143.291C136.469 143.307 136.405 143.466 136.437 143.577C137.056 145.784 137.516 148.101 138.548 150.165C139.072 151.228 139.421 152.228 139.675 153.387C139.85 154.245 140.104 155.133 140.739 155.784C141.009 156.07 141.485 156.229 141.532 156.642C141.564 157.023 141.437 157.292 141.58 157.705C141.882 158.546 142.66 159.308 143.231 159.959C144.628 161.563 146.199 163.007 147.882 164.309C148.104 164.468 148.342 164.055 148.104 163.88Z" fill="#CFCFCF"/>
<path d="M150.819 153.419C151.375 151.371 153.026 149.593 154.327 147.974C154.677 147.545 155.01 147.133 155.359 146.72C155.645 146.371 156.01 145.72 156.502 145.64C156.708 145.609 156.804 145.736 157.026 145.593C157.264 145.45 157.359 145.164 157.486 144.942C158.439 143.212 159.963 141.958 161.566 140.831C162.82 139.942 164.058 139.053 164.677 137.592C164.519 137.545 164.376 137.513 164.217 137.465C163.566 139.878 163.566 142.275 163.979 144.736C164.407 147.291 164.503 149.768 163.804 152.308C162.471 157.149 158.804 160.403 155.073 163.483C154.835 163.674 155.169 164.007 155.407 163.816C159.058 160.8 162.661 157.61 164.106 152.943C164.788 150.72 164.979 148.371 164.661 146.069C164.471 144.704 164.169 143.37 164.122 141.973C164.074 140.481 164.265 139.005 164.661 137.576C164.741 137.275 164.312 137.179 164.201 137.449C163.471 139.195 161.677 140.084 160.248 141.18C159.518 141.735 158.836 142.354 158.217 143.037C157.947 143.339 157.693 143.672 157.47 144.005C157.296 144.275 157.026 145.005 156.74 145.101C156.55 145.164 156.343 145.053 156.121 145.148C155.804 145.275 155.597 145.656 155.391 145.894C154.692 146.736 153.994 147.561 153.327 148.418C152.168 149.879 150.851 151.435 150.343 153.26C150.279 153.593 150.74 153.72 150.819 153.419Z" fill="#CFCFCF"/>
<path d="M138.723 146.196C140.152 147.212 141.231 148.577 142.295 149.958C143.422 151.387 144.533 152.831 145.581 154.324C147.597 157.181 149.359 160.245 150.296 163.642C150.375 163.943 150.835 163.816 150.756 163.515C149.788 159.991 147.946 156.816 145.835 153.863C144.803 152.419 143.724 151.022 142.628 149.625C141.533 148.212 140.422 146.831 138.946 145.799C138.707 145.609 138.469 146.021 138.723 146.196Z" fill="#CFCFCF"/>
<path d="M162.535 141.577C160.011 148.212 154.185 153.165 152.518 160.181C152.454 160.483 152.899 160.61 152.978 160.308C154.629 153.292 160.471 148.339 162.995 141.704C163.106 141.418 162.646 141.291 162.535 141.577Z" fill="#CFCFCF"/>
<path d="M158.629 142.704C158.867 144.91 158.724 147.101 158.201 149.244C158.121 149.546 158.582 149.673 158.661 149.371C159.185 147.18 159.344 144.942 159.105 142.704C159.074 142.402 158.597 142.402 158.629 142.704Z" fill="#CFCFCF"/>
<path d="M160.074 147.196C161.566 146.26 162.979 145.212 164.312 144.053C164.55 143.847 164.201 143.513 163.979 143.72C162.677 144.847 161.296 145.879 159.836 146.783C159.566 146.958 159.804 147.371 160.074 147.196Z" fill="#CFCFCF"/>
<path d="M138.897 150.371C139.993 150.339 141.532 150.022 142.532 150.546C142.802 150.689 143.04 150.276 142.771 150.133C141.644 149.53 140.12 149.847 138.897 149.895C138.58 149.911 138.58 150.387 138.897 150.371Z" fill="#CFCFCF"/>
<path d="M144.898 147.958C144.707 149.498 144.739 151.006 144.961 152.546C145.009 152.847 145.469 152.72 145.421 152.419C145.199 150.927 145.199 149.45 145.374 147.958C145.421 147.657 144.945 147.657 144.898 147.958Z" fill="#CFCFCF"/>
<path d="M135.135 169.579C137.707 169.722 140.247 169.15 142.819 169.198C145.279 169.246 147.676 169.896 150.137 169.5C150.438 169.452 150.311 168.992 150.01 169.039C147.501 169.452 145.025 168.722 142.517 168.722C140.056 168.722 137.612 169.246 135.135 169.103C134.834 169.071 134.834 169.547 135.135 169.579Z" fill="#CFCFCF"/>
<path d="M164.884 163.61C166.725 163.356 168.583 163.277 170.44 163.356C172.265 163.435 174.075 163.658 175.917 163.499C177.71 163.356 179.488 163.07 181.298 163.086C183.123 163.102 184.933 163.308 186.743 163.547C187.044 163.578 187.044 163.102 186.743 163.07C184.933 162.848 183.123 162.626 181.298 162.61C179.393 162.594 177.52 162.912 175.615 163.039C173.789 163.166 171.98 162.927 170.154 162.864C168.345 162.8 166.551 162.912 164.773 163.15C164.455 163.197 164.582 163.658 164.884 163.61Z" fill="#CFCFCF"/>
<path d="M0.172459 166.658C5.09348 167.341 9.96687 166.245 14.872 165.912C17.4754 165.737 20.0312 165.928 22.6345 166.166C25.2379 166.404 27.8413 166.515 30.4605 166.531C33.4449 166.547 36.4451 166.468 39.4295 166.372C39.7311 166.356 39.7311 165.88 39.4295 165.896C36.08 165.991 32.7147 166.087 29.3652 166.039C26.0792 165.991 22.8409 165.626 19.5708 165.42C13.1258 164.991 6.72853 167.087 0.299453 166.198C-0.00215797 166.166 -0.129152 166.61 0.172459 166.658Z" fill="#CFCFCF"/>
<path d="M27.9684 169.341C29.8257 169.341 31.6671 168.896 33.5085 168.753C35.3817 168.61 37.2548 168.579 39.128 168.658C39.4296 168.674 39.4296 168.198 39.128 168.182C37.2548 168.102 35.3817 168.118 33.5085 168.277C31.6671 168.42 29.8098 168.864 27.9684 168.864C27.6668 168.864 27.6668 169.341 27.9684 169.341Z" fill="#CFCFCF"/>
<path d="M17.8877 66.5382C17.8877 78.9201 17.8877 91.3021 17.8877 103.668C17.8877 116.034 17.8877 128.432 17.8877 140.798C17.8877 147.783 17.8877 154.767 17.8877 161.752C17.8877 162.054 18.3639 162.054 18.3639 161.752C18.3639 149.37 18.3639 136.988 18.3639 124.622C18.3639 112.256 18.3639 99.8583 18.3639 87.4922C18.3639 80.5076 18.3639 73.5229 18.3639 66.5382C18.3639 66.2366 17.8877 66.2366 17.8877 66.5382Z" fill="#CFCFCF"/>
<path d="M57.8594 60.7282C57.8594 71.348 57.8594 81.9679 57.8594 92.5878C57.8594 103.208 57.8594 113.828 57.8594 124.447C57.8594 130.464 57.8594 136.496 57.8594 142.512C57.8594 142.814 58.3356 142.814 58.3356 142.512C58.3356 131.892 58.3356 121.273 58.3356 110.653C58.3356 100.033 58.3356 89.4129 58.3356 78.7931C58.3356 72.7767 58.3356 66.7445 58.3356 60.7282C58.3356 60.4266 57.8594 60.4266 57.8594 60.7282Z" fill="#CFCFCF"/>
<path d="M58.8114 106.081C67.8121 109.827 76.8287 113.542 85.877 117.193C86.1627 117.304 86.2897 116.844 86.004 116.733C76.9557 113.082 67.9391 109.367 58.9384 105.621C58.6527 105.51 58.5415 105.97 58.8114 106.081Z" fill="#CFCFCF"/>
<path d="M84.0195 116.876C84.0195 128.813 84.0195 140.766 84.0195 152.704C84.0195 156.085 84.0195 159.466 84.0195 162.847C84.0195 163.149 84.4958 163.149 84.4958 162.847C84.4958 150.91 84.4958 138.957 84.4958 127.019C84.4958 123.638 84.4958 120.257 84.4958 116.876C84.4958 116.574 84.0195 116.574 84.0195 116.876Z" fill="#CFCFCF"/>
<path d="M127.388 162.673C127.388 152.672 127.388 142.687 127.388 132.686C127.388 132.385 126.912 132.385 126.912 132.686C126.912 142.687 126.912 152.672 126.912 162.673C126.912 162.974 127.388 162.974 127.388 162.673Z" fill="#CFCFCF"/>
<path d="M122.959 133.766C132.659 129.591 142.389 125.4 151.612 120.225C154.248 118.749 156.851 117.177 159.391 115.511C159.645 115.336 159.407 114.923 159.153 115.098C150.295 120.892 140.739 125.464 131.087 129.718C128.309 130.94 125.515 132.147 122.737 133.337C122.436 133.48 122.69 133.877 122.959 133.766Z" fill="#CFCFCF"/>
<path d="M135.198 127.606C135.198 114.78 135.198 101.938 135.198 89.1113C135.198 85.4602 135.198 81.825 135.198 78.174C135.198 77.8724 134.722 77.8724 134.722 78.174C134.722 91.0004 134.722 103.843 134.722 116.669C134.722 120.32 134.722 123.955 134.722 127.606C134.722 127.908 135.198 127.908 135.198 127.606Z" fill="#CFCFCF"/>
<path d="M132.421 79.1427C144.247 79.1427 156.073 79.1427 167.9 79.1427C171.281 79.1427 174.662 79.1427 178.027 79.1427C178.329 79.1427 178.329 78.6665 178.027 78.6665C166.201 78.6665 154.375 78.6665 142.549 78.6665C139.167 78.6665 135.786 78.6665 132.421 78.6665C132.103 78.6665 132.103 79.1427 132.421 79.1427Z" fill="#CFCFCF"/>
<path d="M173.614 80.714C173.614 101.43 173.614 122.146 173.614 142.862C173.614 148.672 173.614 154.482 173.614 160.308C173.614 160.609 174.09 160.609 174.09 160.308C174.09 139.592 174.09 118.876 174.09 98.1598C174.09 92.3498 174.09 86.5399 174.09 80.714C174.09 80.4124 173.614 80.4124 173.614 80.714Z" fill="#CFCFCF"/>
<path d="M15.8554 67.062C26.9515 63.4903 38.7937 62.7124 50.3026 61.3949C53.6679 61.0139 57.0332 60.6329 60.3986 60.236C60.7002 60.2043 60.7002 59.7281 60.3986 59.7598C54.3981 60.4424 48.3818 61.1409 42.3813 61.8235C36.6825 62.4743 30.9519 63.0934 25.3165 64.1887C22.0781 64.8078 18.8715 65.6015 15.7284 66.6016C15.4427 66.6969 15.5697 67.1572 15.8554 67.062Z" fill="#CFCFCF"/>
<path d="M21.3004 78.6184C21.3004 75.9674 21.3004 73.3164 21.3004 70.6813C21.3004 70.3797 20.8242 70.3797 20.8242 70.6813C20.8242 73.3323 20.8242 75.9833 20.8242 78.6184C20.8242 78.92 21.3004 78.92 21.3004 78.6184Z" fill="#CFCFCF"/>
<path d="M20.9196 70.6496C22.4752 70.6496 24.0309 70.6496 25.5866 70.6496C25.8882 70.6496 25.8882 70.1733 25.5866 70.1733C24.0309 70.1733 22.4752 70.1733 20.9196 70.1733C20.618 70.1733 20.618 70.6496 20.9196 70.6496Z" fill="#CFCFCF"/>
<path d="M25.3643 70.5387C25.3643 73.3008 25.3643 76.0629 25.3643 78.8092C25.3643 79.1108 25.8405 79.1108 25.8405 78.8092C25.8405 76.0471 25.8405 73.285 25.8405 70.5387C25.8405 70.2371 25.3643 70.2371 25.3643 70.5387Z" fill="#CFCFCF"/>
<path d="M21.1258 79.1266C22.5068 79.1266 23.8879 79.1266 25.2689 79.1266C25.5705 79.1266 25.5705 78.6504 25.2689 78.6504C23.8879 78.6504 22.5068 78.6504 21.1258 78.6504C20.8241 78.6504 20.8083 79.1266 21.1258 79.1266Z" fill="#CFCFCF"/>
<path d="M34.6989 78.5549C34.6989 75.9039 34.6989 73.2529 34.6989 70.6178C34.6989 70.3162 34.2227 70.3162 34.2227 70.6178C34.2227 73.2688 34.2227 75.9198 34.2227 78.5549C34.2227 78.8565 34.6989 78.8565 34.6989 78.5549Z" fill="#CFCFCF"/>
<path d="M34.3338 70.5705C35.8895 70.5705 37.4452 70.5705 39.0008 70.5705C39.3025 70.5705 39.3025 70.0942 39.0008 70.0942C37.4452 70.0942 35.8895 70.0942 34.3338 70.0942C34.0163 70.0942 34.0163 70.5705 34.3338 70.5705Z" fill="#CFCFCF"/>
<path d="M38.7627 70.4752C38.7627 73.2374 38.7627 75.9995 38.7627 78.7457C38.7627 79.0473 39.2389 79.0473 39.2389 78.7457C39.2389 75.9836 39.2389 73.2215 39.2389 70.4752C39.2389 70.1736 38.7627 70.1736 38.7627 70.4752Z" fill="#CFCFCF"/>
<path d="M34.5241 79.047C35.9051 79.047 37.2862 79.047 38.6672 79.047C38.9689 79.047 38.9689 78.5708 38.6672 78.5708C37.2862 78.5708 35.9051 78.5708 34.5241 78.5708C34.2224 78.5708 34.2224 79.047 34.5241 79.047Z" fill="#CFCFCF"/>
<path d="M48.4616 78.2537C48.4616 75.6027 48.4616 72.9517 48.4616 70.3165C48.4616 70.0149 47.9854 70.0149 47.9854 70.3165C47.9854 72.9675 47.9854 75.6185 47.9854 78.2537C47.9854 78.5553 48.4616 78.5553 48.4616 78.2537Z" fill="#CFCFCF"/>
<path d="M48.0807 70.2687C49.6364 70.2687 51.1921 70.2687 52.7477 70.2687C53.0493 70.2687 53.0493 69.7925 52.7477 69.7925C51.1921 69.7925 49.6364 69.7925 48.0807 69.7925C47.7791 69.7925 47.7791 70.2687 48.0807 70.2687Z" fill="#CFCFCF"/>
<path d="M52.5254 70.1737C52.5254 72.9358 52.5254 75.6979 52.5254 78.4441C52.5254 78.7458 53.0016 78.7458 53.0016 78.4441C53.0016 75.682 53.0016 72.9199 53.0016 70.1737C53.0016 69.8562 52.5254 69.8562 52.5254 70.1737Z" fill="#CFCFCF"/>
<path d="M48.2868 78.7458C49.6678 78.7458 51.0489 78.7458 52.4299 78.7458C52.7315 78.7458 52.7315 78.2695 52.4299 78.2695C51.0489 78.2695 49.6678 78.2695 48.2868 78.2695C47.9851 78.2695 47.9851 78.7458 48.2868 78.7458Z" fill="#CFCFCF"/>
<path d="M16.4434 100.938C16.4434 111.399 16.4434 121.844 16.4434 132.305C16.4434 132.607 16.9196 132.607 16.9196 132.305C16.9196 121.844 16.9196 111.399 16.9196 100.938C16.9196 100.62 16.4434 100.62 16.4434 100.938Z" fill="#CFCFCF"/>
<path d="M19.7764 134.305C19.7764 139.163 19.7764 144.004 19.7764 148.862C19.7764 149.164 20.2526 149.164 20.2526 148.862C20.2526 144.004 20.2526 139.163 20.2526 134.305C20.2526 134.004 19.7764 134.004 19.7764 134.305Z" fill="#CFCFCF"/>
<path d="M14.3476 65.697C19.4591 63.9191 24.65 62.4587 29.9361 61.3316C30.2378 61.2681 30.1108 60.8077 29.8091 60.8712C24.523 61.9983 19.3163 63.4587 14.2206 65.2366C13.9349 65.3319 14.0619 65.7922 14.3476 65.697Z" fill="#CFCFCF"/>
<path d="M59.1923 108.351C64.5578 110.367 69.7804 112.764 74.9872 115.161C75.2571 115.288 75.511 114.875 75.2253 114.748C69.9709 112.335 64.7166 109.923 59.3193 107.891C59.0336 107.78 58.9066 108.24 59.1923 108.351Z" fill="#CFCFCF"/>
<path d="M62.3034 125.13C62.3034 122.479 62.3034 119.828 62.3034 117.193C62.3034 116.891 61.8271 116.891 61.8271 117.193C61.8271 119.844 61.8271 122.495 61.8271 125.13C61.8271 125.448 62.3034 125.448 62.3034 125.13Z" fill="#CFCFCF"/>
<path d="M61.9383 117.161C63.494 117.161 65.0497 117.161 66.6053 117.161C66.907 117.161 66.907 116.685 66.6053 116.685C65.0497 116.685 63.494 116.685 61.9383 116.685C61.6208 116.685 61.6208 117.161 61.9383 117.161Z" fill="#CFCFCF"/>
<path d="M66.3672 117.066C66.3672 119.828 66.3672 122.59 66.3672 125.337C66.3672 125.638 66.8434 125.638 66.8434 125.337C66.8434 122.575 66.8434 119.812 66.8434 117.066C66.8434 116.749 66.3672 116.749 66.3672 117.066Z" fill="#CFCFCF"/>
<path d="M62.1295 125.638C63.5106 125.638 64.8916 125.638 66.2727 125.638C66.5743 125.638 66.5743 125.162 66.2727 125.162C64.8916 125.162 63.5106 125.162 62.1295 125.162C61.8279 125.162 61.8279 125.638 62.1295 125.638Z" fill="#CFCFCF"/>
<path d="M129.499 133.21C139.865 129.321 149.802 124.368 159.152 118.447C159.406 118.288 159.168 117.875 158.914 118.034C149.596 123.939 139.69 128.876 129.372 132.75C129.086 132.861 129.213 133.321 129.499 133.21Z" fill="#CFCFCF"/>
<path d="M175.074 81.841C175.09 94.1276 175.106 106.398 175.106 118.685C175.106 118.987 175.582 118.987 175.582 118.685C175.566 106.398 175.55 94.1276 175.55 81.841C175.55 81.5393 175.074 81.5393 175.074 81.841Z" fill="#CFCFCF"/>
<path d="M140.691 77.5392C153.2 77.5392 165.693 77.5392 178.202 77.5392C178.504 77.5392 178.504 77.063 178.202 77.063C165.693 77.063 153.2 77.063 140.691 77.063C140.389 77.063 140.389 77.5392 140.691 77.5392Z" fill="#CFCFCF"/>
<path d="M139.801 93.3181C139.801 90.6671 139.801 88.0161 139.801 85.381C139.801 85.0794 139.325 85.0794 139.325 85.381C139.325 88.032 139.325 90.683 139.325 93.3181C139.325 93.6356 139.801 93.6356 139.801 93.3181Z" fill="#CFCFCF"/>
<path d="M139.437 85.3493C140.993 85.3493 142.548 85.3493 144.104 85.3493C144.406 85.3493 144.406 84.873 144.104 84.873C142.548 84.873 140.993 84.873 139.437 84.873C139.136 84.873 139.136 85.3493 139.437 85.3493Z" fill="#CFCFCF"/>
<path d="M143.865 85.2542C143.865 88.0163 143.865 90.7785 143.865 93.5247C143.865 93.8263 144.341 93.8263 144.341 93.5247C144.341 90.7626 144.341 88.0005 144.341 85.2542C144.341 84.9367 143.865 84.9367 143.865 85.2542Z" fill="#CFCFCF"/>
<path d="M139.643 93.8263C141.024 93.8263 142.406 93.8263 143.787 93.8263C144.088 93.8263 144.088 93.3501 143.787 93.3501C142.406 93.3501 141.024 93.3501 139.643 93.3501C139.326 93.3501 139.326 93.8263 139.643 93.8263Z" fill="#CFCFCF"/>
<path d="M161.851 93.3181C161.851 90.6671 161.851 88.0161 161.851 85.381C161.851 85.0794 161.375 85.0794 161.375 85.381C161.375 88.032 161.375 90.683 161.375 93.3181C161.375 93.6356 161.851 93.6356 161.851 93.3181Z" fill="#CFCFCF"/>
<path d="M161.47 85.3493C163.026 85.3493 164.582 85.3493 166.137 85.3493C166.439 85.3493 166.439 84.873 166.137 84.873C164.582 84.873 163.026 84.873 161.47 84.873C161.169 84.873 161.169 85.3493 161.47 85.3493Z" fill="#CFCFCF"/>
<path d="M165.915 85.2542C165.915 88.0163 165.915 90.7785 165.915 93.5247C165.915 93.8263 166.391 93.8263 166.391 93.5247C166.391 90.7626 166.391 88.0005 166.391 85.2542C166.391 84.9367 165.915 84.9367 165.915 85.2542Z" fill="#CFCFCF"/>
<path d="M161.676 93.8263C163.057 93.8263 164.439 93.8263 165.82 93.8263C166.121 93.8263 166.121 93.3501 165.82 93.3501C164.439 93.3501 163.057 93.3501 161.676 93.3501C161.375 93.3501 161.375 93.8263 161.676 93.8263Z" fill="#CFCFCF"/>
<ellipse cx="152.168" cy="21.6464" rx="9.50868" ry="9.66742" stroke="#CFCFCF" stroke-width="0.476228"/>
<path d="M141.199 58.9979C143.834 57.2041 147.041 58.3312 149.771 59.2519C151.057 59.6805 152.359 60.0774 153.708 60.2044C155.168 60.3472 156.629 60.1885 158.057 59.9028C163.724 58.7281 169.852 54.7278 175.678 57.4423C175.948 57.5692 176.202 57.1565 175.916 57.0295C171.63 55.0294 166.915 56.6009 162.724 58.0296C160.28 58.8709 157.756 59.7123 155.136 59.7758C152.454 59.8393 150.104 58.7439 147.58 58.0455C145.39 57.4264 142.913 57.2518 140.945 58.5852C140.707 58.7598 140.945 59.1725 141.199 58.9979Z" fill="#CFCFCF"/>
<path d="M22.523 50.3466C27.1107 51.6642 31.619 49.5053 35.9209 48.156C38.2703 47.4257 40.7467 46.8384 43.2231 47.1559C45.7471 47.4892 48.0488 48.6957 50.3665 49.6958C52.7159 50.7117 55.1605 51.553 57.7639 51.1403C58.0655 51.0927 57.9385 50.6323 57.6369 50.68C52.6683 51.4737 48.5092 47.5845 43.8104 46.759C39.2228 45.9494 34.8573 48.1401 30.5713 49.41C27.9838 50.172 25.301 50.6323 22.65 49.8704C22.3484 49.791 22.2214 50.2514 22.523 50.3466Z" fill="#CFCFCF"/>
<path d="M63.6051 57.236C65.3037 57.1883 66.7958 56.4264 68.3039 55.7438C69.2246 55.3311 70.1771 54.9342 71.193 54.8548C72.3201 54.7596 73.3043 55.1564 74.2726 55.6962C76.0505 56.6804 77.7015 57.5852 79.7492 57.9027C81.6859 58.2202 83.6543 58.0773 85.5433 57.5058C85.8291 57.4106 85.7179 56.9502 85.4163 57.0455C83.3209 57.6805 81.0985 57.7598 78.9555 57.2518C77.9396 57.0137 76.9554 56.6328 76.0347 56.1406C75.1616 55.6644 74.3361 55.0929 73.4154 54.7278C69.8754 53.315 67.034 56.6486 63.6051 56.7439C63.3035 56.7756 63.3035 57.2518 63.6051 57.236Z" fill="#CFCFCF"/>
<path d="M112.323 42.441C116.895 44.5682 122.022 44.473 126.88 43.5364C132.372 42.4728 137.548 40.044 143.23 40.1393C146.437 40.2028 149.612 40.9012 152.565 42.1712C152.85 42.2982 153.088 41.8854 152.803 41.7585C148.04 39.6948 142.738 39.1392 137.659 40.2028C134.881 40.7901 132.198 41.7585 129.452 42.4728C126.848 43.1395 124.181 43.6157 121.499 43.711C118.435 43.8062 115.371 43.3459 112.577 42.0442C112.292 41.9013 112.053 42.3141 112.323 42.441Z" fill="#CFCFCF"/>
<path d="M57.5575 129.703C58.0496 132.29 58.5258 134.893 59.0179 137.481C50.8268 140.449 46.8424 142.497 47.0964 143.64C47.398 145.021 53.8271 145.069 66.3995 143.799C65.8597 138.402 65.32 133.004 64.7803 127.591C62.3674 128.306 59.9545 129.004 57.5575 129.703Z" fill="#161616" stroke="#161616" stroke-width="0.476228"/>
<path d="M95.894 97.2715C92.4652 98.6844 91.0206 98.3351 86.687 99.5257C78.7022 101.716 72.924 105.812 69.3205 108.907C69.4952 114.813 69.6698 120.718 69.8444 126.623C69.4793 127.052 65.479 131.592 59.415 130.973C55.2401 130.544 52.6367 127.909 51.9382 127.147C51.8271 121.702 51.9224 115.892 52.2875 109.78C52.5097 106.24 52.7954 102.812 53.1606 99.5257C53.7003 98.7637 54.5257 97.6684 55.5893 96.3985C63.9392 86.4612 73.94 82.0481 79.3848 79.7305C84.8138 77.4129 88.2109 75.9683 93.2748 75.5556C94.6241 75.4444 108.117 74.492 110.292 79.9051C112.308 84.842 104.355 93.7951 95.894 97.2715Z" fill="white" stroke="#161616" stroke-width="0.476228"/>
<path opacity="0.16" d="M109.419 78.2383C106.403 76.1588 99.7515 85.0166 86.5124 93.3665C73.7812 101.383 67.114 101.256 63.2725 109.05C62.0978 111.416 60.8755 115.162 60.1294 118.972C59.2087 123.766 59.2087 127.861 59.415 130.766C60.4468 130.719 61.6692 130.576 62.9867 130.227C66.1775 129.385 68.4475 127.782 69.7809 126.655C69.6063 120.638 69.4158 114.622 69.2412 108.622C71.4636 106.812 75.0035 104.224 79.7817 102.018C88.7189 97.8748 92.0684 99.6527 99.434 95.4143C101.133 94.446 110.736 88.9058 110.514 81.6672C110.451 80.5084 110.435 78.9368 109.419 78.2383Z" fill="#3D3D3D"/>
<path opacity="0.25" d="M110.657 81.096C109.99 80.5562 107.403 84.1756 101.196 88.6045C93.4811 94.097 89.7665 94.0335 81.2738 99.145C78.21 100.986 73.7811 103.939 68.876 108.431C69.8284 108.019 71.3682 107.32 73.162 106.288C76.8131 104.161 77.7021 102.86 80.4801 101.463C81.4801 100.971 83.3533 100.463 87.0837 99.4942C93.6081 97.7957 94.5446 97.875 96.9099 96.8115C100.037 95.4145 102.085 93.6525 103.164 92.7C108.339 88.16 111.498 81.7627 110.657 81.096Z" fill="#3D3D3D"/>
<path opacity="0.2" d="M69.0505 108.606C67.0186 115.924 65.0026 123.258 62.9707 130.576C63.8755 130.338 64.9867 129.957 66.1932 129.322C67.9235 128.401 69.1458 127.306 69.9395 126.464C69.6379 120.512 69.3522 114.559 69.0505 108.606Z" fill="#3D3D3D"/>
<path d="M109.198 154.498C109.69 157.086 110.166 159.689 110.658 162.277C103.245 166.007 99.7207 168.325 100.038 169.23C100.435 170.325 106.42 169.373 117.976 166.388C117.452 161.721 116.944 157.054 116.42 152.387C114.008 153.102 111.611 153.8 109.198 154.498Z" fill="#161616" stroke="#161616" stroke-width="0.476228"/>
<path d="M115.547 73.8254C116.102 78.1114 116.817 84.5722 117.166 92.4617C117.69 104.637 116.928 111.416 116.801 120.416C116.69 128.306 117.055 139.624 119.309 153.578C118.087 154.387 115.324 155.991 111.419 156.26C107.705 156.514 104.863 155.435 103.53 154.832C103.181 148.069 102.562 140.878 101.561 133.322C99.72 119.4 96.942 106.86 93.8624 95.8747C91.9575 93.2396 90.0367 90.6203 88.1318 87.9852C95.0689 83.0801 101.99 78.1908 108.927 73.2856C111.118 73.4761 113.324 73.6508 115.547 73.8254Z" fill="white" stroke="#161616" stroke-width="0.476228"/>
<path d="M90.7512 89.3502C90.2591 88.6676 89.7829 87.9691 89.2908 87.2865C89.1479 87.8263 89.0051 88.366 88.8622 88.9216C91.2116 87.4612 93.5133 85.9214 95.7199 84.2387C97.5613 82.8418 99.2757 81.302 101.133 79.9368C102.308 79.0637 103.514 78.2382 104.721 77.4128C105.879 76.6349 107.054 75.6507 108.324 75.0316C109.007 74.6983 109.816 74.7459 110.546 74.7459C111.943 74.7459 113.324 74.7935 114.705 74.8729C116.229 74.9522 116.229 72.5711 114.705 72.4917C113.324 72.4282 111.927 72.3647 110.546 72.3647C109.657 72.3647 108.737 72.3647 107.895 72.6346C106.578 73.0632 105.387 74.095 104.26 74.8729C102.959 75.746 101.673 76.619 100.403 77.5398C98.4344 78.9684 96.6247 80.5717 94.7039 82.048C92.4498 83.7783 90.0845 85.3658 87.6716 86.8579C87.1636 87.1754 86.862 87.9533 87.243 88.493C87.7351 89.1756 88.2113 89.874 88.7034 90.5566C89.5765 91.7948 91.6402 90.6043 90.7512 89.3502Z" fill="white"/>
<path opacity="0.14" d="M99.7676 75.7305C102.18 82.858 104.419 90.7951 106.197 99.4783C110.626 121.21 110.705 140.545 109.419 155.737C110.181 156.007 111.149 156.245 112.276 156.276C115.848 156.372 118.42 154.308 119.245 153.594C118.547 150.085 117.642 144.831 117.102 138.418C115.928 124.528 117.404 116.654 117.642 104.844C117.785 97.6687 117.515 87.4774 115.499 75.0161C110.245 75.2542 105.006 75.4923 99.7676 75.7305Z" fill="#3D3D3D"/>
<path opacity="0.2" d="M116.023 82.3496C115.579 97.9857 114.817 114.066 113.706 130.576C113.134 139.1 112.468 147.498 111.737 155.752C112.468 155.879 113.769 156.006 115.309 155.578C117.309 155.006 118.547 153.815 119.055 153.26C117.277 142.942 116.833 134.576 116.738 128.972C116.563 118.368 117.563 112.955 117.277 100.573C117.087 92.6996 116.484 86.3182 116.023 82.3496Z" fill="#3D3D3D"/>
<path d="M51.0969 17.8526C51.3033 17.3763 49.2714 16.3921 49.4777 15.8365C49.6841 15.2651 52.2081 15.1222 53.9066 16.3763C55.6846 17.678 55.5734 19.5829 56.5894 22.0275C57.7482 24.7737 59.5737 26.2659 62.3517 28.5518C64.0185 29.9329 70.527 35.1079 79.9087 34.8221C84.163 34.6952 87.7188 33.4728 90.3539 32.187C89.9888 36.7429 89.6078 41.3147 89.2427 45.8706C87.0838 46.3627 84.1153 46.7913 80.6389 46.4897C68.003 45.3944 59.8912 35.6476 57.3831 32.6474C55.8592 30.8218 53.7796 28.0121 51.8747 24.1864C50.3826 24.6309 48.0649 25.1389 45.2869 24.8531C43.3185 24.6626 40.9691 24.0594 40.985 23.5038C41.0009 22.7736 45.0488 22.2815 45.0171 22.0275C44.9853 21.8053 41.7946 22.6783 40.985 21.4878C40.35 20.5512 41.239 18.4399 42.7312 17.5827C43.1915 17.3287 43.7154 17.17 45.0171 17.1859C48.5411 17.1859 50.9064 18.2812 51.0969 17.8526Z" fill="white" stroke="#161616" stroke-width="0.476228"/>
<path d="M40.9371 20.5833C41.7467 20.3928 42.6833 20.7897 43.5088 20.8214C44.239 20.8532 44.9692 20.7897 45.6835 20.6468C45.9852 20.5833 45.8582 20.1229 45.5566 20.1864C44.6517 20.3611 43.7469 20.4087 42.8262 20.2817C42.1277 20.1864 41.5086 19.9642 40.8102 20.1229C40.5085 20.1864 40.6355 20.6468 40.9371 20.5833Z" fill="#161616"/>
<path d="M41.6038 19.0115C42.5562 18.821 43.3975 19.2179 44.3183 19.2655C45.1278 19.3131 45.9374 19.1544 46.7311 18.948C47.0328 18.8686 46.9058 18.4083 46.6041 18.4877C45.5723 18.7575 44.5722 18.8845 43.5087 18.6623C42.7943 18.5194 42.1911 18.3924 41.4609 18.5353C41.1752 18.6147 41.3021 19.075 41.6038 19.0115Z" fill="#161616"/>
<path d="M50.3821 19.4877C51.1917 20.3449 52.2871 20.7894 53.4618 20.7576C53.7634 20.7418 53.7634 20.2655 53.4618 20.2814C52.3982 20.329 51.4457 19.9322 50.7314 19.1543C50.5091 18.9321 50.1758 19.2655 50.3821 19.4877Z" fill="#161616"/>
<path opacity="0.18" d="M40.9846 21.3612C41.0322 20.9326 44.4928 20.8215 47.6676 21.2818C49.382 21.52 51.0488 21.7581 52.6204 22.5042C56.0492 24.1075 57.1763 27.1712 58.9542 29.9809C58.9542 29.9809 62.9387 36.2195 70.0662 39.7118C77.1461 43.1724 85.2261 40.8548 89.782 39.0134C89.6074 41.2993 89.4328 43.5852 89.2582 45.8711C85.0515 46.7283 81.6861 46.5219 79.5273 46.2203C67.5104 44.5217 59.9702 35.2829 56.9699 31.616C54.5412 28.6475 52.922 25.9171 51.9378 24.0598C50.3662 24.6313 48.0327 25.2187 45.2547 24.9329C43.334 24.7266 41.0639 24.0916 41.0798 23.536C41.1116 22.8216 44.9373 22.393 44.9055 22.2343C44.8896 22.1549 43.8102 22.393 42.4767 22.0597C41.9529 21.9327 40.9687 21.5993 40.9846 21.3612Z" fill="#3D3D3D"/>
<path opacity="0.24" d="M77.0352 43.5056C82.7023 43.585 87.0836 41.3626 89.3695 39.9498C89.2901 41.9817 89.1949 43.9977 89.1155 46.0296C85.9724 46.5535 80.464 46.998 74.1778 44.9819C62.796 41.3467 57.2082 32.2984 55.7637 29.7744C56.224 30.5999 63.7008 43.331 77.0352 43.5056Z" fill="#3D3D3D"/>
<path opacity="0.19" d="M46.382 23.9644C49.7791 23.9803 52.065 23.4723 52.1127 23.7104C52.1444 23.9009 50.7316 24.4724 49.2394 24.7581C44.9057 25.5836 40.9372 23.7898 40.9848 23.5358C41.0324 23.3612 42.8103 23.9485 46.382 23.9644Z" fill="#3D3D3D"/>
<circle cx="50.0967" cy="6.47117" r="4.47654" fill="#EC615B"/>
<ellipse cx="49.1921" cy="6.13763" rx="5.07976" ry="5.09563" stroke="#161616" stroke-width="0.317485"/>
<path d="M49.8907 3.34377C48.8906 3.28027 46.319 4.2486 47.2714 5.69316C47.827 6.53449 48.9065 5.97889 49.6843 6.18526C50.6844 6.45512 50.5733 7.66156 49.9542 8.24891C49.3033 8.85213 48.3826 8.75689 47.7635 8.20129C47.5413 7.99492 47.1921 8.32828 47.4302 8.53465C48.6842 9.67759 50.9225 9.02675 50.9225 7.16946C50.9225 6.32813 50.351 5.7884 49.5573 5.69316C48.97 5.61379 47.3191 6.05826 47.7 4.85182C47.954 4.02636 49.1763 3.77237 49.9066 3.81999C50.2082 3.83587 50.2082 3.35964 49.8907 3.34377Z" fill="#161616"/>
<path d="M49.3508 3.56606C49.3984 3.04221 49.446 2.53424 49.4937 2.01039C49.5254 1.70878 49.0492 1.70878 49.0174 2.01039C48.9698 2.53424 48.9222 3.04221 48.8746 3.56606C48.8428 3.86768 49.319 3.86768 49.3508 3.56606Z" fill="#161616"/>
<path d="M49.0337 9.24916C49.0814 9.61427 49.129 9.99525 49.1607 10.3604C49.1925 10.662 49.6687 10.662 49.637 10.3604C49.5893 9.99525 49.5417 9.61427 49.51 9.24916C49.4782 8.94755 49.002 8.94755 49.0337 9.24916Z" fill="#161616"/>
<path d="M95.148 31.0598C94.6242 31.0916 92.8621 31.171 90.608 31.7266C89.3222 32.044 88.3062 32.4092 87.7189 32.6473C86.6553 34.8062 85.2901 38.1398 84.7821 42.3623C84.0519 48.3787 85.5124 52.252 86.5124 58.2366C87.195 62.348 87.7506 68.3008 86.9887 75.8252C88.6078 77.3015 92.8304 80.7463 99.2436 81.6352C108.324 82.9052 114.991 78.1111 116.372 77.0793C117.213 71.8725 118.007 66.5229 118.721 61.0463C119.944 51.7757 120.864 42.8068 121.547 34.1871C117.15 30.0439 113.34 28.9327 110.657 28.7104C105.498 28.266 100.831 30.7424 95.148 31.0598Z" fill="#EC615B"/>
<path opacity="0.17" d="M102.275 35.06C103.26 36.076 104.609 37.6158 105.815 39.7112C111.61 49.7755 108.022 61.5224 106.419 66.7292C105.307 70.3803 103.196 75.7299 99.0371 81.5081C100.625 81.778 102.625 81.9367 104.911 81.7145C110.34 81.1747 114.276 78.7142 116.245 77.2538C117.737 68.777 119.007 59.7604 119.991 50.2358C120.563 44.6481 120.991 39.2032 121.309 33.9488C120.69 33.3456 119.737 32.536 118.467 31.7265C116.419 30.4089 113.197 28.3611 109.562 28.9961C104.926 29.7898 102.577 34.4251 102.275 35.06Z" fill="#3D3D3D"/>
<path opacity="0.11" d="M120.594 37.584C119.785 39.854 118.531 43.4733 117.261 48.0134C113.483 61.3319 113.752 67.0466 109.165 73.9201C107.768 76.0155 105.419 78.984 101.466 81.9208C103.418 81.9049 106.244 81.6668 109.466 80.6032C112.387 79.6349 114.626 78.3332 116.15 77.2696C117.388 70.6342 118.483 63.4749 119.293 55.8076C119.943 49.4262 120.372 43.3305 120.594 37.584Z" fill="#3D3D3D"/>
<path d="M113.228 68.1425C112.895 67.5234 113.244 66.6027 113.768 66.1106C114.736 65.1899 116.498 65.5391 117.292 66.5392C117.403 66.6821 117.943 67.3488 117.721 67.9203C117.245 69.0791 113.911 69.3807 113.228 68.1425Z" fill="white" stroke="#161616" stroke-width="0.476228"/>
<path d="M117.704 31.4888C120.07 33.1238 122.991 35.505 125.8 38.8385C128.864 42.4579 130.864 46.109 132.198 49.1727C133.325 51.7919 134.007 54.1255 134.436 55.8875C133.023 59.1417 130.372 63.9357 125.483 68.1424C123.721 69.6663 121.975 70.841 120.371 71.7617C119.53 72.6983 118.355 73.8889 116.8 75.1112C115.784 75.9208 114.403 77.0002 114.085 76.7304C113.831 76.5081 114.276 75.4128 114.958 74.6509C115.768 73.7619 116.768 73.492 116.752 73.4444C116.736 73.3968 115.847 73.5555 115.022 74.1905C114.069 74.9366 114.117 75.6351 113.641 75.7462C112.641 75.9843 110.339 73.5714 110.688 71.1268C110.974 69.079 112.99 67.9837 113.672 67.6027C115.546 66.5709 117.371 66.7614 118.038 66.8566C120.419 63.1579 122.8 59.4751 125.181 55.7764C124.53 55.2525 123.673 54.5064 122.737 53.5381C121.641 52.411 118.562 49.2044 117.085 44.8073C115.101 38.902 116.927 33.4572 117.704 31.4888Z" fill="white" stroke="#161616" stroke-width="0.476228"/>
<path d="M111.07 73.1427C111.657 71.841 112.657 70.8251 113.959 70.2536C114.244 70.1266 113.99 69.7139 113.721 69.8409C112.355 70.4441 111.26 71.5394 110.657 72.9046C110.53 73.1745 110.943 73.4126 111.07 73.1427Z" fill="#161616"/>
<path d="M112.815 75.349C112.323 73.8569 113.768 72.3171 114.958 71.6345C115.228 71.4757 114.99 71.063 114.72 71.2217C113.339 72.0155 111.783 73.7616 112.355 75.476C112.45 75.7618 112.91 75.6348 112.815 75.349Z" fill="#161616"/>
<path opacity="0.18" d="M116.975 34.1081C118.88 36.0765 121.563 39.0132 124.436 42.8707C128.468 48.252 130.468 50.9507 130.611 53.7922C130.865 59.0624 126.912 65.6502 121.705 68.1584C120.197 68.8886 116.276 70.3649 114.022 73.254C113.371 74.0794 112.705 75.2224 112.943 75.4764C113.149 75.6828 113.911 75.143 114.165 75.397C114.467 75.6986 113.737 76.6193 113.943 76.8257C114.197 77.0797 115.61 76.1749 117.038 75.0319C117.959 74.2858 119.086 73.2699 120.277 71.9364C121.785 71.0792 123.388 69.9998 125.023 68.6346C130.214 64.3009 133.008 59.237 134.5 55.7764C134.135 54.3795 133.579 52.4905 132.706 50.3157C130.071 43.7596 126.547 39.5212 125.388 38.1878C123.722 36.2511 121.213 33.7271 117.705 31.2983C117.451 32.2349 117.213 33.1715 116.975 34.1081Z" fill="#3D3D3D"/>
<path opacity="0.21" d="M132.198 58.0942C130.675 60.0626 129.897 61.3166 129.262 62.2532C128.055 63.9994 126.261 65.6662 122.658 68.9998C121.372 70.1903 119.626 71.7778 117.483 73.6033C115.229 75.5558 114.134 76.5559 114.181 76.6194C114.245 76.6988 116.419 75.0479 120.721 71.6666C121.531 71.1904 122.674 70.4919 123.96 69.5077C131.357 63.8406 134.675 55.6971 134.373 55.5066C134.246 55.4432 133.564 56.3162 132.198 58.0942Z" fill="#3D3D3D"/>
<path d="M91.8301 5.02656C87.163 8.85226 87.3535 16.6148 89.1791 21.631C90.3379 24.8059 92.1952 26.9807 93.4175 28.1871C93.1635 30.0285 92.9095 31.8699 92.6555 33.7113C94.0049 34.3304 95.9415 34.9813 98.3068 35.0924C104.498 35.394 108.927 31.7747 110.133 30.727C109.038 27.06 107.942 23.3931 106.847 19.7102C106.704 18.6784 106.466 17.091 106.212 15.1543C105.53 10.1063 105.561 9.83646 105.26 9.011C105.133 8.67764 103.228 3.83599 98.7989 2.97878C95.2272 2.31207 92.2746 4.66145 91.8301 5.02656Z" fill="white" stroke="#161616" stroke-width="0.476228"/>
<path d="M87.9885 17.948C87.7186 19.0116 87.4329 20.6784 87.6234 22.6786C87.7504 24.012 87.9726 26.3296 89.6394 28.5679C91.4332 30.9808 93.8461 31.9015 94.8779 32.2349C94.7985 31.965 94.7033 31.6316 94.6557 31.2348C94.6081 30.8221 94.6239 30.4411 94.6557 30.1553C95.751 30.7586 96.8622 31.3459 97.9575 31.9491C100.736 29.3934 101.656 27.044 101.974 25.3454C102.228 24.012 102.386 21.5674 102.974 17.0908C103.085 16.2971 103.291 14.8684 104.196 14.5033C104.625 14.3287 105.196 14.4081 105.561 14.7256C106.657 15.6463 105.545 18.3131 105.784 18.3925C106.022 18.4719 107.942 15.7891 107.292 12.7254C106.958 11.138 106.038 10.0427 105.498 9.50293C104.291 11.4078 102.958 13.3762 101.482 15.3923C100.545 16.6781 99.6084 17.8845 98.6877 19.0592C98.3385 19.2497 97.8147 19.4561 97.2114 19.4085C96.7352 19.3608 96.5765 19.2021 96.2272 19.1069C94.9255 18.7417 94.2271 20.2815 92.9413 20.0752C91.8936 19.9006 91.7983 18.7735 90.6395 18.7417C90.0839 18.7259 89.8617 18.9799 89.2902 18.8687C88.687 18.6941 88.2584 18.2814 87.9885 17.948Z" fill="#161616" stroke="#161616" stroke-width="0.476228"/>
<path d="M93.3858 13.4395C92.989 15.281 92.735 17.1382 92.6239 19.0114C92.608 19.2019 92.8302 19.2971 92.989 19.2178C93.6398 18.8844 94.3065 18.5352 94.9574 18.2018C95.2272 18.059 94.9891 17.6462 94.7193 17.7891C94.0684 18.1225 93.4017 18.4717 92.7508 18.805C92.8778 18.8685 92.989 18.9479 93.116 19.0114C93.2271 17.17 93.4652 15.3603 93.862 13.5665C93.9097 13.2649 93.4493 13.1379 93.3858 13.4395Z" fill="#161616"/>
<ellipse cx="90.8456" cy="14.4241" rx="0.365108" ry="0.920707" fill="#161616" stroke="#161616" stroke-width="0.476228"/>
<ellipse cx="97.0048" cy="14.4241" rx="0.492102" ry="0.920707" fill="#161616" stroke="#161616" stroke-width="0.476228"/>
<path d="M89.957 12.6303C90.2586 12.0747 90.9253 12.2017 91.4174 12.3763C91.7032 12.4716 91.8302 12.0112 91.5444 11.916C90.846 11.662 89.957 11.6461 89.5443 12.3922C89.4014 12.6462 89.8141 12.9002 89.957 12.6303Z" fill="#161616"/>
<path d="M95.9574 11.979C96.7035 11.2647 97.8465 11.3282 98.4814 12.1854C98.6561 12.4235 99.0688 12.1854 98.8942 11.9473C98.0846 10.8519 96.6241 10.7091 95.6241 11.6456C95.4018 11.852 95.7352 12.1854 95.9574 11.979Z" fill="#161616"/>
<path d="M84.3058 9.70914C90.9888 10.106 97.656 10.6616 104.291 11.3918C105.196 11.4871 105.196 10.0584 104.291 9.96313C97.6401 9.23292 90.973 8.67732 84.3058 8.28046C83.3851 8.23284 83.3851 9.66152 84.3058 9.70914Z" fill="#161616"/>
<path d="M88.623 8.72504C88.7342 7.69322 89.1469 5.04222 91.1788 2.88332C93.8298 0.0735758 98.7349 -1.10112 102.545 1.28002C105.529 3.15318 107.132 6.77251 106.593 10.4553C100.608 9.88386 94.6235 9.31239 88.623 8.72504Z" fill="#5222D0"/>
<path opacity="0.69" d="M97.0684 0.549887C96.2906 1.20073 96.2906 2.58179 96.5604 4.04222C96.8621 5.64552 97.6399 7.59806 98.7987 9.61409C101.402 9.9157 104.005 10.2332 106.609 10.5348C106.72 9.96332 106.831 9.13786 106.736 8.15365C106.736 8.15365 106.561 6.34399 105.609 4.70894C103.704 1.43885 98.7193 -0.847047 97.0684 0.549887Z" fill="#3A1DA3"/>
<path opacity="0.24" d="M105.228 19.1862C104.641 19.5036 104.053 19.4243 103.847 19.3767C104.355 20.345 105.926 23.6151 105.164 27.8376C104.434 31.8538 102.053 34.2826 101.228 35.0604C102.259 34.854 103.434 34.5207 104.704 34.0127C107.117 33.0285 108.927 31.7268 110.149 30.6632C108.879 26.2026 107.609 21.7419 106.339 17.2812C106.339 17.3606 106.276 18.6306 105.228 19.1862Z" fill="#3D3D3D"/>
<path opacity="0.19" d="M99.3546 10.8682C99.5451 11.6778 99.7039 12.9001 99.5134 14.3288C99.18 16.7416 98.0212 18.4084 97.418 19.1863C97.7831 19.0752 98.1482 18.9482 98.5133 18.837C99.2435 17.9481 99.9896 16.9956 100.72 16.0273C101.926 14.424 103.037 12.8366 104.053 11.3126C102.482 11.1698 100.926 11.011 99.3546 10.8682Z" fill="#3D3D3D"/>
</svg>
